<?xml version="1.0" standalone="no"?>
<!DOCTYPE svg PUBLIC "-//W3C//DTD SVG 1.1//EN" "http://www.w3.org/Graphics/SVG/1.1/DTD/svg11.dtd" >
<svg xmlns="http://www.w3.org/2000/svg" xmlns:xlink="http://www.w3.org/1999/xlink" version="1.1">
<metadata>
Created by FontForge 20201107 at Tue May 17 13:06:56 2022
 By 
Copyright (c) 2019-2022 by TypeType. All rights reserved.
</metadata>
<defs>
<font id="TTHovesProTrial-Lt" horiz-adv-x="553" >
  <font-face 
    font-family="TT Hoves Pro Trial Light"
    font-weight="300"
    font-stretch="normal"
    units-per-em="1000"
    panose-1="2 11 0 3 2 0 0 2 2 3"
    ascent="800"
    descent="-200"
    x-height="500"
    cap-height="700"
    bbox="-330 -233 1438 983"
    underline-thickness="55"
    underline-position="-192"
    unicode-range="U+000D-F8FF"
  />
<missing-glyph horiz-adv-x="900" 
d="M100 0v284h45v-139h33v139h50v31h-128v126l19 -61h23l34 106l33 -106h23l54 170h-32l-34 -110l-35 110h-19l-35 -110l-31 103v157h700v-150h-110v-170h110v-91q-6 13 -19.5 20t-30.5 7q-27 0 -43.5 -14.5t-16.5 -34.5q0 -22 14.5 -32.5t39.5 -17.5q17 -5 25.5 -9.5
t8.5 -13.5q0 -21 -28 -21q-14 0 -21 7t-7 18h-33q0 -24 17 -39.5t44 -15.5q17 0 30.5 6.5t19.5 13.5v-163h-700zM311 380h33v62h24l35 -62h37l-40 67q36 17 36 50q0 22 -16 37.5t-41 15.5h-68v-170zM469 550v-170h33v170h-33zM580 519v-139h32v139h50v31h-132v-31h50z
M344 473v46h35q10 0 17 -6.5t7 -16.5q0 -12 -7.5 -17.5t-16.5 -5.5h-35zM800 483h-78v36h78v-36zM800 411h-78v41h78v-41zM387.5 167.5q22.5 24.5 22.5 61.5t-23 62t-59 25t-59 -25t-23 -62t22.5 -61.5t59.5 -24.5t59.5 24.5zM633 162q19 19 19 47v106h-32v-106
q0 -15 -9.5 -25t-25.5 -10q-17 0 -26.5 10.5t-9.5 24.5v106h-32v-106q0 -28 19.5 -47t48.5 -19t48 19zM800 224q-15 14 -46 22q-16 5 -23 9t-7 12q0 9 7.5 14.5t18.5 5.5q10 0 18 -7t8 -18h24v-38zM291.5 190q-14.5 16 -14.5 39q0 25 14 40.5t37 15.5q24 0 37.5 -15.5
t13.5 -40.5q0 -23 -14.5 -39t-36.5 -16t-36.5 16z" />
    <glyph glyph-name="f_f.liga" unicode="ff" horiz-adv-x="535" 
d="M108 0v447h-80v53h80v98q0 38 22.5 60t62.5 22h85v-53h-75q-38 0 -38 -39v-88h177v98q0 38 22.5 60t62.5 22h85v-53h-75q-19 0 -29 -10t-10 -29v-88h114v-53h-114v-447h-56v447h-177v-447h-57z" />
    <glyph glyph-name="fi.liga" unicode="fi" horiz-adv-x="474" 
d="M108 0v447h-80v53h80v98q0 38 22.5 60t62.5 22h75v-53h-65q-38 0 -38 -39v-88h233v-500h-56v447h-177v-447h-57zM403 613h-66v67h66v-67z" />
    <glyph glyph-name="f_j.liga" unicode="fj" horiz-adv-x="474" 
d="M228 -200v53h69q21 0 33 12t12 33v549h-177v-447h-57v447h-80v53h80v98q0 38 22.5 60t62.5 22h75v-53h-65q-38 0 -38 -39v-88h233v-608q0 -42 -26 -67t-69 -25h-75zM403 613h-66v67h66v-67z" />
    <glyph glyph-name="fl.liga" unicode="fl" horiz-adv-x="480" 
d="M108 0v447h-80v53h80v98q0 38 22.5 60t62.5 22h205v-680h-56v627h-139q-38 0 -38 -39v-88h103v-53h-103v-447h-57z" />
    <glyph glyph-name="f_f_i.liga" unicode="ffi" horiz-adv-x="708" 
d="M108 0v447h-80v53h80v98q0 38 22.5 60t62.5 22h85v-53h-75q-38 0 -38 -39v-88h177v98q0 38 22.5 60t62.5 22h75v-53h-65q-19 0 -29 -10t-10 -29v-88h234v-500h-57v447h-177v-447h-56v447h-177v-447h-57zM637 613h-67v67h67v-67z" />
    <glyph glyph-name="f_f_j.liga" unicode="ffj" horiz-adv-x="708" 
d="M462 -200v53h68q21 0 33 12t12 33v549h-177v-447h-56v447h-177v-447h-57v447h-80v53h80v98q0 38 22.5 60t62.5 22h85v-53h-75q-38 0 -38 -39v-88h177v98q0 38 22.5 60t62.5 22h75v-53h-65q-19 0 -29 -10t-10 -29v-88h234v-608q0 -42 -26 -67t-69 -25h-75zM637 613h-67v67
h67v-67z" />
    <glyph glyph-name="f_f_l.liga" unicode="ffl" horiz-adv-x="713" 
d="M108 0v447h-80v53h80v98q0 38 22.5 60t62.5 22h85v-53h-75q-38 0 -38 -39v-88h177v98q0 38 22.5 60t62.5 22h205v-680h-57v627h-138q-19 0 -29 -10t-10 -29v-88h104v-53h-104v-447h-56v447h-177v-447h-57z" />
    <glyph glyph-name=".notdef" horiz-adv-x="900" 
d="M100 0v284h45v-139h33v139h50v31h-128v126l19 -61h23l34 106l33 -106h23l54 170h-32l-34 -110l-35 110h-19l-35 -110l-31 103v157h700v-150h-110v-170h110v-91q-6 13 -19.5 20t-30.5 7q-27 0 -43.5 -14.5t-16.5 -34.5q0 -22 14.5 -32.5t39.5 -17.5q17 -5 25.5 -9.5
t8.5 -13.5q0 -21 -28 -21q-14 0 -21 7t-7 18h-33q0 -24 17 -39.5t44 -15.5q17 0 30.5 6.5t19.5 13.5v-163h-700zM311 380h33v62h24l35 -62h37l-40 67q36 17 36 50q0 22 -16 37.5t-41 15.5h-68v-170zM469 550v-170h33v170h-33zM580 519v-139h32v139h50v31h-132v-31h50z
M344 473v46h35q10 0 17 -6.5t7 -16.5q0 -12 -7.5 -17.5t-16.5 -5.5h-35zM800 483h-78v36h78v-36zM800 411h-78v41h78v-41zM387.5 167.5q22.5 24.5 22.5 61.5t-23 62t-59 25t-59 -25t-23 -62t22.5 -61.5t59.5 -24.5t59.5 24.5zM633 162q19 19 19 47v106h-32v-106
q0 -15 -9.5 -25t-25.5 -10q-17 0 -26.5 10.5t-9.5 24.5v106h-32v-106q0 -28 19.5 -47t48.5 -19t48 19zM800 224q-15 14 -46 22q-16 5 -23 9t-7 12q0 9 7.5 14.5t18.5 5.5q10 0 18 -7t8 -18h24v-38zM291.5 190q-14.5 16 -14.5 39q0 25 14 40.5t37 15.5q24 0 37.5 -15.5
t13.5 -40.5q0 -23 -14.5 -39t-36.5 -16t-36.5 16z" />
    <glyph glyph-name=".null" horiz-adv-x="0" 
 />
    <glyph glyph-name="nonmarkingreturn" unicode="&#xd;" horiz-adv-x="223" 
 />
    <glyph glyph-name="space" unicode=" " horiz-adv-x="223" 
 />
    <glyph glyph-name="exclam" unicode="!" horiz-adv-x="243" 
d="M145 157h-47l-6 220v323h60v-323zM157 0h-70v70h70v-70z" />
    <glyph glyph-name="quotedbl" unicode="&#x22;" horiz-adv-x="320" 
d="M118 500h-56v200h56v-200zM258 500h-56v200h56v-200z" />
    <glyph glyph-name="numbersign" unicode="#" horiz-adv-x="685" 
d="M182 0h-57l42 195h-150l11 53h150l44 205h-150l11 54h151l41 193h57l-42 -193h172l41 193h57l-42 -193h150l-11 -54h-150l-44 -205h150l-11 -53h-151l-41 -195h-57l42 195h-172zM278 453l-43 -205h172l43 205h-172z" />
    <glyph glyph-name="dollar" unicode="$" horiz-adv-x="610" 
d="M495 48.5q-60 -53.5 -168 -58.5v-100h-57v102q-67 7 -117.5 37t-77.5 76t-27 100h60q0 -44 23.5 -80t68.5 -57t107 -21q93 0 140.5 37.5t47.5 100.5q0 104 -135 130l-123 23q-88 17 -131 60.5t-43 116.5q0 80 55 133.5t152 60.5v101h57v-101q68 -6 118.5 -35.5t77.5 -76
t27 -102.5h-60q0 44 -23.5 80t-67 57t-102.5 21q-83 0 -128.5 -38.5t-45.5 -99.5q0 -99 130 -123l107 -20q101 -19 148 -65t47 -122q0 -83 -60 -136.5z" />
    <glyph glyph-name="percent" unicode="%" horiz-adv-x="762" 
d="M117.5 420q-34.5 20 -55 55.5t-20.5 79.5t20.5 79.5t55 55.5t75.5 20q42 0 76.5 -20t55 -55.5t20.5 -79.5t-20.5 -79.5t-55 -55.5t-76.5 -20q-41 0 -75.5 20zM193 0h-60l435 700h60zM263 479.5q29 29.5 29 75.5q0 47 -29 76t-70 29q-40 0 -69 -29.5t-29 -75.5t29 -75.5
t69 -29.5q41 0 70 29.5zM492.5 10q-34.5 20 -55 55.5t-20.5 79.5t20.5 79.5t55 55.5t75.5 20q42 0 76.5 -20t55 -55.5t20.5 -79.5t-20.5 -79.5t-55 -55.5t-76.5 -20q-41 0 -75.5 20zM638 69.5q29 29.5 29 75.5q0 47 -29 76t-70 29q-40 0 -69 -29.5t-29 -75.5t29 -75.5
t69 -29.5q41 0 70 29.5z" />
    <glyph glyph-name="ampersand" unicode="&#x26;" horiz-adv-x="620" 
d="M146 13q-47 23 -71.5 62t-24.5 88q0 51 25 90.5t75 78.5l47 35l-52 56q-30 33 -46 62t-16 67q0 46 23 82t63 56t89 20q50 0 90 -21.5t62.5 -58.5t22.5 -83q0 -77 -91 -144l-65 -48l176 -190q24 31 38 74t14 91h57q0 -62 -19 -117t-48 -90l117 -123h-75l-77 82
q-29 -35 -84.5 -63.5t-118.5 -28.5q-64 0 -111 23zM307 443q66 50 66 104q0 46 -32 76t-83 30q-50 0 -82.5 -28t-32.5 -73q0 -28 11 -49.5t38 -50.5l50 -55zM418 123l-183 202l-42 -30q-44 -31 -63.5 -59.5t-19.5 -68.5q0 -51 39 -85.5t108 -34.5q94 0 161 76z" />
    <glyph glyph-name="quotesingle" unicode="'" horiz-adv-x="180" 
d="M118 500h-56v200h56v-200z" />
    <glyph glyph-name="parenleft" unicode="(" horiz-adv-x="313" 
d="M225 -200q-147 210 -147 465t147 465h62q-152 -205 -152 -465t152 -465h-62z" />
    <glyph glyph-name="parenright" unicode=")" horiz-adv-x="313" 
d="M27 -200q151 205 151 465t-151 465h61q147 -208 147 -465t-147 -465h-61z" />
    <glyph glyph-name="asterisk" unicode="*" horiz-adv-x="457" 
d="M228 472l-91 -132l-42 35l95 123l-148 44l15 50l148 -52l-3 160h53l-3 -160l148 52l15 -50l-148 -44l95 -123l-42 -35z" />
    <glyph glyph-name="plus" unicode="+" horiz-adv-x="530" 
d="M293 63h-56v200h-185v54h185v200h56v-200h185v-54h-185v-200z" />
    <glyph glyph-name="comma" unicode="," horiz-adv-x="202" 
d="M97 -83h-49l22 153h68z" />
    <glyph glyph-name="hyphen" unicode="-" horiz-adv-x="413" 
d="M367 258h-320v54h320v-54z" />
    <glyph glyph-name="period" unicode="." horiz-adv-x="203" 
d="M137 0h-70v70h70v-70z" />
    <glyph glyph-name="slash" unicode="/" horiz-adv-x="332" 
d="M57 -200h-57l275 930h57z" />
    <glyph glyph-name="zero" unicode="0" horiz-adv-x="647" 
d="M189 32.5q-60 42.5 -94.5 124t-34.5 193.5t34.5 193.5t94.5 124t134 42.5t134 -42.5t95 -124t35 -193.5t-35 -193.5t-95 -124t-134 -42.5t-134 42.5zM426.5 82.5q46.5 35.5 73.5 104t27 163.5t-27 163.5t-73.5 104t-103.5 35.5q-56 0 -102.5 -35.5t-73.5 -104t-27 -163.5
t27 -163.5t73.5 -104t102.5 -35.5q57 0 103.5 35.5z" />
    <glyph glyph-name="one" unicode="1" horiz-adv-x="323" 
d="M177 0v567h-150v53h120q30 0 30 30v50h60v-700h-60z" />
    <glyph glyph-name="two" unicode="2" horiz-adv-x="538" 
d="M63 0v50l289 307q34 36 48.5 67t14.5 76q0 68 -41 110.5t-107 42.5q-42 0 -76 -21.5t-53.5 -60t-19.5 -86.5h-60q0 64 27 115.5t74.5 80.5t107.5 29t107.5 -26.5t74 -74t26.5 -109.5q0 -58 -20.5 -100t-61.5 -85l-243 -253v-5h340v-57h-427z" />
    <glyph glyph-name="three" unicode="3" horiz-adv-x="547" 
d="M146.5 16q-50.5 26 -78.5 70.5t-28 98.5h60q0 -39 20 -70.5t57 -49.5t86 -18q72 0 118 40t46 101q0 63 -45 101.5t-119 38.5h-45v57h45q72 0 113 38.5t41 96.5q0 37 -19 67t-54 48t-81 18q-44 0 -79 -18.5t-54.5 -49t-19.5 -65.5h-60q0 50 27 93.5t76 70t110 26.5
q62 0 111 -25t76 -68.5t27 -97.5q0 -60 -33.5 -101t-80.5 -59v-5q51 -16 87.5 -59.5t36.5 -106.5q0 -55 -28.5 -100.5t-79.5 -71.5t-116 -26q-66 0 -116.5 26z" />
    <glyph glyph-name="four" unicode="4" horiz-adv-x="535" 
d="M410 0h-60v168h-323v47l280 485h103v-478h98v-54h-98v-168zM102 227v-5h248v401h-20z" />
    <glyph glyph-name="five" unicode="5" horiz-adv-x="563" 
d="M173 13q-49 23 -81 67t-39 105h60q11 -64 57 -101t108 -37q48 0 87.5 22.5t62 62.5t22.5 92q0 53 -22 93t-60 61.5t-86 21.5q-92 0 -145 -63h-69l39 363h364v-57h-313l-26 -240h5q62 54 153 54q58 0 108.5 -29.5t81 -83t30.5 -120.5q0 -69 -30 -122.5t-82.5 -82.5
t-119.5 -29q-56 0 -105 23z" />
    <glyph glyph-name="six" unicode="6" 
d="M159.5 20.5q-53.5 30.5 -85 83t-31.5 116.5q0 38 12 76t32 67l218 337h68l-177 -277h4q40 20 88 20q60 0 111 -29t81 -80t30 -114q0 -64 -31 -116.5t-84.5 -83t-117.5 -30.5t-117.5 30.5zM363.5 69.5q39.5 22.5 63 62t23.5 88.5t-23.5 88.5t-63 62t-86.5 22.5t-87 -22.5
t-63.5 -62t-23.5 -88.5t23.5 -88.5t63.5 -62t87 -22.5t86.5 22.5z" />
    <glyph glyph-name="seven" unicode="7" horiz-adv-x="488" 
d="M200 0h-64l253 643h-359v57h427v-47z" />
    <glyph glyph-name="eight" unicode="8" horiz-adv-x="560" 
d="M164 17q-51 27 -79 72.5t-28 97.5q0 63 35.5 108t84.5 64v5q-43 17 -74 58t-31 98q0 52 26 95.5t73.5 69t108.5 25.5t108.5 -25.5t73.5 -69t26 -95.5q0 -57 -31 -98t-74 -58v-5q49 -19 84.5 -64t35.5 -108q0 -52 -28 -97t-79 -72.5t-116 -27.5t-116 27zM388 425
q40 38 40 95q0 56 -40 94.5t-108 38.5t-108 -38.5t-40 -94.5q0 -57 40 -95t108 -38t108 38zM363 66q37 19 58.5 51.5t21.5 72.5t-21.5 72.5t-58.5 51.5t-83 19t-83 -19t-58.5 -51.5t-21.5 -72.5t21.5 -72.5t58.5 -51.5t83 -19t83 19z" />
    <glyph glyph-name="nine" unicode="9" 
d="M180 0l178 277h-5q-40 -20 -88 -20q-60 0 -111 29t-81 80t-30 114q0 64 31.5 116.5t85 83t117.5 30.5t117.5 -30.5t84.5 -83t31 -116.5q0 -37 -12 -75.5t-31 -67.5l-219 -337h-68zM363.5 329.5q39.5 22.5 63 62t23.5 88.5t-23.5 88.5t-63 62t-86.5 22.5t-87 -22.5
t-63.5 -62t-23.5 -88.5t23.5 -88.5t63.5 -62t87 -22.5t86.5 22.5z" />
    <glyph glyph-name="colon" unicode=":" horiz-adv-x="203" 
d="M137 430h-70v70h70v-70zM137 0h-70v70h70v-70z" />
    <glyph glyph-name="semicolon" unicode=";" horiz-adv-x="203" 
d="M140 430h-70v70h70v-70zM97 -83h-49l22 153h68z" />
    <glyph glyph-name="less" unicode="&#x3c;" horiz-adv-x="532" 
d="M472 140v-57l-415 180v54l415 180v-57l-355 -150z" />
    <glyph glyph-name="equal" unicode="=" horiz-adv-x="525" 
d="M448 343h-371v54h371v-54zM448 183h-371v54h371v-54z" />
    <glyph glyph-name="greater" unicode="&#x3e;" horiz-adv-x="532" 
d="M475 263l-415 -180v57l355 150l-355 150v57l415 -180v-54z" />
    <glyph glyph-name="question" unicode="?" horiz-adv-x="500" 
d="M208 220q0 55 22.5 86.5t76.5 60.5q47 25 68.5 58t21.5 83q0 41 -20.5 74.5t-55.5 52t-78 18.5q-45 0 -79.5 -18.5t-54 -50t-19.5 -69.5h-60q0 55 27 99.5t75.5 70t110.5 25.5q61 0 110 -26.5t76.5 -73t27.5 -102.5q0 -65 -30 -109.5t-87 -75.5q-42 -22 -57 -44.5
t-15 -58.5v-63h-60v63zM273 0h-70v70h70v-70z" />
    <glyph glyph-name="at" unicode="@" horiz-adv-x="918" 
d="M457 -90q-114 0 -203.5 48.5t-140 136.5t-50.5 200q0 114 51 204t141 140.5t202 50.5q119 0 212 -50.5t144.5 -138.5t51.5 -196q0 -112 -44.5 -168.5t-115.5 -56.5q-43 0 -70.5 24t-34.5 53h-5q-19 -29 -60 -53t-92 -24q-56 0 -100.5 26.5t-70 74.5t-25.5 109t25.5 109
t70 74.5t100.5 26.5q50 0 88 -21.5t54 -51.5h5l8 63h49v-285q0 -35 15.5 -53.5t42.5 -18.5q47 0 75 41t28 131q0 95 -44 171t-124 118.5t-183 42.5q-97 0 -174 -43.5t-120 -121t-43 -177.5q0 -99 43 -174.5t119.5 -116.5t174.5 -41h201v-53h-201zM550 176q40 43 40 114
t-40 114t-103 43q-64 0 -104 -43t-40 -114t40 -114t104 -43q63 0 103 43z" />
    <glyph glyph-name="A" unicode="A" horiz-adv-x="637" 
d="M630 0h-63l-71 190h-355l-71 -190h-63l265 700h93zM309 637l-146 -390h311l-146 390h-19z" />
    <glyph glyph-name="B" unicode="B" horiz-adv-x="638" 
d="M87 0v700h286q54 0 97 -25t68 -68.5t25 -96.5q0 -56 -27 -97.5t-61 -57.5v-5q39 -14 68.5 -56.5t29.5 -103.5q0 -53 -24.5 -96.5t-68 -68.5t-97.5 -25h-296zM373 377q56 0 93 38t37 95q0 58 -37 95.5t-93 37.5h-226v-266h226zM383 57q56 0 93 37.5t37 95.5t-37 95.5
t-93 37.5h-236v-266h236z" />
    <glyph glyph-name="C" unicode="C" horiz-adv-x="733" 
d="M218.5 35.5q-75.5 45.5 -119.5 127.5t-44 187t44 187t119.5 127.5t166.5 45.5q111 0 194 -63t113 -172h-64q-27 84 -91.5 131t-151.5 47q-74 0 -136 -38t-98 -107t-36 -158t36 -158t98 -107t136 -38q87 0 151.5 48t91.5 135h64q-30 -112 -112.5 -176t-194.5 -64
q-91 0 -166.5 45.5z" />
    <glyph glyph-name="D" unicode="D" horiz-adv-x="698" 
d="M87 0v700h221q96 0 172.5 -44t119.5 -124t43 -182t-43 -182t-119.5 -124t-172.5 -44h-221zM308 57q77 0 140 36.5t99 103t36 153.5t-36 153.5t-99 103t-140 36.5h-161v-586h161z" />
    <glyph glyph-name="E" unicode="E" horiz-adv-x="588" 
d="M527 0h-440v700h440v-57h-380v-261h360v-57h-360v-268h380v-57z" />
    <glyph glyph-name="F" unicode="F" horiz-adv-x="567" 
d="M147 0h-60v700h430v-57h-370v-263h350v-57h-350v-323z" />
    <glyph glyph-name="G" unicode="G" horiz-adv-x="767" 
d="M408 355h284v-355h-49l-8 118h-5q-37 -56 -104 -92t-143 -36q-90 0 -165 45.5t-119 127.5t-44 187t44 187t119 127.5t165 45.5q104 0 187.5 -59t116.5 -161h-64q-30 76 -96 119.5t-144 43.5q-74 0 -135 -38t-97 -107t-36 -158t36 -158t97 -107t135 -38q64 0 121.5 32
t92.5 84.5t35 112.5v26h-224v53z" />
    <glyph glyph-name="H" unicode="H" horiz-adv-x="710" 
d="M147 0h-60v700h60v-317h416v317h60v-700h-60v327h-416v-327z" />
    <glyph glyph-name="I" unicode="I" horiz-adv-x="233" 
d="M147 0h-60v700h60v-700z" />
    <glyph glyph-name="J" unicode="J" horiz-adv-x="385" 
d="M13 0v57h175q25 0 40 15.5t15 40.5v587h60v-593q0 -50 -28 -78.5t-80 -28.5h-182z" />
    <glyph glyph-name="K" unicode="K" horiz-adv-x="542" 
d="M147 0h-60v700h60v-332l318 332h77l-334 -345l354 -355h-77l-338 341v-341z" />
    <glyph glyph-name="L" unicode="L" horiz-adv-x="530" 
d="M507 0h-420v700h60v-643h360v-57z" />
    <glyph glyph-name="M" unicode="M" horiz-adv-x="893" 
d="M147 0h-60v700h115l235 -633h20l235 633h115v-700h-60v623h-20l-232 -623h-97l-231 623h-20v-623z" />
    <glyph glyph-name="N" unicode="N" horiz-adv-x="710" 
d="M147 0h-60v700h106l350 -630h20v630h60v-700h-106l-350 630h-20v-630z" />
    <glyph glyph-name="O" unicode="O" horiz-adv-x="767" 
d="M218 35.5q-75 45.5 -119 127.5t-44 187t44 187t119 127.5t165 45.5q91 0 166 -45.5t119 -127.5t44 -187t-44 -187t-119 -127.5t-166 -45.5q-90 0 -165 45.5zM518.5 85q61.5 38 97.5 107t36 158t-36 158t-97.5 107t-135.5 38t-135 -38t-97 -107t-36 -158t36 -158t97 -107
t135 -38t135.5 38z" />
    <glyph glyph-name="P" unicode="P" horiz-adv-x="633" 
d="M87 0v700h290q57 0 103 -27t72 -74.5t26 -108.5t-26 -108.5t-72 -74.5t-103 -27h-230v-280h-60zM377 337q61 0 101 42t40 111t-40 111t-101 42h-230v-306h230z" />
    <glyph glyph-name="Q" unicode="Q" horiz-adv-x="767" 
d="M685 199.5q-27 -68.5 -76 -116.5l98 -93h-77l-61 58q-83 -58 -186 -58q-90 0 -165 45.5t-119 127.5t-44 187t44 187t119 127.5t165 45.5q91 0 166 -45.5t119 -127.5t44 -187q0 -82 -27 -150.5zM151 192q36 -69 97 -107t135 -38q78 0 143 42l-176 171h77l140 -136
q40 41 62.5 99t22.5 127q0 89 -36 158t-97.5 107t-135.5 38t-135 -38t-97 -107t-36 -158t36 -158z" />
    <glyph glyph-name="R" unicode="R" horiz-adv-x="637" 
d="M301 280l292 -280h-76l-292 280h-78v-280h-60v700h290q57 0 103 -27t72 -74.5t26 -108.5t-26 -108.5t-72 -74.5t-103 -27h-76zM147 337h230q61 0 101 42t40 111t-40 111t-101 42h-230v-306z" />
    <glyph glyph-name="S" unicode="S" horiz-adv-x="610" 
d="M170.5 19q-58.5 29 -90.5 78t-32 108h60q0 -44 23.5 -80t68.5 -57t107 -21q94 0 141 38t47 100q0 104 -135 130l-123 23q-88 17 -131 60.5t-43 116.5q0 56 28 100.5t81 69.5t125 25q76 0 133.5 -28.5t88.5 -77.5t31 -109h-60q0 44 -23.5 80t-67 57t-102.5 21
q-83 0 -128.5 -38.5t-45.5 -99.5q0 -99 130 -123l107 -20q101 -19 148 -65t47 -122q0 -57 -29 -101t-84.5 -69t-134.5 -25q-78 0 -136.5 29z" />
    <glyph glyph-name="T" unicode="T" horiz-adv-x="587" 
d="M323 0h-60v643h-238v57h537v-57h-239v-643z" />
    <glyph glyph-name="U" unicode="U" horiz-adv-x="690" 
d="M209 25.5q-61 35.5 -96.5 100.5t-35.5 149v425h60v-425q0 -67 27.5 -119t75 -80.5t105.5 -28.5t105.5 28.5t75 80.5t27.5 119v425h60v-425q0 -84 -35.5 -149t-96.5 -100.5t-136 -35.5t-136 35.5z" />
    <glyph glyph-name="V" unicode="V" horiz-adv-x="633" 
d="M365 0h-97l-253 700h64l227 -637h21l228 637h63z" />
    <glyph glyph-name="W" unicode="W" horiz-adv-x="947" 
d="M304 0h-109l-175 700h63l157 -637h20l165 637h97l165 -637h20l156 637h64l-175 -700h-109l-160 617h-20z" />
    <glyph glyph-name="X" unicode="X" horiz-adv-x="613" 
d="M84 0h-69l245 360l-230 340h68l198 -293h22l197 293h68l-230 -340l245 -360h-68l-212 313h-22z" />
    <glyph glyph-name="Y" unicode="Y" horiz-adv-x="587" 
d="M323 0h-60v262l-256 438h64l212 -365h20l213 365h64l-257 -438v-262z" />
    <glyph glyph-name="Z" unicode="Z" horiz-adv-x="572" 
d="M532 0h-492v50l412 593h-407v57h482v-50l-412 -593h417v-57z" />
    <glyph glyph-name="bracketleft" unicode="[" horiz-adv-x="315" 
d="M283 -200h-193v930h193v-53h-136v-824h136v-53z" />
    <glyph glyph-name="backslash" unicode="\" horiz-adv-x="332" 
d="M332 -200h-57l-275 930h57z" />
    <glyph glyph-name="bracketright" unicode="]" horiz-adv-x="315" 
d="M225 -200h-193v53h136v824h-136v53h193v-930z" />
    <glyph glyph-name="asciicircum" unicode="^" horiz-adv-x="402" 
d="M115 430h-53l110 270h58l110 -270h-53l-84 213h-5z" />
    <glyph glyph-name="underscore" unicode="_" horiz-adv-x="350" 
d="M370 -153h-390v53h390v-53z" />
    <glyph glyph-name="grave" unicode="`" horiz-adv-x="217" 
d="M187 583h-54l-103 130h68z" />
    <glyph glyph-name="a" unicode="a" horiz-adv-x="527" 
d="M101.5 32q-46.5 42 -46.5 110q0 72 48.5 113.5t144.5 41.5h147v25q0 64 -35 99.5t-97 35.5q-60 0 -96 -29.5t-40 -72.5h-57q3 42 26 77.5t66 56.5t101 21q87 0 138 -49.5t51 -138.5v-322h-49l-8 77h-5q-20 -38 -64.5 -62.5t-102.5 -24.5q-75 0 -121.5 42zM350 92
q45 49 45 128v23h-147q-68 0 -102 -27t-34 -74q0 -45 29.5 -72t81.5 -27q82 0 127 49z" />
    <glyph glyph-name="b" unicode="b" horiz-adv-x="582" 
d="M143 87h-5l-8 -87h-48v700h56v-287h5q66 97 170 97q63 0 114.5 -32.5t81 -91.5t29.5 -136t-29.5 -136t-81 -91.5t-114.5 -32.5q-104 0 -170 97zM395.5 68.5q39.5 25.5 63 72.5t23.5 109t-23.5 109t-63 72.5t-85.5 25.5q-45 0 -84.5 -25.5t-63.5 -73t-24 -108.5t24 -108.5
t63.5 -73t84.5 -25.5q46 0 85.5 25.5z" />
    <glyph glyph-name="c" unicode="c" horiz-adv-x="530" 
d="M158.5 22.5q-53.5 32.5 -84.5 91.5t-31 136t31 136t84.5 91.5t118.5 32.5q80 0 138 -46t77 -124h-57q-16 56 -58.5 86.5t-99.5 30.5q-49 0 -89.5 -26t-64 -73t-23.5 -108t23.5 -108t64 -73t89.5 -26q57 0 99.5 31.5t58.5 90.5h57q-19 -82 -77 -128.5t-138 -46.5
q-65 0 -118.5 32.5z" />
    <glyph glyph-name="d" unicode="d" horiz-adv-x="582" 
d="M153.5 22.5q-51.5 32.5 -81 91.5t-29.5 136t29.5 136t81 91.5t114.5 32.5q104 0 170 -97h5v287h57v-700h-48l-9 87h-5q-66 -97 -170 -97q-63 0 -114.5 32.5zM356.5 68.5q39.5 25.5 63 73t23.5 108.5t-23.5 108.5t-63 73t-84.5 25.5q-46 0 -85.5 -25.5t-63 -72.5
t-23.5 -109t23.5 -109t63 -72.5t85.5 -25.5q45 0 84.5 25.5z" />
    <glyph glyph-name="e" unicode="e" horiz-adv-x="547" 
d="M159 23q-54 33 -85 92t-31 135t31 135t85 92t119 33q64 0 115 -31t80.5 -86t29.5 -123q0 -23 -3 -47h-400q4 -54 28.5 -95t64 -63t85.5 -22q51 0 91 25.5t59 71.5h60q-25 -72 -79.5 -111t-130.5 -39q-65 0 -119 33zM447 277q-2 52 -24.5 93t-60 64t-83.5 23
q-48 0 -87.5 -23t-63.5 -64t-28 -93h347z" />
    <glyph glyph-name="f" unicode="f" horiz-adv-x="302" 
d="M108 0v447h-80v53h80v98q0 38 22.5 60t62.5 22h85v-53h-75q-38 0 -38 -39v-88h113v-53h-113v-447h-57z" />
    <glyph glyph-name="g" unicode="g" horiz-adv-x="577" 
d="M167.5 -186q-48.5 24 -75 63t-29.5 83h57q3 -30 22.5 -57t55 -43.5t83.5 -16.5q74 0 118 43t44 114v110h-5q-28 -43 -72.5 -66.5t-97.5 -23.5q-63 0 -114.5 31t-81 87t-29.5 127t29.5 127t81 87t114.5 31q53 0 98.5 -25t71.5 -68h5l9 83h48v-500q0 -96 -58.5 -153
t-159.5 -57q-66 0 -114.5 24zM359 97q39 24 61.5 68t22.5 100t-22.5 100t-61.5 68t-87 24t-87.5 -24t-62 -68t-22.5 -100t22.5 -100t62 -68t87.5 -24t87 24z" />
    <glyph glyph-name="h" unicode="h" horiz-adv-x="573" 
d="M82 0v700h56v-270h5q20 30 62.5 55t96.5 25q56 0 101 -26t70 -73.5t25 -110.5v-300h-56v300q0 45 -19.5 81t-53 56t-74.5 20q-43 0 -79 -21t-57 -57t-21 -79v-300h-56z" />
    <glyph glyph-name="i" unicode="i" horiz-adv-x="210" 
d="M133 0h-56v500h56v-500zM139 620h-67v67h67v-67z" />
    <glyph glyph-name="j" unicode="j" horiz-adv-x="210" 
d="M-37 -200v53h75q19 0 29 10t10 29v608h56v-618q0 -38 -22.5 -60t-62.5 -22h-85zM139 620h-67v67h67v-67z" />
    <glyph glyph-name="k" unicode="k" horiz-adv-x="473" 
d="M138 0h-56v700h56v-431l248 231h74l-263 -245l273 -255h-74l-258 241v-241z" />
    <glyph glyph-name="l" unicode="l" horiz-adv-x="220" 
d="M138 0h-56v700h56v-700z" />
    <glyph glyph-name="m" unicode="m" horiz-adv-x="842" 
d="M77 0v500h48l8 -65h5q22 32 58.5 53.5t78.5 21.5q56 0 95 -29.5t53 -67.5h5q21 41 65 69t99 28q50 0 90 -24t62.5 -68.5t22.5 -102.5v-315h-57v315q0 65 -34.5 103.5t-90.5 38.5q-36 0 -67 -19t-49.5 -51.5t-18.5 -71.5v-315h-57v315q0 65 -34.5 103.5t-90.5 38.5
q-35 0 -66 -19t-50 -51.5t-19 -71.5v-315h-56z" />
    <glyph glyph-name="n" unicode="n" horiz-adv-x="568" 
d="M77 0v500h48l8 -70h5q20 30 62.5 55t96.5 25q56 0 101 -26t70 -73.5t25 -110.5v-300h-56v300q0 45 -19.5 81t-53 56t-74.5 20q-43 0 -79 -21t-57 -57t-21 -79v-300h-56z" />
    <glyph glyph-name="o" unicode="o" 
d="M158.5 22.5q-53.5 32.5 -84.5 91.5t-31 136t31 136t84.5 91.5t118.5 32.5t118 -32.5t84 -91.5t31 -136t-31 -136t-84 -91.5t-118 -32.5t-118.5 32.5zM365.5 69q40.5 26 64 73t23.5 108t-23.5 108t-64 73t-88.5 26q-49 0 -89.5 -26t-64 -73t-23.5 -108t23.5 -108t64 -73
t89.5 -26q48 0 88.5 26z" />
    <glyph glyph-name="p" unicode="p" horiz-adv-x="577" 
d="M77 -200v700h48l8 -87h5q66 97 170 97q63 0 114.5 -32.5t81 -91.5t29.5 -136t-29.5 -136t-81 -91.5t-114.5 -32.5q-104 0 -170 97h-5v-287h-56zM390.5 68.5q39.5 25.5 63 72.5t23.5 109t-23.5 109t-63 72.5t-85.5 25.5q-45 0 -84.5 -25.5t-63.5 -73t-24 -108.5t24 -108.5
t63.5 -73t84.5 -25.5q46 0 85.5 25.5z" />
    <glyph glyph-name="q" unicode="q" horiz-adv-x="577" 
d="M443 -200v287h-5q-66 -97 -170 -97q-63 0 -114.5 32.5t-81 91.5t-29.5 136t29.5 136t81 91.5t114.5 32.5q104 0 170 -97h5l9 87h48v-700h-57zM356.5 68.5q39.5 25.5 63 73t23.5 108.5t-23.5 108.5t-63 73t-84.5 25.5q-46 0 -85.5 -25.5t-63 -72.5t-23.5 -109t23.5 -109
t63 -72.5t85.5 -25.5q45 0 84.5 25.5z" />
    <glyph glyph-name="r" unicode="r" horiz-adv-x="337" 
d="M77 0v500h48l8 -50h5q18 26 38.5 38t56.5 12h94v-53h-87q-51 0 -79 -29.5t-28 -80.5v-337h-56z" />
    <glyph glyph-name="s" unicode="s" horiz-adv-x="458" 
d="M126 11.5q-44 21.5 -67.5 57t-23.5 76.5h57q0 -42 37 -72t99 -30q63 0 97.5 25t34.5 64q0 70 -93 86l-87 15q-135 23 -135 135q0 62 46.5 102t131.5 40q56 0 99 -21.5t66.5 -57t23.5 -76.5h-57q0 43 -36 72.5t-96 29.5q-58 0 -89.5 -25t-31.5 -64q0 -32 20.5 -52.5
t67.5 -28.5l87 -15q140 -25 140 -140q0 -62 -49.5 -102t-139.5 -40q-58 0 -102 21.5z" />
    <glyph glyph-name="t" unicode="t" horiz-adv-x="335" 
d="M193 0q-40 0 -62.5 22t-22.5 60v365h-80v53h80v140h57v-140h123v-53h-123v-355q0 -39 38 -39h85v-53h-95z" />
    <glyph glyph-name="u" unicode="u" horiz-adv-x="568" 
d="M170.5 16q-44.5 26 -70 73.5t-25.5 110.5v300h57v-300q0 -45 19 -81t52.5 -56t74.5 -20q43 0 79 21t57 57t21 79v300h57v-500h-49l-8 70h-5q-21 -31 -62.5 -55.5t-95.5 -24.5q-57 0 -101.5 26z" />
    <glyph glyph-name="v" unicode="v" horiz-adv-x="490" 
d="M292 0h-94l-185 500h61l162 -440h18l162 440h61z" />
    <glyph glyph-name="w" unicode="w" horiz-adv-x="753" 
d="M255 0h-103l-134 500h61l114 -440h20l115 440h97l115 -440h20l115 440h60l-134 -500h-103l-111 430h-20z" />
    <glyph glyph-name="x" unicode="x" horiz-adv-x="463" 
d="M81 0h-68l169 255l-164 245h68l134 -205h23l134 205h68l-163 -245l168 -255h-68l-139 215h-22z" />
    <glyph glyph-name="y" unicode="y" horiz-adv-x="477" 
d="M403 500h60l-226 -635q-12 -35 -32.5 -50t-57.5 -15h-84v53h80q19 0 28.5 9t16.5 28l27 78l-202 532h61l161 -432h20z" />
    <glyph glyph-name="z" unicode="z" horiz-adv-x="423" 
d="M395 0h-367v48l290 399h-285v53h357v-48l-290 -399h295v-53z" />
    <glyph glyph-name="braceleft" unicode="{" horiz-adv-x="313" 
d="M232 -200q-46 0 -73 26.5t-27 73.5v267q0 28 -18.5 45.5t-51.5 17.5v70q33 0 51.5 17.5t18.5 45.5v267q0 47 27 73.5t73 26.5h48v-50h-42q-26 0 -38 -12t-12 -38v-267q0 -42 -25 -64.5t-55 -23.5v-20q30 -1 55 -23.5t25 -64.5v-267q0 -26 12 -38t38 -12h42v-50h-48z" />
    <glyph glyph-name="bar" unicode="|" horiz-adv-x="297" 
d="M177 -200h-57v930h57v-930z" />
    <glyph glyph-name="braceright" unicode="}" horiz-adv-x="313" 
d="M33 -200v50h42q26 0 38 12t12 38v267q0 42 25 64.5t55 23.5v20q-30 1 -55 23.5t-25 64.5v267q0 26 -12 38t-38 12h-42v50h49q46 0 73 -27t27 -73v-267q0 -28 18.5 -45.5t51.5 -17.5v-70q-33 0 -51.5 -17.5t-18.5 -45.5v-267q0 -46 -27 -73t-73 -27h-49z" />
    <glyph glyph-name="asciitilde" unicode="~" horiz-adv-x="558" 
d="M48 200q0 71 35.5 112t99.5 41q34 0 58 -14.5t55 -43.5q25 -23 41.5 -34t37.5 -11q39 0 58.5 25.5t19.5 74.5h57q0 -71 -35.5 -112t-99.5 -41q-33 0 -58 15t-55 43q-25 23 -41.5 34t-37.5 11q-38 0 -58 -25.5t-20 -74.5h-57z" />
    <glyph glyph-name="uni00A0" unicode="&#xa0;" horiz-adv-x="223" 
 />
    <glyph glyph-name="exclamdown" unicode="&#xa1;" horiz-adv-x="243" 
d="M157 430h-70v70h70v-70zM152 -200h-60v326l6 217h47l7 -217v-326z" />
    <glyph glyph-name="cent" unicode="&#xa2;" horiz-adv-x="530" 
d="M247 -7q-59 8 -105 42t-72.5 89.5t-26.5 125.5t26.5 125.5t72.5 89.5t105 42v103h56v-103q72 -9 121 -52t68 -115h-57q-16 56 -58.5 86.5t-99.5 30.5q-49 0 -89.5 -26t-64 -73t-23.5 -108t23.5 -108t64 -73t89.5 -26q57 0 99.5 31.5t58.5 90.5h57q-18 -75 -67.5 -119
t-121.5 -53v-103h-56v103z" />
    <glyph glyph-name="sterling" unicode="&#xa3;" horiz-adv-x="587" 
d="M40 0v57h25q58 0 58 60v191h-83v54h83v143q0 58 26 105t73.5 73.5t109.5 26.5t109.5 -25.5t74 -70t26.5 -99.5h-60q0 38 -18.5 69.5t-52.5 50t-79 18.5q-67 0 -108 -41.5t-41 -106.5v-143h207v-54h-207v-191q0 -24 -8 -39t-20 -21h402v-57h-517z" />
    <glyph glyph-name="currency" unicode="&#xa4;" horiz-adv-x="570" 
d="M123 147l-41 38l54 63q-12 15 -21.5 42t-9.5 60t9.5 60t21.5 42l-54 63l41 38l54 -59q17 14 46 25t62 11t62 -11t46 -25l54 59l41 -38l-54 -63q12 -15 21.5 -42t9.5 -60t-9.5 -60t-21.5 -42l54 -63l-41 -38l-54 59q-17 -14 -46 -25t-62 -11t-62 11t-46 25zM348.5 240
q29.5 17 46.5 46.5t17 63.5t-17 63.5t-46.5 46.5t-63.5 17t-63.5 -17t-46.5 -46.5t-17 -63.5t17 -63.5t46.5 -46.5t63.5 -17t63.5 17z" />
    <glyph glyph-name="yen" unicode="&#xa5;" horiz-adv-x="573" 
d="M317 0h-60v140h-180v53h180v97h-180v53h138l-202 357h65l198 -357h21l199 357h64l-202 -357h139v-53h-180v-97h180v-53h-180v-140z" />
    <glyph glyph-name="brokenbar" unicode="&#xa6;" horiz-adv-x="297" 
d="M177 360h-57v370h57v-370zM177 -200h-57v370h57v-370z" />
    <glyph glyph-name="section" unicode="&#xa7;" horiz-adv-x="613" 
d="M187 -143.5q-53 26.5 -81 73t-28 105.5h60q0 -66 45.5 -107t128.5 -41q74 0 116 31t42 84q0 45 -30 75t-88 41l-100 20q-94 19 -139 60t-45 107q0 39 19.5 72.5t47.5 54.5q-19 15 -33 43.5t-14 64.5q0 75 56.5 122.5t157.5 47.5q69 0 121 -27.5t79.5 -74t27.5 -103.5h-60
q0 65 -44 106.5t-124 41.5q-73 0 -113.5 -32t-40.5 -81q0 -41 25 -66t89 -37l100 -20q94 -19 138.5 -60t44.5 -107q0 -42 -18 -76.5t-45 -56.5q19 -15 33.5 -45t14.5 -70q0 -51 -27 -90t-76 -60.5t-115 -21.5q-72 0 -125 26.5zM485 250q0 86 -123 110l-100 20q-60 11 -79 22
q-24 -16 -39.5 -41t-15.5 -56q0 -86 124 -110l100 -20q51 -10 85 -28q48 37 48 103z" />
    <glyph glyph-name="dieresis" unicode="&#xa8;" horiz-adv-x="300" 
d="M97 620h-67v67h67v-67zM270 620h-67v67h67v-67z" />
    <glyph glyph-name="copyright" unicode="&#xa9;" horiz-adv-x="840" 
d="M238.5 37q-81.5 47 -128.5 129t-47 184t47 184t128.5 129t181.5 47t181.5 -47t128.5 -129t47 -184t-47 -184t-128.5 -129t-181.5 -47t-181.5 47zM572.5 80.5q69.5 40.5 110 111.5t40.5 158t-40.5 158t-110 111.5t-152.5 40.5t-152.5 -40.5t-110 -111.5t-40.5 -158
t40.5 -158t110 -111.5t152.5 -40.5t152.5 40.5zM333.5 184.5q-40.5 24.5 -63 68t-22.5 97.5t23.5 97.5t64 68t89.5 24.5q59 0 102.5 -33.5t59.5 -91.5h-50q-25 78 -112 78q-55 0 -91 -39t-36 -104t36 -104t91 -39q87 0 112 83h50q-15 -60 -59 -95t-103 -35q-51 0 -91.5 24.5
z" />
    <glyph glyph-name="ordfeminine" unicode="&#xaa;" horiz-adv-x="332" 
d="M67 416.5q-30 26.5 -30 70.5q0 43 30.5 69t85.5 26h89v15q0 33 -21.5 51.5t-52.5 18.5q-29 0 -48 -13.5t-27 -38.5h-46q8 43 40 69t81 26q52 0 84.5 -31.5t32.5 -81.5v-202h-32l-8 45h-5q-14 -23 -38 -36.5t-57 -13.5q-48 0 -78 26.5zM217.5 460q24.5 27 24.5 73v9h-89
q-31 0 -50.5 -14.5t-19.5 -40.5q0 -25 18.5 -39.5t46.5 -14.5q45 0 69.5 27z" />
    <glyph glyph-name="guillemotleft" unicode="&#xab;" horiz-adv-x="472" 
d="M250 60h-62l-136 190l136 190h62l-137 -190zM420 60h-62l-136 190l136 190h62l-137 -190z" />
    <glyph glyph-name="logicalnot" unicode="&#xac;" horiz-adv-x="523" 
d="M445 165h-57v147h-316v53h373v-200z" />
    <glyph glyph-name="uni00AD" unicode="&#xad;" horiz-adv-x="413" 
d="M367 258h-320v54h320v-54z" />
    <glyph glyph-name="registered" unicode="&#xae;" horiz-adv-x="840" 
d="M601.5 663q81.5 -47 128.5 -129t47 -184t-47 -184t-128.5 -129t-181.5 -47t-181.5 47t-128.5 129t-47 184t47 184t128.5 129t181.5 47t181.5 -47zM572.5 80.5q69.5 40.5 110 111.5t40.5 158t-40.5 158t-110 111.5t-152.5 40.5t-152.5 -40.5t-110 -111.5t-40.5 -158
t40.5 -158t110 -111.5t152.5 -40.5t152.5 40.5zM539.5 332q-33.5 -34 -87.5 -35l131 -132h-62l-132 132h-52v-132h-50v375h160q56 0 91 -35t35 -87t-33.5 -86zM337 343h110q36 0 56 20.5t20 54.5t-20 54.5t-56 20.5h-110v-150z" />
    <glyph glyph-name="macron" unicode="&#xaf;" horiz-adv-x="333" 
d="M303 630h-273v47h273v-47z" />
    <glyph glyph-name="degree" unicode="&#xb0;" horiz-adv-x="377" 
d="M97.5 487q-35.5 37 -35.5 93t35.5 93t90.5 37t91 -37t36 -93t-36 -93t-91 -37t-90.5 37zM245.5 520.5q22.5 23.5 22.5 59.5t-22.5 59.5t-57.5 23.5t-57.5 -23.5t-22.5 -59.5t22.5 -59.5t57.5 -23.5t57.5 23.5z" />
    <glyph glyph-name="plusminus" unicode="&#xb1;" horiz-adv-x="530" 
d="M293 140h-56v193h-185v54h185v193h56v-193h185v-54h-185v-193zM475 0h-420v53h420v-53z" />
    <glyph glyph-name="uni00B2" unicode="&#xb2;" horiz-adv-x="332" 
d="M57 440v38l141 150q19 20 27 35t8 35q0 27 -17.5 45.5t-47.5 18.5q-31 0 -50.5 -19t-19.5 -53h-46q0 50 32.5 82.5t83.5 32.5t81.5 -29.5t30.5 -77.5q0 -31 -11.5 -52t-38.5 -49l-102 -109v-5h157v-43h-228z" />
    <glyph glyph-name="uni00B3" unicode="&#xb3;" horiz-adv-x="328" 
d="M78 465q-33 30 -33 75h47q0 -25 19.5 -43.5t50.5 -18.5t50.5 17t19.5 47t-20 46.5t-54 16.5h-26v43h26q32 0 50.5 15.5t18.5 43.5q0 25 -17.5 40t-47.5 15q-31 0 -48 -16t-17 -41h-47q0 42 31 71t81 29q49 0 80.5 -28t31.5 -70q0 -24 -14 -45t-38 -32v-5q24 -9 40 -31
t16 -52q0 -46 -32 -76.5t-84 -30.5q-51 0 -84 30z" />
    <glyph glyph-name="acute" unicode="&#xb4;" horiz-adv-x="217" 
d="M83 583h-53l88 130h69z" />
    <glyph glyph-name="uni00B5" unicode="&#xb5;" horiz-adv-x="570" 
d="M77 -200v700h56v-300q0 -45 19.5 -81t53 -56t74.5 -20q43 0 79 21t57 57t21 79v300h56v-500h-48l-8 70h-5q-19 -30 -61 -55t-94 -25q-53 0 -91 22.5t-53 50.5v-263h-56z" />
    <glyph glyph-name="paragraph" unicode="&#xb6;" horiz-adv-x="505" 
d="M208 367q-44 0 -79.5 21t-56 59t-20.5 86q0 49 20.5 87t56 59t79.5 21h210v-800h-56v747h-97v-747h-57v467z" />
    <glyph glyph-name="periodcentered" unicode="&#xb7;" horiz-adv-x="223" 
d="M147 230h-70v70h70v-70z" />
    <glyph glyph-name="cedilla" unicode="&#xb8;" horiz-adv-x="193" 
d="M30 -195v40h35q25 0 38.5 11t13.5 29t-13.5 29t-38.5 11h-20v28l27 59l41 -12l-21 -47q31 -2 51 -23t20 -48q0 -34 -23.5 -55.5t-67.5 -21.5h-42z" />
    <glyph glyph-name="uni00B9" unicode="&#xb9;" horiz-adv-x="253" 
d="M128 440v267h-91v43h61q30 0 30 30v20h47v-360h-47z" />
    <glyph glyph-name="ordmasculine" unicode="&#xba;" horiz-adv-x="367" 
d="M81.5 434.5q-39.5 44.5 -39.5 115.5t39.5 115.5t101.5 44.5q63 0 102.5 -44.5t39.5 -115.5t-39.5 -115.5t-102.5 -44.5q-62 0 -101.5 44.5zM250 465.5q28 32.5 28 84.5t-28 84.5t-67 32.5t-67 -32.5t-28 -84.5t28 -84.5t67 -32.5t67 32.5z" />
    <glyph glyph-name="guillemotright" unicode="&#xbb;" horiz-adv-x="472" 
d="M113 60h-61l136 190l-136 190h61l137 -190zM283 60h-61l136 190l-136 190h61l137 -190z" />
    <glyph glyph-name="onequarter" unicode="&#xbc;" horiz-adv-x="666" 
d="M128 340v267h-91v43h61q30 0 30 30v20h47v-360h-47zM125 0h-54l435 700h54zM590 0h-47v80h-165v40l138 240h74v-237h53v-43h-53v-80zM436 128v-5h107v177h-10z" />
    <glyph glyph-name="onehalf" unicode="&#xbd;" horiz-adv-x="690" 
d="M128 340v267h-91v43h61q30 0 30 30v20h47v-360h-47zM125 0h-54l435 700h54zM415 0v38l141 150q19 20 27 35t8 35q0 27 -17.5 45.5t-47.5 18.5q-31 0 -50.5 -19t-19.5 -53h-46q0 50 32.5 82.5t83.5 32.5t81.5 -29.5t30.5 -77.5q0 -31 -11.5 -52t-38.5 -49l-102 -109v-5
h157v-43h-228z" />
    <glyph glyph-name="threequarters" unicode="&#xbe;" horiz-adv-x="721" 
d="M78 365q-33 30 -33 75h47q0 -25 19.5 -43.5t50.5 -18.5t50.5 17t19.5 47t-20 46.5t-54 16.5h-26v43h26q32 0 50.5 15.5t18.5 43.5q0 25 -17.5 40t-47.5 15q-31 0 -48 -16t-17 -41h-47q0 42 31 71t81 29q49 0 80.5 -28t31.5 -70q0 -24 -14 -45t-38 -32v-5q24 -9 40 -31
t16 -52q0 -46 -32 -76.5t-84 -30.5q-51 0 -84 30zM180 0h-54l435 700h54zM645 0h-47v80h-165v40l138 240h74v-237h53v-43h-53v-80zM491 128v-5h107v177h-10z" />
    <glyph glyph-name="questiondown" unicode="&#xbf;" horiz-adv-x="500" 
d="M297 430h-70v70h70v-70zM147 -183.5q-49 26.5 -76.5 73t-27.5 102.5q0 65 30 109.5t87 75.5q42 22 57 44.5t15 58.5v63h60v-63q0 -55 -22.5 -86.5t-76.5 -60.5q-47 -25 -68.5 -58t-21.5 -83q0 -41 20.5 -74.5t55.5 -52t78 -18.5q45 0 79.5 18.5t54 50t19.5 69.5h60
q0 -55 -27 -99.5t-75.5 -70t-110.5 -25.5q-61 0 -110 26.5z" />
    <glyph glyph-name="Agrave" unicode="&#xc0;" horiz-adv-x="637" 
d="M630 0h-63l-71 190h-355l-71 -190h-63l265 700h93zM309 637l-146 -390h311l-146 390h-19zM345 775h-54l-103 130h68z" />
    <glyph glyph-name="Aacute" unicode="&#xc1;" horiz-adv-x="637" 
d="M630 0h-63l-71 190h-355l-71 -190h-63l265 700h93zM309 637l-146 -390h311l-146 390h-19zM344 775h-53l88 130h69z" />
    <glyph glyph-name="Acircumflex" unicode="&#xc2;" horiz-adv-x="637" 
d="M630 0h-63l-71 190h-355l-71 -190h-63l265 700h93zM309 637l-146 -390h311l-146 390h-19zM237 775h-62l113 127h60l114 -127h-62l-82 92z" />
    <glyph glyph-name="Atilde" unicode="&#xc3;" horiz-adv-x="637" 
d="M630 0h-63l-71 190h-355l-71 -190h-63l265 700h93zM309 637l-146 -390h311l-146 390h-19zM168 795q0 42 26 67.5t66 25.5q18 0 33.5 -7.5t33.5 -20.5q17 -12 27 -17t22 -5q20 0 32.5 13.5t12.5 36.5h47q0 -41 -26 -67t-66 -26q-18 0 -33.5 7.5t-33.5 20.5q-17 12 -27 17
t-22 5q-21 0 -33 -13t-12 -37h-47z" />
    <glyph glyph-name="Adieresis" unicode="&#xc4;" horiz-adv-x="637" 
d="M630 0h-63l-71 190h-355l-71 -190h-63l265 700h93zM309 637l-146 -390h311l-146 390h-19zM265 815h-67v67h67v-67zM438 815h-67v67h67v-67z" />
    <glyph glyph-name="Aring" unicode="&#xc5;" horiz-adv-x="637" 
d="M630 0h-63l-71 190h-355l-71 -190h-63l265 700h93zM309 637l-146 -390h311l-146 390h-19zM257 790q-25 25 -25 62q0 36 25 61t62 25q36 0 61 -25t25 -61q0 -37 -25 -62t-61 -25q-37 0 -62 25zM351.5 818q13.5 13 13.5 34q0 20 -13.5 33t-32.5 13t-33 -13t-14 -33
q0 -21 14 -34t33 -13t32.5 13z" />
    <glyph glyph-name="AE" unicode="&#xc6;" horiz-adv-x="925" 
d="M863 700v-57h-380v-261h360v-57h-360v-268h380v-57h-440v190h-284l-82 -190h-64l305 700h565zM335 643l-171 -396h259v396h-88z" />
    <glyph glyph-name="Ccedilla" unicode="&#xc7;" horiz-adv-x="733" 
d="M536.5 95q64.5 48 91.5 135h64q-28 -107 -106 -171t-184 -69l-17 -37q31 -2 51 -23t20 -48q0 -34 -23.5 -55.5t-67.5 -21.5h-42v40h35q25 0 38.5 11t13.5 29t-13.5 29t-38.5 11h-20v28l18 38q-85 7 -153.5 54.5t-108 126.5t-39.5 178q0 105 44 187t119.5 127.5
t166.5 45.5q111 0 194 -63t113 -172h-64q-27 84 -91.5 131t-151.5 47q-74 0 -136 -38t-98 -107t-36 -158t36 -158t98 -107t136 -38q87 0 151.5 48z" />
    <glyph glyph-name="Egrave" unicode="&#xc8;" horiz-adv-x="588" 
d="M527 0h-440v700h440v-57h-380v-261h360v-57h-360v-268h380v-57zM340 775h-54l-103 130h68z" />
    <glyph glyph-name="Eacute" unicode="&#xc9;" horiz-adv-x="588" 
d="M527 0h-440v700h440v-57h-380v-261h360v-57h-360v-268h380v-57zM338 775h-53l88 130h69z" />
    <glyph glyph-name="Ecircumflex" unicode="&#xca;" horiz-adv-x="588" 
d="M527 0h-440v700h440v-57h-380v-261h360v-57h-360v-268h380v-57zM231 775h-62l113 127h60l114 -127h-62l-82 92z" />
    <glyph glyph-name="Edieresis" unicode="&#xcb;" horiz-adv-x="588" 
d="M527 0h-440v700h440v-57h-380v-261h360v-57h-360v-268h380v-57zM260 815h-67v67h67v-67zM433 815h-67v67h67v-67z" />
    <glyph glyph-name="Igrave" unicode="&#xcc;" horiz-adv-x="233" 
d="M147 0h-60v700h60v-700zM144 775h-54l-103 130h68z" />
    <glyph glyph-name="Iacute" unicode="&#xcd;" horiz-adv-x="233" 
d="M147 0h-60v700h60v-700zM142 775h-53l88 130h69z" />
    <glyph glyph-name="Icircumflex" unicode="&#xce;" horiz-adv-x="233" 
d="M147 0h-60v700h60v-700zM35 775h-62l113 127h60l114 -127h-62l-82 92z" />
    <glyph glyph-name="Idieresis" unicode="&#xcf;" horiz-adv-x="233" 
d="M147 0h-60v700h60v-700zM64 815h-67v67h67v-67zM237 815h-67v67h67v-67z" />
    <glyph glyph-name="Eth" unicode="&#xd0;" horiz-adv-x="735" 
d="M345 700q96 0 172 -44t119.5 -124t43.5 -182t-43.5 -182t-119.5 -124t-172 -44h-222v323h-98v57h98v320h222zM345 57q77 0 140 36.5t99 103t36 153.5t-36 153.5t-99 103t-140 36.5h-162v-263h195v-57h-195v-266h162z" />
    <glyph glyph-name="Ntilde" unicode="&#xd1;" horiz-adv-x="710" 
d="M147 0h-60v700h106l350 -630h20v630h60v-700h-106l-350 630h-20v-630zM205 795q0 42 26 67.5t66 25.5q18 0 33.5 -7.5t33.5 -20.5q17 -12 27 -17t22 -5q20 0 32.5 13.5t12.5 36.5h47q0 -41 -26 -67t-66 -26q-18 0 -33.5 7.5t-33.5 20.5q-17 12 -27 17t-22 5
q-21 0 -33 -13t-12 -37h-47z" />
    <glyph glyph-name="Ograve" unicode="&#xd2;" horiz-adv-x="767" 
d="M218 35.5q-75 45.5 -119 127.5t-44 187t44 187t119 127.5t165 45.5q91 0 166 -45.5t119 -127.5t44 -187t-44 -187t-119 -127.5t-166 -45.5q-90 0 -165 45.5zM518.5 85q61.5 38 97.5 107t36 158t-36 158t-97.5 107t-135.5 38t-135 -38t-97 -107t-36 -158t36 -158t97 -107
t135 -38t135.5 38zM410 775h-54l-103 130h68z" />
    <glyph glyph-name="Oacute" unicode="&#xd3;" horiz-adv-x="767" 
d="M218 35.5q-75 45.5 -119 127.5t-44 187t44 187t119 127.5t165 45.5q91 0 166 -45.5t119 -127.5t44 -187t-44 -187t-119 -127.5t-166 -45.5q-90 0 -165 45.5zM518.5 85q61.5 38 97.5 107t36 158t-36 158t-97.5 107t-135.5 38t-135 -38t-97 -107t-36 -158t36 -158t97 -107
t135 -38t135.5 38zM409 775h-53l88 130h69z" />
    <glyph glyph-name="Ocircumflex" unicode="&#xd4;" horiz-adv-x="767" 
d="M218 35.5q-75 45.5 -119 127.5t-44 187t44 187t119 127.5t165 45.5q91 0 166 -45.5t119 -127.5t44 -187t-44 -187t-119 -127.5t-166 -45.5q-90 0 -165 45.5zM518.5 85q61.5 38 97.5 107t36 158t-36 158t-97.5 107t-135.5 38t-135 -38t-97 -107t-36 -158t36 -158t97 -107
t135 -38t135.5 38zM302 775h-62l113 127h60l114 -127h-62l-82 92z" />
    <glyph glyph-name="Otilde" unicode="&#xd5;" horiz-adv-x="767" 
d="M218 35.5q-75 45.5 -119 127.5t-44 187t44 187t119 127.5t165 45.5q91 0 166 -45.5t119 -127.5t44 -187t-44 -187t-119 -127.5t-166 -45.5q-90 0 -165 45.5zM518.5 85q61.5 38 97.5 107t36 158t-36 158t-97.5 107t-135.5 38t-135 -38t-97 -107t-36 -158t36 -158t97 -107
t135 -38t135.5 38zM233 795q0 42 26 67.5t66 25.5q18 0 33.5 -7.5t33.5 -20.5q17 -12 27 -17t22 -5q20 0 32.5 13.5t12.5 36.5h47q0 -41 -26 -67t-66 -26q-18 0 -33.5 7.5t-33.5 20.5q-17 12 -27 17t-22 5q-21 0 -33 -13t-12 -37h-47z" />
    <glyph glyph-name="Odieresis" unicode="&#xd6;" horiz-adv-x="767" 
d="M218 35.5q-75 45.5 -119 127.5t-44 187t44 187t119 127.5t165 45.5q91 0 166 -45.5t119 -127.5t44 -187t-44 -187t-119 -127.5t-166 -45.5q-90 0 -165 45.5zM518.5 85q61.5 38 97.5 107t36 158t-36 158t-97.5 107t-135.5 38t-135 -38t-97 -107t-36 -158t36 -158t97 -107
t135 -38t135.5 38zM330 815h-67v67h67v-67zM503 815h-67v67h67v-67z" />
    <glyph glyph-name="multiply" unicode="&#xd7;" horiz-adv-x="527" 
d="M263 257l-145 -145l-38 38l145 145l-145 145l38 38l145 -145l145 145l39 -38l-145 -145l145 -145l-39 -38z" />
    <glyph glyph-name="Oslash" unicode="&#xd8;" horiz-adv-x="767" 
d="M573 649q65 -48 102 -125t37 -174q0 -105 -44 -187t-119 -127.5t-166 -45.5q-75 0 -141 32l-30 -57h-64l46 87q-65 48 -102 125t-37 173q0 105 44 187t119 127.5t165 45.5q76 0 142 -32l30 57h63zM143.5 208q28.5 -64 77.5 -104l277 523q-54 26 -115 26q-74 0 -135 -38
t-97 -107t-36 -158q0 -78 28.5 -142zM518.5 85q61.5 38 97.5 107t36 158q0 79 -28.5 142.5t-78.5 103.5l-276 -523q54 -26 114 -26q74 0 135.5 38z" />
    <glyph glyph-name="Ugrave" unicode="&#xd9;" horiz-adv-x="690" 
d="M209 25.5q-61 35.5 -96.5 100.5t-35.5 149v425h60v-425q0 -67 27.5 -119t75 -80.5t105.5 -28.5t105.5 28.5t75 80.5t27.5 119v425h60v-425q0 -84 -35.5 -149t-96.5 -100.5t-136 -35.5t-136 35.5zM372 775h-54l-103 130h68z" />
    <glyph glyph-name="Uacute" unicode="&#xda;" horiz-adv-x="690" 
d="M209 25.5q-61 35.5 -96.5 100.5t-35.5 149v425h60v-425q0 -67 27.5 -119t75 -80.5t105.5 -28.5t105.5 28.5t75 80.5t27.5 119v425h60v-425q0 -84 -35.5 -149t-96.5 -100.5t-136 -35.5t-136 35.5zM371 775h-53l88 130h69z" />
    <glyph glyph-name="Ucircumflex" unicode="&#xdb;" horiz-adv-x="690" 
d="M209 25.5q-61 35.5 -96.5 100.5t-35.5 149v425h60v-425q0 -67 27.5 -119t75 -80.5t105.5 -28.5t105.5 28.5t75 80.5t27.5 119v425h60v-425q0 -84 -35.5 -149t-96.5 -100.5t-136 -35.5t-136 35.5zM264 775h-62l113 127h60l114 -127h-62l-82 92z" />
    <glyph glyph-name="Udieresis" unicode="&#xdc;" horiz-adv-x="690" 
d="M209 25.5q-61 35.5 -96.5 100.5t-35.5 149v425h60v-425q0 -67 27.5 -119t75 -80.5t105.5 -28.5t105.5 28.5t75 80.5t27.5 119v425h60v-425q0 -84 -35.5 -149t-96.5 -100.5t-136 -35.5t-136 35.5zM292 815h-67v67h67v-67zM465 815h-67v67h67v-67z" />
    <glyph glyph-name="Yacute" unicode="&#xdd;" horiz-adv-x="587" 
d="M323 0h-60v262l-256 438h64l212 -365h20l213 365h64l-257 -438v-262zM319 775h-53l88 130h69z" />
    <glyph glyph-name="Thorn" unicode="&#xde;" horiz-adv-x="688" 
d="M87 0v700h60v-160h301q55 0 98.5 -24t68.5 -67.5t25 -98.5t-25 -98.5t-68.5 -67.5t-98.5 -24h-301v-160h-60zM448 217q58 0 95 36.5t37 96.5t-37 96.5t-95 36.5h-301v-266h301z" />
    <glyph glyph-name="germandbls" unicode="&#xdf;" horiz-adv-x="545" 
d="M75 515q0 58 25 102t70 68.5t103 24.5q61 0 107.5 -25t71.5 -68t25 -97q0 -60 -30.5 -102.5t-73.5 -55.5v-5q51 -12 90 -57t39 -108q0 -55 -27 -98.5t-78 -68.5t-119 -25h-33v53h33q77 0 122 39t45 100t-45 99.5t-122 38.5h-33v53h33q65 0 103.5 39t38.5 98t-40.5 98
t-106.5 39q-61 0 -101 -40.5t-40 -101.5v-515h-57v515z" />
    <glyph glyph-name="agrave" unicode="&#xe0;" horiz-adv-x="527" 
d="M101.5 32q-46.5 42 -46.5 110q0 72 48.5 113.5t144.5 41.5h147v25q0 64 -35 99.5t-97 35.5q-60 0 -96 -29.5t-40 -72.5h-57q3 42 26 77.5t66 56.5t101 21q87 0 138 -49.5t51 -138.5v-322h-49l-8 77h-5q-20 -38 -64.5 -62.5t-102.5 -24.5q-75 0 -121.5 42zM350 92
q45 49 45 128v23h-147q-68 0 -102 -27t-34 -74q0 -45 29.5 -72t81.5 -27q82 0 127 49zM295 583h-54l-103 130h68z" />
    <glyph glyph-name="aacute" unicode="&#xe1;" horiz-adv-x="527" 
d="M101.5 32q-46.5 42 -46.5 110q0 72 48.5 113.5t144.5 41.5h147v25q0 64 -35 99.5t-97 35.5q-60 0 -96 -29.5t-40 -72.5h-57q3 42 26 77.5t66 56.5t101 21q87 0 138 -49.5t51 -138.5v-322h-49l-8 77h-5q-20 -38 -64.5 -62.5t-102.5 -24.5q-75 0 -121.5 42zM350 92
q45 49 45 128v23h-147q-68 0 -102 -27t-34 -74q0 -45 29.5 -72t81.5 -27q82 0 127 49zM290 583h-53l88 130h69z" />
    <glyph glyph-name="acircumflex" unicode="&#xe2;" horiz-adv-x="527" 
d="M101.5 32q-46.5 42 -46.5 110q0 72 48.5 113.5t144.5 41.5h147v25q0 64 -35 99.5t-97 35.5q-60 0 -96 -29.5t-40 -72.5h-57q3 42 26 77.5t66 56.5t101 21q87 0 138 -49.5t51 -138.5v-322h-49l-8 77h-5q-20 -38 -64.5 -62.5t-102.5 -24.5q-75 0 -121.5 42zM350 92
q45 49 45 128v23h-147q-68 0 -102 -27t-34 -74q0 -45 29.5 -72t81.5 -27q82 0 127 49zM182 583h-62l113 127h60l114 -127h-62l-82 92z" />
    <glyph glyph-name="atilde" unicode="&#xe3;" horiz-adv-x="527" 
d="M101.5 32q-46.5 42 -46.5 110q0 72 48.5 113.5t144.5 41.5h147v25q0 64 -35 99.5t-97 35.5q-60 0 -96 -29.5t-40 -72.5h-57q3 42 26 77.5t66 56.5t101 21q87 0 138 -49.5t51 -138.5v-322h-49l-8 77h-5q-20 -38 -64.5 -62.5t-102.5 -24.5q-75 0 -121.5 42zM350 92
q45 49 45 128v23h-147q-68 0 -102 -27t-34 -74q0 -45 29.5 -72t81.5 -27q82 0 127 49zM113 603q0 42 26 68t66 26q18 0 33.5 -7.5t33.5 -20.5q17 -12 27 -17t22 -5q21 0 33 13t12 37h47q0 -42 -26 -68t-66 -26q-18 0 -33.5 7.5t-33.5 20.5q-17 12 -27 17t-22 5
q-21 0 -33 -13t-12 -37h-47z" />
    <glyph glyph-name="adieresis" unicode="&#xe4;" horiz-adv-x="527" 
d="M101.5 32q-46.5 42 -46.5 110q0 72 48.5 113.5t144.5 41.5h147v25q0 64 -35 99.5t-97 35.5q-60 0 -96 -29.5t-40 -72.5h-57q3 42 26 77.5t66 56.5t101 21q87 0 138 -49.5t51 -138.5v-322h-49l-8 77h-5q-20 -38 -64.5 -62.5t-102.5 -24.5q-75 0 -121.5 42zM350 92
q45 49 45 128v23h-147q-68 0 -102 -27t-34 -74q0 -45 29.5 -72t81.5 -27q82 0 127 49zM210 620h-67v67h67v-67zM383 620h-67v67h67v-67z" />
    <glyph glyph-name="aring" unicode="&#xe5;" horiz-adv-x="527" 
d="M101.5 32q-46.5 42 -46.5 110q0 72 48.5 113.5t144.5 41.5h147v25q0 64 -35 99.5t-97 35.5q-60 0 -96 -29.5t-40 -72.5h-57q3 42 26 77.5t66 56.5t101 21q87 0 138 -49.5t51 -138.5v-322h-49l-8 77h-5q-20 -38 -64.5 -62.5t-102.5 -24.5q-75 0 -121.5 42zM350 92
q45 49 45 128v23h-147q-68 0 -102 -27t-34 -74q0 -45 29.5 -72t81.5 -27q82 0 127 49zM202 598.5q-25 25.5 -25 61.5t25 61.5t62 25.5q36 0 61 -25.5t25 -61.5t-25 -61.5t-61 -25.5q-37 0 -62 25.5zM296.5 626q13.5 13 13.5 34t-13.5 34t-32.5 13t-33 -13.5t-14 -33.5
t14 -33.5t33 -13.5t32.5 13z" />
    <glyph glyph-name="ae" unicode="&#xe6;" horiz-adv-x="888" 
d="M842 230h-390q4 -84 52.5 -135.5t120.5 -51.5q50 0 87.5 25t57.5 72h60q-25 -72 -77 -111t-128 -39q-65 0 -120.5 36.5t-79.5 95.5q-22 -60 -77 -96t-125 -36q-75 0 -121.5 41.5t-46.5 105.5q0 69 48.5 109.5t144.5 40.5h147v35q0 64 -35 99.5t-97 35.5q-60 0 -96 -29.5
t-40 -72.5h-57q3 42 26 77.5t66 56.5t101 21q65 0 110 -32.5t62 -87.5q25 56 74.5 88t115.5 32q64 0 114 -29.5t78 -83.5t28 -124q0 -26 -3 -43zM788 283q-2 81 -48 127.5t-115 46.5q-71 0 -119 -47.5t-54 -126.5h336zM350 92q45 49 45 128v13h-147q-67 0 -101.5 -26
t-34.5 -70q0 -42 29.5 -68t81.5 -26q82 0 127 49z" />
    <glyph glyph-name="ccedilla" unicode="&#xe7;" horiz-adv-x="530" 
d="M376.5 74.5q42.5 31.5 58.5 90.5h57q-17 -76 -69.5 -122.5t-126.5 -51.5l-17 -38q31 -2 51 -23t20 -48q0 -34 -23.5 -55.5t-67.5 -21.5h-42v40h35q25 0 38.5 11t13.5 29t-13.5 29t-38.5 11h-20v28l18 39q-59 7 -106 40.5t-74 90t-27 127.5q0 77 31 136t84.5 91.5
t118.5 32.5q80 0 138 -46t77 -124h-57q-16 56 -58.5 86.5t-99.5 30.5q-49 0 -89.5 -26t-64 -73t-23.5 -108t23.5 -108t64 -73t89.5 -26q57 0 99.5 31.5z" />
    <glyph glyph-name="egrave" unicode="&#xe8;" horiz-adv-x="547" 
d="M159 23q-54 33 -85 92t-31 135t31 135t85 92t119 33q64 0 115 -31t80.5 -86t29.5 -123q0 -23 -3 -47h-400q4 -54 28.5 -95t64 -63t85.5 -22q51 0 91 25.5t59 71.5h60q-25 -72 -79.5 -111t-130.5 -39q-65 0 -119 33zM447 277q-2 52 -24.5 93t-60 64t-83.5 23
q-48 0 -87.5 -23t-63.5 -64t-28 -93h347zM307 583h-54l-103 130h68z" />
    <glyph glyph-name="eacute" unicode="&#xe9;" horiz-adv-x="547" 
d="M159 23q-54 33 -85 92t-31 135t31 135t85 92t119 33q64 0 115 -31t80.5 -86t29.5 -123q0 -23 -3 -47h-400q4 -54 28.5 -95t64 -63t85.5 -22q51 0 91 25.5t59 71.5h60q-25 -72 -79.5 -111t-130.5 -39q-65 0 -119 33zM447 277q-2 52 -24.5 93t-60 64t-83.5 23
q-48 0 -87.5 -23t-63.5 -64t-28 -93h347zM301 583h-53l88 130h69z" />
    <glyph glyph-name="ecircumflex" unicode="&#xea;" horiz-adv-x="547" 
d="M159 23q-54 33 -85 92t-31 135t31 135t85 92t119 33q64 0 115 -31t80.5 -86t29.5 -123q0 -23 -3 -47h-400q4 -54 28.5 -95t64 -63t85.5 -22q51 0 91 25.5t59 71.5h60q-25 -72 -79.5 -111t-130.5 -39q-65 0 -119 33zM447 277q-2 52 -24.5 93t-60 64t-83.5 23
q-48 0 -87.5 -23t-63.5 -64t-28 -93h347zM194 583h-62l113 127h60l114 -127h-62l-82 92z" />
    <glyph glyph-name="edieresis" unicode="&#xeb;" horiz-adv-x="547" 
d="M159 23q-54 33 -85 92t-31 135t31 135t85 92t119 33q64 0 115 -31t80.5 -86t29.5 -123q0 -23 -3 -47h-400q4 -54 28.5 -95t64 -63t85.5 -22q51 0 91 25.5t59 71.5h60q-25 -72 -79.5 -111t-130.5 -39q-65 0 -119 33zM447 277q-2 52 -24.5 93t-60 64t-83.5 23
q-48 0 -87.5 -23t-63.5 -64t-28 -93h347zM222 620h-67v67h67v-67zM395 620h-67v67h67v-67z" />
    <glyph glyph-name="igrave" unicode="&#xec;" horiz-adv-x="210" 
d="M133 0h-56v500h56v-500zM137 583h-54l-103 130h68z" />
    <glyph glyph-name="iacute" unicode="&#xed;" horiz-adv-x="210" 
d="M133 0h-56v500h56v-500zM132 583h-53l88 130h69z" />
    <glyph glyph-name="icircumflex" unicode="&#xee;" horiz-adv-x="210" 
d="M133 0h-56v500h56v-500zM24 583h-62l113 127h60l114 -127h-62l-82 92z" />
    <glyph glyph-name="idieresis" unicode="&#xef;" horiz-adv-x="210" 
d="M133 0h-56v500h56v-500zM62 620h-67v67h67v-67zM215 620h-67v67h67v-67z" />
    <glyph glyph-name="eth" unicode="&#xf0;" horiz-adv-x="538" 
d="M153 19.5q-51 29.5 -80.5 83t-29.5 122.5t29.5 122.5t80.5 83t114 29.5q86 0 138 -60h5q-15 43 -45 88t-72 85l-128 -68l-23 43l113 60q-23 20 -55.5 43t-57.5 37l46 27q64 -40 114 -83l116 61l24 -43l-105 -53q153 -160 153 -355q0 -79 -29.5 -136t-80.5 -86.5
t-113 -29.5q-63 0 -114 29.5zM352.5 65.5q37.5 22.5 59 64t21.5 95.5t-21.5 95.5t-59 64t-85.5 22.5t-86 -22.5t-59.5 -64t-21.5 -95.5t21.5 -95.5t59.5 -64t86 -22.5t85.5 22.5z" />
    <glyph glyph-name="ntilde" unicode="&#xf1;" horiz-adv-x="568" 
d="M77 0v500h48l8 -70h5q20 30 62.5 55t96.5 25q56 0 101 -26t70 -73.5t25 -110.5v-300h-56v300q0 45 -19.5 81t-53 56t-74.5 20q-43 0 -79 -21t-57 -57t-21 -79v-300h-56zM141 603q0 42 26 68t66 26q18 0 33.5 -7.5t33.5 -20.5q17 -12 27 -17t22 -5q21 0 33 13t12 37h47
q0 -42 -26 -68t-66 -26q-18 0 -33.5 7.5t-33.5 20.5q-17 12 -27 17t-22 5q-21 0 -33 -13t-12 -37h-47z" />
    <glyph glyph-name="ograve" unicode="&#xf2;" 
d="M158.5 22.5q-53.5 32.5 -84.5 91.5t-31 136t31 136t84.5 91.5t118.5 32.5t118 -32.5t84 -91.5t31 -136t-31 -136t-84 -91.5t-118 -32.5t-118.5 32.5zM365.5 69q40.5 26 64 73t23.5 108t-23.5 108t-64 73t-88.5 26q-49 0 -89.5 -26t-64 -73t-23.5 -108t23.5 -108t64 -73
t89.5 -26q48 0 88.5 26zM309 583h-54l-103 130h68z" />
    <glyph glyph-name="oacute" unicode="&#xf3;" 
d="M158.5 22.5q-53.5 32.5 -84.5 91.5t-31 136t31 136t84.5 91.5t118.5 32.5t118 -32.5t84 -91.5t31 -136t-31 -136t-84 -91.5t-118 -32.5t-118.5 32.5zM365.5 69q40.5 26 64 73t23.5 108t-23.5 108t-64 73t-88.5 26q-49 0 -89.5 -26t-64 -73t-23.5 -108t23.5 -108t64 -73
t89.5 -26q48 0 88.5 26zM303 583h-53l88 130h69z" />
    <glyph glyph-name="ocircumflex" unicode="&#xf4;" 
d="M158.5 22.5q-53.5 32.5 -84.5 91.5t-31 136t31 136t84.5 91.5t118.5 32.5t118 -32.5t84 -91.5t31 -136t-31 -136t-84 -91.5t-118 -32.5t-118.5 32.5zM365.5 69q40.5 26 64 73t23.5 108t-23.5 108t-64 73t-88.5 26q-49 0 -89.5 -26t-64 -73t-23.5 -108t23.5 -108t64 -73
t89.5 -26q48 0 88.5 26zM195 583h-62l113 127h60l114 -127h-62l-82 92z" />
    <glyph glyph-name="otilde" unicode="&#xf5;" 
d="M158.5 22.5q-53.5 32.5 -84.5 91.5t-31 136t31 136t84.5 91.5t118.5 32.5t118 -32.5t84 -91.5t31 -136t-31 -136t-84 -91.5t-118 -32.5t-118.5 32.5zM365.5 69q40.5 26 64 73t23.5 108t-23.5 108t-64 73t-88.5 26q-49 0 -89.5 -26t-64 -73t-23.5 -108t23.5 -108t64 -73
t89.5 -26q48 0 88.5 26zM127 603q0 42 26 68t66 26q18 0 33.5 -7.5t33.5 -20.5q17 -12 27 -17t22 -5q21 0 33 13t12 37h47q0 -42 -26 -68t-66 -26q-18 0 -33.5 7.5t-33.5 20.5q-17 12 -27 17t-22 5q-21 0 -33 -13t-12 -37h-47z" />
    <glyph glyph-name="odieresis" unicode="&#xf6;" 
d="M158.5 22.5q-53.5 32.5 -84.5 91.5t-31 136t31 136t84.5 91.5t118.5 32.5t118 -32.5t84 -91.5t31 -136t-31 -136t-84 -91.5t-118 -32.5t-118.5 32.5zM365.5 69q40.5 26 64 73t23.5 108t-23.5 108t-64 73t-88.5 26q-49 0 -89.5 -26t-64 -73t-23.5 -108t23.5 -108t64 -73
t89.5 -26q48 0 88.5 26zM224 620h-67v67h67v-67zM397 620h-67v67h67v-67z" />
    <glyph glyph-name="divide" unicode="&#xf7;" horiz-adv-x="527" 
d="M237.5 422.5q-10.5 10.5 -10.5 25.5q0 16 10.5 26.5t25.5 10.5q16 0 26.5 -10.5t10.5 -26.5q0 -15 -10.5 -25.5t-26.5 -10.5q-15 0 -25.5 10.5zM460 263h-393v54h393v-54zM237.5 105.5q-10.5 10.5 -10.5 26.5q0 15 10.5 25.5t25.5 10.5q16 0 26.5 -10.5t10.5 -25.5
q0 -16 -10.5 -26.5t-26.5 -10.5q-15 0 -25.5 10.5z" />
    <glyph glyph-name="oslash" unicode="&#xf8;" 
d="M418 462q43 -35 67.5 -89.5t24.5 -122.5q0 -77 -31 -136t-84 -91.5t-118 -32.5q-52 0 -99 22l-25 -47h-56l39 73q-44 35 -68.5 89.5t-24.5 122.5q0 77 31 136t84.5 91.5t118.5 32.5q51 0 98 -22l25 47h57zM116.5 158q16.5 -41 46.5 -69l187 351q-36 17 -73 17
q-49 0 -89.5 -26t-64 -73t-23.5 -108q0 -51 16.5 -92zM365.5 69q40.5 26 64 73t23.5 108q0 51 -16.5 92t-45.5 69l-187 -351q34 -17 73 -17q48 0 88.5 26z" />
    <glyph glyph-name="ugrave" unicode="&#xf9;" horiz-adv-x="568" 
d="M170.5 16q-44.5 26 -70 73.5t-25.5 110.5v300h57v-300q0 -45 19 -81t52.5 -56t74.5 -20q43 0 79 21t57 57t21 79v300h57v-500h-49l-8 70h-5q-21 -31 -62.5 -55.5t-95.5 -24.5q-57 0 -101.5 26zM316 583h-54l-103 130h68z" />
    <glyph glyph-name="uacute" unicode="&#xfa;" horiz-adv-x="568" 
d="M170.5 16q-44.5 26 -70 73.5t-25.5 110.5v300h57v-300q0 -45 19 -81t52.5 -56t74.5 -20q43 0 79 21t57 57t21 79v300h57v-500h-49l-8 70h-5q-21 -31 -62.5 -55.5t-95.5 -24.5q-57 0 -101.5 26zM311 583h-53l88 130h69z" />
    <glyph glyph-name="ucircumflex" unicode="&#xfb;" horiz-adv-x="568" 
d="M170.5 16q-44.5 26 -70 73.5t-25.5 110.5v300h57v-300q0 -45 19 -81t52.5 -56t74.5 -20q43 0 79 21t57 57t21 79v300h57v-500h-49l-8 70h-5q-21 -31 -62.5 -55.5t-95.5 -24.5q-57 0 -101.5 26zM203 583h-62l113 127h60l114 -127h-62l-82 92z" />
    <glyph glyph-name="udieresis" unicode="&#xfc;" horiz-adv-x="568" 
d="M170.5 16q-44.5 26 -70 73.5t-25.5 110.5v300h57v-300q0 -45 19 -81t52.5 -56t74.5 -20q43 0 79 21t57 57t21 79v300h57v-500h-49l-8 70h-5q-21 -31 -62.5 -55.5t-95.5 -24.5q-57 0 -101.5 26zM231 620h-67v67h67v-67zM404 620h-67v67h67v-67z" />
    <glyph glyph-name="yacute" unicode="&#xfd;" horiz-adv-x="477" 
d="M403 500h60l-226 -635q-12 -35 -32.5 -50t-57.5 -15h-84v53h80q19 0 28.5 9t16.5 28l27 78l-202 532h61l161 -432h20zM271 583h-53l88 130h69z" />
    <glyph glyph-name="thorn" unicode="&#xfe;" horiz-adv-x="582" 
d="M82 -200v900h56v-287h5q66 97 170 97q63 0 114.5 -32.5t81 -91.5t29.5 -136t-29.5 -136t-81 -91.5t-114.5 -32.5q-104 0 -170 97h-5v-287h-56zM395.5 68.5q39.5 25.5 63 72.5t23.5 109t-23.5 109t-63 72.5t-85.5 25.5q-45 0 -84.5 -25.5t-63.5 -73t-24 -108.5t24 -108.5
t63.5 -73t84.5 -25.5q46 0 85.5 25.5z" />
    <glyph glyph-name="ydieresis" unicode="&#xff;" horiz-adv-x="477" 
d="M403 500h60l-226 -635q-12 -35 -32.5 -50t-57.5 -15h-84v53h80q19 0 28.5 9t16.5 28l27 78l-202 532h61l161 -432h20zM192 620h-67v67h67v-67zM365 620h-67v67h67v-67z" />
    <glyph glyph-name="Amacron" unicode="&#x100;" horiz-adv-x="637" 
d="M630 0h-63l-71 190h-355l-71 -190h-63l265 700h93zM309 637l-146 -390h311l-146 390h-19zM455 825h-273v47h273v-47z" />
    <glyph glyph-name="amacron" unicode="&#x101;" horiz-adv-x="527" 
d="M101.5 32q-46.5 42 -46.5 110q0 72 48.5 113.5t144.5 41.5h147v25q0 64 -35 99.5t-97 35.5q-60 0 -96 -29.5t-40 -72.5h-57q3 42 26 77.5t66 56.5t101 21q87 0 138 -49.5t51 -138.5v-322h-49l-8 77h-5q-20 -38 -64.5 -62.5t-102.5 -24.5q-75 0 -121.5 42zM350 92
q45 49 45 128v23h-147q-68 0 -102 -27t-34 -74q0 -45 29.5 -72t81.5 -27q82 0 127 49zM400 630h-273v47h273v-47z" />
    <glyph glyph-name="Abreve" unicode="&#x102;" horiz-adv-x="637" 
d="M630 0h-63l-71 190h-355l-71 -190h-63l265 700h93zM309 637l-146 -390h311l-146 390h-19zM226 816.5q-37 33.5 -41 85.5h50q4 -35 26 -55t57 -20t57.5 20t26.5 55h50q-4 -53 -41.5 -86t-92.5 -33t-92 33.5z" />
    <glyph glyph-name="abreve" unicode="&#x103;" horiz-adv-x="527" 
d="M101.5 32q-46.5 42 -46.5 110q0 72 48.5 113.5t144.5 41.5h147v25q0 64 -35 99.5t-97 35.5q-60 0 -96 -29.5t-40 -72.5h-57q3 42 26 77.5t66 56.5t101 21q87 0 138 -49.5t51 -138.5v-322h-49l-8 77h-5q-20 -38 -64.5 -62.5t-102.5 -24.5q-75 0 -121.5 42zM350 92
q45 49 45 128v23h-147q-68 0 -102 -27t-34 -74q0 -45 29.5 -72t81.5 -27q82 0 127 49zM171 621.5q-37 33.5 -41 85.5h50q4 -35 26 -55t57 -20t57.5 20t26.5 55h50q-4 -53 -41.5 -86t-92.5 -33t-92 33.5z" />
    <glyph glyph-name="Aogonek" unicode="&#x104;" horiz-adv-x="637" 
d="M631 -117v-43h-18q-42 0 -66 21.5t-24 56.5q0 27 15.5 49t38.5 33h-10l-71 190h-355l-71 -190h-63l265 700h93l265 -700q-60 -30 -60 -73q0 -19 12 -31.5t34 -12.5h15zM309 637l-146 -390h311l-146 390h-19z" />
    <glyph glyph-name="aogonek" unicode="&#x105;" horiz-adv-x="527" 
d="M453 -117v-43h-18q-42 0 -66 21.5t-24 56.5q0 28 17 50.5t41 33.5l-8 75h-5q-20 -38 -64.5 -62.5t-102.5 -24.5q-75 0 -121.5 42t-46.5 110q0 72 48.5 113.5t144.5 41.5h147v25q0 64 -35 99.5t-97 35.5q-60 0 -96 -29.5t-40 -72.5h-57q3 42 26 77.5t66 56.5t101 21
q87 0 138 -49.5t51 -138.5v-322q-60 -30 -60 -73q0 -19 12 -31.5t34 -12.5h15zM395 243h-147q-68 0 -102 -27t-34 -74q0 -45 29.5 -72t81.5 -27q82 0 127 49t45 128v23z" />
    <glyph glyph-name="Cacute" unicode="&#x106;" horiz-adv-x="733" 
d="M218.5 35.5q-75.5 45.5 -119.5 127.5t-44 187t44 187t119.5 127.5t166.5 45.5q111 0 194 -63t113 -172h-64q-27 84 -91.5 131t-151.5 47q-74 0 -136 -38t-98 -107t-36 -158t36 -158t98 -107t136 -38q87 0 151.5 48t91.5 135h64q-30 -112 -112.5 -176t-194.5 -64
q-91 0 -166.5 45.5zM401 775h-53l88 130h69z" />
    <glyph glyph-name="cacute" unicode="&#x107;" horiz-adv-x="530" 
d="M158.5 22.5q-53.5 32.5 -84.5 91.5t-31 136t31 136t84.5 91.5t118.5 32.5q80 0 138 -46t77 -124h-57q-16 56 -58.5 86.5t-99.5 30.5q-49 0 -89.5 -26t-64 -73t-23.5 -108t23.5 -108t64 -73t89.5 -26q57 0 99.5 31.5t58.5 90.5h57q-19 -82 -77 -128.5t-138 -46.5
q-65 0 -118.5 32.5zM303 583h-53l88 130h69z" />
    <glyph glyph-name="Ccircumflex" unicode="&#x108;" horiz-adv-x="733" 
d="M218.5 35.5q-75.5 45.5 -119.5 127.5t-44 187t44 187t119.5 127.5t166.5 45.5q111 0 194 -63t113 -172h-64q-27 84 -91.5 131t-151.5 47q-74 0 -136 -38t-98 -107t-36 -158t36 -158t98 -107t136 -38q87 0 151.5 48t91.5 135h64q-30 -112 -112.5 -176t-194.5 -64
q-91 0 -166.5 45.5zM294 775h-62l113 127h60l114 -127h-62l-82 92z" />
    <glyph glyph-name="ccircumflex" unicode="&#x109;" horiz-adv-x="530" 
d="M158.5 22.5q-53.5 32.5 -84.5 91.5t-31 136t31 136t84.5 91.5t118.5 32.5q80 0 138 -46t77 -124h-57q-16 56 -58.5 86.5t-99.5 30.5q-49 0 -89.5 -26t-64 -73t-23.5 -108t23.5 -108t64 -73t89.5 -26q57 0 99.5 31.5t58.5 90.5h57q-19 -82 -77 -128.5t-138 -46.5
q-65 0 -118.5 32.5zM195 583h-62l113 127h60l114 -127h-62l-82 92z" />
    <glyph glyph-name="Cdotaccent" unicode="&#x10a;" horiz-adv-x="733" 
d="M218.5 35.5q-75.5 45.5 -119.5 127.5t-44 187t44 187t119.5 127.5t166.5 45.5q111 0 194 -63t113 -172h-64q-27 84 -91.5 131t-151.5 47q-74 0 -136 -38t-98 -107t-36 -158t36 -158t98 -107t136 -38q87 0 151.5 48t91.5 135h64q-30 -112 -112.5 -176t-194.5 -64
q-91 0 -166.5 45.5zM409 815h-67v67h67v-67z" />
    <glyph glyph-name="cdotaccent" unicode="&#x10b;" horiz-adv-x="530" 
d="M158.5 22.5q-53.5 32.5 -84.5 91.5t-31 136t31 136t84.5 91.5t118.5 32.5q80 0 138 -46t77 -124h-57q-16 56 -58.5 86.5t-99.5 30.5q-49 0 -89.5 -26t-64 -73t-23.5 -108t23.5 -108t64 -73t89.5 -26q57 0 99.5 31.5t58.5 90.5h57q-19 -82 -77 -128.5t-138 -46.5
q-65 0 -118.5 32.5zM310 620h-67v67h67v-67z" />
    <glyph glyph-name="Ccaron" unicode="&#x10c;" horiz-adv-x="733" 
d="M218.5 35.5q-75.5 45.5 -119.5 127.5t-44 187t44 187t119.5 127.5t166.5 45.5q111 0 194 -63t113 -172h-64q-27 84 -91.5 131t-151.5 47q-74 0 -136 -38t-98 -107t-36 -158t36 -158t98 -107t136 -38q87 0 151.5 48t91.5 135h64q-30 -112 -112.5 -176t-194.5 -64
q-91 0 -166.5 45.5zM405 775h-60l-113 127h62l81 -92l82 92h62z" />
    <glyph glyph-name="ccaron" unicode="&#x10d;" horiz-adv-x="530" 
d="M158.5 22.5q-53.5 32.5 -84.5 91.5t-31 136t31 136t84.5 91.5t118.5 32.5q80 0 138 -46t77 -124h-57q-16 56 -58.5 86.5t-99.5 30.5q-49 0 -89.5 -26t-64 -73t-23.5 -108t23.5 -108t64 -73t89.5 -26q57 0 99.5 31.5t58.5 90.5h57q-19 -82 -77 -128.5t-138 -46.5
q-65 0 -118.5 32.5zM306 583h-60l-113 127h62l81 -92l82 92h62z" />
    <glyph glyph-name="Dcaron" unicode="&#x10e;" horiz-adv-x="698" 
d="M87 0v700h221q96 0 172.5 -44t119.5 -124t43 -182t-43 -182t-119.5 -124t-172.5 -44h-221zM308 57q77 0 140 36.5t99 103t36 153.5t-36 153.5t-99 103t-140 36.5h-161v-586h161zM376 775h-60l-113 127h62l81 -92l82 92h62z" />
    <glyph glyph-name="dcaron" unicode="&#x10f;" horiz-adv-x="582" 
d="M153.5 22.5q-51.5 32.5 -81 91.5t-29.5 136t29.5 136t81 91.5t114.5 32.5q104 0 170 -97h5v287h57v-700h-48l-9 87h-5q-66 -97 -170 -97q-63 0 -114.5 32.5zM356.5 68.5q39.5 25.5 63 73t23.5 108.5t-23.5 108.5t-63 73t-84.5 25.5q-46 0 -85.5 -25.5t-63 -72.5
t-23.5 -109t23.5 -109t63 -72.5t85.5 -25.5q45 0 84.5 25.5zM615 553h-45l16 147h65z" />
    <glyph glyph-name="Dcroat" unicode="&#x110;" horiz-adv-x="735" 
d="M345 700q96 0 172 -44t119.5 -124t43.5 -182t-43.5 -182t-119.5 -124t-172 -44h-222v323h-98v57h98v320h222zM345 57q77 0 140 36.5t99 103t36 153.5t-36 153.5t-99 103t-140 36.5h-162v-263h195v-57h-195v-266h162z" />
    <glyph glyph-name="dcroat" unicode="&#x111;" horiz-adv-x="578" 
d="M151.5 19.5q-50.5 29.5 -79.5 83t-29 122.5t29 122.5t79.5 83t111.5 29.5q105 0 165 -87h5v187h-168v53h168v87h57v-87h85v-53h-85v-560h-48l-9 77h-5q-60 -87 -165 -87q-61 0 -111.5 29.5zM352.5 65.5q37.5 22.5 59 64t21.5 95.5t-21.5 95.5t-59 64t-85.5 22.5
t-86 -22.5t-59.5 -64t-21.5 -95.5t21.5 -95.5t59.5 -64t86 -22.5t85.5 22.5z" />
    <glyph glyph-name="Emacron" unicode="&#x112;" horiz-adv-x="588" 
d="M527 0h-440v700h440v-57h-380v-261h360v-57h-360v-268h380v-57zM449 825h-273v47h273v-47z" />
    <glyph glyph-name="emacron" unicode="&#x113;" horiz-adv-x="547" 
d="M159 23q-54 33 -85 92t-31 135t31 135t85 92t119 33q64 0 115 -31t80.5 -86t29.5 -123q0 -23 -3 -47h-400q4 -54 28.5 -95t64 -63t85.5 -22q51 0 91 25.5t59 71.5h60q-25 -72 -79.5 -111t-130.5 -39q-65 0 -119 33zM447 277q-2 52 -24.5 93t-60 64t-83.5 23
q-48 0 -87.5 -23t-63.5 -64t-28 -93h347zM411 630h-273v47h273v-47z" />
    <glyph glyph-name="Ebreve" unicode="&#x114;" horiz-adv-x="588" 
d="M527 0h-440v700h440v-57h-380v-261h360v-57h-360v-268h380v-57zM220 816.5q-37 33.5 -41 85.5h50q4 -35 26 -55t57 -20t57.5 20t26.5 55h50q-4 -53 -41.5 -86t-92.5 -33t-92 33.5z" />
    <glyph glyph-name="ebreve" unicode="&#x115;" horiz-adv-x="547" 
d="M159 23q-54 33 -85 92t-31 135t31 135t85 92t119 33q64 0 115 -31t80.5 -86t29.5 -123q0 -23 -3 -47h-400q4 -54 28.5 -95t64 -63t85.5 -22q51 0 91 25.5t59 71.5h60q-25 -72 -79.5 -111t-130.5 -39q-65 0 -119 33zM447 277q-2 52 -24.5 93t-60 64t-83.5 23
q-48 0 -87.5 -23t-63.5 -64t-28 -93h347zM183 621.5q-37 33.5 -41 85.5h50q4 -35 26 -55t57 -20t57.5 20t26.5 55h50q-4 -53 -41.5 -86t-92.5 -33t-92 33.5z" />
    <glyph glyph-name="Edotaccent" unicode="&#x116;" horiz-adv-x="588" 
d="M527 0h-440v700h440v-57h-380v-261h360v-57h-360v-268h380v-57zM346 815h-67v67h67v-67z" />
    <glyph glyph-name="edotaccent" unicode="&#x117;" horiz-adv-x="547" 
d="M159 23q-54 33 -85 92t-31 135t31 135t85 92t119 33q64 0 115 -31t80.5 -86t29.5 -123q0 -23 -3 -47h-400q4 -54 28.5 -95t64 -63t85.5 -22q51 0 91 25.5t59 71.5h60q-25 -72 -79.5 -111t-130.5 -39q-65 0 -119 33zM447 277q-2 52 -24.5 93t-60 64t-83.5 23
q-48 0 -87.5 -23t-63.5 -64t-28 -93h347zM309 620h-67v67h67v-67z" />
    <glyph glyph-name="Eogonek" unicode="&#x118;" horiz-adv-x="588" 
d="M528 -117v-43h-18q-42 0 -66 21.5t-24 56.5q0 27 15.5 49t38.5 33h-387v700h440v-57h-380v-261h360v-57h-360v-268h380v-57q-60 -30 -60 -73q0 -19 12 -31.5t34 -12.5h15z" />
    <glyph glyph-name="eogonek" unicode="&#x119;" horiz-adv-x="547" 
d="M500 223h-400q4 -54 28.5 -95t64 -63t85.5 -22q51 0 91 25.5t59 71.5h60q-24 -66 -72 -106q-42 -36 -59.5 -58t-17.5 -49q0 -19 12 -31.5t34 -12.5h15v-43h-18q-42 0 -66 21.5t-24 57.5q0 42 37 77q-19 -6 -51 -6q-65 0 -119 33t-85 92t-31 135t31 135t85 92t119 33
q64 0 115 -31t80.5 -86t29.5 -123q0 -23 -3 -47zM447 277q-2 52 -24.5 93t-60 64t-83.5 23q-48 0 -87.5 -23t-63.5 -64t-28 -93h347z" />
    <glyph glyph-name="Ecaron" unicode="&#x11a;" horiz-adv-x="588" 
d="M527 0h-440v700h440v-57h-380v-261h360v-57h-360v-268h380v-57zM342 775h-60l-113 127h62l81 -92l82 92h62z" />
    <glyph glyph-name="ecaron" unicode="&#x11b;" horiz-adv-x="547" 
d="M159 23q-54 33 -85 92t-31 135t31 135t85 92t119 33q64 0 115 -31t80.5 -86t29.5 -123q0 -23 -3 -47h-400q4 -54 28.5 -95t64 -63t85.5 -22q51 0 91 25.5t59 71.5h60q-25 -72 -79.5 -111t-130.5 -39q-65 0 -119 33zM447 277q-2 52 -24.5 93t-60 64t-83.5 23
q-48 0 -87.5 -23t-63.5 -64t-28 -93h347zM305 583h-60l-113 127h62l81 -92l82 92h62z" />
    <glyph glyph-name="Gcircumflex" unicode="&#x11c;" horiz-adv-x="767" 
d="M408 355h284v-355h-49l-8 118h-5q-37 -56 -104 -92t-143 -36q-90 0 -165 45.5t-119 127.5t-44 187t44 187t119 127.5t165 45.5q104 0 187.5 -59t116.5 -161h-64q-30 76 -96 119.5t-144 43.5q-74 0 -135 -38t-97 -107t-36 -158t36 -158t97 -107t135 -38q64 0 121.5 32
t92.5 84.5t35 112.5v26h-224v53zM300 775h-62l113 127h60l114 -127h-62l-82 92z" />
    <glyph glyph-name="gcircumflex" unicode="&#x11d;" horiz-adv-x="577" 
d="M167.5 -186q-48.5 24 -75 63t-29.5 83h57q3 -30 22.5 -57t55 -43.5t83.5 -16.5q74 0 118 43t44 114v110h-5q-28 -43 -72.5 -66.5t-97.5 -23.5q-63 0 -114.5 31t-81 87t-29.5 127t29.5 127t81 87t114.5 31q53 0 98.5 -25t71.5 -68h5l9 83h48v-500q0 -96 -58.5 -153
t-159.5 -57q-66 0 -114.5 24zM359 97q39 24 61.5 68t22.5 100t-22.5 100t-61.5 68t-87 24t-87.5 -24t-62 -68t-22.5 -100t22.5 -100t62 -68t87.5 -24t87 24zM205 583h-62l113 127h60l114 -127h-62l-82 92z" />
    <glyph glyph-name="Gbreve" unicode="&#x11e;" horiz-adv-x="767" 
d="M408 355h284v-355h-49l-8 118h-5q-37 -56 -104 -92t-143 -36q-90 0 -165 45.5t-119 127.5t-44 187t44 187t119 127.5t165 45.5q104 0 187.5 -59t116.5 -161h-64q-30 76 -96 119.5t-144 43.5q-74 0 -135 -38t-97 -107t-36 -158t36 -158t97 -107t135 -38q64 0 121.5 32
t92.5 84.5t35 112.5v26h-224v53zM289 816.5q-37 33.5 -41 85.5h50q4 -35 26 -55t57 -20t57.5 20t26.5 55h50q-4 -53 -41.5 -86t-92.5 -33t-92 33.5z" />
    <glyph glyph-name="gbreve" unicode="&#x11f;" horiz-adv-x="577" 
d="M167.5 -186q-48.5 24 -75 63t-29.5 83h57q3 -30 22.5 -57t55 -43.5t83.5 -16.5q74 0 118 43t44 114v110h-5q-28 -43 -72.5 -66.5t-97.5 -23.5q-63 0 -114.5 31t-81 87t-29.5 127t29.5 127t81 87t114.5 31q53 0 98.5 -25t71.5 -68h5l9 83h48v-500q0 -96 -58.5 -153
t-159.5 -57q-66 0 -114.5 24zM359 97q39 24 61.5 68t22.5 100t-22.5 100t-61.5 68t-87 24t-87.5 -24t-62 -68t-22.5 -100t22.5 -100t62 -68t87.5 -24t87 24zM194 621.5q-37 33.5 -41 85.5h50q4 -35 26 -55t57 -20t57.5 20t26.5 55h50q-4 -53 -41.5 -86t-92.5 -33t-92 33.5z
" />
    <glyph glyph-name="Gdotaccent" unicode="&#x120;" horiz-adv-x="767" 
d="M408 355h284v-355h-49l-8 118h-5q-37 -56 -104 -92t-143 -36q-90 0 -165 45.5t-119 127.5t-44 187t44 187t119 127.5t165 45.5q104 0 187.5 -59t116.5 -161h-64q-30 76 -96 119.5t-144 43.5q-74 0 -135 -38t-97 -107t-36 -158t36 -158t97 -107t135 -38q64 0 121.5 32
t92.5 84.5t35 112.5v26h-224v53zM415 815h-67v67h67v-67z" />
    <glyph glyph-name="gdotaccent" unicode="&#x121;" horiz-adv-x="577" 
d="M167.5 -186q-48.5 24 -75 63t-29.5 83h57q3 -30 22.5 -57t55 -43.5t83.5 -16.5q74 0 118 43t44 114v110h-5q-28 -43 -72.5 -66.5t-97.5 -23.5q-63 0 -114.5 31t-81 87t-29.5 127t29.5 127t81 87t114.5 31q53 0 98.5 -25t71.5 -68h5l9 83h48v-500q0 -96 -58.5 -153
t-159.5 -57q-66 0 -114.5 24zM359 97q39 24 61.5 68t22.5 100t-22.5 100t-61.5 68t-87 24t-87.5 -24t-62 -68t-22.5 -100t22.5 -100t62 -68t87.5 -24t87 24zM320 620h-67v67h67v-67z" />
    <glyph glyph-name="uni0122" unicode="&#x122;" horiz-adv-x="767" 
d="M408 355h284v-355h-49l-8 118h-5q-37 -56 -104 -92t-143 -36q-90 0 -165 45.5t-119 127.5t-44 187t44 187t119 127.5t165 45.5q104 0 187.5 -59t116.5 -161h-64q-30 76 -96 119.5t-144 43.5q-74 0 -135 -38t-97 -107t-36 -158t36 -158t97 -107t135 -38q64 0 121.5 32
t92.5 84.5t35 112.5v26h-224v53zM365 -233h-45l32 146h65z" />
    <glyph glyph-name="uni0123" unicode="&#x123;" horiz-adv-x="577" 
d="M167.5 -186q-48.5 24 -75 63t-29.5 83h57q3 -30 22.5 -57t55 -43.5t83.5 -16.5q74 0 118 43t44 114v110h-5q-28 -43 -72.5 -66.5t-97.5 -23.5q-63 0 -114.5 31t-81 87t-29.5 127t29.5 127t81 87t114.5 31q53 0 98.5 -25t71.5 -68h5l9 83h48v-500q0 -96 -58.5 -153
t-159.5 -57q-66 0 -114.5 24zM359 97q39 24 61.5 68t22.5 100t-22.5 100t-61.5 68t-87 24t-87.5 -24t-62 -68t-22.5 -100t22.5 -100t62 -68t87.5 -24t87 24zM313 583h-65l58 154h48z" />
    <glyph glyph-name="Hcircumflex" unicode="&#x124;" horiz-adv-x="710" 
d="M147 0h-60v700h60v-317h416v317h60v-700h-60v327h-416v-327zM274 775h-62l113 127h60l114 -127h-62l-82 92z" />
    <glyph glyph-name="hcircumflex" unicode="&#x125;" horiz-adv-x="573" 
d="M82 0v700h56v-270h5q20 30 62.5 55t96.5 25q56 0 101 -26t70 -73.5t25 -110.5v-300h-56v300q0 45 -19.5 81t-53 56t-74.5 20q-43 0 -79 -21t-57 -57t-21 -79v-300h-56zM217 775h-62l113 127h60l114 -127h-62l-82 92z" />
    <glyph glyph-name="Hbar" unicode="&#x126;" horiz-adv-x="747" 
d="M642 573h85v-57h-85v-516h-60v327h-417v-327h-60v516h-85v57h85v127h60v-127h417v127h60v-127zM165 383h417v133h-417v-133z" />
    <glyph glyph-name="hbar" unicode="&#x127;" horiz-adv-x="583" 
d="M92 0v560h-89v53h89v87h56v-87h172v-53h-172v-187h5q19 31 62 55.5t97 24.5q56 0 101 -25.5t70 -73.5t25 -111v-243h-56v243q0 45 -19.5 81t-53 56t-74.5 20q-43 0 -79 -21t-57 -57t-21 -79v-243h-56z" />
    <glyph glyph-name="Imacron" unicode="&#x12a;" horiz-adv-x="233" 
d="M147 0h-60v700h60v-700zM253 825h-273v47h273v-47z" />
    <glyph glyph-name="imacron" unicode="&#x12b;" horiz-adv-x="210" 
d="M133 0h-56v500h56v-500zM242 630h-273v47h273v-47z" />
    <glyph glyph-name="Ibreve" unicode="&#x12c;" horiz-adv-x="233" 
d="M147 0h-60v700h60v-700zM24 816.5q-37 33.5 -41 85.5h50q4 -35 26 -55t57 -20t57.5 20t26.5 55h50q-4 -53 -41.5 -86t-92.5 -33t-92 33.5z" />
    <glyph glyph-name="ibreve" unicode="&#x12d;" horiz-adv-x="210" 
d="M133 0h-56v500h56v-500zM13 621.5q-37 33.5 -41 85.5h50q4 -35 26 -55t57 -20t57.5 20t26.5 55h50q-4 -53 -41.5 -86t-92.5 -33t-92 33.5z" />
    <glyph glyph-name="Iogonek" unicode="&#x12e;" horiz-adv-x="233" 
d="M135 0q-60 -30 -60 -73q0 -19 12 -31.5t34 -12.5h15v-43h-18q-42 0 -66 21.5t-24 56.5q0 28 17 50.5t41 33.5l1 1v697h60v-700h-12z" />
    <glyph glyph-name="iogonek" unicode="&#x12f;" horiz-adv-x="210" 
d="M72 620v67h67v-67h-67zM77 3v497h56v-500h-8q-60 -30 -60 -73q0 -19 12 -31.5t34 -12.5h15v-43h-18q-42 0 -66 21.5t-24 56.5q0 28 17 50.5t41 33.5z" />
    <glyph glyph-name="Idotaccent" unicode="&#x130;" horiz-adv-x="233" 
d="M147 0h-60v700h60v-700zM150 815h-67v67h67v-67z" />
    <glyph glyph-name="dotlessi" unicode="&#x131;" horiz-adv-x="210" 
d="M133 0h-56v500h56v-500z" />
    <glyph glyph-name="IJ" unicode="&#x132;" horiz-adv-x="618" 
d="M147 0h-60v700h60v-700zM246 0v57h175q25 0 40 15.5t15 40.5v587h60v-593q0 -50 -28 -78.5t-80 -28.5h-182z" />
    <glyph glyph-name="ij" unicode="&#x133;" horiz-adv-x="420" 
d="M133 0h-56v500h56v-500zM139 620h-67v67h67v-67zM173 -200v53h75q19 0 29 10t10 29v608h56v-618q0 -38 -22.5 -60t-62.5 -22h-85zM349 620h-67v67h67v-67z" />
    <glyph glyph-name="Jcircumflex" unicode="&#x134;" horiz-adv-x="385" 
d="M13 0v57h175q25 0 40 15.5t15 40.5v587h60v-593q0 -50 -28 -78.5t-80 -28.5h-182zM192 775h-62l113 127h60l114 -127h-62l-82 92z" />
    <glyph glyph-name="jcircumflex" unicode="&#x135;" horiz-adv-x="210" 
d="M-37 -200v53h75q19 0 29 10t10 29v608h56v-618q0 -38 -22.5 -60t-62.5 -22h-85zM24 583h-62l113 127h60l114 -127h-62l-82 92z" />
    <glyph glyph-name="uni0136" unicode="&#x136;" horiz-adv-x="542" 
d="M147 0h-60v700h60v-332l318 332h77l-334 -345l354 -355h-77l-338 341v-341zM285 -233h-45l32 146h65z" />
    <glyph glyph-name="uni0137" unicode="&#x137;" horiz-adv-x="473" 
d="M138 0h-56v700h56v-431l248 231h74l-263 -245l273 -255h-74l-258 241v-241zM240 -233h-45l32 146h65z" />
    <glyph glyph-name="Lacute" unicode="&#x139;" horiz-adv-x="530" 
d="M507 0h-420v700h60v-643h360v-57zM142 775h-53l88 130h69z" />
    <glyph glyph-name="lacute" unicode="&#x13a;" horiz-adv-x="220" 
d="M138 0h-56v700h56v-700zM136 775h-53l88 130h69z" />
    <glyph glyph-name="uni013B" unicode="&#x13b;" horiz-adv-x="530" 
d="M507 0h-420v700h60v-643h360v-57zM280 -233h-45l32 146h65z" />
    <glyph glyph-name="uni013C" unicode="&#x13c;" horiz-adv-x="220" 
d="M138 0h-56v700h56v-700zM90 -233h-45l32 146h65z" />
    <glyph glyph-name="Lcaron" unicode="&#x13d;" horiz-adv-x="530" 
d="M507 0h-420v700h60v-643h360v-57zM262 553h-45l16 147h65z" />
    <glyph glyph-name="lcaron" unicode="&#x13e;" horiz-adv-x="220" 
d="M138 0h-56v700h56v-700zM253 553h-45l16 147h65z" />
    <glyph glyph-name="Ldot" unicode="&#x13f;" horiz-adv-x="530" 
d="M507 0h-420v700h60v-643h360v-57zM417 343h-70v70h70v-70z" />
    <glyph glyph-name="ldot" unicode="&#x140;" horiz-adv-x="341" 
d="M138 0h-56v700h56v-700zM316 323h-70v70h70v-70z" />
    <glyph glyph-name="Lslash" unicode="&#x141;" horiz-adv-x="550" 
d="M167 327v-270h360v-57h-420v305l-84 -32v57l84 32v338h60v-316l168 63v-57z" />
    <glyph glyph-name="lslash" unicode="&#x142;" horiz-adv-x="260" 
d="M158 394l80 32v-53l-80 -32v-341h-56v318l-80 -32v54l80 32v328h56v-306z" />
    <glyph glyph-name="Nacute" unicode="&#x143;" horiz-adv-x="710" 
d="M147 0h-60v700h106l350 -630h20v630h60v-700h-106l-350 630h-20v-630zM381 775h-53l88 130h69z" />
    <glyph glyph-name="nacute" unicode="&#x144;" horiz-adv-x="568" 
d="M77 0v500h48l8 -70h5q20 30 62.5 55t96.5 25q56 0 101 -26t70 -73.5t25 -110.5v-300h-56v300q0 45 -19.5 81t-53 56t-74.5 20q-43 0 -79 -21t-57 -57t-21 -79v-300h-56zM317 583h-53l88 130h69z" />
    <glyph glyph-name="uni0145" unicode="&#x145;" horiz-adv-x="710" 
d="M147 0h-60v700h106l350 -630h20v630h60v-700h-106l-350 630h-20v-630zM335 -233h-45l32 146h65z" />
    <glyph glyph-name="uni0146" unicode="&#x146;" horiz-adv-x="568" 
d="M77 0v500h48l8 -70h5q20 30 62.5 55t96.5 25q56 0 101 -26t70 -73.5t25 -110.5v-300h-56v300q0 45 -19.5 81t-53 56t-74.5 20q-43 0 -79 -21t-57 -57t-21 -79v-300h-56zM268 -233h-45l32 146h65z" />
    <glyph glyph-name="Ncaron" unicode="&#x147;" horiz-adv-x="710" 
d="M147 0h-60v700h106l350 -630h20v630h60v-700h-106l-350 630h-20v-630zM385 775h-60l-113 127h62l81 -92l82 92h62z" />
    <glyph glyph-name="ncaron" unicode="&#x148;" horiz-adv-x="568" 
d="M77 0v500h48l8 -70h5q20 30 62.5 55t96.5 25q56 0 101 -26t70 -73.5t25 -110.5v-300h-56v300q0 45 -19.5 81t-53 56t-74.5 20q-43 0 -79 -21t-57 -57t-21 -79v-300h-56zM321 583h-60l-113 127h62l81 -92l82 92h62z" />
    <glyph glyph-name="napostrophe" unicode="&#x149;" horiz-adv-x="578" 
d="M87 0v500h48l8 -70h5q20 30 62.5 55t96.5 25q56 0 101 -26t70 -73.5t25 -110.5v-300h-56v300q0 45 -19.5 81t-53 56t-74.5 20q-43 0 -79 -21t-57 -57t-21 -79v-300h-56zM70 553h-45l26 147h65z" />
    <glyph glyph-name="Eng" unicode="&#x14a;" horiz-adv-x="710" 
d="M425 -200v57h83q25 0 40 15.5t15 40.5v87h-46l-350 630h-20v-630h-60v700h106l350 -630h20v630h60v-793q0 -50 -28 -78.5t-80 -28.5h-90z" />
    <glyph glyph-name="eng" unicode="&#x14b;" horiz-adv-x="568" 
d="M312 -200v57h70q25 0 40 15.5t15 40.5v387q0 45 -19.5 81t-53 56t-74.5 20q-43 0 -79 -21t-57 -57t-21 -79v-300h-56v500h48l8 -70h5q20 30 62.5 55t96.5 25q56 0 101 -26t70 -73.5t25 -110.5v-397q0 -49 -27.5 -76t-77.5 -27h-76z" />
    <glyph glyph-name="Omacron" unicode="&#x14c;" horiz-adv-x="767" 
d="M218 35.5q-75 45.5 -119 127.5t-44 187t44 187t119 127.5t165 45.5q91 0 166 -45.5t119 -127.5t44 -187t-44 -187t-119 -127.5t-166 -45.5q-90 0 -165 45.5zM518.5 85q61.5 38 97.5 107t36 158t-36 158t-97.5 107t-135.5 38t-135 -38t-97 -107t-36 -158t36 -158t97 -107
t135 -38t135.5 38zM520 825h-273v47h273v-47z" />
    <glyph glyph-name="omacron" unicode="&#x14d;" 
d="M158.5 22.5q-53.5 32.5 -84.5 91.5t-31 136t31 136t84.5 91.5t118.5 32.5t118 -32.5t84 -91.5t31 -136t-31 -136t-84 -91.5t-118 -32.5t-118.5 32.5zM365.5 69q40.5 26 64 73t23.5 108t-23.5 108t-64 73t-88.5 26q-49 0 -89.5 -26t-64 -73t-23.5 -108t23.5 -108t64 -73
t89.5 -26q48 0 88.5 26zM413 630h-273v47h273v-47z" />
    <glyph glyph-name="Obreve" unicode="&#x14e;" horiz-adv-x="767" 
d="M218 35.5q-75 45.5 -119 127.5t-44 187t44 187t119 127.5t165 45.5q91 0 166 -45.5t119 -127.5t44 -187t-44 -187t-119 -127.5t-166 -45.5q-90 0 -165 45.5zM518.5 85q61.5 38 97.5 107t36 158t-36 158t-97.5 107t-135.5 38t-135 -38t-97 -107t-36 -158t36 -158t97 -107
t135 -38t135.5 38zM291 816.5q-37 33.5 -41 85.5h50q4 -35 26 -55t57 -20t57.5 20t26.5 55h50q-4 -53 -41.5 -86t-92.5 -33t-92 33.5z" />
    <glyph glyph-name="obreve" unicode="&#x14f;" 
d="M158.5 22.5q-53.5 32.5 -84.5 91.5t-31 136t31 136t84.5 91.5t118.5 32.5t118 -32.5t84 -91.5t31 -136t-31 -136t-84 -91.5t-118 -32.5t-118.5 32.5zM365.5 69q40.5 26 64 73t23.5 108t-23.5 108t-64 73t-88.5 26q-49 0 -89.5 -26t-64 -73t-23.5 -108t23.5 -108t64 -73
t89.5 -26q48 0 88.5 26zM184 621.5q-37 33.5 -41 85.5h50q4 -35 26 -55t57 -20t57.5 20t26.5 55h50q-4 -53 -41.5 -86t-92.5 -33t-92 33.5z" />
    <glyph glyph-name="Ohungarumlaut" unicode="&#x150;" horiz-adv-x="767" 
d="M218 35.5q-75 45.5 -119 127.5t-44 187t44 187t119 127.5t165 45.5q91 0 166 -45.5t119 -127.5t44 -187t-44 -187t-119 -127.5t-166 -45.5q-90 0 -165 45.5zM518.5 85q61.5 38 97.5 107t36 158t-36 158t-97.5 107t-135.5 38t-135 -38t-97 -107t-36 -158t36 -158t97 -107
t135 -38t135.5 38zM336 775h-53l88 130h69zM480 775h-54l89 130h68z" />
    <glyph glyph-name="ohungarumlaut" unicode="&#x151;" 
d="M158.5 22.5q-53.5 32.5 -84.5 91.5t-31 136t31 136t84.5 91.5t118.5 32.5t118 -32.5t84 -91.5t31 -136t-31 -136t-84 -91.5t-118 -32.5t-118.5 32.5zM365.5 69q40.5 26 64 73t23.5 108t-23.5 108t-64 73t-88.5 26q-49 0 -89.5 -26t-64 -73t-23.5 -108t23.5 -108t64 -73
t89.5 -26q48 0 88.5 26zM228 583h-53l88 130h69zM372 583h-54l89 130h68z" />
    <glyph glyph-name="OE" unicode="&#x152;" horiz-adv-x="1117" 
d="M209 35.5q-71 45.5 -112.5 127.5t-41.5 187t41.5 187t112.5 127.5t158 45.5q80 0 145 -41.5t98 -110.5h5v142h440v-57h-380v-261h360v-57h-360v-268h380v-57h-440v142h-5q-33 -69 -97.5 -110.5t-145.5 -41.5q-87 0 -158 45.5zM493.5 84.5q56.5 37.5 89 106.5t32.5 159
t-32.5 159t-89 106.5t-126.5 37.5t-127.5 -37.5t-91 -106.5t-33.5 -159t33.5 -159t91 -106.5t127.5 -37.5t126.5 37.5z" />
    <glyph glyph-name="oe" unicode="&#x153;" horiz-adv-x="930" 
d="M153 23q-51 33 -80.5 92t-29.5 135t29.5 135t80.5 92t114 33q66 0 118 -36.5t78 -101.5q28 64 82 101t122 37q65 0 115 -30.5t77.5 -85.5t27.5 -124q0 -27 -4 -47h-390q5 -80 53.5 -130t120.5 -50q49 0 87 25t58 72h60q-26 -72 -78 -111t-127 -39q-68 0 -123 36.5
t-81 98.5q-27 -62 -79 -98.5t-117 -36.5q-63 0 -114 33zM350.5 69q37.5 26 60 73t22.5 108t-22.5 108t-60 73t-83.5 26t-84 -26t-60.5 -73t-22.5 -108t22.5 -108t60.5 -73t84 -26t83.5 26zM830 277q-2 84 -47.5 132t-115.5 48q-71 0 -119 -49t-55 -131h337z" />
    <glyph glyph-name="Racute" unicode="&#x154;" horiz-adv-x="637" 
d="M301 280l292 -280h-76l-292 280h-78v-280h-60v700h290q57 0 103 -27t72 -74.5t26 -108.5t-26 -108.5t-72 -74.5t-103 -27h-76zM147 337h230q61 0 101 42t40 111t-40 111t-101 42h-230v-306zM344 775h-53l88 130h69z" />
    <glyph glyph-name="racute" unicode="&#x155;" horiz-adv-x="337" 
d="M77 0v500h48l8 -50h5q18 26 38.5 38t56.5 12h94v-53h-87q-51 0 -79 -29.5t-28 -80.5v-337h-56zM236 583h-53l88 130h69z" />
    <glyph glyph-name="uni0156" unicode="&#x156;" horiz-adv-x="637" 
d="M301 280l292 -280h-76l-292 280h-78v-280h-60v700h290q57 0 103 -27t72 -74.5t26 -108.5t-26 -108.5t-72 -74.5t-103 -27h-76zM147 337h230q61 0 101 42t40 111t-40 111t-101 42h-230v-306zM300 -233h-45l32 146h65z" />
    <glyph glyph-name="uni0157" unicode="&#x157;" horiz-adv-x="337" 
d="M77 0v500h48l8 -50h5q18 26 38.5 38t56.5 12h94v-53h-87q-51 0 -79 -29.5t-28 -80.5v-337h-56zM87 -233h-45l32 146h65z" />
    <glyph glyph-name="Rcaron" unicode="&#x158;" horiz-adv-x="637" 
d="M301 280l292 -280h-76l-292 280h-78v-280h-60v700h290q57 0 103 -27t72 -74.5t26 -108.5t-26 -108.5t-72 -74.5t-103 -27h-76zM147 337h230q61 0 101 42t40 111t-40 111t-101 42h-230v-306zM348 775h-60l-113 127h62l81 -92l82 92h62z" />
    <glyph glyph-name="rcaron" unicode="&#x159;" horiz-adv-x="337" 
d="M77 0v500h48l8 -50h5q18 26 38.5 38t56.5 12h94v-53h-87q-51 0 -79 -29.5t-28 -80.5v-337h-56zM240 583h-60l-113 127h62l81 -92l82 92h62z" />
    <glyph glyph-name="Sacute" unicode="&#x15a;" horiz-adv-x="610" 
d="M170.5 19q-58.5 29 -90.5 78t-32 108h60q0 -44 23.5 -80t68.5 -57t107 -21q94 0 141 38t47 100q0 104 -135 130l-123 23q-88 17 -131 60.5t-43 116.5q0 56 28 100.5t81 69.5t125 25q76 0 133.5 -28.5t88.5 -77.5t31 -109h-60q0 44 -23.5 80t-67 57t-102.5 21
q-83 0 -128.5 -38.5t-45.5 -99.5q0 -99 130 -123l107 -20q101 -19 148 -65t47 -122q0 -57 -29 -101t-84.5 -69t-134.5 -25q-78 0 -136.5 29zM329 775h-53l88 130h69z" />
    <glyph glyph-name="sacute" unicode="&#x15b;" horiz-adv-x="458" 
d="M126 11.5q-44 21.5 -67.5 57t-23.5 76.5h57q0 -42 37 -72t99 -30q63 0 97.5 25t34.5 64q0 70 -93 86l-87 15q-135 23 -135 135q0 62 46.5 102t131.5 40q56 0 99 -21.5t66.5 -57t23.5 -76.5h-57q0 43 -36 72.5t-96 29.5q-58 0 -89.5 -25t-31.5 -64q0 -32 20.5 -52.5
t67.5 -28.5l87 -15q140 -25 140 -140q0 -62 -49.5 -102t-139.5 -40q-58 0 -102 21.5zM254 583h-53l88 130h69z" />
    <glyph glyph-name="Scircumflex" unicode="&#x15c;" horiz-adv-x="610" 
d="M170.5 19q-58.5 29 -90.5 78t-32 108h60q0 -44 23.5 -80t68.5 -57t107 -21q94 0 141 38t47 100q0 104 -135 130l-123 23q-88 17 -131 60.5t-43 116.5q0 56 28 100.5t81 69.5t125 25q76 0 133.5 -28.5t88.5 -77.5t31 -109h-60q0 44 -23.5 80t-67 57t-102.5 21
q-83 0 -128.5 -38.5t-45.5 -99.5q0 -99 130 -123l107 -20q101 -19 148 -65t47 -122q0 -57 -29 -101t-84.5 -69t-134.5 -25q-78 0 -136.5 29zM222 775h-62l113 127h60l114 -127h-62l-82 92z" />
    <glyph glyph-name="scircumflex" unicode="&#x15d;" horiz-adv-x="458" 
d="M126 11.5q-44 21.5 -67.5 57t-23.5 76.5h57q0 -42 37 -72t99 -30q63 0 97.5 25t34.5 64q0 70 -93 86l-87 15q-135 23 -135 135q0 62 46.5 102t131.5 40q56 0 99 -21.5t66.5 -57t23.5 -76.5h-57q0 43 -36 72.5t-96 29.5q-58 0 -89.5 -25t-31.5 -64q0 -32 20.5 -52.5
t67.5 -28.5l87 -15q140 -25 140 -140q0 -62 -49.5 -102t-139.5 -40q-58 0 -102 21.5zM146 583h-62l113 127h60l114 -127h-62l-82 92z" />
    <glyph glyph-name="Scedilla" unicode="&#x15e;" horiz-adv-x="610" 
d="M494 47.5q-61 -53.5 -172 -57.5l-17 -37q31 -2 51 -23t20 -48q0 -34 -23.5 -55.5t-67.5 -21.5h-42v40h35q25 0 38.5 11t13.5 29t-13.5 29t-38.5 11h-20v28l18 38q-69 6 -121 36t-79.5 76.5t-27.5 101.5h60q0 -44 23.5 -80t68.5 -57t107 -21q94 0 141 38t47 100
q0 104 -135 130l-123 23q-88 17 -131 60.5t-43 116.5q0 56 28 100.5t81 69.5t125 25q76 0 133.5 -28.5t88.5 -77.5t31 -109h-60q0 44 -23.5 80t-67 57t-102.5 21q-83 0 -128.5 -38.5t-45.5 -99.5q0 -99 130 -123l107 -20q101 -19 148 -65t47 -122q0 -84 -61 -137.5z" />
    <glyph glyph-name="scedilla" unicode="&#x15f;" horiz-adv-x="458" 
d="M373 34q-44 -39 -125 -43l-17 -38q31 -2 51 -23t20 -48q0 -34 -23.5 -55.5t-67.5 -21.5h-42v40h35q25 0 38.5 11t13.5 29t-13.5 29t-38.5 11h-20v28l17 38q-76 7 -121 51t-45 103h57q0 -42 37 -72t99 -30q63 0 97.5 25t34.5 64q0 70 -93 86l-87 15q-135 23 -135 135
q0 62 46.5 102t131.5 40q56 0 99 -21.5t66.5 -57t23.5 -76.5h-57q0 43 -36 72.5t-96 29.5q-58 0 -89.5 -25t-31.5 -64q0 -32 20.5 -52.5t67.5 -28.5l87 -15q140 -25 140 -140q0 -59 -44 -98z" />
    <glyph glyph-name="Scaron" unicode="&#x160;" horiz-adv-x="610" 
d="M170.5 19q-58.5 29 -90.5 78t-32 108h60q0 -44 23.5 -80t68.5 -57t107 -21q94 0 141 38t47 100q0 104 -135 130l-123 23q-88 17 -131 60.5t-43 116.5q0 56 28 100.5t81 69.5t125 25q76 0 133.5 -28.5t88.5 -77.5t31 -109h-60q0 44 -23.5 80t-67 57t-102.5 21
q-83 0 -128.5 -38.5t-45.5 -99.5q0 -99 130 -123l107 -20q101 -19 148 -65t47 -122q0 -57 -29 -101t-84.5 -69t-134.5 -25q-78 0 -136.5 29zM333 775h-60l-113 127h62l81 -92l82 92h62z" />
    <glyph glyph-name="scaron" unicode="&#x161;" horiz-adv-x="458" 
d="M126 11.5q-44 21.5 -67.5 57t-23.5 76.5h57q0 -42 37 -72t99 -30q63 0 97.5 25t34.5 64q0 70 -93 86l-87 15q-135 23 -135 135q0 62 46.5 102t131.5 40q56 0 99 -21.5t66.5 -57t23.5 -76.5h-57q0 43 -36 72.5t-96 29.5q-58 0 -89.5 -25t-31.5 -64q0 -32 20.5 -52.5
t67.5 -28.5l87 -15q140 -25 140 -140q0 -62 -49.5 -102t-139.5 -40q-58 0 -102 21.5zM257 583h-60l-113 127h62l81 -92l82 92h62z" />
    <glyph glyph-name="uni0162" unicode="&#x162;" horiz-adv-x="587" 
d="M323 0h-7l-21 -47q31 -2 51 -23t20 -48q0 -34 -23.5 -55.5t-67.5 -21.5h-42v40h35q25 0 38.5 11t13.5 29t-13.5 29t-38.5 11h-20v28l22 47h-7v643h-238v57h537v-57h-239v-643z" />
    <glyph glyph-name="uni0163" unicode="&#x163;" horiz-adv-x="335" 
d="M288 447h-123v-355q0 -39 38 -39h85v-53h-67l-21 -47q31 -2 51 -23t20 -48q0 -34 -23.5 -55.5t-67.5 -21.5h-42v40h35q25 0 38.5 11t13.5 29t-13.5 29t-38.5 11h-20v28l22 48q-32 5 -49.5 26.5t-17.5 54.5v365h-80v53h80v140h57v-140h123v-53z" />
    <glyph glyph-name="Tcaron" unicode="&#x164;" horiz-adv-x="587" 
d="M323 0h-60v643h-238v57h537v-57h-239v-643zM323 775h-60l-113 127h62l81 -92l82 92h62z" />
    <glyph glyph-name="tcaron" unicode="&#x165;" horiz-adv-x="335" 
d="M193 0q-40 0 -62.5 22t-22.5 60v365h-80v53h80v140h57v-140h123v-53h-123v-355q0 -39 38 -39h85v-53h-95zM280 553h-45l16 147h65z" />
    <glyph glyph-name="Tbar" unicode="&#x166;" horiz-adv-x="587" 
d="M562 700v-57h-239v-251h159v-57h-159v-335h-60v335h-158v57h158v251h-238v57h537z" />
    <glyph glyph-name="tbar" unicode="&#x167;" horiz-adv-x="335" 
d="M288 447h-123v-140h113v-54h-113v-161q0 -39 38 -39h85v-53h-95q-40 0 -62.5 22t-22.5 60v171h-70v54h70v140h-80v53h80v140h57v-140h123v-53z" />
    <glyph glyph-name="Umacron" unicode="&#x16a;" horiz-adv-x="690" 
d="M209 25.5q-61 35.5 -96.5 100.5t-35.5 149v425h60v-425q0 -67 27.5 -119t75 -80.5t105.5 -28.5t105.5 28.5t75 80.5t27.5 119v425h60v-425q0 -84 -35.5 -149t-96.5 -100.5t-136 -35.5t-136 35.5zM481 825h-273v47h273v-47z" />
    <glyph glyph-name="umacron" unicode="&#x16b;" horiz-adv-x="568" 
d="M170.5 16q-44.5 26 -70 73.5t-25.5 110.5v300h57v-300q0 -45 19 -81t52.5 -56t74.5 -20q43 0 79 21t57 57t21 79v300h57v-500h-49l-8 70h-5q-21 -31 -62.5 -55.5t-95.5 -24.5q-57 0 -101.5 26zM421 630h-273v47h273v-47z" />
    <glyph glyph-name="Ubreve" unicode="&#x16c;" horiz-adv-x="690" 
d="M209 25.5q-61 35.5 -96.5 100.5t-35.5 149v425h60v-425q0 -67 27.5 -119t75 -80.5t105.5 -28.5t105.5 28.5t75 80.5t27.5 119v425h60v-425q0 -84 -35.5 -149t-96.5 -100.5t-136 -35.5t-136 35.5zM253 816.5q-37 33.5 -41 85.5h50q4 -35 26 -55t57 -20t57.5 20t26.5 55h50
q-4 -53 -41.5 -86t-92.5 -33t-92 33.5z" />
    <glyph glyph-name="ubreve" unicode="&#x16d;" horiz-adv-x="568" 
d="M170.5 16q-44.5 26 -70 73.5t-25.5 110.5v300h57v-300q0 -45 19 -81t52.5 -56t74.5 -20q43 0 79 21t57 57t21 79v300h57v-500h-49l-8 70h-5q-21 -31 -62.5 -55.5t-95.5 -24.5q-57 0 -101.5 26zM192 621.5q-37 33.5 -41 85.5h50q4 -35 26 -55t57 -20t57.5 20t26.5 55h50
q-4 -53 -41.5 -86t-92.5 -33t-92 33.5z" />
    <glyph glyph-name="Uring" unicode="&#x16e;" horiz-adv-x="690" 
d="M209 25.5q-61 35.5 -96.5 100.5t-35.5 149v425h60v-425q0 -67 27.5 -119t75 -80.5t105.5 -28.5t105.5 28.5t75 80.5t27.5 119v425h60v-425q0 -84 -35.5 -149t-96.5 -100.5t-136 -35.5t-136 35.5zM283 790q-25 25 -25 62q0 36 25 61t62 25q36 0 61 -25t25 -61
q0 -37 -25 -62t-61 -25q-37 0 -62 25zM377.5 818q13.5 13 13.5 34q0 20 -13.5 33t-32.5 13t-33 -13t-14 -33q0 -21 14 -34t33 -13t32.5 13z" />
    <glyph glyph-name="uring" unicode="&#x16f;" horiz-adv-x="568" 
d="M170.5 16q-44.5 26 -70 73.5t-25.5 110.5v300h57v-300q0 -45 19 -81t52.5 -56t74.5 -20q43 0 79 21t57 57t21 79v300h57v-500h-49l-8 70h-5q-21 -31 -62.5 -55.5t-95.5 -24.5q-57 0 -101.5 26zM223 598.5q-25 25.5 -25 61.5t25 61.5t62 25.5q36 0 61 -25.5t25 -61.5
t-25 -61.5t-61 -25.5q-37 0 -62 25.5zM317.5 626q13.5 13 13.5 34t-13.5 34t-32.5 13t-33 -13.5t-14 -33.5t14 -33.5t33 -13.5t32.5 13z" />
    <glyph glyph-name="Uhungarumlaut" unicode="&#x170;" horiz-adv-x="690" 
d="M209 25.5q-61 35.5 -96.5 100.5t-35.5 149v425h60v-425q0 -67 27.5 -119t75 -80.5t105.5 -28.5t105.5 28.5t75 80.5t27.5 119v425h60v-425q0 -84 -35.5 -149t-96.5 -100.5t-136 -35.5t-136 35.5zM298 775h-53l88 130h69zM442 775h-54l89 130h68z" />
    <glyph glyph-name="uhungarumlaut" unicode="&#x171;" horiz-adv-x="568" 
d="M170.5 16q-44.5 26 -70 73.5t-25.5 110.5v300h57v-300q0 -45 19 -81t52.5 -56t74.5 -20q43 0 79 21t57 57t21 79v300h57v-500h-49l-8 70h-5q-21 -31 -62.5 -55.5t-95.5 -24.5q-57 0 -101.5 26zM236 583h-53l88 130h69zM380 583h-54l89 130h68z" />
    <glyph glyph-name="Uogonek" unicode="&#x172;" horiz-adv-x="690" 
d="M553 700h60v-425q0 -100 -48 -170.5t-124 -97.5q-82 -29 -82 -80q0 -19 12 -31.5t34 -12.5h15v-43h-18q-42 0 -66 21.5t-24 56.5q0 44 40 72h-8q-74 0 -135 35.5t-96.5 100.5t-35.5 149v425h60v-425q0 -67 27.5 -119t75 -80.5t105.5 -28.5t105.5 28.5t75 80.5t27.5 119
v425z" />
    <glyph glyph-name="uogonek" unicode="&#x173;" horiz-adv-x="568" 
d="M493 -117v-43h-18q-42 0 -66 21.5t-24 56.5q0 28 17 50.5t41 33.5l-8 68h-5q-21 -31 -62.5 -55.5t-95.5 -24.5q-57 0 -101.5 26t-70 73.5t-25.5 110.5v300h57v-300q0 -45 19 -81t52.5 -56t74.5 -20q43 0 79 21t57 57t21 79v300h57v-500q-60 -30 -60 -73q0 -19 12 -31.5
t34 -12.5h15z" />
    <glyph glyph-name="Wcircumflex" unicode="&#x174;" horiz-adv-x="947" 
d="M304 0h-109l-175 700h63l157 -637h20l165 637h97l165 -637h20l156 637h64l-175 -700h-109l-160 617h-20zM392 775h-62l113 127h60l114 -127h-62l-82 92z" />
    <glyph glyph-name="wcircumflex" unicode="&#x175;" horiz-adv-x="753" 
d="M255 0h-103l-134 500h61l114 -440h20l115 440h97l115 -440h20l115 440h60l-134 -500h-103l-111 430h-20zM295 583h-62l113 127h60l114 -127h-62l-82 92z" />
    <glyph glyph-name="Ycircumflex" unicode="&#x176;" horiz-adv-x="587" 
d="M323 0h-60v262l-256 438h64l212 -365h20l213 365h64l-257 -438v-262zM212 775h-62l113 127h60l114 -127h-62l-82 92z" />
    <glyph glyph-name="ycircumflex" unicode="&#x177;" horiz-adv-x="477" 
d="M403 500h60l-226 -635q-12 -35 -32.5 -50t-57.5 -15h-84v53h80q19 0 28.5 9t16.5 28l27 78l-202 532h61l161 -432h20zM164 583h-62l113 127h60l114 -127h-62l-82 92z" />
    <glyph glyph-name="Ydieresis" unicode="&#x178;" horiz-adv-x="587" 
d="M323 0h-60v262l-256 438h64l212 -365h20l213 365h64l-257 -438v-262zM240 815h-67v67h67v-67zM413 815h-67v67h67v-67z" />
    <glyph glyph-name="Zacute" unicode="&#x179;" horiz-adv-x="572" 
d="M532 0h-492v50l412 593h-407v57h482v-50l-412 -593h417v-57zM311 775h-53l88 130h69z" />
    <glyph glyph-name="zacute" unicode="&#x17a;" horiz-adv-x="423" 
d="M395 0h-367v48l290 399h-285v53h357v-48l-290 -399h295v-53zM238 583h-53l88 130h69z" />
    <glyph glyph-name="Zdotaccent" unicode="&#x17b;" horiz-adv-x="572" 
d="M532 0h-492v50l412 593h-407v57h482v-50l-412 -593h417v-57zM319 815h-67v67h67v-67z" />
    <glyph glyph-name="zdotaccent" unicode="&#x17c;" horiz-adv-x="423" 
d="M395 0h-367v48l290 399h-285v53h357v-48l-290 -399h295v-53zM245 620h-67v67h67v-67z" />
    <glyph glyph-name="Zcaron" unicode="&#x17d;" horiz-adv-x="572" 
d="M532 0h-492v50l412 593h-407v57h482v-50l-412 -593h417v-57zM315 775h-60l-113 127h62l81 -92l82 92h62z" />
    <glyph glyph-name="zcaron" unicode="&#x17e;" horiz-adv-x="423" 
d="M395 0h-367v48l290 399h-285v53h357v-48l-290 -399h295v-53zM241 583h-60l-113 127h62l81 -92l82 92h62z" />
    <glyph glyph-name="uni018F" unicode="&#x18f;" horiz-adv-x="752" 
d="M208.5 33q-71.5 43 -112.5 121.5t-41 178.5v44h582q-5 80 -41.5 143t-96.5 98t-131 35q-79 0 -144 -43.5t-96 -119.5h-64q34 101 117 160.5t187 59.5q91 0 166 -45.5t119 -127.5t44 -187t-44 -187t-119 -127.5t-166 -45.5q-88 0 -159.5 43zM499 82q60 35 96.5 98
t41.5 143h-522q0 -81 33.5 -143.5t91.5 -97.5t128 -35q71 0 131 35z" />
    <glyph glyph-name="florin" unicode="&#x192;" horiz-adv-x="368" 
d="M-65 -200l12 53h61q21 0 33.5 12.5t16.5 32.5l100 462h-96l11 53h97l38 179q9 42 37 65t73 23h74l-12 -53h-63q-21 0 -34.5 -12.5t-17.5 -32.5l-35 -169h105l-12 -53h-105l-103 -472q-9 -42 -36 -65t-72 -23h-72z" />
    <glyph glyph-name="uni01F4" unicode="&#x1f4;" horiz-adv-x="767" 
d="M408 355h284v-355h-49l-8 118h-5q-37 -56 -104 -92t-143 -36q-90 0 -165 45.5t-119 127.5t-44 187t44 187t119 127.5t165 45.5q104 0 187.5 -59t116.5 -161h-64q-30 76 -96 119.5t-144 43.5q-74 0 -135 -38t-97 -107t-36 -158t36 -158t97 -107t135 -38q64 0 121.5 32
t92.5 84.5t35 112.5v26h-224v53zM407 775h-53l88 130h69z" />
    <glyph glyph-name="uni01F5" unicode="&#x1f5;" horiz-adv-x="577" 
d="M167.5 -186q-48.5 24 -75 63t-29.5 83h57q3 -30 22.5 -57t55 -43.5t83.5 -16.5q74 0 118 43t44 114v110h-5q-28 -43 -72.5 -66.5t-97.5 -23.5q-63 0 -114.5 31t-81 87t-29.5 127t29.5 127t81 87t114.5 31q53 0 98.5 -25t71.5 -68h5l9 83h48v-500q0 -96 -58.5 -153
t-159.5 -57q-66 0 -114.5 24zM359 97q39 24 61.5 68t22.5 100t-22.5 100t-61.5 68t-87 24t-87.5 -24t-62 -68t-22.5 -100t22.5 -100t62 -68t87.5 -24t87 24zM313 583h-53l88 130h69z" />
    <glyph glyph-name="Aringacute" unicode="&#x1fa;" horiz-adv-x="637" 
d="M630 0h-63l-71 190h-355l-71 -190h-63l265 700h93zM309 637l-146 -390h311l-146 390h-19zM257 778.5q-25 25.5 -25 61.5q0 35 23 59.5t57 27.5l33 56h55l-45 -64q23 -9 36.5 -30t13.5 -49q0 -36 -25 -61.5t-61 -25.5q-37 0 -62 25.5zM351.5 806q13.5 13 13.5 34t-13.5 34
t-32.5 13t-33 -13.5t-14 -33.5t14 -33.5t33 -13.5t32.5 13z" />
    <glyph glyph-name="aringacute" unicode="&#x1fb;" horiz-adv-x="527" 
d="M101.5 32q-46.5 42 -46.5 110q0 72 48.5 113.5t144.5 41.5h147v25q0 64 -35 99.5t-97 35.5q-60 0 -96 -29.5t-40 -72.5h-57q3 42 26 77.5t66 56.5t101 21q87 0 138 -49.5t51 -138.5v-322h-49l-8 77h-5q-20 -38 -64.5 -62.5t-102.5 -24.5q-75 0 -121.5 42zM350 92
q45 49 45 128v23h-147q-68 0 -102 -27t-34 -74q0 -45 29.5 -72t81.5 -27q82 0 127 49zM202 582q-25 25 -25 61t23 60.5t57 26.5l33 57h55l-45 -64q23 -10 36.5 -30.5t13.5 -49.5q0 -36 -25 -61t-61 -25q-37 0 -62 25zM296.5 610q13.5 13 13.5 33q0 21 -13.5 34t-32.5 13
t-33 -13t-14 -34q0 -20 14 -33t33 -13t32.5 13z" />
    <glyph glyph-name="AEacute" unicode="&#x1fc;" horiz-adv-x="925" 
d="M863 700v-57h-380v-261h360v-57h-360v-268h380v-57h-440v190h-284l-82 -190h-64l305 700h565zM335 643l-171 -396h259v396h-88zM479 775h-53l88 130h69z" />
    <glyph glyph-name="aeacute" unicode="&#x1fd;" horiz-adv-x="888" 
d="M842 230h-390q4 -84 52.5 -135.5t120.5 -51.5q50 0 87.5 25t57.5 72h60q-25 -72 -77 -111t-128 -39q-65 0 -120.5 36.5t-79.5 95.5q-22 -60 -77 -96t-125 -36q-75 0 -121.5 41.5t-46.5 105.5q0 69 48.5 109.5t144.5 40.5h147v35q0 64 -35 99.5t-97 35.5q-60 0 -96 -29.5
t-40 -72.5h-57q3 42 26 77.5t66 56.5t101 21q65 0 110 -32.5t62 -87.5q25 56 74.5 88t115.5 32q64 0 114 -29.5t78 -83.5t28 -124q0 -26 -3 -43zM788 283q-2 81 -48 127.5t-115 46.5q-71 0 -119 -47.5t-54 -126.5h336zM350 92q45 49 45 128v13h-147q-67 0 -101.5 -26
t-34.5 -70q0 -42 29.5 -68t81.5 -26q82 0 127 49zM471 583h-53l88 130h69z" />
    <glyph glyph-name="Oslashacute" unicode="&#x1fe;" horiz-adv-x="767" 
d="M573 649q65 -48 102 -125t37 -174q0 -105 -44 -187t-119 -127.5t-166 -45.5q-75 0 -141 32l-30 -57h-64l46 87q-65 48 -102 125t-37 173q0 105 44 187t119 127.5t165 45.5q76 0 142 -32l30 57h63zM143.5 208q28.5 -64 77.5 -104l277 523q-54 26 -115 26q-74 0 -135 -38
t-97 -107t-36 -158q0 -78 28.5 -142zM518.5 85q61.5 38 97.5 107t36 158q0 79 -28.5 142.5t-78.5 103.5l-276 -523q54 -26 114 -26q74 0 135.5 38zM409 775h-53l88 130h69z" />
    <glyph glyph-name="oslashacute" unicode="&#x1ff;" 
d="M418 462q43 -35 67.5 -89.5t24.5 -122.5q0 -77 -31 -136t-84 -91.5t-118 -32.5q-52 0 -99 22l-25 -47h-56l39 73q-44 35 -68.5 89.5t-24.5 122.5q0 77 31 136t84.5 91.5t118.5 32.5q51 0 98 -22l25 47h57zM116.5 158q16.5 -41 46.5 -69l187 351q-36 17 -73 17
q-49 0 -89.5 -26t-64 -73t-23.5 -108q0 -51 16.5 -92zM365.5 69q40.5 26 64 73t23.5 108q0 51 -16.5 92t-45.5 69l-187 -351q34 -17 73 -17q48 0 88.5 26zM303 583h-53l88 130h69z" />
    <glyph glyph-name="uni0218" unicode="&#x218;" horiz-adv-x="610" 
d="M170.5 19q-58.5 29 -90.5 78t-32 108h60q0 -44 23.5 -80t68.5 -57t107 -21q94 0 141 38t47 100q0 104 -135 130l-123 23q-88 17 -131 60.5t-43 116.5q0 56 28 100.5t81 69.5t125 25q76 0 133.5 -28.5t88.5 -77.5t31 -109h-60q0 44 -23.5 80t-67 57t-102.5 21
q-83 0 -128.5 -38.5t-45.5 -99.5q0 -99 130 -123l107 -20q101 -19 148 -65t47 -122q0 -57 -29 -101t-84.5 -69t-134.5 -25q-78 0 -136.5 29zM285 -233h-45l32 146h65z" />
    <glyph glyph-name="uni0219" unicode="&#x219;" horiz-adv-x="458" 
d="M126 11.5q-44 21.5 -67.5 57t-23.5 76.5h57q0 -42 37 -72t99 -30q63 0 97.5 25t34.5 64q0 70 -93 86l-87 15q-135 23 -135 135q0 62 46.5 102t131.5 40q56 0 99 -21.5t66.5 -57t23.5 -76.5h-57q0 43 -36 72.5t-96 29.5q-58 0 -89.5 -25t-31.5 -64q0 -32 20.5 -52.5
t67.5 -28.5l87 -15q140 -25 140 -140q0 -62 -49.5 -102t-139.5 -40q-58 0 -102 21.5zM211 -233h-45l32 146h65z" />
    <glyph glyph-name="uni021A" unicode="&#x21a;" horiz-adv-x="587" 
d="M323 0h-60v643h-238v57h537v-57h-239v-643zM275 -233h-45l32 146h65z" />
    <glyph glyph-name="uni021B" unicode="&#x21b;" horiz-adv-x="335" 
d="M193 0q-40 0 -62.5 22t-22.5 60v365h-80v53h80v140h57v-140h123v-53h-123v-355q0 -39 38 -39h85v-53h-95zM179 -233h-45l32 146h65z" />
    <glyph glyph-name="uni0232" unicode="&#x232;" horiz-adv-x="587" 
d="M323 0h-60v262l-256 438h64l212 -365h20l213 365h64l-257 -438v-262zM430 825h-273v47h273v-47z" />
    <glyph glyph-name="uni0233" unicode="&#x233;" horiz-adv-x="477" 
d="M403 500h60l-226 -635q-12 -35 -32.5 -50t-57.5 -15h-84v53h80q19 0 28.5 9t16.5 28l27 78l-202 532h61l161 -432h20zM381 630h-273v47h273v-47z" />
    <glyph glyph-name="uni0237" unicode="&#x237;" horiz-adv-x="210" 
d="M-37 -200v53h75q19 0 29 10t10 29v608h56v-618q0 -38 -22.5 -60t-62.5 -22h-85z" />
    <glyph glyph-name="uni0244" unicode="&#x244;" horiz-adv-x="743" 
d="M727 494v-57h-87v-162q0 -84 -35.5 -149t-96.5 -100.5t-136 -35.5t-136.5 35.5t-97 100.5t-35.5 149v162h-86v57h86v206h60v-206h417v206h60v-206h87zM580 437h-417v-162q0 -67 27.5 -119t75.5 -80.5t106 -28.5t105.5 28.5t75 80.5t27.5 119v162z" />
    <glyph glyph-name="uni0259" unicode="&#x259;" horiz-adv-x="547" 
d="M153.5 21q-51.5 31 -81 86t-29.5 123q0 31 4 47h400q-4 54 -29 95t-64.5 63t-85.5 22q-50 0 -90 -25.5t-60 -71.5h-60q26 72 80.5 111t129.5 39q66 0 119.5 -33t84.5 -92t31 -135t-31 -135t-84.5 -92t-119.5 -33q-63 0 -114.5 31zM390.5 93q49.5 50 56.5 130h-347
q1 -52 23.5 -93t60.5 -64t84 -23q73 0 122.5 50z" />
    <glyph glyph-name="uni0289" unicode="&#x289;" horiz-adv-x="597" 
d="M577 382v-54h-70v-328h-49l-8 70h-5q-21 -31 -62.5 -55.5t-95.5 -24.5q-57 0 -101.5 26t-70 73.5t-25.5 110.5v128h-70v54h70v118h57v-118h303v118h57v-118h70zM450 328h-303v-128q0 -45 19 -81t52.5 -56t74.5 -20q43 0 79 21t57 57t21 79v128z" />
    <glyph glyph-name="uni02BC" unicode="&#x2bc;" horiz-adv-x="151" 
d="M75 553h-45l26 147h65z" />
    <glyph glyph-name="circumflex" unicode="&#x2c6;" horiz-adv-x="347" 
d="M92 583h-62l113 127h60l114 -127h-62l-82 92z" />
    <glyph glyph-name="caron" unicode="&#x2c7;" horiz-adv-x="347" 
d="M203 583h-60l-113 127h62l81 -92l82 92h62z" />
    <glyph glyph-name="breve" unicode="&#x2d8;" horiz-adv-x="327" 
d="M71 621.5q-37 33.5 -41 85.5h50q4 -35 26 -55t57 -20t57.5 20t26.5 55h50q-4 -53 -41.5 -86t-92.5 -33t-92 33.5z" />
    <glyph glyph-name="dotaccent" unicode="&#x2d9;" horiz-adv-x="127" 
d="M97 620h-67v67h67v-67z" />
    <glyph glyph-name="ring" unicode="&#x2da;" horiz-adv-x="233" 
d="M55 598.5q-25 25.5 -25 61.5t25 61.5t62 25.5q36 0 61 -25.5t25 -61.5t-25 -61.5t-61 -25.5q-37 0 -62 25.5zM149.5 626q13.5 13 13.5 34t-13.5 34t-32.5 13t-33 -13.5t-14 -33.5t14 -33.5t33 -13.5t32.5 13z" />
    <glyph glyph-name="ogonek" unicode="&#x2db;" horiz-adv-x="168" 
d="M120 -160q-42 0 -66 21.5t-24 56.5q0 28 17 50.5t41 33.5l10 8l39 -10q-60 -30 -60 -73q0 -19 12 -31.5t34 -12.5h15v-43h-18z" />
    <glyph glyph-name="tilde" unicode="&#x2dc;" horiz-adv-x="360" 
d="M30 603q0 42 26 68t66 26q18 0 33.5 -7.5t33.5 -20.5q17 -12 27 -17t22 -5q21 0 33 13t12 37h47q0 -42 -26 -68t-66 -26q-18 0 -33.5 7.5t-33.5 20.5q-17 12 -27 17t-22 5q-21 0 -33 -13t-12 -37h-47z" />
    <glyph glyph-name="hungarumlaut" unicode="&#x2dd;" horiz-adv-x="360" 
d="M83 583h-53l88 130h69zM227 583h-54l89 130h68z" />
    <glyph glyph-name="gravecomb" unicode="&#x300;" horiz-adv-x="0" 
d="M-30 583h-54l-103 130h68z" />
    <glyph glyph-name="acutecomb" unicode="&#x301;" horiz-adv-x="0" 
d="M-134 583h-53l88 130h69z" />
    <glyph glyph-name="uni0302" unicode="&#x302;" horiz-adv-x="0" 
d="M-255 583h-62l113 127h60l114 -127h-62l-82 92z" />
    <glyph glyph-name="tildecomb" unicode="&#x303;" horiz-adv-x="0" 
d="M-330 603q0 42 26 68t66 26q18 0 33.5 -7.5t33.5 -20.5q17 -12 27 -17t22 -5q21 0 33 13t12 37h47q0 -42 -26 -68t-66 -26q-18 0 -33.5 7.5t-33.5 20.5q-17 12 -27 17t-22 5q-21 0 -33 -13t-12 -37h-47z" />
    <glyph glyph-name="uni0304" unicode="&#x304;" horiz-adv-x="0" 
d="M-30 630h-273v47h273v-47z" />
    <glyph glyph-name="uni0306" unicode="&#x306;" horiz-adv-x="0" 
d="M-256 621.5q-37 33.5 -41 85.5h50q4 -35 26 -55t57 -20t57.5 20t26.5 55h50q-4 -53 -41.5 -86t-92.5 -33t-92 33.5z" />
    <glyph glyph-name="uni0307" unicode="&#x307;" horiz-adv-x="0" 
d="M-30 620h-67v67h67v-67z" />
    <glyph glyph-name="uni0308" unicode="&#x308;" horiz-adv-x="0" 
d="M-203 620h-67v67h67v-67zM-30 620h-67v67h67v-67z" />
    <glyph glyph-name="uni030A" unicode="&#x30a;" horiz-adv-x="0" 
d="M-178 598.5q-25 25.5 -25 61.5t25 61.5t62 25.5q36 0 61 -25.5t25 -61.5t-25 -61.5t-61 -25.5q-37 0 -62 25.5zM-83.5 626q13.5 13 13.5 34t-13.5 34t-32.5 13t-33 -13.5t-14 -33.5t14 -33.5t33 -13.5t32.5 13z" />
    <glyph glyph-name="uni030B" unicode="&#x30b;" horiz-adv-x="0" 
d="M-277 583h-53l88 130h69zM-133 583h-54l89 130h68z" />
    <glyph glyph-name="uni030C" unicode="&#x30c;" horiz-adv-x="0" 
d="M-144 583h-60l-113 127h62l81 -92l82 92h62z" />
    <glyph glyph-name="uni0312" unicode="&#x312;" horiz-adv-x="0" 
d="M-71 583h-65l58 154h48z" />
    <glyph glyph-name="uni0326" unicode="&#x326;" horiz-adv-x="0" 
d="M-82 -233h-45l32 146h65z" />
    <glyph glyph-name="uni0327" unicode="&#x327;" horiz-adv-x="0" 
d="M-163 -195v40h35q25 0 38.5 11t13.5 29t-13.5 29t-38.5 11h-20v28l27 59l41 -12l-21 -47q31 -2 51 -23t20 -48q0 -34 -23.5 -55.5t-67.5 -21.5h-42z" />
    <glyph glyph-name="uni0328" unicode="&#x328;" horiz-adv-x="0" 
d="M-48 -160q-42 0 -66 21.5t-24 56.5q0 28 17 50.5t41 33.5l10 8l39 -10q-60 -30 -60 -73q0 -19 12 -31.5t34 -12.5h15v-43h-18z" />
    <glyph glyph-name="uni03A9" unicode="&#x3a9;" horiz-adv-x="823" 
d="M100 0v57h143q-68 36 -123 112t-55 189q0 102 45.5 182t124.5 125t177 45q97 0 176 -45t124.5 -125t45.5 -182q0 -113 -55 -189t-123 -112h143v-57h-238v57q50 18 99 58.5t81.5 103t32.5 139.5q0 85 -37.5 152.5t-102.5 105t-146 37.5t-146.5 -37.5t-103 -104.5
t-37.5 -153q0 -77 32.5 -139.5t81.5 -103t99 -58.5v-57h-238z" />
    <glyph glyph-name="uni0400" unicode="&#x400;" horiz-adv-x="588" 
d="M527 0h-440v700h440v-57h-380v-261h360v-57h-360v-268h380v-57zM340 775h-54l-103 130h68z" />
    <glyph glyph-name="uni0401" unicode="&#x401;" horiz-adv-x="588" 
d="M527 0h-440v700h440v-57h-380v-261h360v-57h-360v-268h380v-57zM260 815h-67v67h67v-67zM433 815h-67v67h67v-67z" />
    <glyph glyph-name="uni0402" unicode="&#x402;" horiz-adv-x="700" 
d="M398 -57q85 0 137.5 59.5t52.5 165.5q0 100 -45.5 157.5t-131.5 57.5q-45 0 -82.5 -11.5t-75.5 -34.5v-337h-60v643h-190v57h440v-57h-190v-250q36 23 72 35t90 12q111 0 172 -73.5t61 -198.5q0 -83 -28.5 -146.5t-85 -99t-136.5 -35.5v56z" />
    <glyph glyph-name="uni0403" unicode="&#x403;" horiz-adv-x="535" 
d="M147 0h-60v700h426v-57h-366v-643zM324 775h-53l88 130h69z" />
    <glyph glyph-name="uni0404" unicode="&#x404;" horiz-adv-x="733" 
d="M218.5 35.5q-75.5 45.5 -119.5 127.5t-44 187t44 187t119.5 127.5t166.5 45.5q109 0 192 -62.5t114 -167.5h-63q-28 81 -92.5 127t-150.5 46q-71 0 -130.5 -34.5t-96 -96.5t-40.5 -142h358v-57h-358q4 -81 40.5 -144t96 -97.5t130.5 -34.5q86 0 150 47t93 131h63
q-28 -108 -111 -171.5t-195 -63.5q-91 0 -166.5 45.5z" />
    <glyph glyph-name="uni0405" unicode="&#x405;" horiz-adv-x="610" 
d="M170.5 19q-58.5 29 -90.5 78t-32 108h60q0 -44 23.5 -80t68.5 -57t107 -21q94 0 141 38t47 100q0 104 -135 130l-123 23q-88 17 -131 60.5t-43 116.5q0 56 28 100.5t81 69.5t125 25q76 0 133.5 -28.5t88.5 -77.5t31 -109h-60q0 44 -23.5 80t-67 57t-102.5 21
q-83 0 -128.5 -38.5t-45.5 -99.5q0 -99 130 -123l107 -20q101 -19 148 -65t47 -122q0 -57 -29 -101t-84.5 -69t-134.5 -25q-78 0 -136.5 29z" />
    <glyph glyph-name="uni0406" unicode="&#x406;" horiz-adv-x="233" 
d="M147 0h-60v700h60v-700z" />
    <glyph glyph-name="uni0407" unicode="&#x407;" horiz-adv-x="233" 
d="M147 0h-60v700h60v-700zM64 815h-67v67h67v-67zM237 815h-67v67h67v-67z" />
    <glyph glyph-name="uni0408" unicode="&#x408;" horiz-adv-x="385" 
d="M13 0v57h175q25 0 40 15.5t15 40.5v587h60v-593q0 -50 -28 -78.5t-80 -28.5h-182z" />
    <glyph glyph-name="uni0409" unicode="&#x409;" horiz-adv-x="1028" 
d="M10 -5v60h30q37 0 60 22.5t27 69.5l46 553h402v-293h200q58 0 105 -26t73.5 -72.5t26.5 -105.5t-26.5 -105t-73.5 -72t-105 -26h-260v643h-285l-43 -496q-7 -78 -43 -115t-104 -37h-30zM775 57q64 0 104.5 40t40.5 106t-40.5 106.5t-104.5 40.5h-200v-293h200z" />
    <glyph glyph-name="uni040A" unicode="&#x40a;" horiz-adv-x="1033" 
d="M87 0v700h60v-303h373v303h60v-303h200q58 0 105 -25.5t73.5 -71t26.5 -102.5t-26.5 -102t-73.5 -70.5t-105 -25.5h-260v340h-373v-340h-60zM780 57q64 0 104.5 39.5t40.5 101.5q0 63 -40.5 102.5t-104.5 39.5h-200v-283h200z" />
    <glyph glyph-name="uni040B" unicode="&#x40b;" horiz-adv-x="712" 
d="M193 0v643h-190v57h440v-57h-190v-246q35 22 72 34t90 12q102 0 161 -58.5t59 -162.5v-222h-60v222q0 81 -42.5 123t-117.5 42q-49 0 -86.5 -11.5t-75.5 -35.5v-340h-60z" />
    <glyph glyph-name="uni040C" unicode="&#x40c;" horiz-adv-x="542" 
d="M147 0h-60v700h60v-332l318 332h77l-334 -345l354 -355h-77l-338 341v-341zM325 775h-53l88 130h69z" />
    <glyph glyph-name="uni040D" unicode="&#x40d;" horiz-adv-x="710" 
d="M193 0h-106v700h60v-630h19l351 630h106v-700h-60v630h-19zM382 775h-54l-103 130h68z" />
    <glyph glyph-name="uni040E" unicode="&#x40e;" horiz-adv-x="595" 
d="M516 700h64l-287 -635q-14 -32 -37.5 -48.5t-64.5 -16.5h-93v57h90q23 0 34.5 7.5t20.5 27.5l30 67l-258 541h64l215 -453h19zM210 816.5q-37 33.5 -41 85.5h50q4 -35 26 -55t57 -20t57.5 20t26.5 55h50q-4 -53 -41.5 -86t-92.5 -33t-92 33.5z" />
    <glyph glyph-name="uni040F" unicode="&#x40f;" horiz-adv-x="693" 
d="M377 -143h-60v143h-230v700h60v-643h400v643h60v-700h-230v-143z" />
    <glyph glyph-name="uni0410" unicode="&#x410;" horiz-adv-x="637" 
d="M630 0h-63l-71 190h-355l-71 -190h-63l265 700h93zM309 637l-146 -390h311l-146 390h-19z" />
    <glyph glyph-name="uni0411" unicode="&#x411;" horiz-adv-x="633" 
d="M87 0v700h458v-57h-398v-243h241q54 0 97.5 -25t68 -70.5t24.5 -104.5t-24.5 -104.5t-68 -70.5t-97.5 -25h-301zM388 57q58 0 94 39t36 104t-36 104t-94 39h-241v-286h241z" />
    <glyph glyph-name="uni0412" unicode="&#x412;" horiz-adv-x="638" 
d="M87 0v700h286q54 0 97 -25t68 -68.5t25 -96.5q0 -56 -27 -97.5t-61 -57.5v-5q39 -14 68.5 -56.5t29.5 -103.5q0 -53 -24.5 -96.5t-68 -68.5t-97.5 -25h-296zM373 377q56 0 93 38t37 95q0 58 -37 95.5t-93 37.5h-226v-266h226zM383 57q56 0 93 37.5t37 95.5t-37 95.5
t-93 37.5h-236v-266h236z" />
    <glyph glyph-name="uni0413" unicode="&#x413;" horiz-adv-x="535" 
d="M147 0h-60v700h426v-57h-366v-643z" />
    <glyph glyph-name="uni0414" unicode="&#x414;" horiz-adv-x="680" 
d="M3 -143v200h11q41 0 63 22t26 69l47 552h418v-643h77v-200h-60v143h-522v-143h-60zM508 57v586h-302l-43 -495q-3 -41 -16 -63.5t-24 -27.5h385z" />
    <glyph glyph-name="uni0415" unicode="&#x415;" horiz-adv-x="588" 
d="M527 0h-440v700h440v-57h-380v-261h360v-57h-360v-268h380v-57z" />
    <glyph glyph-name="uni0416" unicode="&#x416;" horiz-adv-x="793" 
d="M78 0h-73l299 355l-279 345h73l269 -332v332h60v-332l268 332h73l-279 -345l299 -355h-72l-289 345v-345h-60v345z" />
    <glyph glyph-name="uni0417" unicode="&#x417;" horiz-adv-x="593" 
d="M156.5 16.5q-56.5 26.5 -86.5 72.5t-30 101h60q0 -39 22.5 -71.5t65 -52t100.5 -19.5q57 0 100 19.5t66 52t23 71.5q0 36 -20 66.5t-56.5 48.5t-82.5 18h-75v57h75q41 0 74 17.5t51.5 47t18.5 65.5q0 63 -47.5 103t-126.5 40q-51 0 -90.5 -19.5t-61 -52t-21.5 -71.5h-60
q0 55 28.5 101t81 72.5t123.5 26.5q70 0 123 -26.5t82 -72.5t29 -101q0 -59 -34 -99.5t-78 -56.5v-5q50 -14 88.5 -55.5t38.5 -103.5q0 -55 -30.5 -101t-87 -72.5t-131.5 -26.5t-131.5 26.5z" />
    <glyph glyph-name="uni0418" unicode="&#x418;" horiz-adv-x="710" 
d="M193 0h-106v700h60v-630h19l351 630h106v-700h-60v630h-19z" />
    <glyph glyph-name="uni0419" unicode="&#x419;" horiz-adv-x="710" 
d="M193 0h-106v700h60v-630h19l351 630h106v-700h-60v630h-19zM263 816.5q-37 33.5 -41 85.5h50q4 -35 26 -55t57 -20t57.5 20t26.5 55h50q-4 -53 -41.5 -86t-92.5 -33t-92 33.5z" />
    <glyph glyph-name="uni041A" unicode="&#x41a;" horiz-adv-x="542" 
d="M147 0h-60v700h60v-332l318 332h77l-334 -345l354 -355h-77l-338 341v-341z" />
    <glyph glyph-name="uni041B" unicode="&#x41b;" horiz-adv-x="678" 
d="M10 -5v60h30q37 0 60 22.5t27 69.5l46 553h419v-700h-60v643h-302l-43 -496q-7 -78 -43 -115t-104 -37h-30z" />
    <glyph glyph-name="uni041C" unicode="&#x41c;" horiz-adv-x="893" 
d="M147 0h-60v700h115l235 -633h20l235 633h115v-700h-60v623h-20l-232 -623h-97l-231 623h-20v-623z" />
    <glyph glyph-name="uni041D" unicode="&#x41d;" horiz-adv-x="710" 
d="M147 0h-60v700h60v-317h416v317h60v-700h-60v327h-416v-327z" />
    <glyph glyph-name="uni041E" unicode="&#x41e;" horiz-adv-x="767" 
d="M218 35.5q-75 45.5 -119 127.5t-44 187t44 187t119 127.5t165 45.5q91 0 166 -45.5t119 -127.5t44 -187t-44 -187t-119 -127.5t-166 -45.5q-90 0 -165 45.5zM518.5 85q61.5 38 97.5 107t36 158t-36 158t-97.5 107t-135.5 38t-135 -38t-97 -107t-36 -158t36 -158t97 -107
t135 -38t135.5 38z" />
    <glyph glyph-name="uni041F" unicode="&#x41f;" horiz-adv-x="710" 
d="M147 0h-60v700h536v-700h-60v643h-416v-643z" />
    <glyph glyph-name="uni0420" unicode="&#x420;" horiz-adv-x="633" 
d="M87 0v700h290q57 0 103 -27t72 -74.5t26 -108.5t-26 -108.5t-72 -74.5t-103 -27h-230v-280h-60zM377 337q61 0 101 42t40 111t-40 111t-101 42h-230v-306h230z" />
    <glyph glyph-name="uni0421" unicode="&#x421;" horiz-adv-x="733" 
d="M218.5 35.5q-75.5 45.5 -119.5 127.5t-44 187t44 187t119.5 127.5t166.5 45.5q111 0 194 -63t113 -172h-64q-27 84 -91.5 131t-151.5 47q-74 0 -136 -38t-98 -107t-36 -158t36 -158t98 -107t136 -38q87 0 151.5 48t91.5 135h64q-30 -112 -112.5 -176t-194.5 -64
q-91 0 -166.5 45.5z" />
    <glyph glyph-name="uni0422" unicode="&#x422;" horiz-adv-x="587" 
d="M323 0h-60v643h-238v57h537v-57h-239v-643z" />
    <glyph glyph-name="uni0423" unicode="&#x423;" horiz-adv-x="595" 
d="M516 700h64l-287 -635q-14 -32 -37.5 -48.5t-64.5 -16.5h-93v57h90q23 0 34.5 7.5t20.5 27.5l30 67l-258 541h64l215 -453h19z" />
    <glyph glyph-name="uni0424" unicode="&#x424;" horiz-adv-x="797" 
d="M448 630q93 0 161.5 -35t105.5 -96t37 -139t-37 -139t-105.5 -96t-161.5 -35h-20v-110h-60v110h-20q-92 0 -160.5 35t-105.5 96t-37 139t37 139t105.5 96t160.5 35h20v90h60v-90h20zM134.5 248q29.5 -49 84.5 -77t129 -28h20v434h-20q-74 0 -129 -28t-84.5 -77
t-29.5 -112t29.5 -112zM448 143q74 0 129.5 28t85 77t29.5 112t-29.5 112t-85 77t-129.5 28h-20v-434h20z" />
    <glyph glyph-name="uni0425" unicode="&#x425;" horiz-adv-x="613" 
d="M84 0h-69l245 360l-230 340h68l198 -293h22l197 293h68l-230 -340l245 -360h-68l-212 313h-22z" />
    <glyph glyph-name="uni0426" unicode="&#x426;" horiz-adv-x="717" 
d="M682 -143h-60v143h-535v700h60v-643h398v643h60v-643h77v-200z" />
    <glyph glyph-name="uni0427" unicode="&#x427;" horiz-adv-x="665" 
d="M518 312q-32 -27 -89 -49.5t-119 -22.5q-122 0 -180 59.5t-58 185.5v215h60v-215q0 -97 43 -142.5t135 -45.5q66 0 122.5 23.5t85.5 52.5v327h60v-700h-60v312z" />
    <glyph glyph-name="uni0428" unicode="&#x428;" horiz-adv-x="947" 
d="M860 0h-773v700h60v-643h296v643h60v-643h297v643h60v-700z" />
    <glyph glyph-name="uni0429" unicode="&#x429;" horiz-adv-x="972" 
d="M937 -143h-60v143h-790v700h60v-643h296v643h60v-643h297v643h60v-643h77v-200z" />
    <glyph glyph-name="uni042A" unicode="&#x42a;" horiz-adv-x="688" 
d="M168 0v643h-155v57h215v-267h207q57 0 104 -28t74 -77.5t27 -110.5t-27 -111t-74 -78t-104 -28h-267zM435 57q41 0 74 20.5t52 57t19 82.5t-19 82.5t-52 57t-74 20.5h-207v-320h207z" />
    <glyph glyph-name="uni042B" unicode="&#x42b;" horiz-adv-x="787" 
d="M87 0v700h60v-267h196q57 0 104 -28t74 -77.5t27 -110.5t-27 -111t-74 -78t-104 -28h-256zM700 0h-60v700h60v-700zM343 57q41 0 74 20.5t52 57t19 82.5t-19 82.5t-52 57t-74 20.5h-196v-320h196z" />
    <glyph glyph-name="uni042C" unicode="&#x42c;" horiz-adv-x="617" 
d="M87 0v700h60v-267h216q57 0 104 -28t74 -77.5t27 -110.5t-27 -111t-74 -78t-104 -28h-276zM363 57q41 0 74 20.5t52 57t19 82.5t-19 82.5t-52 57t-74 20.5h-216v-320h216z" />
    <glyph glyph-name="uni042D" unicode="&#x42d;" horiz-adv-x="733" 
d="M152.5 53.5q-83.5 63.5 -110.5 171.5h63q27 -83 92 -130.5t151 -47.5q70 0 129.5 35t96 97.5t40.5 143.5h-358v57h358q-4 79 -40.5 141.5t-96 97t-129.5 34.5q-86 0 -151 -46.5t-92 -126.5h-63q19 69 64 121t107.5 80.5t134.5 28.5q91 0 166.5 -45.5t119.5 -127.5
t44 -187t-44 -187t-119.5 -127.5t-166.5 -45.5q-112 0 -195.5 63.5z" />
    <glyph glyph-name="uni042E" unicode="&#x42e;" horiz-adv-x="942" 
d="M424 31.5q-69 41.5 -112 117.5t-49 174h-116v-323h-60v700h60v-320h116q7 99 50 174t111.5 115.5t150.5 40.5q86 0 157.5 -45t113 -127t41.5 -188t-41.5 -188t-113 -127t-157.5 -45q-82 0 -151 41.5zM702 84q58 37 91.5 106t33.5 160t-33.5 160t-91.5 106t-127 37
t-127 -37t-91.5 -106t-33.5 -160t33.5 -160t91.5 -106t127 -37t127 37z" />
    <glyph glyph-name="uni042F" unicode="&#x42f;" horiz-adv-x="637" 
d="M550 700v-700h-60v277h-94l-277 -277h-76l278 277h-61q-56 0 -102 27t-73 75.5t-27 108.5q0 61 27 109.5t73 75.5t102 27h290zM490 333v310h-230q-39 0 -71.5 -19.5t-51.5 -54.5t-19 -81q0 -45 19 -80.5t51.5 -55t71.5 -19.5h230z" />
    <glyph glyph-name="uni0430" unicode="&#x430;" horiz-adv-x="527" 
d="M101.5 32q-46.5 42 -46.5 110q0 72 48.5 113.5t144.5 41.5h147v25q0 64 -35 99.5t-97 35.5q-60 0 -96 -29.5t-40 -72.5h-57q3 42 26 77.5t66 56.5t101 21q87 0 138 -49.5t51 -138.5v-322h-49l-8 77h-5q-20 -38 -64.5 -62.5t-102.5 -24.5q-75 0 -121.5 42zM350 92
q45 49 45 128v23h-147q-68 0 -102 -27t-34 -74q0 -45 29.5 -72t81.5 -27q82 0 127 49z" />
    <glyph glyph-name="uni0431" unicode="&#x431;" horiz-adv-x="548" 
d="M159 21q-52 31 -81.5 87.5t-29.5 131.5v27q0 132 30.5 210.5t103.5 120.5q32 19 71.5 29.5t96.5 16.5q41 4 57.5 23.5t17.5 57.5h50q-1 -63 -29.5 -94t-89.5 -38q-50 -6 -84.5 -14.5t-61.5 -25.5q-43 -26 -69.5 -70.5t-33.5 -114.5h5q31 48 75 70t96 22q62 0 112.5 -30
t80 -83.5t29.5 -119.5q0 -68 -29.5 -122t-81.5 -84.5t-117 -30.5q-66 0 -118 31zM364 66.5q39 23.5 61.5 65.5t22.5 95t-22.5 94.5t-61.5 65t-87 23.5t-87.5 -23.5t-62 -65t-22.5 -94.5t22.5 -95t62 -65.5t87.5 -23.5t87 23.5z" />
    <glyph glyph-name="uni0432" unicode="&#x432;" horiz-adv-x="517" 
d="M77 0v500h250q61 0 98.5 -37.5t37.5 -99.5q0 -38 -18.5 -66t-44.5 -42v-5q29 -10 51 -40.5t22 -71.5q0 -60 -39 -99t-97 -39h-260zM320 277q36 0 61.5 24.5t25.5 61.5q0 38 -25.5 62.5t-61.5 24.5h-187v-173h187zM330 50q36 0 61.5 24.5t25.5 63.5t-25.5 64t-61.5 25
h-197v-177h197z" />
    <glyph glyph-name="uni0433" unicode="&#x433;" horiz-adv-x="403" 
d="M133 0h-56v500h306v-53h-250v-447z" />
    <glyph glyph-name="uni0434" unicode="&#x434;" horiz-adv-x="530" 
d="M3 -120v173h8q35 0 52.5 19t21.5 60l32 368h320v-447h71v-173h-56v120h-392v-120h-57zM380 53v394h-211l-27 -315q-3 -32 -13 -53t-21 -26h272z" />
    <glyph glyph-name="uni0435" unicode="&#x435;" horiz-adv-x="547" 
d="M159 23q-54 33 -85 92t-31 135t31 135t85 92t119 33q64 0 115 -31t80.5 -86t29.5 -123q0 -23 -3 -47h-400q4 -54 28.5 -95t64 -63t85.5 -22q51 0 91 25.5t59 71.5h60q-25 -72 -79.5 -111t-130.5 -39q-65 0 -119 33zM447 277q-2 52 -24.5 93t-60 64t-83.5 23
q-48 0 -87.5 -23t-63.5 -64t-28 -93h347z" />
    <glyph glyph-name="uni0436" unicode="&#x436;" horiz-adv-x="633" 
d="M73 0h-70l227 255l-213 245h69l202 -235v235h57v-235l202 235h70l-214 -245l227 -255h-69l-216 245v-245h-57v245z" />
    <glyph glyph-name="uni0437" unicode="&#x437;" horiz-adv-x="455" 
d="M126 11.5q-43 21.5 -67 59.5t-24 84h57q0 -47 36.5 -79.5t94.5 -32.5q65 0 98.5 25.5t33.5 68.5q0 42 -33 66t-92 24h-47v50h47q55 0 85 25.5t30 65.5q0 38 -31 63.5t-91 25.5q-54 0 -87.5 -30t-33.5 -77h-57q0 46 22.5 82.5t63 57t92.5 20.5q57 0 97 -19t61 -51.5
t21 -71.5q0 -42 -24.5 -71.5t-57.5 -41.5v-5q39 -10 65.5 -39.5t26.5 -74.5q0 -66 -50.5 -106t-138.5 -40q-54 0 -97 21.5z" />
    <glyph glyph-name="uni0438" unicode="&#x438;" horiz-adv-x="555" 
d="M180 0h-103v500h56v-433h20l222 433h103v-500h-56v433h-20z" />
    <glyph glyph-name="uni0439" unicode="&#x439;" horiz-adv-x="555" 
d="M180 0h-103v500h56v-433h20l222 433h103v-500h-56v433h-20zM187 621.5q-37 33.5 -41 85.5h50q4 -35 26 -55t57 -20t57.5 20t26.5 55h50q-4 -53 -41.5 -86t-92.5 -33t-92 33.5z" />
    <glyph glyph-name="uni043A" unicode="&#x43a;" horiz-adv-x="468" 
d="M133 0h-56v500h56v-231l248 231h74l-263 -245l273 -255h-74l-258 241v-241z" />
    <glyph glyph-name="uni043B" unicode="&#x43b;" horiz-adv-x="538" 
d="M10 -5v57h27q66 0 73 78l32 370h320v-500h-57v447h-211l-27 -317q-7 -69 -39 -102t-91 -33h-27z" />
    <glyph glyph-name="uni043C" unicode="&#x43c;" horiz-adv-x="710" 
d="M133 0h-56v500h111l157 -437h20l157 437h111v-500h-56v433h-20l-157 -433h-90l-157 433h-20v-433z" />
    <glyph glyph-name="uni043D" unicode="&#x43d;" horiz-adv-x="555" 
d="M133 0h-56v500h56v-223h289v223h56v-500h-56v223h-289v-223z" />
    <glyph glyph-name="uni043E" unicode="&#x43e;" 
d="M158.5 22.5q-53.5 32.5 -84.5 91.5t-31 136t31 136t84.5 91.5t118.5 32.5t118 -32.5t84 -91.5t31 -136t-31 -136t-84 -91.5t-118 -32.5t-118.5 32.5zM365.5 69q40.5 26 64 73t23.5 108t-23.5 108t-64 73t-88.5 26q-49 0 -89.5 -26t-64 -73t-23.5 -108t23.5 -108t64 -73
t89.5 -26q48 0 88.5 26z" />
    <glyph glyph-name="uni043F" unicode="&#x43f;" horiz-adv-x="555" 
d="M133 0h-56v500h401v-500h-56v447h-289v-447z" />
    <glyph glyph-name="uni0440" unicode="&#x440;" horiz-adv-x="577" 
d="M77 -200v700h48l8 -87h5q66 97 170 97q63 0 114.5 -32.5t81 -91.5t29.5 -136t-29.5 -136t-81 -91.5t-114.5 -32.5q-104 0 -170 97h-5v-287h-56zM390.5 68.5q39.5 25.5 63 72.5t23.5 109t-23.5 109t-63 72.5t-85.5 25.5q-45 0 -84.5 -25.5t-63.5 -73t-24 -108.5t24 -108.5
t63.5 -73t84.5 -25.5q46 0 85.5 25.5z" />
    <glyph glyph-name="uni0441" unicode="&#x441;" horiz-adv-x="530" 
d="M158.5 22.5q-53.5 32.5 -84.5 91.5t-31 136t31 136t84.5 91.5t118.5 32.5q80 0 138 -46t77 -124h-57q-16 56 -58.5 86.5t-99.5 30.5q-49 0 -89.5 -26t-64 -73t-23.5 -108t23.5 -108t64 -73t89.5 -26q57 0 99.5 31.5t58.5 90.5h57q-19 -82 -77 -128.5t-138 -46.5
q-65 0 -118.5 32.5z" />
    <glyph glyph-name="uni0442" unicode="&#x442;" horiz-adv-x="437" 
d="M247 0h-57v447h-173v53h403v-53h-173v-447z" />
    <glyph glyph-name="uni0443" unicode="&#x443;" horiz-adv-x="477" 
d="M403 500h60l-226 -635q-12 -35 -32.5 -50t-57.5 -15h-84v53h80q19 0 28.5 9t16.5 28l27 78l-202 532h61l161 -432h20z" />
    <glyph glyph-name="uni0444" unicode="&#x444;" horiz-adv-x="680" 
d="M388 500q75 0 132.5 -31t89.5 -88t32 -131t-32 -131t-89.5 -88t-132.5 -31h-20v-200h-56v200h-20q-75 0 -132.5 31t-89.5 88t-32 131t32 131t89.5 88t132.5 31h20v200h56v-200h20zM148 106.5q53 -53.5 144 -53.5h20v394h-20q-91 0 -144 -53.5t-53 -143.5t53 -143.5z
M388 53q91 0 144 53.5t53 143.5t-53 143.5t-144 53.5h-20v-394h20z" />
    <glyph glyph-name="uni0445" unicode="&#x445;" horiz-adv-x="463" 
d="M81 0h-68l169 255l-164 245h68l134 -205h23l134 205h68l-163 -245l168 -255h-68l-139 215h-22z" />
    <glyph glyph-name="uni0446" unicode="&#x446;" horiz-adv-x="562" 
d="M540 -120h-57v120h-406v500h56v-447h279v447h56v-447h72v-173z" />
    <glyph glyph-name="uni0447" unicode="&#x447;" horiz-adv-x="520" 
d="M387 205q-64 -45 -149 -45q-90 0 -135.5 47.5t-45.5 137.5v155h56v-155q0 -65 34 -98.5t98 -33.5q43 0 76.5 12.5t65.5 37.5v237h56v-500h-56v205z" />
    <glyph glyph-name="uni0448" unicode="&#x448;" horiz-adv-x="773" 
d="M697 0h-620v500h56v-447h225v447h57v-447h225v447h57v-500z" />
    <glyph glyph-name="uni0449" unicode="&#x449;" horiz-adv-x="790" 
d="M768 -120h-56v120h-635v500h56v-447h225v447h57v-447h225v447h57v-447h71v-173z" />
    <glyph glyph-name="uni044A" unicode="&#x44a;" 
d="M138 0v447h-125v53h182v-177h158q74 0 120.5 -45t46.5 -116t-46.5 -116.5t-120.5 -45.5h-215zM353 53q49 0 79.5 30.5t30.5 78.5q0 47 -30.5 77.5t-79.5 30.5h-158v-217h158z" />
    <glyph glyph-name="uni044B" unicode="&#x44b;" horiz-adv-x="658" 
d="M77 0v500h56v-177h144q73 0 119.5 -45t46.5 -116t-46.5 -116.5t-119.5 -45.5h-200zM582 0h-57v500h57v-500zM277 53q49 0 79.5 30.5t30.5 78.5q0 47 -30.5 77.5t-79.5 30.5h-144v-217h144z" />
    <glyph glyph-name="uni044C" unicode="&#x44c;" horiz-adv-x="497" 
d="M77 0v500h56v-177h164q73 0 119.5 -45t46.5 -116t-46.5 -116.5t-119.5 -45.5h-220zM297 53q49 0 79.5 30.5t30.5 78.5q0 47 -30.5 77.5t-79.5 30.5h-164v-217h164z" />
    <glyph glyph-name="uni044D" unicode="&#x44d;" horiz-adv-x="530" 
d="M115.5 35.5q-57.5 45.5 -77.5 124.5h57q16 -55 59.5 -86t98.5 -31q71 0 120.5 49.5t56.5 130.5h-235v54h235q-7 81 -56.5 130.5t-120.5 49.5q-55 0 -98.5 -30t-59.5 -82h-57q20 75 77.5 120t137.5 45q66 0 119 -33t83.5 -92t30.5 -135t-30.5 -135t-83.5 -92t-119 -33
q-80 0 -137.5 45.5z" />
    <glyph glyph-name="uni044E" unicode="&#x44e;" horiz-adv-x="710" 
d="M335.5 19q-48.5 29 -79 81.5t-36.5 122.5h-87v-223h-56v500h56v-223h87q6 69 36.5 122t79 82t107.5 29q62 0 113.5 -32.5t81 -91.5t29.5 -136t-29.5 -136t-81 -91.5t-113.5 -32.5q-59 0 -107.5 29zM526.5 68.5q38.5 25.5 61 72.5t22.5 109t-22.5 109t-61 72.5t-83.5 25.5
q-46 0 -83.5 -26t-60 -73t-22.5 -108t22.5 -108t60 -73t83.5 -26q45 0 83.5 25.5z" />
    <glyph glyph-name="uni044F" unicode="&#x44f;" horiz-adv-x="507" 
d="M430 500v-500h-57v187h-81l-187 -187h-72l187 187h-15q-71 0 -116.5 44t-45.5 112q0 69 45.5 113t116.5 44h225zM373 240v207h-168q-45 0 -75 -29t-30 -75q0 -45 30 -74t75 -29h168z" />
    <glyph glyph-name="uni0450" unicode="&#x450;" horiz-adv-x="547" 
d="M159 23q-54 33 -85 92t-31 135t31 135t85 92t119 33q64 0 115 -31t80.5 -86t29.5 -123q0 -23 -3 -47h-400q4 -54 28.5 -95t64 -63t85.5 -22q51 0 91 25.5t59 71.5h60q-25 -72 -79.5 -111t-130.5 -39q-65 0 -119 33zM447 277q-2 52 -24.5 93t-60 64t-83.5 23
q-48 0 -87.5 -23t-63.5 -64t-28 -93h347zM307 583h-54l-103 130h68z" />
    <glyph glyph-name="uni0451" unicode="&#x451;" horiz-adv-x="547" 
d="M159 23q-54 33 -85 92t-31 135t31 135t85 92t119 33q64 0 115 -31t80.5 -86t29.5 -123q0 -23 -3 -47h-400q4 -54 28.5 -95t64 -63t85.5 -22q51 0 91 25.5t59 71.5h60q-25 -72 -79.5 -111t-130.5 -39q-65 0 -119 33zM447 277q-2 52 -24.5 93t-60 64t-83.5 23
q-48 0 -87.5 -23t-63.5 -64t-28 -93h347zM222 620h-67v67h67v-67zM395 620h-67v67h67v-67z" />
    <glyph glyph-name="uni0452" unicode="&#x452;" horiz-adv-x="582" 
d="M307 -200v53h51q45 0 69.5 24.5t24.5 69.5v296q0 45 -19.5 81t-53 56t-74.5 20q-43 0 -79 -21t-57 -57t-21 -79v-243h-56v560h-89v53h89v87h56v-87h172v-53h-172v-187h5q19 31 62 55.5t97 24.5q56 0 101 -25.5t70 -73.5t25 -111v-296q0 -68 -40 -107.5t-110 -39.5h-51z
" />
    <glyph glyph-name="uni0453" unicode="&#x453;" horiz-adv-x="403" 
d="M133 0h-56v500h306v-53h-250v-447zM256 583h-53l88 130h69z" />
    <glyph glyph-name="uni0454" unicode="&#x454;" horiz-adv-x="530" 
d="M157.5 23q-53.5 33 -84 92t-30.5 135t30.5 135t84 92t119.5 33q79 0 137 -44.5t77 -120.5h-56q-17 52 -60.5 82t-97.5 30q-46 0 -85 -22t-63.5 -63t-28.5 -95h235v-54h-235q4 -54 28.5 -95t63.5 -63t85 -22q55 0 98.5 31t59.5 86h56q-19 -79 -76.5 -124.5t-137.5 -45.5
q-66 0 -119.5 33z" />
    <glyph glyph-name="uni0455" unicode="&#x455;" horiz-adv-x="458" 
d="M126 11.5q-44 21.5 -67.5 57t-23.5 76.5h57q0 -42 37 -72t99 -30q63 0 97.5 25t34.5 64q0 70 -93 86l-87 15q-135 23 -135 135q0 62 46.5 102t131.5 40q56 0 99 -21.5t66.5 -57t23.5 -76.5h-57q0 43 -36 72.5t-96 29.5q-58 0 -89.5 -25t-31.5 -64q0 -32 20.5 -52.5
t67.5 -28.5l87 -15q140 -25 140 -140q0 -62 -49.5 -102t-139.5 -40q-58 0 -102 21.5z" />
    <glyph glyph-name="uni0456" unicode="&#x456;" horiz-adv-x="210" 
d="M133 0h-56v500h56v-500zM139 620h-67v67h67v-67z" />
    <glyph glyph-name="uni0457" unicode="&#x457;" horiz-adv-x="210" 
d="M133 0h-56v500h56v-500zM62 620h-67v67h67v-67zM215 620h-67v67h67v-67z" />
    <glyph glyph-name="uni0458" unicode="&#x458;" horiz-adv-x="210" 
d="M-37 -200v53h75q19 0 29 10t10 29v608h56v-618q0 -38 -22.5 -60t-62.5 -22h-85zM139 620h-67v67h67v-67z" />
    <glyph glyph-name="uni0459" unicode="&#x459;" horiz-adv-x="783" 
d="M10 -5v57h27q66 0 73 78l32 370h310v-203h145q67 0 110 -41t43 -108t-43 -107.5t-110 -40.5h-202v447h-201l-27 -317q-7 -69 -39 -102t-91 -33h-27zM597 53q42 0 69 26t27 69t-27 69t-69 26h-145v-190h145z" />
    <glyph glyph-name="uni045A" unicode="&#x45a;" horiz-adv-x="790" 
d="M77 0v500h56v-203h269v203h56v-203h145q67 0 110.5 -41t43.5 -108t-43 -107.5t-111 -40.5h-201v243h-269v-243h-56zM603 53q43 0 70 26t27 69q0 44 -27 69.5t-70 25.5h-145v-190h145z" />
    <glyph glyph-name="uni045B" unicode="&#x45b;" horiz-adv-x="583" 
d="M92 0v560h-89v53h89v87h56v-87h172v-53h-172v-187h5q19 31 62 55.5t97 24.5q56 0 101 -25.5t70 -73.5t25 -111v-243h-56v243q0 45 -19.5 81t-53 56t-74.5 20q-43 0 -79 -21t-57 -57t-21 -79v-243h-56z" />
    <glyph glyph-name="uni045C" unicode="&#x45c;" horiz-adv-x="468" 
d="M133 0h-56v500h56v-231l248 231h74l-263 -245l273 -255h-74l-258 241v-241zM275 583h-53l88 130h69z" />
    <glyph glyph-name="uni045D" unicode="&#x45d;" horiz-adv-x="555" 
d="M180 0h-103v500h56v-433h20l222 433h103v-500h-56v433h-20zM311 583h-54l-103 130h68z" />
    <glyph glyph-name="uni045E" unicode="&#x45e;" horiz-adv-x="477" 
d="M403 500h60l-226 -635q-12 -35 -32.5 -50t-57.5 -15h-84v53h80q19 0 28.5 9t16.5 28l27 78l-202 532h61l161 -432h20zM153 621.5q-37 33.5 -41 85.5h50q4 -35 26 -55t57 -20t57.5 20t26.5 55h50q-4 -53 -41.5 -86t-92.5 -33t-92 33.5z" />
    <glyph glyph-name="uni045F" unicode="&#x45f;" horiz-adv-x="547" 
d="M302 -120h-57v120h-168v500h56v-447h280v447h57v-500h-168v-120z" />
    <glyph glyph-name="uni0462" unicode="&#x462;" horiz-adv-x="670" 
d="M150 0v545h-150v57h150v98h60v-98h190v-57h-190v-142h212q56 0 102 -27t72 -73t26 -101t-26 -101.5t-72 -73.5t-102 -27h-272zM422 57q60 0 100 41.5t40 103.5t-40 103.5t-100 41.5h-212v-290h212z" />
    <glyph glyph-name="uni0463" unicode="&#x463;" horiz-adv-x="533" 
d="M118 0v460h-115v53h115v187h57v-187h145v-53h-145v-137h158q74 0 120.5 -45t46.5 -116t-46.5 -116.5t-120.5 -45.5h-215zM333 53q49 0 79.5 30.5t30.5 78.5q0 47 -30.5 77.5t-79.5 30.5h-158v-217h158z" />
    <glyph glyph-name="uni046A" unicode="&#x46a;" horiz-adv-x="770" 
d="M47 60q0 95 34 167.5t95 115.5t141 54l-250 246v57h636v-57l-250 -246q80 -11 141 -54t95 -115.5t34 -167.5v-60h-60v60q0 88 -32 151.5t-88 97t-128 34.5v-343h-60v343q-72 -1 -128 -34.5t-88 -97t-32 -151.5v-60h-60v60zM143 643l242 -239l242 239h-484z" />
    <glyph glyph-name="uni046B" unicode="&#x46b;" horiz-adv-x="603" 
d="M33 0q0 113 56 185t148 85l-174 177v53h477v-53l-174 -177q60 -9 106 -44t72 -93t26 -133h-57q0 67 -23.5 116.5t-65 76t-94.5 27.5v-220h-57v220q-53 -1 -94.5 -27.5t-65 -76t-23.5 -116.5h-57zM132 447l169 -174l170 174h-339z" />
    <glyph glyph-name="uni0472" unicode="&#x472;" horiz-adv-x="767" 
d="M218 35.5q-75 45.5 -119 127.5t-44 187t44 187t119 127.5t165 45.5q91 0 166 -45.5t119 -127.5t44 -187t-44 -187t-119 -127.5t-166 -45.5q-90 0 -165 45.5zM650 380q-6 81 -43 143t-95.5 96t-128.5 34t-129 -34.5t-95.5 -97.5t-42.5 -145q52 26 126 26q33 0 65.5 -6
t80.5 -18q43 -11 75 -17t62 -6q72 0 125 25zM512.5 81.5q59.5 34.5 96 97.5t41.5 145q-18 -10 -49.5 -18t-75.5 -8q-33 0 -66.5 6t-80.5 18q-43 11 -74.5 17t-61.5 6q-73 0 -126 -25q6 -81 43 -143t95.5 -96t128.5 -34t129.5 34.5z" />
    <glyph glyph-name="uni0473" unicode="&#x473;" 
d="M158.5 22.5q-53.5 32.5 -84.5 91.5t-31 136t31 136t84.5 91.5t118.5 32.5t118 -32.5t84 -91.5t31 -136t-31 -136t-84 -91.5t-118 -32.5t-118.5 32.5zM188 287q35 0 89 -10t88 -10q53 0 87 15q-9 79 -58.5 127t-116.5 48q-46 0 -84.5 -23t-63 -65t-28.5 -98q37 16 87 16z
M361 66q39 23 63 65.5t28 97.5q-37 -16 -87 -16q-34 0 -88 10t-89 10q-44 0 -87 -15q10 -79 59 -127t117 -48q45 0 84 23z" />
    <glyph glyph-name="uni0474" unicode="&#x474;" horiz-adv-x="658" 
d="M268 0l-253 700h64l227 -637h21l179 500q27 77 57 108.5t73 31.5q24 0 39 -9v-57q-5 4 -13.5 7t-18.5 3q-22 0 -39.5 -19t-33.5 -65l-205 -563h-97z" />
    <glyph glyph-name="uni0475" unicode="&#x475;" horiz-adv-x="510" 
d="M198 0l-185 500h61l162 -440h18l122 328q23 63 48.5 89t61.5 26q26 0 35 -9v-52q-8 8 -28 8q-18 0 -31 -14t-26 -48l-144 -388h-94z" />
    <glyph glyph-name="uni048A" unicode="&#x48a;" horiz-adv-x="723" 
d="M263 816.5q-37 33.5 -41 85.5h50q4 -35 26 -55t57 -20t57.5 20t26.5 55h50q-4 -53 -41.5 -86t-92.5 -33t-92 33.5zM655 -143h-44l30 143h-78v630h-19l-351 -630h-106v700h60v-630h19l351 630h106v-643h97v-11z" />
    <glyph glyph-name="uni048B" unicode="&#x48b;" horiz-adv-x="568" 
d="M187 621.5q-37 33.5 -41 85.5h50q4 -35 26 -55t57 -20t57.5 20t26.5 55h50q-4 -53 -41.5 -86t-92.5 -33t-92 33.5zM513 -120h-41l24 120h-74v433h-20l-222 -433h-103v500h56v-433h20l222 433h103v-447h90v-11z" />
    <glyph glyph-name="uni048C" unicode="&#x48c;" horiz-adv-x="670" 
d="M150 0v545h-150v57h150v98h60v-98h190v-57h-190v-142h212q56 0 102 -27t72 -73t26 -101t-26 -101.5t-72 -73.5t-102 -27h-272zM422 57q60 0 100 41.5t40 103.5t-40 103.5t-100 41.5h-212v-290h212z" />
    <glyph glyph-name="uni048D" unicode="&#x48d;" horiz-adv-x="533" 
d="M118 0v460h-115v53h115v187h57v-187h145v-53h-145v-137h158q74 0 120.5 -45t46.5 -116t-46.5 -116.5t-120.5 -45.5h-215zM333 53q49 0 79.5 30.5t30.5 78.5q0 47 -30.5 77.5t-79.5 30.5h-158v-217h158z" />
    <glyph glyph-name="uni048E" unicode="&#x48e;" horiz-adv-x="633" 
d="M557 391.5q-21 -44.5 -59 -72.5l45 -64l-46 -30l-48 68q-32 -13 -72 -13h-230v-280h-60v700h290q57 0 103 -27t72 -74.5t26 -108.5q0 -54 -21 -98.5zM377 337q18 0 38 5l-50 70l46 30l53 -76q25 21 39.5 52.5t14.5 71.5q0 69 -40 111t-101 42h-230v-306h230z" />
    <glyph glyph-name="uni048F" unicode="&#x48f;" horiz-adv-x="577" 
d="M515.5 142q-17.5 -49 -49.5 -83l51 -72l-42 -27l-47 66q-53 -36 -120 -36q-104 0 -170 97h-5v-287h-56v700h48l8 -87h5q66 97 170 97q63 0 114.5 -32.5t81 -91.5t29.5 -136q0 -59 -17.5 -108zM396 72l-53 75l42 27l47 -67q45 56 45 143q0 62 -23.5 109t-63 72.5
t-85.5 25.5q-45 0 -84.5 -25.5t-63.5 -73t-24 -108.5t24 -108.5t63.5 -73t84.5 -25.5q50 0 91 29z" />
    <glyph glyph-name="uni0490" unicode="&#x490;" horiz-adv-x="535" 
d="M147 0h-60v700h370v140h56v-197h-366v-643z" />
    <glyph glyph-name="uni0491" unicode="&#x491;" horiz-adv-x="413" 
d="M133 0h-56v500h263v120h53v-173h-260v-447z" />
    <glyph glyph-name="uni0492" unicode="&#x492;" horiz-adv-x="542" 
d="M163 0h-60v327h-86v56h86v317h417v-57h-357v-260h195v-56h-195v-327z" />
    <glyph glyph-name="uni0493" unicode="&#x493;" horiz-adv-x="412" 
d="M142 0h-57v223h-73v54h73v223h307v-53h-250v-170h178v-54h-178v-223z" />
    <glyph glyph-name="uni0494" unicode="&#x494;" horiz-adv-x="608" 
d="M313 -57q83 0 133.5 52.5t50.5 141.5q0 88 -51.5 140.5t-138.5 52.5q-49 0 -92 -15t-68 -33v-282h-60v700h426v-57h-366v-298q23 16 67.5 29t95.5 13q74 0 130 -31t86.5 -87.5t30.5 -131.5t-30.5 -131.5t-85.5 -87.5t-128 -31v56z" />
    <glyph glyph-name="uni0495" unicode="&#x495;" horiz-adv-x="493" 
d="M257 -147q66 3 106 51t40 134q0 83 -42.5 131.5t-110.5 48.5q-34 0 -65 -11.5t-52 -26.5v-180h-56v500h306v-53h-250v-210q18 13 51 24t69 11q60 0 107 -29t73.5 -82t26.5 -123q0 -72 -26 -126t-72 -83t-105 -29v53z" />
    <glyph glyph-name="uni0496" unicode="&#x496;" horiz-adv-x="805" 
d="M805 -143h-60v143h-29l-289 345v-345h-60v345l-289 -345h-73l299 355l-279 345h72l270 -332v332h60v-332l269 332h72l-279 -345l253 -298h63v-200z" />
    <glyph glyph-name="uni0497" unicode="&#x497;" horiz-adv-x="643" 
d="M643 -120h-56v120h-26l-216 245v-245h-57v245l-215 -245h-70l227 255l-213 245h69l202 -235v235h57v-235l202 235h70l-214 -245l183 -202h57v-173z" />
    <glyph glyph-name="uni0498" unicode="&#x498;" horiz-adv-x="593" 
d="M510.5 95q-26.5 -43 -76 -71t-116.5 -33v-134h-60v134q-67 5 -116.5 33t-75.5 71t-26 95h60q0 -39 22.5 -71.5t65 -52t100.5 -19.5q57 0 100 19.5t66 52t23 71.5q0 36 -20 66.5t-56.5 48.5t-82.5 18h-75v57h75q41 0 74 17.5t51.5 47t18.5 65.5q0 63 -47.5 103t-126.5 40
q-51 0 -90.5 -19.5t-61 -52t-21.5 -71.5h-60q0 55 28.5 101t81 72.5t123.5 26.5q70 0 123 -26.5t82 -72.5t29 -101q0 -59 -34 -99.5t-78 -56.5v-5q50 -14 88.5 -55.5t38.5 -103.5q0 -52 -26.5 -95z" />
    <glyph glyph-name="uni0499" unicode="&#x499;" horiz-adv-x="455" 
d="M370 38q-42 -39 -115 -46v-112h-57v111q-72 7 -117.5 53t-45.5 111h57q0 -47 36.5 -79.5t94.5 -32.5q65 0 98.5 25.5t33.5 68.5q0 42 -33 66t-92 24h-47v50h47q55 0 85 25.5t30 65.5q0 38 -31 63.5t-91 25.5q-54 0 -87.5 -30t-33.5 -77h-57q0 46 22.5 82.5t63 57
t92.5 20.5q57 0 97 -19t61 -51.5t21 -71.5q0 -42 -24.5 -71.5t-57.5 -41.5v-5q39 -10 65.5 -39.5t26.5 -74.5q0 -59 -42 -98z" />
    <glyph glyph-name="uni049A" unicode="&#x49a;" horiz-adv-x="570" 
d="M570 -143h-60v143h-25l-338 341v-341h-60v700h60v-332l318 332h77l-334 -345l300 -298h62v-200z" />
    <glyph glyph-name="uni049B" unicode="&#x49b;" horiz-adv-x="468" 
d="M468 -120h-56v120h-21l-258 241v-241h-56v500h56v-231l249 231h73l-263 -245l219 -202h57v-173z" />
    <glyph glyph-name="uni049C" unicode="&#x49c;" horiz-adv-x="582" 
d="M147 0h-60v700h60v-318h56v115h57v-115h42l208 318h72l-230 -345l250 -355h-72l-228 325h-42v-115h-57v115h-56v-325z" />
    <glyph glyph-name="uni049D" unicode="&#x49d;" horiz-adv-x="492" 
d="M133 0h-56v500h56v-218h43v86h50v-86h27l157 218h68l-176 -245l186 -255h-68l-167 228h-27v-86h-50v86h-43v-228z" />
    <glyph glyph-name="uni049E" unicode="&#x49e;" horiz-adv-x="557" 
d="M162 0h-60v555h-95v57h95v88h60v-88h80v-57h-80v-187l318 332h77l-334 -345l354 -355h-77l-338 341v-341z" />
    <glyph glyph-name="uni049F" unicode="&#x49f;" horiz-adv-x="477" 
d="M142 0h-57v558h-82v54h82v88h57v-88h116v-54h-116v-289l248 231h73l-263 -245l273 -255h-73l-258 241v-241z" />
    <glyph glyph-name="uni04A0" unicode="&#x4a0;" horiz-adv-x="570" 
d="M175 0h-60v643h-108v57h168v-332l319 332h76l-333 -345l353 -355h-76l-339 341v-341z" />
    <glyph glyph-name="uni04A1" unicode="&#x4a1;" horiz-adv-x="498" 
d="M163 0h-56v447h-104v53h160v-231l249 231h73l-263 -245l273 -255h-73l-259 241v-241z" />
    <glyph glyph-name="uni04A2" unicode="&#x4a2;" horiz-adv-x="735" 
d="M700 -143h-60v143h-77v327h-416v-327h-60v700h60v-317h416v317h60v-643h77v-200z" />
    <glyph glyph-name="uni04A3" unicode="&#x4a3;" horiz-adv-x="572" 
d="M550 -120h-57v120h-71v223h-289v-223h-56v500h56v-223h289v223h56v-447h72v-173z" />
    <glyph glyph-name="uni04A4" unicode="&#x4a4;" horiz-adv-x="972" 
d="M147 0h-60v700h60v-317h396v317h407v-57h-347v-643h-60v327h-396v-327z" />
    <glyph glyph-name="uni04A5" unicode="&#x4a5;" horiz-adv-x="718" 
d="M133 0h-56v500h56v-223h274v223h291v-53h-235v-447h-56v223h-274v-223z" />
    <glyph glyph-name="uni04A6" unicode="&#x4a6;" horiz-adv-x="1028" 
d="M740 -57q82 0 132.5 52.5t50.5 141.5t-51 141t-139 52q-48 0 -89.5 -14t-70.5 -34v-282h-60v643h-366v-643h-60v700h486v-355q26 17 71.5 29.5t92.5 12.5q74 0 130 -31t86 -87.5t30 -131.5t-30 -131.5t-85 -87.5t-128 -31v56z" />
    <glyph glyph-name="uni04A7" unicode="&#x4a7;" horiz-adv-x="793" 
d="M562 -147q65 0 105.5 49t40.5 136q0 83 -42.5 131.5t-110.5 48.5q-33 0 -63.5 -11t-53.5 -27v-180h-56v447h-249v-447h-56v500h361v-263q20 14 52.5 24.5t67.5 10.5q60 0 107 -29t73.5 -82t26.5 -123q0 -72 -26.5 -126t-72.5 -83t-104 -29v53z" />
    <glyph glyph-name="uni04A8" unicode="&#x4a8;" horiz-adv-x="783" 
d="M214.5 35.5q-73.5 45.5 -116.5 127.5t-43 187t42.5 187t114 127.5t156.5 45.5v-57q-67 0 -125 -38t-93 -107.5t-35 -157.5q0 -89 35.5 -158t95.5 -107t131 -38q33 0 73 10q-73 48 -112.5 126t-39.5 177q0 86 28.5 149.5t77.5 97t109 33.5q57 0 106 -33.5t79 -97.5
t30 -149q0 -95 -39 -173.5t-105 -127.5q43 -12 99 -12v-57q-96 0 -164 30q-65 -30 -142 -30q-89 0 -162.5 45.5zM627 196q41 73 41 164q0 72 -21 122.5t-56.5 75.5t-77.5 25t-77 -25t-56.5 -75.5t-21.5 -122.5q0 -94 41.5 -165.5t117.5 -110.5q69 39 110 112z" />
    <glyph glyph-name="uni04A9" unicode="&#x4a9;" 
d="M158.5 22.5q-53.5 32.5 -84.5 91.5t-31 136q0 76 30.5 135.5t82.5 92t114 32.5v-53q-45 0 -84 -26t-62.5 -73t-23.5 -108t23.5 -108t64 -73t89.5 -26q21 0 45 8q-42 36 -65.5 89.5t-23.5 119.5q0 58 18.5 100t50.5 63.5t70 21.5t69.5 -21.5t50 -63.5t18.5 -100
q0 -64 -22 -117t-61 -89q31 -11 63 -11v-53q-61 0 -114 25q-48 -25 -99 -25q-65 0 -118.5 32.5zM431.5 155.5q21.5 46.5 21.5 104.5q0 62 -24 97t-57 35q-34 0 -58 -34.5t-24 -97.5q0 -58 22 -105t62 -75q36 29 57.5 75.5z" />
    <glyph glyph-name="uni04AA" unicode="&#x4aa;" horiz-adv-x="733" 
d="M536.5 95q64.5 48 91.5 135h64q-28 -104 -102.5 -167.5t-175.5 -71.5v-134h-60v134q-84 8 -152 55t-107.5 126t-39.5 178q0 105 44 187t119.5 127.5t166.5 45.5q111 0 194 -63t113 -172h-64q-27 84 -91.5 131t-151.5 47q-74 0 -136 -38t-98 -107t-36 -158t36 -158
t98 -107t136 -38q87 0 151.5 48z" />
    <glyph glyph-name="uni04AB" unicode="&#x4ab;" horiz-adv-x="530" 
d="M376.5 74.5q42.5 31.5 58.5 90.5h57q-17 -74 -67 -119.5t-120 -53.5v-112h-57v112q-58 7 -104.5 41t-73.5 90t-27 127q0 77 31 136t84.5 91.5t118.5 32.5q80 0 138 -46t77 -124h-57q-16 56 -58.5 86.5t-99.5 30.5q-49 0 -89.5 -26t-64 -73t-23.5 -108t23.5 -108t64 -73
t89.5 -26q57 0 99.5 31.5z" />
    <glyph glyph-name="uni04AC" unicode="&#x4ac;" horiz-adv-x="587" 
d="M400 -143h-60v143h-77v643h-238v57h537v-57h-239v-586h77v-200z" />
    <glyph glyph-name="uni04AD" unicode="&#x4ad;" horiz-adv-x="437" 
d="M318 -120h-56v120h-72v447h-173v53h403v-53h-173v-394h71v-173z" />
    <glyph glyph-name="uni04AE" unicode="&#x4ae;" horiz-adv-x="587" 
d="M323 0h-60v262l-256 438h64l212 -365h20l213 365h64l-257 -438v-262z" />
    <glyph glyph-name="uni04AF" unicode="&#x4af;" horiz-adv-x="487" 
d="M272 -200h-57v200h-17l-185 500h61l162 -437h15l162 437h60l-185 -500h-16v-200z" />
    <glyph glyph-name="uni04B0" unicode="&#x4b0;" horiz-adv-x="587" 
d="M323 0h-60v262h-148v56h115l-223 382h64l212 -365h20l213 365h64l-223 -382h115v-56h-149v-262z" />
    <glyph glyph-name="uni04B1" unicode="&#x4b1;" horiz-adv-x="487" 
d="M272 -200h-57v200h-105v53h69l-166 447h61l162 -437h15l162 437h60l-165 -447h69v-53h-105v-200z" />
    <glyph glyph-name="uni04B2" unicode="&#x4b2;" horiz-adv-x="623" 
d="M623 -143h-60v143h-33l-212 313h-22l-213 -313h-68l245 360l-230 340h68l198 -293h22l197 293h68l-230 -340l207 -303h63v-200z" />
    <glyph glyph-name="uni04B3" unicode="&#x4b3;" horiz-adv-x="473" 
d="M473 -120h-56v120h-35l-139 215h-22l-140 -215h-68l169 255l-164 245h68l134 -205h23l134 205h68l-163 -245l134 -202h57v-173z" />
    <glyph glyph-name="uni04B4" unicode="&#x4b4;" horiz-adv-x="852" 
d="M817 -143h-60v143h-524v643h-213v57h482v-57h-209v-586h387v643h60v-643h77v-200z" />
    <glyph glyph-name="uni04B5" unicode="&#x4b5;" horiz-adv-x="653" 
d="M632 -120h-57v120h-407v447h-153v53h353v-53h-143v-394h278v447h57v-447h72v-173z" />
    <glyph glyph-name="uni04B6" unicode="&#x4b6;" horiz-adv-x="690" 
d="M595 -143v143h-77v312q-32 -27 -89 -49.5t-119 -22.5q-122 0 -180 59.5t-58 185.5v215h60v-215q0 -97 43 -142.5t135 -45.5q66 0 122.5 23.5t85.5 52.5v327h60v-643h77v-200h-60z" />
    <glyph glyph-name="uni04B7" unicode="&#x4b7;" horiz-adv-x="537" 
d="M458 -120v120h-71v205q-64 -45 -149 -45q-90 0 -135.5 47.5t-45.5 137.5v155h56v-155q0 -65 34 -98.5t98 -33.5q43 0 76.5 12.5t65.5 37.5v237h56v-447h72v-173h-57z" />
    <glyph glyph-name="uni04B8" unicode="&#x4b8;" horiz-adv-x="665" 
d="M518 700h60v-700h-60v312q-25 -22 -69 -41.5t-94 -27.5v-108h-57v105q-116 3 -171 62.5t-55 182.5v215h60v-215q0 -94 40 -139.5t126 -48.5v145h57v-142q52 8 95.5 28.5t67.5 44.5v327z" />
    <glyph glyph-name="uni04B9" unicode="&#x4b9;" horiz-adv-x="520" 
d="M387 500h56v-500h-56v205q-49 -35 -110 -42v-66h-50v63q-84 3 -127 50t-43 135v155h56v-155q0 -60 29 -93t85 -38v99h50v-98q59 8 110 48v237z" />
    <glyph glyph-name="uni04BA" unicode="&#x4ba;" horiz-adv-x="667" 
d="M87 0v700h60v-312q32 27 89 49.5t119 22.5q122 0 180 -59.5t58 -185.5v-215h-60v215q0 97 -43 142.5t-135 45.5q-66 0 -122.5 -23.5t-85.5 -52.5v-327h-60z" />
    <glyph glyph-name="uni04BB" unicode="&#x4bb;" horiz-adv-x="573" 
d="M82 0v700h56v-270h5q20 30 62.5 55t96.5 25q56 0 101 -26t70 -73.5t25 -110.5v-300h-56v300q0 45 -19.5 81t-53 56t-74.5 20q-43 0 -79 -21t-57 -57t-21 -79v-300h-56z" />
    <glyph glyph-name="uni04BC" unicode="&#x4bc;" horiz-adv-x="815" 
d="M760 323h-582q6 -80 42.5 -143t96 -98t130.5 -35q79 0 144 43.5t96 119.5h64q-34 -101 -117 -160.5t-187 -59.5q-88 0 -161 42.5t-117.5 118t-50.5 172.5h-20q-98 0 -98 95v29h57v-20q0 -26 12 -38t38 -12h12q5 95 49 171t117 119t162 43q88 0 159.5 -43t112.5 -121.5
t41 -178.5v-44zM700 377q0 81 -33.5 143.5t-91.5 97.5t-128 35q-71 0 -130.5 -35t-96 -98t-42.5 -143h522z" />
    <glyph glyph-name="uni04BD" unicode="&#x4bd;" horiz-adv-x="607" 
d="M560 223h-400q6 -82 56 -131t122 -49q51 0 91 25.5t59 71.5h60q-25 -72 -79.5 -111t-130.5 -39q-63 0 -114.5 29.5t-83 82.5t-36.5 121h-19q-85 0 -85 89v21h53v-13q0 -24 9.5 -33.5t30.5 -9.5h11q5 69 37 121.5t83.5 82t113.5 29.5q64 0 115 -31t80.5 -86t29.5 -123
q0 -23 -3 -47zM507 277q-2 52 -24.5 93t-60 64t-83.5 23q-74 0 -123.5 -50t-55.5 -130h347z" />
    <glyph glyph-name="uni04BE" unicode="&#x4be;" horiz-adv-x="815" 
d="M760 323h-582q6 -80 42.5 -143t96 -98t130.5 -35q79 0 144 43.5t96 119.5h64q-32 -93 -106 -151.5t-168 -67.5v-134h-60v134q-81 7 -147 51t-106.5 117t-45.5 164h-20q-98 0 -98 95v29h57v-20q0 -26 12 -38t38 -12h12q5 95 49 171t117 119t162 43q88 0 159.5 -43
t112.5 -121.5t41 -178.5v-44zM700 377q0 81 -33.5 143.5t-91.5 97.5t-128 35q-71 0 -130.5 -35t-96 -98t-42.5 -143h522z" />
    <glyph glyph-name="uni04BF" unicode="&#x4bf;" horiz-adv-x="607" 
d="M560 223h-400q6 -82 56 -131t122 -49q51 0 91 25.5t59 71.5h60q-23 -64 -69 -102.5t-110 -45.5v-112h-57v111q-57 6 -102.5 37.5t-73.5 81.5t-32 113h-19q-85 0 -85 89v21h53v-13q0 -24 9.5 -33.5t30.5 -9.5h11q5 69 37 121.5t83.5 82t113.5 29.5q64 0 115 -31t80.5 -86
t29.5 -123q0 -23 -3 -47zM507 277q-2 52 -24.5 93t-60 64t-83.5 23q-74 0 -123.5 -50t-55.5 -130h347z" />
    <glyph glyph-name="uni04C0" unicode="&#x4c0;" horiz-adv-x="233" 
d="M147 0h-60v700h60v-700z" />
    <glyph glyph-name="uni04C1" unicode="&#x4c1;" horiz-adv-x="793" 
d="M78 0h-73l299 355l-279 345h73l269 -332v332h60v-332l268 332h73l-279 -345l299 -355h-72l-289 345v-345h-60v345zM304 816.5q-37 33.5 -41 85.5h50q4 -35 26 -55t57 -20t57.5 20t26.5 55h50q-4 -53 -41.5 -86t-92.5 -33t-92 33.5z" />
    <glyph glyph-name="uni04C2" unicode="&#x4c2;" horiz-adv-x="633" 
d="M73 0h-70l227 255l-213 245h69l202 -235v235h57v-235l202 235h70l-214 -245l227 -255h-69l-216 245v-245h-57v245zM225 621.5q-37 33.5 -41 85.5h50q4 -35 26 -55t57 -20t57.5 20t26.5 55h50q-4 -53 -41.5 -86t-92.5 -33t-92 33.5z" />
    <glyph glyph-name="uni04C3" unicode="&#x4c3;" horiz-adv-x="608" 
d="M438.5 379q56.5 -31 87.5 -89t31 -137q0 -84 -30.5 -144t-84 -91t-123.5 -31v56q79 0 128.5 55t49.5 155q0 94 -52 147t-142 53q-47 0 -89.5 -15.5t-66.5 -35.5v-302h-60v700h60v-332l318 332h77l-288 -296q24 6 53 6q75 0 131.5 -31z" />
    <glyph glyph-name="uni04C4" unicode="&#x4c4;" horiz-adv-x="507" 
d="M367.5 263q50.5 -29 78 -82t27.5 -122q0 -124 -61.5 -191.5t-168.5 -67.5v53q81 0 127.5 52t46.5 154q0 83 -46.5 131t-125.5 48q-37 0 -67 -9.5t-45 -21.5v-207h-56v500h56v-232l248 232h74l-224 -209q6 1 20 1q66 0 116.5 -29z" />
    <glyph glyph-name="uni04C5" unicode="&#x4c5;" horiz-adv-x="692" 
d="M579 -143l30 143h-77v643h-302l-43 -496q-7 -78 -43 -115t-104 -37h-30v60h30q37 0 60 22.5t27 69.5l46 553h419v-643h96v-11l-65 -189h-44z" />
    <glyph glyph-name="uni04C6" unicode="&#x4c6;" horiz-adv-x="552" 
d="M456 -120l23 120h-74v447h-211l-27 -317q-7 -69 -39 -102t-91 -33h-27v57h27q66 0 73 78l32 370h320v-447h90v-11l-55 -162h-41z" />
    <glyph glyph-name="uni04C7" unicode="&#x4c7;" horiz-adv-x="710" 
d="M475 -200v57h13q38 0 56.5 20.5t18.5 64.5v385h-416v-327h-60v700h60v-317h416v317h60v-758q0 -72 -33.5 -107t-101.5 -35h-13z" />
    <glyph glyph-name="uni04C8" unicode="&#x4c8;" horiz-adv-x="555" 
d="M333 -200v53h10q41 0 60 21t19 68v281h-289v-223h-56v500h56v-223h289v223h56v-558q0 -72 -33.5 -107t-101.5 -35h-10z" />
    <glyph glyph-name="uni04C9" unicode="&#x4c9;" horiz-adv-x="723" 
d="M655 -143h-44l30 143h-78v327h-416v-327h-60v700h60v-317h416v317h60v-643h97v-11z" />
    <glyph glyph-name="uni04CA" unicode="&#x4ca;" horiz-adv-x="568" 
d="M513 -120h-41l24 120h-74v223h-289v-223h-56v500h56v-223h289v223h56v-447h90v-11z" />
    <glyph glyph-name="uni04CB" unicode="&#x4cb;" horiz-adv-x="665" 
d="M442 -143v200h76v255q-32 -27 -89 -49.5t-119 -22.5q-122 0 -180 59.5t-58 185.5v215h60v-215q0 -97 43 -142.5t135 -45.5q66 0 122.5 23.5t85.5 52.5v327h60v-700h-76v-143h-60z" />
    <glyph glyph-name="uni04CC" unicode="&#x4cc;" horiz-adv-x="520" 
d="M315 -120v173h72v152q-64 -45 -149 -45q-90 0 -135.5 47.5t-45.5 137.5v155h56v-155q0 -65 34 -98.5t98 -33.5q43 0 76.5 12.5t65.5 37.5v237h56v-500h-71v-120h-57z" />
    <glyph glyph-name="uni04CD" unicode="&#x4cd;" horiz-adv-x="907" 
d="M838 -143h-44l30 143h-77v623h-20l-232 -623h-97l-231 623h-20v-623h-60v700h115l235 -633h20l235 633h115v-643h96v-11z" />
    <glyph glyph-name="uni04CE" unicode="&#x4ce;" horiz-adv-x="723" 
d="M668 -120h-41l24 120h-74v433h-20l-157 -433h-90l-157 433h-20v-433h-56v500h111l157 -437h20l157 437h111v-447h90v-11z" />
    <glyph glyph-name="uni04CF" unicode="&#x4cf;" horiz-adv-x="220" 
d="M138 0h-56v700h56v-700z" />
    <glyph glyph-name="uni04D0" unicode="&#x4d0;" horiz-adv-x="637" 
d="M630 0h-63l-71 190h-355l-71 -190h-63l265 700h93zM309 637l-146 -390h311l-146 390h-19zM226 816.5q-37 33.5 -41 85.5h50q4 -35 26 -55t57 -20t57.5 20t26.5 55h50q-4 -53 -41.5 -86t-92.5 -33t-92 33.5z" />
    <glyph glyph-name="uni04D1" unicode="&#x4d1;" horiz-adv-x="527" 
d="M101.5 32q-46.5 42 -46.5 110q0 72 48.5 113.5t144.5 41.5h147v25q0 64 -35 99.5t-97 35.5q-60 0 -96 -29.5t-40 -72.5h-57q3 42 26 77.5t66 56.5t101 21q87 0 138 -49.5t51 -138.5v-322h-49l-8 77h-5q-20 -38 -64.5 -62.5t-102.5 -24.5q-75 0 -121.5 42zM350 92
q45 49 45 128v23h-147q-68 0 -102 -27t-34 -74q0 -45 29.5 -72t81.5 -27q82 0 127 49zM171 621.5q-37 33.5 -41 85.5h50q4 -35 26 -55t57 -20t57.5 20t26.5 55h50q-4 -53 -41.5 -86t-92.5 -33t-92 33.5z" />
    <glyph glyph-name="uni04D2" unicode="&#x4d2;" horiz-adv-x="637" 
d="M630 0h-63l-71 190h-355l-71 -190h-63l265 700h93zM309 637l-146 -390h311l-146 390h-19zM265 815h-67v67h67v-67zM438 815h-67v67h67v-67z" />
    <glyph glyph-name="uni04D3" unicode="&#x4d3;" horiz-adv-x="527" 
d="M101.5 32q-46.5 42 -46.5 110q0 72 48.5 113.5t144.5 41.5h147v25q0 64 -35 99.5t-97 35.5q-60 0 -96 -29.5t-40 -72.5h-57q3 42 26 77.5t66 56.5t101 21q87 0 138 -49.5t51 -138.5v-322h-49l-8 77h-5q-20 -38 -64.5 -62.5t-102.5 -24.5q-75 0 -121.5 42zM350 92
q45 49 45 128v23h-147q-68 0 -102 -27t-34 -74q0 -45 29.5 -72t81.5 -27q82 0 127 49zM210 620h-67v67h67v-67zM383 620h-67v67h67v-67z" />
    <glyph glyph-name="uni04D6" unicode="&#x4d6;" horiz-adv-x="588" 
d="M527 0h-440v700h440v-57h-380v-261h360v-57h-360v-268h380v-57zM220 816.5q-37 33.5 -41 85.5h50q4 -35 26 -55t57 -20t57.5 20t26.5 55h50q-4 -53 -41.5 -86t-92.5 -33t-92 33.5z" />
    <glyph glyph-name="uni04D7" unicode="&#x4d7;" horiz-adv-x="547" 
d="M159 23q-54 33 -85 92t-31 135t31 135t85 92t119 33q64 0 115 -31t80.5 -86t29.5 -123q0 -23 -3 -47h-400q4 -54 28.5 -95t64 -63t85.5 -22q51 0 91 25.5t59 71.5h60q-25 -72 -79.5 -111t-130.5 -39q-65 0 -119 33zM447 277q-2 52 -24.5 93t-60 64t-83.5 23
q-48 0 -87.5 -23t-63.5 -64t-28 -93h347zM183 621.5q-37 33.5 -41 85.5h50q4 -35 26 -55t57 -20t57.5 20t26.5 55h50q-4 -53 -41.5 -86t-92.5 -33t-92 33.5z" />
    <glyph glyph-name="uni04D8" unicode="&#x4d8;" horiz-adv-x="752" 
d="M208.5 33q-71.5 43 -112.5 121.5t-41 178.5v44h582q-5 80 -41.5 143t-96.5 98t-131 35q-79 0 -144 -43.5t-96 -119.5h-64q34 101 117 160.5t187 59.5q91 0 166 -45.5t119 -127.5t44 -187t-44 -187t-119 -127.5t-166 -45.5q-88 0 -159.5 43zM499 82q60 35 96.5 98
t41.5 143h-522q0 -81 33.5 -143.5t91.5 -97.5t128 -35q71 0 131 35z" />
    <glyph glyph-name="uni04D9" unicode="&#x4d9;" horiz-adv-x="547" 
d="M153.5 21q-51.5 31 -81 86t-29.5 123q0 31 4 47h400q-4 54 -29 95t-64.5 63t-85.5 22q-50 0 -90 -25.5t-60 -71.5h-60q26 72 80.5 111t129.5 39q66 0 119.5 -33t84.5 -92t31 -135t-31 -135t-84.5 -92t-119.5 -33q-63 0 -114.5 31zM390.5 93q49.5 50 56.5 130h-347
q1 -52 23.5 -93t60.5 -64t84 -23q73 0 122.5 50z" />
    <glyph glyph-name="uni04DA" unicode="&#x4da;" horiz-adv-x="752" 
d="M208.5 33q-71.5 43 -112.5 121.5t-41 178.5v44h582q-5 80 -41.5 143t-96.5 98t-131 35q-79 0 -144 -43.5t-96 -119.5h-64q34 101 117 160.5t187 59.5q91 0 166 -45.5t119 -127.5t44 -187t-44 -187t-119 -127.5t-166 -45.5q-88 0 -159.5 43zM499 82q60 35 96.5 98
t41.5 143h-522q0 -81 33.5 -143.5t91.5 -97.5t128 -35q71 0 131 35zM321 815h-67v67h67v-67zM494 815h-67v67h67v-67z" />
    <glyph glyph-name="uni04DB" unicode="&#x4db;" horiz-adv-x="547" 
d="M153.5 21q-51.5 31 -81 86t-29.5 123q0 31 4 47h400q-4 54 -29 95t-64.5 63t-85.5 22q-50 0 -90 -25.5t-60 -71.5h-60q26 72 80.5 111t129.5 39q66 0 119.5 -33t84.5 -92t31 -135t-31 -135t-84.5 -92t-119.5 -33q-63 0 -114.5 31zM390.5 93q49.5 50 56.5 130h-347
q1 -52 23.5 -93t60.5 -64t84 -23q73 0 122.5 50zM222 620h-67v67h67v-67zM395 620h-67v67h67v-67z" />
    <glyph glyph-name="uni04DC" unicode="&#x4dc;" horiz-adv-x="793" 
d="M78 0h-73l299 355l-279 345h73l269 -332v332h60v-332l268 332h73l-279 -345l299 -355h-72l-289 345v-345h-60v345zM344 815h-67v67h67v-67zM517 815h-67v67h67v-67z" />
    <glyph glyph-name="uni04DD" unicode="&#x4dd;" horiz-adv-x="633" 
d="M73 0h-70l227 255l-213 245h69l202 -235v235h57v-235l202 235h70l-214 -245l227 -255h-69l-216 245v-245h-57v245zM264 620h-67v67h67v-67zM437 620h-67v67h67v-67z" />
    <glyph glyph-name="uni04DE" unicode="&#x4de;" horiz-adv-x="593" 
d="M156.5 16.5q-56.5 26.5 -86.5 72.5t-30 101h60q0 -39 22.5 -71.5t65 -52t100.5 -19.5q57 0 100 19.5t66 52t23 71.5q0 36 -20 66.5t-56.5 48.5t-82.5 18h-75v57h75q41 0 74 17.5t51.5 47t18.5 65.5q0 63 -47.5 103t-126.5 40q-51 0 -90.5 -19.5t-61 -52t-21.5 -71.5h-60
q0 55 28.5 101t81 72.5t123.5 26.5q70 0 123 -26.5t82 -72.5t29 -101q0 -59 -34 -99.5t-78 -56.5v-5q50 -14 88.5 -55.5t38.5 -103.5q0 -55 -30.5 -101t-87 -72.5t-131.5 -26.5t-131.5 26.5zM242 815h-67v67h67v-67zM415 815h-67v67h67v-67z" />
    <glyph glyph-name="uni04DF" unicode="&#x4df;" horiz-adv-x="455" 
d="M126 11.5q-43 21.5 -67 59.5t-24 84h57q0 -47 36.5 -79.5t94.5 -32.5q65 0 98.5 25.5t33.5 68.5q0 42 -33 66t-92 24h-47v50h47q55 0 85 25.5t30 65.5q0 38 -31 63.5t-91 25.5q-54 0 -87.5 -30t-33.5 -77h-57q0 46 22.5 82.5t63 57t92.5 20.5q57 0 97 -19t61 -51.5
t21 -71.5q0 -42 -24.5 -71.5t-57.5 -41.5v-5q39 -10 65.5 -39.5t26.5 -74.5q0 -66 -50.5 -106t-138.5 -40q-54 0 -97 21.5zM175 620h-67v67h67v-67zM348 620h-67v67h67v-67z" />
    <glyph glyph-name="uni04E0" unicode="&#x4e0;" horiz-adv-x="578" 
d="M280 413q116 0 181.5 -57.5t65.5 -153.5q0 -63 -29 -111t-85 -74.5t-133 -26.5q-119 0 -183 52.5t-64 137.5h60q0 -59 48 -96t139 -37q88 0 137.5 42.5t49.5 112.5t-49.5 112.5t-137.5 42.5h-117v56l265 230h-370v57h452v-57l-260 -225v-5h30z" />
    <glyph glyph-name="uni04E1" unicode="&#x4e1;" horiz-adv-x="482" 
d="M385.5 156q59.5 -57 59.5 -154q0 -64 -26 -112t-73.5 -74t-108.5 -26t-108.5 25.5t-74 70t-26.5 99.5h57q0 -40 19.5 -72.5t54 -51t78.5 -18.5q67 0 109 43t42 116q0 74 -44.5 116t-126.5 42h-84v53l227 234h-307v53h379v-53l-222 -229v-5h9q107 0 166.5 -57z" />
    <glyph glyph-name="uni04E2" unicode="&#x4e2;" horiz-adv-x="710" 
d="M193 0h-106v700h60v-630h19l351 630h106v-700h-60v630h-19zM491 825h-273v47h273v-47z" />
    <glyph glyph-name="uni04E3" unicode="&#x4e3;" horiz-adv-x="555" 
d="M180 0h-103v500h56v-433h20l222 433h103v-500h-56v433h-20zM416 630h-273v47h273v-47z" />
    <glyph glyph-name="uni04E4" unicode="&#x4e4;" horiz-adv-x="710" 
d="M193 0h-106v700h60v-630h19l351 630h106v-700h-60v630h-19zM302 815h-67v67h67v-67zM475 815h-67v67h67v-67z" />
    <glyph glyph-name="uni04E5" unicode="&#x4e5;" horiz-adv-x="555" 
d="M180 0h-103v500h56v-433h20l222 433h103v-500h-56v433h-20zM226 620h-67v67h67v-67zM399 620h-67v67h67v-67z" />
    <glyph glyph-name="uni04E6" unicode="&#x4e6;" horiz-adv-x="767" 
d="M218 35.5q-75 45.5 -119 127.5t-44 187t44 187t119 127.5t165 45.5q91 0 166 -45.5t119 -127.5t44 -187t-44 -187t-119 -127.5t-166 -45.5q-90 0 -165 45.5zM518.5 85q61.5 38 97.5 107t36 158t-36 158t-97.5 107t-135.5 38t-135 -38t-97 -107t-36 -158t36 -158t97 -107
t135 -38t135.5 38zM330 815h-67v67h67v-67zM503 815h-67v67h67v-67z" />
    <glyph glyph-name="uni04E7" unicode="&#x4e7;" 
d="M158.5 22.5q-53.5 32.5 -84.5 91.5t-31 136t31 136t84.5 91.5t118.5 32.5t118 -32.5t84 -91.5t31 -136t-31 -136t-84 -91.5t-118 -32.5t-118.5 32.5zM365.5 69q40.5 26 64 73t23.5 108t-23.5 108t-64 73t-88.5 26q-49 0 -89.5 -26t-64 -73t-23.5 -108t23.5 -108t64 -73
t89.5 -26q48 0 88.5 26zM224 620h-67v67h67v-67zM397 620h-67v67h67v-67z" />
    <glyph glyph-name="uni04E8" unicode="&#x4e8;" horiz-adv-x="767" 
d="M549 664.5q75 -45.5 119 -127.5t44 -187t-44 -187t-119 -127.5t-166 -45.5q-90 0 -165 45.5t-119 127.5t-44 187t44 187t119 127.5t165 45.5q91 0 166 -45.5zM254 618.5q-59 -34.5 -96 -97t-42 -144.5h535q-5 82 -42 144.5t-96 97t-130 34.5q-70 0 -129 -34.5zM513 81.5
q59 34.5 96 97t42 144.5h-535q5 -82 42 -144.5t96 -97t129 -34.5q71 0 130 34.5z" />
    <glyph glyph-name="uni04E9" unicode="&#x4e9;" 
d="M395 477.5q53 -32.5 84 -91.5t31 -136t-31 -136t-84 -91.5t-118 -32.5t-118.5 32.5t-84.5 91.5t-31 136t31 136t84.5 91.5t118.5 32.5t118 -32.5zM194 435q-38 -22 -63 -63t-30 -95h351q-5 54 -30 95t-63 63t-82 22q-45 0 -83 -22zM359 65q38 22 63 63t30 95h-351
q5 -54 30 -95t63 -63t83 -22q44 0 82 22z" />
    <glyph glyph-name="uni04EA" unicode="&#x4ea;" horiz-adv-x="767" 
d="M549 664.5q75 -45.5 119 -127.5t44 -187t-44 -187t-119 -127.5t-166 -45.5q-90 0 -165 45.5t-119 127.5t-44 187t44 187t119 127.5t165 45.5q91 0 166 -45.5zM254 618.5q-59 -34.5 -96 -97t-42 -144.5h535q-5 82 -42 144.5t-96 97t-130 34.5q-70 0 -129 -34.5zM513 81.5
q59 34.5 96 97t42 144.5h-535q5 -82 42 -144.5t96 -97t129 -34.5q71 0 130 34.5zM330 815h-67v67h67v-67zM503 815h-67v67h67v-67z" />
    <glyph glyph-name="uni04EB" unicode="&#x4eb;" 
d="M395 477.5q53 -32.5 84 -91.5t31 -136t-31 -136t-84 -91.5t-118 -32.5t-118.5 32.5t-84.5 91.5t-31 136t31 136t84.5 91.5t118.5 32.5t118 -32.5zM194 435q-38 -22 -63 -63t-30 -95h351q-5 54 -30 95t-63 63t-82 22q-45 0 -83 -22zM359 65q38 22 63 63t30 95h-351
q5 -54 30 -95t63 -63t83 -22q44 0 82 22zM224 620h-67v67h67v-67zM397 620h-67v67h67v-67z" />
    <glyph glyph-name="uni04EC" unicode="&#x4ec;" horiz-adv-x="733" 
d="M152.5 53.5q-83.5 63.5 -110.5 171.5h63q27 -83 92 -130.5t151 -47.5q70 0 129.5 35t96 97.5t40.5 143.5h-358v57h358q-4 79 -40.5 141.5t-96 97t-129.5 34.5q-86 0 -151 -46.5t-92 -126.5h-63q19 69 64 121t107.5 80.5t134.5 28.5q91 0 166.5 -45.5t119.5 -127.5
t44 -187t-44 -187t-119.5 -127.5t-166.5 -45.5q-112 0 -195.5 63.5zM306 815h-67v67h67v-67zM479 815h-67v67h67v-67z" />
    <glyph glyph-name="uni04ED" unicode="&#x4ed;" horiz-adv-x="530" 
d="M115.5 35.5q-57.5 45.5 -77.5 124.5h57q16 -55 59.5 -86t98.5 -31q71 0 120.5 49.5t56.5 130.5h-235v54h235q-7 81 -56.5 130.5t-120.5 49.5q-55 0 -98.5 -30t-59.5 -82h-57q20 75 77.5 120t137.5 45q66 0 119 -33t83.5 -92t30.5 -135t-30.5 -135t-83.5 -92t-119 -33
q-80 0 -137.5 45.5zM208 620h-67v67h67v-67zM381 620h-67v67h67v-67z" />
    <glyph glyph-name="uni04EE" unicode="&#x4ee;" horiz-adv-x="595" 
d="M516 700h64l-287 -635q-14 -32 -37.5 -48.5t-64.5 -16.5h-93v57h90q23 0 34.5 7.5t20.5 27.5l30 67l-258 541h64l215 -453h19zM439 825h-273v47h273v-47z" />
    <glyph glyph-name="uni04EF" unicode="&#x4ef;" horiz-adv-x="477" 
d="M403 500h60l-226 -635q-12 -35 -32.5 -50t-57.5 -15h-84v53h80q19 0 28.5 9t16.5 28l27 78l-202 532h61l161 -432h20zM381 630h-273v47h273v-47z" />
    <glyph glyph-name="uni04F0" unicode="&#x4f0;" horiz-adv-x="595" 
d="M516 700h64l-287 -635q-14 -32 -37.5 -48.5t-64.5 -16.5h-93v57h90q23 0 34.5 7.5t20.5 27.5l30 67l-258 541h64l215 -453h19zM250 815h-67v67h67v-67zM423 815h-67v67h67v-67z" />
    <glyph glyph-name="uni04F1" unicode="&#x4f1;" horiz-adv-x="477" 
d="M403 500h60l-226 -635q-12 -35 -32.5 -50t-57.5 -15h-84v53h80q19 0 28.5 9t16.5 28l27 78l-202 532h61l161 -432h20zM192 620h-67v67h67v-67zM365 620h-67v67h67v-67z" />
    <glyph glyph-name="uni04F2" unicode="&#x4f2;" horiz-adv-x="595" 
d="M516 700h64l-287 -635q-14 -32 -37.5 -48.5t-64.5 -16.5h-93v57h90q23 0 34.5 7.5t20.5 27.5l30 67l-258 541h64l215 -453h19zM256 775h-53l88 130h69zM400 775h-54l89 130h68z" />
    <glyph glyph-name="uni04F3" unicode="&#x4f3;" horiz-adv-x="477" 
d="M403 500h60l-226 -635q-12 -35 -32.5 -50t-57.5 -15h-84v53h80q19 0 28.5 9t16.5 28l27 78l-202 532h61l161 -432h20zM196 583h-53l88 130h69zM340 583h-54l89 130h68z" />
    <glyph glyph-name="uni04F4" unicode="&#x4f4;" horiz-adv-x="665" 
d="M518 312q-32 -27 -89 -49.5t-119 -22.5q-122 0 -180 59.5t-58 185.5v215h60v-215q0 -97 43 -142.5t135 -45.5q66 0 122.5 23.5t85.5 52.5v327h60v-700h-60v312zM277 815h-67v67h67v-67zM450 815h-67v67h67v-67z" />
    <glyph glyph-name="uni04F5" unicode="&#x4f5;" horiz-adv-x="520" 
d="M387 205q-64 -45 -149 -45q-90 0 -135.5 47.5t-45.5 137.5v155h56v-155q0 -65 34 -98.5t98 -33.5q43 0 76.5 12.5t65.5 37.5v237h56v-500h-56v205zM202 620h-67v67h67v-67zM375 620h-67v67h67v-67z" />
    <glyph glyph-name="uni04F6" unicode="&#x4f6;" horiz-adv-x="535" 
d="M223 -143h-60v143h-76v700h426v-57h-366v-586h76v-200z" />
    <glyph glyph-name="uni04F7" unicode="&#x4f7;" horiz-adv-x="403" 
d="M205 -120h-57v120h-71v500h306v-53h-250v-394h72v-173z" />
    <glyph glyph-name="uni04F8" unicode="&#x4f8;" horiz-adv-x="787" 
d="M87 0v700h60v-267h196q57 0 104 -28t74 -77.5t27 -110.5t-27 -111t-74 -78t-104 -28h-256zM700 0h-60v700h60v-700zM343 57q41 0 74 20.5t52 57t19 82.5t-19 82.5t-52 57t-74 20.5h-196v-320h196zM342 815h-67v67h67v-67zM515 815h-67v67h67v-67z" />
    <glyph glyph-name="uni04F9" unicode="&#x4f9;" horiz-adv-x="658" 
d="M77 0v500h56v-177h144q73 0 119.5 -45t46.5 -116t-46.5 -116.5t-119.5 -45.5h-200zM582 0h-57v500h57v-500zM277 53q49 0 79.5 30.5t30.5 78.5q0 47 -30.5 77.5t-79.5 30.5h-144v-217h144zM276 620h-67v67h67v-67zM449 620h-67v67h67v-67z" />
    <glyph glyph-name="uni04FA" unicode="&#x4fa;" horiz-adv-x="542" 
d="M122 -192v54h16q21 0 31.5 16t10.5 54v68h-77v327h-86v56h86v317h417v-57h-357v-260h195v-56h-195v-270h77v-129q0 -65 -24.5 -92.5t-77.5 -27.5h-16z" />
    <glyph glyph-name="uni04FB" unicode="&#x4fb;" horiz-adv-x="412" 
d="M392 447h-250v-170h178v-54h-178v-170h71v-105q0 -65 -23.5 -92.5t-74.5 -27.5h-17v54h17q21 0 31.5 14.5t10.5 51.5v52h-72v223h-73v54h73v223h307v-53z" />
    <glyph glyph-name="uni04FC" unicode="&#x4fc;" horiz-adv-x="613" 
d="M457 -200v57h16q34 0 53 18.5t19 47.5q0 57 -70 159l-157 231h-22l-213 -313h-68l245 360l-230 340h68l198 -293h22l197 293h68l-230 -340l185 -270q27 -40 47 -86t20 -84q0 -55 -34 -87.5t-98 -32.5h-16z" />
    <glyph glyph-name="uni04FD" unicode="&#x4fd;" horiz-adv-x="463" 
d="M310 -200v53h17q33 0 52 19t19 53q0 33 -18 69.5t-54 92.5l-83 128h-22l-140 -215h-68l169 255l-164 245h68l134 -205h23l134 205h68l-163 -245l112 -168q26 -39 45 -83.5t19 -83.5q0 -55 -34 -87.5t-97 -32.5h-17z" />
    <glyph glyph-name="uni04FE" unicode="&#x4fe;" horiz-adv-x="613" 
d="M83 0h-68l226 333h-131v54h131l-211 313h68l198 -293h22l197 293h68l-211 -313h131v-54h-131l226 -333h-68l-212 313h-22z" />
    <glyph glyph-name="uni04FF" unicode="&#x4ff;" horiz-adv-x="463" 
d="M81 0h-68l153 232h-86v46h86l-148 222h68l134 -205h23l134 205h68l-148 -222h86v-46h-86l153 -232h-68l-139 215h-22z" />
    <glyph glyph-name="uni0510" unicode="&#x510;" horiz-adv-x="595" 
d="M175 16.5q-57 26.5 -87.5 72t-30.5 101.5q0 62 38 103.5t88 55.5v5q-44 16 -77.5 56.5t-33.5 99.5q0 55 29 101t83 72.5t126 26.5q74 0 126.5 -25t79.5 -68t27 -97h-60q0 57 -45.5 95t-127.5 38t-130 -40t-48 -103q0 -36 18.5 -65.5t51 -47t73.5 -17.5h75v-57h-75
q-46 0 -82 -18t-56 -48.5t-20 -66.5q0 -39 23 -71.5t67 -52t103 -19.5q58 0 100.5 19t65 49.5t22.5 64.5h60q0 -51 -30.5 -94.5t-87 -69.5t-130.5 -26q-78 0 -135 26.5z" />
    <glyph glyph-name="uni0511" unicode="&#x511;" horiz-adv-x="457" 
d="M95 29.5q-52 39.5 -52 106.5q0 43 26 73.5t66 40.5v5q-36 13 -59 43.5t-23 69.5q0 61 47.5 101.5t132.5 40.5q53 0 94.5 -20t64.5 -54.5t23 -75.5h-57q0 40 -34.5 68.5t-90.5 28.5q-58 0 -90.5 -25t-32.5 -64q0 -42 30.5 -66.5t84.5 -24.5h47v-50h-47q-59 0 -92 -24
t-33 -66q0 -44 35.5 -69t97.5 -25q60 0 97.5 28.5t37.5 73.5h57q0 -44 -23.5 -79t-67 -55.5t-101.5 -20.5q-86 0 -138 39.5z" />
    <glyph glyph-name="uni0512" unicode="&#x512;" horiz-adv-x="678" 
d="M443 -200v57h14q38 0 56.5 20.5t18.5 64.5v701h-302l-43 -496q-7 -78 -43 -115t-104 -37h-30v60h30q37 0 60 22.5t27 69.5l46 553h419v-758q0 -72 -33.5 -107t-101.5 -35h-14z" />
    <glyph glyph-name="uni0513" unicode="&#x513;" horiz-adv-x="538" 
d="M317 -200v53h10q40 0 59 21t19 68v505h-211l-27 -317q-7 -69 -39 -102t-91 -33h-27v57h27q66 0 73 78l32 370h320v-558q0 -72 -33.5 -107t-101.5 -35h-10z" />
    <glyph glyph-name="Wgrave" unicode="&#x1e80;" horiz-adv-x="947" 
d="M304 0h-109l-175 700h63l157 -637h20l165 637h97l165 -637h20l156 637h64l-175 -700h-109l-160 617h-20zM500 775h-54l-103 130h68z" />
    <glyph glyph-name="wgrave" unicode="&#x1e81;" horiz-adv-x="753" 
d="M255 0h-103l-134 500h61l114 -440h20l115 440h97l115 -440h20l115 440h60l-134 -500h-103l-111 430h-20zM409 583h-54l-103 130h68z" />
    <glyph glyph-name="Wacute" unicode="&#x1e82;" horiz-adv-x="947" 
d="M304 0h-109l-175 700h63l157 -637h20l165 637h97l165 -637h20l156 637h64l-175 -700h-109l-160 617h-20zM499 775h-53l88 130h69z" />
    <glyph glyph-name="wacute" unicode="&#x1e83;" horiz-adv-x="753" 
d="M255 0h-103l-134 500h61l114 -440h20l115 440h97l115 -440h20l115 440h60l-134 -500h-103l-111 430h-20zM403 583h-53l88 130h69z" />
    <glyph glyph-name="Wdieresis" unicode="&#x1e84;" horiz-adv-x="947" 
d="M304 0h-109l-175 700h63l157 -637h20l165 637h97l165 -637h20l156 637h64l-175 -700h-109l-160 617h-20zM420 815h-67v67h67v-67zM593 815h-67v67h67v-67z" />
    <glyph glyph-name="wdieresis" unicode="&#x1e85;" horiz-adv-x="753" 
d="M255 0h-103l-134 500h61l114 -440h20l115 440h97l115 -440h20l115 440h60l-134 -500h-103l-111 430h-20zM324 620h-67v67h67v-67zM497 620h-67v67h67v-67z" />
    <glyph glyph-name="uni1E9E" unicode="&#x1e9e;" horiz-adv-x="670" 
d="M389 403q67 0 118.5 -26.5t79.5 -72t28 -102.5t-28 -103t-80 -72.5t-120 -26.5h-89v57h89q78 0 123 40.5t45 104.5t-45 104.5t-123 40.5h-89v61l214 235h-235q-64 0 -99.5 -36.5t-35.5 -101.5v-505h-60v505q0 92 52 143.5t143 51.5h313v-53l-220 -239v-5h19z" />
    <glyph glyph-name="Ygrave" unicode="&#x1ef2;" horiz-adv-x="587" 
d="M323 0h-60v262l-256 438h64l212 -365h20l213 365h64l-257 -438v-262zM320 775h-54l-103 130h68z" />
    <glyph glyph-name="ygrave" unicode="&#x1ef3;" horiz-adv-x="477" 
d="M403 500h60l-226 -635q-12 -35 -32.5 -50t-57.5 -15h-84v53h80q19 0 28.5 9t16.5 28l27 78l-202 532h61l161 -432h20zM277 583h-54l-103 130h68z" />
    <glyph glyph-name="endash" unicode="&#x2013;" horiz-adv-x="543" 
d="M507 258h-470v54h470v-54z" />
    <glyph glyph-name="emdash" unicode="&#x2014;" horiz-adv-x="723" 
d="M687 258h-650v54h650v-54z" />
    <glyph glyph-name="quoteleft" unicode="&#x2018;" horiz-adv-x="197" 
d="M115 547h-65l38 153h49z" />
    <glyph glyph-name="quoteright" unicode="&#x2019;" horiz-adv-x="197" 
d="M108 547h-48l22 153h65z" />
    <glyph glyph-name="quotesinglbase" unicode="&#x201a;" horiz-adv-x="198" 
d="M97 -83h-49l22 153h65z" />
    <glyph glyph-name="quotedblleft" unicode="&#x201c;" horiz-adv-x="317" 
d="M115 547h-65l38 153h49zM235 547h-65l38 153h49z" />
    <glyph glyph-name="quotedblright" unicode="&#x201d;" horiz-adv-x="317" 
d="M108 547h-48l22 153h65zM228 547h-48l22 153h65z" />
    <glyph glyph-name="quotedblbase" unicode="&#x201e;" horiz-adv-x="318" 
d="M97 -83h-49l22 153h65zM217 -83h-49l22 153h65z" />
    <glyph glyph-name="dagger" unicode="&#x2020;" horiz-adv-x="460" 
d="M258 0h-56v473h-154v54h154v173h56v-173h154v-54h-154v-473z" />
    <glyph glyph-name="daggerdbl" unicode="&#x2021;" horiz-adv-x="460" 
d="M258 0h-56v208h-154v54h154v211h-154v54h154v173h56v-173h154v-54h-154v-211h154v-54h-154v-208z" />
    <glyph glyph-name="bullet" unicode="&#x2022;" horiz-adv-x="400" 
d="M143.5 213.5q-23.5 23.5 -23.5 56.5t23.5 56.5t56.5 23.5t56.5 -23.5t23.5 -56.5t-23.5 -56.5t-56.5 -23.5t-56.5 23.5z" />
    <glyph glyph-name="ellipsis" unicode="&#x2026;" horiz-adv-x="623" 
d="M137 0h-70v70h70v-70zM347 0h-70v70h70v-70zM557 0h-70v70h70v-70z" />
    <glyph glyph-name="perthousand" unicode="&#x2030;" horiz-adv-x="1132" 
d="M117.5 420q-34.5 20 -55 55.5t-20.5 79.5t20.5 79.5t55 55.5t75.5 20q42 0 76.5 -20t55 -55.5t20.5 -79.5t-20.5 -79.5t-55 -55.5t-76.5 -20q-41 0 -75.5 20zM193 0h-60l435 700h60zM263 479.5q29 29.5 29 75.5q0 47 -29 76t-70 29q-40 0 -69 -29.5t-29 -75.5t29 -75.5
t69 -29.5q41 0 70 29.5zM492.5 10q-34.5 20 -55 55.5t-20.5 79.5t20.5 79.5t55 55.5t75.5 20q42 0 76.5 -20t55 -55.5t20.5 -79.5t-20.5 -79.5t-55 -55.5t-76.5 -20q-41 0 -75.5 20zM862.5 10q-34.5 20 -55 55.5t-20.5 79.5t20.5 79.5t55 55.5t75.5 20q42 0 76.5 -20
t55 -55.5t20.5 -79.5t-20.5 -79.5t-55 -55.5t-76.5 -20q-41 0 -75.5 20zM638 69.5q29 29.5 29 75.5q0 47 -29 76t-70 29q-40 0 -69 -29.5t-29 -75.5t29 -75.5t69 -29.5q41 0 70 29.5zM1008 69.5q29 29.5 29 75.5q0 47 -29 76t-70 29q-40 0 -69 -29.5t-29 -75.5t29 -75.5
t69 -29.5q41 0 70 29.5z" />
    <glyph glyph-name="guilsinglleft" unicode="&#x2039;" horiz-adv-x="302" 
d="M250 60h-62l-136 190l136 190h62l-137 -190z" />
    <glyph glyph-name="guilsinglright" unicode="&#x203a;" horiz-adv-x="302" 
d="M113 60h-61l136 190l-136 190h61l137 -190z" />
    <glyph glyph-name="uni203D" unicode="&#x203d;" horiz-adv-x="500" 
d="M353 683.5q49 -26.5 76.5 -73t27.5 -102.5q0 -65 -30 -109.5t-87 -75.5q-42 -22 -57 -44.5t-15 -58.5v-63h-60v493q-54 -10 -86 -47.5t-32 -87.5h-60q0 55 27 99.5t75.5 70t110.5 25.5q61 0 110 -26.5zM375.5 425q21.5 33 21.5 83q0 56 -36 95.5t-93 47.5v-308
q17 12 39 24q47 25 68.5 58zM273 0h-70v70h70v-70z" />
    <glyph glyph-name="fraction" unicode="&#x2044;" horiz-adv-x="85" 
d="M-148 0h-54l435 700h54z" />
    <glyph glyph-name="uni2070" unicode="&#x2070;" horiz-adv-x="347" 
d="M75 483.5q-38 48.5 -38 136.5t38 136.5t98 48.5t98.5 -48.5t38.5 -136.5t-38.5 -136.5t-98.5 -48.5t-98 48.5zM237.5 515.5q25.5 37.5 25.5 104.5t-25.5 104.5t-64.5 37.5q-38 0 -64 -37.5t-26 -104.5t26 -104.5t64 -37.5q39 0 64.5 37.5z" />
    <glyph glyph-name="uni2074" unicode="&#x2074;" horiz-adv-x="308" 
d="M232 440h-47v80h-165v40l138 240h74v-237h53v-43h-53v-80zM78 568v-5h107v177h-10z" />
    <glyph glyph-name="uni2075" unicode="&#x2075;" horiz-adv-x="332" 
d="M78.5 462.5q-33.5 27.5 -40.5 77.5h47q15 -62 80 -62q35 0 57.5 22.5t22.5 57.5q0 38 -22 59t-58 21q-23 0 -40.5 -9t-32.5 -29h-49l20 200h209v-43h-167l-12 -105h5q16 16 32.5 23t41.5 7q50 0 85 -35t35 -89q0 -53 -35 -88t-92 -35q-53 0 -86.5 27.5z" />
    <glyph glyph-name="uni2076" unicode="&#x2076;" horiz-adv-x="327" 
d="M73 470.5q-36 35.5 -36 87.5q0 46 20 79l101 163h50l-83 -132h5q16 10 40 10q50 0 85 -34t35 -84q0 -53 -36 -89t-91 -36q-54 0 -90 35.5zM220 501q23 23 23 57t-23 57t-57 23t-57 -23t-23 -57t23 -57t57 -23t57 23z" />
    <glyph glyph-name="uni2077" unicode="&#x2077;" horiz-adv-x="293" 
d="M127 440h-47l135 317h-175v43h223v-40z" />
    <glyph glyph-name="uni2078" unicode="&#x2078;" horiz-adv-x="337" 
d="M81 465q-34 30 -34 73q0 32 16 54.5t37 32.5v5q-19 8 -33.5 28t-14.5 49q0 42 33 70t83 28t83.5 -28t33.5 -70q0 -29 -14.5 -49t-33.5 -28v-5q21 -10 37 -32.5t16 -54.5q0 -43 -34 -73t-88 -30q-53 0 -87 30zM217.5 660q20.5 15 20.5 43t-20.5 43.5t-49.5 15.5
t-49.5 -15.5t-20.5 -43.5t20.5 -43t49.5 -15t49.5 15zM222 496q21 18 21 46t-21 45.5t-54 17.5q-32 0 -53.5 -18t-21.5 -45q0 -28 21.5 -46t53.5 -18q33 0 54 18z" />
    <glyph glyph-name="uni2079" unicode="&#x2079;" horiz-adv-x="327" 
d="M118 440l84 132h-5q-16 -10 -40 -10q-50 0 -85 34t-35 84q0 53 36 89t90 36t90.5 -36t36.5 -87q0 -46 -20 -79l-102 -163h-50zM220 625q23 23 23 57t-23 57t-57 23t-57 -23t-23 -57t23 -57t57 -23t57 23z" />
    <glyph glyph-name="uni2080" unicode="&#x2080;" horiz-adv-x="347" 
d="M75 -56.5q-38 48.5 -38 136.5t38 136.5t98 48.5t98.5 -48.5t38.5 -136.5t-38.5 -136.5t-98.5 -48.5t-98 48.5zM237.5 -24.5q25.5 37.5 25.5 104.5t-25.5 104.5t-64.5 37.5q-38 0 -64 -37.5t-26 -104.5t26 -104.5t64 -37.5q39 0 64.5 37.5z" />
    <glyph glyph-name="uni2081" unicode="&#x2081;" horiz-adv-x="253" 
d="M128 -100v267h-91v43h61q30 0 30 30v20h47v-360h-47z" />
    <glyph glyph-name="uni2082" unicode="&#x2082;" horiz-adv-x="332" 
d="M57 -100v38l141 150q19 20 27 35t8 35q0 27 -17.5 45.5t-47.5 18.5q-31 0 -50.5 -19t-19.5 -53h-46q0 50 32.5 82.5t83.5 32.5t81.5 -29.5t30.5 -77.5q0 -31 -11.5 -52t-38.5 -49l-102 -109v-5h157v-43h-228z" />
    <glyph glyph-name="uni2083" unicode="&#x2083;" horiz-adv-x="328" 
d="M78 -75q-33 30 -33 75h47q0 -25 19.5 -43.5t50.5 -18.5t50.5 17t19.5 47t-20 46.5t-54 16.5h-26v43h26q32 0 50.5 15.5t18.5 43.5q0 25 -17.5 40t-47.5 15q-31 0 -48 -16t-17 -41h-47q0 42 31 71t81 29q49 0 80.5 -28t31.5 -70q0 -24 -14 -45t-38 -32v-5q24 -9 40 -31
t16 -52q0 -46 -32 -76.5t-84 -30.5q-51 0 -84 30z" />
    <glyph glyph-name="uni2084" unicode="&#x2084;" horiz-adv-x="308" 
d="M232 -100h-47v80h-165v40l138 240h74v-237h53v-43h-53v-80zM78 28v-5h107v177h-10z" />
    <glyph glyph-name="uni2085" unicode="&#x2085;" horiz-adv-x="332" 
d="M78.5 -77.5q-33.5 27.5 -40.5 77.5h47q15 -62 80 -62q35 0 57.5 22.5t22.5 57.5q0 38 -22 59t-58 21q-23 0 -40.5 -9t-32.5 -29h-49l20 200h209v-43h-167l-12 -105h5q16 16 32.5 23t41.5 7q50 0 85 -35t35 -89q0 -53 -35 -88t-92 -35q-53 0 -86.5 27.5z" />
    <glyph glyph-name="uni2086" unicode="&#x2086;" horiz-adv-x="327" 
d="M73 -69.5q-36 35.5 -36 87.5q0 46 20 79l101 163h50l-83 -132h5q16 10 40 10q50 0 85 -34t35 -84q0 -53 -36 -89t-91 -36q-54 0 -90 35.5zM220 -39q23 23 23 57t-23 57t-57 23t-57 -23t-23 -57t23 -57t57 -23t57 23z" />
    <glyph glyph-name="uni2087" unicode="&#x2087;" horiz-adv-x="293" 
d="M127 -100h-47l135 317h-175v43h223v-40z" />
    <glyph glyph-name="uni2088" unicode="&#x2088;" horiz-adv-x="337" 
d="M81 -75q-34 30 -34 73q0 32 16 54.5t37 32.5v5q-19 8 -33.5 28t-14.5 49q0 42 33 70t83 28t83.5 -28t33.5 -70q0 -29 -14.5 -49t-33.5 -28v-5q21 -10 37 -32.5t16 -54.5q0 -43 -34 -73t-88 -30q-53 0 -87 30zM217.5 120q20.5 15 20.5 43t-20.5 43.5t-49.5 15.5
t-49.5 -15.5t-20.5 -43.5t20.5 -43t49.5 -15t49.5 15zM222 -44q21 18 21 46t-21 45.5t-54 17.5q-32 0 -53.5 -18t-21.5 -45q0 -28 21.5 -46t53.5 -18q33 0 54 18z" />
    <glyph glyph-name="uni2089" unicode="&#x2089;" horiz-adv-x="327" 
d="M118 -100l84 132h-5q-16 -10 -40 -10q-50 0 -85 34t-35 84q0 53 36 89t90 36t90.5 -36t36.5 -87q0 -46 -20 -79l-102 -163h-50zM220 85q23 23 23 57t-23 57t-57 23t-57 -23t-23 -57t23 -57t57 -23t57 23z" />
    <glyph glyph-name="uni20A9" unicode="&#x20a9;" horiz-adv-x="940" 
d="M323 0h-110l-52 233h-126v57h114l-26 120h-88v57h75l-52 233h64l50 -233h197l52 233h98l52 -233h197l50 233h64l-52 -233h75v-57h-88l-26 -120h114v-57h-126l-52 -233h-110l-53 233h-188zM460 623l-33 -156h86l-33 156h-20zM184 410l26 -120h119l27 120h-172zM414 410
l-26 -120h164l-26 120h-112zM584 410l27 -120h119l26 120h-172zM222 233l37 -170h19l38 170h-94zM624 233l38 -170h19l37 170h-94z" />
    <glyph glyph-name="Euro" unicode="&#x20ac;" horiz-adv-x="697" 
d="M279 600q-69 -53 -94 -147h327v-53h-337q-3 -24 -3 -50t3 -50h337v-53h-327q25 -94 93.5 -147t166.5 -53q62 0 106 11t99 39v-57q-55 -28 -99 -39t-106 -11q-122 0 -209 69t-115 188h-98v53h89q-3 24 -3 50t3 50h-89v53h98q28 119 114.5 188t209.5 69q62 0 106 -11
t99 -39v-57q-55 28 -99 39t-106 11q-97 0 -166 -53z" />
    <glyph glyph-name="uni20B4" unicode="&#x20b4;" horiz-adv-x="640" 
d="M57 398v54h378q35 35 35 86q0 30 -18.5 56.5t-53 42.5t-78.5 16q-73 0 -115 -32.5t-50 -85.5h-60q8 78 66.5 126.5t158.5 48.5q62 0 109.5 -23t74 -61.5t26.5 -83.5q0 -28 -8.5 -51.5t-21.5 -38.5h83v-54h-526zM210.5 13q-47.5 23 -74 61.5t-26.5 83.5q0 28 8.5 51.5
t21.5 38.5h-83v54h526v-54h-378q-35 -35 -35 -86q0 -30 18.5 -56.5t53 -42.5t78.5 -16q73 0 115 32.5t50 85.5h60q-8 -78 -66.5 -126.5t-158.5 -48.5q-62 0 -109.5 23z" />
    <glyph glyph-name="uni20B8" unicode="&#x20b8;" horiz-adv-x="587" 
d="M562 643h-537v57h537v-57zM323 0h-60v500h-238v57h537v-57h-239v-500z" />
    <glyph glyph-name="uni20B9" unicode="&#x20b9;" horiz-adv-x="550" 
d="M515 700v-57h-120q26 -16 44 -50t21 -73h55v-57h-55q-9 -82 -61.5 -132.5t-133.5 -50.5h-78l290 -280h-77l-290 280h-62v57h217q57 0 91.5 33t43.5 93h-352v57h352q-9 58 -43.5 90.5t-91.5 32.5h-217v57h467z" />
    <glyph glyph-name="uni20BA" unicode="&#x20ba;" horiz-adv-x="560" 
d="M527 242q0 -82 -32.5 -135t-108 -80t-203.5 -27h-60v299l-83 -31v57l83 31v87l-83 -31v56l83 31v201h60v-179l169 62v-56l-169 -62v-87l169 62v-57l-169 -62v-264q108 0 170 19.5t88 59.5t26 106h60z" />
    <glyph glyph-name="uni20BD" unicode="&#x20bd;" horiz-adv-x="648" 
d="M117 0v147h-90v53h90v97h-90v56h90v347h286q56 0 100.5 -25.5t70.5 -72t26 -104.5t-26 -104t-70.5 -71.5t-100.5 -25.5h-226v-97h228v-53h-228v-147h-60zM403 353q60 0 98.5 40t38.5 105q0 66 -38.5 105.5t-98.5 39.5h-226v-290h226z" />
    <glyph glyph-name="uni20BF" unicode="&#x20bf;" horiz-adv-x="638" 
d="M202 -110v110h-115v700h115v110h56v-110h89v110h56v-114q70 -10 115 -60.5t45 -125.5q0 -56 -27 -97.5t-61 -57.5v-5q39 -14 68.5 -56.5t29.5 -103.5q0 -79 -47.5 -130.5t-122.5 -59.5v-110h-56v110h-89v-110h-56zM373 377q55 0 92.5 37.5t37.5 95.5t-37 95.5t-93 37.5
h-226v-266h226zM383 57q56 0 93 37.5t37 95.5t-37 95.5t-93 37.5h-236v-266h236z" />
    <glyph glyph-name="uni2113" unicode="&#x2113;" horiz-adv-x="365" 
d="M137 27q-34 37 -34 103v122q-40 -15 -80 -15v53q23 1 45.5 5.5t34.5 9.5v260q0 72 29.5 108.5t79.5 36.5q53 0 83 -37.5t30 -117.5q0 -96 -44.5 -170t-120.5 -114v-141q0 -41 21 -64t54 -23q25 0 52 15v-53q-30 -15 -59 -15q-57 0 -91 37zM160 332q52 31 80 88.5
t28 134.5q0 53 -15.5 77.5t-40.5 24.5q-52 0 -52 -97v-228z" />
    <glyph glyph-name="uni2116" unicode="&#x2116;" horiz-adv-x="1057" 
d="M147 0h-60v700h110l336 -630h20v630h60v-700h-110l-336 630h-20v-630zM774 160q-35 20 -55.5 55.5t-20.5 79.5t20.5 79.5t55.5 55.5t76 20t76 -20t55.5 -55.5t20.5 -79.5t-20.5 -79.5t-55.5 -55.5t-76 -20t-76 20zM919 219q29 29 29 76t-29 76t-69 29t-69 -29t-29 -76
t29 -76t69 -29t69 29zM997 0h-294v53h294v-53z" />
    <glyph glyph-name="uni2117" unicode="&#x2117;" horiz-adv-x="840" 
d="M238.5 37q-81.5 47 -128.5 129t-47 184t47 184t128.5 129t181.5 47t181.5 -47t128.5 -129t47 -184t-47 -184t-128.5 -129t-181.5 -47t-181.5 47zM572.5 80.5q69.5 40.5 110 111.5t40.5 158t-40.5 158t-110 111.5t-152.5 40.5t-152.5 -40.5t-110 -111.5t-40.5 -158
t40.5 -158t110 -111.5t152.5 -40.5t152.5 40.5zM307 165v375h160q56 0 91 -35t35 -87t-35 -86.5t-91 -34.5h-110v-132h-50zM467 343q36 0 56 20.5t20 54.5t-20 54.5t-56 20.5h-110v-150h110z" />
    <glyph glyph-name="trademark" unicode="&#x2122;" horiz-adv-x="718" 
d="M160 400h-43v257h-97v43h237v-43h-97v-257zM355 400h-43v300h81l85 -243h10l85 243h82v-300h-43v253h-10l-89 -253h-60l-88 253h-10v-253z" />
    <glyph glyph-name="uni2126" unicode="&#x2126;" horiz-adv-x="823" 
d="M100 0v57h143q-68 36 -123 112t-55 189q0 102 45.5 182t124.5 125t177 45q97 0 176 -45t124.5 -125t45.5 -182q0 -113 -55 -189t-123 -112h143v-57h-238v57q50 18 99 58.5t81.5 103t32.5 139.5q0 85 -37.5 152.5t-102.5 105t-146 37.5t-146.5 -37.5t-103 -104.5
t-37.5 -153q0 -77 32.5 -139.5t81.5 -103t99 -58.5v-57h-238z" />
    <glyph glyph-name="estimated" unicode="&#x212e;" horiz-adv-x="850" 
d="M252 38q-85 48 -133.5 130.5t-48.5 181.5q0 98 48 181t131 131t181 48t181 -48t131 -131t48 -181v-5h-570v-238q30 -31 90 -56.5t130 -25.5q63 0 119 23t97 57.5t64 69.5l30 -25q-26 -38 -72 -74.5t-108 -61t-130 -24.5q-103 0 -188 48zM220 380h420v215q-42 38 -96.5 59
t-113.5 21t-113.5 -21t-96.5 -59v-215z" />
    <glyph glyph-name="uni2150" unicode="&#x2150;" horiz-adv-x="691" 
d="M128 340v267h-91v43h61q30 0 30 30v20h47v-360h-47zM125 0h-54l435 700h54zM525 0h-47l135 317h-175v43h223v-40z" />
    <glyph glyph-name="uni2151" unicode="&#x2151;" horiz-adv-x="705" 
d="M128 340v267h-91v43h61q30 0 30 30v20h47v-360h-47zM125 0h-54l435 700h54zM496 0l84 132h-5q-16 -10 -40 -10q-50 0 -85 34t-35 84q0 53 36 89t90 36t90.5 -36t36.5 -87q0 -46 -20 -79l-102 -163h-50zM598 185q23 23 23 57t-23 57t-57 23t-57 -23t-23 -57t23 -57t57 -23
t57 23z" />
    <glyph glyph-name="uni2152" unicode="&#x2152;" horiz-adv-x="953" 
d="M128 340v267h-91v43h61q30 0 30 30v20h47v-360h-47zM125 0h-54l435 700h54zM526 0v267h-91v43h61q30 0 30 30v20h47v-360h-47zM681 43.5q-38 48.5 -38 136.5t38 136.5t98 48.5t98.5 -48.5t38.5 -136.5t-38.5 -136.5t-98.5 -48.5t-98 48.5zM843.5 75.5
q25.5 37.5 25.5 104.5t-25.5 104.5t-64.5 37.5q-38 0 -64 -37.5t-26 -104.5t26 -104.5t64 -37.5q39 0 64.5 37.5z" />
    <glyph glyph-name="uni2153" unicode="&#x2153;" horiz-adv-x="686" 
d="M128 340v267h-91v43h61q30 0 30 30v20h47v-360h-47zM125 0h-54l435 700h54zM436 25q-33 30 -33 75h47q0 -25 19.5 -43.5t50.5 -18.5t50.5 17t19.5 47t-20 46.5t-54 16.5h-26v43h26q32 0 50.5 15.5t18.5 43.5q0 25 -17.5 40t-47.5 15q-31 0 -48 -16t-17 -41h-47
q0 42 31 71t81 29q49 0 80.5 -28t31.5 -70q0 -24 -14 -45t-38 -32v-5q24 -9 40 -31t16 -52q0 -46 -32 -76.5t-84 -30.5q-51 0 -84 30z" />
    <glyph glyph-name="uni2154" unicode="&#x2154;" horiz-adv-x="765" 
d="M57 340v38l141 150q19 20 27 35t8 35q0 27 -17.5 45.5t-47.5 18.5q-31 0 -50.5 -19t-19.5 -53h-46q0 50 32.5 82.5t83.5 32.5t81.5 -29.5t30.5 -77.5q0 -31 -11.5 -52t-38.5 -49l-102 -109v-5h157v-43h-228zM204 0h-54l435 700h54zM515 25q-33 30 -33 75h47
q0 -25 19.5 -43.5t50.5 -18.5t50.5 17t19.5 47t-20 46.5t-54 16.5h-26v43h26q32 0 50.5 15.5t18.5 43.5q0 25 -17.5 40t-47.5 15q-31 0 -48 -16t-17 -41h-47q0 42 31 71t81 29q49 0 80.5 -28t31.5 -70q0 -24 -14 -45t-38 -32v-5q24 -9 40 -31t16 -52q0 -46 -32 -76.5
t-84 -30.5q-51 0 -84 30z" />
    <glyph glyph-name="uni2155" unicode="&#x2155;" horiz-adv-x="710" 
d="M128 340v267h-91v43h61q30 0 30 30v20h47v-360h-47zM125 0h-54l435 700h54zM456.5 22.5q-33.5 27.5 -40.5 77.5h47q15 -62 80 -62q35 0 57.5 22.5t22.5 57.5q0 38 -22 59t-58 21q-23 0 -40.5 -9t-32.5 -29h-49l20 200h209v-43h-167l-12 -105h5q16 16 32.5 23t41.5 7
q50 0 85 -35t35 -89q0 -53 -35 -88t-92 -35q-53 0 -86.5 27.5z" />
    <glyph glyph-name="uni2156" unicode="&#x2156;" horiz-adv-x="789" 
d="M57 340v38l141 150q19 20 27 35t8 35q0 27 -17.5 45.5t-47.5 18.5q-31 0 -50.5 -19t-19.5 -53h-46q0 50 32.5 82.5t83.5 32.5t81.5 -29.5t30.5 -77.5q0 -31 -11.5 -52t-38.5 -49l-102 -109v-5h157v-43h-228zM204 0h-54l435 700h54zM535.5 22.5q-33.5 27.5 -40.5 77.5h47
q15 -62 80 -62q35 0 57.5 22.5t22.5 57.5q0 38 -22 59t-58 21q-23 0 -40.5 -9t-32.5 -29h-49l20 200h209v-43h-167l-12 -105h5q16 16 32.5 23t41.5 7q50 0 85 -35t35 -89q0 -53 -35 -88t-92 -35q-53 0 -86.5 27.5z" />
    <glyph glyph-name="uni2157" unicode="&#x2157;" horiz-adv-x="765" 
d="M78 365q-33 30 -33 75h47q0 -25 19.5 -43.5t50.5 -18.5t50.5 17t19.5 47t-20 46.5t-54 16.5h-26v43h26q32 0 50.5 15.5t18.5 43.5q0 25 -17.5 40t-47.5 15q-31 0 -48 -16t-17 -41h-47q0 42 31 71t81 29q49 0 80.5 -28t31.5 -70q0 -24 -14 -45t-38 -32v-5q24 -9 40 -31
t16 -52q0 -46 -32 -76.5t-84 -30.5q-51 0 -84 30zM180 0h-54l435 700h54zM511.5 22.5q-33.5 27.5 -40.5 77.5h47q15 -62 80 -62q35 0 57.5 22.5t22.5 57.5q0 38 -22 59t-58 21q-23 0 -40.5 -9t-32.5 -29h-49l20 200h209v-43h-167l-12 -105h5q16 16 32.5 23t41.5 7
q50 0 85 -35t35 -89q0 -53 -35 -88t-92 -35q-53 0 -86.5 27.5z" />
    <glyph glyph-name="uni2158" unicode="&#x2158;" horiz-adv-x="785" 
d="M232 340h-47v80h-165v40l138 240h74v-237h53v-43h-53v-80zM78 468v-5h107v177h-10zM200 0h-54l435 700h54zM531.5 22.5q-33.5 27.5 -40.5 77.5h47q15 -62 80 -62q35 0 57.5 22.5t22.5 57.5q0 38 -22 59t-58 21q-23 0 -40.5 -9t-32.5 -29h-49l20 200h209v-43h-167
l-12 -105h5q16 16 32.5 23t41.5 7q50 0 85 -35t35 -89q0 -53 -35 -88t-92 -35q-53 0 -86.5 27.5z" />
    <glyph glyph-name="uni2159" unicode="&#x2159;" horiz-adv-x="665" 
d="M128 340v267h-91v43h61q30 0 30 30v20h47v-360h-47zM125 0h-54l435 700h54zM411 30.5q-36 35.5 -36 87.5q0 46 20 79l101 163h50l-83 -132h5q16 10 40 10q50 0 85 -34t35 -84q0 -53 -36 -89t-91 -36q-54 0 -90 35.5zM558 61q23 23 23 57t-23 57t-57 23t-57 -23t-23 -57
t23 -57t57 -23t57 23z" />
    <glyph glyph-name="uni215A" unicode="&#x215a;" horiz-adv-x="724" 
d="M78.5 362.5q-33.5 27.5 -40.5 77.5h47q15 -62 80 -62q35 0 57.5 22.5t22.5 57.5q0 38 -22 59t-58 21q-23 0 -40.5 -9t-32.5 -29h-49l20 200h209v-43h-167l-12 -105h5q16 16 32.5 23t41.5 7q50 0 85 -35t35 -89q0 -53 -35 -88t-92 -35q-53 0 -86.5 27.5zM184 0h-54
l435 700h54zM470 30.5q-36 35.5 -36 87.5q0 46 20 79l101 163h50l-83 -132h5q16 10 40 10q50 0 85 -34t35 -84q0 -53 -36 -89t-91 -36q-54 0 -90 35.5zM617 61q23 23 23 57t-23 57t-57 23t-57 -23t-23 -57t23 -57t57 -23t57 23z" />
    <glyph glyph-name="oneeighth" unicode="&#x215b;" horiz-adv-x="695" 
d="M128 340v267h-91v43h61q30 0 30 30v20h47v-360h-47zM125 0h-54l435 700h54zM439 25q-34 30 -34 73q0 32 16 54.5t37 32.5v5q-19 8 -33.5 28t-14.5 49q0 42 33 70t83 28t83.5 -28t33.5 -70q0 -29 -14.5 -49t-33.5 -28v-5q21 -10 37 -32.5t16 -54.5q0 -43 -34 -73t-88 -30
q-53 0 -87 30zM575.5 220q20.5 15 20.5 43t-20.5 43.5t-49.5 15.5t-49.5 -15.5t-20.5 -43.5t20.5 -43t49.5 -15t49.5 15zM580 56q21 18 21 46t-21 45.5t-54 17.5q-32 0 -53.5 -18t-21.5 -45q0 -28 21.5 -46t53.5 -18q33 0 54 18z" />
    <glyph glyph-name="threeeighths" unicode="&#x215c;" horiz-adv-x="750" 
d="M78 365q-33 30 -33 75h47q0 -25 19.5 -43.5t50.5 -18.5t50.5 17t19.5 47t-20 46.5t-54 16.5h-26v43h26q32 0 50.5 15.5t18.5 43.5q0 25 -17.5 40t-47.5 15q-31 0 -48 -16t-17 -41h-47q0 42 31 71t81 29q49 0 80.5 -28t31.5 -70q0 -24 -14 -45t-38 -32v-5q24 -9 40 -31
t16 -52q0 -46 -32 -76.5t-84 -30.5q-51 0 -84 30zM180 0h-54l435 700h54zM494 25q-34 30 -34 73q0 32 16 54.5t37 32.5v5q-19 8 -33.5 28t-14.5 49q0 42 33 70t83 28t83.5 -28t33.5 -70q0 -29 -14.5 -49t-33.5 -28v-5q21 -10 37 -32.5t16 -54.5q0 -43 -34 -73t-88 -30
q-53 0 -87 30zM630.5 220q20.5 15 20.5 43t-20.5 43.5t-49.5 15.5t-49.5 -15.5t-20.5 -43.5t20.5 -43t49.5 -15t49.5 15zM635 56q21 18 21 46t-21 45.5t-54 17.5q-32 0 -53.5 -18t-21.5 -45q0 -28 21.5 -46t53.5 -18q33 0 54 18z" />
    <glyph glyph-name="fiveeighths" unicode="&#x215d;" horiz-adv-x="754" 
d="M78.5 362.5q-33.5 27.5 -40.5 77.5h47q15 -62 80 -62q35 0 57.5 22.5t22.5 57.5q0 38 -22 59t-58 21q-23 0 -40.5 -9t-32.5 -29h-49l20 200h209v-43h-167l-12 -105h5q16 16 32.5 23t41.5 7q50 0 85 -35t35 -89q0 -53 -35 -88t-92 -35q-53 0 -86.5 27.5zM184 0h-54
l435 700h54zM498 25q-34 30 -34 73q0 32 16 54.5t37 32.5v5q-19 8 -33.5 28t-14.5 49q0 42 33 70t83 28t83.5 -28t33.5 -70q0 -29 -14.5 -49t-33.5 -28v-5q21 -10 37 -32.5t16 -54.5q0 -43 -34 -73t-88 -30q-53 0 -87 30zM634.5 220q20.5 15 20.5 43t-20.5 43.5t-49.5 15.5
t-49.5 -15.5t-20.5 -43.5t20.5 -43t49.5 -15t49.5 15zM639 56q21 18 21 46t-21 45.5t-54 17.5q-32 0 -53.5 -18t-21.5 -45q0 -28 21.5 -46t53.5 -18q33 0 54 18z" />
    <glyph glyph-name="seveneighths" unicode="&#x215e;" horiz-adv-x="715" 
d="M127 340h-47l135 317h-175v43h223v-40zM145 0h-54l435 700h54zM459 25q-34 30 -34 73q0 32 16 54.5t37 32.5v5q-19 8 -33.5 28t-14.5 49q0 42 33 70t83 28t83.5 -28t33.5 -70q0 -29 -14.5 -49t-33.5 -28v-5q21 -10 37 -32.5t16 -54.5q0 -43 -34 -73t-88 -30q-53 0 -87 30
zM595.5 220q20.5 15 20.5 43t-20.5 43.5t-49.5 15.5t-49.5 -15.5t-20.5 -43.5t20.5 -43t49.5 -15t49.5 15zM600 56q21 18 21 46t-21 45.5t-54 17.5q-32 0 -53.5 -18t-21.5 -45q0 -28 21.5 -46t53.5 -18q33 0 54 18z" />
    <glyph glyph-name="uni215F" unicode="&#x215f;" horiz-adv-x="358" 
d="M128 340v267h-91v43h61q30 0 30 30v20h47v-360h-47zM125 0h-54l435 700h54z" />
    <glyph glyph-name="arrowleft" unicode="&#x2190;" horiz-adv-x="1000" 
d="M393 160h-61l-182 182v16l182 182h61v-10l-148 -148v-5h605v-54h-605v-5l148 -148v-10z" />
    <glyph glyph-name="arrowup" unicode="&#x2191;" horiz-adv-x="1000" 
d="M528 0h-57v602h-5l-148 -149h-10v62l185 185h13l185 -185v-62h-10l-148 149h-5v-602z" />
    <glyph glyph-name="arrowright" unicode="&#x2192;" horiz-adv-x="1000" 
d="M668 160h-61v10l148 148v5h-605v54h605v5l-148 148v10h61l182 -182v-16z" />
    <glyph glyph-name="arrowdown" unicode="&#x2193;" horiz-adv-x="1000" 
d="M506 0h-13l-185 185v62h10l148 -149h5v602h57v-602h5l148 149h10v-62z" />
    <glyph glyph-name="uni2196" unicode="&#x2196;" horiz-adv-x="1000" 
d="M768 130l-39 -38l-421 421l-5 -5v-210l-5 -5l-45 45v260l9 9h259l45 -45l-5 -5h-210l-5 -5z" />
    <glyph glyph-name="uni2197" unicode="&#x2197;" horiz-adv-x="1000" 
d="M692 513l-421 -421l-39 38l422 422l-5 5h-210l-5 5l45 45h259l9 -9v-260l-45 -45l-5 5v210z" />
    <glyph glyph-name="uni2198" unicode="&#x2198;" horiz-adv-x="1000" 
d="M738 92h-259l-45 45l5 5h210l5 5l-422 421l39 39l421 -422l5 5v210l5 5l45 -45v-259z" />
    <glyph glyph-name="uni2199" unicode="&#x2199;" horiz-adv-x="1000" 
d="M521 92h-259l-9 9v259l45 45l5 -5v-210l5 -5l421 422l39 -39l-422 -421l5 -5h210l5 -5z" />
    <glyph glyph-name="partialdiff" unicode="&#x2202;" horiz-adv-x="558" 
d="M427 619.5q65 -90.5 65 -279.5q0 -179 -63.5 -264.5t-170.5 -85.5q-54 0 -100.5 29.5t-74.5 81t-28 114.5q0 64 28 115t76 80.5t104 29.5q60 0 104 -25t63 -55h5q0 153 -49.5 225t-130.5 72q-42 0 -70 -18.5t-43 -48.5h-57q7 31 31 58.5t60.5 44.5t81.5 17
q104 0 169 -90.5zM381.5 104.5q46.5 61.5 49.5 186.5q-20 36 -64.5 66t-99.5 30q-43 0 -78.5 -21.5t-56 -61t-20.5 -89.5q0 -49 21 -88t55.5 -61.5t73.5 -22.5q73 0 119.5 61.5z" />
    <glyph glyph-name="emptyset" unicode="&#x2205;" horiz-adv-x="840" 
d="M673 605q46 -48 71.5 -113.5t25.5 -141.5q0 -103 -45.5 -185.5t-125.5 -128.5t-179 -46q-60 0 -114 17.5t-98 50.5l-61 -71h-72l92 108q-46 48 -71.5 113.5t-25.5 141.5q0 103 45.5 185.5t125.5 128.5t179 46q60 0 114 -17.5t98 -50.5l61 71h72zM149.5 233
q19.5 -54 55.5 -94l390 459q-75 55 -175 55q-83 0 -149 -38.5t-103.5 -107t-37.5 -157.5q0 -63 19.5 -117zM569 85.5q66 38.5 103.5 107t37.5 157.5q0 63 -19.5 117t-55.5 94l-390 -459q75 -55 175 -55q83 0 149 38.5z" />
    <glyph glyph-name="uni2206" unicode="&#x2206;" horiz-adv-x="660" 
d="M623 0h-586l255 700h76zM330 637l-210 -580h420z" />
    <glyph glyph-name="product" unicode="&#x220f;" horiz-adv-x="725" 
d="M167 -110h-60v810h511v-810h-60v753h-391v-753z" />
    <glyph glyph-name="summation" unicode="&#x2211;" horiz-adv-x="602" 
d="M550 -110h-480v50l242 370l-242 340v50h480v-57h-405l238 -333l-238 -363h405v-57z" />
    <glyph glyph-name="minus" unicode="&#x2212;" horiz-adv-x="530" 
d="M478 263h-426v54h426v-54z" />
    <glyph glyph-name="radical" unicode="&#x221a;" horiz-adv-x="612" 
d="M317 -110h-87l-82 267h-125v56h167l75 -260h17l251 857h60z" />
    <glyph glyph-name="infinity" unicode="&#x221e;" horiz-adv-x="790" 
d="M143 222.5q-35 19.5 -55 53.5t-20 74q0 41 20 74.5t55 53t79 19.5q50 0 91.5 -29t81.5 -80q40 51 81.5 80t91.5 29q44 0 79 -19.5t55 -53t20 -74.5t-20 -74.5t-55 -53t-79 -19.5q-50 0 -91.5 29t-81.5 80q-40 -51 -81.5 -80t-91.5 -29q-44 0 -79 19.5zM294 279
q34 26 67 71q-70 97 -139 97q-44 0 -72 -27.5t-28 -69.5t28 -69.5t72 -27.5q38 0 72 26zM640 280.5q28 27.5 28 69.5t-28 69.5t-72 27.5q-38 0 -72 -26t-67 -71q70 -97 139 -97q44 0 72 27.5z" />
    <glyph glyph-name="integral" unicode="&#x222b;" horiz-adv-x="383" 
d="M53 -110v50h30q42 0 62 23t20 77v620q0 83 30.5 116.5t104.5 33.5h30v-50h-30q-42 0 -62 -23t-20 -77v-620q0 -83 -30.5 -116.5t-104.5 -33.5h-30z" />
    <glyph glyph-name="approxequal" unicode="&#x2248;" horiz-adv-x="558" 
d="M48 295q3 64 39 100.5t96 36.5q32 0 56.5 -12t54.5 -35q26 -19 43 -28t38 -9q35 0 55.5 21.5t22.5 62.5h57q-2 -64 -38.5 -100.5t-96.5 -36.5q-32 0 -56 12t-55 34q-26 19 -43 28t-38 9q-35 0 -55.5 -21t-22.5 -62h-57zM48 118q3 64 39 100.5t96 36.5q32 0 56 -12t55 -34
q26 -19 43 -28t38 -9q36 0 56 21t22 62h57q-2 -64 -38.5 -100.5t-96.5 -36.5q-32 0 -56.5 12t-54.5 35q-26 19 -43 28t-38 9q-35 0 -55.5 -21.5t-22.5 -62.5h-57z" />
    <glyph glyph-name="notequal" unicode="&#x2260;" horiz-adv-x="525" 
d="M208 70h-57l43 113h-117v54h136l42 106h-178v54h197l42 113h57l-42 -113h117v-54h-136l-42 -106h178v-54h-197z" />
    <glyph glyph-name="lessequal" unicode="&#x2264;" horiz-adv-x="532" 
d="M472 180v-57l-415 160v54l415 160v-57l-349 -130zM472 0h-415v53h415v-53z" />
    <glyph glyph-name="greaterequal" unicode="&#x2265;" horiz-adv-x="532" 
d="M475 283l-415 -160v57l348 130l-348 130v57l415 -160v-54zM475 0h-415v53h415v-53z" />
    <glyph glyph-name="uni2318" unicode="&#x2318;" horiz-adv-x="800" 
d="M88 36.5q-38 36.5 -38 93.5q0 63 38.5 100.5t108.5 37.5h75v164h-75q-70 0 -108.5 37.5t-38.5 100.5q0 57 38 93.5t99 36.5q63 0 100.5 -40t37.5 -110v-68h150v68q0 70 37.5 110t100.5 40q61 0 99 -36.5t38 -93.5q0 -63 -38.5 -100.5t-108.5 -37.5h-75v-164h75
q70 0 108.5 -37.5t38.5 -100.5q0 -57 -38 -93.5t-99 -36.5q-63 0 -100.5 40t-37.5 110v68h-150v-68q0 -70 -37.5 -110t-100.5 -40q-61 0 -99 36.5zM272 482v68q0 48 -23.5 74t-61.5 26q-37 0 -60.5 -23.5t-23.5 -59.5q0 -39 24.5 -62t69.5 -23h75zM603 482q45 0 69.5 23
t24.5 62q0 36 -23.5 59.5t-60.5 23.5q-38 0 -61.5 -26t-23.5 -74v-68h75zM325 432v-164h150v164h-150zM248.5 76q23.5 26 23.5 74v68h-75q-45 0 -69.5 -23t-24.5 -62q0 -36 23.5 -59.5t60.5 -23.5q38 0 61.5 26zM673.5 73.5q23.5 23.5 23.5 59.5q0 39 -24.5 62t-69.5 23h-75
v-68q0 -48 23.5 -74t61.5 -26q37 0 60.5 23.5z" />
    <glyph glyph-name="uni2460" unicode="&#x2460;" horiz-adv-x="1000" 
d="M288 -14q-96 56 -152 152t-56 212t56 212t152 152t212 56t212 -56t152 -152t56 -212t-56 -212t-152 -152t-212 -56t-212 56zM689.5 26q85.5 49 134.5 134.5t49 189.5t-49 189.5t-134.5 134.5t-189.5 49t-189.5 -49t-134.5 -134.5t-49 -189.5t49 -189.5t134.5 -134.5
t189.5 -49t189.5 49zM490 170v267h-92v43h62q30 0 30 30v20h47v-360h-47z" />
    <glyph glyph-name="uni2461" unicode="&#x2461;" horiz-adv-x="1000" 
d="M288 -14q-96 56 -152 152t-56 212t56 212t152 152t212 56t212 -56t152 -152t56 -212t-56 -212t-152 -152t-212 -56t-212 56zM689.5 26q85.5 49 134.5 134.5t49 189.5t-49 189.5t-134.5 134.5t-189.5 49t-189.5 -49t-134.5 -134.5t-49 -189.5t49 -189.5t134.5 -134.5
t189.5 -49t189.5 49zM388 170v38l142 150q19 20 27 35t8 35q0 27 -17.5 45.5t-47.5 18.5q-31 0 -50.5 -19t-19.5 -53h-47q0 50 33 82.5t84 32.5t81.5 -29.5t30.5 -77.5q0 -31 -11.5 -51.5t-38.5 -49.5l-102 -109v-5h157v-43h-229z" />
    <glyph glyph-name="uni2462" unicode="&#x2462;" horiz-adv-x="1000" 
d="M288 -14q-96 56 -152 152t-56 212t56 212t152 152t212 56t212 -56t152 -152t56 -212t-56 -212t-152 -152t-212 -56t-212 56zM689.5 26q85.5 49 134.5 134.5t49 189.5t-49 189.5t-134.5 134.5t-189.5 49t-189.5 -49t-134.5 -134.5t-49 -189.5t49 -189.5t134.5 -134.5
t189.5 -49t189.5 49zM416 195q-33 30 -33 75h47q0 -26 19.5 -44t50.5 -18q32 0 51 17t19 47t-19.5 46.5t-53.5 16.5h-27v43h27q32 0 50 15.5t18 43.5q0 25 -17.5 40t-47.5 15q-31 0 -48 -16t-17 -41h-47q0 42 31 71t81 29t81 -28t31 -70q0 -24 -14 -45t-38 -32v-5
q25 -9 41 -31t16 -52q0 -46 -32 -76.5t-85 -30.5q-51 0 -84 30z" />
    <glyph glyph-name="uni2463" unicode="&#x2463;" horiz-adv-x="1000" 
d="M288 -14q-96 56 -152 152t-56 212t56 212t152 152t212 56t212 -56t152 -152t56 -212t-56 -212t-152 -152t-212 -56t-212 56zM689.5 26q85.5 49 134.5 134.5t49 189.5t-49 189.5t-134.5 134.5t-189.5 49t-189.5 -49t-134.5 -134.5t-49 -189.5t49 -189.5t134.5 -134.5
t189.5 -49t189.5 49zM560 170h-47v80h-165v40l139 240h73v-237h53v-43h-53v-80zM407 298v-5h106v177h-10z" />
    <glyph glyph-name="uni2464" unicode="&#x2464;" horiz-adv-x="1000" 
d="M288 -14q-96 56 -152 152t-56 212t56 212t152 152t212 56t212 -56t152 -152t56 -212t-56 -212t-152 -152t-212 -56t-212 56zM689.5 26q85.5 49 134.5 134.5t49 189.5t-49 189.5t-134.5 134.5t-189.5 49t-189.5 -49t-134.5 -134.5t-49 -189.5t49 -189.5t134.5 -134.5
t189.5 -49t189.5 49zM413.5 192.5q-33.5 27.5 -40.5 77.5h47q15 -62 80 -62q35 0 57.5 22.5t22.5 57.5q0 38 -22 59t-58 21q-23 0 -40.5 -9t-32.5 -29h-49l20 200h209v-43h-167l-12 -105h5q16 16 32.5 23t41.5 7q50 0 85 -35t35 -89q0 -53 -35 -88t-92 -35q-53 0 -86.5 27.5
z" />
    <glyph glyph-name="uni2465" unicode="&#x2465;" horiz-adv-x="1000" 
d="M288 -14q-96 56 -152 152t-56 212t56 212t152 152t212 56t212 -56t152 -152t56 -212t-56 -212t-152 -152t-212 -56t-212 56zM689.5 26q85.5 49 134.5 134.5t49 189.5t-49 189.5t-134.5 134.5t-189.5 49t-189.5 -49t-134.5 -134.5t-49 -189.5t49 -189.5t134.5 -134.5
t189.5 -49t189.5 49zM409.5 201q-36.5 36 -36.5 87q0 46 20 79l102 163h50l-83 -132h5q14 10 40 10q50 0 85 -34t35 -84q0 -53 -36.5 -89t-90.5 -36t-90.5 36zM557 231q23 23 23 57t-23 57t-57 23t-57 -23t-23 -57t23 -57t57 -23t57 23z" />
    <glyph glyph-name="uni2466" unicode="&#x2466;" horiz-adv-x="1000" 
d="M288 -14q-96 56 -152 152t-56 212t56 212t152 152t212 56t212 -56t152 -152t56 -212t-56 -212t-152 -152t-212 -56t-212 56zM689.5 26q85.5 49 134.5 134.5t49 189.5t-49 189.5t-134.5 134.5t-189.5 49t-189.5 -49t-134.5 -134.5t-49 -189.5t49 -189.5t134.5 -134.5
t189.5 -49t189.5 49zM475 170h-47l136 317h-176v43h224v-40z" />
    <glyph glyph-name="uni2467" unicode="&#x2467;" horiz-adv-x="1000" 
d="M288 -14q-96 56 -152 152t-56 212t56 212t152 152t212 56t212 -56t152 -152t56 -212t-56 -212t-152 -152t-212 -56t-212 56zM689.5 26q85.5 49 134.5 134.5t49 189.5t-49 189.5t-134.5 134.5t-189.5 49t-189.5 -49t-134.5 -134.5t-49 -189.5t49 -189.5t134.5 -134.5
t189.5 -49t189.5 49zM412.5 195.5q-34.5 30.5 -34.5 72.5q0 32 16.5 54.5t37.5 32.5v5q-19 8 -34 28t-15 49q0 42 33.5 70t83.5 28t83.5 -28t33.5 -70q0 -29 -15 -49t-34 -28v-5q22 -10 38 -32.5t16 -54.5q0 -42 -34.5 -72.5t-87.5 -30.5t-87.5 30.5zM549.5 390
q20.5 15 20.5 43t-20.5 43.5t-49.5 15.5t-49.5 -15.5t-20.5 -43.5t20.5 -43t49.5 -15t49.5 15zM553.5 226q21.5 18 21.5 46t-21.5 45.5t-53.5 17.5t-53.5 -18t-21.5 -45q0 -28 21.5 -46t53.5 -18t53.5 18z" />
    <glyph glyph-name="uni2468" unicode="&#x2468;" horiz-adv-x="1000" 
d="M288 -14q-96 56 -152 152t-56 212t56 212t152 152t212 56t212 -56t152 -152t56 -212t-56 -212t-152 -152t-212 -56t-212 56zM689.5 26q85.5 49 134.5 134.5t49 189.5t-49 189.5t-134.5 134.5t-189.5 49t-189.5 -49t-134.5 -134.5t-49 -189.5t49 -189.5t134.5 -134.5
t189.5 -49t189.5 49zM455 170l83 132h-5q-14 -10 -40 -10q-50 0 -85 34t-35 84q0 53 36.5 89t90.5 36t90.5 -36t36.5 -87q0 -46 -20 -79l-102 -163h-50zM557 355q23 23 23 57t-23 57t-57 23t-57 -23t-23 -57t23 -57t57 -23t57 23z" />
    <glyph glyph-name="uni2469" unicode="&#x2469;" horiz-adv-x="1000" 
d="M288 -14q-96 56 -152 152t-56 212t56 212t152 152t212 56t212 -56t152 -152t56 -212t-56 -212t-152 -152t-212 -56t-212 56zM689.5 26q85.5 49 134.5 134.5t49 189.5t-49 189.5t-134.5 134.5t-189.5 49t-189.5 -49t-134.5 -134.5t-49 -189.5t49 -189.5t134.5 -134.5
t189.5 -49t189.5 49zM498.5 213.5q-38.5 48.5 -38.5 136.5t38.5 136.5t98.5 48.5t98 -48.5t38 -136.5t-38 -136.5t-98 -48.5t-98.5 48.5zM343 170v267h-91v43h61q30 0 30 30v20h47v-360h-47zM661 245.5q26 37.5 26 104.5t-26 104.5t-64 37.5q-39 0 -64.5 -37.5t-25.5 -104.5
t25.5 -104.5t64.5 -37.5q38 0 64 37.5z" />
    <glyph glyph-name="uni246A" unicode="&#x246a;" horiz-adv-x="1000" 
d="M288 -14q-96 56 -152 152t-56 212t56 212t152 152t212 56t212 -56t152 -152t56 -212t-56 -212t-152 -152t-212 -56t-212 56zM689.5 26q85.5 49 134.5 134.5t49 189.5t-49 189.5t-134.5 134.5t-189.5 49t-189.5 -49t-134.5 -134.5t-49 -189.5t49 -189.5t134.5 -134.5
t189.5 -49t189.5 49zM387 170v267h-92v43h62q30 0 30 30v20h46v-360h-46zM600 170v267h-92v43h62q30 0 30 30v20h47v-360h-47z" />
    <glyph glyph-name="uni246B" unicode="&#x246b;" horiz-adv-x="1000" 
d="M288 -14q-96 56 -152 152t-56 212t56 212t152 152t212 56t212 -56t152 -152t56 -212t-56 -212t-152 -152t-212 -56t-212 56zM689.5 26q85.5 49 134.5 134.5t49 189.5t-49 189.5t-134.5 134.5t-189.5 49t-189.5 -49t-134.5 -134.5t-49 -189.5t49 -189.5t134.5 -134.5
t189.5 -49t189.5 49zM483 170v38l142 150q19 20 27 35t8 35q0 27 -17.5 45.5t-47.5 18.5q-31 0 -50.5 -19t-19.5 -53h-47q0 50 33 82.5t84 32.5t81.5 -29.5t30.5 -77.5q0 -31 -11.5 -51.5t-38.5 -49.5l-102 -109v-5h157v-43h-229zM357 170v267h-92v43h62q30 0 30 30v20h46
v-360h-46z" />
    <glyph glyph-name="uni246C" unicode="&#x246c;" horiz-adv-x="1000" 
d="M288 -14q-96 56 -152 152t-56 212t56 212t152 152t212 56t212 -56t152 -152t56 -212t-56 -212t-152 -152t-212 -56t-212 56zM689.5 26q85.5 49 134.5 134.5t49 189.5t-49 189.5t-134.5 134.5t-189.5 49t-189.5 -49t-134.5 -134.5t-49 -189.5t49 -189.5t134.5 -134.5
t189.5 -49t189.5 49zM511 195q-33 30 -33 75h47q0 -25 19.5 -43.5t50.5 -18.5q32 0 51 17t19 47t-19.5 46.5t-53.5 16.5h-27v43h27q32 0 50 15.5t18 43.5q0 25 -17.5 40t-47.5 15q-31 0 -48 -16t-17 -41h-47q0 42 31 71t81 29t81 -28t31 -70q0 -24 -14 -45t-38 -32v-5
q25 -9 41 -31t16 -52q0 -46 -32 -76.5t-85 -30.5q-51 0 -84 30zM357 170v267h-92v43h62q30 0 30 30v20h46v-360h-46z" />
    <glyph glyph-name="uni246D" unicode="&#x246d;" horiz-adv-x="1000" 
d="M288 -14q-96 56 -152 152t-56 212t56 212t152 152t212 56t212 -56t152 -152t56 -212t-56 -212t-152 -152t-212 -56t-212 56zM689.5 26q85.5 49 134.5 134.5t49 189.5t-49 189.5t-134.5 134.5t-189.5 49t-189.5 -49t-134.5 -134.5t-49 -189.5t49 -189.5t134.5 -134.5
t189.5 -49t189.5 49zM348 170v267h-91v43h61q30 0 30 30v20h47v-360h-47zM673 170h-46v80h-165v40l138 240h73v-237h54v-43h-54v-80zM520 298v-5h107v177h-10z" />
    <glyph glyph-name="uni246E" unicode="&#x246e;" horiz-adv-x="1000" 
d="M288 -14q-96 56 -152 152t-56 212t56 212t152 152t212 56t212 -56t152 -152t56 -212t-56 -212t-152 -152t-212 -56t-212 56zM689.5 26q85.5 49 134.5 134.5t49 189.5t-49 189.5t-134.5 134.5t-189.5 49t-189.5 -49t-134.5 -134.5t-49 -189.5t49 -189.5t134.5 -134.5
t189.5 -49t189.5 49zM348 170v267h-91v43h61q30 0 30 30v20h47v-360h-47zM508.5 192.5q-33.5 27.5 -40.5 77.5h47q15 -62 80 -62q35 0 57.5 22.5t22.5 57.5q0 38 -22 59t-58 21q-23 0 -40.5 -9t-32.5 -29h-49l20 200h209v-43h-167l-12 -105h5q16 16 32.5 23t41.5 7
q50 0 85 -35t35 -89q0 -53 -35 -88t-92 -35q-53 0 -86.5 27.5z" />
    <glyph glyph-name="uni246F" unicode="&#x246f;" horiz-adv-x="1000" 
d="M288 -14q-96 56 -152 152t-56 212t56 212t152 152t212 56t212 -56t152 -152t56 -212t-56 -212t-152 -152t-212 -56t-212 56zM689.5 26q85.5 49 134.5 134.5t49 189.5t-49 189.5t-134.5 134.5t-189.5 49t-189.5 -49t-134.5 -134.5t-49 -189.5t49 -189.5t134.5 -134.5
t189.5 -49t189.5 49zM353 170v267h-91v43h61q30 0 30 30v20h47v-360h-47zM508 200.5q-36 35.5 -36 87.5q0 46 20 79l101 163h50l-83 -132h5q16 10 40 10q50 0 85 -34t35 -84q0 -53 -36 -89t-91 -36q-54 0 -90 35.5zM655 231q23 23 23 57t-23 57t-57 23t-57 -23t-23 -57
t23 -57t57 -23t57 23z" />
    <glyph glyph-name="uni2470" unicode="&#x2470;" horiz-adv-x="1000" 
d="M288 -14q-96 56 -152 152t-56 212t56 212t152 152t212 56t212 -56t152 -152t56 -212t-56 -212t-152 -152t-212 -56t-212 56zM689.5 26q85.5 49 134.5 134.5t49 189.5t-49 189.5t-134.5 134.5t-189.5 49t-189.5 -49t-134.5 -134.5t-49 -189.5t49 -189.5t134.5 -134.5
t189.5 -49t189.5 49zM370 170v267h-92v43h62q30 0 30 30v20h47v-360h-47zM570 170h-47l136 317h-176v43h224v-40z" />
    <glyph glyph-name="uni2471" unicode="&#x2471;" horiz-adv-x="1000" 
d="M288 -14q-96 56 -152 152t-56 212t56 212t152 152t212 56t212 -56t152 -152t56 -212t-56 -212t-152 -152t-212 -56t-212 56zM689.5 26q85.5 49 134.5 134.5t49 189.5t-49 189.5t-134.5 134.5t-189.5 49t-189.5 -49t-134.5 -134.5t-49 -189.5t49 -189.5t134.5 -134.5
t189.5 -49t189.5 49zM506 195q-34 30 -34 73q0 32 16 54.5t37 32.5v5q-19 8 -33.5 28t-14.5 49q0 42 33 70t83 28t83.5 -28t33.5 -70q0 -29 -14.5 -49t-33.5 -28v-5q21 -10 37 -32.5t16 -54.5q0 -43 -34 -73t-88 -30q-53 0 -87 30zM353 170v267h-91v43h61q30 0 30 30v20h47
v-360h-47zM642.5 390q20.5 15 20.5 43t-20.5 43.5t-49.5 15.5t-49.5 -15.5t-20.5 -43.5t20.5 -43t49.5 -15t49.5 15zM647 226q21 18 21 46t-21 45.5t-54 17.5q-32 0 -53.5 -18t-21.5 -45q0 -28 21.5 -46t53.5 -18q33 0 54 18z" />
    <glyph glyph-name="uni2472" unicode="&#x2472;" horiz-adv-x="1000" 
d="M288 -14q-96 56 -152 152t-56 212t56 212t152 152t212 56t212 -56t152 -152t56 -212t-56 -212t-152 -152t-212 -56t-212 56zM689.5 26q85.5 49 134.5 134.5t49 189.5t-49 189.5t-134.5 134.5t-189.5 49t-189.5 -49t-134.5 -134.5t-49 -189.5t49 -189.5t134.5 -134.5
t189.5 -49t189.5 49zM558 170l84 132h-5q-16 -10 -40 -10q-50 0 -85 34t-35 84q0 53 36 89t90 36t90.5 -36t36.5 -87q0 -46 -20 -79l-102 -163h-50zM358 170v267h-91v43h61q30 0 30 30v20h47v-360h-47zM660 355q23 23 23 57t-23 57t-57 23t-57 -23t-23 -57t23 -57t57 -23
t57 23z" />
    <glyph glyph-name="uni2473" unicode="&#x2473;" horiz-adv-x="1000" 
d="M288 -14q-96 56 -152 152t-56 212t56 212t152 152t212 56t212 -56t152 -152t56 -212t-56 -212t-152 -152t-212 -56t-212 56zM689.5 26q85.5 49 134.5 134.5t49 189.5t-49 189.5t-134.5 134.5t-189.5 49t-189.5 -49t-134.5 -134.5t-49 -189.5t49 -189.5t134.5 -134.5
t189.5 -49t189.5 49zM237 170v38l141 150q19 20 27 35t8 35q0 27 -17.5 45.5t-47.5 18.5q-31 0 -50.5 -19t-19.5 -53h-46q0 50 32.5 82.5t83.5 32.5t81.5 -29.5t30.5 -77.5q0 -31 -11.5 -52t-38.5 -49l-102 -109v-5h157v-43h-228zM548.5 213.5q-38.5 48.5 -38.5 136.5
t38.5 136.5t98.5 48.5t98 -48.5t38 -136.5t-38 -136.5t-98 -48.5t-98.5 48.5zM711 245.5q26 37.5 26 104.5t-26 104.5t-64 37.5q-39 0 -64.5 -37.5t-25.5 -104.5t25.5 -104.5t64.5 -37.5q38 0 64 37.5z" />
    <glyph glyph-name="uni24EA" unicode="&#x24ea;" horiz-adv-x="1000" 
d="M288 -14q-96 56 -152 152t-56 212t56 212t152 152t212 56t212 -56t152 -152t56 -212t-56 -212t-152 -152t-212 -56t-212 56zM689.5 26q85.5 49 134.5 134.5t49 189.5t-49 189.5t-134.5 134.5t-189.5 49t-189.5 -49t-134.5 -134.5t-49 -189.5t49 -189.5t134.5 -134.5
t189.5 -49t189.5 49zM401.5 213.5q-38.5 48.5 -38.5 136.5t38.5 136.5t98.5 48.5t98.5 -48.5t38.5 -136.5t-38.5 -136.5t-98.5 -48.5t-98.5 48.5zM564 245.5q26 37.5 26 104.5t-26 104.5t-64 37.5t-64 -37.5t-26 -104.5t26 -104.5t64 -37.5t64 37.5z" />
    <glyph glyph-name="uni24EB" unicode="&#x24eb;" horiz-adv-x="1000" 
d="M288 -14q-96 56 -152 152t-56 212t56 212t152 152t212 56t212 -56t152 -152t56 -212t-56 -212t-152 -152t-212 -56t-212 56zM383 170h47v360h-47v-20q0 -30 -30 -30h-61v-43h91v-267zM597 170h46v360h-46v-20q0 -30 -30 -30h-62v-43h92v-267z" />
    <glyph glyph-name="uni24EC" unicode="&#x24ec;" horiz-adv-x="1000" 
d="M288 -14q-96 56 -152 152t-56 212t56 212t152 152t212 56t212 -56t152 -152t56 -212t-56 -212t-152 -152t-212 -56t-212 56zM483 170h229v43h-157v5l102 109q27 29 38.5 49.5t11.5 51.5q0 48 -30.5 77.5t-81.5 29.5t-84 -32.5t-33 -82.5h47q0 34 19.5 53t50.5 19
q30 0 47.5 -18.5t17.5 -45.5q0 -20 -8 -35t-27 -35l-142 -150v-38zM357 170h46v360h-46v-20q0 -30 -30 -30h-62v-43h92v-267z" />
    <glyph glyph-name="uni24ED" unicode="&#x24ed;" horiz-adv-x="1000" 
d="M288 -14q-96 56 -152 152t-56 212t56 212t152 152t212 56t212 -56t152 -152t56 -212t-56 -212t-152 -152t-212 -56t-212 56zM680 195.5q32 30.5 32 76.5q0 30 -16 52t-41 31v5q24 11 38 32t14 45q0 42 -31 70t-81 28t-81 -29t-31 -71h47q0 25 17 41t48 16q30 0 47.5 -15
t17.5 -40q0 -28 -18 -43.5t-50 -15.5h-27v-43h27q34 0 53.5 -16.5t19.5 -46.5t-19 -47t-51 -17q-31 0 -50.5 18.5t-19.5 43.5h-47q0 -45 33 -75t84 -30q53 0 85 30.5zM357 170h46v360h-46v-20q0 -30 -30 -30h-62v-43h92v-267z" />
    <glyph glyph-name="uni24EE" unicode="&#x24ee;" horiz-adv-x="1000" 
d="M288 -14q-96 56 -152 152t-56 212t56 212t152 152t212 56t212 -56t152 -152t56 -212t-56 -212t-152 -152t-212 -56t-212 56zM348 170h47v360h-47v-20q0 -30 -30 -30h-61v-43h91v-267zM627 250v-80h46v80h54v43h-54v237h-73l-138 -240v-40h165zM627 293h-107v5l97 172h10
v-177z" />
    <glyph glyph-name="uni24EF" unicode="&#x24ef;" horiz-adv-x="1000" 
d="M288 -14q-96 56 -152 152t-56 212t56 212t152 152t212 56t212 -56t152 -152t56 -212t-56 -212t-152 -152t-212 -56t-212 56zM348 170h47v360h-47v-20q0 -30 -30 -30h-61v-43h91v-267zM687 200q35 35 35 88q0 54 -35 89t-85 35q-25 0 -41.5 -7t-32.5 -23h-5l12 105h167v43
h-209l-20 -200h49q15 20 32.5 29t40.5 9q36 0 58 -21t22 -59q0 -35 -22.5 -57.5t-57.5 -22.5q-65 0 -80 62h-47q7 -50 40.5 -77.5t86.5 -27.5q57 0 92 35z" />
    </font>
</defs>
</svg>
