<?xml version="1.0" standalone="no"?>
<!DOCTYPE svg PUBLIC "-//W3C//DTD SVG 1.1//EN" "http://www.w3.org/Graphics/SVG/1.1/DTD/svg11.dtd" >
<svg xmlns="http://www.w3.org/2000/svg" xmlns:xlink="http://www.w3.org/1999/xlink" version="1.1">
<metadata>
Created by FontForge 20201107 at Mon Feb  6 14:54:29 2023
 By 
Copyright (c) 2019-2022 by TypeType. All rights reserved. Special version for DaFont.
</metadata>
<defs>
<font id="TTInterphasesProTrl-Lt" horiz-adv-x="1000" >
  <font-face 
    font-family="TT Interphases Pro Trl Lt"
    font-weight="300"
    font-stretch="normal"
    units-per-em="1000"
    panose-1="2 11 1 3 5 0 0 2 0 4"
    ascent="760"
    descent="-240"
    x-height="515"
    cap-height="700"
    bbox="-338 -245 1438 985"
    underline-thickness="50"
    underline-position="-175"
    unicode-range="U+0020-FB04"
  />
<missing-glyph horiz-adv-x="900" 
d="M100 0v284h45v-139h33v139h50v31h-128v126l19 -61h23l34 106l33 -106h23l54 170h-32l-34 -110l-35 110h-19l-35 -110l-31 103v157h700v-150h-110v-170h110v-91q-6 13 -19.5 20t-30.5 7q-27 0 -43.5 -14.5t-16.5 -34.5q0 -22 14.5 -32.5t39.5 -17.5q17 -5 25.5 -9.5
t8.5 -13.5q0 -21 -28 -21q-14 0 -21 7t-7 18h-33q0 -24 17 -39.5t44 -15.5q17 0 30.5 6.5t19.5 13.5v-163h-700zM311 380h33v62h24l35 -62h37l-40 67q36 17 36 50q0 22 -16 37.5t-41 15.5h-68v-170zM469 550v-170h33v170h-33zM580 519v-139h32v139h50v31h-132v-31h50z
M344 473v46h35q10 0 17 -6.5t7 -16.5q0 -12 -7.5 -17.5t-16.5 -5.5h-35zM800 483h-78v36h78v-36zM800 411h-78v41h78v-41zM387.5 167.5q22.5 24.5 22.5 61.5t-23 62t-59 25t-59 -25t-23 -62t22.5 -61.5t59.5 -24.5t59.5 24.5zM633 162q19 19 19 47v106h-32v-106
q0 -15 -9.5 -25t-25.5 -10q-17 0 -26.5 10.5t-9.5 24.5v106h-32v-106q0 -28 19.5 -47t48.5 -19t48 19zM800 224q-15 14 -46 22q-16 5 -23 9t-7 12q0 9 7.5 14.5t18.5 5.5q10 0 18 -7t8 -18h24v-38zM291.5 190q-14.5 16 -14.5 39q0 25 14 40.5t37 15.5q24 0 37.5 -15.5
t13.5 -40.5q0 -23 -14.5 -39t-36.5 -16t-36.5 16z" />
    <glyph glyph-name="f_f" unicode="ff" horiz-adv-x="605" 
d="M513 653q-30 0 -47.5 -17t-17.5 -48v-73h137v-47h-137v-468h-50v468h-235v-468h-50v468h-85v47h85v73q0 50 31 81t81 31h75v-47h-72q-30 0 -47.5 -17t-17.5 -48v-73h235v73q0 50 31 81t81 31h75v-47h-72z" />
    <glyph glyph-name="fi" unicode="fi" horiz-adv-x="525" 
d="M163 515h285v-515h-50v468h-235v-468h-50v468h-85v47h85v73q0 50 31 81t81 31h75v-47h-72q-30 0 -47.5 -17t-17.5 -48v-73zM450 689q11 -11 11 -28q0 -16 -11 -27t-27 -11q-17 0 -28 11t-11 27q0 17 11 28t28 11q16 0 27 -11z" />
    <glyph glyph-name="fl" unicode="fl" horiz-adv-x="530" 
d="M448 700v-700h-50v653h-170q-30 0 -47.5 -17t-17.5 -48v-73h137v-47h-137v-468h-50v468h-85v47h85v73q0 50 31 81t81 31h223z" />
    <glyph glyph-name="f_f_i" unicode="ffi" horiz-adv-x="810" 
d="M448 515h285v-515h-50v468h-235v-468h-50v468h-235v-468h-50v468h-85v47h85v73q0 50 31 81t81 31h75v-47h-72q-30 0 -47.5 -17t-17.5 -48v-73h235v73q0 50 31 81t81 31h75v-47h-72q-30 0 -47.5 -17t-17.5 -48v-73zM735 689q11 -11 11 -28q0 -16 -11.5 -27t-27.5 -11
q-17 0 -28 11t-11 27q0 17 11.5 28t27.5 11q17 0 28 -11z" />
    <glyph glyph-name="f_f_l" unicode="ffl" horiz-adv-x="815" 
d="M733 700v-700h-50v653h-170q-30 0 -47.5 -17t-17.5 -48v-73h137v-47h-137v-468h-50v468h-235v-468h-50v468h-85v47h85v73q0 50 31 81t81 31h75v-47h-72q-30 0 -47.5 -17t-17.5 -48v-73h235v73q0 50 31 81t81 31h223z" />
    <glyph glyph-name=".notdef" horiz-adv-x="900" 
d="M100 0v284h45v-139h33v139h50v31h-128v126l19 -61h23l34 106l33 -106h23l54 170h-32l-34 -110l-35 110h-19l-35 -110l-31 103v157h700v-150h-110v-170h110v-91q-6 13 -19.5 20t-30.5 7q-27 0 -43.5 -14.5t-16.5 -34.5q0 -22 14.5 -32.5t39.5 -17.5q17 -5 25.5 -9.5
t8.5 -13.5q0 -21 -28 -21q-14 0 -21 7t-7 18h-33q0 -24 17 -39.5t44 -15.5q17 0 30.5 6.5t19.5 13.5v-163h-700zM311 380h33v62h24l35 -62h37l-40 67q36 17 36 50q0 22 -16 37.5t-41 15.5h-68v-170zM469 550v-170h33v170h-33zM580 519v-139h32v139h50v31h-132v-31h50z
M344 473v46h35q10 0 17 -6.5t7 -16.5q0 -12 -7.5 -17.5t-16.5 -5.5h-35zM800 483h-78v36h78v-36zM800 411h-78v41h78v-41zM387.5 167.5q22.5 24.5 22.5 61.5t-23 62t-59 25t-59 -25t-23 -62t22.5 -61.5t59.5 -24.5t59.5 24.5zM633 162q19 19 19 47v106h-32v-106
q0 -15 -9.5 -25t-25.5 -10q-17 0 -26.5 10.5t-9.5 24.5v106h-32v-106q0 -28 19.5 -47t48.5 -19t48 19zM800 224q-15 14 -46 22q-16 5 -23 9t-7 12q0 9 7.5 14.5t18.5 5.5q10 0 18 -7t8 -18h24v-38zM291.5 190q-14.5 16 -14.5 39q0 25 14 40.5t37 15.5q24 0 37.5 -15.5
t13.5 -40.5q0 -23 -14.5 -39t-36.5 -16t-36.5 16z" />
    <glyph glyph-name=".null" horiz-adv-x="0" 
 />
    <glyph glyph-name="nonmarkingreturn" horiz-adv-x="0" 
 />
    <glyph glyph-name="space" unicode=" " horiz-adv-x="210" 
 />
    <glyph glyph-name="exclam" unicode="!" horiz-adv-x="268" 
d="M154 200h-40l-10 445v55h60v-55zM104.5 7.5q-11.5 12.5 -11.5 29.5q0 16 12 28.5t29 12.5t29 -12.5t12 -28.5q0 -17 -11.5 -29.5t-29.5 -12.5t-29.5 12.5z" />
    <glyph glyph-name="quotedbl" unicode="&#x22;" horiz-adv-x="325" 
d="M118 490h-50v210h50v-210zM258 490h-50v210h50v-210z" />
    <glyph glyph-name="numbersign" unicode="#" horiz-adv-x="620" 
d="M595 500l-10 -47h-123l-44 -205h122l-10 -48h-122l-43 -200h-50l43 200h-159l-43 -200h-51l43 200h-123l10 48h123l44 205h-122l10 47h122l43 200h51l-43 -200h159l43 200h50l-43 -200h123zM209 248h159l44 205h-159z" />
    <glyph glyph-name="dollar" unicode="$" horiz-adv-x="590" 
d="M520.5 94.5q-24.5 -42.5 -74 -70.5t-119.5 -33v-101h-52v101q-92 7 -152.5 58t-77.5 131h55q19 -66 72 -103t128 -37q89 0 139.5 40.5t50.5 104.5q0 46 -26 73.5t-64 41.5t-104 30q-77 19 -122 37t-77 55.5t-32 102.5q0 77 55 128.5t155 56.5v100h52v-102
q81 -8 133.5 -51t69.5 -117h-55q-19 59 -64.5 89.5t-117.5 30.5q-82 0 -127.5 -36t-45.5 -99q0 -46 26 -74t64.5 -42t104.5 -30q75 -18 120.5 -36t77.5 -56t32 -102q0 -48 -24.5 -90.5z" />
    <glyph glyph-name="percent" unicode="%" horiz-adv-x="735" 
d="M88 442.5q-40 42.5 -40 112.5t40 112.5t107 42.5t107.5 -42.5t40.5 -112.5q0 -69 -40.5 -112t-107.5 -43t-107 42.5zM178 0h-55l435 700h55zM269 475.5q26 30.5 26 79.5q0 50 -26 80t-74 30q-47 0 -73.5 -30t-26.5 -80q0 -49 26.5 -79.5t73.5 -30.5q48 0 74 30.5z
M433 32.5q-40 42.5 -40 112.5t40 112.5t107 42.5t107.5 -42.5t40.5 -112.5q0 -69 -40.5 -112t-107.5 -43t-107 42.5zM614 65.5q26 30.5 26 79.5q0 50 -26 80t-74 30q-47 0 -73.5 -30t-26.5 -80q0 -49 26.5 -79.5t73.5 -30.5q48 0 74 30.5z" />
    <glyph glyph-name="ampersand" unicode="&#x26;" horiz-adv-x="633" 
d="M643 275l-137 -140l137 -135h-75l-99 98q-52 -50 -103 -79t-123 -29q-60 0 -105 22t-69 61.5t-24 89.5q0 58 27 97.5t80 76.5l44 31l-43 43q-34 34 -51 64.5t-17 74.5q0 45 22 81.5t62 57.5t91 21q73 0 119 -44t46 -113q0 -45 -25 -84t-77 -74l-49 -32l197 -194l102 106
h70zM154 493q14 -25 51 -62l34 -34l59 42q34 24 53 51t19 63q0 47 -30 77t-80 30q-52 0 -86 -30t-34 -82q0 -30 14 -55zM343 63.5q45 23.5 91 69.5l-202 200l-47 -33q-47 -33 -66 -64t-19 -73q0 -55 39.5 -89t100.5 -34q58 0 103 23.5z" />
    <glyph glyph-name="quotesingle" unicode="'" horiz-adv-x="185" 
d="M118 490h-50v210h50v-210z" />
    <glyph glyph-name="parenleft" unicode="(" horiz-adv-x="300" 
d="M213 -200q-63 90 -98 211t-35 254t35 254t98 211h52q-132 -197 -132 -465t132 -465h-52z" />
    <glyph glyph-name="parenright" unicode=")" horiz-adv-x="300" 
d="M35 -200q133 196 133 465t-133 465h53q63 -90 97.5 -211t34.5 -254t-34.5 -254t-97.5 -211h-53z" />
    <glyph glyph-name="asterisk" unicode="*" horiz-adv-x="468" 
d="M234 484l-91 -131l-43 30l104 123l-154 44l18 50l146 -55l-6 155h52l-6 -155l146 55l18 -50l-154 -44l104 -123l-43 -30z" />
    <glyph glyph-name="plus" unicode="+" horiz-adv-x="585" 
d="M317 348h205v-48h-205v-207h-48v207h-205v48h205v207h48v-207z" />
    <glyph glyph-name="comma" unicode="," horiz-adv-x="208" 
d="M75 -100h-37l42 200h58z" />
    <glyph glyph-name="hyphen" unicode="-" horiz-adv-x="375" 
d="M335 240h-295v48h295v-48z" />
    <glyph glyph-name="period" unicode="." horiz-adv-x="208" 
d="M74.5 7.5q-11.5 12.5 -11.5 29.5q0 16 12 28.5t29 12.5t29 -12.5t12 -28.5q0 -17 -11.5 -29.5t-29.5 -12.5t-29.5 12.5z" />
    <glyph glyph-name="slash" unicode="/" horiz-adv-x="343" 
d="M52 -200h-52l291 930h52z" />
    <glyph glyph-name="zero" unicode="0" horiz-adv-x="660" 
d="M187 31q-62 41 -97 122t-35 197q0 113 34 194t96 123.5t145 42.5q81 0 143 -41t97 -122t35 -197q0 -113 -33.5 -194t-95.5 -123.5t-146 -42.5q-81 0 -143 41zM446 76.5q50 36.5 77 106t27 167.5q0 101 -28.5 171t-78 104.5t-113.5 34.5q-66 0 -115.5 -36t-77 -106
t-27.5 -168q0 -101 28.5 -171t78 -104.5t113.5 -34.5q66 0 116 36.5z" />
    <glyph glyph-name="one" unicode="1" horiz-adv-x="320" 
d="M173 0v555h-135v50h95q19 0 29.5 10.5t10.5 29.5v55h55v-700h-55z" />
    <glyph glyph-name="two" unicode="2" horiz-adv-x="555" 
d="M50 0v51l318 327q34 35 50.5 65t16.5 70q0 68 -42.5 107.5t-117.5 39.5q-68 0 -113.5 -39.5t-56.5 -105.5h-55q15 91 73.5 143t151.5 52q99 0 157 -54t58 -143q0 -47 -21 -86.5t-62 -81.5l-286 -295h379v-50h-450z" />
    <glyph glyph-name="three" unicode="3" horiz-adv-x="568" 
d="M165.5 14q-51.5 24 -85 68.5t-40.5 102.5h55q9 -63 60.5 -104t122.5 -41q79 0 127 42t48 108q0 61 -43 99.5t-117 38.5h-65v47h65q66 0 106.5 39t40.5 99q0 66 -43.5 106.5t-118.5 40.5q-68 0 -114.5 -39t-58.5 -106h-55q15 92 76 143.5t152 51.5q65 0 114.5 -25
t76 -69.5t26.5 -102.5q0 -57 -27.5 -98t-79.5 -61q54 -15 87 -59t33 -105q0 -57 -28.5 -102.5t-80.5 -71.5t-121 -26q-61 0 -112.5 24z" />
    <glyph glyph-name="four" unicode="4" horiz-adv-x="538" 
d="M420 0h-55v175h-342v50l317 475h80v-475h90v-50h-90v-175zM360 641l-277 -416h282v416h-5z" />
    <glyph glyph-name="five" unicode="5" horiz-adv-x="575" 
d="M137.5 42q-65.5 52 -82.5 143h55q16 -67 65 -106t115 -39q54 0 95.5 23.5t64.5 65.5t23 94t-22.5 95t-63.5 67.5t-94 24.5q-51 0 -94.5 -24t-70.5 -71h-58l35 385h380v-50h-333l-24 -265h5q29 38 73 56.5t94 18.5q63 0 115.5 -30.5t82.5 -85t30 -121.5t-30.5 -120
t-84.5 -83t-123 -30q-87 0 -152.5 52z" />
    <glyph glyph-name="six" unicode="6" horiz-adv-x="575" 
d="M164 20q-54 30 -84 84.5t-30 125.5q0 46 16.5 94.5t51.5 105.5l170 270h61l-187 -292h5q49 42 128 42q66 0 118.5 -29.5t82 -82t29.5 -118.5q0 -65 -30 -117.5t-84 -82.5t-123 -30q-70 0 -124 30zM381.5 63q41.5 23 65 64t23.5 93q0 48 -21.5 89.5t-63 66t-97.5 24.5
q-57 0 -98.5 -24.5t-63 -66t-21.5 -89.5q0 -52 23.5 -93t65.5 -64t94 -23t93.5 23z" />
    <glyph glyph-name="seven" unicode="7" horiz-adv-x="508" 
d="M185 0h-59l285 650h-378v50h437v-50z" />
    <glyph glyph-name="eight" unicode="8" horiz-adv-x="580" 
d="M168.5 16.5q-52.5 26.5 -80.5 72.5t-28 101q0 56 35 103t96 69q-47 16 -81.5 58t-34.5 103q0 53 26.5 95.5t75.5 67t113 24.5q65 0 113.5 -24.5t75 -67t26.5 -95.5q0 -61 -34.5 -103t-81.5 -58q62 -22 96.5 -69t34.5 -103q0 -55 -28 -101t-80 -72.5t-122 -26.5
q-69 0 -121.5 26.5zM409 425.5q41 40.5 41 97.5q0 61 -44 99t-116 38t-116 -38.5t-44 -98.5q0 -57 41 -97.5t119 -40.5t119 40.5zM380 59q40 19 62.5 53.5t22.5 77.5q0 42 -23 76t-63 53t-89 19t-89 -19t-63 -53t-23 -76q0 -43 22.5 -77.5t62.5 -53.5t90 -19t90 19z" />
    <glyph glyph-name="nine" unicode="9" horiz-adv-x="575" 
d="M226 0l188 293h-5q-49 -43 -129 -43q-65 0 -117.5 30t-82.5 82.5t-30 117.5t30 117.5t84.5 82.5t123.5 30q70 0 123.5 -30t83.5 -84.5t30 -125.5q0 -90 -68 -199l-169 -271h-62zM385.5 324.5q41.5 24.5 63 66t21.5 89.5q0 53 -23.5 94t-64.5 63.5t-94 22.5q-52 0 -94 -23
t-65.5 -64t-23.5 -93q0 -48 22 -89.5t63.5 -66t97.5 -24.5t97.5 24.5z" />
    <glyph glyph-name="colon" unicode=":" horiz-adv-x="208" 
d="M74.5 445q-11.5 12 -11.5 29t11.5 29t29.5 12t29.5 -12t11.5 -29t-11.5 -29t-29.5 -12t-29.5 12zM74.5 7.5q-11.5 12.5 -11.5 29.5q0 16 12 28.5t29 12.5t29 -12.5t12 -28.5q0 -17 -11.5 -29.5t-29.5 -12.5t-29.5 12.5z" />
    <glyph glyph-name="semicolon" unicode=";" horiz-adv-x="208" 
d="M74.5 445q-11.5 12 -11.5 29t11.5 29t29.5 12t29.5 -12t11.5 -29t-11.5 -29t-29.5 -12t-29.5 12zM70 -100h-37l42 200h58z" />
    <glyph glyph-name="less" unicode="&#x3c;" horiz-adv-x="585" 
d="M498 147v-54l-420 204v57l420 204v-54l-373 -179z" />
    <glyph glyph-name="equal" unicode="=" horiz-adv-x="585" 
d="M522 395h-458v48h458v-48zM522 208h-458v47h458v-47z" />
    <glyph glyph-name="greater" unicode="&#x3e;" horiz-adv-x="585" 
d="M508 297l-420 -204v54l372 178l-372 179v54l420 -204v-57z" />
    <glyph glyph-name="question" unicode="?" horiz-adv-x="490" 
d="M214 255q0 41 12 69t29.5 45t46.5 39q26 19 41.5 34t26 37.5t10.5 55.5q0 57 -39.5 92.5t-102.5 35.5q-62 0 -101.5 -36.5t-48.5 -101.5h-53q10 87 65.5 136t137.5 49q56 0 100.5 -22t69.5 -61.5t25 -89.5q0 -42 -12.5 -71t-30.5 -46.5t-48 -40.5q-39 -28 -58.5 -53.5
t-19.5 -70.5v-55h-50v55zM209.5 7.5q-11.5 12.5 -11.5 29.5q0 16 12 28.5t29 12.5t29 -12.5t12 -28.5q0 -17 -11.5 -29.5t-29.5 -12.5t-29.5 12.5z" />
    <glyph glyph-name="at" unicode="@" horiz-adv-x="918" 
d="M443 -90q-113 0 -199 48t-133.5 136.5t-47.5 205.5q0 116 49.5 204.5t140 137t207.5 48.5q119 0 210 -48.5t140.5 -135.5t49.5 -201q0 -110 -41 -165t-111 -55q-47 0 -74 23t-36 55h-5q-22 -36 -58 -57t-85 -21q-82 0 -132 56.5t-50 153.5q0 98 50 154t130 56
q91 0 140 -70h5l10 65h35v-289q0 -39 18.5 -60t51.5 -21q47 0 74.5 41.5t27.5 133.5q0 100 -43.5 176.5t-122.5 119t-184 42.5q-103 0 -181.5 -42.5t-122 -120t-43.5 -180.5q0 -104 41 -181.5t115.5 -119.5t173.5 -42h160v-47h-160zM554 174q36 44 36 121t-35.5 121
t-99.5 44t-100.5 -43t-36.5 -122t36.5 -122t100.5 -43q63 0 99 44z" />
    <glyph glyph-name="A" unicode="A" horiz-adv-x="615" 
d="M605 0h-55l-70 188h-344l-71 -188h-55l265 700h65zM305 640l-151 -402h307l-151 402h-5z" />
    <glyph glyph-name="B" unicode="B" horiz-adv-x="645" 
d="M93 0v700h285q91 0 144 -50.5t53 -136.5q0 -55 -27 -97t-76 -61q53 -17 83 -62t30 -103q0 -88 -53 -139t-144 -51h-295zM373 375q68 0 107.5 37.5t39.5 100.5t-39 100t-108 37h-225v-275h225zM383 50q71 0 109 38.5t38 101.5q0 61 -38.5 99.5t-108.5 38.5h-235v-278h235z
" />
    <glyph glyph-name="C" unicode="C" horiz-adv-x="685" 
d="M202.5 32q-69.5 42 -108.5 123t-39 195t39 195t108.5 123t160.5 42q100 0 171 -49.5t106 -145.5h-57q-64 145 -220 145q-75 0 -132 -36t-89 -106t-32 -168t32 -168t89 -106t132 -36q156 0 220 145h57q-35 -95 -106.5 -145t-170.5 -50q-91 0 -160.5 42z" />
    <glyph glyph-name="D" unicode="D" horiz-adv-x="683" 
d="M93 0v700h227q91 0 160.5 -41t108.5 -120t39 -189t-39 -189t-108.5 -120t-160.5 -41h-227zM320 50q75 0 132 35t89 102.5t32 162.5t-32 162.5t-89 102.5t-132 35h-172v-600h172z" />
    <glyph glyph-name="E" unicode="E" horiz-adv-x="595" 
d="M148 328v-278h385v-50h-440v700h430v-50h-375v-272h355v-50h-355z" />
    <glyph glyph-name="F" unicode="F" horiz-adv-x="573" 
d="M520 700v-50h-372v-282h347v-50h-347v-318h-55v700h427z" />
    <glyph glyph-name="G" unicode="G" horiz-adv-x="710" 
d="M202.5 32q-69.5 42 -108.5 123t-39 195t39 195t108.5 123t160.5 42q100 0 171 -49.5t106 -145.5h-57q-64 145 -220 145q-75 0 -132 -36t-89 -106t-32 -168t32 -168t89 -106t132 -36q106 0 169 68t68 187h-237v50h292v-30q0 -100 -36.5 -173t-102.5 -112.5t-153 -39.5
q-91 0 -160.5 42z" />
    <glyph glyph-name="H" unicode="H" horiz-adv-x="708" 
d="M560 378v322h55v-700h-55v328h-412v-328h-55v700h55v-322h412z" />
    <glyph glyph-name="I" unicode="I" horiz-adv-x="240" 
d="M148 0h-55v700h55v-700z" />
    <glyph glyph-name="J" unicode="J" horiz-adv-x="540" 
d="M94.5 39.5q-56.5 49.5 -69.5 138.5h55q11 -66 53 -102t105 -36q73 0 116.5 48.5t43.5 136.5v475h55v-475q0 -111 -58.5 -173t-156.5 -62q-87 0 -143.5 49.5z" />
    <glyph glyph-name="K" unicode="K" horiz-adv-x="565" 
d="M148 0h-55v700h55v-335l335 335h67l-346 -345l361 -355h-67l-350 345v-345z" />
    <glyph glyph-name="L" unicode="L" horiz-adv-x="538" 
d="M523 0h-430v700h55v-650h375v-50z" />
    <glyph glyph-name="M" unicode="M" horiz-adv-x="850" 
d="M148 0h-55v700h85l245 -618h5l244 618h86v-700h-55v624h-5l-248 -624h-50l-247 624h-5v-624z" />
    <glyph glyph-name="N" unicode="N" horiz-adv-x="728" 
d="M148 0h-55v700h75l407 -626h5v626h55v-700h-75l-407 627h-5v-627z" />
    <glyph glyph-name="O" unicode="O" horiz-adv-x="725" 
d="M202.5 32q-69.5 42 -108.5 123t-39 195t39 195t108.5 123t160.5 42t160 -42t108 -123t39 -195t-39 -195t-108 -123t-160 -42t-160.5 42zM494.5 76q56.5 36 88.5 106t32 168t-32 168t-88.5 106t-131.5 36t-132 -36t-89 -106t-32 -168t32 -168t89 -106t132 -36t131.5 36z
" />
    <glyph glyph-name="P" unicode="P" horiz-adv-x="620" 
d="M93 0v700h252q103 0 161.5 -58.5t58.5 -156.5q0 -97 -58.5 -156t-161.5 -59h-197v-270h-55zM340 320q81 0 125.5 43.5t44.5 121.5t-44.5 121.5t-125.5 43.5h-192v-330h192z" />
    <glyph glyph-name="Q" unicode="Q" horiz-adv-x="725" 
d="M631 154.5q-39 -81.5 -109 -123.5l88 -131h-60l-73 109q-55 -19 -114 -19q-91 0 -160.5 42t-108.5 123t-39 195t39 195t108.5 123t160.5 42t160 -42t108 -123t39 -195t-39 -195.5zM142 182q32 -70 89 -106t132 -36q47 0 83 13l-116 172h60l102 -150q58 36 90.5 106
t32.5 169q0 98 -32 168t-88.5 106t-131.5 36t-132 -36t-89 -106t-32 -168t32 -168z" />
    <glyph glyph-name="R" unicode="R" horiz-adv-x="625" 
d="M509 346.5q-56 -55.5 -156 -56.5l207 -290h-62l-208 290h-142v-290h-55v700h255q102 0 159.5 -55t57.5 -150q0 -93 -56 -148.5zM148 650v-310h195q81 0 124 40.5t43 114.5t-43 114.5t-124 40.5h-195z" />
    <glyph glyph-name="S" unicode="S" horiz-adv-x="590" 
d="M130.5 42.5q-67.5 52.5 -85.5 137.5h55q20 -69 74.5 -104.5t125.5 -35.5q91 0 140.5 41t49.5 104q0 46 -26 73.5t-64 41.5t-104 30q-77 19 -122 37t-77 55.5t-32 102.5q0 52 26 94t77.5 66.5t124.5 24.5q94 0 156 -44t81 -126h-55q-19 59 -64.5 89.5t-117.5 30.5
q-82 0 -127.5 -36t-45.5 -99q0 -46 26 -74t64.5 -42t104.5 -30q75 -18 120.5 -36t77.5 -56t32 -102q0 -50 -27.5 -95t-83 -72.5t-134.5 -27.5q-102 0 -169.5 52.5z" />
    <glyph glyph-name="T" unicode="T" horiz-adv-x="585" 
d="M320 0h-55v650h-237v50h530v-50h-238v-650z" />
    <glyph glyph-name="U" unicode="U" horiz-adv-x="698" 
d="M212 24q-59 34 -91.5 99.5t-32.5 156.5v420h55v-420q0 -113 56.5 -176.5t149.5 -63.5t149.5 63.5t56.5 176.5v420h55v-420q0 -91 -32.5 -156.5t-91.5 -99.5t-137 -34t-137 34z" />
    <glyph glyph-name="V" unicode="V" horiz-adv-x="615" 
d="M344 0h-72l-257 700h59l231 -639h5l232 639h58z" />
    <glyph glyph-name="W" unicode="W" horiz-adv-x="900" 
d="M286 0h-81l-185 700h58l165 -635h5l166 635h73l166 -635h5l164 635h58l-184 -700h-81l-162 625h-5z" />
    <glyph glyph-name="X" unicode="X" horiz-adv-x="575" 
d="M80 0h-62l237 360l-227 340h62l198 -297l198 297h62l-228 -340l238 -360h-62l-208 317z" />
    <glyph glyph-name="Y" unicode="Y" horiz-adv-x="570" 
d="M313 0h-55v270l-248 430h59l214 -375h5l213 375h59l-247 -430v-270z" />
    <glyph glyph-name="Z" unicode="Z" horiz-adv-x="560" 
d="M523 0h-485v40l411 610h-401v50h470v-40l-411 -610h416v-50z" />
    <glyph glyph-name="bracketleft" unicode="[" horiz-adv-x="303" 
d="M268 -200h-175v930h175v-47h-125v-836h125v-47z" />
    <glyph glyph-name="backslash" unicode="\" horiz-adv-x="343" 
d="M343 -200h-52l-291 930h52z" />
    <glyph glyph-name="bracketright" unicode="]" horiz-adv-x="303" 
d="M210 -200h-175v47h125v836h-125v47h175v-930z" />
    <glyph glyph-name="asciicircum" unicode="^" horiz-adv-x="460" 
d="M102 380h-52l150 320h60l150 -320h-51l-126 272h-5z" />
    <glyph glyph-name="underscore" unicode="_" horiz-adv-x="360" 
d="M380 -178h-400v48h400v-48z" />
    <glyph glyph-name="grave" unicode="`" horiz-adv-x="218" 
d="M188 595h-45l-113 140h68z" />
    <glyph glyph-name="a" unicode="a" horiz-adv-x="518" 
d="M393.5 475q51.5 -50 51.5 -135v-340h-40l-7 83h-5q-19 -38 -64 -65.5t-106 -27.5q-81 0 -129.5 43t-48.5 112q0 68 48.5 110.5t134.5 42.5h167v42q0 66 -38.5 102t-106.5 36q-107 0 -137 -98h-53q17 70 67 107.5t123 37.5q92 0 143.5 -50zM347.5 84q47.5 46 47.5 121v45
h-167q-65 0 -99 -28.5t-34 -76.5q0 -50 34.5 -78.5t93.5 -28.5q77 0 124.5 46z" />
    <glyph glyph-name="b" unicode="b" horiz-adv-x="590" 
d="M210 16q-47 26 -75 77h-5l-7 -93h-40v700h50v-275h5q27 50 73 75t104 25q67 0 117.5 -31.5t79 -92t28.5 -143.5t-28.5 -143.5t-79 -92.5t-117.5 -32q-58 0 -105 26zM443 98.5q47 60.5 47 159.5t-47 159.5t-133 60.5q-83 0 -130 -60.5t-47 -159.5t47 -159.5t130 -60.5
q86 0 133 60.5z" />
    <glyph glyph-name="c" unicode="c" horiz-adv-x="538" 
d="M163 22q-53 32 -83 92.5t-30 143.5t30 143.5t83 92t122 31.5q74 0 129.5 -37t83.5 -108h-54q-24 46 -64 72t-95 26q-86 0 -135.5 -61t-49.5 -159q0 -99 49.5 -159.5t135.5 -60.5q55 0 95 25.5t64 71.5h54q-28 -71 -83.5 -108t-129.5 -37q-69 0 -122 32z" />
    <glyph glyph-name="d" unicode="d" horiz-adv-x="590" 
d="M158 22q-51 32 -79.5 92.5t-28.5 143.5t28.5 143.5t79.5 92t117 31.5q58 0 104 -25t74 -75h5v275h50v-700h-40l-8 93h-5q-27 -51 -74.5 -77t-105.5 -26q-66 0 -117 32zM410.5 98.5q47.5 60.5 47.5 159.5t-47.5 159.5t-130.5 60.5q-86 0 -133 -60.5t-47 -159.5t47 -159.5
t133 -60.5q83 0 130.5 60.5z" />
    <glyph glyph-name="e" unicode="e" horiz-adv-x="558" 
d="M508 243h-408q4 -95 53 -150t132 -55q55 0 95 25.5t64 71.5h54q-28 -71 -83.5 -108t-129.5 -37q-69 0 -122 32t-83 92.5t-30 143.5t29.5 143.5t82 92t118.5 31.5q67 0 119.5 -33t81.5 -88t29 -121q0 -22 -2 -40zM460 290q-5 86 -53.5 137t-126.5 51q-77 0 -124 -51
t-55 -137h359z" />
    <glyph glyph-name="f" unicode="f" horiz-adv-x="320" 
d="M228 653q-30 0 -47.5 -17t-17.5 -48v-73h137v-47h-137v-468h-50v468h-85v47h85v73q0 50 31 81t81 31h75v-47h-72z" />
    <glyph glyph-name="g" unicode="g" horiz-adv-x="585" 
d="M144 -161q-60 39 -86 116h53q43 -108 177 -108q78 0 124 41t46 115v122h-5q-29 -48 -74.5 -71.5t-103.5 -23.5q-66 0 -117 31t-79.5 87t-28.5 130t28.5 130t79.5 86.5t117 30.5q57 0 104 -24.5t76 -72.5h5l8 87h40v-512q0 -94 -59 -148.5t-161 -54.5q-84 0 -144 39z
M409.5 134q48.5 56 48.5 144t-48.5 144t-129.5 56q-82 0 -131 -55.5t-49 -144.5t49 -144.5t131 -55.5q81 0 129.5 56z" />
    <glyph glyph-name="h" unicode="h" horiz-adv-x="560" 
d="M83 0v700h50v-265h5q24 44 64 67t93 23q55 0 99 -25t69 -71.5t25 -110.5v-318h-50v318q0 73 -40.5 116.5t-107.5 43.5q-44 0 -80 -21.5t-56.5 -58.5t-20.5 -80v-318h-50z" />
    <glyph glyph-name="i" unicode="i" horiz-adv-x="205" 
d="M128 0h-50v515h50v-515zM75 634q-11 11 -11 27q0 17 11 28t28 11q16 0 27.5 -11t11.5 -28q0 -16 -11.5 -27t-27.5 -11q-17 0 -28 11z" />
    <glyph glyph-name="j" unicode="j" horiz-adv-x="205" 
d="M-60 -200v47h73q30 0 47.5 17.5t17.5 47.5v603h50v-603q0 -50 -31 -81t-82 -31h-75zM75 634q-11 11 -11 27q0 17 11 28t28 11q16 0 27.5 -11t11.5 -28q0 -16 -11.5 -27t-27.5 -11q-17 0 -28 11z" />
    <glyph glyph-name="k" unicode="k" horiz-adv-x="470" 
d="M133 0h-50v700h50v-427l262 242h65l-273 -252l288 -263h-65l-277 253v-253z" />
    <glyph glyph-name="l" unicode="l" horiz-adv-x="215" 
d="M133 0h-50v700h50v-700z" />
    <glyph glyph-name="m" unicode="m" horiz-adv-x="860" 
d="M78 0v515h40l7 -82h5q23 48 62 70t86 22q54 0 95.5 -28.5t61.5 -81.5h5q24 53 68 81.5t100 28.5q50 0 91 -25.5t65 -72.5t24 -109v-318h-50v318q0 72 -38.5 116t-99.5 44q-40 0 -72.5 -21t-51 -57.5t-18.5 -81.5v-318h-50v318q0 72 -38.5 116t-99.5 44q-40 0 -72.5 -21
t-51 -57.5t-18.5 -81.5v-318h-50z" />
    <glyph glyph-name="n" unicode="n" horiz-adv-x="555" 
d="M78 0v515h40l7 -82h5q24 45 66.5 68.5t93.5 23.5q56 0 100 -25.5t68.5 -72.5t24.5 -109v-318h-50v318q0 73 -40.5 116.5t-107.5 43.5q-44 0 -80 -21.5t-56.5 -58.5t-20.5 -80v-318h-50z" />
    <glyph glyph-name="o" unicode="o" horiz-adv-x="570" 
d="M163 22q-53 32 -83 92.5t-30 143.5t30 143.5t83 92t122 31.5t122.5 -31.5t83 -92t29.5 -143.5t-29.5 -143.5t-83 -92.5t-122.5 -32t-122 32zM421 98.5q49 60.5 49 159.5q0 98 -49 159t-136 61q-86 0 -135.5 -61t-49.5 -159q0 -99 49.5 -159.5t135.5 -60.5q87 0 136 60.5z
" />
    <glyph glyph-name="p" unicode="p" horiz-adv-x="585" 
d="M78 -200v715h40l7 -92h5q28 51 75 76.5t105 25.5q67 0 117.5 -31.5t79 -92t28.5 -143.5t-28.5 -143.5t-79 -92.5t-117.5 -32q-57 0 -103.5 25.5t-73.5 74.5h-5v-290h-50zM438 98q47 60 47 160q0 99 -47 159.5t-133 60.5q-83 0 -130 -60.5t-47 -159.5t47 -159.5t130 -60.5
q86 0 133 60z" />
    <glyph glyph-name="q" unicode="q" horiz-adv-x="585" 
d="M458 -200v290h-5q-28 -49 -74.5 -74.5t-103.5 -25.5q-66 0 -117 32t-79.5 92.5t-28.5 143.5t28.5 143.5t79.5 92t117 31.5q58 0 105.5 -25.5t74.5 -76.5h5l8 92h40v-715h-50zM410.5 98.5q47.5 60.5 47.5 159.5t-47.5 159.5t-130.5 60.5q-86 0 -133 -60.5t-47 -159.5
t47 -159.5t133 -60.5q83 0 130.5 60.5z" />
    <glyph glyph-name="r" unicode="r" horiz-adv-x="348" 
d="M78 0v515h40l7 -82h5q22 42 58.5 62t89.5 20h52v-47h-52q-68 0 -109 -43.5t-41 -106.5v-318h-50z" />
    <glyph glyph-name="s" unicode="s" horiz-adv-x="470" 
d="M109 29.5q-53 39.5 -69 105.5h53q13 -46 52 -71.5t93 -25.5q68 0 105 26t37 71q0 33 -19 52.5t-47.5 28.5t-78.5 20q-59 12 -94.5 25t-60.5 42t-25 80q0 38 21.5 70.5t62.5 52t96 19.5q70 0 120 -34t65 -96h-52q-32 83 -133 83q-63 0 -96.5 -26.5t-33.5 -68.5
q0 -33 19.5 -53t48.5 -30t78 -20q58 -12 93.5 -25t60.5 -41.5t25 -78.5q0 -64 -52 -104.5t-140 -40.5q-76 0 -129 39.5z" />
    <glyph glyph-name="t" unicode="t" horiz-adv-x="343" 
d="M225 0q-50 0 -81 31t-31 82v355h-85v47h85l7 140h43v-140h137v-47h-137v-355q0 -31 17.5 -48t47.5 -17h72v-48h-75z" />
    <glyph glyph-name="u" unicode="u" horiz-adv-x="560" 
d="M170.5 15.5q-43.5 25.5 -68 72.5t-24.5 110v317h50v-317q0 -74 40 -117t107 -43q44 0 80 21.5t57 58t21 80.5v317h50v-515h-40l-8 83h-5q-23 -46 -65.5 -69.5t-94.5 -23.5q-56 0 -99.5 25.5z" />
    <glyph glyph-name="v" unicode="v" horiz-adv-x="485" 
d="M273 0h-60l-205 515h53l179 -455h5l179 455h54z" />
    <glyph glyph-name="w" unicode="w" horiz-adv-x="700" 
d="M222 0h-62l-147 515h50l126 -447h5l130 447h52l130 -447h5l126 447h51l-148 -515h-61l-126 435h-5z" />
    <glyph glyph-name="x" unicode="x" horiz-adv-x="445" 
d="M68 0h-58l183 268l-173 247h58l145 -210l145 210h57l-173 -247l183 -268h-57l-155 231z" />
    <glyph glyph-name="y" unicode="y" horiz-adv-x="490" 
d="M197 -200h-53l80 201l-216 514h53l187 -442h5l176 442h54z" />
    <glyph glyph-name="z" unicode="z" horiz-adv-x="440" 
d="M410 0h-380v40l314 428h-304v47h365v-40l-313 -427h318v-48z" />
    <glyph glyph-name="braceleft" unicode="{" horiz-adv-x="303" 
d="M223 -200q-46 0 -74.5 30t-28.5 80v255q0 33 -17.5 51.5t-47.5 18.5v60q30 0 47.5 18.5t17.5 51.5v255q0 50 28.5 80t74.5 30h45v-47h-43q-55 0 -55 -63v-255q0 -42 -19 -66.5t-53 -28.5v-10q34 -4 53 -28t19 -67v-255q0 -63 55 -63h43v-47h-45z" />
    <glyph glyph-name="bar" unicode="|" horiz-adv-x="290" 
d="M170 -200h-50v930h50v-930z" />
    <glyph glyph-name="braceright" unicode="}" horiz-adv-x="303" 
d="M35 -200v47h43q55 0 55 63v255q0 43 19 67t53 28v10q-34 4 -53 28.5t-19 66.5v255q0 63 -55 63h-43v47h45q46 0 74.5 -30t28.5 -80v-255q0 -33 17.5 -51.5t47.5 -18.5v-60q-30 0 -47.5 -18.5t-17.5 -51.5v-255q0 -50 -28.5 -80t-74.5 -30h-45z" />
    <glyph glyph-name="asciitilde" unicode="~" horiz-adv-x="585" 
d="M335 270.5q-24 12.5 -55 37.5q-25 21 -44 31.5t-44 10.5q-35 0 -54 -23t-19 -67h-47q0 63 31 99t89 36q35 0 59 -12.5t55 -37.5q25 -21 44 -31.5t44 -10.5q35 0 54 23t19 67h47q0 -63 -31 -99t-89 -36q-35 0 -59 12.5z" />
    <glyph glyph-name="uni00A0" unicode="&#xa0;" horiz-adv-x="210" 
 />
    <glyph glyph-name="exclamdown" unicode="&#xa1;" horiz-adv-x="268" 
d="M104.5 445q-11.5 12 -11.5 29t11.5 29t29.5 12t29.5 -12t11.5 -29t-11.5 -29t-29.5 -12t-29.5 12zM164 -200h-60v55l10 455h40l10 -455v-55z" />
    <glyph glyph-name="cent" unicode="&#xa2;" horiz-adv-x="538" 
d="M380 63.5q40 25.5 64 71.5h54q-26 -65 -74.5 -101.5t-113.5 -42.5v-101h-47v101q-96 8 -154.5 78.5t-58.5 188.5t58.5 188t154.5 78v101h47v-101q65 -6 113.5 -42.5t74.5 -101.5h-54q-24 46 -64 72t-95 26q-86 0 -135.5 -61t-49.5 -159q0 -99 49.5 -159.5t135.5 -60.5
q55 0 95 25.5z" />
    <glyph glyph-name="sterling" unicode="&#xa3;" horiz-adv-x="568" 
d="M528 50v-50h-480v50h25q55 0 55 70v193h-80v50h80v132q0 65 24.5 114t69 75t101.5 26q78 0 130.5 -47.5t61.5 -132.5h-55q-6 58 -43 94t-94 36q-64 0 -102 -44t-38 -123v-130h195v-50h-195v-193q0 -49 -25 -70h370z" />
    <glyph glyph-name="currency" unicode="&#xa4;" horiz-adv-x="570" 
d="M443 216l60 -63l-33 -31l-60 63q-54 -40 -125 -40q-73 0 -127 42l-60 -64l-33 31l61 64q-46 56 -46 132t46 132l-61 65l33 31l61 -64q54 41 126 41t126 -41l61 64l33 -31l-61 -65q46 -56 46 -132t-47 -134zM367 211q36 21 56 57.5t20 81.5t-20 81.5t-56 57.5t-82 21
q-70 0 -113.5 -45.5t-43.5 -114.5q0 -45 19.5 -81.5t55.5 -57.5t82 -21t82 21z" />
    <glyph glyph-name="yen" unicode="&#xa5;" horiz-adv-x="560" 
d="M488 700h57l-207 -365h142v-50h-172v-87h172v-50h-172v-148h-55v148h-173v50h173v87h-173v50h143l-208 365h58l205 -365h5z" />
    <glyph glyph-name="brokenbar" unicode="&#xa6;" horiz-adv-x="290" 
d="M170 360h-50v370h50v-370zM170 -200h-50v370h50v-370z" />
    <glyph glyph-name="section" unicode="&#xa7;" horiz-adv-x="610" 
d="M525 40q0 -71 -55.5 -115.5t-154.5 -44.5q-94 0 -156 45t-81 125h55q18 -57 65 -88.5t117 -31.5q75 0 115 29.5t40 80.5q0 39 -24 60.5t-60 31t-98 18.5q-74 12 -117.5 24.5t-74.5 44t-31 89.5q0 78 76 132q-56 36 -56 110q0 72 57 116t153 44q93 0 153.5 -43t80.5 -117
h-56q-20 53 -66 81.5t-112 28.5q-74 0 -114.5 -29t-40.5 -81q0 -38 24 -59.5t59.5 -31t98.5 -19.5q72 -11 116.5 -24t75.5 -44.5t31 -88.5q0 -78 -76 -133q56 -36 56 -110zM144 247q24 -22 60 -31.5t98 -18.5q80 -12 120 -25q68 40 68 111q0 39 -24 60.5t-60 31t-99 18.5
q-31 4 -63 10t-56 14q-33 -18 -50.5 -47t-17.5 -62q0 -39 24 -61z" />
    <glyph glyph-name="dieresis" unicode="&#xa8;" horiz-adv-x="308" 
d="M41 634q-11 11 -11 27q0 17 11 28t28 11q16 0 27.5 -11t11.5 -28q0 -16 -11 -27t-28 -11t-28 11zM211 634q-11 11 -11 27q0 17 11 28t28 11q16 0 27.5 -11t11.5 -28q0 -16 -11 -27t-28 -11t-28 11z" />
    <glyph glyph-name="copyright" unicode="&#xa9;" horiz-adv-x="850" 
d="M239 36q-82 46 -128 128t-46 186t46 186t128 128t186 46t186 -46t128 -128t46 -186t-46 -186t-128 -128t-186 -46t-186 46zM583.5 74q71.5 39 113 111t41.5 165q0 94 -41.5 165.5t-112.5 110.5t-159 39t-159 -39t-112 -110.5t-41 -165.5q0 -93 41 -165t112.5 -111
t158.5 -39t158.5 39zM307 210.5q-47 50.5 -47 139.5t47 139.5t123 50.5q57 0 97.5 -30t56.5 -80h-49q-29 68 -105 68q-58 0 -91.5 -39t-33.5 -109t33.5 -108.5t91.5 -38.5q77 0 105 67h49q-16 -50 -56.5 -80t-97.5 -30q-76 0 -123 50.5z" />
    <glyph glyph-name="ordfeminine" unicode="&#xaa;" horiz-adv-x="368" 
d="M283.5 675q39.5 -35 39.5 -95v-225h-38l-5 63h-5q-15 -31 -46.5 -49.5t-68.5 -18.5q-58 0 -92.5 31.5t-34.5 83.5q0 42 29.5 70t85.5 28h127v17q0 38 -23.5 61.5t-68.5 23.5q-65 0 -85 -55h-50q8 43 44 71.5t86 28.5q66 0 105.5 -35zM244 426.5q31 31.5 31 76.5v17h-130
q-31 0 -48 -15.5t-17 -41.5q0 -30 22.5 -49t65.5 -19q45 0 76 31.5z" />
    <glyph glyph-name="guillemotleft" unicode="&#xab;" horiz-adv-x="555" 
d="M320 33h-65l-205 230l205 230h65l-204 -228v-4zM515 33h-65l-205 230l205 230h65l-204 -228v-4z" />
    <glyph glyph-name="logicalnot" unicode="&#xac;" horiz-adv-x="585" 
d="M497 198h-48v142h-360v48h408v-190z" />
    <glyph glyph-name="uni00AD" unicode="&#xad;" horiz-adv-x="375" 
d="M335 240h-295v48h295v-48z" />
    <glyph glyph-name="registered" unicode="&#xae;" horiz-adv-x="850" 
d="M611 664q82 -46 128 -128t46 -186t-46 -186t-128 -128t-186 -46t-186 46t-128 128t-46 186t46 186t128 128t186 46t186 -46zM583.5 74q71.5 39 113 111t41.5 165q0 94 -41.5 165.5t-112.5 110.5t-159 39t-159 -39t-112 -110.5t-41 -165.5q0 -93 41 -165t112.5 -111
t158.5 -39t158.5 39zM551 346q-29 -31 -78 -35l107 -146h-52l-107 145h-66v-145h-45v375h145q58 0 91.5 -31t33.5 -84q0 -48 -29 -79zM450 350q42 0 63.5 19t21.5 56t-21.5 56t-63.5 19h-95v-150h95z" />
    <glyph glyph-name="macron" unicode="&#xaf;" horiz-adv-x="330" 
d="M300 640h-270v45h270v-45z" />
    <glyph glyph-name="degree" unicode="&#xb0;" horiz-adv-x="375" 
d="M92.5 482.5q-37.5 37.5 -37.5 95.5t37.5 95t95.5 37t95 -37t37 -95t-37 -95.5t-95 -37.5t-95.5 37.5zM250.5 512q24.5 24 24.5 66t-24.5 66t-62.5 24q-39 0 -63.5 -24t-24.5 -66t24.5 -66t63.5 -24q38 0 62.5 24z" />
    <glyph glyph-name="plusminus" unicode="&#xb1;" horiz-adv-x="585" 
d="M317 573v-188h205v-47h-205v-188h-48v188h-205v47h205v188h48zM522 40h-458v48h458v-48z" />
    <glyph glyph-name="uni00B2" unicode="&#xb2;" horiz-adv-x="338" 
d="M38 400v45l165 155q45 41 45 85q0 36 -20.5 55.5t-57.5 19.5q-72 0 -85 -75h-47q8 55 41 87.5t91 32.5q60 0 92.5 -34.5t32.5 -85.5q0 -31 -13 -56.5t-39 -50.5l-143 -133h193v-45h-255z" />
    <glyph glyph-name="uni00B3" unicode="&#xb3;" horiz-adv-x="338" 
d="M77.5 423.5q-37.5 28.5 -47.5 76.5h48q6 -27 30 -43.5t60 -16.5q39 0 60.5 21t21.5 54q0 31 -20 50.5t-55 19.5h-45v43h50q30 0 47 17t17 45q0 32 -22 51t-60 19q-36 0 -57.5 -20t-26.5 -55h-48q6 52 40.5 86t91.5 34q61 0 95.5 -32t34.5 -78q0 -33 -16.5 -56t-42.5 -33
q28 -10 46.5 -34.5t18.5 -58.5q0 -52 -36 -85t-94 -33q-53 0 -90.5 28.5z" />
    <glyph glyph-name="acute" unicode="&#xb4;" horiz-adv-x="218" 
d="M75 595h-45l90 140h68z" />
    <glyph glyph-name="uni00B5" unicode="&#xb5;" horiz-adv-x="560" 
d="M78 -180v695h50v-317q0 -73 39.5 -116.5t107.5 -43.5q44 0 80 21.5t57 58t21 80.5v317h50v-515h-40l-8 83h-5q-23 -44 -64.5 -68.5t-95.5 -24.5q-47 0 -85.5 19.5t-56.5 51.5v-241h-50z" />
    <glyph glyph-name="paragraph" unicode="&#xb6;" horiz-adv-x="510" 
d="M213 350q-76 0 -118 48.5t-42 126.5t42 126.5t118 48.5h205v-810h-53v763h-100v-763h-52v460z" />
    <glyph glyph-name="periodcentered" unicode="&#xb7;" horiz-adv-x="210" 
d="M75.5 235.5q-11.5 12.5 -11.5 29.5q0 16 12 28.5t29 12.5t29 -12.5t12 -28.5q0 -17 -11.5 -29.5t-29.5 -12.5t-29.5 12.5z" />
    <glyph glyph-name="cedilla" unicode="&#xb8;" horiz-adv-x="200" 
d="M90 -38q33 -1 56.5 -23.5t23.5 -56.5q0 -37 -24.5 -61t-62.5 -24h-53v38h48q22 0 36 13t14 34q0 20 -14 32.5t-36 12.5h-35v25l29 64l36 -13z" />
    <glyph glyph-name="uni00B9" unicode="&#xb9;" horiz-adv-x="233" 
d="M118 400v293h-88v45h63q11 0 18 6.5t7 18.5v37h47v-400h-47z" />
    <glyph glyph-name="ordmasculine" unicode="&#xba;" horiz-adv-x="385" 
d="M82 397q-44 47 -44 133t44 133t111 47t111 -47t44 -133t-44 -133t-111 -47t-111 47zM271 431q29 36 29 99t-29 99t-78 36t-78.5 -36t-29.5 -99t29.5 -99t78.5 -36t78 36z" />
    <glyph glyph-name="guillemotright" unicode="&#xbb;" horiz-adv-x="555" 
d="M105 33h-65l205 228v4l-205 228h65l205 -230zM300 33h-65l205 228v4l-205 228h65l205 -230z" />
    <glyph glyph-name="onequarter" unicode="&#xbc;" horiz-adv-x="703" 
d="M118 300v293h-88v45h63q11 0 18 6.5t7 18.5v37h47v-400h-47zM110 0h-55l436 700h55zM633 0h-47v98h-200v45l180 257h67v-257h55v-45h-55v-98zM581 347l-143 -204h148v204h-5z" />
    <glyph glyph-name="onehalf" unicode="&#xbd;" horiz-adv-x="706" 
d="M118 300v293h-88v45h63q11 0 18 6.5t7 18.5v37h47v-400h-47zM110 0h-55l436 700h55zM406 0v45l165 155q45 41 45 85q0 36 -20.5 55.5t-57.5 19.5q-72 0 -85 -75h-47q8 55 41 87.5t91 32.5q60 0 92.5 -34.5t32.5 -85.5q0 -31 -13 -56.5t-39 -50.5l-143 -133h193v-45h-255z
" />
    <glyph glyph-name="threequarters" unicode="&#xbe;" horiz-adv-x="778" 
d="M77.5 323.5q-37.5 28.5 -47.5 76.5h48q6 -27 30 -43.5t60 -16.5q39 0 60.5 21t21.5 54q0 31 -20 50.5t-55 19.5h-45v43h50q30 0 47 17t17 45q0 32 -22 51t-60 19q-36 0 -57.5 -20t-26.5 -55h-48q6 52 40.5 86t91.5 34q61 0 95.5 -32t34.5 -78q0 -33 -16.5 -56t-42.5 -33
q28 -10 46.5 -34.5t18.5 -58.5q0 -52 -36 -85t-94 -33q-53 0 -90.5 28.5zM215 0h-55l436 700h55zM708 0h-47v98h-200v45l180 257h67v-257h55v-45h-55v-98zM656 347l-143 -204h148v204h-5z" />
    <glyph glyph-name="questiondown" unicode="&#xbf;" horiz-adv-x="490" 
d="M222 445q-12 12 -12 29t12 29t29 12q18 0 30 -12t12 -29t-12 -29t-30 -12q-17 0 -29 12zM153.5 -188.5q-44.5 21.5 -70 61t-25.5 92.5q0 42 12.5 71.5t30.5 47.5t47 40q27 20 42 34.5t25.5 37t10.5 54.5v60h50v-60q0 -41 -12 -69.5t-29 -45.5t-47 -40
q-39 -28 -58.5 -54.5t-19.5 -73.5q0 -59 39.5 -94.5t103.5 -35.5q61 0 100.5 36.5t49.5 101.5h52q-10 -87 -65 -136t-137 -49q-55 0 -99.5 21.5z" />
    <glyph glyph-name="Agrave" unicode="&#xc0;" horiz-adv-x="615" 
d="M605 0h-55l-70 188h-344l-71 -188h-55l265 700h65zM305 640l-151 -402h307l-151 402h-5zM339 770h-45l-113 140h68z" />
    <glyph glyph-name="Aacute" unicode="&#xc1;" horiz-adv-x="615" 
d="M605 0h-55l-70 188h-344l-71 -188h-55l265 700h65zM305 640l-151 -402h307l-151 402h-5zM323 770h-45l90 140h68z" />
    <glyph glyph-name="Acircumflex" unicode="&#xc2;" horiz-adv-x="615" 
d="M605 0h-55l-70 188h-344l-71 -188h-55l265 700h65zM305 640l-151 -402h307l-151 402h-5zM210 770h-55l130 145h45l130 -145h-55l-95 107h-5z" />
    <glyph glyph-name="Atilde" unicode="&#xc3;" horiz-adv-x="615" 
d="M605 0h-55l-70 188h-344l-71 -188h-55l265 700h65zM305 640l-151 -402h307l-151 402h-5zM339 798.5q-17 8.5 -41 24.5q-17 13 -29 19t-23 6q-35 0 -35 -53h-48q0 45 20.5 70t57.5 25q20 0 37 -8t40 -24q17 -13 29 -19t24 -6q35 0 35 52h47q0 -45 -20 -70t-57 -25
q-20 0 -37 8.5z" />
    <glyph glyph-name="Adieresis" unicode="&#xc4;" horiz-adv-x="615" 
d="M605 0h-55l-70 188h-344l-71 -188h-55l265 700h65zM305 640l-151 -402h307l-151 402h-5zM195 809q-11 11 -11 27q0 17 11 28t28 11q16 0 27.5 -11t11.5 -28q0 -16 -11 -27t-28 -11t-28 11zM365 809q-11 11 -11 27q0 17 11 28t28 11q16 0 27.5 -11t11.5 -28q0 -16 -11 -27
t-28 -11t-28 11z" />
    <glyph glyph-name="Aring" unicode="&#xc5;" horiz-adv-x="615" 
d="M605 0h-55l-70 188h-344l-71 -188h-55l265 700h65zM305 640l-151 -402h307l-151 402h-5zM242 775.5q-26 25.5 -26 66.5t26 67t66 26t66.5 -26t26.5 -67t-26.5 -66.5t-66.5 -25.5t-66 25.5zM349 802.5q15 14.5 15 39.5q0 26 -15.5 41t-40.5 15t-39.5 -15t-14.5 -41
q0 -25 14.5 -39.5t39.5 -14.5q26 0 41 14.5z" />
    <glyph glyph-name="AE" unicode="&#xc6;" horiz-adv-x="928" 
d="M480 328v-278h385v-50h-440v188h-289l-92 -188h-59l345 700h525v-50h-375v-272h355v-50h-355zM361 650l-201 -412h265v412h-64z" />
    <glyph glyph-name="Ccedilla" unicode="&#xc7;" horiz-adv-x="685" 
d="M583 185h57q-34 -91 -101 -140.5t-160 -54.5l-12 -28q33 -1 56.5 -23.5t23.5 -56.5q0 -37 -24.5 -61t-62.5 -24h-53v38h48q22 0 36 13t14 34q0 20 -14 32.5t-36 12.5h-35v25l18 39q-84 6 -148 49.5t-99.5 122.5t-35.5 187q0 114 39 195t108.5 123t160.5 42
q100 0 171 -49.5t106 -145.5h-57q-64 145 -220 145q-75 0 -132 -36t-89 -106t-32 -168t32 -168t89 -106t132 -36q156 0 220 145z" />
    <glyph glyph-name="Egrave" unicode="&#xc8;" horiz-adv-x="595" 
d="M148 328v-278h385v-50h-440v700h430v-50h-375v-272h355v-50h-355zM338 770h-45l-113 140h68z" />
    <glyph glyph-name="Eacute" unicode="&#xc9;" horiz-adv-x="595" 
d="M148 328v-278h385v-50h-440v700h430v-50h-375v-272h355v-50h-355zM323 770h-45l90 140h68z" />
    <glyph glyph-name="Ecircumflex" unicode="&#xca;" horiz-adv-x="595" 
d="M148 328v-278h385v-50h-440v700h430v-50h-375v-272h355v-50h-355zM210 770h-55l130 145h45l130 -145h-55l-95 107h-5z" />
    <glyph glyph-name="Edieresis" unicode="&#xcb;" horiz-adv-x="595" 
d="M148 328v-278h385v-50h-440v700h430v-50h-375v-272h355v-50h-355zM195 809q-11 11 -11 27q0 17 11 28t28 11q16 0 27.5 -11t11.5 -28q0 -16 -11 -27t-28 -11t-28 11zM365 809q-11 11 -11 27q0 17 11 28t28 11q16 0 27.5 -11t11.5 -28q0 -16 -11 -27t-28 -11t-28 11z" />
    <glyph glyph-name="Igrave" unicode="&#xcc;" horiz-adv-x="240" 
d="M148 0h-55v700h55v-700zM151 770h-45l-113 140h68z" />
    <glyph glyph-name="Iacute" unicode="&#xcd;" horiz-adv-x="240" 
d="M148 0h-55v700h55v-700zM136 770h-45l90 140h68z" />
    <glyph glyph-name="Icircumflex" unicode="&#xce;" horiz-adv-x="240" 
d="M148 0h-55v700h55v-700zM22 770h-55l130 145h45l130 -145h-55l-95 107h-5z" />
    <glyph glyph-name="Idieresis" unicode="&#xcf;" horiz-adv-x="240" 
d="M148 0h-55v700h55v-700zM27 809q-11 11 -11 27q0 17 11 28t28 11q16 0 27.5 -11t11.5 -28q0 -16 -11 -27t-28 -11t-28 11zM157 809q-11 11 -11 27q0 17 11 28t28 11q16 0 27.5 -11t11.5 -28q0 -16 -11 -27t-28 -11t-28 11z" />
    <glyph glyph-name="Eth" unicode="&#xd0;" horiz-adv-x="688" 
d="M325 700q91 0 160.5 -41t108.5 -120t39 -189t-39 -189t-108.5 -120t-160.5 -41h-227v328h-88v47h88v325h227zM325 50q75 0 132 35t89 102.5t32 162.5t-32 162.5t-89 102.5t-132 35h-172v-275h185v-47h-185v-278h172z" />
    <glyph glyph-name="Ntilde" unicode="&#xd1;" horiz-adv-x="728" 
d="M148 0h-55v700h75l407 -626h5v626h55v-700h-75l-407 627h-5v-627zM395 798.5q-17 8.5 -41 24.5q-17 13 -29 19t-23 6q-35 0 -35 -53h-48q0 45 20.5 70t57.5 25q20 0 37 -8t40 -24q17 -13 29 -19t24 -6q35 0 35 52h47q0 -45 -20 -70t-57 -25q-20 0 -37 8.5z" />
    <glyph glyph-name="Ograve" unicode="&#xd2;" horiz-adv-x="725" 
d="M202.5 32q-69.5 42 -108.5 123t-39 195t39 195t108.5 123t160.5 42t160 -42t108 -123t39 -195t-39 -195t-108 -123t-160 -42t-160.5 42zM494.5 76q56.5 36 88.5 106t32 168t-32 168t-88.5 106t-131.5 36t-132 -36t-89 -106t-32 -168t32 -168t89 -106t132 -36t131.5 36z
M393 770h-45l-113 140h68z" />
    <glyph glyph-name="Oacute" unicode="&#xd3;" horiz-adv-x="725" 
d="M202.5 32q-69.5 42 -108.5 123t-39 195t39 195t108.5 123t160.5 42t160 -42t108 -123t39 -195t-39 -195t-108 -123t-160 -42t-160.5 42zM494.5 76q56.5 36 88.5 106t32 168t-32 168t-88.5 106t-131.5 36t-132 -36t-89 -106t-32 -168t32 -168t89 -106t132 -36t131.5 36z
M378 770h-45l90 140h68z" />
    <glyph glyph-name="Ocircumflex" unicode="&#xd4;" horiz-adv-x="725" 
d="M202.5 32q-69.5 42 -108.5 123t-39 195t39 195t108.5 123t160.5 42t160 -42t108 -123t39 -195t-39 -195t-108 -123t-160 -42t-160.5 42zM494.5 76q56.5 36 88.5 106t32 168t-32 168t-88.5 106t-131.5 36t-132 -36t-89 -106t-32 -168t32 -168t89 -106t132 -36t131.5 36z
M265 770h-55l130 145h45l130 -145h-55l-95 107h-5z" />
    <glyph glyph-name="Otilde" unicode="&#xd5;" horiz-adv-x="725" 
d="M202.5 32q-69.5 42 -108.5 123t-39 195t39 195t108.5 123t160.5 42t160 -42t108 -123t39 -195t-39 -195t-108 -123t-160 -42t-160.5 42zM494.5 76q56.5 36 88.5 106t32 168t-32 168t-88.5 106t-131.5 36t-132 -36t-89 -106t-32 -168t32 -168t89 -106t132 -36t131.5 36z
M394 798.5q-17 8.5 -41 24.5q-17 13 -29 19t-23 6q-35 0 -35 -53h-48q0 45 20.5 70t57.5 25q20 0 37 -8t40 -24q17 -13 29 -19t24 -6q35 0 35 52h47q0 -45 -20 -70t-57 -25q-20 0 -37 8.5z" />
    <glyph glyph-name="Odieresis" unicode="&#xd6;" horiz-adv-x="725" 
d="M202.5 32q-69.5 42 -108.5 123t-39 195t39 195t108.5 123t160.5 42t160 -42t108 -123t39 -195t-39 -195t-108 -123t-160 -42t-160.5 42zM494.5 76q56.5 36 88.5 106t32 168t-32 168t-88.5 106t-131.5 36t-132 -36t-89 -106t-32 -168t32 -168t89 -106t132 -36t131.5 36z
M250 809q-11 11 -11 27q0 17 11 28t28 11q16 0 27.5 -11t11.5 -28q0 -16 -11 -27t-28 -11t-28 11zM420 809q-11 11 -11 27q0 17 11 28t28 11q16 0 27.5 -11t11.5 -28q0 -16 -11 -27t-28 -11t-28 11z" />
    <glyph glyph-name="multiply" unicode="&#xd7;" horiz-adv-x="585" 
d="M293 295l-175 -175l-31 32l175 175l-175 174l31 32l175 -175l175 175l31 -32l-175 -174l175 -175l-31 -32z" />
    <glyph glyph-name="Oslash" unicode="&#xd8;" horiz-adv-x="725" 
d="M560 642q53 -46 81.5 -120t28.5 -172q0 -114 -39 -195t-108 -123t-160 -42q-90 0 -158 41l-33 -56h-54l48 83q-53 47 -82 121t-29 171q0 114 39 195t108.5 123t160.5 42q89 0 159 -41l32 56h54zM131.5 207.5q21.5 -61.5 62.5 -101.5l301 518q-57 36 -132 36t-132 -36
t-89 -106t-32 -168q0 -81 21.5 -142.5zM494.5 76q56.5 36 88.5 106t32 168q0 80 -21.5 142t-61.5 102l-301 -518q56 -36 132 -36q75 0 131.5 36z" />
    <glyph glyph-name="Ugrave" unicode="&#xd9;" horiz-adv-x="698" 
d="M212 24q-59 34 -91.5 99.5t-32.5 156.5v420h55v-420q0 -113 56.5 -176.5t149.5 -63.5t149.5 63.5t56.5 176.5v420h55v-420q0 -91 -32.5 -156.5t-91.5 -99.5t-137 -34t-137 34zM380 770h-45l-113 140h68z" />
    <glyph glyph-name="Uacute" unicode="&#xda;" horiz-adv-x="698" 
d="M212 24q-59 34 -91.5 99.5t-32.5 156.5v420h55v-420q0 -113 56.5 -176.5t149.5 -63.5t149.5 63.5t56.5 176.5v420h55v-420q0 -91 -32.5 -156.5t-91.5 -99.5t-137 -34t-137 34zM364 770h-45l90 140h68z" />
    <glyph glyph-name="Ucircumflex" unicode="&#xdb;" horiz-adv-x="698" 
d="M212 24q-59 34 -91.5 99.5t-32.5 156.5v420h55v-420q0 -113 56.5 -176.5t149.5 -63.5t149.5 63.5t56.5 176.5v420h55v-420q0 -91 -32.5 -156.5t-91.5 -99.5t-137 -34t-137 34zM251 770h-55l130 145h45l130 -145h-55l-95 107h-5z" />
    <glyph glyph-name="Udieresis" unicode="&#xdc;" horiz-adv-x="698" 
d="M212 24q-59 34 -91.5 99.5t-32.5 156.5v420h55v-420q0 -113 56.5 -176.5t149.5 -63.5t149.5 63.5t56.5 176.5v420h55v-420q0 -91 -32.5 -156.5t-91.5 -99.5t-137 -34t-137 34zM236 809q-11 11 -11 27q0 17 11 28t28 11q16 0 27.5 -11t11.5 -28q0 -16 -11 -27t-28 -11
t-28 11zM406 809q-11 11 -11 27q0 17 11 28t28 11q16 0 27.5 -11t11.5 -28q0 -16 -11 -27t-28 -11t-28 11z" />
    <glyph glyph-name="Yacute" unicode="&#xdd;" horiz-adv-x="570" 
d="M313 0h-55v270l-248 430h59l214 -375h5l213 375h59l-247 -430v-270zM301 770h-45l90 140h68z" />
    <glyph glyph-name="Thorn" unicode="&#xde;" horiz-adv-x="683" 
d="M93 0v700h55v-175h297q89 0 139.5 -47.5t50.5 -127.5t-50.5 -127.5t-139.5 -47.5h-297v-175h-55zM443 225q66 0 101.5 33t35.5 92t-35.5 92t-101.5 33h-295v-250h295z" />
    <glyph glyph-name="germandbls" unicode="&#xdf;" horiz-adv-x="555" 
d="M78 508q0 93 55.5 147.5t149.5 54.5q64 0 110 -26t69 -67.5t23 -88.5q0 -58 -31 -104t-82 -63q62 -13 100 -59t38 -114q0 -89 -57 -138.5t-158 -49.5h-52v48h52q79 0 122 37.5t43 104.5q0 68 -43 105.5t-122 37.5h-52v47h40q68 0 110 39.5t42 103.5q0 61 -42 100.5
t-110 39.5q-71 0 -113 -42.5t-42 -112.5v-508h-50v508z" />
    <glyph glyph-name="agrave" unicode="&#xe0;" horiz-adv-x="518" 
d="M393.5 475q51.5 -50 51.5 -135v-340h-40l-7 83h-5q-19 -38 -64 -65.5t-106 -27.5q-81 0 -129.5 43t-48.5 112q0 68 48.5 110.5t134.5 42.5h167v42q0 66 -38.5 102t-106.5 36q-107 0 -137 -98h-53q17 70 67 107.5t123 37.5q92 0 143.5 -50zM347.5 84q47.5 46 47.5 121v45
h-167q-65 0 -99 -28.5t-34 -76.5q0 -50 34.5 -78.5t93.5 -28.5q77 0 124.5 46zM288 595h-45l-113 140h68z" />
    <glyph glyph-name="aacute" unicode="&#xe1;" horiz-adv-x="518" 
d="M393.5 475q51.5 -50 51.5 -135v-340h-40l-7 83h-5q-19 -38 -64 -65.5t-106 -27.5q-81 0 -129.5 43t-48.5 112q0 68 48.5 110.5t134.5 42.5h167v42q0 66 -38.5 102t-106.5 36q-107 0 -137 -98h-53q17 70 67 107.5t123 37.5q92 0 143.5 -50zM347.5 84q47.5 46 47.5 121v45
h-167q-65 0 -99 -28.5t-34 -76.5q0 -50 34.5 -78.5t93.5 -28.5q77 0 124.5 46zM273 595h-45l90 140h68z" />
    <glyph glyph-name="acircumflex" unicode="&#xe2;" horiz-adv-x="518" 
d="M393.5 475q51.5 -50 51.5 -135v-340h-40l-7 83h-5q-19 -38 -64 -65.5t-106 -27.5q-81 0 -129.5 43t-48.5 112q0 68 48.5 110.5t134.5 42.5h167v42q0 66 -38.5 102t-106.5 36q-107 0 -137 -98h-53q17 70 67 107.5t123 37.5q92 0 143.5 -50zM347.5 84q47.5 46 47.5 121v45
h-167q-65 0 -99 -28.5t-34 -76.5q0 -50 34.5 -78.5t93.5 -28.5q77 0 124.5 46zM160 595h-55l130 145h45l130 -145h-55l-95 107h-5z" />
    <glyph glyph-name="atilde" unicode="&#xe3;" horiz-adv-x="518" 
d="M393.5 475q51.5 -50 51.5 -135v-340h-40l-7 83h-5q-19 -38 -64 -65.5t-106 -27.5q-81 0 -129.5 43t-48.5 112q0 68 48.5 110.5t134.5 42.5h167v42q0 66 -38.5 102t-106.5 36q-107 0 -137 -98h-53q17 70 67 107.5t123 37.5q92 0 143.5 -50zM347.5 84q47.5 46 47.5 121v45
h-167q-65 0 -99 -28.5t-34 -76.5q0 -50 34.5 -78.5t93.5 -28.5q77 0 124.5 46zM289 623.5q-17 8.5 -41 24.5q-17 13 -29 19t-23 6q-35 0 -35 -53h-48q0 45 20.5 70t57.5 25q20 0 37 -8t40 -24q17 -13 29 -19t24 -6q35 0 35 52h47q0 -45 -20 -70t-57 -25q-20 0 -37 8.5z" />
    <glyph glyph-name="adieresis" unicode="&#xe4;" horiz-adv-x="518" 
d="M393.5 475q51.5 -50 51.5 -135v-340h-40l-7 83h-5q-19 -38 -64 -65.5t-106 -27.5q-81 0 -129.5 43t-48.5 112q0 68 48.5 110.5t134.5 42.5h167v42q0 66 -38.5 102t-106.5 36q-107 0 -137 -98h-53q17 70 67 107.5t123 37.5q92 0 143.5 -50zM347.5 84q47.5 46 47.5 121v45
h-167q-65 0 -99 -28.5t-34 -76.5q0 -50 34.5 -78.5t93.5 -28.5q77 0 124.5 46zM145 634q-11 11 -11 27q0 17 11 28t28 11q16 0 27.5 -11t11.5 -28q0 -16 -11 -27t-28 -11t-28 11zM315 634q-11 11 -11 27q0 17 11 28t28 11q16 0 27.5 -11t11.5 -28q0 -16 -11 -27t-28 -11
t-28 11z" />
    <glyph glyph-name="aring" unicode="&#xe5;" horiz-adv-x="518" 
d="M393.5 475q51.5 -50 51.5 -135v-340h-40l-7 83h-5q-19 -38 -64 -65.5t-106 -27.5q-81 0 -129.5 43t-48.5 112q0 68 48.5 110.5t134.5 42.5h167v42q0 66 -38.5 102t-106.5 36q-107 0 -137 -98h-53q17 70 67 107.5t123 37.5q92 0 143.5 -50zM347.5 84q47.5 46 47.5 121v45
h-167q-65 0 -99 -28.5t-34 -76.5q0 -50 34.5 -78.5t93.5 -28.5q77 0 124.5 46zM192 600.5q-26 25.5 -26 66.5t26 67t66 26t66.5 -26t26.5 -67t-26.5 -66.5t-66.5 -25.5t-66 25.5zM299 627.5q15 14.5 15 39.5q0 26 -15.5 41t-40.5 15t-39.5 -15t-14.5 -41q0 -25 14.5 -39.5
t39.5 -14.5q26 0 41 14.5z" />
    <glyph glyph-name="ae" unicode="&#xe6;" horiz-adv-x="893" 
d="M843 243h-397q5 -100 53 -152.5t126 -52.5q104 0 154 97h54q-28 -71 -82 -108t-126 -37q-70 0 -121.5 34t-78.5 94q-23 -57 -76 -92.5t-126 -35.5q-81 0 -129.5 43t-48.5 110q0 66 46 106.5t132 40.5h172v50q0 67 -38.5 102.5t-106.5 35.5q-107 0 -137 -98h-53
q17 70 67 107.5t123 37.5t120 -33t61 -87q30 59 78.5 89.5t110.5 30.5q68 0 119 -33t78.5 -88.5t27.5 -120.5q0 -22 -2 -40zM796 290q-6 92 -55 140t-121 48q-74 0 -121 -51.5t-53 -136.5h350zM347.5 84q47.5 46 47.5 121v38h-172q-65 0 -96.5 -27t-31.5 -73q0 -48 35 -76.5
t93 -28.5q77 0 124.5 46z" />
    <glyph glyph-name="ccedilla" unicode="&#xe7;" horiz-adv-x="538" 
d="M380 63.5q40 25.5 64 71.5h54q-27 -66 -77.5 -103t-118.5 -41l-12 -29q33 -1 56.5 -23.5t23.5 -56.5q0 -37 -24.5 -61t-62.5 -24h-53v38h48q22 0 36 13t14 34q0 20 -14 32.5t-36 12.5h-35v25l18 39q-95 8 -153 78.5t-58 188.5q0 83 30 143.5t83 92t122 31.5
q74 0 129.5 -37t83.5 -108h-54q-24 46 -64 72t-95 26q-86 0 -135.5 -61t-49.5 -159q0 -99 49.5 -159.5t135.5 -60.5q55 0 95 25.5z" />
    <glyph glyph-name="egrave" unicode="&#xe8;" horiz-adv-x="558" 
d="M508 243h-408q4 -95 53 -150t132 -55q55 0 95 25.5t64 71.5h54q-28 -71 -83.5 -108t-129.5 -37q-69 0 -122 32t-83 92.5t-30 143.5t29.5 143.5t82 92t118.5 31.5q67 0 119.5 -33t81.5 -88t29 -121q0 -22 -2 -40zM460 290q-5 86 -53.5 137t-126.5 51q-77 0 -124 -51
t-55 -137h359zM312 595h-45l-113 140h68z" />
    <glyph glyph-name="eacute" unicode="&#xe9;" horiz-adv-x="558" 
d="M508 243h-408q4 -95 53 -150t132 -55q55 0 95 25.5t64 71.5h54q-28 -71 -83.5 -108t-129.5 -37q-69 0 -122 32t-83 92.5t-30 143.5t29.5 143.5t82 92t118.5 31.5q67 0 119.5 -33t81.5 -88t29 -121q0 -22 -2 -40zM460 290q-5 86 -53.5 137t-126.5 51q-77 0 -124 -51
t-55 -137h359zM297 595h-45l90 140h68z" />
    <glyph glyph-name="ecircumflex" unicode="&#xea;" horiz-adv-x="558" 
d="M508 243h-408q4 -95 53 -150t132 -55q55 0 95 25.5t64 71.5h54q-28 -71 -83.5 -108t-129.5 -37q-69 0 -122 32t-83 92.5t-30 143.5t29.5 143.5t82 92t118.5 31.5q67 0 119.5 -33t81.5 -88t29 -121q0 -22 -2 -40zM460 290q-5 86 -53.5 137t-126.5 51q-77 0 -124 -51
t-55 -137h359zM184 595h-55l130 145h45l130 -145h-55l-95 107h-5z" />
    <glyph glyph-name="edieresis" unicode="&#xeb;" horiz-adv-x="558" 
d="M508 243h-408q4 -95 53 -150t132 -55q55 0 95 25.5t64 71.5h54q-28 -71 -83.5 -108t-129.5 -37q-69 0 -122 32t-83 92.5t-30 143.5t29.5 143.5t82 92t118.5 31.5q67 0 119.5 -33t81.5 -88t29 -121q0 -22 -2 -40zM460 290q-5 86 -53.5 137t-126.5 51q-77 0 -124 -51
t-55 -137h359zM169 634q-11 11 -11 27q0 17 11 28t28 11q16 0 27.5 -11t11.5 -28q0 -16 -11 -27t-28 -11t-28 11zM339 634q-11 11 -11 27q0 17 11 28t28 11q16 0 27.5 -11t11.5 -28q0 -16 -11 -27t-28 -11t-28 11z" />
    <glyph glyph-name="igrave" unicode="&#xec;" horiz-adv-x="205" 
d="M128 0h-50v515h50v-515zM133 595h-45l-113 140h68z" />
    <glyph glyph-name="iacute" unicode="&#xed;" horiz-adv-x="205" 
d="M128 0h-50v515h50v-515zM118 595h-45l90 140h68z" />
    <glyph glyph-name="icircumflex" unicode="&#xee;" horiz-adv-x="205" 
d="M128 0h-50v515h50v-515zM4 595h-55l130 145h45l130 -145h-55l-95 107h-5z" />
    <glyph glyph-name="idieresis" unicode="&#xef;" horiz-adv-x="205" 
d="M128 0h-50v515h50v-515zM9 634q-11 11 -11 27q0 17 11 28t28 11q16 0 27.5 -11t11.5 -28q0 -16 -11 -27t-28 -11t-28 11zM139 634q-11 11 -11 27q0 17 11 28t28 11q16 0 27.5 -11t11.5 -28q0 -16 -11 -27t-28 -11t-28 11z" />
    <glyph glyph-name="eth" unicode="&#xf0;" horiz-adv-x="555" 
d="M347 609q75 -75 114 -167.5t39 -196.5q0 -118 -61.5 -186.5t-168.5 -68.5q-65 0 -115 28.5t-77.5 83.5t-27.5 131q0 77 28 131.5t78 82.5t114 28q49 0 87.5 -19t59.5 -46h5q-38 101 -119 179l-133 -60l-18 37l118 53q-52 44 -130 86h83q53 -32 91 -66l101 46l18 -37z
M400 90.5q48 52.5 48 142.5t-48.5 142.5t-124.5 52.5q-82 0 -128.5 -53t-46.5 -142t46.5 -142t128.5 -53q77 0 125 52.5z" />
    <glyph glyph-name="ntilde" unicode="&#xf1;" horiz-adv-x="555" 
d="M78 0v515h40l7 -82h5q24 45 66.5 68.5t93.5 23.5q56 0 100 -25.5t68.5 -72.5t24.5 -109v-318h-50v318q0 73 -40.5 116.5t-107.5 43.5q-44 0 -80 -21.5t-56.5 -58.5t-20.5 -80v-318h-50zM311 623.5q-17 8.5 -41 24.5q-17 13 -29 19t-23 6q-35 0 -35 -53h-48q0 45 20.5 70
t57.5 25q20 0 37 -8t40 -24q17 -13 29 -19t24 -6q35 0 35 52h47q0 -45 -20 -70t-57 -25q-20 0 -37 8.5z" />
    <glyph glyph-name="ograve" unicode="&#xf2;" horiz-adv-x="570" 
d="M163 22q-53 32 -83 92.5t-30 143.5t30 143.5t83 92t122 31.5t122.5 -31.5t83 -92t29.5 -143.5t-29.5 -143.5t-83 -92.5t-122.5 -32t-122 32zM421 98.5q49 60.5 49 159.5q0 98 -49 159t-136 61q-86 0 -135.5 -61t-49.5 -159q0 -99 49.5 -159.5t135.5 -60.5q87 0 136 60.5z
M316 595h-45l-113 140h68z" />
    <glyph glyph-name="oacute" unicode="&#xf3;" horiz-adv-x="570" 
d="M163 22q-53 32 -83 92.5t-30 143.5t30 143.5t83 92t122 31.5t122.5 -31.5t83 -92t29.5 -143.5t-29.5 -143.5t-83 -92.5t-122.5 -32t-122 32zM421 98.5q49 60.5 49 159.5q0 98 -49 159t-136 61q-86 0 -135.5 -61t-49.5 -159q0 -99 49.5 -159.5t135.5 -60.5q87 0 136 60.5z
M300 595h-45l90 140h68z" />
    <glyph glyph-name="ocircumflex" unicode="&#xf4;" horiz-adv-x="570" 
d="M163 22q-53 32 -83 92.5t-30 143.5t30 143.5t83 92t122 31.5t122.5 -31.5t83 -92t29.5 -143.5t-29.5 -143.5t-83 -92.5t-122.5 -32t-122 32zM421 98.5q49 60.5 49 159.5q0 98 -49 159t-136 61q-86 0 -135.5 -61t-49.5 -159q0 -99 49.5 -159.5t135.5 -60.5q87 0 136 60.5z
M187 595h-55l130 145h45l130 -145h-55l-95 107h-5z" />
    <glyph glyph-name="otilde" unicode="&#xf5;" horiz-adv-x="570" 
d="M163 22q-53 32 -83 92.5t-30 143.5t30 143.5t83 92t122 31.5t122.5 -31.5t83 -92t29.5 -143.5t-29.5 -143.5t-83 -92.5t-122.5 -32t-122 32zM421 98.5q49 60.5 49 159.5q0 98 -49 159t-136 61q-86 0 -135.5 -61t-49.5 -159q0 -99 49.5 -159.5t135.5 -60.5q87 0 136 60.5z
M316 623.5q-17 8.5 -41 24.5q-17 13 -29 19t-23 6q-35 0 -35 -53h-48q0 45 20.5 70t57.5 25q20 0 37 -8t40 -24q17 -13 29 -19t24 -6q35 0 35 52h47q0 -45 -20 -70t-57 -25q-20 0 -37 8.5z" />
    <glyph glyph-name="odieresis" unicode="&#xf6;" horiz-adv-x="570" 
d="M163 22q-53 32 -83 92.5t-30 143.5t30 143.5t83 92t122 31.5t122.5 -31.5t83 -92t29.5 -143.5t-29.5 -143.5t-83 -92.5t-122.5 -32t-122 32zM421 98.5q49 60.5 49 159.5q0 98 -49 159t-136 61q-86 0 -135.5 -61t-49.5 -159q0 -99 49.5 -159.5t135.5 -60.5q87 0 136 60.5z
M172 634q-11 11 -11 27q0 17 11 28t28 11q16 0 27.5 -11t11.5 -28q0 -16 -11 -27t-28 -11t-28 11zM342 634q-11 11 -11 27q0 17 11 28t28 11q16 0 27.5 -11t11.5 -28q0 -16 -11 -27t-28 -11t-28 11z" />
    <glyph glyph-name="divide" unicode="&#xf7;" horiz-adv-x="585" 
d="M266 488.5q-10 10.5 -10 27.5q0 16 10 26.5t27 10.5q18 0 28 -10.5t10 -26.5q0 -17 -10 -27.5t-28 -10.5q-17 0 -27 10.5zM519 300h-452v48h452v-48zM266 105.5q-10 10.5 -10 26.5q0 17 10 27.5t27 10.5q18 0 28 -10.5t10 -27.5q0 -16 -10 -26.5t-28 -10.5
q-17 0 -27 10.5z" />
    <glyph glyph-name="oslash" unicode="&#xf8;" horiz-adv-x="570" 
d="M445 465q36 -35 55.5 -87.5t19.5 -119.5q0 -83 -29.5 -143.5t-83 -92.5t-122.5 -32q-71 0 -124 33l-28 -43h-52l45 70q-76 73 -76 208q0 83 30 143.5t83 92t122 31.5q73 0 125 -33l28 43h52zM154 93l230 358q-43 27 -99 27q-86 0 -135.5 -61t-49.5 -159q0 -103 54 -165z
M421 98.5q49 60.5 49 159.5q0 103 -53 164l-229 -357q41 -27 97 -27q87 0 136 60.5z" />
    <glyph glyph-name="ugrave" unicode="&#xf9;" horiz-adv-x="560" 
d="M170.5 15.5q-43.5 25.5 -68 72.5t-24.5 110v317h50v-317q0 -74 40 -117t107 -43q44 0 80 21.5t57 58t21 80.5v317h50v-515h-40l-8 83h-5q-23 -46 -65.5 -69.5t-94.5 -23.5q-56 0 -99.5 25.5zM311 595h-45l-113 140h68z" />
    <glyph glyph-name="uacute" unicode="&#xfa;" horiz-adv-x="560" 
d="M170.5 15.5q-43.5 25.5 -68 72.5t-24.5 110v317h50v-317q0 -74 40 -117t107 -43q44 0 80 21.5t57 58t21 80.5v317h50v-515h-40l-8 83h-5q-23 -46 -65.5 -69.5t-94.5 -23.5q-56 0 -99.5 25.5zM295 595h-45l90 140h68z" />
    <glyph glyph-name="ucircumflex" unicode="&#xfb;" horiz-adv-x="560" 
d="M170.5 15.5q-43.5 25.5 -68 72.5t-24.5 110v317h50v-317q0 -74 40 -117t107 -43q44 0 80 21.5t57 58t21 80.5v317h50v-515h-40l-8 83h-5q-23 -46 -65.5 -69.5t-94.5 -23.5q-56 0 -99.5 25.5zM182 595h-55l130 145h45l130 -145h-55l-95 107h-5z" />
    <glyph glyph-name="udieresis" unicode="&#xfc;" horiz-adv-x="560" 
d="M170.5 15.5q-43.5 25.5 -68 72.5t-24.5 110v317h50v-317q0 -74 40 -117t107 -43q44 0 80 21.5t57 58t21 80.5v317h50v-515h-40l-8 83h-5q-23 -46 -65.5 -69.5t-94.5 -23.5q-56 0 -99.5 25.5zM167 634q-11 11 -11 27q0 17 11 28t28 11q16 0 27.5 -11t11.5 -28
q0 -16 -11 -27t-28 -11t-28 11zM337 634q-11 11 -11 27q0 17 11 28t28 11q16 0 27.5 -11t11.5 -28q0 -16 -11 -27t-28 -11t-28 11z" />
    <glyph glyph-name="yacute" unicode="&#xfd;" horiz-adv-x="490" 
d="M197 -200h-53l80 201l-216 514h53l187 -442h5l176 442h54zM260 595h-45l90 140h68z" />
    <glyph glyph-name="thorn" unicode="&#xfe;" horiz-adv-x="590" 
d="M83 -200v900h50v-275h5q27 50 73 75t104 25q67 0 117.5 -31.5t79 -92t28.5 -143.5t-28.5 -143.5t-79 -92.5t-117.5 -32q-57 0 -103.5 25.5t-73.5 74.5h-5v-290h-50zM443 98q47 60 47 160q0 99 -47 159.5t-133 60.5q-83 0 -130 -60.5t-47 -159.5t47 -159.5t130 -60.5
q86 0 133 60z" />
    <glyph glyph-name="ydieresis" unicode="&#xff;" horiz-adv-x="490" 
d="M197 -200h-53l80 201l-216 514h53l187 -442h5l176 442h54zM132 634q-11 11 -11 27q0 17 11 28t28 11q16 0 27.5 -11t11.5 -28q0 -16 -11 -27t-28 -11t-28 11zM302 634q-11 11 -11 27q0 17 11 28t28 11q16 0 27.5 -11t11.5 -28q0 -16 -11 -27t-28 -11t-28 11z" />
    <glyph glyph-name="Amacron" unicode="&#x100;" horiz-adv-x="615" 
d="M605 0h-55l-70 188h-344l-71 -188h-55l265 700h65zM305 640l-151 -402h307l-151 402h-5zM443 815h-270v45h270v-45z" />
    <glyph glyph-name="amacron" unicode="&#x101;" horiz-adv-x="518" 
d="M393.5 475q51.5 -50 51.5 -135v-340h-40l-7 83h-5q-19 -38 -64 -65.5t-106 -27.5q-81 0 -129.5 43t-48.5 112q0 68 48.5 110.5t134.5 42.5h167v42q0 66 -38.5 102t-106.5 36q-107 0 -137 -98h-53q17 70 67 107.5t123 37.5q92 0 143.5 -50zM347.5 84q47.5 46 47.5 121v45
h-167q-65 0 -99 -28.5t-34 -76.5q0 -50 34.5 -78.5t93.5 -28.5q77 0 124.5 46zM393 640h-270v45h270v-45z" />
    <glyph glyph-name="Abreve" unicode="&#x102;" horiz-adv-x="615" 
d="M605 0h-55l-70 188h-344l-71 -188h-55l265 700h65zM305 640l-151 -402h307l-151 402h-5zM212.5 811.5q-36.5 31.5 -41.5 88.5h48q3 -37 27 -57t63 -20t62.5 20t27.5 57h47q-5 -57 -41 -88.5t-96 -31.5t-96.5 31.5z" />
    <glyph glyph-name="abreve" unicode="&#x103;" horiz-adv-x="518" 
d="M393.5 475q51.5 -50 51.5 -135v-340h-40l-7 83h-5q-19 -38 -64 -65.5t-106 -27.5q-81 0 -129.5 43t-48.5 112q0 68 48.5 110.5t134.5 42.5h167v42q0 66 -38.5 102t-106.5 36q-107 0 -137 -98h-53q17 70 67 107.5t123 37.5q92 0 143.5 -50zM347.5 84q47.5 46 47.5 121v45
h-167q-65 0 -99 -28.5t-34 -76.5q0 -50 34.5 -78.5t93.5 -28.5q77 0 124.5 46zM161.5 636.5q-36.5 31.5 -41.5 88.5h48q3 -37 27 -57t63 -20t62.5 20t27.5 57h47q-5 -57 -41 -88.5t-96 -31.5t-96.5 31.5z" />
    <glyph glyph-name="Aogonek" unicode="&#x104;" horiz-adv-x="615" 
d="M541 -133q15 -12 42 -12h23v-40h-28q-45 0 -70 22t-25 60q0 34 20 60t54 43h-7l-70 188h-344l-71 -188h-55l265 700h65l265 -699l1 -1q-43 -25 -61.5 -46.5t-18.5 -51.5q0 -23 15 -35zM305 640l-151 -402h307l-151 402h-5z" />
    <glyph glyph-name="aogonek" unicode="&#x105;" horiz-adv-x="518" 
d="M381 -133q15 -12 42 -12h23v-40h-28q-45 0 -70 22t-25 60q0 36 22.5 63t59.5 44l-7 79h-5q-19 -38 -64 -65.5t-106 -27.5q-81 0 -129.5 43t-48.5 112q0 68 48.5 110.5t134.5 42.5h167v42q0 66 -38.5 102t-106.5 36q-107 0 -137 -98h-53q17 70 67 107.5t123 37.5
q92 0 143.5 -50t51.5 -135v-340h1q-43 -25 -61.5 -46.5t-18.5 -51.5q0 -23 15 -35zM347.5 84q47.5 46 47.5 121v45h-167q-65 0 -99 -28.5t-34 -76.5q0 -50 34.5 -78.5t93.5 -28.5q77 0 124.5 46z" />
    <glyph glyph-name="Cacute" unicode="&#x106;" horiz-adv-x="685" 
d="M202.5 32q-69.5 42 -108.5 123t-39 195t39 195t108.5 123t160.5 42q100 0 171 -49.5t106 -145.5h-57q-64 145 -220 145q-75 0 -132 -36t-89 -106t-32 -168t32 -168t89 -106t132 -36q156 0 220 145h57q-35 -95 -106.5 -145t-170.5 -50q-91 0 -160.5 42zM378 770h-45
l90 140h68z" />
    <glyph glyph-name="cacute" unicode="&#x107;" horiz-adv-x="538" 
d="M163 22q-53 32 -83 92.5t-30 143.5t30 143.5t83 92t122 31.5q74 0 129.5 -37t83.5 -108h-54q-24 46 -64 72t-95 26q-86 0 -135.5 -61t-49.5 -159q0 -99 49.5 -159.5t135.5 -60.5q55 0 95 25.5t64 71.5h54q-28 -71 -83.5 -108t-129.5 -37q-69 0 -122 32zM300 595h-45
l90 140h68z" />
    <glyph glyph-name="Ccircumflex" unicode="&#x108;" horiz-adv-x="685" 
d="M202.5 32q-69.5 42 -108.5 123t-39 195t39 195t108.5 123t160.5 42q100 0 171 -49.5t106 -145.5h-57q-64 145 -220 145q-75 0 -132 -36t-89 -106t-32 -168t32 -168t89 -106t132 -36q156 0 220 145h57q-35 -95 -106.5 -145t-170.5 -50q-91 0 -160.5 42zM265 770h-55
l130 145h45l130 -145h-55l-95 107h-5z" />
    <glyph glyph-name="ccircumflex" unicode="&#x109;" horiz-adv-x="538" 
d="M163 22q-53 32 -83 92.5t-30 143.5t30 143.5t83 92t122 31.5q74 0 129.5 -37t83.5 -108h-54q-24 46 -64 72t-95 26q-86 0 -135.5 -61t-49.5 -159q0 -99 49.5 -159.5t135.5 -60.5q55 0 95 25.5t64 71.5h54q-28 -71 -83.5 -108t-129.5 -37q-69 0 -122 32zM187 595h-55
l130 145h45l130 -145h-55l-95 107h-5z" />
    <glyph glyph-name="Cdotaccent" unicode="&#x10a;" horiz-adv-x="685" 
d="M202.5 32q-69.5 42 -108.5 123t-39 195t39 195t108.5 123t160.5 42q100 0 171 -49.5t106 -145.5h-57q-64 145 -220 145q-75 0 -132 -36t-89 -106t-32 -168t32 -168t89 -106t132 -36q156 0 220 145h57q-35 -95 -106.5 -145t-170.5 -50q-91 0 -160.5 42zM335 809
q-11 11 -11 27q0 17 11 28t28 11q16 0 27.5 -11t11.5 -28q0 -16 -11 -27t-28 -11t-28 11z" />
    <glyph glyph-name="cdotaccent" unicode="&#x10b;" horiz-adv-x="538" 
d="M163 22q-53 32 -83 92.5t-30 143.5t30 143.5t83 92t122 31.5q74 0 129.5 -37t83.5 -108h-54q-24 46 -64 72t-95 26q-86 0 -135.5 -61t-49.5 -159q0 -99 49.5 -159.5t135.5 -60.5q55 0 95 25.5t64 71.5h54q-28 -71 -83.5 -108t-129.5 -37q-69 0 -122 32zM257 634
q-11 11 -11 27q0 17 11 28t28 11q16 0 27.5 -11t11.5 -28q0 -16 -11.5 -27t-27.5 -11q-17 0 -28 11z" />
    <glyph glyph-name="Ccaron" unicode="&#x10c;" horiz-adv-x="685" 
d="M202.5 32q-69.5 42 -108.5 123t-39 195t39 195t108.5 123t160.5 42q100 0 171 -49.5t106 -145.5h-57q-64 145 -220 145q-75 0 -132 -36t-89 -106t-32 -168t32 -168t89 -106t132 -36q156 0 220 145h57q-35 -95 -106.5 -145t-170.5 -50q-91 0 -160.5 42zM385 770h-45
l-130 145h55l95 -106h5l95 106h55z" />
    <glyph glyph-name="ccaron" unicode="&#x10d;" horiz-adv-x="538" 
d="M163 22q-53 32 -83 92.5t-30 143.5t30 143.5t83 92t122 31.5q74 0 129.5 -37t83.5 -108h-54q-24 46 -64 72t-95 26q-86 0 -135.5 -61t-49.5 -159q0 -99 49.5 -159.5t135.5 -60.5q55 0 95 25.5t64 71.5h54q-28 -71 -83.5 -108t-129.5 -37q-69 0 -122 32zM307 595h-45
l-130 145h55l95 -106h5l95 106h55z" />
    <glyph glyph-name="Dcaron" unicode="&#x10e;" horiz-adv-x="683" 
d="M93 0v700h227q91 0 160.5 -41t108.5 -120t39 -189t-39 -189t-108.5 -120t-160.5 -41h-227zM320 50q75 0 132 35t89 102.5t32 162.5t-32 162.5t-89 102.5t-132 35h-172v-600h172zM367 770h-45l-130 145h55l95 -106h5l95 106h55z" />
    <glyph glyph-name="dcaron" unicode="&#x10f;" horiz-adv-x="590" 
d="M158 22q-51 32 -79.5 92.5t-28.5 143.5t28.5 143.5t79.5 92t117 31.5q58 0 104 -25t74 -75h5v275h50v-700h-40l-8 93h-5q-27 -51 -74.5 -77t-105.5 -26q-66 0 -117 32zM410.5 98.5q47.5 60.5 47.5 159.5t-47.5 159.5t-130.5 60.5q-86 0 -133 -60.5t-47 -159.5t47 -159.5
t133 -60.5q83 0 130.5 60.5zM613 540h-35l45 160h58z" />
    <glyph glyph-name="Dcroat" unicode="&#x110;" horiz-adv-x="688" 
d="M325 700q91 0 160.5 -41t108.5 -120t39 -189t-39 -189t-108.5 -120t-160.5 -41h-227v328h-88v47h88v325h227zM325 50q75 0 132 35t89 102.5t32 162.5t-32 162.5t-89 102.5t-132 35h-172v-275h185v-47h-185v-278h172z" />
    <glyph glyph-name="dcroat" unicode="&#x111;" horiz-adv-x="585" 
d="M580 610v-45h-82v-565h-40l-8 93h-5q-22 -50 -68.5 -76.5t-106.5 -26.5q-64 0 -114 28t-78 83t-28 132t28 131.5t78 82.5t114 28q58 0 103 -25t70 -70h5v185h-143v45h143v90h50v-90h82zM400 90.5q48 52.5 48 142.5t-48.5 142.5t-124.5 52.5q-82 0 -128.5 -53t-46.5 -142
t46.5 -142t128.5 -53q77 0 125 52.5z" />
    <glyph glyph-name="Emacron" unicode="&#x112;" horiz-adv-x="595" 
d="M148 328v-278h385v-50h-440v700h430v-50h-375v-272h355v-50h-355zM443 815h-270v45h270v-45z" />
    <glyph glyph-name="emacron" unicode="&#x113;" horiz-adv-x="558" 
d="M508 243h-408q4 -95 53 -150t132 -55q55 0 95 25.5t64 71.5h54q-28 -71 -83.5 -108t-129.5 -37q-69 0 -122 32t-83 92.5t-30 143.5t29.5 143.5t82 92t118.5 31.5q67 0 119.5 -33t81.5 -88t29 -121q0 -22 -2 -40zM460 290q-5 86 -53.5 137t-126.5 51q-77 0 -124 -51
t-55 -137h359zM417 640h-270v45h270v-45z" />
    <glyph glyph-name="Ebreve" unicode="&#x114;" horiz-adv-x="595" 
d="M148 328v-278h385v-50h-440v700h430v-50h-375v-272h355v-50h-355zM211.5 811.5q-36.5 31.5 -41.5 88.5h48q3 -37 27 -57t63 -20t62.5 20t27.5 57h47q-5 -57 -41 -88.5t-96 -31.5t-96.5 31.5z" />
    <glyph glyph-name="ebreve" unicode="&#x115;" horiz-adv-x="558" 
d="M508 243h-408q4 -95 53 -150t132 -55q55 0 95 25.5t64 71.5h54q-28 -71 -83.5 -108t-129.5 -37q-69 0 -122 32t-83 92.5t-30 143.5t29.5 143.5t82 92t118.5 31.5q67 0 119.5 -33t81.5 -88t29 -121q0 -22 -2 -40zM460 290q-5 86 -53.5 137t-126.5 51q-77 0 -124 -51
t-55 -137h359zM185.5 636.5q-36.5 31.5 -41.5 88.5h48q3 -37 27 -57t63 -20t62.5 20t27.5 57h47q-5 -57 -41 -88.5t-96 -31.5t-96.5 31.5z" />
    <glyph glyph-name="Edotaccent" unicode="&#x116;" horiz-adv-x="595" 
d="M148 328v-278h385v-50h-440v700h430v-50h-375v-272h355v-50h-355zM280 809q-11 11 -11 27q0 17 11 28t28 11q16 0 27.5 -11t11.5 -28q0 -16 -11 -27t-28 -11t-28 11z" />
    <glyph glyph-name="edotaccent" unicode="&#x117;" horiz-adv-x="558" 
d="M508 243h-408q4 -95 53 -150t132 -55q55 0 95 25.5t64 71.5h54q-28 -71 -83.5 -108t-129.5 -37q-69 0 -122 32t-83 92.5t-30 143.5t29.5 143.5t82 92t118.5 31.5q67 0 119.5 -33t81.5 -88t29 -121q0 -22 -2 -40zM460 290q-5 86 -53.5 137t-126.5 51q-77 0 -124 -51
t-55 -137h359zM254 634q-11 11 -11 27q0 17 11 28t28 11q16 0 27.5 -11t11.5 -28q0 -16 -11.5 -27t-27.5 -11q-17 0 -28 11z" />
    <glyph glyph-name="Eogonek" unicode="&#x118;" horiz-adv-x="595" 
d="M533 0q-43 -25 -61.5 -46.5t-18.5 -51.5q0 -23 15 -35t42 -12h23v-40h-28q-45 0 -70 22t-25 60q0 34 20 60t54 43h-391v700h430v-50h-375v-272h355v-50h-355v-278h385v-50z" />
    <glyph glyph-name="eogonek" unicode="&#x119;" horiz-adv-x="558" 
d="M508 243h-408q4 -95 53 -150t132 -55q55 0 95 25.5t64 71.5h54q-10 -27 -25 -48t-42 -54q-32 -37 -47.5 -63t-15.5 -60q0 -55 57 -55h23v-40h-28q-46 0 -70.5 23t-24.5 64q0 54 43 103q-35 -15 -83 -15q-69 0 -122 32t-83 92.5t-30 143.5t29.5 143.5t82 92t118.5 31.5
q67 0 119.5 -33t81.5 -88t29 -121q0 -26 -2 -40zM460 290q-5 89 -54.5 138.5t-125.5 49.5q-77 0 -124 -51t-55 -137h359z" />
    <glyph glyph-name="Ecaron" unicode="&#x11a;" horiz-adv-x="595" 
d="M148 328v-278h385v-50h-440v700h430v-50h-375v-272h355v-50h-355zM330 770h-45l-130 145h55l95 -106h5l95 106h55z" />
    <glyph glyph-name="ecaron" unicode="&#x11b;" horiz-adv-x="558" 
d="M508 243h-408q4 -95 53 -150t132 -55q55 0 95 25.5t64 71.5h54q-28 -71 -83.5 -108t-129.5 -37q-69 0 -122 32t-83 92.5t-30 143.5t29.5 143.5t82 92t118.5 31.5q67 0 119.5 -33t81.5 -88t29 -121q0 -22 -2 -40zM460 290q-5 86 -53.5 137t-126.5 51q-77 0 -124 -51
t-55 -137h359zM304 595h-45l-130 145h55l95 -106h5l95 106h55z" />
    <glyph glyph-name="Gcircumflex" unicode="&#x11c;" horiz-adv-x="710" 
d="M202.5 32q-69.5 42 -108.5 123t-39 195t39 195t108.5 123t160.5 42q100 0 171 -49.5t106 -145.5h-57q-64 145 -220 145q-75 0 -132 -36t-89 -106t-32 -168t32 -168t89 -106t132 -36q106 0 169 68t68 187h-237v50h292v-30q0 -100 -36.5 -173t-102.5 -112.5t-153 -39.5
q-91 0 -160.5 42zM265 770h-55l130 145h45l130 -145h-55l-95 107h-5z" />
    <glyph glyph-name="gcircumflex" unicode="&#x11d;" horiz-adv-x="585" 
d="M144 -161q-60 39 -86 116h53q43 -108 177 -108q78 0 124 41t46 115v122h-5q-29 -48 -74.5 -71.5t-103.5 -23.5q-66 0 -117 31t-79.5 87t-28.5 130t28.5 130t79.5 86.5t117 30.5q57 0 104 -24.5t76 -72.5h5l8 87h40v-512q0 -94 -59 -148.5t-161 -54.5q-84 0 -144 39z
M409.5 134q48.5 56 48.5 144t-48.5 144t-129.5 56q-82 0 -131 -55.5t-49 -144.5t49 -144.5t131 -55.5q81 0 129.5 56zM192 595h-55l130 145h45l130 -145h-55l-95 107h-5z" />
    <glyph glyph-name="Gbreve" unicode="&#x11e;" horiz-adv-x="710" 
d="M202.5 32q-69.5 42 -108.5 123t-39 195t39 195t108.5 123t160.5 42q100 0 171 -49.5t106 -145.5h-57q-64 145 -220 145q-75 0 -132 -36t-89 -106t-32 -168t32 -168t89 -106t132 -36q106 0 169 68t68 187h-237v50h292v-30q0 -100 -36.5 -173t-102.5 -112.5t-153 -39.5
q-91 0 -160.5 42zM266.5 811.5q-36.5 31.5 -41.5 88.5h48q3 -37 27 -57t63 -20t62.5 20t27.5 57h47q-5 -57 -41 -88.5t-96 -31.5t-96.5 31.5z" />
    <glyph glyph-name="gbreve" unicode="&#x11f;" horiz-adv-x="585" 
d="M144 -161q-60 39 -86 116h53q43 -108 177 -108q78 0 124 41t46 115v122h-5q-29 -48 -74.5 -71.5t-103.5 -23.5q-66 0 -117 31t-79.5 87t-28.5 130t28.5 130t79.5 86.5t117 30.5q57 0 104 -24.5t76 -72.5h5l8 87h40v-512q0 -94 -59 -148.5t-161 -54.5q-84 0 -144 39z
M409.5 134q48.5 56 48.5 144t-48.5 144t-129.5 56q-82 0 -131 -55.5t-49 -144.5t49 -144.5t131 -55.5q81 0 129.5 56zM194.5 636.5q-36.5 31.5 -41.5 88.5h48q3 -37 27 -57t63 -20t62.5 20t27.5 57h47q-5 -57 -41 -88.5t-96 -31.5t-96.5 31.5z" />
    <glyph glyph-name="Gdotaccent" unicode="&#x120;" horiz-adv-x="710" 
d="M202.5 32q-69.5 42 -108.5 123t-39 195t39 195t108.5 123t160.5 42q100 0 171 -49.5t106 -145.5h-57q-64 145 -220 145q-75 0 -132 -36t-89 -106t-32 -168t32 -168t89 -106t132 -36q106 0 169 68t68 187h-237v50h292v-30q0 -100 -36.5 -173t-102.5 -112.5t-153 -39.5
q-91 0 -160.5 42zM335 809q-11 11 -11 27q0 17 11 28t28 11q16 0 27.5 -11t11.5 -28q0 -16 -11 -27t-28 -11t-28 11z" />
    <glyph glyph-name="gdotaccent" unicode="&#x121;" horiz-adv-x="585" 
d="M144 -161q-60 39 -86 116h53q43 -108 177 -108q78 0 124 41t46 115v122h-5q-29 -48 -74.5 -71.5t-103.5 -23.5q-66 0 -117 31t-79.5 87t-28.5 130t28.5 130t79.5 86.5t117 30.5q57 0 104 -24.5t76 -72.5h5l8 87h40v-512q0 -94 -59 -148.5t-161 -54.5q-84 0 -144 39z
M409.5 134q48.5 56 48.5 144t-48.5 144t-129.5 56q-82 0 -131 -55.5t-49 -144.5t49 -144.5t131 -55.5q81 0 129.5 56zM262 634q-11 11 -11 27q0 17 11 28t28 11q16 0 27.5 -11t11.5 -28q0 -16 -11.5 -27t-27.5 -11q-17 0 -28 11z" />
    <glyph glyph-name="uni0122" unicode="&#x122;" horiz-adv-x="710" 
d="M202.5 32q-69.5 42 -108.5 123t-39 195t39 195t108.5 123t160.5 42q100 0 171 -49.5t106 -145.5h-57q-64 145 -220 145q-75 0 -132 -36t-89 -106t-32 -168t32 -168t89 -106t132 -36q106 0 169 68t68 187h-237v50h292v-30q0 -100 -36.5 -173t-102.5 -112.5t-153 -39.5
q-91 0 -160.5 42zM320 -245h-38l45 160h60z" />
    <glyph glyph-name="uni0123" unicode="&#x123;" horiz-adv-x="585" 
d="M144 -161q-60 39 -86 116h53q43 -108 177 -108q78 0 124 41t46 115v122h-5q-29 -48 -74.5 -71.5t-103.5 -23.5q-66 0 -117 31t-79.5 87t-28.5 130t28.5 130t79.5 86.5t117 30.5q57 0 104 -24.5t76 -72.5h5l8 87h40v-512q0 -94 -59 -148.5t-161 -54.5q-84 0 -144 39z
M409.5 134q48.5 56 48.5 144t-48.5 144t-129.5 56q-82 0 -131 -55.5t-49 -144.5t49 -144.5t131 -55.5q81 0 129.5 56zM320 595h-60l68 160h37z" />
    <glyph glyph-name="Hcircumflex" unicode="&#x124;" horiz-adv-x="708" 
d="M560 378v322h55v-700h-55v328h-412v-328h-55v700h55v-322h412zM256 770h-55l130 145h45l130 -145h-55l-95 107h-5z" />
    <glyph glyph-name="hcircumflex" unicode="&#x125;" horiz-adv-x="560" 
d="M83 0v700h50v-265h5q24 44 64 67t93 23q55 0 99 -25t69 -71.5t25 -110.5v-318h-50v318q0 73 -40.5 116.5t-107.5 43.5q-44 0 -80 -21.5t-56.5 -58.5t-20.5 -80v-318h-50zM187 770h-55l130 145h45l130 -145h-55l-95 107h-5z" />
    <glyph glyph-name="Hbar" unicode="&#x126;" horiz-adv-x="718" 
d="M620 565h88v-47h-88v-518h-55v328h-412v-328h-55v518h-88v47h88v135h55v-135h412v135h55v-135zM153 518v-140h412v140h-412z" />
    <glyph glyph-name="hbar" unicode="&#x127;" horiz-adv-x="565" 
d="M399 450q44 -25 69 -71.5t25 -110.5v-268h-50v268q0 73 -40.5 116.5t-107.5 43.5q-44 0 -80 -21.5t-56.5 -58.5t-20.5 -80v-268h-50v565h-83v45h83v90h50v-90h142v-45h-142v-180h5q24 44 64 67t93 23q55 0 99 -25z" />
    <glyph glyph-name="Itilde" unicode="&#x128;" horiz-adv-x="240" 
d="M148 0h-55v700h55v-700zM151 798.5q-17 8.5 -41 24.5q-17 13 -29 19t-23 6q-35 0 -35 -53h-48q0 45 20.5 70t57.5 25q20 0 37 -8t40 -24q17 -13 29 -19t24 -6q35 0 35 52h47q0 -45 -20 -70t-57 -25q-20 0 -37 8.5z" />
    <glyph glyph-name="itilde" unicode="&#x129;" horiz-adv-x="205" 
d="M128 0h-50v515h50v-515zM133 623.5q-17 8.5 -41 24.5q-17 13 -29 19t-23 6q-35 0 -35 -53h-48q0 45 20.5 70t57.5 25q20 0 37 -8t40 -24q17 -13 29 -19t24 -6q35 0 35 52h47q0 -45 -20 -70t-57 -25q-20 0 -37 8.5z" />
    <glyph glyph-name="Imacron" unicode="&#x12a;" horiz-adv-x="240" 
d="M148 0h-55v700h55v-700zM255 815h-270v45h270v-45z" />
    <glyph glyph-name="imacron" unicode="&#x12b;" horiz-adv-x="205" 
d="M128 0h-50v515h50v-515zM237 640h-270v45h270v-45z" />
    <glyph glyph-name="Ibreve" unicode="&#x12c;" horiz-adv-x="240" 
d="M148 0h-55v700h55v-700zM24.5 811.5q-36.5 31.5 -41.5 88.5h48q3 -37 27 -57t63 -20t62.5 20t27.5 57h47q-5 -57 -41 -88.5t-96 -31.5t-96.5 31.5z" />
    <glyph glyph-name="ibreve" unicode="&#x12d;" horiz-adv-x="205" 
d="M128 0h-50v515h50v-515zM6.5 636.5q-36.5 31.5 -41.5 88.5h48q3 -37 27 -57t63 -20t62.5 20t27.5 57h47q-5 -57 -41 -88.5t-96 -31.5t-96.5 31.5z" />
    <glyph glyph-name="Iogonek" unicode="&#x12e;" horiz-adv-x="240" 
d="M148 0q-43 -25 -61.5 -46.5t-18.5 -51.5q0 -23 15 -35t42 -12h23v-40h-28q-45 0 -70 22t-25 60q0 34 20 60t54 43h-6v700h55v-700z" />
    <glyph glyph-name="iogonek" unicode="&#x12f;" horiz-adv-x="205" 
d="M131 689q11 -11 11 -28q0 -16 -11.5 -27t-27.5 -11q-17 0 -28 11t-11 27q0 17 11.5 28t27.5 11q17 0 28 -11zM78 0v515h50v-515q-43 -25 -61.5 -46.5t-18.5 -51.5q0 -23 15 -35t42 -12h23v-40h-28q-45 0 -70 22t-25 60q0 34 20 60t54 43h-1z" />
    <glyph glyph-name="Idotaccent" unicode="&#x130;" horiz-adv-x="240" 
d="M148 0h-55v700h55v-700zM93 809q-11 11 -11 27q0 17 11 28t28 11q16 0 27.5 -11t11.5 -28q0 -16 -11 -27t-28 -11t-28 11z" />
    <glyph glyph-name="dotlessi" unicode="&#x131;" horiz-adv-x="205" 
d="M128 0h-50v515h50v-515z" />
    <glyph glyph-name="IJ" unicode="&#x132;" horiz-adv-x="780" 
d="M148 0h-55v700h55v-700zM334.5 39.5q-56.5 49.5 -69.5 138.5h55q11 -66 53 -102t105 -36q73 0 116.5 48.5t43.5 136.5v475h55v-475q0 -111 -58.5 -173t-156.5 -62q-87 0 -143.5 49.5z" />
    <glyph glyph-name="ij" unicode="&#x133;" horiz-adv-x="410" 
d="M128 0h-50v515h50v-515zM75 634q-11 11 -11 27q0 17 11 28t28 11q16 0 27.5 -11t11.5 -28q0 -16 -11.5 -27t-27.5 -11q-17 0 -28 11zM145 -200v47h73q30 0 47.5 17.5t17.5 47.5v603h50v-603q0 -50 -31 -81t-82 -31h-75zM280 634q-11 11 -11 27q0 17 11 28t28 11
q16 0 27.5 -11t11.5 -28q0 -16 -11.5 -27t-27.5 -11q-17 0 -28 11z" />
    <glyph glyph-name="Jcircumflex" unicode="&#x134;" horiz-adv-x="540" 
d="M94.5 39.5q-56.5 49.5 -69.5 138.5h55q11 -66 53 -102t105 -36q73 0 116.5 48.5t43.5 136.5v475h55v-475q0 -111 -58.5 -173t-156.5 -62q-87 0 -143.5 49.5zM328 770h-55l130 145h45l130 -145h-55l-95 107h-5z" />
    <glyph glyph-name="jcircumflex" unicode="&#x135;" horiz-adv-x="205" 
d="M-60 -200v47h73q30 0 47.5 17.5t17.5 47.5v603h50v-603q0 -50 -31 -81t-82 -31h-75zM5 595h-55l130 145h45l130 -145h-55l-95 107h-5z" />
    <glyph glyph-name="uni0136" unicode="&#x136;" horiz-adv-x="565" 
d="M148 0h-55v700h55v-335l335 335h67l-346 -345l361 -355h-67l-350 345v-345zM284 -245h-38l45 160h60z" />
    <glyph glyph-name="uni0137" unicode="&#x137;" horiz-adv-x="470" 
d="M133 0h-50v700h50v-427l262 242h65l-273 -252l288 -263h-65l-277 253v-253zM232 -245h-38l45 160h60z" />
    <glyph glyph-name="Lacute" unicode="&#x139;" horiz-adv-x="538" 
d="M523 0h-430v700h55v-650h375v-50zM135 770h-45l90 140h68z" />
    <glyph glyph-name="lacute" unicode="&#x13a;" horiz-adv-x="215" 
d="M133 0h-50v700h50v-700zM123 770h-45l90 140h68z" />
    <glyph glyph-name="uni013B" unicode="&#x13b;" horiz-adv-x="538" 
d="M523 0h-430v700h55v-650h375v-50zM270 -245h-38l45 160h60z" />
    <glyph glyph-name="uni013C" unicode="&#x13c;" horiz-adv-x="215" 
d="M133 0h-50v700h50v-700zM70 -245h-38l45 160h60z" />
    <glyph glyph-name="Lcaron" unicode="&#x13d;" horiz-adv-x="538" 
d="M523 0h-430v700h55v-650h375v-50zM253 540h-35l45 160h58z" />
    <glyph glyph-name="lcaron" unicode="&#x13e;" horiz-adv-x="215" 
d="M133 0h-50v700h50v-700zM238 540h-35l45 160h58z" />
    <glyph glyph-name="Ldot" unicode="&#x13f;" horiz-adv-x="538" 
d="M523 0h-430v700h55v-650h375v-50zM359.5 349.5q-11.5 12.5 -11.5 29.5q0 16 12 28.5t29 12.5t29 -12.5t12 -28.5q0 -17 -11.5 -29.5t-29.5 -12.5t-29.5 12.5z" />
    <glyph glyph-name="ldot" unicode="&#x140;" horiz-adv-x="308" 
d="M133 0h-50v700h50v-700zM232.5 321.5q-11.5 12.5 -11.5 29.5q0 16 12 28.5t29 12.5t29 -12.5t12 -28.5q0 -17 -11.5 -29.5t-29.5 -12.5t-29.5 12.5z" />
    <glyph glyph-name="Lslash" unicode="&#x141;" horiz-adv-x="543" 
d="M153 339v-289h375v-50h-430v318l-88 -32v50l88 32v332h55v-311l142 52v-50z" />
    <glyph glyph-name="lslash" unicode="&#x142;" horiz-adv-x="225" 
d="M138 391l82 36v-49l-82 -36v-342h-50v320l-83 -36v48l83 37v331h50v-309z" />
    <glyph glyph-name="Nacute" unicode="&#x143;" horiz-adv-x="728" 
d="M148 0h-55v700h75l407 -626h5v626h55v-700h-75l-407 627h-5v-627zM379 770h-45l90 140h68z" />
    <glyph glyph-name="nacute" unicode="&#x144;" horiz-adv-x="555" 
d="M78 0v515h40l7 -82h5q24 45 66.5 68.5t93.5 23.5q56 0 100 -25.5t68.5 -72.5t24.5 -109v-318h-50v318q0 73 -40.5 116.5t-107.5 43.5q-44 0 -80 -21.5t-56.5 -58.5t-20.5 -80v-318h-50zM295 595h-45l90 140h68z" />
    <glyph glyph-name="uni0145" unicode="&#x145;" horiz-adv-x="728" 
d="M148 0h-55v700h75l407 -626h5v626h55v-700h-75l-407 627h-5v-627zM326 -245h-38l45 160h60z" />
    <glyph glyph-name="uni0146" unicode="&#x146;" horiz-adv-x="555" 
d="M78 0v515h40l7 -82h5q24 45 66.5 68.5t93.5 23.5q56 0 100 -25.5t68.5 -72.5t24.5 -109v-318h-50v318q0 73 -40.5 116.5t-107.5 43.5q-44 0 -80 -21.5t-56.5 -58.5t-20.5 -80v-318h-50zM242 -245h-38l45 160h60z" />
    <glyph glyph-name="Ncaron" unicode="&#x147;" horiz-adv-x="728" 
d="M148 0h-55v700h75l407 -626h5v626h55v-700h-75l-407 627h-5v-627zM386 770h-45l-130 145h55l95 -106h5l95 106h55z" />
    <glyph glyph-name="ncaron" unicode="&#x148;" horiz-adv-x="555" 
d="M78 0v515h40l7 -82h5q24 45 66.5 68.5t93.5 23.5q56 0 100 -25.5t68.5 -72.5t24.5 -109v-318h-50v318q0 73 -40.5 116.5t-107.5 43.5q-44 0 -80 -21.5t-56.5 -58.5t-20.5 -80v-318h-50zM302 595h-45l-130 145h55l95 -106h5l95 106h55z" />
    <glyph glyph-name="napostrophe" unicode="&#x149;" horiz-adv-x="555" 
d="M78 0v515h40l7 -82h5q24 45 66.5 68.5t93.5 23.5q56 0 100 -25.5t68.5 -72.5t24.5 -109v-318h-50v318q0 73 -40.5 116.5t-107.5 43.5q-44 0 -80 -21.5t-56.5 -58.5t-20.5 -80v-318h-50zM17 540h-35l45 160h58z" />
    <glyph glyph-name="Eng" unicode="&#x14a;" horiz-adv-x="728" 
d="M418 -200v50h42q58 0 89 34t31 101v15h-20l-407 627h-5v-627h-55v700h75l407 -626h5v626h55v-710q0 -91 -45.5 -140.5t-124.5 -49.5h-47z" />
    <glyph glyph-name="eng" unicode="&#x14b;" horiz-adv-x="555" 
d="M310 -200v47h58q30 0 47.5 17t17.5 48v406q0 73 -40.5 116.5t-107.5 43.5q-44 0 -80 -21.5t-56.5 -58.5t-20.5 -80v-318h-50v515h40l7 -82h5q24 45 66.5 68.5t93.5 23.5q56 0 100 -25.5t68.5 -72.5t24.5 -109v-406q0 -50 -31 -81t-82 -31h-60z" />
    <glyph glyph-name="Omacron" unicode="&#x14c;" horiz-adv-x="725" 
d="M202.5 32q-69.5 42 -108.5 123t-39 195t39 195t108.5 123t160.5 42t160 -42t108 -123t39 -195t-39 -195t-108 -123t-160 -42t-160.5 42zM494.5 76q56.5 36 88.5 106t32 168t-32 168t-88.5 106t-131.5 36t-132 -36t-89 -106t-32 -168t32 -168t89 -106t132 -36t131.5 36z
M498 815h-270v45h270v-45z" />
    <glyph glyph-name="omacron" unicode="&#x14d;" horiz-adv-x="570" 
d="M163 22q-53 32 -83 92.5t-30 143.5t30 143.5t83 92t122 31.5t122.5 -31.5t83 -92t29.5 -143.5t-29.5 -143.5t-83 -92.5t-122.5 -32t-122 32zM421 98.5q49 60.5 49 159.5q0 98 -49 159t-136 61q-86 0 -135.5 -61t-49.5 -159q0 -99 49.5 -159.5t135.5 -60.5q87 0 136 60.5z
M420 640h-270v45h270v-45z" />
    <glyph glyph-name="Obreve" unicode="&#x14e;" horiz-adv-x="725" 
d="M202.5 32q-69.5 42 -108.5 123t-39 195t39 195t108.5 123t160.5 42t160 -42t108 -123t39 -195t-39 -195t-108 -123t-160 -42t-160.5 42zM494.5 76q56.5 36 88.5 106t32 168t-32 168t-88.5 106t-131.5 36t-132 -36t-89 -106t-32 -168t32 -168t89 -106t132 -36t131.5 36z
M266.5 811.5q-36.5 31.5 -41.5 88.5h48q3 -37 27 -57t63 -20t62.5 20t27.5 57h47q-5 -57 -41 -88.5t-96 -31.5t-96.5 31.5z" />
    <glyph glyph-name="obreve" unicode="&#x14f;" horiz-adv-x="570" 
d="M163 22q-53 32 -83 92.5t-30 143.5t30 143.5t83 92t122 31.5t122.5 -31.5t83 -92t29.5 -143.5t-29.5 -143.5t-83 -92.5t-122.5 -32t-122 32zM421 98.5q49 60.5 49 159.5q0 98 -49 159t-136 61q-86 0 -135.5 -61t-49.5 -159q0 -99 49.5 -159.5t135.5 -60.5q87 0 136 60.5z
M189.5 636.5q-36.5 31.5 -41.5 88.5h48q3 -37 27 -57t63 -20t62.5 20t27.5 57h47q-5 -57 -41 -88.5t-96 -31.5t-96.5 31.5z" />
    <glyph glyph-name="Ohungarumlaut" unicode="&#x150;" horiz-adv-x="725" 
d="M202.5 32q-69.5 42 -108.5 123t-39 195t39 195t108.5 123t160.5 42t160 -42t108 -123t39 -195t-39 -195t-108 -123t-160 -42t-160.5 42zM494.5 76q56.5 36 88.5 106t32 168t-32 168t-88.5 106t-131.5 36t-132 -36t-89 -106t-32 -168t32 -168t89 -106t132 -36t131.5 36z
M305 770h-45l90 140h68zM455 770h-45l90 140h68z" />
    <glyph glyph-name="ohungarumlaut" unicode="&#x151;" horiz-adv-x="570" 
d="M163 22q-53 32 -83 92.5t-30 143.5t30 143.5t83 92t122 31.5t122.5 -31.5t83 -92t29.5 -143.5t-29.5 -143.5t-83 -92.5t-122.5 -32t-122 32zM421 98.5q49 60.5 49 159.5q0 98 -49 159t-136 61q-86 0 -135.5 -61t-49.5 -159q0 -99 49.5 -159.5t135.5 -60.5q87 0 136 60.5z
M228 595h-45l90 140h68zM378 595h-45l90 140h68z" />
    <glyph glyph-name="OE" unicode="&#x152;" horiz-adv-x="1093" 
d="M650 50h380v-50h-435v143q-33 -74 -97.5 -113.5t-144.5 -39.5q-85 0 -152.5 42t-106.5 123.5t-39 194.5t39 194.5t106.5 123.5t152.5 42q80 0 144.5 -39.5t97.5 -113.5v143h425v-50h-370v-272h350v-50h-350v-278zM476 76.5q55 36.5 87 106.5t32 167t-32 167t-87 106.5
t-123 36.5q-69 0 -124 -36t-87 -106t-32 -168q0 -97 32 -167t87 -106.5t124 -36.5q68 0 123 36.5z" />
    <glyph glyph-name="oe" unicode="&#x153;" horiz-adv-x="953" 
d="M903 243h-397q4 -100 53.5 -152.5t125.5 -52.5q101 0 154 97h54q-29 -70 -82 -107.5t-126 -37.5q-72 0 -126.5 38t-79.5 103q-23 -66 -76 -103.5t-125 -37.5q-68 0 -119.5 32t-80 92.5t-28.5 143.5t28.5 143.5t80 92t119.5 31.5q74 0 126.5 -39t75.5 -103q23 66 78 104
t122 38q68 0 119 -33.5t78.5 -89t27.5 -119.5q0 -22 -2 -40zM408.5 98.5q46.5 60.5 46.5 159.5q0 98 -46.5 159t-130.5 61t-131 -61t-47 -159q0 -99 47 -159.5t131 -60.5t130.5 60.5zM856 290q-6 89 -53 138.5t-123 49.5q-73 0 -120 -51t-54 -137h350z" />
    <glyph glyph-name="Racute" unicode="&#x154;" horiz-adv-x="625" 
d="M509 346.5q-56 -55.5 -156 -56.5l207 -290h-62l-208 290h-142v-290h-55v700h255q102 0 159.5 -55t57.5 -150q0 -93 -56 -148.5zM148 650v-310h195q81 0 124 40.5t43 114.5t-43 114.5t-124 40.5h-195zM330 770h-45l90 140h68z" />
    <glyph glyph-name="racute" unicode="&#x155;" horiz-adv-x="348" 
d="M78 0v515h40l7 -82h5q22 42 58.5 62t89.5 20h52v-47h-52q-68 0 -109 -43.5t-41 -106.5v-318h-50zM219 595h-45l90 140h68z" />
    <glyph glyph-name="uni0156" unicode="&#x156;" horiz-adv-x="625" 
d="M509 346.5q-56 -55.5 -156 -56.5l207 -290h-62l-208 290h-142v-290h-55v700h255q102 0 159.5 -55t57.5 -150q0 -93 -56 -148.5zM148 650v-310h195q81 0 124 40.5t43 114.5t-43 114.5t-124 40.5h-195zM285 -245h-38l45 160h60z" />
    <glyph glyph-name="uni0157" unicode="&#x157;" horiz-adv-x="348" 
d="M78 0v515h40l7 -82h5q22 42 58.5 62t89.5 20h52v-47h-52q-68 0 -109 -43.5t-41 -106.5v-318h-50zM65 -245h-38l45 160h60z" />
    <glyph glyph-name="Rcaron" unicode="&#x158;" horiz-adv-x="625" 
d="M509 346.5q-56 -55.5 -156 -56.5l207 -290h-62l-208 290h-142v-290h-55v700h255q102 0 159.5 -55t57.5 -150q0 -93 -56 -148.5zM148 650v-310h195q81 0 124 40.5t43 114.5t-43 114.5t-124 40.5h-195zM337 770h-45l-130 145h55l95 -106h5l95 106h55z" />
    <glyph glyph-name="rcaron" unicode="&#x159;" horiz-adv-x="348" 
d="M78 0v515h40l7 -82h5q22 42 58.5 62t89.5 20h52v-47h-52q-68 0 -109 -43.5t-41 -106.5v-318h-50zM226 595h-45l-130 145h55l95 -106h5l95 106h55z" />
    <glyph glyph-name="Sacute" unicode="&#x15a;" horiz-adv-x="590" 
d="M130.5 42.5q-67.5 52.5 -85.5 137.5h55q20 -69 74.5 -104.5t125.5 -35.5q91 0 140.5 41t49.5 104q0 46 -26 73.5t-64 41.5t-104 30q-77 19 -122 37t-77 55.5t-32 102.5q0 52 26 94t77.5 66.5t124.5 24.5q94 0 156 -44t81 -126h-55q-19 59 -64.5 89.5t-117.5 30.5
q-82 0 -127.5 -36t-45.5 -99q0 -46 26 -74t64.5 -42t104.5 -30q75 -18 120.5 -36t77.5 -56t32 -102q0 -50 -27.5 -95t-83 -72.5t-134.5 -27.5q-102 0 -169.5 52.5zM315 770h-45l90 140h68z" />
    <glyph glyph-name="sacute" unicode="&#x15b;" horiz-adv-x="470" 
d="M109 29.5q-53 39.5 -69 105.5h53q13 -46 52 -71.5t93 -25.5q68 0 105 26t37 71q0 33 -19 52.5t-47.5 28.5t-78.5 20q-59 12 -94.5 25t-60.5 42t-25 80q0 38 21.5 70.5t62.5 52t96 19.5q70 0 120 -34t65 -96h-52q-32 83 -133 83q-63 0 -96.5 -26.5t-33.5 -68.5
q0 -33 19.5 -53t48.5 -30t78 -20q58 -12 93.5 -25t60.5 -41.5t25 -78.5q0 -64 -52 -104.5t-140 -40.5q-76 0 -129 39.5zM250 595h-45l90 140h68z" />
    <glyph glyph-name="Scircumflex" unicode="&#x15c;" horiz-adv-x="590" 
d="M130.5 42.5q-67.5 52.5 -85.5 137.5h55q20 -69 74.5 -104.5t125.5 -35.5q91 0 140.5 41t49.5 104q0 46 -26 73.5t-64 41.5t-104 30q-77 19 -122 37t-77 55.5t-32 102.5q0 52 26 94t77.5 66.5t124.5 24.5q94 0 156 -44t81 -126h-55q-19 59 -64.5 89.5t-117.5 30.5
q-82 0 -127.5 -36t-45.5 -99q0 -46 26 -74t64.5 -42t104.5 -30q75 -18 120.5 -36t77.5 -56t32 -102q0 -50 -27.5 -95t-83 -72.5t-134.5 -27.5q-102 0 -169.5 52.5zM202 770h-55l130 145h45l130 -145h-55l-95 107h-5z" />
    <glyph glyph-name="scircumflex" unicode="&#x15d;" horiz-adv-x="470" 
d="M109 29.5q-53 39.5 -69 105.5h53q13 -46 52 -71.5t93 -25.5q68 0 105 26t37 71q0 33 -19 52.5t-47.5 28.5t-78.5 20q-59 12 -94.5 25t-60.5 42t-25 80q0 38 21.5 70.5t62.5 52t96 19.5q70 0 120 -34t65 -96h-52q-32 83 -133 83q-63 0 -96.5 -26.5t-33.5 -68.5
q0 -33 19.5 -53t48.5 -30t78 -20q58 -12 93.5 -25t60.5 -41.5t25 -78.5q0 -64 -52 -104.5t-140 -40.5q-76 0 -129 39.5zM137 595h-55l130 145h45l130 -145h-55l-95 107h-5z" />
    <glyph glyph-name="Scedilla" unicode="&#x15e;" horiz-adv-x="590" 
d="M520 94q-25 -43 -75.5 -71t-121.5 -32l-13 -29q33 -1 56.5 -23.5t23.5 -56.5q0 -37 -24.5 -61t-62.5 -24h-53v38h48q22 0 36 13t14 34q0 20 -14 32.5t-36 12.5h-35v25l17 39q-95 5 -156.5 56.5t-78.5 132.5h55q20 -69 74.5 -104.5t125.5 -35.5q91 0 140.5 41t49.5 104
q0 46 -26 73.5t-64 41.5t-104 30q-77 19 -122 37t-77 55.5t-32 102.5q0 52 26 94t77.5 66.5t124.5 24.5q94 0 156 -44t81 -126h-55q-19 59 -64.5 89.5t-117.5 30.5q-82 0 -127.5 -36t-45.5 -99q0 -46 26 -74t64.5 -42t104.5 -30q75 -18 120.5 -36t77.5 -56t32 -102
q0 -48 -25 -91z" />
    <glyph glyph-name="scedilla" unicode="&#x15f;" horiz-adv-x="470" 
d="M385.5 36.5q-44.5 -39.5 -122.5 -45.5l-13 -29q33 -1 56.5 -23.5t23.5 -56.5q0 -37 -24.5 -61t-62.5 -24h-53v38h48q22 0 36 13t14 34q0 20 -14 32.5t-36 12.5h-35v25l17 39q-69 4 -117 43t-63 101h53q13 -46 52 -71.5t93 -25.5q68 0 105 26t37 71q0 33 -19 52.5
t-47.5 28.5t-78.5 20q-59 12 -94.5 25t-60.5 42t-25 80q0 38 21.5 70.5t62.5 52t96 19.5q70 0 120 -34t65 -96h-52q-32 83 -133 83q-63 0 -96.5 -26.5t-33.5 -68.5q0 -33 19.5 -53t48.5 -30t78 -20q58 -12 93.5 -25t60.5 -41.5t25 -78.5q0 -59 -44.5 -98.5z" />
    <glyph glyph-name="Scaron" unicode="&#x160;" horiz-adv-x="590" 
d="M130.5 42.5q-67.5 52.5 -85.5 137.5h55q20 -69 74.5 -104.5t125.5 -35.5q91 0 140.5 41t49.5 104q0 46 -26 73.5t-64 41.5t-104 30q-77 19 -122 37t-77 55.5t-32 102.5q0 52 26 94t77.5 66.5t124.5 24.5q94 0 156 -44t81 -126h-55q-19 59 -64.5 89.5t-117.5 30.5
q-82 0 -127.5 -36t-45.5 -99q0 -46 26 -74t64.5 -42t104.5 -30q75 -18 120.5 -36t77.5 -56t32 -102q0 -50 -27.5 -95t-83 -72.5t-134.5 -27.5q-102 0 -169.5 52.5zM322 770h-45l-130 145h55l95 -106h5l95 106h55z" />
    <glyph glyph-name="scaron" unicode="&#x161;" horiz-adv-x="470" 
d="M109 29.5q-53 39.5 -69 105.5h53q13 -46 52 -71.5t93 -25.5q68 0 105 26t37 71q0 33 -19 52.5t-47.5 28.5t-78.5 20q-59 12 -94.5 25t-60.5 42t-25 80q0 38 21.5 70.5t62.5 52t96 19.5q70 0 120 -34t65 -96h-52q-32 83 -133 83q-63 0 -96.5 -26.5t-33.5 -68.5
q0 -33 19.5 -53t48.5 -30t78 -20q58 -12 93.5 -25t60.5 -41.5t25 -78.5q0 -64 -52 -104.5t-140 -40.5q-76 0 -129 39.5zM257 595h-45l-130 145h55l95 -106h5l95 106h55z" />
    <glyph glyph-name="uni0162" unicode="&#x162;" horiz-adv-x="585" 
d="M320 0h-5l-17 -38q33 -1 56.5 -23.5t23.5 -56.5q0 -37 -24.5 -61t-62.5 -24h-53v38h48q22 0 36 13t14 34q0 20 -14 32.5t-36 12.5h-35v25l22 48h-8v650h-237v50h530v-50h-238v-650z" />
    <glyph glyph-name="uni0163" unicode="&#x163;" horiz-adv-x="343" 
d="M300 468h-137v-355q0 -31 17.5 -48t47.5 -17h72v-48h-68l-17 -38q33 -1 56.5 -23.5t23.5 -56.5q0 -38 -25 -61.5t-62 -23.5h-53v38h48q22 0 36 13t14 34q0 20 -14 32.5t-36 12.5h-35v25l24 52q-37 10 -58 38.5t-21 70.5v355h-85v47h85l7 140h43v-140h137v-47z" />
    <glyph glyph-name="Tcaron" unicode="&#x164;" horiz-adv-x="585" 
d="M320 0h-55v650h-237v50h530v-50h-238v-650zM315 770h-45l-130 145h55l95 -106h5l95 106h55z" />
    <glyph glyph-name="tcaron" unicode="&#x165;" horiz-adv-x="343" 
d="M225 0q-50 0 -81 31t-31 82v355h-85v47h85l7 140h43v-140h137v-47h-137v-355q0 -31 17.5 -48t47.5 -17h72v-48h-75zM250 545h-36l44 155h58z" />
    <glyph glyph-name="Tbar" unicode="&#x166;" horiz-adv-x="585" 
d="M558 700v-50h-238v-242h143v-48h-143v-360h-55v360h-142v48h142v242h-237v50h530z" />
    <glyph glyph-name="tbar" unicode="&#x167;" horiz-adv-x="343" 
d="M300 468h-137v-126h137v-45h-137v-184q0 -31 17.5 -48t47.5 -17h72v-48h-75q-50 0 -81 31t-31 82v184h-86v45h86v126h-85v47h85l7 140h43v-140h137v-47z" />
    <glyph glyph-name="Utilde" unicode="&#x168;" horiz-adv-x="698" 
d="M212 24q-59 34 -91.5 99.5t-32.5 156.5v420h55v-420q0 -113 56.5 -176.5t149.5 -63.5t149.5 63.5t56.5 176.5v420h55v-420q0 -91 -32.5 -156.5t-91.5 -99.5t-137 -34t-137 34zM380 798.5q-17 8.5 -41 24.5q-17 13 -29 19t-23 6q-35 0 -35 -53h-48q0 45 20.5 70t57.5 25
q20 0 37 -8t40 -24q17 -13 29 -19t24 -6q35 0 35 52h47q0 -45 -20 -70t-57 -25q-20 0 -37 8.5z" />
    <glyph glyph-name="utilde" unicode="&#x169;" horiz-adv-x="560" 
d="M170.5 15.5q-43.5 25.5 -68 72.5t-24.5 110v317h50v-317q0 -74 40 -117t107 -43q44 0 80 21.5t57 58t21 80.5v317h50v-515h-40l-8 83h-5q-23 -46 -65.5 -69.5t-94.5 -23.5q-56 0 -99.5 25.5zM311 623.5q-17 8.5 -41 24.5q-17 13 -29 19t-23 6q-35 0 -35 -53h-48
q0 45 20.5 70t57.5 25q20 0 37 -8t40 -24q17 -13 29 -19t24 -6q35 0 35 52h47q0 -45 -20 -70t-57 -25q-20 0 -37 8.5z" />
    <glyph glyph-name="Umacron" unicode="&#x16a;" horiz-adv-x="698" 
d="M212 24q-59 34 -91.5 99.5t-32.5 156.5v420h55v-420q0 -113 56.5 -176.5t149.5 -63.5t149.5 63.5t56.5 176.5v420h55v-420q0 -91 -32.5 -156.5t-91.5 -99.5t-137 -34t-137 34zM484 815h-270v45h270v-45z" />
    <glyph glyph-name="umacron" unicode="&#x16b;" horiz-adv-x="560" 
d="M170.5 15.5q-43.5 25.5 -68 72.5t-24.5 110v317h50v-317q0 -74 40 -117t107 -43q44 0 80 21.5t57 58t21 80.5v317h50v-515h-40l-8 83h-5q-23 -46 -65.5 -69.5t-94.5 -23.5q-56 0 -99.5 25.5zM415 640h-270v45h270v-45z" />
    <glyph glyph-name="Ubreve" unicode="&#x16c;" horiz-adv-x="698" 
d="M212 24q-59 34 -91.5 99.5t-32.5 156.5v420h55v-420q0 -113 56.5 -176.5t149.5 -63.5t149.5 63.5t56.5 176.5v420h55v-420q0 -91 -32.5 -156.5t-91.5 -99.5t-137 -34t-137 34zM253.5 811.5q-36.5 31.5 -41.5 88.5h48q3 -37 27 -57t63 -20t62.5 20t27.5 57h47
q-5 -57 -41 -88.5t-96 -31.5t-96.5 31.5z" />
    <glyph glyph-name="ubreve" unicode="&#x16d;" horiz-adv-x="560" 
d="M170.5 15.5q-43.5 25.5 -68 72.5t-24.5 110v317h50v-317q0 -74 40 -117t107 -43q44 0 80 21.5t57 58t21 80.5v317h50v-515h-40l-8 83h-5q-23 -46 -65.5 -69.5t-94.5 -23.5q-56 0 -99.5 25.5zM184.5 636.5q-36.5 31.5 -41.5 88.5h48q3 -37 27 -57t63 -20t62.5 20t27.5 57
h47q-5 -57 -41 -88.5t-96 -31.5t-96.5 31.5z" />
    <glyph glyph-name="Uring" unicode="&#x16e;" horiz-adv-x="698" 
d="M212 24q-59 34 -91.5 99.5t-32.5 156.5v420h55v-420q0 -113 56.5 -176.5t149.5 -63.5t149.5 63.5t56.5 176.5v420h55v-420q0 -91 -32.5 -156.5t-91.5 -99.5t-137 -34t-137 34zM283 775.5q-26 25.5 -26 66.5t26 67t66 26t66.5 -26t26.5 -67t-26.5 -66.5t-66.5 -25.5
t-66 25.5zM390 802.5q15 14.5 15 39.5q0 26 -15.5 41t-40.5 15t-39.5 -15t-14.5 -41q0 -25 14.5 -39.5t39.5 -14.5q26 0 41 14.5z" />
    <glyph glyph-name="uring" unicode="&#x16f;" horiz-adv-x="560" 
d="M170.5 15.5q-43.5 25.5 -68 72.5t-24.5 110v317h50v-317q0 -74 40 -117t107 -43q44 0 80 21.5t57 58t21 80.5v317h50v-515h-40l-8 83h-5q-23 -46 -65.5 -69.5t-94.5 -23.5q-56 0 -99.5 25.5zM214 600.5q-26 25.5 -26 66.5t26 67t66 26t66.5 -26t26.5 -67t-26.5 -66.5
t-66.5 -25.5t-66 25.5zM321 627.5q15 14.5 15 39.5q0 26 -15.5 41t-40.5 15t-39.5 -15t-14.5 -41q0 -25 14.5 -39.5t39.5 -14.5q26 0 41 14.5z" />
    <glyph glyph-name="Uhungarumlaut" unicode="&#x170;" horiz-adv-x="698" 
d="M212 24q-59 34 -91.5 99.5t-32.5 156.5v420h55v-420q0 -113 56.5 -176.5t149.5 -63.5t149.5 63.5t56.5 176.5v420h55v-420q0 -91 -32.5 -156.5t-91.5 -99.5t-137 -34t-137 34zM292 770h-45l90 140h68zM442 770h-45l90 140h68z" />
    <glyph glyph-name="uhungarumlaut" unicode="&#x171;" horiz-adv-x="560" 
d="M170.5 15.5q-43.5 25.5 -68 72.5t-24.5 110v317h50v-317q0 -74 40 -117t107 -43q44 0 80 21.5t57 58t21 80.5v317h50v-515h-40l-8 83h-5q-23 -46 -65.5 -69.5t-94.5 -23.5q-56 0 -99.5 25.5zM223 595h-45l90 140h68zM373 595h-45l90 140h68z" />
    <glyph glyph-name="Uogonek" unicode="&#x172;" horiz-adv-x="698" 
d="M555 700h55v-420q0 -88 -29 -149t-80 -97q-48 -34 -72 -65.5t-24 -63.5q0 -50 58 -50h22v-40h-27q-46 0 -70.5 22t-24.5 60q0 58 57 101q-31 -8 -71 -8q-78 0 -137 34t-91.5 99.5t-32.5 156.5v420h55v-420q0 -113 56.5 -176.5t149.5 -63.5t149.5 63.5t56.5 176.5v420z
" />
    <glyph glyph-name="uogonek" unicode="&#x173;" horiz-adv-x="560" 
d="M483 0q-43 -25 -61.5 -46.5t-18.5 -51.5q0 -23 15 -35t42 -12h23v-40h-28q-45 0 -70 22t-25 60q0 36 22.5 63t60.5 44l-8 79h-5q-23 -46 -65.5 -69.5t-94.5 -23.5q-56 0 -99.5 25.5t-68 72.5t-24.5 110v317h50v-317q0 -74 40 -117t107 -43q44 0 80 21.5t57 58t21 80.5
v317h50v-515z" />
    <glyph glyph-name="Wcircumflex" unicode="&#x174;" horiz-adv-x="900" 
d="M286 0h-81l-185 700h58l165 -635h5l166 635h73l166 -635h5l164 635h58l-184 -700h-81l-162 625h-5zM352 770h-55l130 145h45l130 -145h-55l-95 107h-5z" />
    <glyph glyph-name="wcircumflex" unicode="&#x175;" horiz-adv-x="700" 
d="M222 0h-62l-147 515h50l126 -447h5l130 447h52l130 -447h5l126 447h51l-148 -515h-61l-126 435h-5zM253 595h-55l130 145h45l130 -145h-55l-95 107h-5z" />
    <glyph glyph-name="Ycircumflex" unicode="&#x176;" horiz-adv-x="570" 
d="M313 0h-55v270l-248 430h59l214 -375h5l213 375h59l-247 -430v-270zM188 770h-55l130 145h45l130 -145h-55l-95 107h-5z" />
    <glyph glyph-name="ycircumflex" unicode="&#x177;" horiz-adv-x="490" 
d="M197 -200h-53l80 201l-216 514h53l187 -442h5l176 442h54zM147 595h-55l130 145h45l130 -145h-55l-95 107h-5z" />
    <glyph glyph-name="Ydieresis" unicode="&#x178;" horiz-adv-x="570" 
d="M313 0h-55v270l-248 430h59l214 -375h5l213 375h59l-247 -430v-270zM173 809q-11 11 -11 27q0 17 11 28t28 11q16 0 27.5 -11t11.5 -28q0 -16 -11 -27t-28 -11t-28 11zM343 809q-11 11 -11 27q0 17 11 28t28 11q16 0 27.5 -11t11.5 -28q0 -16 -11 -27t-28 -11t-28 11z
" />
    <glyph glyph-name="Zacute" unicode="&#x179;" horiz-adv-x="560" 
d="M523 0h-485v40l411 610h-401v50h470v-40l-411 -610h416v-50zM298 770h-45l90 140h68z" />
    <glyph glyph-name="zacute" unicode="&#x17a;" horiz-adv-x="440" 
d="M410 0h-380v40l314 428h-304v47h365v-40l-313 -427h318v-48zM238 595h-45l90 140h68z" />
    <glyph glyph-name="Zdotaccent" unicode="&#x17b;" horiz-adv-x="560" 
d="M523 0h-485v40l411 610h-401v50h470v-40l-411 -610h416v-50zM255 809q-11 11 -11 27q0 17 11 28t28 11q16 0 27.5 -11t11.5 -28q0 -16 -11 -27t-28 -11t-28 11z" />
    <glyph glyph-name="zdotaccent" unicode="&#x17c;" horiz-adv-x="440" 
d="M410 0h-380v40l314 428h-304v47h365v-40l-313 -427h318v-48zM195 634q-11 11 -11 27q0 17 11 28t28 11q16 0 27.5 -11t11.5 -28q0 -16 -11.5 -27t-27.5 -11q-17 0 -28 11z" />
    <glyph glyph-name="Zcaron" unicode="&#x17d;" horiz-adv-x="560" 
d="M523 0h-485v40l411 610h-401v50h470v-40l-411 -610h416v-50zM305 770h-45l-130 145h55l95 -106h5l95 106h55z" />
    <glyph glyph-name="zcaron" unicode="&#x17e;" horiz-adv-x="440" 
d="M410 0h-380v40l314 428h-304v47h365v-40l-313 -427h318v-48zM245 595h-45l-130 145h55l95 -106h5l95 106h55z" />
    <glyph glyph-name="uni018F" unicode="&#x18f;" horiz-adv-x="723" 
d="M519.5 668.5q69.5 -41.5 109 -122.5t39.5 -196t-39.5 -196t-109 -122.5t-159.5 -41.5t-159 42t-107.5 122t-38.5 191v25h558q-5 138 -73.5 214t-179.5 76q-78 0 -134.5 -36.5t-86.5 -108.5h-59q37 96 108.5 145.5t171.5 49.5q90 0 159.5 -41.5zM537.5 114
q67.5 74 74.5 206h-501q3 -86 35 -149.5t87 -97t127 -33.5q110 0 177.5 74z" />
    <glyph glyph-name="florin" unicode="&#x192;" horiz-adv-x="400" 
d="M347 653q-31 0 -47.5 -15t-23.5 -48l-35 -162h110l-10 -48h-110l-99 -455q-12 -56 -41 -80.5t-82 -24.5h-72l10 47h64q31 0 47.5 15t23.5 48l97 450h-100l10 48h101l36 167q12 56 41 80.5t82 24.5h64l-10 -47h-56z" />
    <glyph glyph-name="uni01F4" unicode="&#x1f4;" horiz-adv-x="710" 
d="M202.5 32q-69.5 42 -108.5 123t-39 195t39 195t108.5 123t160.5 42q100 0 171 -49.5t106 -145.5h-57q-64 145 -220 145q-75 0 -132 -36t-89 -106t-32 -168t32 -168t89 -106t132 -36q106 0 169 68t68 187h-237v50h292v-30q0 -100 -36.5 -173t-102.5 -112.5t-153 -39.5
q-91 0 -160.5 42zM378 770h-45l90 140h68z" />
    <glyph glyph-name="uni01F5" unicode="&#x1f5;" horiz-adv-x="585" 
d="M144 -161q-60 39 -86 116h53q43 -108 177 -108q78 0 124 41t46 115v122h-5q-29 -48 -74.5 -71.5t-103.5 -23.5q-66 0 -117 31t-79.5 87t-28.5 130t28.5 130t79.5 86.5t117 30.5q57 0 104 -24.5t76 -72.5h5l8 87h40v-512q0 -94 -59 -148.5t-161 -54.5q-84 0 -144 39z
M409.5 134q48.5 56 48.5 144t-48.5 144t-129.5 56q-82 0 -131 -55.5t-49 -144.5t49 -144.5t131 -55.5q81 0 129.5 56zM305 595h-45l90 140h68z" />
    <glyph glyph-name="Aringacute" unicode="&#x1fa;" horiz-adv-x="615" 
d="M605 0h-55l-70 188h-344l-71 -188h-55l265 700h65zM305 640l-151 -402h307l-151 402h-5zM345 918q26 -10 41 -32.5t15 -53.5q0 -41 -26.5 -66.5t-66.5 -25.5t-66 25.5t-26 66.5t25.5 66.5t64.5 26.5l24 60h60zM349 792.5q15 14.5 15 39.5q0 26 -15 41t-41 15
q-25 0 -39.5 -15t-14.5 -41q0 -25 14.5 -39.5t39.5 -14.5q26 0 41 14.5z" />
    <glyph glyph-name="aringacute" unicode="&#x1fb;" horiz-adv-x="518" 
d="M393.5 475q51.5 -50 51.5 -135v-340h-40l-7 83h-5q-19 -38 -64 -65.5t-106 -27.5q-81 0 -129.5 43t-48.5 112q0 68 48.5 110.5t134.5 42.5h167v42q0 66 -38.5 102t-106.5 36q-107 0 -137 -98h-53q17 70 67 107.5t123 37.5q92 0 143.5 -50zM347.5 84q47.5 46 47.5 121v45
h-167q-65 0 -99 -28.5t-34 -76.5q0 -50 34.5 -78.5t93.5 -28.5q77 0 124.5 46zM295 743q26 -10 41 -32.5t15 -53.5q0 -41 -26.5 -66.5t-66.5 -25.5t-66 25.5t-26 66.5t25.5 66.5t64.5 26.5l24 60h60zM299 617.5q15 14.5 15 39.5q0 26 -15 41t-41 15q-25 0 -39.5 -15
t-14.5 -41q0 -24 14.5 -39t39.5 -15q26 0 41 14.5z" />
    <glyph glyph-name="AEacute" unicode="&#x1fc;" horiz-adv-x="928" 
d="M480 328v-278h385v-50h-440v188h-289l-92 -188h-59l345 700h525v-50h-375v-272h355v-50h-355zM361 650l-201 -412h265v412h-64zM483 770h-45l90 140h68z" />
    <glyph glyph-name="aeacute" unicode="&#x1fd;" horiz-adv-x="893" 
d="M843 243h-397q5 -100 53 -152.5t126 -52.5q104 0 154 97h54q-28 -71 -82 -108t-126 -37q-70 0 -121.5 34t-78.5 94q-23 -57 -76 -92.5t-126 -35.5q-81 0 -129.5 43t-48.5 110q0 66 46 106.5t132 40.5h172v50q0 67 -38.5 102.5t-106.5 35.5q-107 0 -137 -98h-53
q17 70 67 107.5t123 37.5t120 -33t61 -87q30 59 78.5 89.5t110.5 30.5q68 0 119 -33t78.5 -88.5t27.5 -120.5q0 -22 -2 -40zM796 290q-6 92 -55 140t-121 48q-74 0 -121 -51.5t-53 -136.5h350zM347.5 84q47.5 46 47.5 121v38h-172q-65 0 -96.5 -27t-31.5 -73q0 -48 35 -76.5
t93 -28.5q77 0 124.5 46zM458 595h-45l90 140h68z" />
    <glyph glyph-name="Oslashacute" unicode="&#x1fe;" horiz-adv-x="725" 
d="M560 642q53 -46 81.5 -120t28.5 -172q0 -114 -39 -195t-108 -123t-160 -42q-90 0 -158 41l-33 -56h-54l48 83q-53 47 -82 121t-29 171q0 114 39 195t108.5 123t160.5 42q89 0 159 -41l32 56h54zM131.5 207.5q21.5 -61.5 62.5 -101.5l301 518q-57 36 -132 36t-132 -36
t-89 -106t-32 -168q0 -81 21.5 -142.5zM494.5 76q56.5 36 88.5 106t32 168q0 80 -21.5 142t-61.5 102l-301 -518q56 -36 132 -36q75 0 131.5 36zM378 770h-45l90 140h68z" />
    <glyph glyph-name="oslashacute" unicode="&#x1ff;" horiz-adv-x="570" 
d="M445 465q36 -35 55.5 -87.5t19.5 -119.5q0 -83 -29.5 -143.5t-83 -92.5t-122.5 -32q-71 0 -124 33l-28 -43h-52l45 70q-76 73 -76 208q0 83 30 143.5t83 92t122 31.5q73 0 125 -33l28 43h52zM154 93l230 358q-43 27 -99 27q-86 0 -135.5 -61t-49.5 -159q0 -103 54 -165z
M421 98.5q49 60.5 49 159.5q0 103 -53 164l-229 -357q41 -27 97 -27q87 0 136 60.5zM300 595h-45l90 140h68z" />
    <glyph glyph-name="uni0218" unicode="&#x218;" horiz-adv-x="590" 
d="M130.5 42.5q-67.5 52.5 -85.5 137.5h55q20 -69 74.5 -104.5t125.5 -35.5q91 0 140.5 41t49.5 104q0 46 -26 73.5t-64 41.5t-104 30q-77 19 -122 37t-77 55.5t-32 102.5q0 52 26 94t77.5 66.5t124.5 24.5q94 0 156 -44t81 -126h-55q-19 59 -64.5 89.5t-117.5 30.5
q-82 0 -127.5 -36t-45.5 -99q0 -46 26 -74t64.5 -42t104.5 -30q75 -18 120.5 -36t77.5 -56t32 -102q0 -50 -27.5 -95t-83 -72.5t-134.5 -27.5q-102 0 -169.5 52.5zM267 -245h-38l45 160h60z" />
    <glyph glyph-name="uni0219" unicode="&#x219;" horiz-adv-x="470" 
d="M109 29.5q-53 39.5 -69 105.5h53q13 -46 52 -71.5t93 -25.5q68 0 105 26t37 71q0 33 -19 52.5t-47.5 28.5t-78.5 20q-59 12 -94.5 25t-60.5 42t-25 80q0 38 21.5 70.5t62.5 52t96 19.5q70 0 120 -34t65 -96h-52q-32 83 -133 83q-63 0 -96.5 -26.5t-33.5 -68.5
q0 -33 19.5 -53t48.5 -30t78 -20q58 -12 93.5 -25t60.5 -41.5t25 -78.5q0 -64 -52 -104.5t-140 -40.5q-76 0 -129 39.5zM207 -245h-38l45 160h60z" />
    <glyph glyph-name="uni021A" unicode="&#x21a;" horiz-adv-x="585" 
d="M320 0h-55v650h-237v50h530v-50h-238v-650zM255 -245h-38l45 160h60z" />
    <glyph glyph-name="uni021B" unicode="&#x21b;" horiz-adv-x="343" 
d="M225 0q-50 0 -81 31t-31 82v355h-85v47h85l7 140h43v-140h137v-47h-137v-355q0 -31 17.5 -48t47.5 -17h72v-48h-75zM172 -245h-38l45 160h60z" />
    <glyph glyph-name="uni0232" unicode="&#x232;" horiz-adv-x="570" 
d="M313 0h-55v270l-248 430h59l214 -375h5l213 375h59l-247 -430v-270zM421 815h-270v45h270v-45z" />
    <glyph glyph-name="uni0233" unicode="&#x233;" horiz-adv-x="490" 
d="M197 -200h-53l80 201l-216 514h53l187 -442h5l176 442h54zM380 640h-270v45h270v-45z" />
    <glyph glyph-name="uni0237" unicode="&#x237;" horiz-adv-x="205" 
d="M-60 -200v47h73q30 0 47.5 17.5t17.5 47.5v603h50v-603q0 -50 -31 -81t-82 -31h-75z" />
    <glyph glyph-name="uni0244" unicode="&#x244;" horiz-adv-x="708" 
d="M703 498v-48h-88v-170q0 -91 -32.5 -156.5t-91.5 -99.5t-137 -34t-137 34t-91.5 99.5t-32.5 156.5v170h-88v48h88v202h55v-202h412v202h55v-202h88zM560 450h-412v-170q0 -113 56.5 -176.5t149.5 -63.5t149.5 63.5t56.5 176.5v170z" />
    <glyph glyph-name="uni0259" unicode="&#x259;" horiz-adv-x="558" 
d="M395 493.5q53 -31.5 83 -92t30 -143.5t-29.5 -143.5t-82 -92.5t-118.5 -32q-67 0 -119.5 33t-81.5 88.5t-29 121.5q0 20 2 40h408q-4 95 -53 150t-132 55q-55 0 -95 -26t-64 -72h-54q28 71 83.5 108t129.5 37q69 0 122 -31.5zM402 88.5q47 50.5 55 136.5h-359
q4 -85 53 -136t127 -51q77 0 124 50.5z" />
    <glyph glyph-name="uni0289" unicode="&#x289;" horiz-adv-x="570" 
d="M570 370v-45h-82v-325h-40l-8 83h-5q-23 -46 -65.5 -69.5t-94.5 -23.5q-56 0 -99.5 25.5t-68 72.5t-24.5 110v127h-83v45h83v145h50v-145h305v145h50v-145h82zM438 325h-305v-127q0 -74 40 -117t107 -43q44 0 80 21.5t57 58t21 80.5v127z" />
    <glyph glyph-name="uni02BC" unicode="&#x2bc;" horiz-adv-x="163" 
d="M65 540h-35l45 160h58z" />
    <glyph glyph-name="circumflex" unicode="&#x2c6;" horiz-adv-x="365" 
d="M85 595h-55l130 145h45l130 -145h-55l-95 107h-5z" />
    <glyph glyph-name="caron" unicode="&#x2c7;" horiz-adv-x="365" 
d="M205 595h-45l-130 145h55l95 -106h5l95 106h55z" />
    <glyph glyph-name="breve" unicode="&#x2d8;" horiz-adv-x="335" 
d="M71.5 636.5q-36.5 31.5 -41.5 88.5h48q3 -37 27 -57t63 -20t62.5 20t27.5 57h47q-5 -57 -41 -88.5t-96 -31.5t-96.5 31.5z" />
    <glyph glyph-name="dotaccent" unicode="&#x2d9;" horiz-adv-x="138" 
d="M41 634q-11 11 -11 27q0 17 11 28t28 11q16 0 27.5 -11t11.5 -28q0 -16 -11.5 -27t-27.5 -11q-17 0 -28 11z" />
    <glyph glyph-name="ring" unicode="&#x2da;" horiz-adv-x="245" 
d="M56 600.5q-26 25.5 -26 66.5t26 67t66 26t66.5 -26t26.5 -67t-26.5 -66.5t-66.5 -25.5t-66 25.5zM163 627.5q15 14.5 15 39.5q0 26 -15.5 41t-40.5 15t-39.5 -15t-14.5 -41q0 -25 14.5 -39.5t39.5 -14.5q26 0 41 14.5z" />
    <glyph glyph-name="ogonek" unicode="&#x2db;" horiz-adv-x="183" 
d="M125 -185q-45 0 -70 22t-25 60q0 40 28 69.5t72 44.5l23 -11q-43 -25 -61.5 -46.5t-18.5 -51.5q0 -23 15 -35t42 -12h23v-40h-28z" />
    <glyph glyph-name="tilde" unicode="&#x2dc;" horiz-adv-x="350" 
d="M206 623.5q-17 8.5 -41 24.5q-17 13 -29 19t-23 6q-35 0 -35 -53h-48q0 45 20.5 70t57.5 25q20 0 37 -8t40 -24q17 -13 29 -19t24 -6q35 0 35 52h47q0 -45 -20 -70t-57 -25q-20 0 -37 8.5z" />
    <glyph glyph-name="hungarumlaut" unicode="&#x2dd;" horiz-adv-x="368" 
d="M75 595h-45l90 140h68zM225 595h-45l90 140h68z" />
    <glyph glyph-name="gravecomb" unicode="&#x300;" horiz-adv-x="0" 
d="M-30 595h-45l-113 140h68z" />
    <glyph glyph-name="acutecomb" unicode="&#x301;" horiz-adv-x="0" 
d="M-143 595h-45l90 140h68z" />
    <glyph glyph-name="uni0302" unicode="&#x302;" horiz-adv-x="0" 
d="M-280 595h-55l130 145h45l130 -145h-55l-95 107h-5z" />
    <glyph glyph-name="tildecomb" unicode="&#x303;" horiz-adv-x="0" 
d="M-144 623.5q-17 8.5 -41 24.5q-17 13 -29 19t-23 6q-35 0 -35 -53h-48q0 45 20.5 70t57.5 25q20 0 37 -8t40 -24q17 -13 29 -19t24 -6q35 0 35 52h47q0 -45 -20 -70t-57 -25q-20 0 -37 8.5z" />
    <glyph glyph-name="uni0304" unicode="&#x304;" horiz-adv-x="0" 
d="M-30 640h-270v45h270v-45z" />
    <glyph glyph-name="uni0306" unicode="&#x306;" horiz-adv-x="0" 
d="M-263.5 636.5q-36.5 31.5 -41.5 88.5h48q3 -37 27 -57t63 -20t62.5 20t27.5 57h47q-5 -57 -41 -88.5t-96 -31.5t-96.5 31.5z" />
    <glyph glyph-name="uni0307" unicode="&#x307;" horiz-adv-x="0" 
d="M-97 634q-11 11 -11 27q0 17 11 28t28 11q16 0 27.5 -11t11.5 -28q0 -16 -11.5 -27t-27.5 -11q-17 0 -28 11z" />
    <glyph glyph-name="uni0308" unicode="&#x308;" horiz-adv-x="0" 
d="M-267 634q-11 11 -11 27q0 17 11 28t28 11q16 0 27.5 -11t11.5 -28q0 -16 -11 -27t-28 -11t-28 11zM-97 634q-11 11 -11 27q0 17 11 28t28 11q16 0 27.5 -11t11.5 -28q0 -16 -11 -27t-28 -11t-28 11z" />
    <glyph glyph-name="uni030A" unicode="&#x30a;" horiz-adv-x="0" 
d="M-189 600.5q-26 25.5 -26 66.5t26 67t66 26t66.5 -26t26.5 -67t-26.5 -66.5t-66.5 -25.5t-66 25.5zM-82 627.5q15 14.5 15 39.5q0 26 -15.5 41t-40.5 15t-39.5 -15t-14.5 -41q0 -25 14.5 -39.5t39.5 -14.5q26 0 41 14.5z" />
    <glyph glyph-name="uni030B" unicode="&#x30b;" horiz-adv-x="0" 
d="M-293 595h-45l90 140h68zM-143 595h-45l90 140h68z" />
    <glyph glyph-name="uni030C" unicode="&#x30c;" horiz-adv-x="0" 
d="M-160 595h-45l-130 145h55l95 -106h5l95 106h55z" />
    <glyph glyph-name="uni0312" unicode="&#x312;" horiz-adv-x="0" 
d="M-75 595h-60l68 160h37z" />
    <glyph glyph-name="uni0326" unicode="&#x326;" horiz-adv-x="0" 
d="M-97 -245h-38l45 160h60z" />
    <glyph glyph-name="uni0327" unicode="&#x327;" horiz-adv-x="0" 
d="M-110 -38q33 -1 56.5 -23.5t23.5 -56.5q0 -37 -24.5 -61t-62.5 -24h-53v38h48q22 0 36 13t14 34q0 20 -14 32.5t-36 12.5h-35v25l29 64l36 -13z" />
    <glyph glyph-name="uni0328" unicode="&#x328;" horiz-adv-x="0" 
d="M-58 -185q-45 0 -70 22t-25 60q0 40 28 69.5t72 44.5l23 -11q-43 -25 -61.5 -46.5t-18.5 -51.5q0 -23 15 -35t42 -12h23v-40h-28z" />
    <glyph glyph-name="uni03A9" unicode="&#x3a9;" horiz-adv-x="805" 
d="M93 0v50h155q-72 38 -128.5 117t-56.5 200q0 102 42 179.5t119 120.5t179 43t179 -43t119 -120.5t42 -179.5q0 -121 -56.5 -200t-129.5 -117h156v-50h-245v50q52 20 102 61t84 105t34 147q0 88 -34.5 155.5t-98.5 104.5t-152 37t-152.5 -37t-98.5 -104.5t-34 -155.5
q0 -83 34 -147t84 -105t102 -61v-50h-245z" />
    <glyph glyph-name="uni0400" unicode="&#x400;" horiz-adv-x="595" 
d="M148 328v-278h385v-50h-440v700h430v-50h-375v-272h355v-50h-355zM338 770h-45l-113 140h68z" />
    <glyph glyph-name="uni0401" unicode="&#x401;" horiz-adv-x="595" 
d="M148 328v-278h385v-50h-440v700h430v-50h-375v-272h355v-50h-355zM195 809q-11 11 -11 27q0 17 11 28t28 11q16 0 27.5 -11t11.5 -28q0 -16 -11 -27t-28 -11t-28 11zM365 809q-11 11 -11 27q0 17 11 28t28 11q16 0 27.5 -11t11.5 -28q0 -16 -11 -27t-28 -11t-28 11z" />
    <glyph glyph-name="uni0402" unicode="&#x402;" horiz-adv-x="730" 
d="M435 -8q85 0 135 55t50 148q0 90 -50.5 142.5t-136.5 52.5q-49 0 -90.5 -11t-89.5 -36v-343h-55v650h-190v50h485v-50h-240v-255q80 45 180 45q111 0 176.5 -65.5t65.5 -179.5q0 -76 -29.5 -133t-84 -88.5t-126.5 -31.5v50z" />
    <glyph glyph-name="uni0403" unicode="&#x403;" horiz-adv-x="503" 
d="M148 0h-55v700h390v-50h-335v-650zM303 770h-45l90 140h68z" />
    <glyph glyph-name="uni0404" unicode="&#x404;" horiz-adv-x="685" 
d="M583 185h57q-35 -95 -106.5 -145t-170.5 -50q-91 0 -160.5 42t-108.5 123t-39 195t39 195t108.5 123t160.5 42q100 0 171 -49.5t106 -145.5h-57q-64 145 -220 145q-71 0 -126.5 -32.5t-88.5 -96t-37 -153.5h309v-50h-310q4 -92 37 -156.5t88.5 -98t127.5 -33.5
q156 0 220 145z" />
    <glyph glyph-name="uni0405" unicode="&#x405;" horiz-adv-x="590" 
d="M130.5 42.5q-67.5 52.5 -85.5 137.5h55q20 -69 74.5 -104.5t125.5 -35.5q91 0 140.5 41t49.5 104q0 46 -26 73.5t-64 41.5t-104 30q-77 19 -122 37t-77 55.5t-32 102.5q0 52 26 94t77.5 66.5t124.5 24.5q94 0 156 -44t81 -126h-55q-19 59 -64.5 89.5t-117.5 30.5
q-82 0 -127.5 -36t-45.5 -99q0 -46 26 -74t64.5 -42t104.5 -30q75 -18 120.5 -36t77.5 -56t32 -102q0 -50 -27.5 -95t-83 -72.5t-134.5 -27.5q-102 0 -169.5 52.5z" />
    <glyph glyph-name="uni0406" unicode="&#x406;" horiz-adv-x="240" 
d="M148 0h-55v700h55v-700z" />
    <glyph glyph-name="uni0407" unicode="&#x407;" horiz-adv-x="240" 
d="M148 0h-55v700h55v-700zM27 809q-11 11 -11 27q0 17 11 28t28 11q16 0 27.5 -11t11.5 -28q0 -16 -11 -27t-28 -11t-28 11zM157 809q-11 11 -11 27q0 17 11 28t28 11q16 0 27.5 -11t11.5 -28q0 -16 -11 -27t-28 -11t-28 11z" />
    <glyph glyph-name="uni0408" unicode="&#x408;" horiz-adv-x="540" 
d="M94.5 39.5q-56.5 49.5 -69.5 138.5h55q11 -66 53 -102t105 -36q73 0 116.5 48.5t43.5 136.5v475h55v-475q0 -111 -58.5 -173t-156.5 -62q-87 0 -143.5 49.5z" />
    <glyph glyph-name="uni0409" unicode="&#x409;" horiz-adv-x="1015" 
d="M10 -5v53h10q46 0 74 28t42 97t14 192v335h418v-302h190q96 0 153 -54.5t57 -144.5t-57 -144.5t-153 -54.5h-245v650h-308v-285q0 -140 -17.5 -219.5t-57.5 -115t-110 -35.5h-10zM753 50q76 0 118 40t42 109t-42 109t-118 40h-185v-298h185z" />
    <glyph glyph-name="uni040A" unicode="&#x40a;" horiz-adv-x="1040" 
d="M783 398q96 0 153 -54.5t57 -144.5t-57 -144.5t-153 -54.5h-245v348h-390v-348h-55v700h55v-302h390v302h55v-302h190zM778 50q76 0 118 40t42 109t-42 109t-118 40h-185v-298h185z" />
    <glyph glyph-name="uni040B" unicode="&#x40b;" horiz-adv-x="765" 
d="M198 0v650h-190v50h485v-50h-240v-255q83 45 185 45q117 0 182 -62.5t65 -172.5v-205h-55v205q0 87 -50.5 136t-141.5 49q-57 0 -99.5 -12t-85.5 -35v-343h-55z" />
    <glyph glyph-name="uni040C" unicode="&#x40c;" horiz-adv-x="565" 
d="M148 0h-55v700h55v-335l335 335h67l-346 -345l361 -355h-67l-350 345v-345zM324 770h-45l90 140h68z" />
    <glyph glyph-name="uni040D" unicode="&#x40d;" horiz-adv-x="728" 
d="M168 0h-75v700h55v-631h5l407 631h75v-700h-55v631h-5zM395 770h-45l-113 140h68z" />
    <glyph glyph-name="uni040E" unicode="&#x40e;" horiz-adv-x="550" 
d="M215 0h-57l95 210l-243 490h60l209 -424h5l194 424h57zM178.5 811.5q-36.5 31.5 -41.5 88.5h48q3 -37 27 -57t63 -20t62.5 20t27.5 57h47q-5 -57 -41 -88.5t-96 -31.5t-96.5 31.5z" />
    <glyph glyph-name="uni040F" unicode="&#x40f;" horiz-adv-x="700" 
d="M375 -145h-50v145h-232v700h55v-650h405v650h55v-700h-233v-145z" />
    <glyph glyph-name="uni0410" unicode="&#x410;" horiz-adv-x="615" 
d="M605 0h-55l-70 188h-344l-71 -188h-55l265 700h65zM305 640l-151 -402h307l-151 402h-5z" />
    <glyph glyph-name="uni0411" unicode="&#x411;" horiz-adv-x="615" 
d="M93 0v700h427v-50h-372v-235h200q101 0 159 -56t58 -151t-58 -151.5t-159 -56.5h-255zM343 50q79 0 123 41.5t44 116.5t-44 116t-123 41h-195v-315h195z" />
    <glyph glyph-name="uni0412" unicode="&#x412;" horiz-adv-x="645" 
d="M93 0v700h285q91 0 144 -50.5t53 -136.5q0 -55 -27 -97t-76 -61q53 -17 83 -62t30 -103q0 -88 -53 -139t-144 -51h-295zM373 375q68 0 107.5 37.5t39.5 100.5t-39 100t-108 37h-225v-275h225zM383 50q71 0 109 38.5t38 101.5q0 61 -38.5 99.5t-108.5 38.5h-235v-278h235z
" />
    <glyph glyph-name="uni0413" unicode="&#x413;" horiz-adv-x="503" 
d="M148 0h-55v700h390v-50h-335v-650z" />
    <glyph glyph-name="uni0414" unicode="&#x414;" horiz-adv-x="678" 
d="M558 50h85v-195h-50v145h-535v-145h-50v195h52q40 48 56.5 123.5t16.5 191.5v335h425v-650zM503 50v600h-315v-285q0 -115 -15.5 -190t-52.5 -125h383z" />
    <glyph glyph-name="uni0415" unicode="&#x415;" horiz-adv-x="595" 
d="M148 328v-278h385v-50h-440v700h430v-50h-375v-272h355v-50h-355z" />
    <glyph glyph-name="uni0416" unicode="&#x416;" horiz-adv-x="830" 
d="M68 0h-68l332 355l-317 345h68l306 -335v335h53v-335l306 335h67l-316 -345l331 -355h-67l-321 346v-346h-53v346z" />
    <glyph glyph-name="uni0417" unicode="&#x417;" horiz-adv-x="593" 
d="M169.5 13.5q-53.5 23.5 -88 68t-41.5 103.5h55q5 -37 29.5 -70.5t66.5 -54t97 -20.5q86 0 138 41t52 109q0 58 -42.5 98t-125.5 40h-75v47h75q49 0 84.5 18.5t54.5 50t19 69.5q0 37 -19.5 70.5t-60.5 55t-103 21.5q-72 0 -120 -39t-60 -106h-55q15 92 78 143.5t157 51.5
q75 0 128.5 -26t81.5 -70.5t28 -100.5q0 -57 -29.5 -99t-80.5 -60q53 -14 86.5 -59.5t33.5 -104.5q0 -56 -29 -101.5t-84.5 -72t-131.5 -26.5q-65 0 -118.5 23.5z" />
    <glyph glyph-name="uni0418" unicode="&#x418;" horiz-adv-x="728" 
d="M168 0h-75v700h55v-631h5l407 631h75v-700h-55v631h-5z" />
    <glyph glyph-name="uni0419" unicode="&#x419;" horiz-adv-x="728" 
d="M168 0h-75v700h55v-631h5l407 631h75v-700h-55v631h-5zM268.5 811.5q-36.5 31.5 -41.5 88.5h48q3 -37 27 -57t63 -20t62.5 20t27.5 57h47q-5 -57 -41 -88.5t-96 -31.5t-96.5 31.5z" />
    <glyph glyph-name="uni041A" unicode="&#x41a;" horiz-adv-x="565" 
d="M148 0h-55v700h55v-335l335 335h67l-346 -345l361 -355h-67l-350 345v-345z" />
    <glyph glyph-name="uni041B" unicode="&#x41b;" horiz-adv-x="678" 
d="M10 -5v53h10q46 0 74 28t42 97t14 192v335h435v-700h-55v650h-325v-285q0 -140 -17.5 -219.5t-57.5 -115t-110 -35.5h-10z" />
    <glyph glyph-name="uni041C" unicode="&#x41c;" horiz-adv-x="850" 
d="M148 0h-55v700h85l245 -618h5l244 618h86v-700h-55v624h-5l-248 -624h-50l-247 624h-5v-624z" />
    <glyph glyph-name="uni041D" unicode="&#x41d;" horiz-adv-x="708" 
d="M560 378v322h55v-700h-55v328h-412v-328h-55v700h55v-322h412z" />
    <glyph glyph-name="uni041E" unicode="&#x41e;" horiz-adv-x="725" 
d="M202.5 32q-69.5 42 -108.5 123t-39 195t39 195t108.5 123t160.5 42t160 -42t108 -123t39 -195t-39 -195t-108 -123t-160 -42t-160.5 42zM494.5 76q56.5 36 88.5 106t32 168t-32 168t-88.5 106t-131.5 36t-132 -36t-89 -106t-32 -168t32 -168t89 -106t132 -36t131.5 36z
" />
    <glyph glyph-name="uni041F" unicode="&#x41f;" horiz-adv-x="698" 
d="M148 0h-55v700h512v-700h-55v650h-402v-650z" />
    <glyph glyph-name="uni0420" unicode="&#x420;" horiz-adv-x="620" 
d="M93 0v700h252q103 0 161.5 -58.5t58.5 -156.5q0 -97 -58.5 -156t-161.5 -59h-197v-270h-55zM340 320q81 0 125.5 43.5t44.5 121.5t-44.5 121.5t-125.5 43.5h-192v-330h192z" />
    <glyph glyph-name="uni0421" unicode="&#x421;" horiz-adv-x="685" 
d="M202.5 32q-69.5 42 -108.5 123t-39 195t39 195t108.5 123t160.5 42q100 0 171 -49.5t106 -145.5h-57q-64 145 -220 145q-75 0 -132 -36t-89 -106t-32 -168t32 -168t89 -106t132 -36q156 0 220 145h57q-35 -95 -106.5 -145t-170.5 -50q-91 0 -160.5 42z" />
    <glyph glyph-name="uni0422" unicode="&#x422;" horiz-adv-x="585" 
d="M320 0h-55v650h-237v50h530v-50h-238v-650z" />
    <glyph glyph-name="uni0423" unicode="&#x423;" horiz-adv-x="550" 
d="M215 0h-57l95 210l-243 490h60l209 -424h5l194 424h57z" />
    <glyph glyph-name="uni0424" unicode="&#x424;" horiz-adv-x="785" 
d="M703 206.5q-37 -63.5 -109 -99.5t-174 -37v-80h-55v80q-101 1 -173 37t-109.5 99.5t-37.5 148.5t37.5 149t109.5 100t173 37v69h55v-69q102 -1 174 -37t109 -100t37 -149t-37 -148.5zM167 184q67 -62 199 -64v471q-131 -2 -198.5 -64.5t-67.5 -171.5t67 -171zM419 120
q132 2 199 64t67 171t-67.5 171.5t-198.5 64.5v-471z" />
    <glyph glyph-name="uni0425" unicode="&#x425;" horiz-adv-x="575" 
d="M80 0h-62l237 360l-227 340h62l198 -297l198 297h62l-228 -340l238 -360h-62l-208 317z" />
    <glyph glyph-name="uni0426" unicode="&#x426;" horiz-adv-x="728" 
d="M693 -145h-50v145h-550v700h55v-650h405v650h55v-650h85v-195z" />
    <glyph glyph-name="uni0427" unicode="&#x427;" horiz-adv-x="660" 
d="M513 288q-83 -45 -185 -45q-117 0 -182.5 63t-65.5 172v222h55v-222q0 -87 50.5 -136t142.5 -49q57 0 99.5 12t85.5 35v360h55v-700h-55v288z" />
    <glyph glyph-name="uni0428" unicode="&#x428;" horiz-adv-x="940" 
d="M848 0h-755v700h55v-650h295v650h55v-650h295v650h55v-700z" />
    <glyph glyph-name="uni0429" unicode="&#x429;" horiz-adv-x="968" 
d="M933 -145h-50v145h-790v700h55v-650h295v650h55v-650h295v650h55v-650h85v-195z" />
    <glyph glyph-name="uni042A" unicode="&#x42a;" horiz-adv-x="680" 
d="M165 0v650h-165v50h220v-280h193q68 0 117.5 -26.5t76 -74t26.5 -109.5q0 -61 -26.5 -108.5t-76 -74.5t-117.5 -27h-248zM408 50q80 0 125 43t45 117t-45 117t-125 43h-188v-320h188z" />
    <glyph glyph-name="uni042B" unicode="&#x42b;" horiz-adv-x="810" 
d="M93 0v700h55v-280h187q68 0 118 -26.5t76 -74t26 -109.5q0 -61 -26 -108.5t-76 -74.5t-118 -27h-242zM718 0h-55v700h55v-700zM330 50q80 0 125 43t45 117t-45 117t-125 43h-182v-320h182z" />
    <glyph glyph-name="uni042C" unicode="&#x42c;" horiz-adv-x="613" 
d="M93 0v700h55v-280h197q68 0 118 -26.5t76 -74t26 -109.5q0 -61 -26 -108.5t-76 -74.5t-118 -27h-252zM340 50q80 0 125 43t45 117t-45 117t-125 43h-192v-320h192z" />
    <glyph glyph-name="uni042D" unicode="&#x42d;" horiz-adv-x="680" 
d="M478 668q69 -42 108 -123t39 -195t-39 -195t-108 -123t-160 -42q-100 0 -171 50t-107 145h58q63 -145 220 -145q72 0 127.5 33.5t88 98t36.5 156.5h-310v50h309q-4 90 -37 153.5t-88 96t-126 32.5q-158 0 -220 -145h-58q36 96 107 145.5t171 49.5q91 0 160 -42z" />
    <glyph glyph-name="uni042E" unicode="&#x42e;" horiz-adv-x="920" 
d="M724 668q66 -42 103.5 -123t37.5 -195t-37.5 -195t-103.5 -123t-151 -42q-83 0 -147.5 39.5t-103 115.5t-42.5 183h-132v-328h-55v700h55v-322h133q4 105 42.5 180t103 113.5t146.5 38.5q85 0 151 -42zM695 76q54 36 84.5 106t30.5 168q0 99 -30.5 169t-84.5 105.5
t-122 35.5q-69 0 -122.5 -35.5t-84.5 -105.5t-31 -169q0 -98 31 -168t85 -106t122 -36t122 36z" />
    <glyph glyph-name="uni042F" unicode="&#x42f;" horiz-adv-x="625" 
d="M533 700v-700h-55v290h-133l-226 -290h-64l227 290h-4q-102 0 -160 55.5t-58 149.5t58 149.5t160 55.5h255zM478 340v310h-195q-81 0 -124.5 -40.5t-43.5 -114.5q0 -73 43.5 -114t124.5 -41h195z" />
    <glyph glyph-name="uni0430" unicode="&#x430;" horiz-adv-x="518" 
d="M393.5 475q51.5 -50 51.5 -135v-340h-40l-7 83h-5q-19 -38 -64 -65.5t-106 -27.5q-81 0 -129.5 43t-48.5 112q0 68 48.5 110.5t134.5 42.5h167v42q0 66 -38.5 102t-106.5 36q-107 0 -137 -98h-53q17 70 67 107.5t123 37.5q92 0 143.5 -50zM347.5 84q47.5 46 47.5 121v45
h-167q-65 0 -99 -28.5t-34 -76.5q0 -50 34.5 -78.5t93.5 -28.5q77 0 124.5 46z" />
    <glyph glyph-name="uni0431" unicode="&#x431;" horiz-adv-x="568" 
d="M118 64.5q-63 74.5 -63 210.5q0 145 27 234.5t83 131.5t145 42q55 0 101 9.5t77 25.5v-50q-29 -15 -75.5 -23.5t-102.5 -8.5q-94 0 -142.5 -62.5t-59.5 -195.5h5q25 49 71.5 78t108.5 29q65 0 116 -29t80 -85t29 -133q0 -75 -29 -131.5t-81 -86.5t-120 -30
q-107 0 -170 74.5zM418.5 92q49.5 54 49.5 146t-49.5 146t-130.5 54t-129.5 -56t-48.5 -144q0 -90 47.5 -145t130.5 -55q81 0 130.5 54z" />
    <glyph glyph-name="uni0432" unicode="&#x432;" horiz-adv-x="513" 
d="M78 0v515h222q72 0 112.5 -37t40.5 -100q0 -38 -20 -69t-57 -45q41 -14 64 -46t23 -73q0 -66 -43 -105.5t-120 -39.5h-222zM300 288q51 0 78 24.5t27 65.5q0 42 -27.5 66t-77.5 24h-172v-180h172zM300 48q52 0 82.5 26t30.5 71t-30 70t-83 25h-172v-192h172z" />
    <glyph glyph-name="uni0433" unicode="&#x433;" horiz-adv-x="423" 
d="M128 0h-50v515h325v-47h-275v-468z" />
    <glyph glyph-name="uni0434" unicode="&#x434;" horiz-adv-x="548" 
d="M453 48h70v-168h-48v120h-420v-120h-47v168h49q56 69 56 237v230h340v-467zM403 48v420h-240v-183q0 -167 -54 -237h294z" />
    <glyph glyph-name="uni0435" unicode="&#x435;" horiz-adv-x="558" 
d="M508 243h-408q4 -95 53 -150t132 -55q55 0 95 25.5t64 71.5h54q-28 -71 -83.5 -108t-129.5 -37q-69 0 -122 32t-83 92.5t-30 143.5t29.5 143.5t82 92t118.5 31.5q67 0 119.5 -33t81.5 -88t29 -121q0 -22 -2 -40zM460 290q-5 86 -53.5 137t-126.5 51q-77 0 -124 -51
t-55 -137h359z" />
    <glyph glyph-name="uni0436" unicode="&#x436;" horiz-adv-x="665" 
d="M61 0h-66l260 263l-245 252h64l235 -242v242h48v-242l234 242h64l-245 -252l260 -263h-65l-248 253v-253h-48v253z" />
    <glyph glyph-name="uni0437" unicode="&#x437;" horiz-adv-x="475" 
d="M99 29.5q-53 39.5 -64 105.5h50q10 -45 50 -71t100 -26q68 0 104 27t36 73q0 41 -32.5 70.5t-92.5 29.5h-62v47h62q54 0 84.5 27t30.5 66q0 43 -33.5 71.5t-96.5 28.5q-58 0 -94 -25t-46 -73h-50q11 69 61 107t129 38q83 0 131.5 -41t48.5 -106q0 -41 -25.5 -73
t-61.5 -43q42 -12 69.5 -46.5t27.5 -77.5q0 -66 -49.5 -107t-140.5 -41q-83 0 -136 39.5z" />
    <glyph glyph-name="uni0438" unicode="&#x438;" horiz-adv-x="570" 
d="M145 0h-67v515h50v-451h5l292 451h68v-515h-50v452h-5z" />
    <glyph glyph-name="uni0439" unicode="&#x439;" horiz-adv-x="570" 
d="M145 0h-67v515h50v-451h5l292 451h68v-515h-50v452h-5zM189.5 636.5q-36.5 31.5 -41.5 88.5h48q3 -37 27 -57t63 -20t62.5 20t27.5 57h47q-5 -57 -41 -88.5t-96 -31.5t-96.5 31.5z" />
    <glyph glyph-name="uni043A" unicode="&#x43a;" horiz-adv-x="465" 
d="M128 0h-50v515h50v-242l262 242h65l-273 -252l288 -263h-65l-277 253v-253z" />
    <glyph glyph-name="uni043B" unicode="&#x43b;" horiz-adv-x="543" 
d="M10 -5v52h10q53 0 75.5 58t22.5 195v215h347v-515h-50v468h-247v-168q0 -108 -14.5 -174.5t-46.5 -98.5t-87 -32h-10z" />
    <glyph glyph-name="uni043C" unicode="&#x43c;" horiz-adv-x="690" 
d="M128 0h-50v515h70l195 -445h5l195 445h70v-515h-50v438h-5l-192 -438h-41l-192 438h-5v-438z" />
    <glyph glyph-name="uni043D" unicode="&#x43d;" horiz-adv-x="560" 
d="M433 283v232h50v-515h-50v235h-305v-235h-50v515h50v-232h305z" />
    <glyph glyph-name="uni043E" unicode="&#x43e;" horiz-adv-x="570" 
d="M163 22q-53 32 -83 92.5t-30 143.5t30 143.5t83 92t122 31.5t122.5 -31.5t83 -92t29.5 -143.5t-29.5 -143.5t-83 -92.5t-122.5 -32t-122 32zM421 98.5q49 60.5 49 159.5q0 98 -49 159t-136 61q-86 0 -135.5 -61t-49.5 -159q0 -99 49.5 -159.5t135.5 -60.5q87 0 136 60.5z
" />
    <glyph glyph-name="uni043F" unicode="&#x43f;" horiz-adv-x="555" 
d="M128 0h-50v515h400v-515h-50v468h-300v-468z" />
    <glyph glyph-name="uni0440" unicode="&#x440;" horiz-adv-x="585" 
d="M78 -200v715h40l7 -92h5q28 51 75 76.5t105 25.5q67 0 117.5 -31.5t79 -92t28.5 -143.5t-28.5 -143.5t-79 -92.5t-117.5 -32q-57 0 -103.5 25.5t-73.5 74.5h-5v-290h-50zM438 98q47 60 47 160q0 99 -47 159.5t-133 60.5q-83 0 -130 -60.5t-47 -159.5t47 -159.5t130 -60.5
q86 0 133 60z" />
    <glyph glyph-name="uni0441" unicode="&#x441;" horiz-adv-x="538" 
d="M163 22q-53 32 -83 92.5t-30 143.5t30 143.5t83 92t122 31.5q74 0 129.5 -37t83.5 -108h-54q-24 46 -64 72t-95 26q-86 0 -135.5 -61t-49.5 -159q0 -99 49.5 -159.5t135.5 -60.5q55 0 95 25.5t64 71.5h54q-28 -71 -83.5 -108t-129.5 -37q-69 0 -122 32z" />
    <glyph glyph-name="uni0442" unicode="&#x442;" horiz-adv-x="455" 
d="M253 0h-50v468h-185v47h420v-47h-185v-468z" />
    <glyph glyph-name="uni0443" unicode="&#x443;" horiz-adv-x="490" 
d="M197 -200h-53l80 201l-216 514h53l187 -442h5l176 442h54z" />
    <glyph glyph-name="uni0444" unicode="&#x444;" horiz-adv-x="680" 
d="M602 122q-33 -58 -94.5 -90t-142.5 -32v-200h-50v200q-81 0 -142.5 32t-94.5 90t-33 136t33 136t94.5 89.5t142.5 31.5v185h50v-185q81 0 142.5 -31.5t94.5 -89.5t33 -136t-33 -136zM154 104.5q59 -55.5 161 -56.5v420q-102 -1 -161 -56.5t-59 -153.5t59 -153.5zM365 48
q103 1 161.5 56.5t58.5 153.5t-58.5 153.5t-161.5 56.5v-420z" />
    <glyph glyph-name="uni0445" unicode="&#x445;" horiz-adv-x="445" 
d="M68 0h-58l183 268l-173 247h58l145 -210l145 210h57l-173 -247l183 -268h-57l-155 231z" />
    <glyph glyph-name="uni0446" unicode="&#x446;" horiz-adv-x="568" 
d="M543 -120h-48v120h-417v515h50v-467h295v467h50v-467h70v-168z" />
    <glyph glyph-name="uni0447" unicode="&#x447;" horiz-adv-x="525" 
d="M398 208q-66 -33 -140 -33q-93 0 -143 46t-50 129v165h50v-165q0 -63 36.5 -95t106.5 -32q84 0 140 35v257h50v-515h-50v208z" />
    <glyph glyph-name="uni0448" unicode="&#x448;" horiz-adv-x="785" 
d="M708 0h-630v515h50v-467h240v467h50v-467h240v467h50v-515z" />
    <glyph glyph-name="uni0449" unicode="&#x449;" horiz-adv-x="803" 
d="M778 -120h-48v120h-652v515h50v-467h240v467h50v-467h240v467h50v-467h70v-168z" />
    <glyph glyph-name="uni044A" unicode="&#x44a;" horiz-adv-x="548" 
d="M340 320q78 0 123 -44t45 -116t-45 -116t-123 -44h-202v468h-133v47h183v-195h152zM335 48q59 0 91 29.5t32 82.5q0 54 -32 83.5t-91 29.5h-147v-225h147z" />
    <glyph glyph-name="uni044B" unicode="&#x44b;" horiz-adv-x="653" 
d="M275 320q78 0 123 -44t45 -116t-45 -116t-123 -44h-197v515h50v-195h147zM525 0v515h50v-515h-50zM270 48q59 0 91 29.5t32 82.5q0 54 -32 83.5t-91 29.5h-142v-225h142z" />
    <glyph glyph-name="uni044C" unicode="&#x44c;" horiz-adv-x="493" 
d="M285 320q78 0 123 -44t45 -116t-45 -116t-123 -44h-207v515h50v-195h157zM280 48q59 0 91 29.5t32 82.5q0 54 -32 83.5t-91 29.5h-152v-225h152z" />
    <glyph glyph-name="uni044D" unicode="&#x44d;" horiz-adv-x="533" 
d="M370 493.5q53 -31.5 83 -92t30 -143.5t-30 -143.5t-83 -92.5t-122 -32q-74 0 -129.5 37t-83.5 108h54q24 -46 64 -71.5t95 -25.5q81 0 130 54t54 143h-222v48h222q-6 88 -55 141.5t-129 53.5q-55 0 -95 -26t-64 -72h-54q28 71 83.5 108t129.5 37q69 0 122 -31.5z" />
    <glyph glyph-name="uni044E" unicode="&#x44e;" horiz-adv-x="720" 
d="M562.5 493.5q50.5 -31.5 79 -92t28.5 -143.5t-28.5 -143.5t-79 -92.5t-117.5 -32q-96 0 -157 65t-67 180h-93v-235h-50v515h50v-232h93q6 114 67.5 178t156.5 64q67 0 117.5 -31.5zM574 98.5q46 60.5 46 159.5t-46 159.5t-129 60.5q-82 0 -128.5 -61t-46.5 -159
q0 -99 46.5 -159.5t128.5 -60.5q83 0 129 60.5z" />
    <glyph glyph-name="uni044F" unicode="&#x44f;" horiz-adv-x="503" 
d="M425 515v-515h-50v208h-107l-165 -208h-58l166 208q-74 2 -117.5 43.5t-43.5 109.5q0 69 45 111.5t123 42.5h207zM375 255v213h-155q-57 0 -88.5 -28.5t-31.5 -78.5t32 -78t88 -28h155z" />
    <glyph glyph-name="uni0450" unicode="&#x450;" horiz-adv-x="558" 
d="M508 243h-408q4 -95 53 -150t132 -55q55 0 95 25.5t64 71.5h54q-28 -71 -83.5 -108t-129.5 -37q-69 0 -122 32t-83 92.5t-30 143.5t29.5 143.5t82 92t118.5 31.5q67 0 119.5 -33t81.5 -88t29 -121q0 -22 -2 -40zM460 290q-5 86 -53.5 137t-126.5 51q-77 0 -124 -51
t-55 -137h359zM312 595h-45l-113 140h68z" />
    <glyph glyph-name="uni0451" unicode="&#x451;" horiz-adv-x="558" 
d="M508 243h-408q4 -95 53 -150t132 -55q55 0 95 25.5t64 71.5h54q-28 -71 -83.5 -108t-129.5 -37q-69 0 -122 32t-83 92.5t-30 143.5t29.5 143.5t82 92t118.5 31.5q67 0 119.5 -33t81.5 -88t29 -121q0 -22 -2 -40zM460 290q-5 86 -53.5 137t-126.5 51q-77 0 -124 -51
t-55 -137h359zM169 634q-11 11 -11 27q0 17 11 28t28 11q16 0 27.5 -11t11.5 -28q0 -16 -11 -27t-28 -11t-28 11zM339 634q-11 11 -11 27q0 17 11 28t28 11q16 0 27.5 -11t11.5 -28q0 -16 -11 -27t-28 -11t-28 11z" />
    <glyph glyph-name="uni0452" unicode="&#x452;" horiz-adv-x="565" 
d="M399 450q44 -25 69 -71.5t25 -110.5v-356q0 -50 -31 -81t-82 -31h-60v47h58q30 0 47.5 17t17.5 48v356q0 73 -40.5 116.5t-107.5 43.5q-44 0 -80 -21.5t-56.5 -58.5t-20.5 -80v-268h-50v565h-83v45h83v90h50v-90h142v-45h-142v-180h5q24 43 63.5 66.5t93.5 23.5
q55 0 99 -25z" />
    <glyph glyph-name="uni0453" unicode="&#x453;" horiz-adv-x="423" 
d="M128 0h-50v515h325v-47h-275v-468zM255 595h-45l90 140h68z" />
    <glyph glyph-name="uni0454" unicode="&#x454;" horiz-adv-x="538" 
d="M380 63.5q40 25.5 64 71.5h54q-28 -71 -83.5 -108t-129.5 -37q-69 0 -122 32t-83 92.5t-30 143.5t30 143.5t83 92t122 31.5q74 0 129.5 -37t83.5 -108h-54q-24 46 -64 72t-95 26q-80 0 -129 -53.5t-55 -141.5h222v-48h-222q5 -89 54 -143t130 -54q55 0 95 25.5z" />
    <glyph glyph-name="uni0455" unicode="&#x455;" horiz-adv-x="470" 
d="M109 29.5q-53 39.5 -69 105.5h53q13 -46 52 -71.5t93 -25.5q68 0 105 26t37 71q0 33 -19 52.5t-47.5 28.5t-78.5 20q-59 12 -94.5 25t-60.5 42t-25 80q0 38 21.5 70.5t62.5 52t96 19.5q70 0 120 -34t65 -96h-52q-32 83 -133 83q-63 0 -96.5 -26.5t-33.5 -68.5
q0 -33 19.5 -53t48.5 -30t78 -20q58 -12 93.5 -25t60.5 -41.5t25 -78.5q0 -64 -52 -104.5t-140 -40.5q-76 0 -129 39.5z" />
    <glyph glyph-name="uni0456" unicode="&#x456;" horiz-adv-x="205" 
d="M128 0h-50v515h50v-515zM75 634q-11 11 -11 27q0 17 11 28t28 11q16 0 27.5 -11t11.5 -28q0 -16 -11.5 -27t-27.5 -11q-17 0 -28 11z" />
    <glyph glyph-name="uni0457" unicode="&#x457;" horiz-adv-x="205" 
d="M128 0h-50v515h50v-515zM9 634q-11 11 -11 27q0 17 11 28t28 11q16 0 27.5 -11t11.5 -28q0 -16 -11 -27t-28 -11t-28 11zM139 634q-11 11 -11 27q0 17 11 28t28 11q16 0 27.5 -11t11.5 -28q0 -16 -11 -27t-28 -11t-28 11z" />
    <glyph glyph-name="uni0458" unicode="&#x458;" horiz-adv-x="205" 
d="M-60 -200v47h73q30 0 47.5 17.5t17.5 47.5v603h50v-603q0 -50 -31 -81t-82 -31h-75zM75 634q-11 11 -11 27q0 17 11 28t28 11q16 0 27.5 -11t11.5 -28q0 -16 -11.5 -27t-27.5 -11q-17 0 -28 11z" />
    <glyph glyph-name="uni0459" unicode="&#x459;" horiz-adv-x="803" 
d="M603 300q72 0 116 -41.5t44 -108.5q0 -66 -44 -108t-116 -42h-200v468h-235v-168q0 -109 -14.5 -175.5t-46.5 -98t-87 -31.5h-10v52h10q53 0 75.5 58t22.5 195v215h335v-215h150zM598 48q54 0 84.5 27.5t30.5 74.5q0 48 -30.5 75.5t-84.5 27.5h-145v-205h145z" />
    <glyph glyph-name="uni045A" unicode="&#x45a;" horiz-adv-x="818" 
d="M618 300q72 0 116 -41.5t44 -108.5q0 -66 -44 -108t-116 -42h-200v253h-290v-253h-50v515h50v-215h290v215h50v-215h150zM613 48q54 0 84.5 27.5t30.5 74.5q0 48 -30.5 75.5t-84.5 27.5h-145v-205h145z" />
    <glyph glyph-name="uni045B" unicode="&#x45b;" horiz-adv-x="565" 
d="M399 450q44 -25 69 -71.5t25 -110.5v-268h-50v268q0 73 -40.5 116.5t-107.5 43.5q-44 0 -80 -21.5t-56.5 -58.5t-20.5 -80v-268h-50v565h-83v45h83v90h50v-90h142v-45h-142v-180h5q24 44 64 67t93 23q55 0 99 -25z" />
    <glyph glyph-name="uni045C" unicode="&#x45c;" horiz-adv-x="465" 
d="M128 0h-50v515h50v-242l262 242h65l-273 -252l288 -263h-65l-277 253v-253zM270 595h-45l90 140h68z" />
    <glyph glyph-name="uni045D" unicode="&#x45d;" horiz-adv-x="570" 
d="M145 0h-67v515h50v-451h5l292 451h68v-515h-50v452h-5zM316 595h-45l-113 140h68z" />
    <glyph glyph-name="uni045E" unicode="&#x45e;" horiz-adv-x="490" 
d="M197 -200h-53l80 201l-216 514h53l187 -442h5l176 442h54zM149.5 636.5q-36.5 31.5 -41.5 88.5h48q3 -37 27 -57t63 -20t62.5 20t27.5 57h47q-5 -57 -41 -88.5t-96 -31.5t-96.5 31.5z" />
    <glyph glyph-name="uni045F" unicode="&#x45f;" horiz-adv-x="555" 
d="M302 -120h-48v120h-176v515h50v-467h300v467h50v-515h-176v-120z" />
    <glyph glyph-name="uni0490" unicode="&#x490;" horiz-adv-x="503" 
d="M148 0h-55v700h340v145h50v-195h-335v-650z" />
    <glyph glyph-name="uni0491" unicode="&#x491;" horiz-adv-x="423" 
d="M128 0h-50v515h277v120h48v-167h-275v-468z" />
    <glyph glyph-name="uni0492" unicode="&#x492;" horiz-adv-x="508" 
d="M488 700v-50h-335v-279h227v-47h-227v-324h-55v324h-88v47h88v329h390z" />
    <glyph glyph-name="uni0493" unicode="&#x493;" horiz-adv-x="433" 
d="M413 515v-47h-275v-188h190v-47h-190v-233h-50v233h-83v47h83v235h325z" />
    <glyph glyph-name="uni0494" unicode="&#x494;" horiz-adv-x="610" 
d="M320 -65q94 0 147 54t53 154q0 94 -54 147t-143 53q-58 0 -104 -18t-71 -40v-285h-55v700h412v-50h-357v-310q72 53 175 53q75 0 132 -30t88.5 -86.5t31.5 -133.5q0 -120 -67 -189t-188 -69v50z" />
    <glyph glyph-name="uni0495" unicode="&#x495;" horiz-adv-x="490" 
d="M265 -140q64 0 104.5 50t40.5 135q0 89 -40.5 136t-114.5 47q-33 0 -69 -13t-58 -33v-182h-50v515h315v-47h-265v-233q21 17 58.5 28.5t73.5 11.5q91 0 145.5 -60t54.5 -170q0 -69 -24.5 -122t-68.5 -82t-102 -29v48z" />
    <glyph glyph-name="uni0496" unicode="&#x496;" horiz-adv-x="840" 
d="M68 0h-68l332 355l-317 345h68l306 -335v335h53v-335l306 335h67l-316 -345l286 -305h60v-195h-50v145h-32l-321 346v-346h-53v346z" />
    <glyph glyph-name="uni0497" unicode="&#x497;" horiz-adv-x="675" 
d="M61 0h-66l260 263l-245 252h64l235 -242v242h48v-242l234 242h64l-245 -252l215 -215h55v-168h-48v120h-27l-248 253v-253h-48v253z" />
    <glyph glyph-name="uni049A" unicode="&#x49a;" horiz-adv-x="575" 
d="M580 -145h-50v145h-32l-350 345v-345h-55v700h55v-335l335 335h67l-346 -345l312 -305h64v-195z" />
    <glyph glyph-name="uni049B" unicode="&#x49b;" horiz-adv-x="475" 
d="M128 0h-50v515h50v-242l262 242h65l-273 -252l238 -215h60v-168h-47v120h-28l-277 253v-253z" />
    <glyph glyph-name="uni049C" unicode="&#x49c;" horiz-adv-x="613" 
d="M595 700l-236 -346l251 -354h-65l-231 328h-46v-130h-50v130h-70v-328h-55v700h55v-322h70v130h50v-130h45l218 322h64z" />
    <glyph glyph-name="uni049D" unicode="&#x49d;" horiz-adv-x="498" 
d="M483 515l-169 -252l179 -263h-58l-161 238h-44v-115h-42v115h-60v-238h-50v515h50v-230h60v115h42v-115h43l152 230h58z" />
    <glyph glyph-name="uni04A2" unicode="&#x4a2;" horiz-adv-x="735" 
d="M615 700v-650h85v-195h-50v145h-90v328h-412v-328h-55v700h55v-322h412v322h55z" />
    <glyph glyph-name="uni04A3" unicode="&#x4a3;" horiz-adv-x="578" 
d="M483 515v-467h70v-168h-48v120h-72v235h-305v-235h-50v515h50v-232h305v232h50z" />
    <glyph glyph-name="uni04AA" unicode="&#x4aa;" horiz-adv-x="685" 
d="M583 185h57q-33 -89 -98 -138.5t-155 -55.5v-136h-50v136q-84 6 -147.5 49.5t-99 122.5t-35.5 187q0 114 39 195t108.5 123t160.5 42q100 0 171 -49.5t106 -145.5h-57q-64 145 -220 145q-75 0 -132 -36t-89 -106t-32 -168t32 -168t89 -106t132 -36q156 0 220 145z" />
    <glyph glyph-name="uni04AB" unicode="&#x4ab;" horiz-adv-x="538" 
d="M380 63.5q40 25.5 64 71.5h54q-26 -65 -74.5 -101.5t-114.5 -42.5v-111h-48v111q-95 8 -153 78.5t-58 188.5q0 83 30 143.5t83 92t122 31.5q74 0 129.5 -37t83.5 -108h-54q-24 46 -64 72t-95 26q-86 0 -135.5 -61t-49.5 -159q0 -99 49.5 -159.5t135.5 -60.5q55 0 95 25.5
z" />
    <glyph glyph-name="uni04AE" unicode="&#x4ae;" horiz-adv-x="570" 
d="M313 0h-55v270l-248 430h59l214 -375h5l213 375h59l-247 -430v-270z" />
    <glyph glyph-name="uni04AF" unicode="&#x4af;" horiz-adv-x="480" 
d="M265 -200h-50v200h-12l-195 515h53l177 -463h5l176 463h54l-195 -515h-13v-200z" />
    <glyph glyph-name="uni04B0" unicode="&#x4b0;" horiz-adv-x="570" 
d="M501 700h59l-224 -390h149v-47h-172v-263h-55v263h-173v47h150l-225 390h59l214 -375h5z" />
    <glyph glyph-name="uni04B1" unicode="&#x4b1;" horiz-adv-x="480" 
d="M419 515h54l-177 -467h114v-48h-145v-200h-50v200h-145v48h115l-177 467h53l177 -463h5z" />
    <glyph glyph-name="uni04B2" unicode="&#x4b2;" horiz-adv-x="583" 
d="M80 0h-62l237 360l-227 340h62l198 -297l198 297h62l-228 -340l205 -310h53v-195h-50v145h-32l-208 317z" />
    <glyph glyph-name="uni04B3" unicode="&#x4b3;" horiz-adv-x="453" 
d="M68 0h-58l183 268l-173 247h58l145 -211l145 211h57l-173 -247l151 -220h50v-168h-48v120h-27l-155 231z" />
    <glyph glyph-name="uni04B6" unicode="&#x4b6;" horiz-adv-x="688" 
d="M603 -145v145h-90v288q-82 -45 -185 -45q-116 0 -182 62.5t-66 172.5v222h55v-222q0 -88 51 -136.5t142 -48.5q53 0 96.5 11t88.5 36v360h55v-650h85v-195h-50z" />
    <glyph glyph-name="uni04B7" unicode="&#x4b7;" horiz-adv-x="543" 
d="M470 -120v120h-72v208q-66 -33 -140 -33q-93 0 -143 46t-50 129v165h50v-165q0 -63 36.5 -95t106.5 -32q84 0 140 35v257h50v-467h70v-168h-48z" />
    <glyph glyph-name="uni04B8" unicode="&#x4b8;" horiz-adv-x="660" 
d="M513 700h55v-700h-55v288q-72 -40 -164 -45v-122h-50v123q-104 8 -161.5 70t-57.5 164v222h55v-222q0 -80 42.5 -128t121.5 -56v142h50v-143q49 3 87.5 15t76.5 32v360z" />
    <glyph glyph-name="uni04B9" unicode="&#x4b9;" horiz-adv-x="525" 
d="M398 515h50v-515h-50v208q-60 -29 -119 -32v-91h-45v91q-82 6 -125.5 51t-43.5 123v165h50v-165q0 -115 119 -126v111h45v-111q68 3 119 34v257z" />
    <glyph glyph-name="uni04BA" unicode="&#x4ba;" horiz-adv-x="655" 
d="M93 0v700h55v-288q81 46 185 46q117 0 182 -62.5t65 -172.5v-223h-55v223q0 87 -50.5 136t-141.5 49q-57 0 -99 -12.5t-86 -35.5v-360h-55z" />
    <glyph glyph-name="uni04BB" unicode="&#x4bb;" horiz-adv-x="560" 
d="M83 0v700h50v-265h5q24 44 64 67t93 23q55 0 99 -25t69 -71.5t25 -110.5v-318h-50v318q0 73 -40.5 116.5t-107.5 43.5q-44 0 -80 -21.5t-56.5 -58.5t-20.5 -80v-318h-50z" />
    <glyph glyph-name="uni04C1" unicode="&#x4c1;" horiz-adv-x="830" 
d="M68 0h-68l332 355l-317 345h68l306 -335v335h53v-335l306 335h67l-316 -345l331 -355h-67l-321 346v-346h-53v346zM319.5 811.5q-36.5 31.5 -41.5 88.5h48q3 -37 27 -57t63 -20t62.5 20t27.5 57h47q-5 -57 -41 -88.5t-96 -31.5t-96.5 31.5z" />
    <glyph glyph-name="uni04C2" unicode="&#x4c2;" horiz-adv-x="665" 
d="M61 0h-66l260 263l-245 252h64l235 -242v242h48v-242l234 242h64l-245 -252l260 -263h-65l-248 253v-253h-48v253zM237.5 636.5q-36.5 31.5 -41.5 88.5h48q3 -37 27 -57t63 -20t62.5 20t27.5 57h47q-5 -57 -41 -88.5t-96 -31.5t-96.5 31.5z" />
    <glyph glyph-name="uni04D2" unicode="&#x4d2;" horiz-adv-x="615" 
d="M605 0h-55l-70 188h-344l-71 -188h-55l265 700h65zM305 640l-151 -402h307l-151 402h-5zM195 809q-11 11 -11 27q0 17 11 28t28 11q16 0 27.5 -11t11.5 -28q0 -16 -11 -27t-28 -11t-28 11zM365 809q-11 11 -11 27q0 17 11 28t28 11q16 0 27.5 -11t11.5 -28q0 -16 -11 -27
t-28 -11t-28 11z" />
    <glyph glyph-name="uni04D3" unicode="&#x4d3;" horiz-adv-x="518" 
d="M393.5 475q51.5 -50 51.5 -135v-340h-40l-7 83h-5q-19 -38 -64 -65.5t-106 -27.5q-81 0 -129.5 43t-48.5 112q0 68 48.5 110.5t134.5 42.5h167v42q0 66 -38.5 102t-106.5 36q-107 0 -137 -98h-53q17 70 67 107.5t123 37.5q92 0 143.5 -50zM347.5 84q47.5 46 47.5 121v45
h-167q-65 0 -99 -28.5t-34 -76.5q0 -50 34.5 -78.5t93.5 -28.5q77 0 124.5 46zM145 634q-11 11 -11 27q0 17 11 28t28 11q16 0 27.5 -11t11.5 -28q0 -16 -11 -27t-28 -11t-28 11zM315 634q-11 11 -11 27q0 17 11 28t28 11q16 0 27.5 -11t11.5 -28q0 -16 -11 -27t-28 -11
t-28 11z" />
    <glyph glyph-name="uni04D8" unicode="&#x4d8;" horiz-adv-x="723" 
d="M519.5 668.5q69.5 -41.5 109 -122.5t39.5 -196t-39.5 -196t-109 -122.5t-159.5 -41.5t-159 42t-107.5 122t-38.5 191v25h558q-5 138 -73.5 214t-179.5 76q-78 0 -134.5 -36.5t-86.5 -108.5h-59q37 96 108.5 145.5t171.5 49.5q90 0 159.5 -41.5zM537.5 114
q67.5 74 74.5 206h-501q3 -86 35 -149.5t87 -97t127 -33.5q110 0 177.5 74z" />
    <glyph glyph-name="uni04D9" unicode="&#x4d9;" horiz-adv-x="558" 
d="M395 493.5q53 -31.5 83 -92t30 -143.5t-29.5 -143.5t-82 -92.5t-118.5 -32q-67 0 -119.5 33t-81.5 88.5t-29 121.5q0 20 2 40h408q-4 95 -53 150t-132 55q-55 0 -95 -26t-64 -72h-54q28 71 83.5 108t129.5 37q69 0 122 -31.5zM402 88.5q47 50.5 55 136.5h-359
q4 -85 53 -136t127 -51q77 0 124 50.5z" />
    <glyph glyph-name="uni04E0" unicode="&#x4e0;" horiz-adv-x="593" 
d="M288 413q76 0 131.5 -27t84.5 -75t29 -108q0 -62 -29.5 -110t-85 -75.5t-130.5 -27.5q-65 0 -118.5 23.5t-88 68t-41.5 103.5h55q5 -36 29.5 -69.5t66.5 -54.5t97 -21q90 0 140 45t50 118t-50 117.5t-140 44.5h-128v48l282 237h-382v50h458v-50l-282 -237h52z" />
    <glyph glyph-name="uni04E1" unicode="&#x4e1;" horiz-adv-x="485" 
d="M236 235q100 0 156 -58t56 -159q0 -100 -55.5 -159t-149.5 -59q-63 0 -110.5 25t-74 69.5t-28.5 100.5h50q3 -66 46 -107t117 -41q71 0 113 46t42 125q0 81 -42 125.5t-118 44.5h-108v45l238 235h-318v47h383v-47l-236 -233h39z" />
    <glyph glyph-name="uni04E2" unicode="&#x4e2;" horiz-adv-x="728" 
d="M168 0h-75v700h55v-631h5l407 631h75v-700h-55v631h-5zM499 815h-270v45h270v-45z" />
    <glyph glyph-name="uni04E3" unicode="&#x4e3;" horiz-adv-x="570" 
d="M145 0h-67v515h50v-451h5l292 451h68v-515h-50v452h-5zM420 640h-270v45h270v-45z" />
    <glyph glyph-name="uni04E6" unicode="&#x4e6;" horiz-adv-x="725" 
d="M202.5 32q-69.5 42 -108.5 123t-39 195t39 195t108.5 123t160.5 42t160 -42t108 -123t39 -195t-39 -195t-108 -123t-160 -42t-160.5 42zM494.5 76q56.5 36 88.5 106t32 168t-32 168t-88.5 106t-131.5 36t-132 -36t-89 -106t-32 -168t32 -168t89 -106t132 -36t131.5 36z
M250 809q-11 11 -11 27q0 17 11 28t28 11q16 0 27.5 -11t11.5 -28q0 -16 -11 -27t-28 -11t-28 11zM420 809q-11 11 -11 27q0 17 11 28t28 11q16 0 27.5 -11t11.5 -28q0 -16 -11 -27t-28 -11t-28 11z" />
    <glyph glyph-name="uni04E7" unicode="&#x4e7;" horiz-adv-x="570" 
d="M163 22q-53 32 -83 92.5t-30 143.5t30 143.5t83 92t122 31.5t122.5 -31.5t83 -92t29.5 -143.5t-29.5 -143.5t-83 -92.5t-122.5 -32t-122 32zM421 98.5q49 60.5 49 159.5q0 98 -49 159t-136 61q-86 0 -135.5 -61t-49.5 -159q0 -99 49.5 -159.5t135.5 -60.5q87 0 136 60.5z
M172 634q-11 11 -11 27q0 17 11 28t28 11q16 0 27.5 -11t11.5 -28q0 -16 -11 -27t-28 -11t-28 11zM342 634q-11 11 -11 27q0 17 11 28t28 11q16 0 27.5 -11t11.5 -28q0 -16 -11 -27t-28 -11t-28 11z" />
    <glyph glyph-name="uni04E8" unicode="&#x4e8;" horiz-adv-x="725" 
d="M523 668q69 -42 108 -123t39 -195t-39 -195t-108 -123t-160 -42t-160.5 42t-108.5 123t-39 195t39 195t108.5 123t160.5 42t160 -42zM235.5 627q-55.5 -33 -88 -97.5t-36.5 -155.5h503q-4 91 -36.5 155.5t-88 97.5t-126.5 33q-72 0 -127.5 -33zM490 73.5q56 33.5 88.5 98
t36.5 155.5h-505q4 -91 37 -155.5t88.5 -98t127.5 -33.5q71 0 127 33.5z" />
    <glyph glyph-name="uni04E9" unicode="&#x4e9;" horiz-adv-x="570" 
d="M407.5 493.5q53.5 -31.5 83 -92t29.5 -143.5t-29.5 -143.5t-83 -92.5t-122.5 -32t-122 32t-83 92.5t-30 143.5t30 143.5t83 92t122 31.5t122.5 -31.5zM155.5 424q-48.5 -54 -54.5 -142h368q-6 88 -54.5 142t-129.5 54t-129.5 -54zM414.5 91.5q48.5 53.5 54.5 142.5h-368
q6 -89 54.5 -142.5t129.5 -53.5t129.5 53.5z" />
    <glyph glyph-name="uni04EE" unicode="&#x4ee;" horiz-adv-x="550" 
d="M215 0h-57l95 210l-243 490h60l209 -424h5l194 424h57zM409 815h-270v45h270v-45z" />
    <glyph glyph-name="uni04EF" unicode="&#x4ef;" horiz-adv-x="490" 
d="M197 -200h-53l80 201l-216 514h53l187 -442h5l176 442h54zM380 640h-270v45h270v-45z" />
    <glyph glyph-name="uni04F0" unicode="&#x4f0;" horiz-adv-x="550" 
d="M215 0h-57l95 210l-243 490h60l209 -424h5l194 424h57zM161 809q-11 11 -11 27q0 17 11 28t28 11q16 0 27.5 -11t11.5 -28q0 -16 -11 -27t-28 -11t-28 11zM331 809q-11 11 -11 27q0 17 11 28t28 11q16 0 27.5 -11t11.5 -28q0 -16 -11 -27t-28 -11t-28 11z" />
    <glyph glyph-name="uni04F1" unicode="&#x4f1;" horiz-adv-x="490" 
d="M197 -200h-53l80 201l-216 514h53l187 -442h5l176 442h54zM132 634q-11 11 -11 27q0 17 11 28t28 11q16 0 27.5 -11t11.5 -28q0 -16 -11 -27t-28 -11t-28 11zM302 634q-11 11 -11 27q0 17 11 28t28 11q16 0 27.5 -11t11.5 -28q0 -16 -11 -27t-28 -11t-28 11z" />
    <glyph glyph-name="Wgrave" unicode="&#x1e80;" horiz-adv-x="900" 
d="M286 0h-81l-185 700h58l165 -635h5l166 635h73l166 -635h5l164 635h58l-184 -700h-81l-162 625h-5zM481 770h-45l-113 140h68z" />
    <glyph glyph-name="wgrave" unicode="&#x1e81;" horiz-adv-x="700" 
d="M222 0h-62l-147 515h50l126 -447h5l130 447h52l130 -447h5l126 447h51l-148 -515h-61l-126 435h-5zM381 595h-45l-113 140h68z" />
    <glyph glyph-name="Wacute" unicode="&#x1e82;" horiz-adv-x="900" 
d="M286 0h-81l-185 700h58l165 -635h5l166 635h73l166 -635h5l164 635h58l-184 -700h-81l-162 625h-5zM465 770h-45l90 140h68z" />
    <glyph glyph-name="wacute" unicode="&#x1e83;" horiz-adv-x="700" 
d="M222 0h-62l-147 515h50l126 -447h5l130 447h52l130 -447h5l126 447h51l-148 -515h-61l-126 435h-5zM366 595h-45l90 140h68z" />
    <glyph glyph-name="Wdieresis" unicode="&#x1e84;" horiz-adv-x="900" 
d="M286 0h-81l-185 700h58l165 -635h5l166 635h73l166 -635h5l164 635h58l-184 -700h-81l-162 625h-5zM337 809q-11 11 -11 27q0 17 11 28t28 11q16 0 27.5 -11t11.5 -28q0 -16 -11 -27t-28 -11t-28 11zM507 809q-11 11 -11 27q0 17 11 28t28 11q16 0 27.5 -11t11.5 -28
q0 -16 -11 -27t-28 -11t-28 11z" />
    <glyph glyph-name="wdieresis" unicode="&#x1e85;" horiz-adv-x="700" 
d="M222 0h-62l-147 515h50l126 -447h5l130 447h52l130 -447h5l126 447h51l-148 -515h-61l-126 435h-5zM238 634q-11 11 -11 27q0 17 11 28t28 11q16 0 27.5 -11t11.5 -28q0 -16 -11 -27t-28 -11t-28 11zM408 634q-11 11 -11 27q0 17 11 28t28 11q16 0 27.5 -11t11.5 -28
q0 -16 -11 -27t-28 -11t-28 11z" />
    <glyph glyph-name="uni1E9E" unicode="&#x1e9e;" horiz-adv-x="670" 
d="M395 403q105 0 162.5 -55t57.5 -145q0 -58 -25 -104t-73.5 -72.5t-116.5 -26.5h-100v50h95q82 0 123.5 42t41.5 111q0 68 -43 109t-122 41h-85v60l205 237h-230q-69 0 -105.5 -40t-36.5 -112v-498h-55v498q0 95 51.5 148.5t145.5 53.5h300v-45l-214 -247v-5h24z" />
    <glyph glyph-name="uni1EBC" unicode="&#x1ebc;" horiz-adv-x="595" 
d="M148 328v-278h385v-50h-440v700h430v-50h-375v-272h355v-50h-355zM339 798.5q-17 8.5 -41 24.5q-17 13 -29 19t-23 6q-35 0 -35 -53h-48q0 45 20.5 70t57.5 25q20 0 37 -8t40 -24q17 -13 29 -19t24 -6q35 0 35 52h47q0 -45 -20 -70t-57 -25q-20 0 -37 8.5z" />
    <glyph glyph-name="uni1EBD" unicode="&#x1ebd;" horiz-adv-x="558" 
d="M508 243h-408q4 -95 53 -150t132 -55q55 0 95 25.5t64 71.5h54q-28 -71 -83.5 -108t-129.5 -37q-69 0 -122 32t-83 92.5t-30 143.5t29.5 143.5t82 92t118.5 31.5q67 0 119.5 -33t81.5 -88t29 -121q0 -22 -2 -40zM460 290q-5 86 -53.5 137t-126.5 51q-77 0 -124 -51
t-55 -137h359zM313 623.5q-17 8.5 -41 24.5q-17 13 -29 19t-23 6q-35 0 -35 -53h-48q0 45 20.5 70t57.5 25q20 0 37 -8t40 -24q17 -13 29 -19t24 -6q35 0 35 52h47q0 -45 -20 -70t-57 -25q-20 0 -37 8.5z" />
    <glyph glyph-name="Ygrave" unicode="&#x1ef2;" horiz-adv-x="570" 
d="M313 0h-55v270l-248 430h59l214 -375h5l213 375h59l-247 -430v-270zM316 770h-45l-113 140h68z" />
    <glyph glyph-name="ygrave" unicode="&#x1ef3;" horiz-adv-x="490" 
d="M197 -200h-53l80 201l-216 514h53l187 -442h5l176 442h54zM276 595h-45l-113 140h68z" />
    <glyph glyph-name="uni1EF8" unicode="&#x1ef8;" horiz-adv-x="570" 
d="M313 0h-55v270l-248 430h59l214 -375h5l213 375h59l-247 -430v-270zM317 798.5q-17 8.5 -41 24.5q-17 13 -29 19t-23 6q-35 0 -35 -53h-48q0 45 20.5 70t57.5 25q20 0 37 -8t40 -24q17 -13 29 -19t24 -6q35 0 35 52h47q0 -45 -20 -70t-57 -25q-20 0 -37 8.5z" />
    <glyph glyph-name="uni1EF9" unicode="&#x1ef9;" horiz-adv-x="490" 
d="M197 -200h-53l80 201l-216 514h53l187 -442h5l176 442h54zM276 623.5q-17 8.5 -41 24.5q-17 13 -29 19t-23 6q-35 0 -35 -53h-48q0 45 20.5 70t57.5 25q20 0 37 -8t40 -24q17 -13 29 -19t24 -6q35 0 35 52h47q0 -45 -20 -70t-57 -25q-20 0 -37 8.5z" />
    <glyph glyph-name="endash" unicode="&#x2013;" horiz-adv-x="500" 
d="M470 240h-440v48h440v-48z" />
    <glyph glyph-name="emdash" unicode="&#x2014;" horiz-adv-x="723" 
d="M693 240h-663v48h663v-48z" />
    <glyph glyph-name="quoteleft" unicode="&#x2018;" horiz-adv-x="203" 
d="M123 500h-58l63 200h37z" />
    <glyph glyph-name="quoteright" unicode="&#x2019;" horiz-adv-x="203" 
d="M103 500h-38l43 200h57z" />
    <glyph glyph-name="quotesinglbase" unicode="&#x201a;" horiz-adv-x="203" 
d="M75 -100h-37l42 200h58z" />
    <glyph glyph-name="quotedblleft" unicode="&#x201c;" horiz-adv-x="337" 
d="M258 500h-58l63 200h37zM123 500h-58l63 200h37z" />
    <glyph glyph-name="quotedblright" unicode="&#x201d;" horiz-adv-x="337" 
d="M103 500h-38l43 200h57zM238 500h-38l43 200h57z" />
    <glyph glyph-name="quotedblbase" unicode="&#x201e;" horiz-adv-x="337" 
d="M75 -100h-37l42 200h58zM210 -100h-37l42 200h58z" />
    <glyph glyph-name="dagger" unicode="&#x2020;" horiz-adv-x="455" 
d="M253 525h140v-47h-140v-478h-50v478h-140v47h140v175h50v-175z" />
    <glyph glyph-name="daggerdbl" unicode="&#x2021;" horiz-adv-x="455" 
d="M393 525v-47h-140v-255h140v-48h-140v-175h-50v175h-140v48h140v255h-140v47h140v175h50v-175h140z" />
    <glyph glyph-name="bullet" unicode="&#x2022;" horiz-adv-x="380" 
d="M140 213.5q-20 20.5 -20 49.5t20 49.5t50 20.5t50 -20.5t20 -49.5t-20 -49.5t-50 -20.5t-50 20.5z" />
    <glyph glyph-name="ellipsis" unicode="&#x2026;" horiz-adv-x="648" 
d="M74.5 7.5q-11.5 12.5 -11.5 29.5q0 16 12 28.5t29 12.5t29 -12.5t12 -28.5q0 -17 -11.5 -29.5t-29.5 -12.5t-29.5 12.5zM294.5 7.5q-11.5 12.5 -11.5 29.5q0 16 12 28.5t29 12.5t29 -12.5t12 -28.5q0 -17 -11.5 -29.5t-29.5 -12.5t-29.5 12.5zM514.5 7.5
q-11.5 12.5 -11.5 29.5q0 16 12 28.5t29 12.5t29 -12.5t12 -28.5q0 -17 -11.5 -29.5t-29.5 -12.5t-29.5 12.5z" />
    <glyph glyph-name="perthousand" unicode="&#x2030;" horiz-adv-x="1100" 
d="M88 442.5q-40 42.5 -40 112.5t40 112.5t107 42.5t107.5 -42.5t40.5 -112.5q0 -69 -40.5 -112t-107.5 -43t-107 42.5zM178 0h-55l435 700h55zM269 475.5q26 30.5 26 79.5q0 50 -26 80t-74 30q-47 0 -73.5 -30t-26.5 -80q0 -49 26.5 -79.5t73.5 -30.5q48 0 74 30.5z
M433 32.5q-40 42.5 -40 112.5t40 112.5t107 42.5t107.5 -42.5t40.5 -112.5q0 -69 -40.5 -112t-107.5 -43t-107 42.5zM798 32.5q-40 42.5 -40 112.5t40 112.5t107 42.5t107.5 -42.5t40.5 -112.5q0 -69 -40.5 -112t-107.5 -43t-107 42.5zM614 65.5q26 30.5 26 79.5
q0 50 -26 80t-74 30q-47 0 -73.5 -30t-26.5 -80q0 -49 26.5 -79.5t73.5 -30.5q48 0 74 30.5zM979 65.5q26 30.5 26 79.5q0 50 -26 80t-74 30q-47 0 -73.5 -30t-26.5 -80q0 -49 26.5 -79.5t73.5 -30.5q48 0 74 30.5z" />
    <glyph glyph-name="guilsinglleft" unicode="&#x2039;" horiz-adv-x="360" 
d="M320 33h-65l-205 230l205 230h65l-204 -228v-4z" />
    <glyph glyph-name="guilsinglright" unicode="&#x203a;" horiz-adv-x="360" 
d="M105 33h-65l205 228v4l-205 228h65l205 -230z" />
    <glyph glyph-name="fraction" unicode="&#x2044;" horiz-adv-x="135" 
d="M-123 0h-55l436 700h55z" />
    <glyph glyph-name="uni2070" unicode="&#x2070;" horiz-adv-x="380" 
d="M81.5 449q-38.5 54 -38.5 151t38.5 151t109.5 54q70 0 108.5 -54t38.5 -151t-38.5 -151t-108.5 -54q-71 0 -109.5 54zM264.5 481.5q25.5 41.5 25.5 118.5t-25.5 118.5t-73.5 41.5q-49 0 -75 -41t-26 -119t26 -119t75 -41q48 0 73.5 41.5z" />
    <glyph glyph-name="uni2074" unicode="&#x2074;" horiz-adv-x="335" 
d="M265 400h-47v98h-200v45l180 257h67v-257h55v-45h-55v-98zM213 747l-143 -204h148v204h-5z" />
    <glyph glyph-name="uni2075" unicode="&#x2075;" horiz-adv-x="333" 
d="M75.5 425.5q-37.5 30.5 -45.5 79.5h48q8 -31 30.5 -48t56.5 -17q40 0 65 25.5t25 69.5t-24.5 68.5t-65.5 24.5q-52 0 -77 -45h-48l25 217h218v-45h-180l-14 -117h5q11 14 31.5 23t44.5 9q57 0 95 -37t38 -98q0 -63 -38.5 -101.5t-99.5 -38.5q-52 0 -89.5 30.5z" />
    <glyph glyph-name="uni2076" unicode="&#x2076;" horiz-adv-x="343" 
d="M72 433.5q-39 38.5 -39 99.5q0 37 10 67t30 60l90 140h54l-103 -155h5q23 23 59 23q57 0 94.5 -38.5t37.5 -99.5q0 -59 -39.5 -97t-100.5 -38q-59 0 -98 38.5zM237.5 465.5q25.5 25.5 25.5 67.5q0 41 -25 66.5t-65 25.5q-42 0 -67.5 -25t-25.5 -67q0 -41 25 -67t65 -26
q42 0 67.5 25.5z" />
    <glyph glyph-name="uni2077" unicode="&#x2077;" horiz-adv-x="300" 
d="M121 400h-51l158 355h-198v45h250v-42z" />
    <glyph glyph-name="uni2078" unicode="&#x2078;" horiz-adv-x="350" 
d="M78 427q-38 32 -38 86q0 31 17 58t48 39q-55 32 -55 88q0 46 35 76.5t90 30.5q56 0 90.5 -30.5t34.5 -76.5q0 -56 -55 -88q32 -12 48.5 -39t16.5 -58q0 -54 -37.5 -86t-97.5 -32q-59 0 -97 32zM231 648.5q22 18.5 22 48.5q0 28 -22 45.5t-56 17.5q-33 0 -55 -17.5
t-22 -45.5q0 -30 21.5 -48.5t55.5 -18.5t56 18.5zM240 461q23 21 23 53q0 34 -23.5 54t-64.5 20t-64 -20t-23 -54q0 -32 22.5 -53t64.5 -21t65 21z" />
    <glyph glyph-name="uni2079" unicode="&#x2079;" horiz-adv-x="343" 
d="M126 400l103 155h-5q-22 -22 -59 -22q-57 0 -94.5 38t-37.5 99q0 60 39.5 97.5t100.5 37.5q59 0 98 -38t39 -99q0 -37 -10 -67.5t-30 -60.5l-90 -140h-54zM237 600q26 25 26 68q0 42 -25.5 67t-64.5 25q-41 0 -67 -25t-26 -67q0 -43 25.5 -68t64.5 -25q41 0 67 25z" />
    <glyph glyph-name="uni2080" unicode="&#x2080;" horiz-adv-x="380" 
d="M81.5 -51q-38.5 54 -38.5 151t38.5 151t109.5 54q70 0 108.5 -54t38.5 -151t-38.5 -151t-108.5 -54q-71 0 -109.5 54zM264.5 -18.5q25.5 41.5 25.5 118.5t-25.5 118.5t-73.5 41.5q-49 0 -75 -41t-26 -119t26 -119t75 -41q48 0 73.5 41.5z" />
    <glyph glyph-name="uni2081" unicode="&#x2081;" horiz-adv-x="233" 
d="M118 -100v293h-88v45h63q11 0 18 6.5t7 18.5v37h47v-400h-47z" />
    <glyph glyph-name="uni2082" unicode="&#x2082;" horiz-adv-x="338" 
d="M38 -100v45l165 155q45 41 45 85q0 36 -20.5 55.5t-57.5 19.5q-72 0 -85 -75h-47q8 55 41 87.5t91 32.5q60 0 92.5 -34.5t32.5 -85.5q0 -31 -13 -56.5t-39 -50.5l-143 -133h193v-45h-255z" />
    <glyph glyph-name="uni2083" unicode="&#x2083;" horiz-adv-x="338" 
d="M77.5 -76.5q-37.5 28.5 -47.5 76.5h48q6 -27 30 -43.5t60 -16.5q39 0 60.5 21t21.5 54q0 31 -20 50.5t-55 19.5h-45v43h50q30 0 47 17t17 45q0 32 -22 51t-60 19q-36 0 -57.5 -20t-26.5 -55h-48q6 52 40.5 86t91.5 34q61 0 95.5 -32t34.5 -78q0 -33 -16.5 -56t-42.5 -33
q28 -10 46.5 -34.5t18.5 -58.5q0 -52 -36 -85t-94 -33q-53 0 -90.5 28.5z" />
    <glyph glyph-name="uni2084" unicode="&#x2084;" horiz-adv-x="335" 
d="M265 -100h-47v98h-200v45l180 257h67v-257h55v-45h-55v-98zM213 247l-143 -204h148v204h-5z" />
    <glyph glyph-name="uni2085" unicode="&#x2085;" horiz-adv-x="333" 
d="M75.5 -74.5q-37.5 30.5 -45.5 79.5h48q8 -31 30.5 -48t56.5 -17q40 0 65 25.5t25 69.5t-24.5 68.5t-65.5 24.5q-52 0 -77 -45h-48l25 217h218v-45h-180l-14 -117h5q11 14 31.5 23t44.5 9q57 0 95 -37t38 -98q0 -63 -38.5 -101.5t-99.5 -38.5q-52 0 -89.5 30.5z" />
    <glyph glyph-name="uni2086" unicode="&#x2086;" horiz-adv-x="343" 
d="M72 -66.5q-39 38.5 -39 99.5q0 37 10 67t30 60l90 140h54l-103 -155h5q23 23 59 23q57 0 94.5 -38.5t37.5 -99.5q0 -59 -39.5 -97t-100.5 -38q-59 0 -98 38.5zM237.5 -34.5q25.5 25.5 25.5 67.5q0 41 -25 66.5t-65 25.5q-42 0 -67.5 -25t-25.5 -67q0 -41 25 -67t65 -26
q42 0 67.5 25.5z" />
    <glyph glyph-name="uni2087" unicode="&#x2087;" horiz-adv-x="300" 
d="M121 -100h-51l158 355h-198v45h250v-42z" />
    <glyph glyph-name="uni2088" unicode="&#x2088;" horiz-adv-x="350" 
d="M78 -73q-38 32 -38 86q0 31 17 58t48 39q-55 32 -55 88q0 46 35 76.5t90 30.5q56 0 90.5 -30.5t34.5 -76.5q0 -56 -55 -88q32 -12 48.5 -39t16.5 -58q0 -54 -37.5 -86t-97.5 -32q-59 0 -97 32zM231 148.5q22 18.5 22 48.5q0 28 -22 45.5t-56 17.5q-33 0 -55 -17.5
t-22 -45.5q0 -30 21.5 -48.5t55.5 -18.5t56 18.5zM240 -39q23 21 23 53q0 34 -23.5 54t-64.5 20t-64 -20t-23 -54q0 -32 22.5 -53t64.5 -21t65 21z" />
    <glyph glyph-name="uni2089" unicode="&#x2089;" horiz-adv-x="343" 
d="M126 -100l103 155h-5q-22 -22 -59 -22q-57 0 -94.5 38t-37.5 99q0 60 39.5 97.5t100.5 37.5q59 0 98 -38t39 -99q0 -37 -10 -67.5t-30 -60.5l-90 -140h-54zM237 100q26 25 26 68q0 42 -25.5 67t-64.5 25q-41 0 -67 -25t-26 -67q0 -43 25.5 -68t64.5 -25q41 0 67 25z" />
    <glyph glyph-name="uni20A9" unicode="&#x20a9;" horiz-adv-x="950" 
d="M920 475v-50h-109l-32 -135h141v-50h-153l-56 -240h-85l-148 635h-5l-148 -635h-85l-57 240h-153v50h142l-32 135h-110v50h98l-53 225h58l147 -642h5l152 642h76l153 -642h5l146 642h58l-53 -225h98z" />
    <glyph glyph-name="Euro" unicode="&#x20ac;" horiz-adv-x="733" 
d="M630 165h58q-34 -85 -102.5 -130t-167.5 -45q-120 0 -195.5 68t-99.5 185h-98v50h91q-3 27 -3 57t3 58h-91v50h98q25 117 100.5 184.5t194.5 67.5q96 0 165.5 -43.5t104.5 -131.5h-58q-60 125 -212 125q-93 0 -155 -53t-84 -149h311v-50h-319q-3 -28 -3 -58t3 -57h319
v-50h-311q22 -97 83.5 -150t155.5 -53q150 0 212 125z" />
    <glyph glyph-name="uni20B4" unicode="&#x20b4;" horiz-adv-x="648" 
d="M585 448v-50h-522v50h390q37 42 37 92q0 52 -47 86t-123 34q-68 0 -114.5 -29.5t-62.5 -80.5h-55q16 73 79.5 116.5t152.5 43.5q66 0 117 -22t79.5 -59t28.5 -81q0 -54 -33 -100h73zM63 253v50h522v-50h-389q-38 -41 -38 -93t47 -86t123 -34q68 0 114.5 30t62.5 80h55
q-17 -73 -80 -116.5t-152 -43.5q-66 0 -117 22.5t-79.5 59.5t-28.5 81q0 56 33 100h-73z" />
    <glyph glyph-name="uni20B8" unicode="&#x20b8;" horiz-adv-x="605" 
d="M568 650h-530v50h530v-50zM330 0h-55v505h-237v50h530v-50h-238v-505z" />
    <glyph glyph-name="uni20B9" unicode="&#x20b9;" horiz-adv-x="590" 
d="M555 700v-47h-146q34 -19 55 -54t25 -83h66v-47h-66q-7 -89 -64.5 -136.5t-155.5 -47.5h-3l214 -285h-65l-214 285h-153v48h220q74 0 116.5 34.5t49.5 101.5h-386v47h386q-6 67 -48.5 102t-117.5 35h-220v47h507z" />
    <glyph glyph-name="uni20BA" unicode="&#x20ba;" horiz-adv-x="570" 
d="M538 240q-2 -85 -35.5 -137t-111 -77.5t-211.5 -25.5h-55v289l-87 -32v50l87 32v107l-87 -32v50l87 32v204h55v-183l165 61v-50l-165 -61v-107l165 61v-50l-165 -61v-260h10q109 0 173.5 20t93.5 61t31 109h50z" />
    <glyph glyph-name="uni20BD" unicode="&#x20bd;" horiz-adv-x="633" 
d="M173 300v-95h220v-50h-220v-155h-55v155h-88v50h88v95h-88v50h88v350h247q102 0 158.5 -53t56.5 -147q0 -93 -56 -146.5t-159 -53.5h-192zM173 650v-300h187q80 0 122.5 39t42.5 111t-42 111t-123 39h-187z" />
    <glyph glyph-name="uni20BF" unicode="&#x20bf;" horiz-adv-x="645" 
d="M542 61.5q-43 -49.5 -119 -59.5v-112h-50v110h-125v-110h-50v110h-105v700h105v110h50v-110h125v110h50v-114q71 -11 111.5 -59.5t40.5 -123.5q0 -55 -27 -97t-75 -61q52 -17 82 -61.5t30 -103.5q0 -79 -43 -128.5zM148 650v-275h225q67 0 107 37.5t40 100.5
q0 62 -39.5 99.5t-107.5 37.5h-225zM383 50q68 0 107.5 37.5t39.5 102.5q0 61 -38.5 99.5t-108.5 38.5h-235v-278h235z" />
    <glyph glyph-name="uni2113" unicode="&#x2113;" horiz-adv-x="390" 
d="M158 123q0 -85 80 -85q33 0 60 10v-48q-27 -10 -65 -10q-62 0 -93.5 34.5t-31.5 98.5v115q-38 -13 -90 -20v47q47 7 90 23v290q0 64 31 98t86 34q56 0 88 -38.5t32 -109.5q0 -105 -49.5 -183.5t-137.5 -121.5v-134zM158 312q66 39 101.5 101.5t35.5 144.5
q0 52 -18.5 78.5t-51.5 26.5q-31 0 -49 -22t-18 -66v-263z" />
    <glyph glyph-name="uni2116" unicode="&#x2116;" horiz-adv-x="1080" 
d="M148 0h-55v700h75l407 -626h5v626h55v-700h-75l-407 627h-5v-627zM767.5 174q-42.5 44 -42.5 119q0 74 42.5 118t107.5 44t107.5 -44t42.5 -118q0 -75 -42.5 -119t-107.5 -44t-107.5 44zM949.5 207q28.5 32 28.5 86t-28.5 85.5t-74.5 31.5t-74 -31.5t-28 -85.5t28 -86
t74 -32t74.5 32zM1015 0h-280v45h280v-45z" />
    <glyph glyph-name="uni2117" unicode="&#x2117;" horiz-adv-x="850" 
d="M239 36q-82 46 -128 128t-46 186t46 186t128 128t186 46t186 -46t128 -128t46 -186t-46 -186t-128 -128t-186 -46t-186 46zM583.5 74q71.5 39 113 111t41.5 165q0 94 -41.5 165.5t-112.5 110.5t-159 39t-159 -39t-112 -110.5t-41 -165.5q0 -93 41 -165t112.5 -111
t158.5 -39t158.5 39zM310 165v375h143q61 0 94 -32t33 -88q0 -55 -33.5 -87.5t-93.5 -32.5h-98v-135h-45zM448 340q43 0 65 20.5t22 59.5q0 80 -87 80h-93v-160h93z" />
    <glyph glyph-name="trademark" unicode="&#x2122;" horiz-adv-x="708" 
d="M168 390h-45v268h-103v42h250v-42h-102v-268zM358 390h-45v310h71l86 -258h5l86 258h72v-310h-45v251h-5l-85 -251h-51l-84 251h-5v-251z" />
    <glyph glyph-name="uni2126" unicode="&#x2126;" horiz-adv-x="805" 
d="M93 0v50h155q-72 38 -128.5 117t-56.5 200q0 102 42 179.5t119 120.5t179 43t179 -43t119 -120.5t42 -179.5q0 -121 -56.5 -200t-129.5 -117h156v-50h-245v50q52 20 102 61t84 105t34 147q0 88 -34.5 155.5t-98.5 104.5t-152 37t-152.5 -37t-98.5 -104.5t-34 -155.5
q0 -83 34 -147t84 -105t102 -61v-50h-245z" />
    <glyph glyph-name="estimated" unicode="&#x212e;" horiz-adv-x="850" 
d="M243 38q-87 48 -136 130.5t-49 181.5t48.5 181.5t133.5 130.5t188 48t188 -48t133.5 -131.5t48.5 -185.5h-576q-14 0 -14 -15v-202q0 -28 33 -54.5t86 -42.5t111 -16q56 0 108.5 19.5t93 51t61.5 64.5h57q-59 -77 -142 -118.5t-178 -41.5q-108 0 -195 48zM634 370
q14 0 14 15v190q0 29 -32 54t-83 40.5t-105 15.5q-55 0 -106 -15t-82.5 -40.5t-31.5 -54.5v-190q0 -15 14 -15h412z" />
    <glyph glyph-name="uni2150" unicode="&#x2150;" horiz-adv-x="668" 
d="M118 300v293h-88v45h63q11 0 18 6.5t7 18.5v37h47v-400h-47zM110 0h-55l436 700h55zM489 0h-51l158 355h-198v45h250v-42z" />
    <glyph glyph-name="uni2151" unicode="&#x2151;" horiz-adv-x="711" 
d="M118 300v293h-88v45h63q11 0 18 6.5t7 18.5v37h47v-400h-47zM110 0h-55l436 700h55zM494 0l103 155h-5q-22 -22 -59 -22q-57 0 -94.5 38t-37.5 99q0 60 39.5 97.5t100.5 37.5q59 0 98 -38t39 -99q0 -37 -10 -67.5t-30 -60.5l-90 -140h-54zM605 200q26 25 26 68
q0 42 -25.5 67t-64.5 25q-41 0 -67 -25t-26 -67q0 -43 25.5 -68t64.5 -25q41 0 67 25z" />
    <glyph glyph-name="uni2152" unicode="&#x2152;" horiz-adv-x="936" 
d="M118 300v293h-88v45h63q11 0 18 6.5t7 18.5v37h47v-400h-47zM110 0h-55l436 700h55zM486 0v293h-88v45h63q11 0 18 6.5t7 18.5v37h47v-400h-47zM637.5 49q-38.5 54 -38.5 151t38.5 151t109.5 54q70 0 108.5 -54t38.5 -151t-38.5 -151t-108.5 -54q-71 0 -109.5 54z
M820.5 81.5q25.5 41.5 25.5 118.5t-25.5 118.5t-73.5 41.5q-49 0 -75 -41t-26 -119t26 -119t75 -41q48 0 73.5 41.5z" />
    <glyph glyph-name="uni2153" unicode="&#x2153;" horiz-adv-x="706" 
d="M118 300v293h-88v45h63q11 0 18 6.5t7 18.5v37h47v-400h-47zM110 0h-55l436 700h55zM445.5 23.5q-37.5 28.5 -47.5 76.5h48q6 -27 30 -43.5t60 -16.5q39 0 60.5 21t21.5 54q0 31 -20 50.5t-55 19.5h-45v43h50q30 0 47 17t17 45q0 32 -22 51t-60 19q-36 0 -57.5 -20
t-26.5 -55h-48q6 52 40.5 86t91.5 34q61 0 95.5 -32t34.5 -78q0 -33 -16.5 -56t-42.5 -33q28 -10 46.5 -34.5t18.5 -58.5q0 -52 -36 -85t-94 -33q-53 0 -90.5 28.5z" />
    <glyph glyph-name="uni2154" unicode="&#x2154;" horiz-adv-x="811" 
d="M38 300v45l165 155q45 41 45 85q0 36 -20.5 55.5t-57.5 19.5q-72 0 -85 -75h-47q8 55 41 87.5t91 32.5q60 0 92.5 -34.5t32.5 -85.5q0 -31 -13 -56.5t-39 -50.5l-143 -133h193v-45h-255zM215 0h-55l436 700h55zM550.5 23.5q-37.5 28.5 -47.5 76.5h48q6 -27 30 -43.5
t60 -16.5q39 0 60.5 21t21.5 54q0 31 -20 50.5t-55 19.5h-45v43h50q30 0 47 17t17 45q0 32 -22 51t-60 19q-36 0 -57.5 -20t-26.5 -55h-48q6 52 40.5 86t91.5 34q61 0 95.5 -32t34.5 -78q0 -33 -16.5 -56t-42.5 -33q28 -10 46.5 -34.5t18.5 -58.5q0 -52 -36 -85t-94 -33
q-53 0 -90.5 28.5z" />
    <glyph glyph-name="uni2155" unicode="&#x2155;" horiz-adv-x="701" 
d="M118 300v293h-88v45h63q11 0 18 6.5t7 18.5v37h47v-400h-47zM110 0h-55l436 700h55zM443.5 25.5q-37.5 30.5 -45.5 79.5h48q8 -31 30.5 -48t56.5 -17q40 0 65 25.5t25 69.5t-24.5 68.5t-65.5 24.5q-52 0 -77 -45h-48l25 217h218v-45h-180l-14 -117h5q11 14 31.5 23
t44.5 9q57 0 95 -37t38 -98q0 -63 -38.5 -101.5t-99.5 -38.5q-52 0 -89.5 30.5z" />
    <glyph glyph-name="uni2156" unicode="&#x2156;" horiz-adv-x="806" 
d="M38 300v45l165 155q45 41 45 85q0 36 -20.5 55.5t-57.5 19.5q-72 0 -85 -75h-47q8 55 41 87.5t91 32.5q60 0 92.5 -34.5t32.5 -85.5q0 -31 -13 -56.5t-39 -50.5l-143 -133h193v-45h-255zM215 0h-55l436 700h55zM548.5 25.5q-37.5 30.5 -45.5 79.5h48q8 -31 30.5 -48
t56.5 -17q40 0 65 25.5t25 69.5t-24.5 68.5t-65.5 24.5q-52 0 -77 -45h-48l25 217h218v-45h-180l-14 -117h5q11 14 31.5 23t44.5 9q57 0 95 -37t38 -98q0 -63 -38.5 -101.5t-99.5 -38.5q-52 0 -89.5 30.5z" />
    <glyph glyph-name="uni2157" unicode="&#x2157;" horiz-adv-x="806" 
d="M77.5 323.5q-37.5 28.5 -47.5 76.5h48q6 -27 30 -43.5t60 -16.5q39 0 60.5 21t21.5 54q0 31 -20 50.5t-55 19.5h-45v43h50q30 0 47 17t17 45q0 32 -22 51t-60 19q-36 0 -57.5 -20t-26.5 -55h-48q6 52 40.5 86t91.5 34q61 0 95.5 -32t34.5 -78q0 -33 -16.5 -56t-42.5 -33
q28 -10 46.5 -34.5t18.5 -58.5q0 -52 -36 -85t-94 -33q-53 0 -90.5 28.5zM215 0h-55l436 700h55zM548.5 25.5q-37.5 30.5 -45.5 79.5h48q8 -31 30.5 -48t56.5 -17q40 0 65 25.5t25 69.5t-24.5 68.5t-65.5 24.5q-52 0 -77 -45h-48l25 217h218v-45h-180l-14 -117h5
q11 14 31.5 23t44.5 9q57 0 95 -37t38 -98q0 -63 -38.5 -101.5t-99.5 -38.5q-52 0 -89.5 30.5z" />
    <glyph glyph-name="uni2158" unicode="&#x2158;" horiz-adv-x="833" 
d="M265 300h-47v98h-200v45l180 257h67v-257h55v-45h-55v-98zM213 647l-143 -204h148v204h-5zM242 0h-55l436 700h55zM575.5 25.5q-37.5 30.5 -45.5 79.5h48q8 -31 30.5 -48t56.5 -17q40 0 65 25.5t25 69.5t-24.5 68.5t-65.5 24.5q-52 0 -77 -45h-48l25 217h218v-45h-180
l-14 -117h5q11 14 31.5 23t44.5 9q57 0 95 -37t38 -98q0 -63 -38.5 -101.5t-99.5 -38.5q-52 0 -89.5 30.5z" />
    <glyph glyph-name="uni2159" unicode="&#x2159;" horiz-adv-x="711" 
d="M118 300v293h-88v45h63q11 0 18 6.5t7 18.5v37h47v-400h-47zM110 0h-55l436 700h55zM440 33.5q-39 38.5 -39 99.5q0 37 10 67t30 60l90 140h54l-103 -155h5q23 23 59 23q57 0 94.5 -38.5t37.5 -99.5q0 -59 -39.5 -97t-100.5 -38q-59 0 -98 38.5zM605.5 65.5
q25.5 25.5 25.5 67.5q0 41 -25 66.5t-65 25.5q-42 0 -67.5 -25t-25.5 -67q0 -41 25 -67t65 -26q42 0 67.5 25.5z" />
    <glyph glyph-name="uni215A" unicode="&#x215a;" horiz-adv-x="811" 
d="M75.5 325.5q-37.5 30.5 -45.5 79.5h48q8 -31 30.5 -48t56.5 -17q40 0 65 25.5t25 69.5t-24.5 68.5t-65.5 24.5q-52 0 -77 -45h-48l25 217h218v-45h-180l-14 -117h5q11 14 31.5 23t44.5 9q57 0 95 -37t38 -98q0 -63 -38.5 -101.5t-99.5 -38.5q-52 0 -89.5 30.5zM210 0h-55
l436 700h55zM540 33.5q-39 38.5 -39 99.5q0 37 10 67t30 60l90 140h54l-103 -155h5q23 23 59 23q57 0 94.5 -38.5t37.5 -99.5q0 -59 -39.5 -97t-100.5 -38q-59 0 -98 38.5zM705.5 65.5q25.5 25.5 25.5 67.5q0 41 -25 66.5t-65 25.5q-42 0 -67.5 -25t-25.5 -67q0 -41 25 -67
t65 -26q42 0 67.5 25.5z" />
    <glyph glyph-name="oneeighth" unicode="&#x215b;" horiz-adv-x="718" 
d="M118 300v293h-88v45h63q11 0 18 6.5t7 18.5v37h47v-400h-47zM110 0h-55l436 700h55zM446 27q-38 32 -38 86q0 31 17 58t48 39q-55 32 -55 88q0 46 35 76.5t90 30.5q56 0 90.5 -30.5t34.5 -76.5q0 -56 -55 -88q32 -12 48.5 -39t16.5 -58q0 -54 -37.5 -86t-97.5 -32
q-59 0 -97 32zM599 248.5q22 18.5 22 48.5q0 28 -22 45.5t-56 17.5q-33 0 -55 -17.5t-22 -45.5q0 -30 21.5 -48.5t55.5 -18.5t56 18.5zM608 61q23 21 23 53q0 34 -23.5 54t-64.5 20t-64 -20t-23 -54q0 -32 22.5 -53t64.5 -21t65 21z" />
    <glyph glyph-name="threeeighths" unicode="&#x215c;" horiz-adv-x="823" 
d="M77.5 323.5q-37.5 28.5 -47.5 76.5h48q6 -27 30 -43.5t60 -16.5q39 0 60.5 21t21.5 54q0 31 -20 50.5t-55 19.5h-45v43h50q30 0 47 17t17 45q0 32 -22 51t-60 19q-36 0 -57.5 -20t-26.5 -55h-48q6 52 40.5 86t91.5 34q61 0 95.5 -32t34.5 -78q0 -33 -16.5 -56t-42.5 -33
q28 -10 46.5 -34.5t18.5 -58.5q0 -52 -36 -85t-94 -33q-53 0 -90.5 28.5zM215 0h-55l436 700h55zM551 27q-38 32 -38 86q0 31 17 58t48 39q-55 32 -55 88q0 46 35 76.5t90 30.5q56 0 90.5 -30.5t34.5 -76.5q0 -56 -55 -88q32 -12 48.5 -39t16.5 -58q0 -54 -37.5 -86
t-97.5 -32q-59 0 -97 32zM704 248.5q22 18.5 22 48.5q0 28 -22 45.5t-56 17.5q-33 0 -55 -17.5t-22 -45.5q0 -30 21.5 -48.5t55.5 -18.5t56 18.5zM713 61q23 21 23 53q0 34 -23.5 54t-64.5 20t-64 -20t-23 -54q0 -32 22.5 -53t64.5 -21t65 21z" />
    <glyph glyph-name="fiveeighths" unicode="&#x215d;" horiz-adv-x="818" 
d="M75.5 325.5q-37.5 30.5 -45.5 79.5h48q8 -31 30.5 -48t56.5 -17q40 0 65 25.5t25 69.5t-24.5 68.5t-65.5 24.5q-52 0 -77 -45h-48l25 217h218v-45h-180l-14 -117h5q11 14 31.5 23t44.5 9q57 0 95 -37t38 -98q0 -63 -38.5 -101.5t-99.5 -38.5q-52 0 -89.5 30.5zM210 0h-55
l436 700h55zM546 27q-38 32 -38 86q0 31 17 58t48 39q-55 32 -55 88q0 46 35 76.5t90 30.5q56 0 90.5 -30.5t34.5 -76.5q0 -56 -55 -88q32 -12 48.5 -39t16.5 -58q0 -54 -37.5 -86t-97.5 -32q-59 0 -97 32zM699 248.5q22 18.5 22 48.5q0 28 -22 45.5t-56 17.5
q-33 0 -55 -17.5t-22 -45.5q0 -30 21.5 -48.5t55.5 -18.5t56 18.5zM708 61q23 21 23 53q0 34 -23.5 54t-64.5 20t-64 -20t-23 -54q0 -32 22.5 -53t64.5 -21t65 21z" />
    <glyph glyph-name="seveneighths" unicode="&#x215e;" horiz-adv-x="755" 
d="M121 300h-51l158 355h-198v45h250v-42zM147 0h-55l436 700h55zM483 27q-38 32 -38 86q0 31 17 58t48 39q-55 32 -55 88q0 46 35 76.5t90 30.5q56 0 90.5 -30.5t34.5 -76.5q0 -56 -55 -88q32 -12 48.5 -39t16.5 -58q0 -54 -37.5 -86t-97.5 -32q-59 0 -97 32zM636 248.5
q22 18.5 22 48.5q0 28 -22 45.5t-56 17.5q-33 0 -55 -17.5t-22 -45.5q0 -30 21.5 -48.5t55.5 -18.5t56 18.5zM645 61q23 21 23 53q0 34 -23.5 54t-64.5 20t-64 -20t-23 -54q0 -32 22.5 -53t64.5 -21t65 21z" />
    <glyph glyph-name="uni215F" unicode="&#x215f;" horiz-adv-x="368" 
d="M118 300v293h-88v45h63q11 0 18 6.5t7 18.5v37h47v-400h-47zM110 0h-55l436 700h55z" />
    <glyph glyph-name="arrowleft" unicode="&#x2190;" 
d="M239 373h611v-50h-612l160 -160l-33 -33l-215 215v5l215 215l33 -33z" />
    <glyph glyph-name="arrowup" unicode="&#x2191;" 
d="M503 700l215 -215l-33 -33l-159 159v-611h-50v612l-160 -160l-33 33l215 215h5z" />
    <glyph glyph-name="arrowright" unicode="&#x2192;" 
d="M602 532l33 33l215 -215v-5l-215 -215l-33 33l160 160h-612v50h611z" />
    <glyph glyph-name="arrowdown" unicode="&#x2193;" 
d="M526 89l159 159l33 -33l-215 -215h-5l-215 215l33 33l160 -160v612h50v-611z" />
    <glyph glyph-name="arrowboth" unicode="&#x2194;" 
d="M612 532l33 33l215 -215v-5l-215 -215l-33 33l160 160h-544l160 -160l-33 -33l-215 215v5l215 215l33 -33l-159 -159h542z" />
    <glyph glyph-name="arrowupdn" unicode="&#x2195;" 
d="M526 617v-533l159 159l33 -33l-215 -215h-5l-215 215l33 33l160 -159v533l-160 -160l-33 33l215 215h5l215 -215l-33 -33z" />
    <glyph glyph-name="uni2196" unicode="&#x2196;" 
d="M283 603l517 -517l-35 -36l-517 517v-227h-48v305l5 5h305v-47h-227z" />
    <glyph glyph-name="uni2197" unicode="&#x2197;" 
d="M490 650h305l5 -5v-305h-47v228l-517 -518l-36 36l517 517h-227v47z" />
    <glyph glyph-name="uni2198" unicode="&#x2198;" 
d="M753 133v227h47v-305l-5 -5h-305v48h227l-517 517l36 35z" />
    <glyph glyph-name="uni2199" unicode="&#x2199;" 
d="M765 650l35 -35l-517 -517h227v-48h-305l-5 5v305h48v-226z" />
    <glyph glyph-name="uni21C5" unicode="&#x21c5;" 
d="M550 485l-33 -33l-159 159v-611h-50v612l-160 -160l-33 33l215 215h5zM693 89l159 159l33 -33l-215 -215h-5l-215 215l33 33l160 -160v612h50v-611z" />
    <glyph glyph-name="uni21F5" unicode="&#x21f5;" 
d="M358 700v-611l159 159l33 -33l-215 -215h-5l-215 215l33 33l160 -160v612h50zM670 700l215 -215l-33 -33l-159 159v-611h-50v612l-160 -160l-33 33l215 215h5z" />
    <glyph glyph-name="partialdiff" unicode="&#x2202;" horiz-adv-x="570" 
d="M164.5 17q-49.5 27 -79.5 79t-30 124q0 69 27 121t75 80.5t108 28.5q59 0 103 -23t80 -63h5q0 141 -49.5 218.5t-135.5 77.5q-47 0 -78 -21t-44 -54h-56q19 57 63 91t115 34q111 0 174 -92t63 -268q0 -178 -59.5 -269t-172.5 -91q-59 0 -108.5 27zM400 106q47 66 49 184
q-22 44 -68.5 77t-109.5 33q-75 0 -118 -48.5t-43 -131.5t44.5 -131.5t118.5 -48.5q80 0 127 66z" />
    <glyph glyph-name="emptyset" unicode="&#x2205;" horiz-adv-x="825" 
d="M665 613q47 -48 72.5 -115t25.5 -148q0 -108 -44.5 -189.5t-124 -126t-181.5 -44.5q-126 0 -216 66l-52 -61h-62l78 92q-47 48 -72.5 115t-25.5 148q0 108 44 190t123.5 126t182.5 44q127 0 216 -66l51 61h63zM138 226q20 -56 58 -97l399 474q-75 57 -182 57
q-87 0 -154 -38.5t-104 -108.5t-37 -163q0 -68 20 -124zM567 78.5q67 38.5 104 109t37 162.5q0 68 -20 124t-58 97l-399 -474q75 -57 182 -57q87 0 154 38.5z" />
    <glyph glyph-name="uni2206" unicode="&#x2206;" horiz-adv-x="640" 
d="M605 0h-570l253 700h65zM320 643l-212 -593h425z" />
    <glyph glyph-name="product" unicode="&#x220f;" horiz-adv-x="710" 
d="M163 -110h-55v810h495v-810h-55v760h-385v-760z" />
    <glyph glyph-name="summation" unicode="&#x2211;" horiz-adv-x="570" 
d="M520 -110h-460v50l252 374l-252 336v50h460v-50h-397l250 -335l-253 -375h400v-50z" />
    <glyph glyph-name="minus" unicode="&#x2212;" horiz-adv-x="585" 
d="M522 300h-458v48h458v-48z" />
    <glyph glyph-name="radical" unicode="&#x221a;" horiz-adv-x="600" 
d="M314 -110h-78l-90 273h-128v50h167l85 -261h10l240 773h53z" />
    <glyph glyph-name="infinity" unicode="&#x221e;" horiz-adv-x="775" 
d="M674 462q39 -41 39 -109t-39 -109t-106 -41q-47 0 -87.5 26t-92.5 89q-52 -63 -93 -89t-87 -26q-67 0 -106 41t-39 109t39 109t106 41q46 0 87 -26t93 -89q52 63 92.5 89t87.5 26q67 0 106 -41zM282.5 271.5q37.5 26.5 79.5 81.5q-42 55 -79.5 81t-74.5 26
q-46 0 -73 -29.5t-27 -77.5q0 -49 27 -78.5t73 -29.5q37 0 74.5 26.5zM641 274.5q27 29.5 27 78.5q0 48 -27 77.5t-73 29.5q-37 0 -74.5 -26t-79.5 -81q42 -55 79.5 -81.5t74.5 -26.5q46 0 73 29.5z" />
    <glyph glyph-name="integral" unicode="&#x222b;" horiz-adv-x="370" 
d="M38 -110v47h30q52 0 73.5 27t21.5 96v580q0 92 34.5 131t112.5 39h23v-47h-25q-52 0 -73.5 -27t-21.5 -96v-580q0 -92 -35 -131t-113 -39h-27z" />
    <glyph glyph-name="approxequal" unicode="&#x2248;" horiz-adv-x="585" 
d="M76 355q2 57 33 90t87 33q29 0 53 -10.5t56 -31.5q27 -18 45.5 -27t40.5 -9q34 0 52 20t20 58h48q-2 -57 -33.5 -90t-86.5 -33q-29 0 -53 10.5t-56 31.5q-27 18 -45.5 27t-40.5 9q-34 0 -52.5 -20t-20.5 -58h-47zM76 175q2 57 33 90t87 33q29 0 53 -10.5t56 -31.5
q27 -18 45.5 -27t40.5 -9q34 0 52 20t20 58h48q-2 -57 -33.5 -90t-86.5 -33q-29 0 -53 10.5t-56 31.5q-27 18 -45.5 27t-40.5 9q-34 0 -52.5 -20t-20.5 -58h-47z" />
    <glyph glyph-name="notequal" unicode="&#x2260;" horiz-adv-x="585" 
d="M522 443v-48h-175l-63 -140h238v-47h-259l-51 -115h-46l51 115h-153v47h174l62 140h-236v48h258l51 115h47l-51 -115h153z" />
    <glyph glyph-name="lessequal" unicode="&#x2264;" horiz-adv-x="585" 
d="M498 189v-51l-420 181v57l420 182v-51l-373 -159zM498 40h-420v45h420v-45z" />
    <glyph glyph-name="greaterequal" unicode="&#x2265;" horiz-adv-x="585" 
d="M508 319l-420 -181v51l372 159l-372 159v51l420 -182v-57zM508 40h-420v45h420v-45z" />
    <glyph glyph-name="uni2318" unicode="&#x2318;" horiz-adv-x="830" 
d="M95.5 28.5q-37.5 38.5 -37.5 101.5t38.5 101.5t103.5 38.5h83v160h-83q-65 0 -103.5 38.5t-38.5 101.5t37.5 101.5t99.5 38.5t100 -39t38 -101v-92h165v92q0 63 37.5 101.5t99.5 38.5t100 -39t38 -101q0 -63 -39 -101.5t-104 -38.5h-82v-160h82q65 0 104 -38.5t39 -101.5
q0 -62 -38 -101t-100 -39t-99.5 38.5t-37.5 101.5v93h-165v-93q0 -62 -38 -101t-100 -39t-99.5 38.5zM283 478v90q0 45 -24 70t-64 25q-39 0 -63 -25t-24 -68t24.5 -67.5t67.5 -24.5h83zM630 478q43 0 68 24.5t25 67.5t-24 68t-64 25t-63.5 -25.5t-23.5 -69.5v-90h82z
M333 430v-160h165v160h-165zM259 63q24 25 24 70v90h-83q-43 0 -67.5 -25t-24.5 -68q0 -42 24 -67t63 -25q40 0 64 25zM699 63q24 25 24 67q0 44 -24.5 68.5t-68.5 24.5h-82v-90q0 -44 23.5 -69.5t63.5 -25.5t64 25z" />
    <glyph glyph-name="uni2460" unicode="&#x2460;" 
d="M288 -14q-96 56 -152 152t-56 212t56 212t152 152t212 56t212 -56t152 -152t56 -212t-56 -212t-152 -152t-212 -56t-212 56zM691.5 22q86.5 50 136.5 136.5t50 191.5t-50 191.5t-136.5 136.5t-191.5 50t-191.5 -50t-136 -136.5t-49.5 -191.5t50 -191.5t136 -136.5
t191 -50t191.5 50zM485 150v293h-87v45h62q11 0 18 6.5t7 18.5v37h48v-400h-48z" />
    <glyph glyph-name="uni2461" unicode="&#x2461;" 
d="M288 -14q-96 56 -152 152t-56 212t56 212t152 152t212 56t212 -56t152 -152t56 -212t-56 -212t-152 -152t-212 -56t-212 56zM691.5 22q86.5 50 136.5 136.5t50 191.5t-50 191.5t-136.5 136.5t-191.5 50t-191.5 -50t-136 -136.5t-49.5 -191.5t50 -191.5t136 -136.5
t191 -50t191.5 50zM373 150v45l165 155q45 41 45 85q0 36 -20.5 55.5t-57.5 19.5q-72 0 -85 -75h-47q8 55 41 87.5t91 32.5q60 0 92.5 -34.5t32.5 -85.5q0 -31 -13 -56.5t-39 -50.5l-143 -133h193v-45h-255z" />
    <glyph glyph-name="uni2462" unicode="&#x2462;" 
d="M288 -14q-96 56 -152 152t-56 212t56 212t152 152t212 56t212 -56t152 -152t56 -212t-56 -212t-152 -152t-212 -56t-212 56zM691.5 22q86.5 50 136.5 136.5t50 191.5t-50 191.5t-136.5 136.5t-191.5 50t-191.5 -50t-136 -136.5t-49.5 -191.5t50 -191.5t136 -136.5
t191 -50t191.5 50zM418.5 173.5q-37.5 28.5 -47.5 76.5h48q6 -25 29 -42.5t61 -17.5q40 0 61 21.5t21 53.5q0 31 -20 50.5t-55 19.5h-47v43h52q30 0 47 17t17 45q0 32 -22 51t-60 19q-36 0 -57.5 -20t-26.5 -55h-48q6 52 40.5 86t91.5 34q61 0 95.5 -32t34.5 -78
q0 -33 -16.5 -56t-42.5 -33q28 -10 46.5 -34.5t18.5 -58.5q0 -50 -35 -84t-95 -34q-53 0 -90.5 28.5z" />
    <glyph glyph-name="uni2463" unicode="&#x2463;" 
d="M288 -14q-96 56 -152 152t-56 212t56 212t152 152t212 56t212 -56t152 -152t56 -212t-56 -212t-152 -152t-212 -56t-212 56zM691.5 22q86.5 50 136.5 136.5t50 191.5t-50 191.5t-136.5 136.5t-191.5 50t-191.5 -50t-136 -136.5t-49.5 -191.5t50 -191.5t136 -136.5
t191 -50t191.5 50zM580 150h-47v98h-200v45l180 257h67v-257h55v-45h-55v-98zM528 497l-143 -204h148v204h-5z" />
    <glyph glyph-name="uni2464" unicode="&#x2464;" 
d="M288 -14q-96 56 -152 152t-56 212t56 212t152 152t212 56t212 -56t152 -152t56 -212t-56 -212t-152 -152t-212 -56t-212 56zM691.5 22q86.5 50 136.5 136.5t50 191.5t-50 191.5t-136.5 136.5t-191.5 50t-191.5 -50t-136 -136.5t-49.5 -191.5t50 -191.5t136 -136.5
t191 -50t191.5 50zM412.5 175.5q-37.5 30.5 -45.5 79.5h47q20 -65 88 -65q40 0 65 25.5t25 69.5q0 43 -25 68t-65 25q-53 0 -78 -45h-47l25 217h217v-45h-180l-14 -117h5q12 15 32.5 23.5t44.5 8.5q57 0 94.5 -37t37.5 -98q0 -63 -38 -101.5t-99 -38.5q-52 0 -89.5 30.5z
" />
    <glyph glyph-name="uni2465" unicode="&#x2465;" 
d="M288 -14q-96 56 -152 152t-56 212t56 212t152 152t212 56t212 -56t152 -152t56 -212t-56 -212t-152 -152t-212 -56t-212 56zM691.5 22q86.5 50 136.5 136.5t50 191.5t-50 191.5t-136.5 136.5t-191.5 50t-191.5 -50t-136 -136.5t-49.5 -191.5t50 -191.5t136 -136.5
t191 -50t191.5 50zM401 183.5q-39 38.5 -39 99.5q0 37 10 67t30 60l90 140h54l-103 -155h5q23 23 59 23q57 0 94.5 -38.5t37.5 -99.5q0 -59 -39.5 -97t-100.5 -38q-59 0 -98 38.5zM566.5 215.5q25.5 25.5 25.5 67.5q0 41 -25 66.5t-65 25.5q-42 0 -67.5 -25t-25.5 -67
q0 -41 25 -67t65 -26q42 0 67.5 25.5z" />
    <glyph glyph-name="uni2466" unicode="&#x2466;" 
d="M288 -14q-96 56 -152 152t-56 212t56 212t152 152t212 56t212 -56t152 -152t56 -212t-56 -212t-152 -152t-212 -56t-212 56zM691.5 22q86.5 50 136.5 136.5t50 191.5t-50 191.5t-136.5 136.5t-191.5 50t-191.5 -50t-136 -136.5t-49.5 -191.5t50 -191.5t136 -136.5
t191 -50t191.5 50zM471 150h-51l158 355h-198v45h250v-42z" />
    <glyph glyph-name="uni2467" unicode="&#x2467;" 
d="M288 -14q-96 56 -152 152t-56 212t56 212t152 152t212 56t212 -56t152 -152t56 -212t-56 -212t-152 -152t-212 -56t-212 56zM691.5 22q86.5 50 136.5 136.5t50 191.5t-50 191.5t-136.5 136.5t-191.5 50t-191.5 -50t-136 -136.5t-49.5 -191.5t50 -191.5t136 -136.5
t191 -50t191.5 50zM403 177q-38 32 -38 86q0 31 17 58t48 39q-55 32 -55 88q0 46 35 76.5t90 30.5q56 0 90.5 -30.5t34.5 -76.5q0 -56 -55 -88q32 -12 48.5 -39t16.5 -58q0 -54 -37.5 -86t-97.5 -32q-59 0 -97 32zM556 398.5q22 18.5 22 48.5q0 28 -22 45.5t-56 17.5
q-33 0 -55 -17.5t-22 -45.5q0 -30 21.5 -48.5t55.5 -18.5t56 18.5zM565 211q23 21 23 53q0 34 -23.5 54t-64.5 20t-64 -20t-23 -54q0 -32 22.5 -53t64.5 -21t65 21z" />
    <glyph glyph-name="uni2468" unicode="&#x2468;" 
d="M288 -14q-96 56 -152 152t-56 212t56 212t152 152t212 56t212 -56t152 -152t56 -212t-56 -212t-152 -152t-212 -56t-212 56zM691.5 22q86.5 50 136.5 136.5t50 191.5t-50 191.5t-136.5 136.5t-191.5 50t-191.5 -50t-136 -136.5t-49.5 -191.5t50 -191.5t136 -136.5
t191 -50t191.5 50zM455 150l103 155h-5q-22 -22 -59 -22q-57 0 -95 38t-38 99q0 60 39.5 97.5t100.5 37.5q59 0 98.5 -38t39.5 -99q0 -37 -10.5 -67t-29.5 -61l-90 -140h-54zM566 350.5q25 25.5 25 67.5q0 41 -25 66.5t-65 25.5q-42 0 -67 -25.5t-25 -66.5t25 -67t65 -26
q42 0 67 25.5z" />
    <glyph glyph-name="uni2469" unicode="&#x2469;" 
d="M288 -14q-96 56 -152 152t-56 212t56 212t152 152t212 56t212 -56t152 -152t56 -212t-56 -212t-152 -152t-212 -56t-212 56zM691.5 22q86.5 50 136.5 136.5t50 191.5t-50 191.5t-136.5 136.5t-191.5 50t-191.5 -50t-136 -136.5t-49.5 -191.5t50 -191.5t136 -136.5
t191 -50t191.5 50zM493.5 199q-38.5 54 -38.5 151t38.5 151t109.5 54t109 -54t38 -151t-38 -151t-109 -54t-109.5 54zM333 150v293h-88v45h63q11 0 18 6.5t7 18.5v37h47v-400h-47zM677.5 231.5q25.5 41.5 25.5 118.5t-25.5 118.5t-74.5 41.5t-74.5 -41t-25.5 -119
q0 -77 25.5 -118.5t74.5 -41.5t74.5 41.5z" />
    <glyph glyph-name="uni246A" unicode="&#x246a;" 
d="M288 -14q-96 56 -152 152t-56 212t56 212t152 152t212 56t212 -56t152 -152t56 -212t-56 -212t-152 -152t-212 -56t-212 56zM691.5 22q86.5 50 136.5 136.5t50 191.5t-50 191.5t-136.5 136.5t-191.5 50t-191.5 -50t-136 -136.5t-49.5 -191.5t50 -191.5t136 -136.5
t191 -50t191.5 50zM378 150v293h-88v45h63q11 0 18 6.5t7 18.5v37h47v-400h-47zM603 150v293h-88v45h63q11 0 18 6.5t7 18.5v37h47v-400h-47z" />
    <glyph glyph-name="uni246B" unicode="&#x246b;" 
d="M288 -14q-96 56 -152 152t-56 212t56 212t152 152t212 56t212 -56t152 -152t56 -212t-56 -212t-152 -152t-212 -56t-212 56zM691.5 22q86.5 50 136.5 136.5t50 191.5t-50 191.5t-136.5 136.5t-191.5 50t-191.5 -50t-136 -136.5t-49.5 -191.5t50 -191.5t136 -136.5
t191 -50t191.5 50zM468 150v45l165 155q45 41 45 85q0 36 -20.5 55.5t-57.5 19.5q-72 0 -85 -75h-47q8 55 41 87.5t91 32.5q60 0 92.5 -34.5t32.5 -85.5q0 -31 -13 -56.5t-39 -50.5l-143 -133h193v-45h-255zM338 150v293h-88v45h63q11 0 18 6.5t7 18.5v37h47v-400h-47z" />
    <glyph glyph-name="uni246C" unicode="&#x246c;" 
d="M288 -14q-96 56 -152 152t-56 212t56 212t152 152t212 56t212 -56t152 -152t56 -212t-56 -212t-152 -152t-212 -56t-212 56zM691.5 22q86.5 50 136.5 136.5t50 191.5t-50 191.5t-136.5 136.5t-191.5 50t-191.5 -50t-136 -136.5t-49.5 -191.5t50 -191.5t136 -136.5
t191 -50t191.5 50zM507.5 173.5q-37.5 28.5 -47.5 76.5h48q6 -25 29 -42.5t61 -17.5q40 0 61 21.5t21 53.5q0 31 -20 50.5t-55 19.5h-45v43h50q30 0 47 17t17 45q0 32 -22 51t-60 19q-36 0 -57.5 -20t-26.5 -55h-48q6 52 40.5 86t91.5 34q61 0 95.5 -32t34.5 -78
q0 -33 -16.5 -56t-42.5 -33q28 -10 46.5 -34.5t18.5 -58.5q0 -50 -35 -84t-95 -34q-53 0 -90.5 28.5zM335 150v293h-87v45h62q11 0 18 6.5t7 18.5v37h48v-400h-48z" />
    <glyph glyph-name="uni246D" unicode="&#x246d;" 
d="M288 -14q-96 56 -152 152t-56 212t56 212t152 152t212 56t212 -56t152 -152t56 -212t-56 -212t-152 -152t-212 -56t-212 56zM691.5 22q86.5 50 136.5 136.5t50 191.5t-50 191.5t-136.5 136.5t-191.5 50t-191.5 -50t-136 -136.5t-49.5 -191.5t50 -191.5t136 -136.5
t191 -50t191.5 50zM333 150v293h-88v45h63q11 0 18 6.5t7 18.5v37h47v-400h-47zM690 150h-47v98h-200v45l180 257h67v-257h55v-45h-55v-98zM638 497l-143 -204h148v204h-5z" />
    <glyph glyph-name="uni246E" unicode="&#x246e;" 
d="M288 -14q-96 56 -152 152t-56 212t56 212t152 152t212 56t212 -56t152 -152t56 -212t-56 -212t-152 -152t-212 -56t-212 56zM691.5 22q86.5 50 136.5 136.5t50 191.5t-50 191.5t-136.5 136.5t-191.5 50t-191.5 -50t-136 -136.5t-49.5 -191.5t50 -191.5t136 -136.5
t191 -50t191.5 50zM333 150v293h-88v45h63q11 0 18 6.5t7 18.5v37h47v-400h-47zM500.5 175.5q-37.5 30.5 -45.5 79.5h48q20 -65 87 -65q40 0 65 25.5t25 69.5t-24.5 68.5t-65.5 24.5q-52 0 -77 -45h-48l25 217h218v-45h-180l-14 -117h5q11 14 31.5 23t44.5 9q57 0 95 -37
t38 -98q0 -63 -38.5 -101.5t-99.5 -38.5q-52 0 -89.5 30.5z" />
    <glyph glyph-name="uni246F" unicode="&#x246f;" 
d="M288 -14q-96 56 -152 152t-56 212t56 212t152 152t212 56t212 -56t152 -152t56 -212t-56 -212t-152 -152t-212 -56t-212 56zM691.5 22q86.5 50 136.5 136.5t50 191.5t-50 191.5t-136.5 136.5t-191.5 50t-191.5 -50t-136 -136.5t-49.5 -191.5t50 -191.5t136 -136.5
t191 -50t191.5 50zM333 150v293h-88v45h63q11 0 18 6.5t7 18.5v37h47v-400h-47zM497 183.5q-39 38.5 -39 99.5q0 37 10 67t30 60l90 140h54l-103 -155h5q23 23 59 23q57 0 94.5 -38.5t37.5 -99.5q0 -59 -39.5 -97t-100.5 -38q-59 0 -98 38.5zM662.5 215.5
q25.5 25.5 25.5 67.5q0 41 -25 66.5t-65 25.5q-42 0 -67.5 -25t-25.5 -67q0 -41 25 -67t65 -26q42 0 67.5 25.5z" />
    <glyph glyph-name="uni2470" unicode="&#x2470;" 
d="M288 -14q-96 56 -152 152t-56 212t56 212t152 152t212 56t212 -56t152 -152t56 -212t-56 -212t-152 -152t-212 -56t-212 56zM691.5 22q86.5 50 136.5 136.5t50 191.5t-50 191.5t-136.5 136.5t-191.5 50t-191.5 -50t-136 -136.5t-49.5 -191.5t50 -191.5t136 -136.5
t191 -50t191.5 50zM358 150v293h-88v45h63q11 0 18 6.5t7 18.5v37h47v-400h-47zM569 150h-51l157 355h-197v45h250v-42z" />
    <glyph glyph-name="uni2471" unicode="&#x2471;" 
d="M288 -14q-96 56 -152 152t-56 212t56 212t152 152t212 56t212 -56t152 -152t56 -212t-56 -212t-152 -152t-212 -56t-212 56zM691.5 22q86.5 50 136.5 136.5t50 191.5t-50 191.5t-136.5 136.5t-191.5 50t-191.5 -50t-136 -136.5t-49.5 -191.5t50 -191.5t136 -136.5
t191 -50t191.5 50zM500.5 177q-37.5 32 -37.5 86q0 31 16.5 58t48.5 39q-55 32 -55 88q0 46 34.5 76.5t90.5 30.5q55 0 90 -30.5t35 -76.5q0 -56 -55 -88q31 -12 48 -39t17 -58q0 -54 -38 -86t-97 -32q-60 0 -97.5 32zM335 150v293h-87v45h62q11 0 18 6.5t7 18.5v37h48v-400
h-48zM653.5 398.5q21.5 18.5 21.5 48.5q0 28 -22 45.5t-55 17.5q-34 0 -56 -17.5t-22 -45.5q0 -30 22 -48.5t56 -18.5t55.5 18.5zM662.5 211q22.5 21 22.5 53q0 34 -23 54t-64 20t-64.5 -20t-23.5 -54q0 -32 23 -53t65 -21t64.5 21z" />
    <glyph glyph-name="uni2472" unicode="&#x2472;" 
d="M288 -14q-96 56 -152 152t-56 212t56 212t152 152t212 56t212 -56t152 -152t56 -212t-56 -212t-152 -152t-212 -56t-212 56zM691.5 22q86.5 50 136.5 136.5t50 191.5t-50 191.5t-136.5 136.5t-191.5 50t-191.5 -50t-136 -136.5t-49.5 -191.5t50 -191.5t136 -136.5
t191 -50t191.5 50zM551 150l103 155h-5q-22 -22 -59 -22q-57 0 -94.5 38t-37.5 99q0 60 39.5 97.5t100.5 37.5q59 0 98 -38t39 -99q0 -37 -10 -67.5t-30 -60.5l-90 -140h-54zM338 150v293h-88v45h63q11 0 18 6.5t7 18.5v37h47v-400h-47zM662.5 350.5q25.5 25.5 25.5 67.5
q0 41 -25 66.5t-65 25.5q-42 0 -67.5 -25t-25.5 -67q0 -41 25 -67t65 -26q42 0 67.5 25.5z" />
    <glyph glyph-name="uni2473" unicode="&#x2473;" 
d="M288 -14q-96 56 -152 152t-56 212t56 212t152 152t212 56t212 -56t152 -152t56 -212t-56 -212t-152 -152t-212 -56t-212 56zM691.5 22q86.5 50 136.5 136.5t50 191.5t-50 191.5t-136.5 136.5t-191.5 50t-191.5 -50t-136 -136.5t-49.5 -191.5t50 -191.5t136 -136.5
t191 -50t191.5 50zM215 150v45l166 155q44 41 44 85q0 36 -20.5 55.5t-56.5 19.5q-38 0 -59 -20t-26 -55h-48q8 55 41 87.5t92 32.5t92 -34.5t33 -85.5q0 -31 -13 -56.5t-40 -50.5l-142 -133h195v-45h-258zM543.5 199q-38.5 54 -38.5 151t38.5 151t109.5 54t109 -54t38 -151
t-38 -151t-109 -54t-109.5 54zM727.5 231.5q25.5 41.5 25.5 118.5t-25.5 118.5t-74.5 41.5t-74.5 -41t-25.5 -119q0 -77 25.5 -118.5t74.5 -41.5t74.5 41.5z" />
    <glyph glyph-name="uni24EA" unicode="&#x24ea;" 
d="M288 -14q-96 56 -152 152t-56 212t56 212t152 152t212 56t212 -56t152 -152t56 -212t-56 -212t-152 -152t-212 -56t-212 56zM691.5 22q86.5 50 136.5 136.5t50 191.5t-50 191.5t-136.5 136.5t-191.5 50t-191.5 -50t-136 -136.5t-49.5 -191.5t50 -191.5t136 -136.5
t191 -50t191.5 50zM390.5 199q-38.5 54 -38.5 151t38.5 151t109.5 54t109 -54t38 -151t-38 -151t-109 -54t-109.5 54zM574.5 231.5q25.5 41.5 25.5 118.5t-25.5 118.5t-74.5 41.5t-74.5 -41t-25.5 -119q0 -77 25.5 -118.5t74.5 -41.5t74.5 41.5z" />
    <glyph glyph-name="uni24EB" unicode="&#x24eb;" 
d="M288 -14q-96 56 -152 152t-56 212t56 212t152 152t212 56t212 -56t152 -152t56 -212t-56 -212t-152 -152t-212 -56t-212 56zM378 150h47v400h-47v-37q0 -12 -7 -18.5t-18 -6.5h-63v-45h88v-293zM603 150h47v400h-47v-37q0 -12 -7 -18.5t-18 -6.5h-63v-45h88v-293z" />
    <glyph glyph-name="uni24EC" unicode="&#x24ec;" 
d="M288 -14q-96 56 -152 152t-56 212t56 212t152 152t212 56t212 -56t152 -152t56 -212t-56 -212t-152 -152t-212 -56t-212 56zM468 150h255v45h-193l143 133q26 25 39 50.5t13 56.5q0 51 -32.5 85.5t-92.5 34.5q-58 0 -91 -32.5t-41 -87.5h47q13 75 85 75q37 0 57.5 -19.5
t20.5 -55.5q0 -44 -45 -85l-165 -155v-45zM338 150h47v400h-47v-37q0 -12 -7 -18.5t-18 -6.5h-63v-45h88v-293z" />
    <glyph glyph-name="uni24ED" unicode="&#x24ed;" 
d="M288 -14q-96 56 -152 152t-56 212t56 212t152 152t212 56t212 -56t152 -152t56 -212t-56 -212t-152 -152t-212 -56t-212 56zM693 179q35 34 35 84q0 33 -18 57t-47 36q27 10 43 33t16 56q0 46 -34.5 78t-95.5 32q-57 0 -91.5 -34t-40.5 -86h48q5 35 26.5 55t57.5 20
q38 0 60 -19t22 -51q0 -28 -17 -45t-47 -17h-52v-43h47q35 0 55 -19.5t20 -50.5q0 -32 -21 -53.5t-61 -21.5q-38 0 -61 17.5t-29 42.5h-48q10 -48 47.5 -76.5t90.5 -28.5q60 0 95 34zM335 150h48v400h-48v-37q0 -12 -7 -18.5t-18 -6.5h-62v-45h87v-293z" />
    <glyph glyph-name="uni24EE" unicode="&#x24ee;" 
d="M288 -14q-96 56 -152 152t-56 212t56 212t152 152t212 56t212 -56t152 -152t56 -212t-56 -212t-152 -152t-212 -56t-212 56zM333 150h47v400h-47v-37q0 -12 -7 -18.5t-18 -6.5h-63v-45h88v-293zM643 248v-98h47v98h55v45h-55v257h-67l-180 -257v-45h200zM643 293h-148
l143 204h5v-204z" />
    <glyph glyph-name="uni24EF" unicode="&#x24ef;" 
d="M288 -14q-96 56 -152 152t-56 212t56 212t152 152t212 56t212 -56t152 -152t56 -212t-56 -212t-152 -152t-212 -56t-212 56zM333 150h47v400h-47v-37q0 -12 -7 -18.5t-18 -6.5h-63v-45h88v-293zM689.5 183.5q38.5 38.5 38.5 101.5q0 61 -38 98t-95 37q-24 0 -44.5 -9
t-31.5 -23h-5l14 117h180v45h-218l-25 -217h48q25 45 77 45q41 0 65.5 -24.5t24.5 -68.5t-25 -69.5t-65 -25.5q-67 0 -87 65h-48q8 -49 45.5 -79.5t89.5 -30.5q61 0 99.5 38.5z" />
    <glyph glyph-name="uni24F0" unicode="&#x24f0;" 
d="M288 -14q-96 56 -152 152t-56 212t56 212t152 152t212 56t212 -56t152 -152t56 -212t-56 -212t-152 -152t-212 -56t-212 56zM333 150h47v400h-47v-37q0 -12 -7 -18.5t-18 -6.5h-63v-45h88v-293zM695.5 183q39.5 38 39.5 97q0 61 -37.5 99.5t-94.5 38.5q-36 0 -59 -23h-5
l103 155h-54l-90 -140q-20 -30 -30 -60t-10 -67q0 -61 39 -99.5t98 -38.5q61 0 100.5 38zM530 216q-25 26 -25 67q0 42 25.5 67t67.5 25q40 0 65 -25.5t25 -66.5q0 -42 -25.5 -67.5t-67.5 -25.5q-40 0 -65 26z" />
    <glyph glyph-name="uni24F1" unicode="&#x24f1;" 
d="M288 -14q-96 56 -152 152t-56 212t56 212t152 152t212 56t212 -56t152 -152t56 -212t-56 -212t-152 -152t-212 -56t-212 56zM358 150h47v400h-47v-37q0 -12 -7 -18.5t-18 -6.5h-63v-45h88v-293zM675 505l-157 -355h51l159 358v42h-250v-45h197z" />
    <glyph glyph-name="uni24F2" unicode="&#x24f2;" 
d="M288 -14q-96 56 -152 152t-56 212t56 212t152 152t212 56t212 -56t152 -152t56 -212t-56 -212t-152 -152t-212 -56t-212 56zM695 177q38 32 38 86q0 31 -17 58t-48 39q55 32 55 88q0 46 -35 76.5t-90 30.5q-56 0 -90.5 -30.5t-34.5 -76.5q0 -56 55 -88q-32 -12 -48.5 -39
t-16.5 -58q0 -54 37.5 -86t97.5 -32q59 0 97 32zM335 150h48v400h-48v-37q0 -12 -7 -18.5t-18 -6.5h-62v-45h87v-293zM542 398.5q-22 18.5 -22 48.5q0 28 22 45.5t56 17.5q33 0 55 -17.5t22 -45.5q0 -30 -21.5 -48.5t-55.5 -18.5t-56 18.5zM533 211q-23 21 -23 53
q0 34 23.5 54t64.5 20t64 -20t23 -54q0 -32 -22.5 -53t-64.5 -21t-65 21z" />
    <glyph glyph-name="uni24F3" unicode="&#x24f3;" 
d="M288 -14q-96 56 -152 152t-56 212t56 212t152 152t212 56t212 -56t152 -152t56 -212t-56 -212t-152 -152t-212 -56t-212 56zM551 150h54l90 140q20 30 30 60.5t10 67.5q0 61 -39 99t-98 38q-61 0 -100.5 -37.5t-39.5 -97.5q0 -61 37.5 -99t94.5 -38q37 0 59 22h5z
M338 150h47v400h-47v-37q0 -12 -7 -18.5t-18 -6.5h-63v-45h88v-293zM530 351q-25 26 -25 67q0 42 25.5 67t67.5 25q40 0 65 -25.5t25 -66.5q0 -42 -25.5 -67.5t-67.5 -25.5q-40 0 -65 26z" />
    <glyph glyph-name="uni24F4" unicode="&#x24f4;" 
d="M288 -14q-96 56 -152 152t-56 212t56 212t152 152t212 56t212 -56t152 -152t56 -212t-56 -212t-152 -152t-212 -56t-212 56zM215 150h258v45h-195l142 133q27 25 40 50.5t13 56.5q0 51 -33 85.5t-92 34.5t-92 -32.5t-41 -87.5h48q5 35 26 55t59 20q36 0 56.5 -19.5
t20.5 -55.5q0 -44 -44 -85l-166 -155v-45zM762 199q38 54 38 151t-38 151t-109 54t-109.5 -54t-38.5 -151t38.5 -151t109.5 -54t109 54zM578.5 231.5q-25.5 41.5 -25.5 118.5q0 78 25.5 119t74.5 41t74.5 -41.5t25.5 -118.5t-25.5 -118.5t-74.5 -41.5t-74.5 41.5z" />
    <glyph glyph-name="uni24FF" unicode="&#x24ff;" 
d="M288 -14q-96 56 -152 152t-56 212t56 212t152 152t212 56t212 -56t152 -152t56 -212t-56 -212t-152 -152t-212 -56t-212 56zM609 199q38 54 38 151t-38 151t-109 54t-109.5 -54t-38.5 -151t38.5 -151t109.5 -54t109 54zM425.5 231.5q-25.5 41.5 -25.5 118.5
q0 78 25.5 119t74.5 41t74.5 -41.5t25.5 -118.5t-25.5 -118.5t-74.5 -41.5t-74.5 41.5z" />
    <glyph glyph-name="lozenge" unicode="&#x25ca;" horiz-adv-x="580" 
d="M310 0h-40l-225 350l225 350h40l225 -350zM105 350l185 -290l185 290l-185 291z" />
    <glyph glyph-name="uni2776" unicode="&#x2776;" 
d="M288 -14q-96 56 -152 152t-56 212t56 212t152 152t212 56t212 -56t152 -152t56 -212t-56 -212t-152 -152t-212 -56t-212 56zM485 150h48v400h-48v-37q0 -12 -7 -18.5t-18 -6.5h-62v-45h87v-293z" />
    <glyph glyph-name="uni2777" unicode="&#x2777;" 
d="M288 -14q-96 56 -152 152t-56 212t56 212t152 152t212 56t212 -56t152 -152t56 -212t-56 -212t-152 -152t-212 -56t-212 56zM373 150h255v45h-193l143 133q26 25 39 50.5t13 56.5q0 51 -32.5 85.5t-92.5 34.5q-58 0 -91 -32.5t-41 -87.5h47q13 75 85 75q37 0 57.5 -19.5
t20.5 -55.5q0 -44 -45 -85l-165 -155v-45z" />
    <glyph glyph-name="uni2778" unicode="&#x2778;" 
d="M288 -14q-96 56 -152 152t-56 212t56 212t152 152t212 56t212 -56t152 -152t56 -212t-56 -212t-152 -152t-212 -56t-212 56zM604 179q35 34 35 84q0 34 -18.5 58.5t-46.5 34.5q26 10 42.5 33t16.5 56q0 46 -34.5 78t-95.5 32q-57 0 -91.5 -34t-40.5 -86h48q5 35 26.5 55
t57.5 20q38 0 60 -19t22 -51q0 -28 -17 -45t-47 -17h-52v-43h47q35 0 55 -19.5t20 -50.5q0 -32 -21 -53.5t-61 -21.5q-38 0 -61 17.5t-29 42.5h-48q10 -48 47.5 -76.5t90.5 -28.5q60 0 95 34z" />
    <glyph glyph-name="uni2779" unicode="&#x2779;" 
d="M288 -14q-96 56 -152 152t-56 212t56 212t152 152t212 56t212 -56t152 -152t56 -212t-56 -212t-152 -152t-212 -56t-212 56zM533 248v-98h47v98h55v45h-55v257h-67l-180 -257v-45h200zM533 293h-148l143 204h5v-204z" />
    <glyph glyph-name="uni277A" unicode="&#x277a;" 
d="M288 -14q-96 56 -152 152t-56 212t56 212t152 152t212 56t212 -56t152 -152t56 -212t-56 -212t-152 -152t-212 -56t-212 56zM601 183.5q38 38.5 38 101.5q0 61 -37.5 98t-94.5 37q-24 0 -44.5 -8.5t-32.5 -23.5h-5l14 117h180v45h-217l-25 -217h47q25 45 78 45
q40 0 65 -25t25 -68q0 -44 -25 -69.5t-65 -25.5q-37 0 -58 18.5t-30 46.5h-47q8 -49 45.5 -79.5t89.5 -30.5q61 0 99 38.5z" />
    <glyph glyph-name="uni277B" unicode="&#x277b;" 
d="M288 -14q-96 56 -152 152t-56 212t56 212t152 152t212 56t212 -56t152 -152t56 -212t-56 -212t-152 -152t-212 -56t-212 56zM599.5 183q39.5 38 39.5 97q0 61 -37.5 99.5t-94.5 38.5q-36 0 -59 -23h-5l103 155h-54l-90 -140q-20 -30 -30 -60t-10 -67q0 -61 39 -99.5
t98 -38.5q61 0 100.5 38zM434 216q-25 26 -25 67q0 42 25.5 67t67.5 25q40 0 65 -25.5t25 -66.5q0 -42 -25.5 -67.5t-67.5 -25.5q-40 0 -65 26z" />
    <glyph glyph-name="uni277C" unicode="&#x277c;" 
d="M288 -14q-96 56 -152 152t-56 212t56 212t152 152t212 56t212 -56t152 -152t56 -212t-56 -212t-152 -152t-212 -56t-212 56zM578 505l-158 -355h51l159 358v42h-250v-45h198z" />
    <glyph glyph-name="uni277D" unicode="&#x277d;" 
d="M288 -14q-96 56 -152 152t-56 212t56 212t152 152t212 56t212 -56t152 -152t56 -212t-56 -212t-152 -152t-212 -56t-212 56zM597.5 177q37.5 32 37.5 86q0 31 -16.5 58t-48.5 39q55 32 55 88q0 46 -34.5 76.5t-90.5 30.5q-55 0 -90 -30.5t-35 -76.5q0 -56 55 -88
q-31 -12 -48 -39t-17 -58q0 -54 38 -86t97 -32q60 0 97.5 32zM444.5 398.5q-21.5 18.5 -21.5 48.5q0 28 22 45.5t55 17.5q34 0 56 -17.5t22 -45.5q0 -30 -22 -48.5t-56 -18.5t-55.5 18.5zM435.5 211q-22.5 21 -22.5 53q0 34 23 54t64 20t64.5 -20t23.5 -54q0 -32 -23 -53
t-65 -21t-64.5 21z" />
    <glyph glyph-name="uni277E" unicode="&#x277e;" 
d="M288 -14q-96 56 -152 152t-56 212t56 212t152 152t212 56t212 -56t152 -152t56 -212t-56 -212t-152 -152t-212 -56t-212 56zM455 150h54l90 140q19 31 29.5 61t10.5 67q0 61 -39.5 99t-98.5 38q-61 0 -100.5 -37.5t-39.5 -97.5q0 -61 38 -99t95 -38q37 0 59 22h5z
M434 351q-25 26 -25 67t25 66.5t67 25.5q40 0 65 -25.5t25 -66.5q0 -42 -25 -67.5t-67 -25.5q-40 0 -65 26z" />
    <glyph glyph-name="uni277F" unicode="&#x277f;" 
d="M288 -14q-96 56 -152 152t-56 212t56 212t152 152t212 56t212 -56t152 -152t56 -212t-56 -212t-152 -152t-212 -56t-212 56zM712 199q38 54 38 151t-38 151t-109 54t-109.5 -54t-38.5 -151t38.5 -151t109.5 -54t109 54zM333 150h47v400h-47v-37q0 -12 -7 -18.5t-18 -6.5
h-63v-45h88v-293zM528.5 231.5q-25.5 41.5 -25.5 118.5q0 78 25.5 119t74.5 41t74.5 -41.5t25.5 -118.5t-25.5 -118.5t-74.5 -41.5t-74.5 41.5z" />
    <glyph glyph-name="uni2921" unicode="&#x2921;" 
d="M783 102v228h47v-302l-7 -8h-303v48h228l-530 530v-228h-48v303l8 7h302v-47h-229z" />
    <glyph glyph-name="uni2922" unicode="&#x2922;" 
d="M520 680h305l5 -5v-305h-47v228l-530 -530h227v-48h-305l-5 5v305h48v-226l529 529h-227v47z" />
    <glyph glyph-name="uniE000" unicode="&#xe000;" 
d="M718 688q50 0 81 -31t31 -82v-270q0 -50 -31 -81t-81 -31h-330l160 -160l-33 -33l-215 215v5l215 215l33 -32l-160 -160h330q30 0 46 16t16 46v270q0 31 -16.5 47t-45.5 16h-548v50h548z" />
    <glyph glyph-name="uniE001" unicode="&#xe001;" 
d="M830 63v-50h-547q-51 0 -82 31t-31 81v270q0 51 31 82t82 31h330l-160 160l32 32l215 -215v-5l-215 -215l-32 33l160 160h-330q-31 0 -47 -16.5t-16 -46.5v-270q0 -31 17 -46.5t46 -15.5h547z" />
    <glyph glyph-name="angle_left.icon" unicode="&#xe002;" 
d="M645 135l-30 -32l-290 250v4l290 251l30 -33l-251 -218v-4z" />
    <glyph glyph-name="angle_up.icon" unicode="&#xe003;" 
d="M498 465l-218 -252l-32 30l250 290h4l251 -290l-33 -30l-218 252h-4z" />
    <glyph glyph-name="angle_right.icon" unicode="&#xe004;" 
d="M676 353l-291 -250l-30 32l252 218v4l-252 218l30 33l291 -251v-4z" />
    <glyph glyph-name="angle_down.icon" unicode="&#xe005;" 
d="M502 182h-4l-250 291l32 30l218 -252h4l218 252l33 -30z" />
    <glyph glyph-name="angle_double_left.icon" unicode="&#xe006;" 
d="M543 135l-30 -32l-290 250v4l290 251l30 -33l-251 -218v-4zM735 135l-30 -32l-290 250v4l290 251l30 -33l-251 -218v-4z" />
    <glyph glyph-name="angle_double_up.icon" unicode="&#xe007;" 
d="M498 560l-218 -252l-32 30l250 290h4l251 -290l-33 -30l-218 252h-4zM498 370l-218 -252l-32 30l250 290h4l251 -290l-33 -30l-218 252h-4z" />
    <glyph glyph-name="angle_double_right.icon" unicode="&#xe008;" 
d="M586 353l-291 -250l-30 32l252 218v4l-252 218l30 33l291 -251v-4zM778 353l-291 -250l-30 32l252 218v4l-252 218l30 33l291 -251v-4z" />
    <glyph glyph-name="angle_double_down.icon" unicode="&#xe009;" 
d="M502 270h-4l-250 291l32 30l218 -252h4l218 252l33 -30zM502 80h-4l-250 291l32 30l218 -252h4l218 252l33 -30z" />
    <glyph glyph-name="uniE00A" unicode="&#xe00a;" 
d="M316.5 37q-82.5 47 -129.5 129.5t-47 183.5t47 183.5t129.5 129.5t183.5 47t183.5 -47t129.5 -129.5t47 -183.5t-47 -183.5t-129.5 -129.5t-183.5 -47t-183.5 47zM658 81q71 41 111.5 112t40.5 157t-40.5 157t-111.5 112t-158 41t-158 -41t-111.5 -112t-40.5 -157
t40.5 -157t111.5 -112t158 -41t158 41zM600 200l-30 -32l-209 180v4l209 181l30 -33l-170 -148v-4z" />
    <glyph glyph-name="uniE00B" unicode="&#xe00b;" 
d="M316.5 37q-82.5 47 -129.5 129.5t-47 183.5t47 183.5t129.5 129.5t183.5 47t183.5 -47t129.5 -129.5t47 -183.5t-47 -183.5t-129.5 -129.5t-183.5 -47t-183.5 47zM658 81q71 41 111.5 112t40.5 157t-40.5 157t-111.5 112t-158 41t-158 -41t-111.5 -112t-40.5 -157
t40.5 -157t111.5 -112t158 -41t158 41zM498 420l-153 -177l-32 30l185 215h4l186 -215l-33 -30l-153 177h-4z" />
    <glyph glyph-name="uniE00C" unicode="&#xe00c;" 
d="M316.5 37q-82.5 47 -129.5 129.5t-47 183.5t47 183.5t129.5 129.5t183.5 47t183.5 -47t129.5 -129.5t47 -183.5t-47 -183.5t-129.5 -129.5t-183.5 -47t-183.5 47zM658 81q71 41 111.5 112t40.5 157t-40.5 157t-111.5 112t-158 41t-158 -41t-111.5 -112t-40.5 -157
t40.5 -157t111.5 -112t158 -41t158 41zM639 348l-209 -180l-30 32l171 148v4l-171 148l30 33l209 -181v-4z" />
    <glyph glyph-name="uniE00D" unicode="&#xe00d;" 
d="M316.5 37q-82.5 47 -129.5 129.5t-47 183.5t47 183.5t129.5 129.5t183.5 47t183.5 -47t129.5 -129.5t47 -183.5t-47 -183.5t-129.5 -129.5t-183.5 -47t-183.5 47zM658 81q71 41 111.5 112t40.5 157t-40.5 157t-111.5 112t-158 41t-158 -41t-111.5 -112t-40.5 -157
t40.5 -157t111.5 -112t158 -41t158 41zM502 205h-4l-185 216l32 30l153 -178h4l153 178l33 -30z" />
    <glyph glyph-name="uniE00E" unicode="&#xe00e;" 
d="M475 430v183l-95 -95l-32 32l150 150h5l150 -150l-33 -32l-95 95v-183h-50zM165 323v50h670v-50h-670zM525 270v-182l95 95l33 -33l-150 -150h-5l-150 150l32 33l95 -95v182h50z" />
    <glyph glyph-name="uniE00F" unicode="&#xe00f;" 
d="M526 0h-50v700h50v-700zM300 503l33 -32l-95 -95h162v-50h-163l96 -95l-33 -33l-150 150v5zM668 471l32 32l150 -150v-5l-150 -150l-32 33l95 95h-163v50h162z" />
    <glyph glyph-name="uniE010" unicode="&#xe010;" 
d="M498 635l-117 -117l-33 32l150 150h5l150 -150l-32 -32l-118 117h-5zM835 326h-670v50h670v-50zM503 0h-5l-150 150l33 33l117 -118h5l118 118l32 -33z" />
    <glyph glyph-name="uniE011" unicode="&#xe011;" 
d="M526 0h-50v700h50v-700zM333 231l-33 -33l-150 150v5l150 150l33 -32l-118 -118v-5zM850 348l-150 -150l-32 33l117 117v5l-117 118l32 32l150 -150v-5z" />
    <glyph glyph-name="uniE012" unicode="&#xe012;" 
d="M850 690v-240h-50v168l-267 -268l267 -267v167h50v-240l-10 -10h-240v50h168l-268 268l-267 -268h167v-50h-240l-10 10v240h50v-167l268 267l-268 268v-168h-50v240l10 10h240v-50h-167l267 -267l268 267h-168v50h240z" />
    <glyph glyph-name="uniE013" unicode="&#xe013;" 
d="M668 471l32 32l150 -150v-5l-150 -150l-32 33l95 95h-237v-238l95 95l32 -33l-150 -150h-5l-150 150l33 33l95 -96v239h-239l96 -95l-33 -33l-150 150v5l150 150l33 -32l-95 -95h238v237l-95 -95l-33 32l150 150h5l150 -150l-32 -32l-95 94v-236h236z" />
    <glyph glyph-name="uniE014" unicode="&#xe014;" 
d="M352 103q-11 0 -18 7t-7 17q0 11 7.5 18.5t17.5 7.5h423v317h-115l-105 78h-224q-11 0 -18.5 7t-7.5 17q0 11 8 18.5t18 7.5h249l105 -78h140v-417h-473zM161 433q-11 0 -18.5 7t-7.5 17q0 11 8 18.5t18 7.5h287v-50h-287zM251 323q-11 0 -18.5 7t-7.5 17q0 11 8 18.5
t18 7.5h197v-50h-197zM301 213q-11 0 -18.5 7t-7.5 17q0 11 8 18.5t18 7.5h147v-50h-147z" />
    <glyph glyph-name="uniE015" unicode="&#xe015;" 
d="M583 675q0 11 7 18t17 7q11 0 18.5 -7.5t7.5 -17.5v-295h-50v295zM473 585q0 11 7 18t17 7q11 0 18.5 -7.5t7.5 -17.5v-205h-50v205zM363 535q0 11 7 18t17 7q11 0 18.5 -7.5t7.5 -17.5v-155h-50v155zM250 483q0 11 7.5 18.5t17.5 7.5t17.5 -7.5t7.5 -18.5v-433h323v123
l77 105v227q0 11 7.5 18t17.5 7q11 0 18 -7t7 -18v-252l-77 -105v-148h-423v483z" />
    <glyph glyph-name="uniE016" unicode="&#xe016;" 
d="M175 103v417h140l105 78h250q10 0 17.5 -7.5t7.5 -18.5q0 -10 -7 -17t-18 -7h-225l-105 -78h-115v-317h423q11 0 18.5 -7.5t7.5 -18.5q0 -10 -7.5 -17t-18.5 -7h-473zM553 433v50h287q10 0 17.5 -7.5t7.5 -18.5q0 -10 -7 -17t-18 -7h-287zM553 323v50h197q10 0 17.5 -7.5
t7.5 -18.5q0 -10 -7 -17t-18 -7h-197zM553 213v50h147q10 0 17.5 -7.5t7.5 -18.5q0 -10 -7 -17t-18 -7h-147z" />
    <glyph glyph-name="uniE017" unicode="&#xe017;" 
d="M258 178q-8 8 -8 18v252l78 105v147h422v-483q0 -11 -7 -18t-17 -7q-11 0 -18.5 7.5t-7.5 17.5v433h-322v-122l-78 -105v-227q0 -11 -7 -18.5t-17 -7.5t-18 8zM375.5 7.5q-7.5 7.5 -7.5 18.5v294h50v-294q0 -11 -7.5 -18.5t-17.5 -7.5t-17.5 7.5zM485.5 97.5
q-7.5 7.5 -7.5 18.5v204h50v-204q0 -11 -7.5 -18.5t-17.5 -7.5t-17.5 7.5zM595.5 147.5q-7.5 7.5 -7.5 18.5v154h50v-154q0 -11 -7.5 -18.5t-17.5 -7.5t-17.5 7.5z" />
    <glyph glyph-name="u1F516.icon" unicode="&#xe018;" 
d="M475 0q0 30 -17 46.5t-45 16.5h-223v637h223q30 0 52.5 -13t29.5 -29h13q7 16 29.5 29t52.5 13h220v-637h-222q-29 0 -46 -16.5t-17 -46.5h-50zM475 95v493q0 29 -17 45.5t-45 16.5h-173v-537h173q20 0 35.5 -5.5t21.5 -12.5h5zM530 95q7 7 22 12.5t36 5.5h172v537h-172
q-29 0 -46 -16t-17 -46v-493h5z" />
    <glyph glyph-name="plus.icon" unicode="&#xe019;" 
d="M683.5 663q82.5 -47 129.5 -129.5t47 -183.5t-47 -183.5t-129.5 -129.5t-183.5 -47t-183.5 47t-129.5 129.5t-47 183.5t47 183.5t129.5 129.5t183.5 47t183.5 -47zM658 81q71 41 111.5 112t40.5 157t-40.5 157t-111.5 112t-158 41q-86 0 -157 -41t-112 -112t-41 -157
t41 -157t112 -112t157 -41q87 0 158 41zM475 560h50v-183h185v-50h-185v-187h-50v187h-185v50h185v183z" />
    <glyph glyph-name="uniE01A" unicode="&#xe01a;" 
d="M500 318l-242 -243l-33 33l243 242l-243 243l33 32l242 -242l243 242l32 -32l-242 -243l242 -242l-32 -33z" />
    <glyph glyph-name="uniE01B" unicode="&#xe01b;" 
d="M683.5 663q82.5 -47 129.5 -129.5t47 -183.5t-47 -183.5t-129.5 -129.5t-183.5 -47t-183.5 47t-129.5 129.5t-47 183.5t47 183.5t129.5 129.5t183.5 47t183.5 -47zM209 239.5q19 -52.5 54 -93.5l441 441q-41 35 -93.5 54t-110.5 19q-87 0 -158 -41t-111.5 -112
t-40.5 -157q0 -58 19 -110.5zM658 81q71 41 111.5 112t40.5 157q0 58 -19 110.5t-54 93.5l-441 -440q41 -35 93.5 -54.5t110.5 -19.5q87 0 158 41z" />
    <glyph glyph-name="uniE01C" unicode="&#xe01c;" 
d="M300 200h-5l-150 150l33 33l95 -95v300q0 50 31 81t81 31h320v-50h-320q-30 0 -46 -16t-16 -46v-300l95 95l32 -33zM855 350l-32 -32l-95 95v-300q0 -51 -31 -82t-82 -31h-320v50h320q30 0 46.5 16t16.5 47v300l-95 -95l-33 32l150 150h5z" />
    <glyph glyph-name="uniE01D" unicode="&#xe01d;" 
d="M816 173q29 -31 29 -69q0 -25 -15 -49.5t-38.5 -39.5t-46.5 -15q-20 0 -38.5 8.5t-32.5 22.5l-189 190q-39 -15 -85 -15q-66 0 -122.5 33t-89.5 89.5t-33 122.5t33 122.5t89.5 89.5t122.5 33t122.5 -33t89.5 -89.5t33 -122.5q0 -47 -17 -89zM231 353q26 -45 71 -71
t98 -26t98 26t71 71t26 98t-26 98t-71 71t-98 26t-98 -26t-71 -71t-26 -98t26 -98zM285 451q0 48 33.5 82t81.5 34v-51q-26 0 -45 -19.5t-19 -45.5h-51zM779 66.5q17 16.5 17 34.5q0 19 -21 40l-172 174q-26 -41 -70 -69l173 -174q22 -22 40 -22q16 0 33 16.5z" />
    <glyph glyph-name="uniE01E" unicode="&#xe01e;" 
d="M760 457.5q30 -17.5 47.5 -47.5t17.5 -65t-17.5 -65t-47.5 -47.5t-65 -17.5q-29 0 -55.5 12.5t-44.5 33.5l-166 -90q6 -19 6 -41q0 -35 -17.5 -65t-47.5 -47.5t-65 -17.5t-65 17.5t-47.5 47.5t-17.5 65t17.5 65t47.5 47.5t65 17.5q29 0 55 -12t44 -34l167 91q-6 20 -6 40
q0 23 8 45l-172 93q-17 -20 -42.5 -31.5t-53.5 -11.5q-35 0 -65 17.5t-47.5 47.5t-17.5 65t17.5 65t47.5 47.5t65 17.5t65 -17.5t47.5 -47.5t17.5 -65q0 -22 -8 -44l172 -93q18 20 43 31t53 11q35 0 65 -17.5zM362 513q23 23 23 57t-23 57t-57 23t-57 -23t-23 -57t23 -57
t57 -23t57 23zM752 288q23 23 23 57t-23 57t-57 23t-57 -23t-23 -57t23 -57t57 -23t57 23zM362 73q23 23 23 57t-23 57t-57 23t-57 -23t-23 -57t23 -57t57 -23t57 23z" />
    <glyph glyph-name="uniE01F" unicode="&#xe01f;" 
d="M810 700h50v-245l-5 -5h-245v50h161q-38 73 -110 116.5t-161 43.5q-87 0 -158 -41t-111.5 -112t-40.5 -157h-50q0 101 47 183.5t129.5 129.5t183.5 47q102 0 183.5 -49t126.5 -128v167zM658 81q71 41 111.5 112t40.5 157h50q0 -101 -47 -183.5t-129.5 -129.5t-183.5 -47
q-102 0 -184 49.5t-126 129.5v-169h-50v245l5 5h245v-50h-160q39 -72 110 -116t160 -44q87 0 158 41z" />
    <glyph glyph-name="uniE020" unicode="&#xe020;" 
d="M500 710q101 0 183.5 -47t129.5 -129.5t47 -183.5t-47 -183.5t-129.5 -129.5t-183.5 -47t-183.5 47t-129.5 129.5t-47 183.5q0 102 49 184t130 126h-169v50h243l7 -7v-243h-50v161q-73 -39 -116.5 -110.5t-43.5 -160.5q0 -86 40.5 -157t111.5 -112t158 -41t158 41
t111.5 112t40.5 157q0 87 -41 158t-112 111.5t-157 40.5v50z" />
    </font>
</defs>
</svg>
