<?xml version="1.0" standalone="no"?>
<!DOCTYPE svg PUBLIC "-//W3C//DTD SVG 1.1//EN" "http://www.w3.org/Graphics/SVG/1.1/DTD/svg11.dtd" >
<svg xmlns="http://www.w3.org/2000/svg" xmlns:xlink="http://www.w3.org/1999/xlink" version="1.1">
<metadata>
Created by FontForge 20201107 at Mon Feb  6 14:54:29 2023
 By 
Copyright (c) 2019-2022 by TypeType. All rights reserved. Special version for DaFont.
</metadata>
<defs>
<font id="TTInterphasesProTrl-DmBd" horiz-adv-x="1000" >
  <font-face 
    font-family="TT Interphases Pro Trl Db"
    font-weight="600"
    font-stretch="normal"
    units-per-em="1000"
    panose-1="2 11 1 3 5 0 0 2 0 4"
    ascent="760"
    descent="-240"
    x-height="526"
    cap-height="700"
    bbox="-409 -251 1438 1000"
    underline-thickness="95"
    underline-position="-179"
    unicode-range="U+0020-FB04"
  />
<missing-glyph horiz-adv-x="900" 
d="M100 0v284h45v-139h33v139h50v31h-128v126l19 -61h23l34 106l33 -106h23l54 170h-32l-34 -110l-35 110h-19l-35 -110l-31 103v157h700v-150h-110v-170h110v-91q-6 13 -19.5 20t-30.5 7q-27 0 -43.5 -14.5t-16.5 -34.5q0 -22 14.5 -32.5t39.5 -17.5q17 -5 25.5 -9.5
t8.5 -13.5q0 -21 -28 -21q-14 0 -21 7t-7 18h-33q0 -24 17 -39.5t44 -15.5q17 0 30.5 6.5t19.5 13.5v-163h-700zM311 380h33v62h24l35 -62h37l-40 67q36 17 36 50q0 22 -16 37.5t-41 15.5h-68v-170zM469 550v-170h33v170h-33zM580 519v-139h32v139h50v31h-132v-31h50z
M344 473v46h35q10 0 17 -6.5t7 -16.5q0 -12 -7.5 -17.5t-16.5 -5.5h-35zM800 483h-78v36h78v-36zM800 411h-78v41h78v-41zM387.5 167.5q22.5 24.5 22.5 61.5t-23 62t-59 25t-59 -25t-23 -62t22.5 -61.5t59.5 -24.5t59.5 24.5zM633 162q19 19 19 47v106h-32v-106
q0 -15 -9.5 -25t-25.5 -10q-17 0 -26.5 10.5t-9.5 24.5v106h-32v-106q0 -28 19.5 -47t48.5 -19t48 19zM800 224q-15 14 -46 22q-16 5 -23 9t-7 12q0 9 7.5 14.5t18.5 5.5q10 0 18 -7t8 -18h24v-38zM291.5 190q-14.5 16 -14.5 39q0 25 14 40.5t37 15.5q24 0 37.5 -15.5
t13.5 -40.5q0 -23 -14.5 -39t-36.5 -16t-36.5 16z" />
    <glyph glyph-name="f_f" unicode="ff" horiz-adv-x="690" 
d="M595 618q-24 0 -38.5 -15t-14.5 -39v-38h128v-107h-128v-419h-115v419h-207v-419h-115v419h-83v107h83v47q0 68 40 106.5t112 38.5h92v-100h-75q-24 0 -39 -15t-15 -39v-38h207v50q0 68 39.5 105t111.5 37h92v-100h-75z" />
    <glyph glyph-name="fi" unicode="fi" horiz-adv-x="605" 
d="M434.5 623q-20.5 20 -20.5 49t20.5 49.5t49.5 20.5t49 -20.5t20 -49.5t-20 -49t-49 -20t-49.5 20zM220 526h322v-526h-115v419h-207v-419h-115v419h-83v107h83v47q0 68 40 106.5t112 38.5h92v-100h-75q-24 0 -39 -15t-15 -39v-38z" />
    <glyph glyph-name="fl" unicode="fl" horiz-adv-x="610" 
d="M542 718v-718h-115v618h-153q-24 0 -39 -15t-15 -39v-38h129v-107h-129v-419h-115v419h-83v107h83v47q0 68 40 106.5t112 38.5h285z" />
    <glyph glyph-name="f_f_i" unicode="ffi" horiz-adv-x="927" 
d="M755.5 623q-20.5 20 -20.5 49t20.5 49.5t49.5 20.5t49 -20.5t20 -49.5t-20 -49t-49 -20t-49.5 20zM542 526h321v-526h-115v419h-206v-419h-115v419h-207v-419h-115v419h-83v107h83v47q0 68 40 106.5t112 38.5h92v-100h-75q-24 0 -39 -15t-15 -39v-38h207v50
q0 68 39.5 105t111.5 37h92v-100h-75q-24 0 -38.5 -15t-14.5 -39v-38z" />
    <glyph glyph-name="f_f_l" unicode="ffl" horiz-adv-x="932" 
d="M863 718v-718h-115v618h-153q-24 0 -38.5 -15t-14.5 -39v-38h128v-107h-128v-419h-115v419h-207v-419h-115v419h-83v107h83v47q0 68 40 106.5t112 38.5h92v-100h-75q-24 0 -39 -15t-15 -39v-38h207v47q0 68 39.5 106.5t111.5 38.5h285z" />
    <glyph glyph-name=".notdef" horiz-adv-x="900" 
d="M100 0v284h45v-139h33v139h50v31h-128v126l19 -61h23l34 106l33 -106h23l54 170h-32l-34 -110l-35 110h-19l-35 -110l-31 103v157h700v-150h-110v-170h110v-91q-6 13 -19.5 20t-30.5 7q-27 0 -43.5 -14.5t-16.5 -34.5q0 -22 14.5 -32.5t39.5 -17.5q17 -5 25.5 -9.5
t8.5 -13.5q0 -21 -28 -21q-14 0 -21 7t-7 18h-33q0 -24 17 -39.5t44 -15.5q17 0 30.5 6.5t19.5 13.5v-163h-700zM311 380h33v62h24l35 -62h37l-40 67q36 17 36 50q0 22 -16 37.5t-41 15.5h-68v-170zM469 550v-170h33v170h-33zM580 519v-139h32v139h50v31h-132v-31h50z
M344 473v46h35q10 0 17 -6.5t7 -16.5q0 -12 -7.5 -17.5t-16.5 -5.5h-35zM800 483h-78v36h78v-36zM800 411h-78v41h78v-41zM387.5 167.5q22.5 24.5 22.5 61.5t-23 62t-59 25t-59 -25t-23 -62t22.5 -61.5t59.5 -24.5t59.5 24.5zM633 162q19 19 19 47v106h-32v-106
q0 -15 -9.5 -25t-25.5 -10q-17 0 -26.5 10.5t-9.5 24.5v106h-32v-106q0 -28 19.5 -47t48.5 -19t48 19zM800 224q-15 14 -46 22q-16 5 -23 9t-7 12q0 9 7.5 14.5t18.5 5.5q10 0 18 -7t8 -18h24v-38zM291.5 190q-14.5 16 -14.5 39q0 25 14 40.5t37 15.5q24 0 37.5 -15.5
t13.5 -40.5q0 -23 -14.5 -39t-36.5 -16t-36.5 16z" />
    <glyph glyph-name=".null" horiz-adv-x="0" 
 />
    <glyph glyph-name="nonmarkingreturn" horiz-adv-x="0" 
 />
    <glyph glyph-name="space" unicode=" " horiz-adv-x="226" 
 />
    <glyph glyph-name="exclam" unicode="!" horiz-adv-x="292" 
d="M192 218h-91l-15 417v65h121v-65zM96.5 15.5q-20.5 20.5 -20.5 49.5q0 30 20.5 50.5t49.5 20.5t50 -20.5t21 -50.5q0 -29 -21 -49.5t-50 -20.5t-49.5 20.5z" />
    <glyph glyph-name="quotedbl" unicode="&#x22;" horiz-adv-x="385" 
d="M162 474h-103v226h103v-226zM327 474h-103v226h103v-226z" />
    <glyph glyph-name="numbersign" unicode="#" horiz-adv-x="663" 
d="M647 528l-21 -97h-111l-34 -162h110l-21 -97h-110l-37 -172h-103l37 172h-127l-37 -172h-102l37 172h-111l20 97h112l34 162h-110l20 97h111l37 172h102l-37 -172h127l37 172h103l-37 -172h111zM251 269h127l34 162h-127z" />
    <glyph glyph-name="dollar" unicode="$" horiz-adv-x="612" 
d="M523 65.5q-55 -56.5 -155 -71.5v-104h-117v103q-91 12 -149 65t-71 140h125q12 -47 50.5 -73t97.5 -26q72 0 109 27t37 73q0 31 -20.5 50t-51 29t-84.5 22q-77 17 -124.5 35.5t-81.5 60.5t-34 115q0 80 53.5 131.5t143.5 63.5v104h117v-105q83 -14 133 -63.5t62 -123.5
h-125q-11 38 -44.5 60.5t-86.5 22.5q-58 0 -91.5 -25t-33.5 -65q0 -34 21.5 -54.5t53.5 -31.5t88 -24q75 -18 121 -36t79 -58t33 -108q0 -77 -55 -133.5z" />
    <glyph glyph-name="percent" unicode="%" horiz-adv-x="761" 
d="M81 428.5q-44 44.5 -44 118.5t44 118.5t114 44.5t114 -44.5t44 -118.5t-44 -118.5t-114 -44.5t-114 44.5zM208 0h-90l435 700h90zM250 484q21 23 21 63t-21 63t-55 23t-55 -23t-21 -63t21 -63t55 -23t55 23zM452 34.5q-44 44.5 -44 118.5t44 118.5t114 44.5t114 -44.5
t44 -118.5t-44 -118.5t-114 -44.5t-114 44.5zM621 90q21 23 21 63t-21 63t-55 23t-55 -23t-21 -63t21 -63t55 -23t55 23z" />
    <glyph glyph-name="ampersand" unicode="&#x26;" horiz-adv-x="672" 
d="M695 0h-152l-80 78q-47 -38 -97.5 -63t-118.5 -25t-117 24t-74 66t-25 96q0 53 26 97t74 74l36 23l-31 30q-30 30 -46 63t-16 77q0 46 24.5 85t69 62t100.5 23q88 0 139 -46.5t51 -121.5q0 -95 -88 -151l-45 -28l139 -136l79 81h145l-152 -153zM209 588.5
q-22 -21.5 -22 -56.5q0 -21 11 -38.5t36 -41.5l21 -21l42 30q24 17 36 35t12 43q0 30 -21.5 50.5t-55.5 20.5q-37 0 -59 -21.5zM386 154l-147 145l-29 -19q-30 -21 -43.5 -44t-13.5 -54q0 -40 27 -63t71 -23q77 0 135 58z" />
    <glyph glyph-name="quotesingle" unicode="'" horiz-adv-x="220" 
d="M162 474h-103v226h103v-226z" />
    <glyph glyph-name="parenleft" unicode="(" horiz-adv-x="338" 
d="M194 -200q-61 88 -95.5 207.5t-34.5 257.5t34.5 257.5t95.5 207.5h117q-62 -91 -96 -210t-34 -255t34 -255t96 -210h-117z" />
    <glyph glyph-name="parenright" unicode=")" horiz-adv-x="338" 
d="M27 -200q62 91 96 210t34 255t-34 255t-96 210h117q61 -88 95.5 -207.5t34.5 -257.5t-34.5 -257.5t-95.5 -207.5h-117z" />
    <glyph glyph-name="asterisk" unicode="*" horiz-adv-x="470" 
d="M235 443l-71 -119l-83 57l100 106l-144 34l31 93l131 -55l-13 141h98l-13 -141l131 55l31 -93l-144 -34l100 -106l-83 -57z" />
    <glyph glyph-name="plus" unicode="+" horiz-adv-x="600" 
d="M350 375h193v-100h-193v-193h-100v193h-193v100h193v193h100v-193z" />
    <glyph glyph-name="comma" unicode="," horiz-adv-x="226" 
d="M110 -106h-87l40 209h109z" />
    <glyph glyph-name="hyphen" unicode="-" horiz-adv-x="395" 
d="M355 218h-315v104h315v-104z" />
    <glyph glyph-name="period" unicode="." horiz-adv-x="226" 
d="M63.5 15.5q-20.5 20.5 -20.5 49.5q0 30 20.5 50.5t49.5 20.5t49.5 -20.5t20.5 -50.5q0 -29 -20.5 -49.5t-49.5 -20.5t-49.5 20.5z" />
    <glyph glyph-name="slash" unicode="/" horiz-adv-x="410" 
d="M120 -200h-120l290 930h120z" />
    <glyph glyph-name="zero" unicode="0" horiz-adv-x="676" 
d="M183.5 30.5q-66.5 40.5 -103 121.5t-36.5 198q0 115 36 196t102 122.5t156 41.5q88 0 154.5 -40.5t103 -121.5t36.5 -198q0 -115 -36 -196t-102 -122.5t-156 -41.5q-88 0 -154.5 40.5zM460 166.5q47 64.5 47 183.5q0 82 -22.5 137.5t-60.5 83t-86 27.5q-49 0 -87 -28.5
t-60 -84.5t-22 -135q0 -82 22.5 -137.5t61 -83t85.5 -27.5q75 0 122 64.5z" />
    <glyph glyph-name="one" unicode="1" horiz-adv-x="372" 
d="M171 0v504h-138v112h101q19 0 29.5 10.5t10.5 29.5v44h122v-700h-125z" />
    <glyph glyph-name="two" unicode="2" horiz-adv-x="583" 
d="M39 0v112l309 289q26 23 40 46.5t14 50.5q0 49 -29 74.5t-87 25.5q-49 0 -81.5 -27t-40.5 -71h-125q14 99 78 154.5t169 55.5q118 0 181 -56.5t63 -149.5q0 -89 -92 -174l-232 -218h334v-112h-501z" />
    <glyph glyph-name="three" unicode="3" horiz-adv-x="592" 
d="M107 45q-74 55 -78 155h125q7 -46 44.5 -72t91.5 -26q62 0 96.5 26t34.5 72q0 47 -35 74t-96 27h-56v101h56q58 0 89.5 27.5t31.5 70.5t-31.5 70.5t-89.5 27.5q-48 0 -83.5 -26t-42.5 -72h-125q13 101 81 155.5t173 54.5q72 0 127 -25t85.5 -70t30.5 -105
q0 -57 -28.5 -96.5t-79.5 -58.5q55 -19 86.5 -62t31.5 -103t-31.5 -105.5t-89 -70t-132.5 -24.5q-112 0 -186 55z" />
    <glyph glyph-name="four" unicode="4" horiz-adv-x="589" 
d="M480 0h-125v147h-335v108l291 445h169v-445h90v-108h-90v-147zM350 567l-203 -312h208v312h-5z" />
    <glyph glyph-name="five" unicode="5" horiz-adv-x="595" 
d="M129 46.5q-69 56.5 -85 153.5h125q11 -44 45 -71t82 -27q65 0 100.5 36t35.5 96t-37.5 97t-98.5 37q-75 0 -120 -62h-120l38 394h423v-109h-319l-16 -162h5q24 21 59.5 31.5t76.5 10.5q67 0 120.5 -30.5t83.5 -85.5t30 -124t-30.5 -124t-88.5 -86t-139 -31
q-101 0 -170 56.5z" />
    <glyph glyph-name="six" unicode="6" horiz-adv-x="598" 
d="M162 21q-59 31 -91 87.5t-32 129.5q0 53 18 104t55 109l157 249h138l-164 -254h5q28 16 78 16q63 0 116.5 -28t85.5 -81t32 -124q0 -68 -31.5 -122.5t-90.5 -85.5t-139 -31q-78 0 -137 31zM398 137q37 35 37 92q0 59 -38.5 95t-97.5 36q-62 0 -98.5 -35.5t-36.5 -95.5
q0 -57 37 -92t98 -35q62 0 99 35z" />
    <glyph glyph-name="seven" unicode="7" horiz-adv-x="530" 
d="M239 0h-134l260 588h-338v112h471v-112z" />
    <glyph glyph-name="eight" unicode="8" horiz-adv-x="608" 
d="M164 17q-58 27 -88 74t-30 107q0 54 32.5 98t79.5 64q-39 20 -68 61t-29 91q0 59 30.5 104t85.5 69.5t127 24.5t127.5 -24.5t86 -69.5t30.5 -104q0 -50 -29.5 -91t-68.5 -61q48 -20 80.5 -64t32.5 -98q0 -60 -30 -107t-88.5 -74t-140.5 -27t-140 27zM391.5 434.5
q31.5 27.5 31.5 71.5t-31.5 71t-87.5 27t-87 -27t-31 -71q0 -45 31 -72t87 -27t87.5 27.5zM402 125q36 29 36 79t-36 79.5t-98 29.5q-61 0 -97 -29.5t-36 -79.5t36 -79t97 -29q62 0 98 29z" />
    <glyph glyph-name="nine" unicode="9" horiz-adv-x="598" 
d="M192 0l163 254h-5q-28 -16 -77 -16q-63 0 -116.5 28t-85.5 80.5t-32 124.5q0 68 31.5 122.5t90.5 85.5t138 31q78 0 137.5 -31t91.5 -87.5t32 -129.5q0 -53 -18 -103.5t-55 -109.5l-157 -249h-138zM398 375.5q37 35.5 37 95.5q0 57 -37 92t-99 35q-61 0 -98 -35t-37 -92
q0 -59 38.5 -95t96.5 -36q62 0 99 35.5z" />
    <glyph glyph-name="colon" unicode=":" horiz-adv-x="226" 
d="M63.5 406q-20.5 21 -20.5 50t20.5 49.5t49.5 20.5t49.5 -20.5t20.5 -49.5t-20.5 -50t-49.5 -21t-49.5 21zM63.5 15.5q-20.5 20.5 -20.5 49.5q0 30 20.5 50.5t49.5 20.5t49.5 -20.5t20.5 -50.5q0 -29 -20.5 -49.5t-49.5 -20.5t-49.5 20.5z" />
    <glyph glyph-name="semicolon" unicode=";" horiz-adv-x="226" 
d="M63.5 406q-20.5 21 -20.5 50t20.5 49.5t49.5 20.5t49.5 -20.5t20.5 -49.5t-20.5 -50t-49.5 -21t-49.5 21zM106 -106h-88l41 209h108z" />
    <glyph glyph-name="less" unicode="&#x3c;" horiz-adv-x="600" 
d="M513 173v-110l-436 213v98l436 213v-110l-324 -152z" />
    <glyph glyph-name="equal" unicode="=" horiz-adv-x="600" 
d="M540 386h-480v94h480v-94zM540 172h-480v94h480v-94z" />
    <glyph glyph-name="greater" unicode="&#x3e;" horiz-adv-x="600" 
d="M523 276l-436 -213v110l324 152l-324 152v110l436 -213v-98z" />
    <glyph glyph-name="question" unicode="?" horiz-adv-x="512" 
d="M192 262q0 46 13.5 77.5t32 50t48.5 40.5q33 24 48.5 43t15.5 49q0 37 -26.5 60.5t-74.5 23.5q-41 0 -69.5 -26t-33.5 -67h-120q7 93 67 145t156 52q101 0 161 -49.5t60 -132.5q0 -39 -13 -68t-32 -48t-49 -42q-37 -30 -54.5 -52.5t-17.5 -55.5v-44h-112v44zM199.5 15.5
q-20.5 20.5 -20.5 49.5q0 30 20.5 50.5t49.5 20.5t50 -20.5t21 -50.5q0 -29 -21 -49.5t-50 -20.5t-49.5 20.5z" />
    <glyph glyph-name="at" unicode="@" horiz-adv-x="928" 
d="M441 -99q-117 0 -205 49t-136.5 139t-48.5 211q0 117 51.5 207.5t146 141t219.5 50.5q126 0 220 -51.5t144 -139.5t50 -194q0 -115 -48.5 -172t-126.5 -57q-45 0 -75.5 20t-42.5 47h-5q-18 -30 -52.5 -48.5t-84.5 -18.5q-86 0 -135.5 58t-49.5 152t49 152t131 58t123 -49
h5l10 44h73v-264q0 -33 14.5 -50.5t39.5 -17.5q38 0 58.5 32.5t20.5 110.5q0 80 -37 148t-108.5 108.5t-172.5 40.5q-96 0 -168.5 -39t-112.5 -109t-40 -160q0 -95 36 -164.5t102.5 -106.5t155.5 -37h172v-91h-172zM537 201.5q28 33.5 28 93.5t-28 93.5t-77 33.5t-77 -33.5
t-28 -93.5t28 -93.5t77 -33.5t77 33.5z" />
    <glyph glyph-name="A" unicode="A" horiz-adv-x="660" 
d="M661 0h-128l-53 147h-302l-53 -147h-126l256 700h150zM326 562l-109 -306h224l-110 306h-5z" />
    <glyph glyph-name="B" unicode="B" horiz-adv-x="659" 
d="M76 0v700h316q101 0 156 -52t55 -143q0 -50 -25 -90.5t-65 -59.5q43 -18 71.5 -61t28.5 -99q0 -91 -55 -143t-156 -52h-326zM378 400q47 0 73.5 25.5t26.5 70.5q0 44 -26.5 69.5t-73.5 25.5h-177v-191h177zM388 109q47 0 73.5 25.5t26.5 69.5q0 45 -26.5 70.5t-73.5 25.5
h-187v-191h187z" />
    <glyph glyph-name="C" unicode="C" horiz-adv-x="699" 
d="M197.5 32q-73.5 42 -113.5 123t-40 195t40 195t113.5 123t170.5 42q117 0 191.5 -57t105.5 -160h-130q-23 52 -63.5 78.5t-103.5 26.5q-90 0 -144.5 -64.5t-54.5 -183.5t54.5 -183.5t144.5 -64.5q63 0 103.5 26.5t63.5 78.5h130q-31 -103 -105.5 -160t-191.5 -57
q-97 0 -170.5 42z" />
    <glyph glyph-name="D" unicode="D" horiz-adv-x="694" 
d="M76 0v700h256q96 0 167.5 -41t111 -120t39.5 -189t-39.5 -189t-111 -120t-167.5 -41h-256zM329 112q57 0 101 27t69.5 80.5t25.5 130.5t-25.5 130.5t-69.5 80.5t-101 27h-128v-476h128z" />
    <glyph glyph-name="E" unicode="E" horiz-adv-x="596" 
d="M201 300v-188h346v-112h-471v700h461v-112h-336v-183h316v-105h-316z" />
    <glyph glyph-name="F" unicode="F" horiz-adv-x="576" 
d="M537 700v-112h-336v-196h311v-112h-311v-280h-125v700h461z" />
    <glyph glyph-name="G" unicode="G" horiz-adv-x="721" 
d="M197.5 32q-73.5 42 -113.5 123t-40 195t40 195t113.5 123t170.5 42q117 0 191.5 -57t105.5 -160h-130q-23 52 -63.5 78.5t-103.5 26.5q-90 0 -144.5 -64.5t-54.5 -183.5t55 -183.5t147 -64.5q76 0 125.5 44.5t57.5 118.5h-195v102h318v-49q0 -100 -37 -174t-106.5 -114
t-165.5 -40q-97 0 -170.5 42z" />
    <glyph glyph-name="H" unicode="H" horiz-adv-x="716" 
d="M515 408v292h125v-700h-125v297h-314v-297h-125v700h125v-292h314z" />
    <glyph glyph-name="I" unicode="I" horiz-adv-x="277" 
d="M201 0h-125v700h125v-700z" />
    <glyph glyph-name="J" unicode="J" horiz-adv-x="564" 
d="M97 44.5q-60 54.5 -70 158.5h125q7 -49 35 -75t72 -26q51 0 80 35t29 103v460h125v-460q0 -120 -62.5 -185t-171.5 -65q-102 0 -162 54.5z" />
    <glyph glyph-name="K" unicode="K" horiz-adv-x="619" 
d="M201 0h-125v700h125v-319l273 319h146l-294 -343l309 -357h-149l-285 330v-330z" />
    <glyph glyph-name="L" unicode="L" horiz-adv-x="554" 
d="M534 0h-458v700h125v-588h333v-112z" />
    <glyph glyph-name="M" unicode="M" horiz-adv-x="896" 
d="M201 0h-125v700h187l183 -521h6l183 521h185v-700h-125v533h-5l-189 -533h-106l-189 533h-5v-533z" />
    <glyph glyph-name="N" unicode="N" horiz-adv-x="745" 
d="M201 0h-125v700h166l298 -527h5v527h125v-700h-167l-297 527h-5v-527z" />
    <glyph glyph-name="O" unicode="O" horiz-adv-x="736" 
d="M197.5 32q-73.5 42 -113.5 123t-40 195t40 195t113.5 123t170.5 42t170.5 -42t113.5 -123t40 -195t-40 -195t-113.5 -123t-170.5 -42t-170.5 42zM512.5 166.5q54.5 64.5 54.5 183.5t-54.5 183.5t-144.5 64.5t-144.5 -64.5t-54.5 -183.5t54.5 -183.5t144.5 -64.5
t144.5 64.5z" />
    <glyph glyph-name="P" unicode="P" horiz-adv-x="637" 
d="M76 0v700h280q70 0 124 -30t83.5 -82.5t29.5 -119.5t-29.5 -120t-83.5 -83t-124 -30h-155v-235h-125zM345 347q58 0 90.5 33t32.5 88t-32.5 87.5t-90.5 32.5h-144v-241h144z" />
    <glyph glyph-name="Q" unicode="Q" horiz-adv-x="736" 
d="M656 164q-36 -78 -102 -122l95 -142h-131l-66 99q-39 -9 -84 -9q-97 0 -170.5 42t-113.5 123t-40 195t40 195t113.5 123t170.5 42t170.5 -42t113.5 -123t40 -195q0 -108 -36 -186zM223.5 166.5q54.5 -64.5 144.5 -64.5q13 0 19 1l-82 122h131l54 -81q37 31 57 83t20 123
q0 119 -54.5 183.5t-144.5 64.5t-144.5 -64.5t-54.5 -183.5t54.5 -183.5z" />
    <glyph glyph-name="R" unicode="R" horiz-adv-x="647" 
d="M613 0h-141l-177 258h-94v-258h-125v700h288q68 0 120 -27.5t80.5 -78t28.5 -116.5q0 -84 -46 -141t-116 -74zM201 588v-221h155q52 0 82 30t30 81q0 50 -30 80t-82 30h-155z" />
    <glyph glyph-name="S" unicode="S" horiz-adv-x="612" 
d="M118 44.5q-73 54.5 -87 153.5h125q12 -47 50.5 -73t97.5 -26q74 0 110 27.5t36 72.5q0 31 -20.5 50t-51 29t-84.5 22q-77 17 -124.5 35.5t-81.5 60.5t-34 115q0 60 31.5 105.5t88.5 69.5t130 24q112 0 178 -52t81 -140h-125q-11 38 -44.5 60.5t-86.5 22.5
q-60 0 -92.5 -25.5t-32.5 -64.5q0 -34 21.5 -54.5t53.5 -31.5t88 -24q75 -18 121 -36t79 -58t33 -108q0 -58 -32 -105.5t-94 -75.5t-148 -28q-113 0 -186 54.5z" />
    <glyph glyph-name="T" unicode="T" horiz-adv-x="594" 
d="M360 0h-125v588h-216v112h556v-112h-215v-588z" />
    <glyph glyph-name="U" unicode="U" horiz-adv-x="706" 
d="M203.5 26q-63.5 36 -98 105t-34.5 165v404h125v-404q0 -93 43 -143.5t114 -50.5t114 50.5t43 143.5v404h125v-404q0 -96 -34.5 -165t-98 -105t-149.5 -36t-149.5 36z" />
    <glyph glyph-name="V" unicode="V" horiz-adv-x="653" 
d="M407 0h-160l-243 700h133l188 -562h5l188 562h132z" />
    <glyph glyph-name="W" unicode="W" horiz-adv-x="937" 
d="M338 0h-148l-181 700h130l124 -534h5l132 534h138l132 -534h5l125 534h128l-181 -700h-149l-128 521h-5z" />
    <glyph glyph-name="X" unicode="X" horiz-adv-x="615" 
d="M136 0h-140l234 360l-224 340h141l162 -256l161 256h139l-224 -340l234 -360h-141l-171 274z" />
    <glyph glyph-name="Y" unicode="Y" horiz-adv-x="600" 
d="M363 0h-125v252l-245 448h133l173 -325h5l172 325h132l-245 -448v-252z" />
    <glyph glyph-name="Z" unicode="Z" horiz-adv-x="592" 
d="M557 0h-522v91l359 500h-349v109h507v-91l-360 -500h365v-109z" />
    <glyph glyph-name="bracketleft" unicode="[" horiz-adv-x="333" 
d="M307 -200h-231v930h231v-104h-119v-722h119v-104z" />
    <glyph glyph-name="backslash" unicode="\" horiz-adv-x="410" 
d="M410 -200h-120l-290 930h120z" />
    <glyph glyph-name="bracketright" unicode="]" horiz-adv-x="333" 
d="M258 -200h-231v104h119v722h-119v104h231v-930z" />
    <glyph glyph-name="asciicircum" unicode="^" horiz-adv-x="475" 
d="M140 380h-104l150 320h103l150 -320h-104l-95 216h-5z" />
    <glyph glyph-name="underscore" unicode="_" horiz-adv-x="420" 
d="M440 -218h-460v104h460v-104z" />
    <glyph glyph-name="grave" unicode="`" horiz-adv-x="267" 
d="M237 603h-92l-115 146h117z" />
    <glyph glyph-name="a" unicode="a" horiz-adv-x="542" 
d="M426 485q57 -51 57 -143v-342h-97l-13 64h-5q-18 -29 -57.5 -51.5t-93.5 -22.5q-55 0 -96.5 21t-64 58t-22.5 84q0 72 53 117.5t148 45.5h133v29q0 43 -28 66.5t-76 23.5q-36 0 -61 -15.5t-34 -40.5h-117q17 70 72.5 113.5t142.5 43.5q102 0 159 -51zM332.5 120.5
q35.5 32.5 35.5 84.5v23h-130q-44 0 -66.5 -19t-22.5 -50q0 -32 23 -51.5t66 -19.5q59 0 94.5 32.5z" />
    <glyph glyph-name="b" unicode="b" horiz-adv-x="608" 
d="M249.5 10q-39.5 20 -65.5 54h-5l-13 -64h-97v700h115v-233h5q23 29 61 49t92 20q67 0 118.5 -31.5t80.5 -93t29 -148.5t-29 -148.5t-80.5 -93t-118.5 -31.5q-53 0 -92.5 20zM417.5 137q37.5 43 37.5 126t-37.5 126t-98.5 43q-60 0 -97.5 -43t-37.5 -126t37.5 -126
t97.5 -43q61 0 98.5 43z" />
    <glyph glyph-name="c" unicode="c" horiz-adv-x="557" 
d="M107 62q-68 72 -68 201t68 201t184 72q94 0 152.5 -47t81.5 -126h-117q-38 69 -117 69q-61 0 -99 -44t-38 -125t38 -125t99 -44q79 0 117 69h117q-23 -79 -82 -126t-152 -47q-116 0 -184 72z" />
    <glyph glyph-name="d" unicode="d" horiz-adv-x="608" 
d="M148.5 21.5q-51.5 31.5 -80.5 93t-29 148.5t29 148.5t80.5 93t118.5 31.5q53 0 91.5 -20t61.5 -49h5v233h115v-700h-97l-13 64h-5q-26 -34 -65.5 -54t-92.5 -20q-67 0 -118.5 31.5zM387.5 137q37.5 43 37.5 126t-37.5 126t-98.5 43q-60 0 -97.5 -43t-37.5 -126t37.5 -126
t97.5 -43q61 0 98.5 43z" />
    <glyph glyph-name="e" unicode="e" horiz-adv-x="575" 
d="M532 226h-375q8 -66 42 -100.5t92 -34.5q41 0 66.5 15.5t44.5 46.5h123q-23 -73 -82 -118t-152 -45q-116 0 -184 72t-68 201q0 86 31 147.5t87.5 93.5t131.5 32q76 0 132 -35t86 -93.5t30 -128.5q0 -28 -5 -53zM423 314q-7 50 -41.5 85.5t-92.5 35.5q-54 0 -88.5 -32.5
t-43.5 -88.5h266z" />
    <glyph glyph-name="f" unicode="f" horiz-adv-x="369" 
d="M274 615q-24 0 -39 -15t-15 -39v-35h129v-107h-129v-419h-115v419h-83v107h83v47q0 68 40 106.5t112 38.5h92v-103h-75z" />
    <glyph glyph-name="g" unicode="g" horiz-adv-x="597" 
d="M131.5 -155q-59.5 45 -82.5 125h120q12 -32 43.5 -49t78.5 -17q59 0 93 29t34 83v81h-5q-21 -28 -60 -47.5t-89 -19.5q-102 0 -163.5 66.5t-61.5 186.5t61.5 186.5t163.5 66.5q49 0 89 -20t65 -52h5l14 62h96v-510q0 -104 -62.5 -160t-179.5 -56q-100 0 -159.5 45z
M382 174q36 40 36 109q0 70 -35.5 109.5t-96.5 39.5q-60 0 -96 -39.5t-36 -109.5q0 -69 36 -109t96 -40t96 40z" />
    <glyph glyph-name="h" unicode="h" horiz-adv-x="582" 
d="M69 0v700h115v-233h5q27 35 60.5 52t78.5 17q56 0 100 -25.5t69.5 -73.5t25.5 -114v-323h-115v311q0 57 -29.5 89t-79.5 32t-82.5 -34.5t-32.5 -86.5v-311h-115z" />
    <glyph glyph-name="i" unicode="i" horiz-adv-x="243" 
d="M179 0h-115v526h115v-526zM72.5 623q-20.5 20 -20.5 49t20 49.5t50 20.5q29 0 49 -20.5t20 -49.5t-20 -49t-49 -20t-49.5 20z" />
    <glyph glyph-name="j" unicode="j" horiz-adv-x="243" 
d="M-68 -200v104h78q24 0 39 15.5t15 41.5v565h115v-581q0 -70 -38.5 -107.5t-113.5 -37.5h-95zM72.5 623q-20.5 20 -20.5 49t20 49.5t50 20.5q29 0 49 -20.5t20 -49.5t-20 -49t-49 -20t-49.5 20z" />
    <glyph glyph-name="k" unicode="k" horiz-adv-x="535" 
d="M184 0h-115v700h115v-413l216 239h136l-231 -256l246 -270h-139l-228 249v-249z" />
    <glyph glyph-name="l" unicode="l" horiz-adv-x="253" 
d="M184 0h-115v700h115v-700z" />
    <glyph glyph-name="m" unicode="m" horiz-adv-x="872" 
d="M64 0v526h97l13 -64h5q46 74 131 74q47 0 86.5 -24t60.5 -65h5q21 41 65 65t96 24q55 0 98 -25.5t67.5 -73t24.5 -111.5v-326h-115v314q0 58 -28 88t-74 30q-42 0 -71 -32t-29 -86v-314h-115v314q0 58 -28 88t-74 30q-42 0 -71 -32t-29 -86v-314h-115z" />
    <glyph glyph-name="n" unicode="n" horiz-adv-x="577" 
d="M64 0v526h97l13 -64h5q25 37 63 55.5t81 18.5q57 0 101 -25.5t69 -74t25 -113.5v-323h-115v311q0 57 -29.5 89t-79.5 32t-82.5 -34.5t-32.5 -86.5v-311h-115z" />
    <glyph glyph-name="o" unicode="o" horiz-adv-x="582" 
d="M107 62q-68 72 -68 201t68 201t184 72t184 -72t68 -201t-68 -201t-184 -72t-184 72zM390 137q38 43 38 126t-38 126t-99 43q-60 0 -98.5 -43t-38.5 -126t38.5 -126t98.5 -43q61 0 99 43z" />
    <glyph glyph-name="p" unicode="p" horiz-adv-x="603" 
d="M64 -200v726h97l13 -64h5q26 34 65.5 54t92.5 20q67 0 118.5 -31.5t80.5 -93t29 -148.5t-29 -148.5t-80.5 -93t-118.5 -31.5q-54 0 -92 20t-61 49h-5v-259h-115zM412.5 137q37.5 43 37.5 126t-37.5 126t-98.5 43q-60 0 -97.5 -43t-37.5 -126t37.5 -126t97.5 -43
q61 0 98.5 43z" />
    <glyph glyph-name="q" unicode="q" horiz-adv-x="603" 
d="M425 -200v259h-5q-23 -29 -61.5 -49t-91.5 -20q-67 0 -118.5 31.5t-80.5 93t-29 148.5t29 148.5t80.5 93t118.5 31.5q53 0 92.5 -20t65.5 -54h5l13 64h97v-726h-115zM387.5 137q37.5 43 37.5 126t-37.5 126t-98.5 43q-60 0 -97.5 -43t-37.5 -126t37.5 -126t97.5 -43
q61 0 98.5 43z" />
    <glyph glyph-name="r" unicode="r" horiz-adv-x="386" 
d="M64 0v526h97l13 -64h5q41 64 131 64h61v-110h-55q-62 0 -99.5 -35.5t-37.5 -94.5v-286h-115z" />
    <glyph glyph-name="s" unicode="s" horiz-adv-x="498" 
d="M97.5 33q-57.5 43 -71.5 120h123q7 -28 33.5 -45t64.5 -17q54 0 79 16.5t25 41.5q0 28 -27.5 41t-84.5 25q-60 13 -99.5 28t-67.5 48.5t-28 90.5q0 43 24 78t70 55.5t109 20.5q88 0 144.5 -39t70.5 -112h-123q-7 22 -29.5 36t-62.5 14q-41 0 -63 -14.5t-22 -38.5
q0 -29 27.5 -42t86.5 -27q60 -13 98.5 -27.5t66.5 -47.5t28 -89q0 -73 -58.5 -116t-163.5 -43q-92 0 -149.5 43z" />
    <glyph glyph-name="t" unicode="t" horiz-adv-x="389" 
d="M257 0q-72 0 -112 38.5t-40 106.5v274h-83v107h83l16 140h99v-140h129v-107h-129v-258q0 -24 15 -39t39 -15h75v-107h-92z" />
    <glyph glyph-name="u" unicode="u" horiz-adv-x="582" 
d="M158 15.5q-44 25.5 -69 74t-25 113.5v323h115v-311q0 -57 29.5 -89t78.5 -32q51 0 83.5 34.5t32.5 86.5v311h115v-526h-97l-13 64h-5q-25 -37 -63 -55.5t-81 -18.5q-57 0 -101 25.5z" />
    <glyph glyph-name="v" unicode="v" horiz-adv-x="530" 
d="M335 0h-140l-193 526h123l139 -403h5l137 403h122z" />
    <glyph glyph-name="w" unicode="w" horiz-adv-x="774" 
d="M284 0h-132l-145 526h115l100 -383h5l104 383h114l104 -383h5l100 383h113l-145 -526h-132l-100 362h-5z" />
    <glyph glyph-name="x" unicode="x" horiz-adv-x="485" 
d="M120 0h-126l176 273l-166 253h128l112 -178l111 178h126l-166 -253l176 -273h-128l-121 195z" />
    <glyph glyph-name="y" unicode="y" horiz-adv-x="541" 
d="M254 -200h-120l80 200l-215 526h124l148 -378h5l145 378h121z" />
    <glyph glyph-name="z" unicode="z" horiz-adv-x="473" 
d="M443 0h-413v88l265 334h-255v104h398v-88l-266 -334h271v-104z" />
    <glyph glyph-name="braceleft" unicode="{" horiz-adv-x="346" 
d="M245 -200q-64 0 -101.5 37.5t-37.5 102.5v202q0 32 -18.5 50t-49.5 18v110q31 0 49.5 18t18.5 50v202q0 65 37.5 102.5t101.5 37.5h74v-104h-52q-26 0 -37.5 -12t-11.5 -39v-183q0 -54 -22.5 -84t-63.5 -35v-16q41 -5 63.5 -35t22.5 -84v-183q0 -27 11.5 -39t37.5 -12h52
v-104h-74z" />
    <glyph glyph-name="bar" unicode="|" horiz-adv-x="355" 
d="M235 -200h-115v930h115v-930z" />
    <glyph glyph-name="braceright" unicode="}" horiz-adv-x="346" 
d="M27 -200v104h52q26 0 37.5 12t11.5 39v183q0 54 22.5 84t63.5 35v16q-41 5 -63.5 35t-22.5 84v183q0 27 -11.5 39t-37.5 12h-52v104h73q65 0 102.5 -37.5t37.5 -102.5v-202q0 -32 18.5 -50t49.5 -18v-110q-31 0 -49.5 -18t-18.5 -50v-202q0 -65 -37.5 -102.5
t-102.5 -37.5h-73z" />
    <glyph glyph-name="asciitilde" unicode="~" horiz-adv-x="600" 
d="M333.5 250.5q-26.5 12.5 -55.5 35.5q-23 17 -37 24.5t-32 7.5q-28 0 -43.5 -18.5t-15.5 -56.5h-100q0 83 40.5 127t112.5 44q38 0 64.5 -12.5t55.5 -35.5q22 -17 36.5 -25t32.5 -8q28 0 43.5 19t15.5 57h100q0 -83 -40.5 -127t-112.5 -44q-38 0 -64.5 12.5z" />
    <glyph glyph-name="uni00A0" unicode="&#xa0;" horiz-adv-x="226" 
 />
    <glyph glyph-name="exclamdown" unicode="&#xa1;" horiz-adv-x="292" 
d="M96.5 406q-20.5 21 -20.5 50t20.5 49.5t49.5 20.5t50 -20.5t21 -49.5t-21 -50t-50 -21t-49.5 21zM207 -200h-121v65l15 438h91l15 -438v-65z" />
    <glyph glyph-name="cent" unicode="&#xa2;" horiz-adv-x="557" 
d="M408 163h117q-21 -71 -68.5 -114.5t-115.5 -54.5v-104h-104v104q-92 16 -145 86t-53 183t53 183t145 86v104h104v-104q68 -11 115.5 -54.5t68.5 -114.5h-117q-38 69 -117 69q-61 0 -99 -44t-38 -125t38 -125t99 -44q79 0 117 69z" />
    <glyph glyph-name="sterling" unicode="&#xa3;" horiz-adv-x="590" 
d="M562 112v-112h-528v112h25q55 0 55 66v104h-80v108h80v94q0 105 59 165.5t161 60.5q95 0 152 -51.5t66 -146.5h-129q-7 45 -28.5 65.5t-60.5 20.5q-44 0 -69.5 -30t-25.5 -89v-89h173v-108h-173v-103q0 -45 -25 -67h348z" />
    <glyph glyph-name="currency" unicode="&#xa4;" horiz-adv-x="596" 
d="M483 226l60 -63l-67 -63l-59 62q-53 -33 -119 -33q-67 0 -121 34l-59 -62l-67 63l61 63q-35 56 -35 123q0 68 35 122l-61 64l67 63l59 -62q54 34 121 34t121 -34l59 62l67 -63l-61 -63q35 -56 35 -123q0 -69 -36 -124zM387 257.5q35 35.5 35 92.5t-35 92.5t-89 35.5
t-88.5 -35.5t-34.5 -92.5t34.5 -92.5t88.5 -35.5t89 35.5z" />
    <glyph glyph-name="yen" unicode="&#xa5;" horiz-adv-x="597" 
d="M468 700h128l-172 -323h99v-103h-162v-58h162v-96h-162v-120h-125v120h-162v96h162v58h-162v103h99l-172 323h130l165 -323h7z" />
    <glyph glyph-name="brokenbar" unicode="&#xa6;" horiz-adv-x="355" 
d="M235 354h-115v376h115v-376zM235 -200h-115v376h115v-376z" />
    <glyph glyph-name="section" unicode="&#xa7;" horiz-adv-x="619" 
d="M545 50q0 -45 -26.5 -84t-79.5 -62.5t-129 -23.5q-100 0 -165 48t-81 136h122q11 -38 44.5 -59.5t82.5 -21.5q55 0 82.5 19t27.5 54q0 25 -18.5 39t-46 21t-77.5 15q-71 11 -116.5 25t-78 48.5t-32.5 97.5q0 37 17.5 68.5t49.5 54.5q-47 41 -47 115q0 46 27 85t79.5 62
t125.5 23q99 0 163 -46.5t81 -127.5h-122q-14 33 -47 52t-78 19q-53 0 -80 -19t-27 -54q0 -25 18.5 -39t46 -21t77.5 -15q71 -11 116.5 -25t78 -48.5t32.5 -97.5q0 -37 -17.5 -68.5t-49.5 -54.5q47 -41 47 -115zM194.5 266.5q18.5 -15.5 47 -23.5t77.5 -16q59 -11 85 -17
q39 25 39 72q0 26 -18.5 41.5t-47 23.5t-77.5 16q-59 11 -85 17q-39 -25 -39 -72q0 -26 18.5 -41.5z" />
    <glyph glyph-name="dieresis" unicode="&#xa8;" horiz-adv-x="379" 
d="M48.5 630q-18.5 18 -18.5 45t18.5 45t44.5 18q27 0 45.5 -18t18.5 -45t-18.5 -45t-45.5 -18q-26 0 -44.5 18zM240.5 630q-18.5 18 -18.5 45t18.5 45t45.5 18t45 -18t18 -45t-18 -45t-45 -18t-45.5 18z" />
    <glyph glyph-name="copyright" unicode="&#xa9;" horiz-adv-x="828" 
d="M228 36q-82 46 -128 128t-46 186t46 186t128 128t186 46t186 -46t128 -128t46 -186t-46 -186t-128 -128t-186 -46t-186 46zM555.5 105.5q62.5 35.5 97.5 99t35 145.5t-35 145.5t-97.5 99t-141.5 35.5t-141.5 -35.5t-98 -99t-35.5 -145.5t35.5 -145.5t98 -99t141.5 -35.5
t141.5 35.5zM286 210.5q-48 50.5 -48 139.5t48 139.5t130 50.5q61 0 104 -32.5t57 -89.5h-82q-11 23 -31 36.5t-48 13.5q-47 0 -72.5 -30t-25.5 -88t25.5 -88t72.5 -30q28 0 48 13.5t31 36.5h82q-14 -57 -57 -89.5t-104 -32.5q-82 0 -130 50.5z" />
    <glyph glyph-name="ordfeminine" unicode="&#xaa;" horiz-adv-x="367" 
d="M290.5 675q39.5 -35 39.5 -95v-225h-72l-5 44h-5q-34 -49 -99 -49q-59 0 -90.5 33.5t-31.5 78.5q0 49 31.5 78.5t93.5 29.5h96v10q0 26 -15 41t-48 15q-24 0 -36 -7.5t-20 -24.5h-87q5 45 43.5 75.5t97.5 30.5q68 0 107.5 -35zM225 445q23 21 23 52v10h-95
q-21 0 -32.5 -11t-11.5 -28q0 -44 58 -44q35 0 58 21z" />
    <glyph glyph-name="guillemotleft" unicode="&#xab;" horiz-adv-x="658" 
d="M384 30h-134l-213 238l213 238h134l-213 -235v-6zM632 30h-134l-213 238l213 238h134l-214 -235v-6z" />
    <glyph glyph-name="logicalnot" unicode="&#xac;" horiz-adv-x="600" 
d="M521 184h-98v123h-344v100h442v-223z" />
    <glyph glyph-name="uni00AD" unicode="&#xad;" horiz-adv-x="395" 
d="M355 218h-315v104h315v-104z" />
    <glyph glyph-name="registered" unicode="&#xae;" horiz-adv-x="828" 
d="M600 664q82 -46 128 -128t46 -186t-46 -186t-128 -128t-186 -46t-186 46t-128 128t-46 186t46 186t128 128t186 46t186 -46zM555.5 105.5q62.5 35.5 97.5 99t35 145.5t-35 145.5t-97.5 99t-141.5 35.5t-141.5 -35.5t-98 -99t-35.5 -145.5t35.5 -145.5t98 -99t141.5 -35.5
t141.5 35.5zM549.5 342q-24.5 -30 -67.5 -40l95 -137h-90l-92 132h-30v-132h-80v375h156q63 0 98 -33.5t35 -89.5q0 -45 -24.5 -75zM365 470v-106h71q57 0 57 53t-57 53h-71z" />
    <glyph glyph-name="macron" unicode="&#xaf;" horiz-adv-x="352" 
d="M322 632h-292v83h292v-83z" />
    <glyph glyph-name="degree" unicode="&#xb0;" horiz-adv-x="392" 
d="M88.5 463q-41.5 42 -41.5 107t41.5 107t107.5 42t107.5 -42t41.5 -107t-41.5 -107t-107.5 -42t-107.5 42zM246.5 515.5q18.5 19.5 18.5 54.5t-18.5 54.5t-50.5 19.5t-50.5 -19.5t-18.5 -54.5t18.5 -54.5t50.5 -19.5t50.5 19.5z" />
    <glyph glyph-name="plusminus" unicode="&#xb1;" horiz-adv-x="600" 
d="M350 602v-177h193v-101h-193v-177h-100v177h-193v101h193v177h100zM543 13h-486v95h486v-95z" />
    <glyph glyph-name="uni00B2" unicode="&#xb2;" horiz-adv-x="337" 
d="M29 400v77l151 136q38 35 38 72q0 20 -13 31.5t-38 11.5t-38 -12.5t-15 -33.5h-85q6 55 40 89t101 34q62 0 97.5 -33.5t35.5 -86.5q0 -31 -13.5 -56.5t-41.5 -51.5l-109 -100h162v-77h-272z" />
    <glyph glyph-name="uni00B3" unicode="&#xb3;" horiz-adv-x="341" 
d="M68 425q-39 30 -46 81h82q11 -37 64 -37q28 0 43.5 15t15.5 39q0 22 -15 35.5t-42 13.5h-37v66h37q27 0 39.5 13.5t12.5 35.5q0 19 -15 31.5t-44 12.5q-28 0 -41.5 -13t-17.5 -36h-82q6 54 42 88.5t99 34.5q66 0 103.5 -31.5t37.5 -78.5q0 -31 -16 -54t-38 -33
q27 -12 43 -35.5t16 -54.5q0 -55 -38.5 -89t-102.5 -34q-61 0 -100 30z" />
    <glyph glyph-name="acute" unicode="&#xb4;" horiz-adv-x="267" 
d="M122 603h-92l90 146h117z" />
    <glyph glyph-name="uni00B5" unicode="&#xb5;" horiz-adv-x="582" 
d="M64 -180v706h115v-311q0 -57 29.5 -89t78.5 -32q51 0 83.5 34.5t32.5 86.5v311h115v-526h-97l-13 64h-5q-20 -35 -55 -54.5t-77 -19.5q-31 0 -55 9.5t-40 24.5v-204h-112z" />
    <glyph glyph-name="paragraph" unicode="&#xb6;" horiz-adv-x="570" 
d="M205 325q-74 0 -120 51.5t-46 136.5q0 84 46 135.5t120 51.5h289v-810h-107v712h-74v-712h-108v435z" />
    <glyph glyph-name="periodcentered" unicode="&#xb7;" horiz-adv-x="226" 
d="M63.5 218.5q-20.5 20.5 -20.5 49.5q0 30 20.5 50.5t49.5 20.5t49.5 -20.5t20.5 -50.5q0 -29 -20.5 -49.5t-49.5 -20.5t-49.5 20.5z" />
    <glyph glyph-name="cedilla" unicode="&#xb8;" horiz-adv-x="228" 
d="M117 -35q33 -2 57 -25.5t24 -60.5q0 -46 -27 -72.5t-75 -26.5h-66v68h53q16 0 25 8.5t9 22.5q0 13 -9 21t-24 8h-44v47l31 72l66 -17z" />
    <glyph glyph-name="uni00B9" unicode="&#xb9;" horiz-adv-x="262" 
d="M118 400v268h-88v77h66q11 0 18 7t7 18v30h79v-400h-82z" />
    <glyph glyph-name="ordmasculine" unicode="&#xba;" horiz-adv-x="390" 
d="M76.5 397q-44.5 47 -44.5 133t44.5 133t118.5 47t118.5 -47t44.5 -133t-44.5 -133t-118.5 -47t-118.5 47zM253.5 454.5q22.5 27.5 22.5 75.5t-22.5 75.5t-58.5 27.5t-58.5 -27.5t-22.5 -75.5t22.5 -75.5t58.5 -27.5t58.5 27.5z" />
    <glyph glyph-name="guillemotright" unicode="&#xbb;" horiz-adv-x="658" 
d="M161 30h-134l213 235v6l-213 235h134l213 -238zM408 30h-133l213 235v6l-213 235h133l214 -238z" />
    <glyph glyph-name="onequarter" unicode="&#xbc;" horiz-adv-x="750" 
d="M118 300v268h-88v77h66q11 0 18 7t7 18v30h79v-400h-82zM162 0h-89l435 700h89zM682 0h-82v87h-182v74l160 239h104v-239h58v-74h-58v-87zM595 302l-93 -141h98v141h-5z" />
    <glyph glyph-name="onehalf" unicode="&#xbd;" horiz-adv-x="746" 
d="M118 300v268h-88v77h66q11 0 18 7t7 18v30h79v-400h-82zM162 0h-89l435 700h89zM438 0v77l151 136q38 35 38 72q0 20 -13 31.5t-38 11.5t-38 -12.5t-15 -33.5h-85q6 55 40 89t101 34q62 0 97.5 -33.5t35.5 -86.5q0 -31 -13.5 -56.5t-41.5 -51.5l-109 -100h162v-77h-272z
" />
    <glyph glyph-name="threequarters" unicode="&#xbe;" horiz-adv-x="799" 
d="M68 325q-39 30 -46 81h82q11 -37 64 -37q28 0 43.5 15t15.5 39q0 22 -15 35.5t-42 13.5h-37v66h37q27 0 39.5 13.5t12.5 35.5q0 19 -15 31.5t-44 12.5q-28 0 -41.5 -13t-17.5 -36h-82q6 54 42 88.5t99 34.5q66 0 103.5 -31.5t37.5 -78.5q0 -31 -16 -54t-38 -33
q27 -12 43 -35.5t16 -54.5q0 -55 -38.5 -89t-102.5 -34q-61 0 -100 30zM241 0h-89l435 700h89zM731 0h-82v87h-182v74l160 239h104v-239h58v-74h-58v-87zM644 302l-93 -141h98v141h-5z" />
    <glyph glyph-name="questiondown" unicode="&#xbf;" horiz-adv-x="512" 
d="M213.5 406q-20.5 21 -20.5 50t20.5 49.5t49.5 20.5t49.5 -20.5t20.5 -49.5t-20.5 -50t-49.5 -21t-49.5 21zM103.5 -161q-60.5 49 -60.5 135q0 40 13 70t31 49.5t48 44.5q37 31 55 55.5t18 60.5v49h112v-49q0 -48 -13 -80.5t-31.5 -52.5t-48.5 -43q-33 -27 -48.5 -46.5
t-15.5 -51.5q0 -39 26 -62.5t74 -23.5q42 0 70 26t34 67h120q-7 -93 -67 -145t-157 -52q-99 0 -159.5 49z" />
    <glyph glyph-name="Agrave" unicode="&#xc0;" horiz-adv-x="660" 
d="M661 0h-128l-53 147h-302l-53 -147h-126l256 700h150zM326 562l-109 -306h224l-110 306h-5zM380 767h-92l-115 146h117z" />
    <glyph glyph-name="Aacute" unicode="&#xc1;" horiz-adv-x="660" 
d="M661 0h-128l-53 147h-302l-53 -147h-126l256 700h150zM326 562l-109 -306h224l-110 306h-5zM373 767h-92l90 146h117z" />
    <glyph glyph-name="Acircumflex" unicode="&#xc2;" horiz-adv-x="660" 
d="M661 0h-128l-53 147h-302l-53 -147h-126l256 700h150zM326 562l-109 -306h224l-110 306h-5zM257 767h-102l133 151h84l133 -151h-102l-71 84h-5z" />
    <glyph glyph-name="Atilde" unicode="&#xc3;" horiz-adv-x="660" 
d="M661 0h-128l-53 147h-302l-53 -147h-126l256 700h150zM326 562l-109 -306h224l-110 306h-5zM359 785.5q-16 6.5 -37 19.5q-14 9 -23 13.5t-18 4.5q-13 0 -20 -10t-7 -29h-85q0 54 26.5 85.5t69.5 31.5q20 0 36 -6.5t37 -19.5q14 -9 23 -13.5t18 -4.5q13 0 20 10t7 29h85
q0 -54 -26.5 -85.5t-69.5 -31.5q-20 0 -36 6.5z" />
    <glyph glyph-name="Adieresis" unicode="&#xc4;" horiz-adv-x="660" 
d="M661 0h-128l-53 147h-302l-53 -147h-126l256 700h150zM326 562l-109 -306h224l-110 306h-5zM189.5 794q-18.5 18 -18.5 45t18.5 45t44.5 18q27 0 45.5 -18t18.5 -45t-18.5 -45t-45.5 -18q-26 0 -44.5 18zM381.5 794q-18.5 18 -18.5 45t18.5 45t45.5 18t45 -18t18 -45
t-18 -45t-45 -18t-45.5 18z" />
    <glyph glyph-name="Aring" unicode="&#xc5;" horiz-adv-x="660" 
d="M661 0h-128l-53 147h-302l-53 -147h-126l256 700h150zM326 562l-109 -306h224l-110 306h-5zM254 768.5q-29 29.5 -29 75.5q0 47 29 76t76 29q46 0 75.5 -29t29.5 -76q0 -46 -29.5 -75.5t-75.5 -29.5q-47 0 -76 29.5zM361.5 812.5q11.5 11.5 11.5 31.5t-11.5 31.5
t-31.5 11.5t-31.5 -11.5t-11.5 -31.5t11.5 -31.5t31.5 -11.5t31.5 11.5z" />
    <glyph glyph-name="AE" unicode="&#xc6;" horiz-adv-x="953" 
d="M558 300v-188h347v-112h-472v147h-254l-72 -147h-136l348 700h576v-112h-337v-183h317v-105h-317zM395 588l-163 -332h201v332h-38z" />
    <glyph glyph-name="Ccedilla" unicode="&#xc7;" horiz-adv-x="699" 
d="M471.5 128.5q40.5 26.5 63.5 78.5h130q-28 -95 -94 -151t-168 -65l-12 -26q33 -2 57 -25.5t24 -60.5q0 -46 -27 -72.5t-75 -26.5h-66v68h53q16 0 25 8.5t9 22.5q0 13 -9 21t-24 8h-44v47l16 37q-132 12 -209 105.5t-77 252.5q0 114 40 195t113.5 123t170.5 42
q117 0 191.5 -57t105.5 -160h-130q-23 52 -63.5 78.5t-103.5 26.5q-90 0 -144.5 -64.5t-54.5 -183.5t54.5 -183.5t144.5 -64.5q63 0 103.5 26.5z" />
    <glyph glyph-name="Egrave" unicode="&#xc8;" horiz-adv-x="596" 
d="M201 300v-188h346v-112h-471v700h461v-112h-336v-183h316v-105h-316zM357 767h-92l-115 146h117z" />
    <glyph glyph-name="Eacute" unicode="&#xc9;" horiz-adv-x="596" 
d="M201 300v-188h346v-112h-471v700h461v-112h-336v-183h316v-105h-316zM350 767h-92l90 146h117z" />
    <glyph glyph-name="Ecircumflex" unicode="&#xca;" horiz-adv-x="596" 
d="M201 300v-188h346v-112h-471v700h461v-112h-336v-183h316v-105h-316zM234 767h-102l133 151h84l133 -151h-102l-71 84h-5z" />
    <glyph glyph-name="Edieresis" unicode="&#xcb;" horiz-adv-x="596" 
d="M201 300v-188h346v-112h-471v700h461v-112h-336v-183h316v-105h-316zM165.5 794q-18.5 18 -18.5 45t18.5 45t44.5 18q27 0 45.5 -18t18.5 -45t-18.5 -45t-45.5 -18q-26 0 -44.5 18zM357.5 794q-18.5 18 -18.5 45t18.5 45t45.5 18t45 -18t18 -45t-18 -45t-45 -18t-45.5 18
z" />
    <glyph glyph-name="Igrave" unicode="&#xcc;" horiz-adv-x="277" 
d="M201 0h-125v700h125v-700zM188 767h-92l-115 146h117z" />
    <glyph glyph-name="Iacute" unicode="&#xcd;" horiz-adv-x="277" 
d="M201 0h-125v700h125v-700zM181 767h-92l90 146h117z" />
    <glyph glyph-name="Icircumflex" unicode="&#xce;" horiz-adv-x="277" 
d="M201 0h-125v700h125v-700zM65 767h-102l133 151h84l133 -151h-102l-71 84h-5z" />
    <glyph glyph-name="Idieresis" unicode="&#xcf;" horiz-adv-x="277" 
d="M201 0h-125v700h125v-700zM22 794q-17 18 -17 45t17 45t43 18t43 -18t17 -45t-17 -45t-43 -18t-43 18zM168.5 794q-17.5 18 -17.5 45t17.5 45t43.5 18t43 -18t17 -45t-17 -45t-43 -18t-43.5 18z" />
    <glyph glyph-name="Eth" unicode="&#xd0;" horiz-adv-x="699" 
d="M337 700q96 0 167.5 -41t111 -120t39.5 -189t-39.5 -189t-111 -120t-167.5 -41h-256v300h-82v100h82v300h256zM334 112q57 0 101 27t69.5 80.5t25.5 130.5t-25.5 130.5t-69.5 80.5t-101 27h-128v-188h159v-100h-159v-188h128z" />
    <glyph glyph-name="Ntilde" unicode="&#xd1;" horiz-adv-x="745" 
d="M201 0h-125v700h166l298 -527h5v527h125v-700h-167l-297 527h-5v-527zM401 785.5q-16 6.5 -37 19.5q-14 9 -23 13.5t-18 4.5q-13 0 -20 -10t-7 -29h-85q0 54 26.5 85.5t69.5 31.5q20 0 36 -6.5t37 -19.5q14 -9 23 -13.5t18 -4.5q13 0 20 10t7 29h85q0 -54 -26.5 -85.5
t-69.5 -31.5q-20 0 -36 6.5z" />
    <glyph glyph-name="Ograve" unicode="&#xd2;" horiz-adv-x="736" 
d="M197.5 32q-73.5 42 -113.5 123t-40 195t40 195t113.5 123t170.5 42t170.5 -42t113.5 -123t40 -195t-40 -195t-113.5 -123t-170.5 -42t-170.5 42zM512.5 166.5q54.5 64.5 54.5 183.5t-54.5 183.5t-144.5 64.5t-144.5 -64.5t-54.5 -183.5t54.5 -183.5t144.5 -64.5
t144.5 64.5zM418 767h-92l-115 146h117z" />
    <glyph glyph-name="Oacute" unicode="&#xd3;" horiz-adv-x="736" 
d="M197.5 32q-73.5 42 -113.5 123t-40 195t40 195t113.5 123t170.5 42t170.5 -42t113.5 -123t40 -195t-40 -195t-113.5 -123t-170.5 -42t-170.5 42zM512.5 166.5q54.5 64.5 54.5 183.5t-54.5 183.5t-144.5 64.5t-144.5 -64.5t-54.5 -183.5t54.5 -183.5t144.5 -64.5
t144.5 64.5zM411 767h-92l90 146h117z" />
    <glyph glyph-name="Ocircumflex" unicode="&#xd4;" horiz-adv-x="736" 
d="M197.5 32q-73.5 42 -113.5 123t-40 195t40 195t113.5 123t170.5 42t170.5 -42t113.5 -123t40 -195t-40 -195t-113.5 -123t-170.5 -42t-170.5 42zM512.5 166.5q54.5 64.5 54.5 183.5t-54.5 183.5t-144.5 64.5t-144.5 -64.5t-54.5 -183.5t54.5 -183.5t144.5 -64.5
t144.5 64.5zM295 767h-102l133 151h84l133 -151h-102l-71 84h-5z" />
    <glyph glyph-name="Otilde" unicode="&#xd5;" horiz-adv-x="736" 
d="M197.5 32q-73.5 42 -113.5 123t-40 195t40 195t113.5 123t170.5 42t170.5 -42t113.5 -123t40 -195t-40 -195t-113.5 -123t-170.5 -42t-170.5 42zM512.5 166.5q54.5 64.5 54.5 183.5t-54.5 183.5t-144.5 64.5t-144.5 -64.5t-54.5 -183.5t54.5 -183.5t144.5 -64.5
t144.5 64.5zM397 785.5q-16 6.5 -37 19.5q-14 9 -23 13.5t-18 4.5q-13 0 -20 -10t-7 -29h-85q0 54 26.5 85.5t69.5 31.5q20 0 36 -6.5t37 -19.5q14 -9 23 -13.5t18 -4.5q13 0 20 10t7 29h85q0 -54 -26.5 -85.5t-69.5 -31.5q-20 0 -36 6.5z" />
    <glyph glyph-name="Odieresis" unicode="&#xd6;" horiz-adv-x="736" 
d="M197.5 32q-73.5 42 -113.5 123t-40 195t40 195t113.5 123t170.5 42t170.5 -42t113.5 -123t40 -195t-40 -195t-113.5 -123t-170.5 -42t-170.5 42zM512.5 166.5q54.5 64.5 54.5 183.5t-54.5 183.5t-144.5 64.5t-144.5 -64.5t-54.5 -183.5t54.5 -183.5t144.5 -64.5
t144.5 64.5zM226.5 794q-18.5 18 -18.5 45t18.5 45t44.5 18q27 0 45.5 -18t18.5 -45t-18.5 -45t-45.5 -18q-26 0 -44.5 18zM418.5 794q-18.5 18 -18.5 45t18.5 45t45.5 18t45 -18t18 -45t-18 -45t-45 -18t-45.5 18z" />
    <glyph glyph-name="multiply" unicode="&#xd7;" horiz-adv-x="600" 
d="M301 260l-164 -164l-67 67l163 164l-163 163l67 67l164 -163l163 163l67 -67l-163 -163l163 -164l-67 -67z" />
    <glyph glyph-name="Oslash" unicode="&#xd8;" horiz-adv-x="736" 
d="M587 633q50 -47 77.5 -118.5t27.5 -164.5q0 -114 -40 -195t-113.5 -123t-170.5 -42q-74 0 -134 24l-23 -39h-115l53 92q-50 47 -77.5 118.5t-27.5 164.5q0 114 40 195t113.5 123t170.5 42q76 0 135 -25l23 40h114zM213 180l232 404q-36 14 -77 14q-90 0 -144.5 -64.5
t-54.5 -183.5q0 -106 44 -170zM512.5 166.5q54.5 64.5 54.5 183.5q0 106 -44 170l-231 -404q36 -14 76 -14q90 0 144.5 64.5z" />
    <glyph glyph-name="Ugrave" unicode="&#xd9;" horiz-adv-x="706" 
d="M203.5 26q-63.5 36 -98 105t-34.5 165v404h125v-404q0 -93 43 -143.5t114 -50.5t114 50.5t43 143.5v404h125v-404q0 -96 -34.5 -165t-98 -105t-149.5 -36t-149.5 36zM403 767h-92l-115 146h117z" />
    <glyph glyph-name="Uacute" unicode="&#xda;" horiz-adv-x="706" 
d="M203.5 26q-63.5 36 -98 105t-34.5 165v404h125v-404q0 -93 43 -143.5t114 -50.5t114 50.5t43 143.5v404h125v-404q0 -96 -34.5 -165t-98 -105t-149.5 -36t-149.5 36zM396 767h-92l90 146h117z" />
    <glyph glyph-name="Ucircumflex" unicode="&#xdb;" horiz-adv-x="706" 
d="M203.5 26q-63.5 36 -98 105t-34.5 165v404h125v-404q0 -93 43 -143.5t114 -50.5t114 50.5t43 143.5v404h125v-404q0 -96 -34.5 -165t-98 -105t-149.5 -36t-149.5 36zM280 767h-102l133 151h84l133 -151h-102l-71 84h-5z" />
    <glyph glyph-name="Udieresis" unicode="&#xdc;" horiz-adv-x="706" 
d="M203.5 26q-63.5 36 -98 105t-34.5 165v404h125v-404q0 -93 43 -143.5t114 -50.5t114 50.5t43 143.5v404h125v-404q0 -96 -34.5 -165t-98 -105t-149.5 -36t-149.5 36zM211.5 794q-18.5 18 -18.5 45t18.5 45t44.5 18q27 0 45.5 -18t18.5 -45t-18.5 -45t-45.5 -18
q-26 0 -44.5 18zM403.5 794q-18.5 18 -18.5 45t18.5 45t45.5 18t45 -18t18 -45t-18 -45t-45 -18t-45.5 18z" />
    <glyph glyph-name="Yacute" unicode="&#xdd;" horiz-adv-x="600" 
d="M363 0h-125v252l-245 448h133l173 -325h5l172 325h132l-245 -448v-252zM344 767h-92l90 146h117z" />
    <glyph glyph-name="Thorn" unicode="&#xde;" horiz-adv-x="705" 
d="M76 0v700h125v-150h244q107 0 164.5 -53.5t57.5 -146.5t-57.5 -146.5t-164.5 -53.5h-244v-150h-125zM434 262q108 0 108 88t-108 88h-233v-176h233z" />
    <glyph glyph-name="germandbls" unicode="&#xdf;" horiz-adv-x="573" 
d="M64 504q0 94 59 150t166 56q74 0 125 -27.5t76 -71t25 -92.5q0 -54 -27.5 -95.5t-73.5 -60.5q57 -15 91.5 -61.5t34.5 -108.5q0 -93 -60 -143t-176 -50h-49v104h52q57 0 87.5 27t30.5 75q0 45 -30 72t-88 27h-52v100h31q52 0 83 26.5t31 74.5q0 44 -30.5 72t-80.5 28
t-80 -29t-30 -76v-501h-115v504z" />
    <glyph glyph-name="agrave" unicode="&#xe0;" horiz-adv-x="542" 
d="M426 485q57 -51 57 -143v-342h-97l-13 64h-5q-18 -29 -57.5 -51.5t-93.5 -22.5q-55 0 -96.5 21t-64 58t-22.5 84q0 72 53 117.5t148 45.5h133v29q0 43 -28 66.5t-76 23.5q-36 0 -61 -15.5t-34 -40.5h-117q17 70 72.5 113.5t142.5 43.5q102 0 159 -51zM332.5 120.5
q35.5 32.5 35.5 84.5v23h-130q-44 0 -66.5 -19t-22.5 -50q0 -32 23 -51.5t66 -19.5q59 0 94.5 32.5zM322 603h-92l-115 146h117z" />
    <glyph glyph-name="aacute" unicode="&#xe1;" horiz-adv-x="542" 
d="M426 485q57 -51 57 -143v-342h-97l-13 64h-5q-18 -29 -57.5 -51.5t-93.5 -22.5q-55 0 -96.5 21t-64 58t-22.5 84q0 72 53 117.5t148 45.5h133v29q0 43 -28 66.5t-76 23.5q-36 0 -61 -15.5t-34 -40.5h-117q17 70 72.5 113.5t142.5 43.5q102 0 159 -51zM332.5 120.5
q35.5 32.5 35.5 84.5v23h-130q-44 0 -66.5 -19t-22.5 -50q0 -32 23 -51.5t66 -19.5q59 0 94.5 32.5zM315 603h-92l90 146h117z" />
    <glyph glyph-name="acircumflex" unicode="&#xe2;" horiz-adv-x="542" 
d="M426 485q57 -51 57 -143v-342h-97l-13 64h-5q-18 -29 -57.5 -51.5t-93.5 -22.5q-55 0 -96.5 21t-64 58t-22.5 84q0 72 53 117.5t148 45.5h133v29q0 43 -28 66.5t-76 23.5q-36 0 -61 -15.5t-34 -40.5h-117q17 70 72.5 113.5t142.5 43.5q102 0 159 -51zM332.5 120.5
q35.5 32.5 35.5 84.5v23h-130q-44 0 -66.5 -19t-22.5 -50q0 -32 23 -51.5t66 -19.5q59 0 94.5 32.5zM199 603h-102l133 151h84l133 -151h-102l-71 84h-5z" />
    <glyph glyph-name="atilde" unicode="&#xe3;" horiz-adv-x="542" 
d="M426 485q57 -51 57 -143v-342h-97l-13 64h-5q-18 -29 -57.5 -51.5t-93.5 -22.5q-55 0 -96.5 21t-64 58t-22.5 84q0 72 53 117.5t148 45.5h133v29q0 43 -28 66.5t-76 23.5q-36 0 -61 -15.5t-34 -40.5h-117q17 70 72.5 113.5t142.5 43.5q102 0 159 -51zM332.5 120.5
q35.5 32.5 35.5 84.5v23h-130q-44 0 -66.5 -19t-22.5 -50q0 -32 23 -51.5t66 -19.5q59 0 94.5 32.5zM301 621.5q-16 6.5 -37 19.5q-14 9 -23 13.5t-18 4.5q-13 0 -20 -10t-7 -29h-85q0 54 26.5 85.5t69.5 31.5q20 0 36 -6.5t37 -19.5q14 -9 23 -13.5t18 -4.5q13 0 20 10
t7 29h85q0 -54 -26.5 -85.5t-69.5 -31.5q-20 0 -36 6.5z" />
    <glyph glyph-name="adieresis" unicode="&#xe4;" horiz-adv-x="542" 
d="M426 485q57 -51 57 -143v-342h-97l-13 64h-5q-18 -29 -57.5 -51.5t-93.5 -22.5q-55 0 -96.5 21t-64 58t-22.5 84q0 72 53 117.5t148 45.5h133v29q0 43 -28 66.5t-76 23.5q-36 0 -61 -15.5t-34 -40.5h-117q17 70 72.5 113.5t142.5 43.5q102 0 159 -51zM332.5 120.5
q35.5 32.5 35.5 84.5v23h-130q-44 0 -66.5 -19t-22.5 -50q0 -32 23 -51.5t66 -19.5q59 0 94.5 32.5zM131.5 630q-18.5 18 -18.5 45t18.5 45t44.5 18q27 0 45.5 -18t18.5 -45t-18.5 -45t-45.5 -18q-26 0 -44.5 18zM323.5 630q-18.5 18 -18.5 45t18.5 45t45.5 18t45 -18
t18 -45t-18 -45t-45 -18t-45.5 18z" />
    <glyph glyph-name="aring" unicode="&#xe5;" horiz-adv-x="542" 
d="M426 485q57 -51 57 -143v-342h-97l-13 64h-5q-18 -29 -57.5 -51.5t-93.5 -22.5q-55 0 -96.5 21t-64 58t-22.5 84q0 72 53 117.5t148 45.5h133v29q0 43 -28 66.5t-76 23.5q-36 0 -61 -15.5t-34 -40.5h-117q17 70 72.5 113.5t142.5 43.5q102 0 159 -51zM332.5 120.5
q35.5 32.5 35.5 84.5v23h-130q-44 0 -66.5 -19t-22.5 -50q0 -32 23 -51.5t66 -19.5q59 0 94.5 32.5zM196 604.5q-29 29.5 -29 75.5q0 47 29 76t76 29q46 0 75.5 -29t29.5 -76q0 -46 -29.5 -75.5t-75.5 -29.5q-47 0 -76 29.5zM303.5 648.5q11.5 11.5 11.5 31.5t-11.5 31.5
t-31.5 11.5t-31.5 -11.5t-11.5 -31.5t11.5 -31.5t31.5 -11.5t31.5 11.5z" />
    <glyph glyph-name="ae" unicode="&#xe6;" horiz-adv-x="894" 
d="M850 226h-367q8 -66 40.5 -100.5t89.5 -34.5q40 0 64.5 15.5t43.5 46.5h123q-23 -75 -81 -119t-144 -44q-65 0 -115 26t-78 73q-69 -99 -206 -99q-58 0 -100 21.5t-64 58.5t-22 83q0 71 53 116t146 45h135v31q0 42 -27.5 66t-76.5 24q-38 0 -62 -15t-33 -41h-117
q17 70 71.5 113.5t137.5 43.5q63 0 108 -25t67 -64q67 89 181 89q73 0 127 -35t82.5 -94.5t28.5 -130.5q0 -25 -5 -50zM742 314q-7 54 -41.5 87.5t-89.5 33.5q-50 0 -84 -31.5t-44 -89.5h259zM333 121.5q35 33.5 35 83.5v21h-132q-44 0 -65.5 -18.5t-21.5 -48.5
q0 -32 23 -51.5t66 -19.5q60 0 95 33.5z" />
    <glyph glyph-name="ccedilla" unicode="&#xe7;" horiz-adv-x="557" 
d="M408 163h117q-21 -72 -71.5 -117.5t-130.5 -53.5l-12 -27q33 -2 57 -25.5t24 -60.5q0 -46 -27 -72.5t-75 -26.5h-66v68h53q16 0 25 8.5t9 22.5q0 13 -9 21t-24 8h-44v47l16 38q-98 12 -154.5 82.5t-56.5 187.5q0 129 68 201t184 72q94 0 152.5 -47t81.5 -126h-117
q-38 69 -117 69q-61 0 -99 -44t-38 -125t38 -125t99 -44q79 0 117 69z" />
    <glyph glyph-name="egrave" unicode="&#xe8;" horiz-adv-x="575" 
d="M532 226h-375q8 -66 42 -100.5t92 -34.5q41 0 66.5 15.5t44.5 46.5h123q-23 -73 -82 -118t-152 -45q-116 0 -184 72t-68 201q0 86 31 147.5t87.5 93.5t131.5 32q76 0 132 -35t86 -93.5t30 -128.5q0 -28 -5 -53zM423 314q-7 50 -41.5 85.5t-92.5 35.5q-54 0 -88.5 -32.5
t-43.5 -88.5h266zM340 603h-92l-115 146h117z" />
    <glyph glyph-name="eacute" unicode="&#xe9;" horiz-adv-x="575" 
d="M532 226h-375q8 -66 42 -100.5t92 -34.5q41 0 66.5 15.5t44.5 46.5h123q-23 -73 -82 -118t-152 -45q-116 0 -184 72t-68 201q0 86 31 147.5t87.5 93.5t131.5 32q76 0 132 -35t86 -93.5t30 -128.5q0 -28 -5 -53zM423 314q-7 50 -41.5 85.5t-92.5 35.5q-54 0 -88.5 -32.5
t-43.5 -88.5h266zM333 603h-92l90 146h117z" />
    <glyph glyph-name="ecircumflex" unicode="&#xea;" horiz-adv-x="575" 
d="M532 226h-375q8 -66 42 -100.5t92 -34.5q41 0 66.5 15.5t44.5 46.5h123q-23 -73 -82 -118t-152 -45q-116 0 -184 72t-68 201q0 86 31 147.5t87.5 93.5t131.5 32q76 0 132 -35t86 -93.5t30 -128.5q0 -28 -5 -53zM423 314q-7 50 -41.5 85.5t-92.5 35.5q-54 0 -88.5 -32.5
t-43.5 -88.5h266zM217 603h-102l133 151h84l133 -151h-102l-71 84h-5z" />
    <glyph glyph-name="edieresis" unicode="&#xeb;" horiz-adv-x="575" 
d="M532 226h-375q8 -66 42 -100.5t92 -34.5q41 0 66.5 15.5t44.5 46.5h123q-23 -73 -82 -118t-152 -45q-116 0 -184 72t-68 201q0 86 31 147.5t87.5 93.5t131.5 32q76 0 132 -35t86 -93.5t30 -128.5q0 -28 -5 -53zM423 314q-7 50 -41.5 85.5t-92.5 35.5q-54 0 -88.5 -32.5
t-43.5 -88.5h266zM149.5 630q-18.5 18 -18.5 45t18.5 45t44.5 18q27 0 45.5 -18t18.5 -45t-18.5 -45t-45.5 -18q-26 0 -44.5 18zM341.5 630q-18.5 18 -18.5 45t18.5 45t45.5 18t45 -18t18 -45t-18 -45t-45 -18t-45.5 18z" />
    <glyph glyph-name="igrave" unicode="&#xec;" horiz-adv-x="243" 
d="M179 0h-115v526h115v-526zM171 603h-92l-115 146h117z" />
    <glyph glyph-name="iacute" unicode="&#xed;" horiz-adv-x="243" 
d="M179 0h-115v526h115v-526zM164 603h-92l90 146h117z" />
    <glyph glyph-name="icircumflex" unicode="&#xee;" horiz-adv-x="243" 
d="M179 0h-115v526h115v-526zM48 603h-102l133 151h84l133 -151h-102l-71 84h-5z" />
    <glyph glyph-name="idieresis" unicode="&#xef;" horiz-adv-x="243" 
d="M179 0h-115v526h115v-526zM9 630q-17 18 -17 45t17 45t42 18t41.5 -18t16.5 -45t-16.5 -45t-41.5 -18t-42 18zM149 630q-17 18 -17 45t17 45t42 18t41.5 -18t16.5 -45t-16.5 -45t-41.5 -18t-42 18z" />
    <glyph glyph-name="eth" unicode="&#xf0;" horiz-adv-x="578" 
d="M394 612q69 -71 105 -161t36 -192q0 -126 -68 -197.5t-188 -71.5q-112 0 -176 67.5t-64 183.5q0 113 60.5 177.5t165.5 64.5q39 0 70.5 -11.5t50.5 -27.5h6q-24 58 -89 127l-129 -57l-31 68l100 44q-67 57 -137 90h147q43 -23 79 -50l99 44l31 -68zM379 132.5
q36 38.5 36 105.5t-36 105.5t-95 38.5t-94.5 -38.5t-35.5 -105.5t35.5 -105.5t94.5 -38.5t95 38.5z" />
    <glyph glyph-name="ntilde" unicode="&#xf1;" horiz-adv-x="577" 
d="M64 0v526h97l13 -64h5q25 37 63 55.5t81 18.5q57 0 101 -25.5t69 -74t25 -113.5v-323h-115v311q0 57 -29.5 89t-79.5 32t-82.5 -34.5t-32.5 -86.5v-311h-115zM320 621.5q-16 6.5 -37 19.5q-14 9 -23 13.5t-18 4.5q-13 0 -20 -10t-7 -29h-85q0 54 26.5 85.5t69.5 31.5
q20 0 36 -6.5t37 -19.5q14 -9 23 -13.5t18 -4.5q13 0 20 10t7 29h85q0 -54 -26.5 -85.5t-69.5 -31.5q-20 0 -36 6.5z" />
    <glyph glyph-name="ograve" unicode="&#xf2;" horiz-adv-x="582" 
d="M107 62q-68 72 -68 201t68 201t184 72t184 -72t68 -201t-68 -201t-184 -72t-184 72zM390 137q38 43 38 126t-38 126t-99 43q-60 0 -98.5 -43t-38.5 -126t38.5 -126t98.5 -43q61 0 99 43zM341 603h-92l-115 146h117z" />
    <glyph glyph-name="oacute" unicode="&#xf3;" horiz-adv-x="582" 
d="M107 62q-68 72 -68 201t68 201t184 72t184 -72t68 -201t-68 -201t-184 -72t-184 72zM390 137q38 43 38 126t-38 126t-99 43q-60 0 -98.5 -43t-38.5 -126t38.5 -126t98.5 -43q61 0 99 43zM334 603h-92l90 146h117z" />
    <glyph glyph-name="ocircumflex" unicode="&#xf4;" horiz-adv-x="582" 
d="M107 62q-68 72 -68 201t68 201t184 72t184 -72t68 -201t-68 -201t-184 -72t-184 72zM390 137q38 43 38 126t-38 126t-99 43q-60 0 -98.5 -43t-38.5 -126t38.5 -126t98.5 -43q61 0 99 43zM218 603h-102l133 151h84l133 -151h-102l-71 84h-5z" />
    <glyph glyph-name="otilde" unicode="&#xf5;" horiz-adv-x="582" 
d="M107 62q-68 72 -68 201t68 201t184 72t184 -72t68 -201t-68 -201t-184 -72t-184 72zM390 137q38 43 38 126t-38 126t-99 43q-60 0 -98.5 -43t-38.5 -126t38.5 -126t98.5 -43q61 0 99 43zM320 621.5q-16 6.5 -37 19.5q-14 9 -23 13.5t-18 4.5q-13 0 -20 -10t-7 -29h-85
q0 54 26.5 85.5t69.5 31.5q20 0 36 -6.5t37 -19.5q14 -9 23 -13.5t18 -4.5q13 0 20 10t7 29h85q0 -54 -26.5 -85.5t-69.5 -31.5q-20 0 -36 6.5z" />
    <glyph glyph-name="odieresis" unicode="&#xf6;" horiz-adv-x="582" 
d="M107 62q-68 72 -68 201t68 201t184 72t184 -72t68 -201t-68 -201t-184 -72t-184 72zM390 137q38 43 38 126t-38 126t-99 43q-60 0 -98.5 -43t-38.5 -126t38.5 -126t98.5 -43q61 0 99 43zM150.5 630q-18.5 18 -18.5 45t18.5 45t44.5 18q27 0 45.5 -18t18.5 -45t-18.5 -45
t-45.5 -18q-26 0 -44.5 18zM342.5 630q-18.5 18 -18.5 45t18.5 45t45.5 18t45 -18t18 -45t-18 -45t-45 -18t-45.5 18z" />
    <glyph glyph-name="divide" unicode="&#xf7;" horiz-adv-x="600" 
d="M256 475q-17 18 -17 46t17 46t44 18q28 0 45 -17.5t17 -46.5t-17 -46.5t-45 -17.5q-27 0 -44 18zM538 278h-476v94h476v-94zM256 83q-17 18 -17 46t17 46t44 18q28 0 45 -17.5t17 -46.5t-17 -46.5t-45 -17.5q-27 0 -44 18z" />
    <glyph glyph-name="oslash" unicode="&#xf8;" horiz-adv-x="582" 
d="M472 467q71 -73 71 -204q0 -129 -68 -201t-184 -72q-60 0 -110 21l-19 -31h-102l50 79q-71 73 -71 204q0 129 68 201t184 72q61 0 110 -21l19 31h102zM176 162l166 261q-24 9 -51 9q-60 0 -98.5 -43t-38.5 -126q0 -60 22 -101zM390 137q38 43 38 126q0 60 -22 101
l-166 -261q24 -9 51 -9q61 0 99 43z" />
    <glyph glyph-name="ugrave" unicode="&#xf9;" horiz-adv-x="582" 
d="M158 15.5q-44 25.5 -69 74t-25 113.5v323h115v-311q0 -57 29.5 -89t78.5 -32q51 0 83.5 34.5t32.5 86.5v311h115v-526h-97l-13 64h-5q-25 -37 -63 -55.5t-81 -18.5q-57 0 -101 25.5zM340 603h-92l-115 146h117z" />
    <glyph glyph-name="uacute" unicode="&#xfa;" horiz-adv-x="582" 
d="M158 15.5q-44 25.5 -69 74t-25 113.5v323h115v-311q0 -57 29.5 -89t78.5 -32q51 0 83.5 34.5t32.5 86.5v311h115v-526h-97l-13 64h-5q-25 -37 -63 -55.5t-81 -18.5q-57 0 -101 25.5zM333 603h-92l90 146h117z" />
    <glyph glyph-name="ucircumflex" unicode="&#xfb;" horiz-adv-x="582" 
d="M158 15.5q-44 25.5 -69 74t-25 113.5v323h115v-311q0 -57 29.5 -89t78.5 -32q51 0 83.5 34.5t32.5 86.5v311h115v-526h-97l-13 64h-5q-25 -37 -63 -55.5t-81 -18.5q-57 0 -101 25.5zM217 603h-102l133 151h84l133 -151h-102l-71 84h-5z" />
    <glyph glyph-name="udieresis" unicode="&#xfc;" horiz-adv-x="582" 
d="M158 15.5q-44 25.5 -69 74t-25 113.5v323h115v-311q0 -57 29.5 -89t78.5 -32q51 0 83.5 34.5t32.5 86.5v311h115v-526h-97l-13 64h-5q-25 -37 -63 -55.5t-81 -18.5q-57 0 -101 25.5zM149.5 630q-18.5 18 -18.5 45t18.5 45t44.5 18q27 0 45.5 -18t18.5 -45t-18.5 -45
t-45.5 -18q-26 0 -44.5 18zM341.5 630q-18.5 18 -18.5 45t18.5 45t45.5 18t45 -18t18 -45t-18 -45t-45 -18t-45.5 18z" />
    <glyph glyph-name="yacute" unicode="&#xfd;" horiz-adv-x="541" 
d="M254 -200h-120l80 200l-215 526h124l148 -378h5l145 378h121zM314 603h-92l90 146h117z" />
    <glyph glyph-name="thorn" unicode="&#xfe;" horiz-adv-x="608" 
d="M69 -200v900h115v-233h5q23 29 61 49t92 20q67 0 118.5 -31.5t80.5 -93t29 -148.5t-29 -148.5t-80.5 -93t-118.5 -31.5q-54 0 -92 20t-61 49h-5v-259h-115zM417.5 137q37.5 43 37.5 126t-37.5 126t-98.5 43q-60 0 -97.5 -43t-37.5 -126t37.5 -126t97.5 -43q61 0 98.5 43z
" />
    <glyph glyph-name="ydieresis" unicode="&#xff;" horiz-adv-x="541" 
d="M254 -200h-120l80 200l-215 526h124l148 -378h5l145 378h121zM130.5 630q-18.5 18 -18.5 45t18.5 45t44.5 18q27 0 45.5 -18t18.5 -45t-18.5 -45t-45.5 -18q-26 0 -44.5 18zM322.5 630q-18.5 18 -18.5 45t18.5 45t45.5 18t45 -18t18 -45t-18 -45t-45 -18t-45.5 18z" />
    <glyph glyph-name="Amacron" unicode="&#x100;" horiz-adv-x="660" 
d="M661 0h-128l-53 147h-302l-53 -147h-126l256 700h150zM326 562l-109 -306h224l-110 306h-5zM476 796h-292v83h292v-83z" />
    <glyph glyph-name="amacron" unicode="&#x101;" horiz-adv-x="542" 
d="M426 485q57 -51 57 -143v-342h-97l-13 64h-5q-18 -29 -57.5 -51.5t-93.5 -22.5q-55 0 -96.5 21t-64 58t-22.5 84q0 72 53 117.5t148 45.5h133v29q0 43 -28 66.5t-76 23.5q-36 0 -61 -15.5t-34 -40.5h-117q17 70 72.5 113.5t142.5 43.5q102 0 159 -51zM332.5 120.5
q35.5 32.5 35.5 84.5v23h-130q-44 0 -66.5 -19t-22.5 -50q0 -32 23 -51.5t66 -19.5q59 0 94.5 32.5zM418 632h-292v83h292v-83z" />
    <glyph glyph-name="Abreve" unicode="&#x102;" horiz-adv-x="660" 
d="M661 0h-128l-53 147h-302l-53 -147h-126l256 700h150zM326 562l-109 -306h224l-110 306h-5zM217.5 806.5q-42.5 37.5 -49.5 104.5h88q4 -31 23 -47.5t51 -16.5t51.5 16.5t22.5 47.5h89q-7 -67 -50 -104.5t-113 -37.5t-112.5 37.5z" />
    <glyph glyph-name="abreve" unicode="&#x103;" horiz-adv-x="542" 
d="M426 485q57 -51 57 -143v-342h-97l-13 64h-5q-18 -29 -57.5 -51.5t-93.5 -22.5q-55 0 -96.5 21t-64 58t-22.5 84q0 72 53 117.5t148 45.5h133v29q0 43 -28 66.5t-76 23.5q-36 0 -61 -15.5t-34 -40.5h-117q17 70 72.5 113.5t142.5 43.5q102 0 159 -51zM332.5 120.5
q35.5 32.5 35.5 84.5v23h-130q-44 0 -66.5 -19t-22.5 -50q0 -32 23 -51.5t66 -19.5q59 0 94.5 32.5zM159.5 642.5q-42.5 37.5 -49.5 104.5h88q4 -31 23 -47.5t51 -16.5t51.5 16.5t22.5 47.5h89q-7 -67 -50 -104.5t-113 -37.5t-112.5 37.5z" />
    <glyph glyph-name="Aogonek" unicode="&#x104;" horiz-adv-x="660" 
d="M660 0q-41 -21 -57 -41t-16 -48q0 -19 13.5 -29.5t41.5 -10.5h18v-73h-31q-65 0 -96 26t-31 73q0 68 75 103h-44l-53 147h-302l-53 -147h-126l256 700h150l256 -700h-1zM326 562l-109 -306h224l-110 306h-5z" />
    <glyph glyph-name="aogonek" unicode="&#x105;" horiz-adv-x="542" 
d="M426 485q57 -51 57 -143v-342h-1q-41 -21 -57 -41t-16 -48q0 -19 13.5 -29.5t41.5 -10.5h18v-73h-31q-65 0 -96 26t-31 73q0 68 75 103h-13l-13 64h-5q-18 -29 -57.5 -51.5t-93.5 -22.5q-55 0 -96.5 21t-64 58t-22.5 84q0 72 53 117.5t148 45.5h133v29q0 43 -28 66.5
t-76 23.5q-36 0 -61 -15.5t-34 -40.5h-117q17 70 72.5 113.5t142.5 43.5q102 0 159 -51zM332.5 120.5q35.5 32.5 35.5 84.5v23h-130q-44 0 -66.5 -19t-22.5 -50q0 -32 23 -51.5t66 -19.5q59 0 94.5 32.5z" />
    <glyph glyph-name="Cacute" unicode="&#x106;" horiz-adv-x="699" 
d="M197.5 32q-73.5 42 -113.5 123t-40 195t40 195t113.5 123t170.5 42q117 0 191.5 -57t105.5 -160h-130q-23 52 -63.5 78.5t-103.5 26.5q-90 0 -144.5 -64.5t-54.5 -183.5t54.5 -183.5t144.5 -64.5q63 0 103.5 26.5t63.5 78.5h130q-31 -103 -105.5 -160t-191.5 -57
q-97 0 -170.5 42zM411 767h-92l90 146h117z" />
    <glyph glyph-name="cacute" unicode="&#x107;" horiz-adv-x="557" 
d="M107 62q-68 72 -68 201t68 201t184 72q94 0 152.5 -47t81.5 -126h-117q-38 69 -117 69q-61 0 -99 -44t-38 -125t38 -125t99 -44q79 0 117 69h117q-23 -79 -82 -126t-152 -47q-116 0 -184 72zM334 603h-92l90 146h117z" />
    <glyph glyph-name="Ccircumflex" unicode="&#x108;" horiz-adv-x="699" 
d="M197.5 32q-73.5 42 -113.5 123t-40 195t40 195t113.5 123t170.5 42q117 0 191.5 -57t105.5 -160h-130q-23 52 -63.5 78.5t-103.5 26.5q-90 0 -144.5 -64.5t-54.5 -183.5t54.5 -183.5t144.5 -64.5q63 0 103.5 26.5t63.5 78.5h130q-31 -103 -105.5 -160t-191.5 -57
q-97 0 -170.5 42zM295 767h-102l133 151h84l133 -151h-102l-71 84h-5z" />
    <glyph glyph-name="ccircumflex" unicode="&#x109;" horiz-adv-x="557" 
d="M107 62q-68 72 -68 201t68 201t184 72q94 0 152.5 -47t81.5 -126h-117q-38 69 -117 69q-61 0 -99 -44t-38 -125t38 -125t99 -44q79 0 117 69h117q-23 -79 -82 -126t-152 -47q-116 0 -184 72zM218 603h-102l133 151h84l133 -151h-102l-71 84h-5z" />
    <glyph glyph-name="Cdotaccent" unicode="&#x10a;" horiz-adv-x="699" 
d="M197.5 32q-73.5 42 -113.5 123t-40 195t40 195t113.5 123t170.5 42q117 0 191.5 -57t105.5 -160h-130q-23 52 -63.5 78.5t-103.5 26.5q-90 0 -144.5 -64.5t-54.5 -183.5t54.5 -183.5t144.5 -64.5q63 0 103.5 26.5t63.5 78.5h130q-31 -103 -105.5 -160t-191.5 -57
q-97 0 -170.5 42zM323.5 794q-18.5 18 -18.5 45t18.5 45t44.5 18q27 0 45.5 -18t18.5 -45t-18.5 -45t-45.5 -18q-26 0 -44.5 18z" />
    <glyph glyph-name="cdotaccent" unicode="&#x10b;" horiz-adv-x="557" 
d="M107 62q-68 72 -68 201t68 201t184 72q94 0 152.5 -47t81.5 -126h-117q-38 69 -117 69q-61 0 -99 -44t-38 -125t38 -125t99 -44q79 0 117 69h117q-23 -79 -82 -126t-152 -47q-116 0 -184 72zM246.5 630q-18.5 18 -18.5 45t18 45t45 18t45.5 -18t18.5 -45
q0 -26 -18.5 -44.5t-45.5 -18.5q-26 0 -44.5 18z" />
    <glyph glyph-name="Ccaron" unicode="&#x10c;" horiz-adv-x="699" 
d="M197.5 32q-73.5 42 -113.5 123t-40 195t40 195t113.5 123t170.5 42q117 0 191.5 -57t105.5 -160h-130q-23 52 -63.5 78.5t-103.5 26.5q-90 0 -144.5 -64.5t-54.5 -183.5t54.5 -183.5t144.5 -64.5q63 0 103.5 26.5t63.5 78.5h130q-31 -103 -105.5 -160t-191.5 -57
q-97 0 -170.5 42zM410 767h-84l-133 151h102l70 -84h5l71 84h102z" />
    <glyph glyph-name="ccaron" unicode="&#x10d;" horiz-adv-x="557" 
d="M107 62q-68 72 -68 201t68 201t184 72q94 0 152.5 -47t81.5 -126h-117q-38 69 -117 69q-61 0 -99 -44t-38 -125t38 -125t99 -44q79 0 117 69h117q-23 -79 -82 -126t-152 -47q-116 0 -184 72zM333 603h-84l-133 151h102l70 -84h5l71 84h102z" />
    <glyph glyph-name="Dcaron" unicode="&#x10e;" horiz-adv-x="694" 
d="M76 0v700h256q96 0 167.5 -41t111 -120t39.5 -189t-39.5 -189t-111 -120t-167.5 -41h-256zM329 112q57 0 101 27t69.5 80.5t25.5 130.5t-25.5 130.5t-69.5 80.5t-101 27h-128v-476h128zM390 767h-84l-133 151h102l70 -84h5l71 84h102z" />
    <glyph glyph-name="dcaron" unicode="&#x10f;" horiz-adv-x="608" 
d="M148.5 21.5q-51.5 31.5 -80.5 93t-29 148.5t29 148.5t80.5 93t118.5 31.5q53 0 91.5 -20t61.5 -49h5v233h115v-700h-97l-13 64h-5q-26 -34 -65.5 -54t-92.5 -20q-67 0 -118.5 31.5zM387.5 137q37.5 43 37.5 126t-37.5 126t-98.5 43q-60 0 -97.5 -43t-37.5 -126t37.5 -126
t97.5 -43q61 0 98.5 43zM663 534h-73l45 166h102z" />
    <glyph glyph-name="Dcroat" unicode="&#x110;" horiz-adv-x="699" 
d="M337 700q96 0 167.5 -41t111 -120t39.5 -189t-39.5 -189t-111 -120t-167.5 -41h-256v300h-82v100h82v300h256zM334 112q57 0 101 27t69.5 80.5t25.5 130.5t-25.5 130.5t-69.5 80.5t-101 27h-128v-188h159v-100h-159v-188h128z" />
    <glyph glyph-name="dcroat" unicode="&#x111;" horiz-adv-x="603" 
d="M607 629v-86h-77v-543h-97l-13 64h-5q-58 -74 -153 -74q-102 0 -162.5 65t-60.5 183t60.5 183t162.5 65q50 0 89 -20t59 -47h5v124h-129v86h129v71h115v-71h77zM379 132.5q36 38.5 36 105.5t-36 105.5t-95 38.5t-94.5 -38.5t-35.5 -105.5t35.5 -105.5t94.5 -38.5t95 38.5
z" />
    <glyph glyph-name="Emacron" unicode="&#x112;" horiz-adv-x="596" 
d="M201 300v-188h346v-112h-471v700h461v-112h-336v-183h316v-105h-316zM453 796h-292v83h292v-83z" />
    <glyph glyph-name="emacron" unicode="&#x113;" horiz-adv-x="575" 
d="M532 226h-375q8 -66 42 -100.5t92 -34.5q41 0 66.5 15.5t44.5 46.5h123q-23 -73 -82 -118t-152 -45q-116 0 -184 72t-68 201q0 86 31 147.5t87.5 93.5t131.5 32q76 0 132 -35t86 -93.5t30 -128.5q0 -28 -5 -53zM423 314q-7 50 -41.5 85.5t-92.5 35.5q-54 0 -88.5 -32.5
t-43.5 -88.5h266zM436 632h-292v83h292v-83z" />
    <glyph glyph-name="Ebreve" unicode="&#x114;" horiz-adv-x="596" 
d="M201 300v-188h346v-112h-471v700h461v-112h-336v-183h316v-105h-316zM194.5 806.5q-42.5 37.5 -49.5 104.5h88q4 -31 23 -47.5t51 -16.5t51.5 16.5t22.5 47.5h89q-7 -67 -50 -104.5t-113 -37.5t-112.5 37.5z" />
    <glyph glyph-name="ebreve" unicode="&#x115;" horiz-adv-x="575" 
d="M532 226h-375q8 -66 42 -100.5t92 -34.5q41 0 66.5 15.5t44.5 46.5h123q-23 -73 -82 -118t-152 -45q-116 0 -184 72t-68 201q0 86 31 147.5t87.5 93.5t131.5 32q76 0 132 -35t86 -93.5t30 -128.5q0 -28 -5 -53zM423 314q-7 50 -41.5 85.5t-92.5 35.5q-54 0 -88.5 -32.5
t-43.5 -88.5h266zM177.5 642.5q-42.5 37.5 -49.5 104.5h88q4 -31 23 -47.5t51 -16.5t51.5 16.5t22.5 47.5h89q-7 -67 -50 -104.5t-113 -37.5t-112.5 37.5z" />
    <glyph glyph-name="Edotaccent" unicode="&#x116;" horiz-adv-x="596" 
d="M201 300v-188h346v-112h-471v700h461v-112h-336v-183h316v-105h-316zM261.5 794q-18.5 18 -18.5 45t18.5 45t44.5 18q27 0 45.5 -18t18.5 -45t-18.5 -45t-45.5 -18q-26 0 -44.5 18z" />
    <glyph glyph-name="edotaccent" unicode="&#x117;" horiz-adv-x="575" 
d="M532 226h-375q8 -66 42 -100.5t92 -34.5q41 0 66.5 15.5t44.5 46.5h123q-23 -73 -82 -118t-152 -45q-116 0 -184 72t-68 201q0 86 31 147.5t87.5 93.5t131.5 32q76 0 132 -35t86 -93.5t30 -128.5q0 -28 -5 -53zM423 314q-7 50 -41.5 85.5t-92.5 35.5q-54 0 -88.5 -32.5
t-43.5 -88.5h266zM245.5 630q-18.5 18 -18.5 45t18 45t45 18t45.5 -18t18.5 -45q0 -26 -18.5 -44.5t-45.5 -18.5q-26 0 -44.5 18z" />
    <glyph glyph-name="Eogonek" unicode="&#x118;" horiz-adv-x="596" 
d="M547 0q-41 -21 -57 -41t-16 -48q0 -19 13.5 -29.5t41.5 -10.5h18v-73h-31q-65 0 -96 26t-31 73q0 68 75 103h-388v700h461v-112h-336v-183h316v-105h-316v-188h346v-112z" />
    <glyph glyph-name="eogonek" unicode="&#x119;" horiz-adv-x="575" 
d="M532 226h-375q8 -66 42 -100.5t92 -34.5q41 0 66.5 15.5t44.5 46.5h123q-9 -30 -25 -55t-43 -60q-31 -38 -45.5 -63.5t-14.5 -56.5q0 -47 55 -47h18v-73h-32q-63 0 -94.5 26.5t-31.5 74.5q0 54 45 99q-29 -8 -66 -8q-116 0 -184 72t-68 201q0 86 31 147.5t87.5 93.5
t131.5 32q76 0 132 -35t86 -93.5t30 -128.5q0 -28 -5 -53zM423 314q-8 55 -44 88t-90 33t-88.5 -32.5t-43.5 -88.5h266z" />
    <glyph glyph-name="Ecaron" unicode="&#x11a;" horiz-adv-x="596" 
d="M201 300v-188h346v-112h-471v700h461v-112h-336v-183h316v-105h-316zM349 767h-84l-133 151h102l70 -84h5l71 84h102z" />
    <glyph glyph-name="ecaron" unicode="&#x11b;" horiz-adv-x="575" 
d="M532 226h-375q8 -66 42 -100.5t92 -34.5q41 0 66.5 15.5t44.5 46.5h123q-23 -73 -82 -118t-152 -45q-116 0 -184 72t-68 201q0 86 31 147.5t87.5 93.5t131.5 32q76 0 132 -35t86 -93.5t30 -128.5q0 -28 -5 -53zM423 314q-7 50 -41.5 85.5t-92.5 35.5q-54 0 -88.5 -32.5
t-43.5 -88.5h266zM332 603h-84l-133 151h102l70 -84h5l71 84h102z" />
    <glyph glyph-name="Gcircumflex" unicode="&#x11c;" horiz-adv-x="721" 
d="M197.5 32q-73.5 42 -113.5 123t-40 195t40 195t113.5 123t170.5 42q117 0 191.5 -57t105.5 -160h-130q-23 52 -63.5 78.5t-103.5 26.5q-90 0 -144.5 -64.5t-54.5 -183.5t55 -183.5t147 -64.5q76 0 125.5 44.5t57.5 118.5h-195v102h318v-49q0 -100 -37 -174t-106.5 -114
t-165.5 -40q-97 0 -170.5 42zM295 767h-102l133 151h84l133 -151h-102l-71 84h-5z" />
    <glyph glyph-name="gcircumflex" unicode="&#x11d;" horiz-adv-x="597" 
d="M131.5 -155q-59.5 45 -82.5 125h120q12 -32 43.5 -49t78.5 -17q59 0 93 29t34 83v81h-5q-21 -28 -60 -47.5t-89 -19.5q-102 0 -163.5 66.5t-61.5 186.5t61.5 186.5t163.5 66.5q49 0 89 -20t65 -52h5l14 62h96v-510q0 -104 -62.5 -160t-179.5 -56q-100 0 -159.5 45z
M382 174q36 40 36 109q0 70 -35.5 109.5t-96.5 39.5q-60 0 -96 -39.5t-36 -109.5q0 -69 36 -109t96 -40t96 40zM217 603h-102l133 151h84l133 -151h-102l-71 84h-5z" />
    <glyph glyph-name="Gbreve" unicode="&#x11e;" horiz-adv-x="721" 
d="M197.5 32q-73.5 42 -113.5 123t-40 195t40 195t113.5 123t170.5 42q117 0 191.5 -57t105.5 -160h-130q-23 52 -63.5 78.5t-103.5 26.5q-90 0 -144.5 -64.5t-54.5 -183.5t55 -183.5t147 -64.5q76 0 125.5 44.5t57.5 118.5h-195v102h318v-49q0 -100 -37 -174t-106.5 -114
t-165.5 -40q-97 0 -170.5 42zM255.5 806.5q-42.5 37.5 -49.5 104.5h88q4 -31 23 -47.5t51 -16.5t51.5 16.5t22.5 47.5h89q-7 -67 -50 -104.5t-113 -37.5t-112.5 37.5z" />
    <glyph glyph-name="gbreve" unicode="&#x11f;" horiz-adv-x="597" 
d="M131.5 -155q-59.5 45 -82.5 125h120q12 -32 43.5 -49t78.5 -17q59 0 93 29t34 83v81h-5q-21 -28 -60 -47.5t-89 -19.5q-102 0 -163.5 66.5t-61.5 186.5t61.5 186.5t163.5 66.5q49 0 89 -20t65 -52h5l14 62h96v-510q0 -104 -62.5 -160t-179.5 -56q-100 0 -159.5 45z
M382 174q36 40 36 109q0 70 -35.5 109.5t-96.5 39.5q-60 0 -96 -39.5t-36 -109.5q0 -69 36 -109t96 -40t96 40zM177.5 642.5q-42.5 37.5 -49.5 104.5h88q4 -31 23 -47.5t51 -16.5t51.5 16.5t22.5 47.5h89q-7 -67 -50 -104.5t-113 -37.5t-112.5 37.5z" />
    <glyph glyph-name="Gdotaccent" unicode="&#x120;" horiz-adv-x="721" 
d="M197.5 32q-73.5 42 -113.5 123t-40 195t40 195t113.5 123t170.5 42q117 0 191.5 -57t105.5 -160h-130q-23 52 -63.5 78.5t-103.5 26.5q-90 0 -144.5 -64.5t-54.5 -183.5t55 -183.5t147 -64.5q76 0 125.5 44.5t57.5 118.5h-195v102h318v-49q0 -100 -37 -174t-106.5 -114
t-165.5 -40q-97 0 -170.5 42zM323.5 794q-18.5 18 -18.5 45t18.5 45t44.5 18q27 0 45.5 -18t18.5 -45t-18.5 -45t-45.5 -18q-26 0 -44.5 18z" />
    <glyph glyph-name="gdotaccent" unicode="&#x121;" horiz-adv-x="597" 
d="M131.5 -155q-59.5 45 -82.5 125h120q12 -32 43.5 -49t78.5 -17q59 0 93 29t34 83v81h-5q-21 -28 -60 -47.5t-89 -19.5q-102 0 -163.5 66.5t-61.5 186.5t61.5 186.5t163.5 66.5q49 0 89 -20t65 -52h5l14 62h96v-510q0 -104 -62.5 -160t-179.5 -56q-100 0 -159.5 45z
M382 174q36 40 36 109q0 70 -35.5 109.5t-96.5 39.5q-60 0 -96 -39.5t-36 -109.5q0 -69 36 -109t96 -40t96 40zM245.5 630q-18.5 18 -18.5 45t18 45t45 18t45.5 -18t18.5 -45q0 -26 -18.5 -44.5t-45.5 -18.5q-26 0 -44.5 18z" />
    <glyph glyph-name="uni0122" unicode="&#x122;" horiz-adv-x="721" 
d="M197.5 32q-73.5 42 -113.5 123t-40 195t40 195t113.5 123t170.5 42q117 0 191.5 -57t105.5 -160h-130q-23 52 -63.5 78.5t-103.5 26.5q-90 0 -144.5 -64.5t-54.5 -183.5t55 -183.5t147 -64.5q76 0 125.5 44.5t57.5 118.5h-195v102h318v-49q0 -100 -37 -174t-106.5 -114
t-165.5 -40q-97 0 -170.5 42zM344 -251h-75l45 166h103z" />
    <glyph glyph-name="uni0123" unicode="&#x123;" horiz-adv-x="597" 
d="M131.5 -155q-59.5 45 -82.5 125h120q12 -32 43.5 -49t78.5 -17q59 0 93 29t34 83v81h-5q-21 -28 -60 -47.5t-89 -19.5q-102 0 -163.5 66.5t-61.5 186.5t61.5 186.5t163.5 66.5q49 0 89 -20t65 -52h5l14 62h96v-510q0 -104 -62.5 -160t-179.5 -56q-100 0 -159.5 45z
M382 174q36 40 36 109q0 70 -35.5 109.5t-96.5 39.5q-60 0 -96 -39.5t-36 -109.5q0 -69 36 -109t96 -40t96 40zM341 603h-103l73 166h75z" />
    <glyph glyph-name="Hcircumflex" unicode="&#x124;" horiz-adv-x="716" 
d="M515 408v292h125v-700h-125v297h-314v-297h-125v700h125v-292h314zM285 767h-102l133 151h84l133 -151h-102l-71 84h-5z" />
    <glyph glyph-name="hcircumflex" unicode="&#x125;" horiz-adv-x="582" 
d="M69 0v700h115v-233h5q27 35 60.5 52t78.5 17q56 0 100 -25.5t69.5 -73.5t25.5 -114v-323h-115v311q0 57 -29.5 89t-79.5 32t-82.5 -34.5t-32.5 -86.5v-311h-115zM223 767h-102l133 151h84l133 -151h-102l-71 84h-5z" />
    <glyph glyph-name="Hbar" unicode="&#x126;" horiz-adv-x="726" 
d="M645 598h82v-94h-82v-504h-125v297h-314v-297h-125v504h-82v94h82v102h125v-102h314v102h125v-102zM206 504v-96h314v96h-314z" />
    <glyph glyph-name="hbar" unicode="&#x127;" horiz-adv-x="587" 
d="M433 460.5q44 -25.5 69.5 -73.5t25.5 -114v-273h-115v261q0 57 -29.5 89t-79.5 32t-82.5 -34.5t-32.5 -86.5v-261h-115v543h-77v86h77v71h115v-71h129v-86h-129v-126h5q27 35 60.5 52t78.5 17q56 0 100 -25.5z" />
    <glyph glyph-name="Itilde" unicode="&#x128;" horiz-adv-x="277" 
d="M201 0h-125v700h125v-700zM167 785.5q-16 6.5 -37 19.5q-14 9 -23 13.5t-18 4.5q-13 0 -20 -10t-7 -29h-85q0 54 26.5 85.5t69.5 31.5q20 0 36 -6.5t37 -19.5q14 -9 23 -13.5t18 -4.5q13 0 20 10t7 29h85q0 -54 -26.5 -85.5t-69.5 -31.5q-20 0 -36 6.5z" />
    <glyph glyph-name="itilde" unicode="&#x129;" horiz-adv-x="243" 
d="M179 0h-115v526h115v-526zM150 621.5q-16 6.5 -37 19.5q-14 9 -23 13.5t-18 4.5q-13 0 -20 -10t-7 -29h-85q0 54 26.5 85.5t69.5 31.5q20 0 36 -6.5t37 -19.5q14 -9 23 -13.5t18 -4.5q13 0 20 10t7 29h85q0 -54 -26.5 -85.5t-69.5 -31.5q-20 0 -36 6.5z" />
    <glyph glyph-name="Imacron" unicode="&#x12a;" horiz-adv-x="277" 
d="M201 0h-125v700h125v-700zM284 796h-292v83h292v-83z" />
    <glyph glyph-name="imacron" unicode="&#x12b;" horiz-adv-x="243" 
d="M179 0h-115v526h115v-526zM267 632h-292v83h292v-83z" />
    <glyph glyph-name="Ibreve" unicode="&#x12c;" horiz-adv-x="277" 
d="M201 0h-125v700h125v-700zM25.5 806.5q-42.5 37.5 -49.5 104.5h88q4 -31 23 -47.5t51 -16.5t51.5 16.5t22.5 47.5h89q-7 -67 -50 -104.5t-113 -37.5t-112.5 37.5z" />
    <glyph glyph-name="ibreve" unicode="&#x12d;" horiz-adv-x="243" 
d="M179 0h-115v526h115v-526zM8.5 642.5q-42.5 37.5 -49.5 104.5h88q4 -31 23 -47.5t51 -16.5t51.5 16.5t22.5 47.5h89q-7 -67 -50 -104.5t-113 -37.5t-112.5 37.5z" />
    <glyph glyph-name="Iogonek" unicode="&#x12e;" horiz-adv-x="277" 
d="M76 700h125v-700h-1q-41 -21 -57 -41t-16 -48q0 -19 13.5 -29.5t41.5 -10.5h18v-73h-31q-65 0 -96 26t-31 73q0 68 75 103h-41v700z" />
    <glyph glyph-name="iogonek" unicode="&#x12f;" horiz-adv-x="243" 
d="M72.5 623q-20.5 20 -20.5 49t20 49.5t50 20.5q29 0 49 -20.5t20 -49.5t-20 -49t-49 -20t-49.5 20zM64 0v526h115v-526h-1q-41 -21 -57 -41t-16 -48q0 -19 13.5 -29.5t41.5 -10.5h18v-73h-31q-65 0 -96 26t-31 73q0 68 75 103h-31z" />
    <glyph glyph-name="Idotaccent" unicode="&#x130;" horiz-adv-x="277" 
d="M201 0h-125v700h125v-700zM93.5 794q-18.5 18 -18.5 45t18.5 45t44.5 18q27 0 45.5 -18t18.5 -45t-18.5 -45t-45.5 -18q-26 0 -44.5 18z" />
    <glyph glyph-name="dotlessi" unicode="&#x131;" horiz-adv-x="243" 
d="M179 0h-115v526h115v-526z" />
    <glyph glyph-name="IJ" unicode="&#x132;" horiz-adv-x="841" 
d="M201 0h-125v700h125v-700zM374 44.5q-60 54.5 -70 158.5h125q7 -49 35 -75t72 -26q51 0 80 35t29 103v460h125v-460q0 -120 -62.5 -185t-171.5 -65q-102 0 -162 54.5z" />
    <glyph glyph-name="ij" unicode="&#x133;" horiz-adv-x="486" 
d="M179 0h-115v526h115v-526zM72.5 623q-20.5 20 -20.5 49t20 49.5t50 20.5q29 0 49 -20.5t20 -49.5t-20 -49t-49 -20t-49.5 20zM175 -200v104h78q24 0 39 15.5t15 41.5v565h115v-581q0 -70 -38.5 -107.5t-113.5 -37.5h-95zM315.5 623q-20.5 20 -20.5 49t20 49.5t50 20.5
q29 0 49 -20.5t20 -49.5t-20 -49t-49 -20t-49.5 20z" />
    <glyph glyph-name="Jcircumflex" unicode="&#x134;" horiz-adv-x="564" 
d="M97 44.5q-60 54.5 -70 158.5h125q7 -49 35 -75t72 -26q51 0 80 35t29 103v460h125v-460q0 -120 -62.5 -185t-171.5 -65q-102 0 -162 54.5zM358 767h-102l133 151h84l133 -151h-102l-71 84h-5z" />
    <glyph glyph-name="jcircumflex" unicode="&#x135;" horiz-adv-x="243" 
d="M-68 -200v104h78q24 0 39 15.5t15 41.5v565h115v-581q0 -70 -38.5 -107.5t-113.5 -37.5h-95zM48 603h-102l133 151h84l133 -151h-102l-71 84h-5z" />
    <glyph glyph-name="uni0136" unicode="&#x136;" horiz-adv-x="619" 
d="M201 0h-125v700h125v-319l273 319h146l-294 -343l309 -357h-149l-285 330v-330zM323 -251h-75l45 166h103z" />
    <glyph glyph-name="uni0137" unicode="&#x137;" horiz-adv-x="535" 
d="M184 0h-115v700h115v-413l216 239h136l-231 -256l246 -270h-139l-228 249v-249zM275 -251h-75l45 166h103z" />
    <glyph glyph-name="Lacute" unicode="&#x139;" horiz-adv-x="554" 
d="M534 0h-458v700h125v-588h333v-112zM181 767h-92l90 146h117z" />
    <glyph glyph-name="lacute" unicode="&#x13a;" horiz-adv-x="253" 
d="M184 0h-115v700h115v-700zM169 767h-92l90 146h117z" />
    <glyph glyph-name="uni013B" unicode="&#x13b;" horiz-adv-x="554" 
d="M534 0h-458v700h125v-588h333v-112zM282 -251h-75l45 166h103z" />
    <glyph glyph-name="uni013C" unicode="&#x13c;" horiz-adv-x="253" 
d="M184 0h-115v700h115v-700zM104 -251h-75l45 166h103z" />
    <glyph glyph-name="Lcaron" unicode="&#x13d;" horiz-adv-x="554" 
d="M534 0h-458v700h125v-588h333v-112zM325 534h-73l45 166h102z" />
    <glyph glyph-name="lcaron" unicode="&#x13e;" horiz-adv-x="253" 
d="M184 0h-115v700h115v-700zM308 534h-73l45 166h102z" />
    <glyph glyph-name="Ldot" unicode="&#x13f;" horiz-adv-x="554" 
d="M534 0h-458v700h125v-588h333v-112zM365.5 343.5q-20.5 20.5 -20.5 49.5q0 30 20.5 50.5t49.5 20.5t49.5 -20.5t20.5 -50.5q0 -29 -20.5 -49.5t-49.5 -20.5t-49.5 20.5z" />
    <glyph glyph-name="ldot" unicode="&#x140;" horiz-adv-x="381" 
d="M184 0h-115v700h115v-700zM267.5 300.5q-20.5 20.5 -20.5 49.5q0 30 20.5 50.5t49.5 20.5t49.5 -20.5t20.5 -50.5q0 -29 -20.5 -49.5t-49.5 -20.5t-49.5 20.5z" />
    <glyph glyph-name="Lslash" unicode="&#x141;" horiz-adv-x="559" 
d="M206 327v-215h333v-112h-458v281l-82 -30v107l82 30v312h125v-266l132 48v-107z" />
    <glyph glyph-name="lslash" unicode="&#x142;" horiz-adv-x="263" 
d="M189 430l77 34v-101l-77 -34v-329h-115v279l-77 -34v101l77 34v320h115v-270z" />
    <glyph glyph-name="Nacute" unicode="&#x143;" horiz-adv-x="745" 
d="M201 0h-125v700h166l298 -527h5v527h125v-700h-167l-297 527h-5v-527zM415 767h-92l90 146h117z" />
    <glyph glyph-name="nacute" unicode="&#x144;" horiz-adv-x="577" 
d="M64 0v526h97l13 -64h5q25 37 63 55.5t81 18.5q57 0 101 -25.5t69 -74t25 -113.5v-323h-115v311q0 57 -29.5 89t-79.5 32t-82.5 -34.5t-32.5 -86.5v-311h-115zM334 603h-92l90 146h117z" />
    <glyph glyph-name="uni0145" unicode="&#x145;" horiz-adv-x="745" 
d="M201 0h-125v700h166l298 -527h5v527h125v-700h-167l-297 527h-5v-527zM350 -251h-75l45 166h103z" />
    <glyph glyph-name="uni0146" unicode="&#x146;" horiz-adv-x="577" 
d="M64 0v526h97l13 -64h5q25 37 63 55.5t81 18.5q57 0 101 -25.5t69 -74t25 -113.5v-323h-115v311q0 57 -29.5 89t-79.5 32t-82.5 -34.5t-32.5 -86.5v-311h-115zM268 -251h-75l45 166h103z" />
    <glyph glyph-name="Ncaron" unicode="&#x147;" horiz-adv-x="745" 
d="M201 0h-125v700h166l298 -527h5v527h125v-700h-167l-297 527h-5v-527zM414 767h-84l-133 151h102l70 -84h5l71 84h102z" />
    <glyph glyph-name="ncaron" unicode="&#x148;" horiz-adv-x="577" 
d="M64 0v526h97l13 -64h5q25 37 63 55.5t81 18.5q57 0 101 -25.5t69 -74t25 -113.5v-323h-115v311q0 57 -29.5 89t-79.5 32t-82.5 -34.5t-32.5 -86.5v-311h-115zM333 603h-84l-133 151h102l70 -84h5l71 84h102z" />
    <glyph glyph-name="napostrophe" unicode="&#x149;" horiz-adv-x="577" 
d="M64 0v526h97l13 -64h5q25 37 63 55.5t81 18.5q57 0 101 -25.5t69 -74t25 -113.5v-323h-115v311q0 57 -29.5 89t-79.5 32t-82.5 -34.5t-32.5 -86.5v-311h-115zM38 543h-75l43 157h101z" />
    <glyph glyph-name="Eng" unicode="&#x14a;" horiz-adv-x="745" 
d="M391 -225v112h50q104 0 104 105v8h-42l-297 527h-5v-527h-125v700h166l298 -527h5v527h125v-700q0 -112 -56 -168.5t-160 -56.5h-63z" />
    <glyph glyph-name="eng" unicode="&#x14b;" horiz-adv-x="577" 
d="M292 -200v101h57q24 0 39 15.5t15 41.5v353q0 57 -29.5 89t-79.5 32t-82.5 -34.5t-32.5 -86.5v-311h-115v526h97l13 -64h5q25 37 63 55.5t81 18.5q57 0 101 -25.5t69 -74t25 -113.5v-378q0 -70 -38.5 -107.5t-113.5 -37.5h-74z" />
    <glyph glyph-name="Omacron" unicode="&#x14c;" horiz-adv-x="736" 
d="M197.5 32q-73.5 42 -113.5 123t-40 195t40 195t113.5 123t170.5 42t170.5 -42t113.5 -123t40 -195t-40 -195t-113.5 -123t-170.5 -42t-170.5 42zM512.5 166.5q54.5 64.5 54.5 183.5t-54.5 183.5t-144.5 64.5t-144.5 -64.5t-54.5 -183.5t54.5 -183.5t144.5 -64.5
t144.5 64.5zM514 796h-292v83h292v-83z" />
    <glyph glyph-name="omacron" unicode="&#x14d;" horiz-adv-x="582" 
d="M107 62q-68 72 -68 201t68 201t184 72t184 -72t68 -201t-68 -201t-184 -72t-184 72zM390 137q38 43 38 126t-38 126t-99 43q-60 0 -98.5 -43t-38.5 -126t38.5 -126t98.5 -43q61 0 99 43zM437 632h-292v83h292v-83z" />
    <glyph glyph-name="Obreve" unicode="&#x14e;" horiz-adv-x="736" 
d="M197.5 32q-73.5 42 -113.5 123t-40 195t40 195t113.5 123t170.5 42t170.5 -42t113.5 -123t40 -195t-40 -195t-113.5 -123t-170.5 -42t-170.5 42zM512.5 166.5q54.5 64.5 54.5 183.5t-54.5 183.5t-144.5 64.5t-144.5 -64.5t-54.5 -183.5t54.5 -183.5t144.5 -64.5
t144.5 64.5zM255.5 806.5q-42.5 37.5 -49.5 104.5h88q4 -31 23 -47.5t51 -16.5t51.5 16.5t22.5 47.5h89q-7 -67 -50 -104.5t-113 -37.5t-112.5 37.5z" />
    <glyph glyph-name="obreve" unicode="&#x14f;" horiz-adv-x="582" 
d="M107 62q-68 72 -68 201t68 201t184 72t184 -72t68 -201t-68 -201t-184 -72t-184 72zM390 137q38 43 38 126t-38 126t-99 43q-60 0 -98.5 -43t-38.5 -126t38.5 -126t98.5 -43q61 0 99 43zM178.5 642.5q-42.5 37.5 -49.5 104.5h88q4 -31 23 -47.5t51 -16.5t51.5 16.5
t22.5 47.5h89q-7 -67 -50 -104.5t-113 -37.5t-112.5 37.5z" />
    <glyph glyph-name="Ohungarumlaut" unicode="&#x150;" horiz-adv-x="736" 
d="M197.5 32q-73.5 42 -113.5 123t-40 195t40 195t113.5 123t170.5 42t170.5 -42t113.5 -123t40 -195t-40 -195t-113.5 -123t-170.5 -42t-170.5 42zM512.5 166.5q54.5 64.5 54.5 183.5t-54.5 183.5t-144.5 64.5t-144.5 -64.5t-54.5 -183.5t54.5 -183.5t144.5 -64.5
t144.5 64.5zM321 767h-88l90 146h117zM494 767h-89l90 146h117z" />
    <glyph glyph-name="ohungarumlaut" unicode="&#x151;" horiz-adv-x="582" 
d="M107 62q-68 72 -68 201t68 201t184 72t184 -72t68 -201t-68 -201t-184 -72t-184 72zM390 137q38 43 38 126t-38 126t-99 43q-60 0 -98.5 -43t-38.5 -126t38.5 -126t98.5 -43q61 0 99 43zM244 603h-88l90 146h117zM417 603h-89l90 146h117z" />
    <glyph glyph-name="OE" unicode="&#x152;" horiz-adv-x="1060" 
d="M669 112h342v-112h-464v73q-29 -39 -80.5 -61t-114.5 -22q-87 0 -157 43t-110.5 124.5t-40.5 192.5t40.5 192.5t110.5 124.5t157 43q63 0 114.5 -22t80.5 -61v73h454v-112h-332v-183h312v-105h-312v-188zM453 131q43 29 68.5 85.5t25.5 133.5t-25.5 133.5t-68.5 85.5
t-95 29q-51 0 -94.5 -29t-69 -85.5t-25.5 -133.5t25.5 -133.5t69 -85.5t94.5 -29q52 0 95 29z" />
    <glyph glyph-name="oe" unicode="&#x153;" horiz-adv-x="945" 
d="M901 226h-368q8 -66 40.5 -100.5t90.5 -34.5q40 0 64 15t44 47h123q-23 -76 -81.5 -119.5t-144.5 -43.5q-67 0 -117 27t-79 77q-62 -104 -190 -104q-72 0 -127.5 32t-86 93.5t-30.5 147.5t30.5 147.5t86 93.5t127.5 32q127 0 189 -103q29 49 79.5 76t115.5 27
q72 0 126.5 -34.5t83.5 -94t29 -131.5q0 -25 -5 -50zM793 314q-7 53 -41.5 87t-88.5 34q-53 0 -86.5 -32t-43.5 -89h260zM382 138q36 44 36 125q0 82 -36 125.5t-96 43.5q-59 0 -95.5 -44t-36.5 -125t36.5 -125t95.5 -44q60 0 96 44z" />
    <glyph glyph-name="Racute" unicode="&#x154;" horiz-adv-x="647" 
d="M613 0h-141l-177 258h-94v-258h-125v700h288q68 0 120 -27.5t80.5 -78t28.5 -116.5q0 -84 -46 -141t-116 -74zM201 588v-221h155q52 0 82 30t30 81q0 50 -30 80t-82 30h-155zM366 767h-92l90 146h117z" />
    <glyph glyph-name="racute" unicode="&#x155;" horiz-adv-x="386" 
d="M64 0v526h97l13 -64h5q41 64 131 64h61v-110h-55q-62 0 -99.5 -35.5t-37.5 -94.5v-286h-115zM263 603h-92l90 146h117z" />
    <glyph glyph-name="uni0156" unicode="&#x156;" horiz-adv-x="647" 
d="M613 0h-141l-177 258h-94v-258h-125v700h288q68 0 120 -27.5t80.5 -78t28.5 -116.5q0 -84 -46 -141t-116 -74zM201 588v-221h155q52 0 82 30t30 81q0 50 -30 80t-82 30h-155zM314 -251h-75l45 166h103z" />
    <glyph glyph-name="uni0157" unicode="&#x157;" horiz-adv-x="386" 
d="M64 0v526h97l13 -64h5q41 64 131 64h61v-110h-55q-62 0 -99.5 -35.5t-37.5 -94.5v-286h-115zM99 -251h-75l45 166h103z" />
    <glyph glyph-name="Rcaron" unicode="&#x158;" horiz-adv-x="647" 
d="M613 0h-141l-177 258h-94v-258h-125v700h288q68 0 120 -27.5t80.5 -78t28.5 -116.5q0 -84 -46 -141t-116 -74zM201 588v-221h155q52 0 82 30t30 81q0 50 -30 80t-82 30h-155zM365 767h-84l-133 151h102l70 -84h5l71 84h102z" />
    <glyph glyph-name="rcaron" unicode="&#x159;" horiz-adv-x="386" 
d="M64 0v526h97l13 -64h5q41 64 131 64h61v-110h-55q-62 0 -99.5 -35.5t-37.5 -94.5v-286h-115zM261 603h-84l-133 151h102l70 -84h5l71 84h102z" />
    <glyph glyph-name="Sacute" unicode="&#x15a;" horiz-adv-x="612" 
d="M118 44.5q-73 54.5 -87 153.5h125q12 -47 50.5 -73t97.5 -26q74 0 110 27.5t36 72.5q0 31 -20.5 50t-51 29t-84.5 22q-77 17 -124.5 35.5t-81.5 60.5t-34 115q0 60 31.5 105.5t88.5 69.5t130 24q112 0 178 -52t81 -140h-125q-11 38 -44.5 60.5t-86.5 22.5
q-60 0 -92.5 -25.5t-32.5 -64.5q0 -34 21.5 -54.5t53.5 -31.5t88 -24q75 -18 121 -36t79 -58t33 -108q0 -58 -32 -105.5t-94 -75.5t-148 -28q-113 0 -186 54.5zM352 767h-92l90 146h117z" />
    <glyph glyph-name="sacute" unicode="&#x15b;" horiz-adv-x="498" 
d="M97.5 33q-57.5 43 -71.5 120h123q7 -28 33.5 -45t64.5 -17q54 0 79 16.5t25 41.5q0 28 -27.5 41t-84.5 25q-60 13 -99.5 28t-67.5 48.5t-28 90.5q0 43 24 78t70 55.5t109 20.5q88 0 144.5 -39t70.5 -112h-123q-7 22 -29.5 36t-62.5 14q-41 0 -63 -14.5t-22 -38.5
q0 -29 27.5 -42t86.5 -27q60 -13 98.5 -27.5t66.5 -47.5t28 -89q0 -73 -58.5 -116t-163.5 -43q-92 0 -149.5 43zM290 603h-92l90 146h117z" />
    <glyph glyph-name="Scircumflex" unicode="&#x15c;" horiz-adv-x="612" 
d="M118 44.5q-73 54.5 -87 153.5h125q12 -47 50.5 -73t97.5 -26q74 0 110 27.5t36 72.5q0 31 -20.5 50t-51 29t-84.5 22q-77 17 -124.5 35.5t-81.5 60.5t-34 115q0 60 31.5 105.5t88.5 69.5t130 24q112 0 178 -52t81 -140h-125q-11 38 -44.5 60.5t-86.5 22.5
q-60 0 -92.5 -25.5t-32.5 -64.5q0 -34 21.5 -54.5t53.5 -31.5t88 -24q75 -18 121 -36t79 -58t33 -108q0 -58 -32 -105.5t-94 -75.5t-148 -28q-113 0 -186 54.5zM236 767h-102l133 151h84l133 -151h-102l-71 84h-5z" />
    <glyph glyph-name="scircumflex" unicode="&#x15d;" horiz-adv-x="498" 
d="M97.5 33q-57.5 43 -71.5 120h123q7 -28 33.5 -45t64.5 -17q54 0 79 16.5t25 41.5q0 28 -27.5 41t-84.5 25q-60 13 -99.5 28t-67.5 48.5t-28 90.5q0 43 24 78t70 55.5t109 20.5q88 0 144.5 -39t70.5 -112h-123q-7 22 -29.5 36t-62.5 14q-41 0 -63 -14.5t-22 -38.5
q0 -29 27.5 -42t86.5 -27q60 -13 98.5 -27.5t66.5 -47.5t28 -89q0 -73 -58.5 -116t-163.5 -43q-92 0 -149.5 43zM174 603h-102l133 151h84l133 -151h-102l-71 84h-5z" />
    <glyph glyph-name="Scedilla" unicode="&#x15e;" horiz-adv-x="612" 
d="M551.5 102q-26.5 -44 -78.5 -73.5t-124 -36.5l-12 -27q33 -2 57 -25.5t24 -60.5q0 -46 -27 -72.5t-75 -26.5h-66v68h53q16 0 25 8.5t9 22.5q0 13 -9 21t-24 8h-44v47l15 36q-101 7 -166 61t-78 146h125q12 -47 50.5 -73t97.5 -26q74 0 110 27.5t36 72.5q0 31 -20.5 50
t-51 29t-84.5 22q-77 17 -124.5 35.5t-81.5 60.5t-34 115q0 60 31.5 105.5t88.5 69.5t130 24q112 0 178 -52t81 -140h-125q-11 38 -44.5 60.5t-86.5 22.5q-60 0 -92.5 -25.5t-32.5 -64.5q0 -34 21.5 -54.5t53.5 -31.5t88 -24q75 -18 121 -36t79 -58t33 -108q0 -53 -26.5 -97
z" />
    <glyph glyph-name="scedilla" unicode="&#x15f;" horiz-adv-x="498" 
d="M421.5 42q-47.5 -42 -132.5 -50l-12 -27q33 -2 57 -25.5t24 -60.5q0 -46 -27 -72.5t-75 -26.5h-66v68h53q16 0 25 8.5t9 22.5q0 13 -9 21t-24 8h-44v47l16 36q-79 7 -128 49.5t-62 112.5h123q7 -28 33.5 -45t64.5 -17q54 0 79 16.5t25 41.5q0 28 -27.5 41t-84.5 25
q-60 13 -99.5 28t-67.5 48.5t-28 90.5q0 43 24 78t70 55.5t109 20.5q88 0 144.5 -39t70.5 -112h-123q-7 22 -29.5 36t-62.5 14q-41 0 -63 -14.5t-22 -38.5q0 -29 27.5 -42t86.5 -27q60 -13 98.5 -27.5t66.5 -47.5t28 -89q0 -65 -47.5 -107z" />
    <glyph glyph-name="Scaron" unicode="&#x160;" horiz-adv-x="612" 
d="M118 44.5q-73 54.5 -87 153.5h125q12 -47 50.5 -73t97.5 -26q74 0 110 27.5t36 72.5q0 31 -20.5 50t-51 29t-84.5 22q-77 17 -124.5 35.5t-81.5 60.5t-34 115q0 60 31.5 105.5t88.5 69.5t130 24q112 0 178 -52t81 -140h-125q-11 38 -44.5 60.5t-86.5 22.5
q-60 0 -92.5 -25.5t-32.5 -64.5q0 -34 21.5 -54.5t53.5 -31.5t88 -24q75 -18 121 -36t79 -58t33 -108q0 -58 -32 -105.5t-94 -75.5t-148 -28q-113 0 -186 54.5zM351 767h-84l-133 151h102l70 -84h5l71 84h102z" />
    <glyph glyph-name="scaron" unicode="&#x161;" horiz-adv-x="498" 
d="M97.5 33q-57.5 43 -71.5 120h123q7 -28 33.5 -45t64.5 -17q54 0 79 16.5t25 41.5q0 28 -27.5 41t-84.5 25q-60 13 -99.5 28t-67.5 48.5t-28 90.5q0 43 24 78t70 55.5t109 20.5q88 0 144.5 -39t70.5 -112h-123q-7 22 -29.5 36t-62.5 14q-41 0 -63 -14.5t-22 -38.5
q0 -29 27.5 -42t86.5 -27q60 -13 98.5 -27.5t66.5 -47.5t28 -89q0 -73 -58.5 -116t-163.5 -43q-92 0 -149.5 43zM289 603h-84l-133 151h102l70 -84h5l71 84h102z" />
    <glyph glyph-name="uni0162" unicode="&#x162;" horiz-adv-x="594" 
d="M360 0h-24l-16 -35q33 -2 57 -25.5t24 -60.5q0 -46 -27 -72.5t-75 -26.5h-66v68h53q16 0 25 8.5t9 22.5q0 13 -9 21t-24 8h-44v47l19 45h-27v588h-216v112h556v-112h-215v-588z" />
    <glyph glyph-name="uni0163" unicode="&#x163;" horiz-adv-x="389" 
d="M349 419h-129v-258q0 -24 15 -39t39 -15h75v-107h-76l-16 -35q33 -2 57 -25.5t24 -60.5q0 -46 -27.5 -72.5t-74.5 -26.5h-66v68h53q16 0 25 8.5t9 22.5q0 13 -9 21t-24 8h-44v47l22 52q-46 13 -71.5 49t-25.5 89v274h-83v107h83l16 140h99v-140h129v-107z" />
    <glyph glyph-name="Tcaron" unicode="&#x164;" horiz-adv-x="594" 
d="M360 0h-125v588h-216v112h556v-112h-215v-588zM339 767h-84l-133 151h102l70 -84h5l71 84h102z" />
    <glyph glyph-name="tcaron" unicode="&#x165;" horiz-adv-x="389" 
d="M257 0q-72 0 -112 38.5t-40 106.5v274h-83v107h83l16 140h99v-140h129v-107h-129v-258q0 -24 15 -39t39 -15h75v-107h-92zM334 556h-78l40 144h101z" />
    <glyph glyph-name="Tbar" unicode="&#x166;" horiz-adv-x="594" 
d="M575 700v-112h-215v-171h132v-101h-132v-316h-125v316h-132v101h132v171h-216v112h556z" />
    <glyph glyph-name="tbar" unicode="&#x167;" horiz-adv-x="389" 
d="M349 419h-129v-80h129v-81h-129v-97q0 -24 15 -39t39 -15h75v-107h-92q-72 0 -112 38.5t-40 106.5v113h-83v81h83v80h-83v107h83l16 140h99v-140h129v-107z" />
    <glyph glyph-name="Utilde" unicode="&#x168;" horiz-adv-x="706" 
d="M203.5 26q-63.5 36 -98 105t-34.5 165v404h125v-404q0 -93 43 -143.5t114 -50.5t114 50.5t43 143.5v404h125v-404q0 -96 -34.5 -165t-98 -105t-149.5 -36t-149.5 36zM382 785.5q-16 6.5 -37 19.5q-14 9 -23 13.5t-18 4.5q-13 0 -20 -10t-7 -29h-85q0 54 26.5 85.5
t69.5 31.5q20 0 36 -6.5t37 -19.5q14 -9 23 -13.5t18 -4.5q13 0 20 10t7 29h85q0 -54 -26.5 -85.5t-69.5 -31.5q-20 0 -36 6.5z" />
    <glyph glyph-name="utilde" unicode="&#x169;" horiz-adv-x="582" 
d="M158 15.5q-44 25.5 -69 74t-25 113.5v323h115v-311q0 -57 29.5 -89t78.5 -32q51 0 83.5 34.5t32.5 86.5v311h115v-526h-97l-13 64h-5q-25 -37 -63 -55.5t-81 -18.5q-57 0 -101 25.5zM319 621.5q-16 6.5 -37 19.5q-14 9 -23 13.5t-18 4.5q-13 0 -20 -10t-7 -29h-85
q0 54 26.5 85.5t69.5 31.5q20 0 36 -6.5t37 -19.5q14 -9 23 -13.5t18 -4.5q13 0 20 10t7 29h85q0 -54 -26.5 -85.5t-69.5 -31.5q-20 0 -36 6.5z" />
    <glyph glyph-name="Umacron" unicode="&#x16a;" horiz-adv-x="706" 
d="M203.5 26q-63.5 36 -98 105t-34.5 165v404h125v-404q0 -93 43 -143.5t114 -50.5t114 50.5t43 143.5v404h125v-404q0 -96 -34.5 -165t-98 -105t-149.5 -36t-149.5 36zM499 796h-292v83h292v-83z" />
    <glyph glyph-name="umacron" unicode="&#x16b;" horiz-adv-x="582" 
d="M158 15.5q-44 25.5 -69 74t-25 113.5v323h115v-311q0 -57 29.5 -89t78.5 -32q51 0 83.5 34.5t32.5 86.5v311h115v-526h-97l-13 64h-5q-25 -37 -63 -55.5t-81 -18.5q-57 0 -101 25.5zM436 632h-292v83h292v-83z" />
    <glyph glyph-name="Ubreve" unicode="&#x16c;" horiz-adv-x="706" 
d="M203.5 26q-63.5 36 -98 105t-34.5 165v404h125v-404q0 -93 43 -143.5t114 -50.5t114 50.5t43 143.5v404h125v-404q0 -96 -34.5 -165t-98 -105t-149.5 -36t-149.5 36zM240.5 806.5q-42.5 37.5 -49.5 104.5h88q4 -31 23 -47.5t51 -16.5t51.5 16.5t22.5 47.5h89
q-7 -67 -50 -104.5t-113 -37.5t-112.5 37.5z" />
    <glyph glyph-name="ubreve" unicode="&#x16d;" horiz-adv-x="582" 
d="M158 15.5q-44 25.5 -69 74t-25 113.5v323h115v-311q0 -57 29.5 -89t78.5 -32q51 0 83.5 34.5t32.5 86.5v311h115v-526h-97l-13 64h-5q-25 -37 -63 -55.5t-81 -18.5q-57 0 -101 25.5zM177.5 642.5q-42.5 37.5 -49.5 104.5h88q4 -31 23 -47.5t51 -16.5t51.5 16.5t22.5 47.5
h89q-7 -67 -50 -104.5t-113 -37.5t-112.5 37.5z" />
    <glyph glyph-name="Uring" unicode="&#x16e;" horiz-adv-x="706" 
d="M203.5 26q-63.5 36 -98 105t-34.5 165v404h125v-404q0 -93 43 -143.5t114 -50.5t114 50.5t43 143.5v404h125v-404q0 -96 -34.5 -165t-98 -105t-149.5 -36t-149.5 36zM277 768.5q-29 29.5 -29 75.5q0 47 29 76t76 29q46 0 75.5 -29t29.5 -76q0 -46 -29.5 -75.5
t-75.5 -29.5q-47 0 -76 29.5zM384.5 812.5q11.5 11.5 11.5 31.5t-11.5 31.5t-31.5 11.5t-31.5 -11.5t-11.5 -31.5t11.5 -31.5t31.5 -11.5t31.5 11.5z" />
    <glyph glyph-name="uring" unicode="&#x16f;" horiz-adv-x="582" 
d="M158 15.5q-44 25.5 -69 74t-25 113.5v323h115v-311q0 -57 29.5 -89t78.5 -32q51 0 83.5 34.5t32.5 86.5v311h115v-526h-97l-13 64h-5q-25 -37 -63 -55.5t-81 -18.5q-57 0 -101 25.5zM214 604.5q-29 29.5 -29 75.5q0 47 29 76t76 29q46 0 75.5 -29t29.5 -76
q0 -46 -29.5 -75.5t-75.5 -29.5q-47 0 -76 29.5zM321.5 648.5q11.5 11.5 11.5 31.5t-11.5 31.5t-31.5 11.5t-31.5 -11.5t-11.5 -31.5t11.5 -31.5t31.5 -11.5t31.5 11.5z" />
    <glyph glyph-name="Uhungarumlaut" unicode="&#x170;" horiz-adv-x="706" 
d="M203.5 26q-63.5 36 -98 105t-34.5 165v404h125v-404q0 -93 43 -143.5t114 -50.5t114 50.5t43 143.5v404h125v-404q0 -96 -34.5 -165t-98 -105t-149.5 -36t-149.5 36zM306 767h-88l90 146h117zM479 767h-89l90 146h117z" />
    <glyph glyph-name="uhungarumlaut" unicode="&#x171;" horiz-adv-x="582" 
d="M158 15.5q-44 25.5 -69 74t-25 113.5v323h115v-311q0 -57 29.5 -89t78.5 -32q51 0 83.5 34.5t32.5 86.5v311h115v-526h-97l-13 64h-5q-25 -37 -63 -55.5t-81 -18.5q-57 0 -101 25.5zM243 603h-88l90 146h117zM416 603h-89l90 146h117z" />
    <glyph glyph-name="Uogonek" unicode="&#x172;" horiz-adv-x="706" 
d="M510 700h125v-404q0 -90 -29 -154t-82 -102q-47 -36 -67 -64.5t-20 -59.5q0 -22 14 -33.5t41 -11.5h18v-73h-32q-63 0 -94.5 26t-31.5 73q0 59 57 98q-30 -5 -56 -5q-86 0 -149.5 36t-98 105t-34.5 165v404h125v-404q0 -93 43 -143.5t114 -50.5t114 50.5t43 143.5v404z
" />
    <glyph glyph-name="uogonek" unicode="&#x173;" horiz-adv-x="582" 
d="M403 526h115v-526h-1q-41 -21 -57 -41t-16 -48q0 -19 13.5 -29.5t41.5 -10.5h18v-73h-31q-65 0 -96 26t-31 73q0 68 75 103h-13l-13 64h-5q-25 -37 -63 -55.5t-81 -18.5q-57 0 -101 25.5t-69 74t-25 113.5v323h115v-311q0 -57 29.5 -89t78.5 -32q51 0 83.5 34.5
t32.5 86.5v311z" />
    <glyph glyph-name="Wcircumflex" unicode="&#x174;" horiz-adv-x="937" 
d="M338 0h-148l-181 700h130l124 -534h5l132 534h138l132 -534h5l125 534h128l-181 -700h-149l-128 521h-5zM396 767h-102l133 151h84l133 -151h-102l-71 84h-5z" />
    <glyph glyph-name="wcircumflex" unicode="&#x175;" horiz-adv-x="774" 
d="M284 0h-132l-145 526h115l100 -383h5l104 383h114l104 -383h5l100 383h113l-145 -526h-132l-100 362h-5zM315 603h-102l133 151h84l133 -151h-102l-71 84h-5z" />
    <glyph glyph-name="Ycircumflex" unicode="&#x176;" horiz-adv-x="600" 
d="M363 0h-125v252l-245 448h133l173 -325h5l172 325h132l-245 -448v-252zM228 767h-102l133 151h84l133 -151h-102l-71 84h-5z" />
    <glyph glyph-name="ycircumflex" unicode="&#x177;" horiz-adv-x="541" 
d="M254 -200h-120l80 200l-215 526h124l148 -378h5l145 378h121zM198 603h-102l133 151h84l133 -151h-102l-71 84h-5z" />
    <glyph glyph-name="Ydieresis" unicode="&#x178;" horiz-adv-x="600" 
d="M363 0h-125v252l-245 448h133l173 -325h5l172 325h132l-245 -448v-252zM160.5 794q-18.5 18 -18.5 45t18.5 45t44.5 18q27 0 45.5 -18t18.5 -45t-18.5 -45t-45.5 -18q-26 0 -44.5 18zM352.5 794q-18.5 18 -18.5 45t18.5 45t45.5 18t45 -18t18 -45t-18 -45t-45 -18
t-45.5 18z" />
    <glyph glyph-name="Zacute" unicode="&#x179;" horiz-adv-x="592" 
d="M557 0h-522v91l359 500h-349v109h507v-91l-360 -500h365v-109zM341 767h-92l90 146h117z" />
    <glyph glyph-name="zacute" unicode="&#x17a;" horiz-adv-x="473" 
d="M443 0h-413v88l265 334h-255v104h398v-88l-266 -334h271v-104zM282 603h-92l90 146h117z" />
    <glyph glyph-name="Zdotaccent" unicode="&#x17b;" horiz-adv-x="592" 
d="M557 0h-522v91l359 500h-349v109h507v-91l-360 -500h365v-109zM253.5 794q-18.5 18 -18.5 45t18.5 45t44.5 18q27 0 45.5 -18t18.5 -45t-18.5 -45t-45.5 -18q-26 0 -44.5 18z" />
    <glyph glyph-name="zdotaccent" unicode="&#x17c;" horiz-adv-x="473" 
d="M443 0h-413v88l265 334h-255v104h398v-88l-266 -334h271v-104zM194.5 630q-18.5 18 -18.5 45t18 45t45 18t45.5 -18t18.5 -45q0 -26 -18.5 -44.5t-45.5 -18.5q-26 0 -44.5 18z" />
    <glyph glyph-name="Zcaron" unicode="&#x17d;" horiz-adv-x="592" 
d="M557 0h-522v91l359 500h-349v109h507v-91l-360 -500h365v-109zM340 767h-84l-133 151h102l70 -84h5l71 84h102z" />
    <glyph glyph-name="zcaron" unicode="&#x17e;" horiz-adv-x="473" 
d="M443 0h-413v88l265 334h-255v104h398v-88l-266 -334h271v-104zM281 603h-84l-133 151h102l70 -84h5l71 84h102z" />
    <glyph glyph-name="uni018F" unicode="&#x18f;" horiz-adv-x="728" 
d="M530.5 668q73.5 -42 113.5 -123t40 -195t-40 -195t-113.5 -123t-170.5 -42q-94 0 -165.5 41.5t-111 124t-39.5 201.5v35h513q-10 99 -62 152.5t-135 53.5q-61 0 -100.5 -24t-63.5 -71h-130q29 95 103 151t191 56q97 0 170.5 -42zM491.5 152.5q51.5 50.5 63.5 140.5h-387
q10 -94 60.5 -142.5t131.5 -48.5q80 0 131.5 50.5z" />
    <glyph glyph-name="florin" unicode="&#x192;" horiz-adv-x="434" 
d="M376 596q-29 0 -43 -11.5t-20 -41.5l-21 -99h106l-23 -107h-107l-83 -386q-14 -68 -54.5 -99.5t-113.5 -31.5h-85l23 104h55q29 0 43 11.5t21 41.5l77 360h-97l23 107h97l27 125q15 69 55 100t114 31h83l-23 -104h-54z" />
    <glyph glyph-name="uni01F4" unicode="&#x1f4;" horiz-adv-x="721" 
d="M197.5 32q-73.5 42 -113.5 123t-40 195t40 195t113.5 123t170.5 42q117 0 191.5 -57t105.5 -160h-130q-23 52 -63.5 78.5t-103.5 26.5q-90 0 -144.5 -64.5t-54.5 -183.5t55 -183.5t147 -64.5q76 0 125.5 44.5t57.5 118.5h-195v102h318v-49q0 -100 -37 -174t-106.5 -114
t-165.5 -40q-97 0 -170.5 42zM411 767h-92l90 146h117z" />
    <glyph glyph-name="uni01F5" unicode="&#x1f5;" horiz-adv-x="597" 
d="M131.5 -155q-59.5 45 -82.5 125h120q12 -32 43.5 -49t78.5 -17q59 0 93 29t34 83v81h-5q-21 -28 -60 -47.5t-89 -19.5q-102 0 -163.5 66.5t-61.5 186.5t61.5 186.5t163.5 66.5q49 0 89 -20t65 -52h5l14 62h96v-510q0 -104 -62.5 -160t-179.5 -56q-100 0 -159.5 45z
M382 174q36 40 36 109q0 70 -35.5 109.5t-96.5 39.5q-60 0 -96 -39.5t-36 -109.5q0 -69 36 -109t96 -40t96 40zM333 603h-92l90 146h117z" />
    <glyph glyph-name="Aringacute" unicode="&#x1fa;" horiz-adv-x="660" 
d="M661 0h-128l-53 147h-302l-53 -147h-126l256 700h150zM326 562l-109 -306h224l-110 306h-5zM383 929q24 -13 38 -37t14 -55q0 -46 -29 -75.5t-76 -29.5q-46 0 -75.5 29.5t-29.5 75.5q0 43 25 71t66 33l21 59h96zM361.5 805.5q11.5 11.5 11.5 31.5t-11.5 31.5t-31.5 11.5
t-31.5 -11.5t-11.5 -31.5t11.5 -31.5t31.5 -11.5t31.5 11.5z" />
    <glyph glyph-name="aringacute" unicode="&#x1fb;" horiz-adv-x="542" 
d="M426 485q57 -51 57 -143v-342h-97l-13 64h-5q-18 -29 -57.5 -51.5t-93.5 -22.5q-55 0 -96.5 21t-64 58t-22.5 84q0 72 53 117.5t148 45.5h133v29q0 43 -28 66.5t-76 23.5q-36 0 -61 -15.5t-34 -40.5h-117q17 70 72.5 113.5t142.5 43.5q102 0 159 -51zM332.5 120.5
q35.5 32.5 35.5 84.5v23h-130q-44 0 -66.5 -19t-22.5 -50q0 -32 23 -51.5t66 -19.5q59 0 94.5 32.5zM325 765q24 -13 38 -37t14 -55q0 -46 -29 -75.5t-76 -29.5q-46 0 -75.5 29.5t-29.5 75.5q0 43 25 71t66 33l21 60h96zM303.5 641.5q11.5 11.5 11.5 31.5t-11.5 31.5
t-31.5 11.5t-31.5 -11.5t-11.5 -31.5t11.5 -31.5t31.5 -11.5t31.5 11.5z" />
    <glyph glyph-name="AEacute" unicode="&#x1fc;" horiz-adv-x="953" 
d="M558 300v-188h347v-112h-472v147h-254l-72 -147h-136l348 700h576v-112h-337v-183h317v-105h-317zM395 588l-163 -332h201v332h-38zM543 767h-92l90 146h117z" />
    <glyph glyph-name="aeacute" unicode="&#x1fd;" horiz-adv-x="894" 
d="M850 226h-367q8 -66 40.5 -100.5t89.5 -34.5q40 0 64.5 15.5t43.5 46.5h123q-23 -75 -81 -119t-144 -44q-65 0 -115 26t-78 73q-69 -99 -206 -99q-58 0 -100 21.5t-64 58.5t-22 83q0 71 53 116t146 45h135v31q0 42 -27.5 66t-76.5 24q-38 0 -62 -15t-33 -41h-117
q17 70 71.5 113.5t137.5 43.5q63 0 108 -25t67 -64q67 89 181 89q73 0 127 -35t82.5 -94.5t28.5 -130.5q0 -25 -5 -50zM742 314q-7 54 -41.5 87.5t-89.5 33.5q-50 0 -84 -31.5t-44 -89.5h259zM333 121.5q35 33.5 35 83.5v21h-132q-44 0 -65.5 -18.5t-21.5 -48.5
q0 -32 23 -51.5t66 -19.5q60 0 95 33.5zM487 603h-92l90 146h117z" />
    <glyph glyph-name="Oslashacute" unicode="&#x1fe;" horiz-adv-x="736" 
d="M587 633q50 -47 77.5 -118.5t27.5 -164.5q0 -114 -40 -195t-113.5 -123t-170.5 -42q-74 0 -134 24l-23 -39h-115l53 92q-50 47 -77.5 118.5t-27.5 164.5q0 114 40 195t113.5 123t170.5 42q76 0 135 -25l23 40h114zM213 180l232 404q-36 14 -77 14q-90 0 -144.5 -64.5
t-54.5 -183.5q0 -106 44 -170zM512.5 166.5q54.5 64.5 54.5 183.5q0 106 -44 170l-231 -404q36 -14 76 -14q90 0 144.5 64.5zM411 767h-92l90 146h117z" />
    <glyph glyph-name="oslashacute" unicode="&#x1ff;" horiz-adv-x="582" 
d="M472 467q71 -73 71 -204q0 -129 -68 -201t-184 -72q-60 0 -110 21l-19 -31h-102l50 79q-71 73 -71 204q0 129 68 201t184 72q61 0 110 -21l19 31h102zM176 162l166 261q-24 9 -51 9q-60 0 -98.5 -43t-38.5 -126q0 -60 22 -101zM390 137q38 43 38 126q0 60 -22 101
l-166 -261q24 -9 51 -9q61 0 99 43zM334 603h-92l90 146h117z" />
    <glyph glyph-name="uni0218" unicode="&#x218;" horiz-adv-x="612" 
d="M118 44.5q-73 54.5 -87 153.5h125q12 -47 50.5 -73t97.5 -26q74 0 110 27.5t36 72.5q0 31 -20.5 50t-51 29t-84.5 22q-77 17 -124.5 35.5t-81.5 60.5t-34 115q0 60 31.5 105.5t88.5 69.5t130 24q112 0 178 -52t81 -140h-125q-11 38 -44.5 60.5t-86.5 22.5
q-60 0 -92.5 -25.5t-32.5 -64.5q0 -34 21.5 -54.5t53.5 -31.5t88 -24q75 -18 121 -36t79 -58t33 -108q0 -58 -32 -105.5t-94 -75.5t-148 -28q-113 0 -186 54.5zM292 -251h-75l45 166h103z" />
    <glyph glyph-name="uni0219" unicode="&#x219;" horiz-adv-x="498" 
d="M97.5 33q-57.5 43 -71.5 120h123q7 -28 33.5 -45t64.5 -17q54 0 79 16.5t25 41.5q0 28 -27.5 41t-84.5 25q-60 13 -99.5 28t-67.5 48.5t-28 90.5q0 43 24 78t70 55.5t109 20.5q88 0 144.5 -39t70.5 -112h-123q-7 22 -29.5 36t-62.5 14q-41 0 -63 -14.5t-22 -38.5
q0 -29 27.5 -42t86.5 -27q60 -13 98.5 -27.5t66.5 -47.5t28 -89q0 -73 -58.5 -116t-163.5 -43q-92 0 -149.5 43zM232 -251h-75l45 166h103z" />
    <glyph glyph-name="uni021A" unicode="&#x21a;" horiz-adv-x="594" 
d="M360 0h-125v588h-216v112h556v-112h-215v-588zM275 -251h-75l45 166h103z" />
    <glyph glyph-name="uni021B" unicode="&#x21b;" horiz-adv-x="389" 
d="M257 0q-72 0 -112 38.5t-40 106.5v274h-83v107h83l16 140h99v-140h129v-107h-129v-258q0 -24 15 -39t39 -15h75v-107h-92zM212 -251h-75l45 166h103z" />
    <glyph glyph-name="uni0232" unicode="&#x232;" horiz-adv-x="600" 
d="M363 0h-125v252l-245 448h133l173 -325h5l172 325h132l-245 -448v-252zM447 796h-292v83h292v-83z" />
    <glyph glyph-name="uni0233" unicode="&#x233;" horiz-adv-x="541" 
d="M254 -200h-120l80 200l-215 526h124l148 -378h5l145 378h121zM417 632h-292v83h292v-83z" />
    <glyph glyph-name="uni0237" unicode="&#x237;" horiz-adv-x="243" 
d="M-68 -200v104h78q24 0 39 15.5t15 41.5v565h115v-581q0 -70 -38.5 -107.5t-113.5 -37.5h-95z" />
    <glyph glyph-name="uni0244" unicode="&#x244;" horiz-adv-x="716" 
d="M722 523v-100h-82v-127q0 -96 -34.5 -165t-98 -105t-149.5 -36t-149.5 36t-98 105t-34.5 165v127h-82v100h82v177h125v-177h314v177h125v-177h82zM515 423h-314v-127q0 -93 43 -143.5t114 -50.5t114 50.5t43 143.5v127z" />
    <glyph glyph-name="uni0259" unicode="&#x259;" horiz-adv-x="575" 
d="M468.5 464q68.5 -72 68.5 -201t-68 -201t-183 -72q-76 0 -132 35t-85.5 93.5t-29.5 128.5q0 28 5 53h375q-8 65 -42 100t-93 35q-41 0 -66 -15.5t-44 -46.5h-123q23 74 81.5 118.5t151.5 44.5q116 0 184.5 -72zM374.5 123.5q34.5 32.5 44.5 88.5h-267q8 -50 42 -85.5
t92 -35.5q54 0 88.5 32.5z" />
    <glyph glyph-name="uni0289" unicode="&#x289;" horiz-adv-x="592" 
d="M600 400v-92h-77v-308h-97l-13 64h-5q-25 -37 -63 -55.5t-81 -18.5q-57 0 -101 25.5t-69 74t-25 113.5v105h-77v92h77v126h115v-126h224v126h115v-126h77zM408 308h-224v-93q0 -57 29.5 -89t78.5 -32q51 0 83.5 34.5t32.5 86.5v93z" />
    <glyph glyph-name="uni02BC" unicode="&#x2bc;" horiz-adv-x="204" 
d="M105 543h-75l43 157h101z" />
    <glyph glyph-name="circumflex" unicode="&#x2c6;" horiz-adv-x="410" 
d="M132 603h-102l133 151h84l133 -151h-102l-71 84h-5z" />
    <glyph glyph-name="caron" unicode="&#x2c7;" horiz-adv-x="410" 
d="M247 603h-84l-133 151h102l70 -84h5l71 84h102z" />
    <glyph glyph-name="breve" unicode="&#x2d8;" horiz-adv-x="385" 
d="M79.5 642.5q-42.5 37.5 -49.5 104.5h88q4 -31 23 -47.5t51 -16.5t51.5 16.5t22.5 47.5h89q-7 -67 -50 -104.5t-113 -37.5t-112.5 37.5z" />
    <glyph glyph-name="dotaccent" unicode="&#x2d9;" horiz-adv-x="187" 
d="M48.5 630q-18.5 18 -18.5 45t18 45t45 18t45.5 -18t18.5 -45q0 -26 -18.5 -44.5t-45.5 -18.5q-26 0 -44.5 18z" />
    <glyph glyph-name="ring" unicode="&#x2da;" horiz-adv-x="270" 
d="M59 604.5q-29 29.5 -29 75.5q0 47 29 76t76 29q46 0 75.5 -29t29.5 -76q0 -46 -29.5 -75.5t-75.5 -29.5q-47 0 -76 29.5zM166.5 648.5q11.5 11.5 11.5 31.5t-11.5 31.5t-31.5 11.5t-31.5 -11.5t-11.5 -31.5t11.5 -31.5t31.5 -11.5t31.5 11.5z" />
    <glyph glyph-name="ogonek" unicode="&#x2db;" horiz-adv-x="218" 
d="M157 -202q-65 0 -96 26t-31 73q0 84 115 118l43 -15q-41 -21 -57 -41t-16 -48q0 -19 13.5 -29.5t41.5 -10.5h18v-73h-31z" />
    <glyph glyph-name="tilde" unicode="&#x2dc;" horiz-adv-x="382" 
d="M220 621.5q-16 6.5 -37 19.5q-14 9 -23 13.5t-18 4.5q-13 0 -20 -10t-7 -29h-85q0 54 26.5 85.5t69.5 31.5q20 0 36 -6.5t37 -19.5q14 -9 23 -13.5t18 -4.5q13 0 20 10t7 29h85q0 -54 -26.5 -85.5t-69.5 -31.5q-20 0 -36 6.5z" />
    <glyph glyph-name="hungarumlaut" unicode="&#x2dd;" horiz-adv-x="439" 
d="M118 603h-88l90 146h117zM291 603h-89l90 146h117z" />
    <glyph glyph-name="gravecomb" unicode="&#x300;" horiz-adv-x="0" 
d="M-30 603h-92l-115 146h117z" />
    <glyph glyph-name="acutecomb" unicode="&#x301;" horiz-adv-x="0" 
d="M-145 603h-92l90 146h117z" />
    <glyph glyph-name="uni0302" unicode="&#x302;" horiz-adv-x="0" 
d="M-278 603h-102l133 151h84l133 -151h-102l-71 84h-5z" />
    <glyph glyph-name="tildecomb" unicode="&#x303;" horiz-adv-x="0" 
d="M-162 621.5q-16 6.5 -37 19.5q-14 9 -23 13.5t-18 4.5q-13 0 -20 -10t-7 -29h-85q0 54 26.5 85.5t69.5 31.5q20 0 36 -6.5t37 -19.5q14 -9 23 -13.5t18 -4.5q13 0 20 10t7 29h85q0 -54 -26.5 -85.5t-69.5 -31.5q-20 0 -36 6.5z" />
    <glyph glyph-name="uni0304" unicode="&#x304;" horiz-adv-x="0" 
d="M-30 632h-292v83h292v-83z" />
    <glyph glyph-name="uni0306" unicode="&#x306;" horiz-adv-x="0" 
d="M-305.5 642.5q-42.5 37.5 -49.5 104.5h88q4 -31 23 -47.5t51 -16.5t51.5 16.5t22.5 47.5h89q-7 -67 -50 -104.5t-113 -37.5t-112.5 37.5z" />
    <glyph glyph-name="uni0307" unicode="&#x307;" horiz-adv-x="0" 
d="M-138.5 630q-18.5 18 -18.5 45t18 45t45 18t45.5 -18t18.5 -45q0 -26 -18.5 -44.5t-45.5 -18.5q-26 0 -44.5 18z" />
    <glyph glyph-name="uni0308" unicode="&#x308;" horiz-adv-x="0" 
d="M-330.5 630q-18.5 18 -18.5 45t18.5 45t44.5 18q27 0 45.5 -18t18.5 -45t-18.5 -45t-45.5 -18q-26 0 -44.5 18zM-138.5 630q-18.5 18 -18.5 45t18.5 45t45.5 18t45 -18t18 -45t-18 -45t-45 -18t-45.5 18z" />
    <glyph glyph-name="uni030A" unicode="&#x30a;" horiz-adv-x="0" 
d="M-211 604.5q-29 29.5 -29 75.5q0 47 29 76t76 29q46 0 75.5 -29t29.5 -76q0 -46 -29.5 -75.5t-75.5 -29.5q-47 0 -76 29.5zM-103.5 648.5q11.5 11.5 11.5 31.5t-11.5 31.5t-31.5 11.5t-31.5 -11.5t-11.5 -31.5t11.5 -31.5t31.5 -11.5t31.5 11.5z" />
    <glyph glyph-name="uni030B" unicode="&#x30b;" horiz-adv-x="0" 
d="M-321 603h-88l90 146h117zM-148 603h-89l90 146h117z" />
    <glyph glyph-name="uni030C" unicode="&#x30c;" horiz-adv-x="0" 
d="M-163 603h-84l-133 151h102l70 -84h5l71 84h102z" />
    <glyph glyph-name="uni0312" unicode="&#x312;" horiz-adv-x="0" 
d="M-75 603h-103l73 166h75z" />
    <glyph glyph-name="uni0326" unicode="&#x326;" horiz-adv-x="0" 
d="M-103 -251h-75l45 166h103z" />
    <glyph glyph-name="uni0327" unicode="&#x327;" horiz-adv-x="0" 
d="M-111 -35q33 -2 57 -25.5t24 -60.5q0 -46 -27 -72.5t-75 -26.5h-66v68h53q16 0 25 8.5t9 22.5q0 13 -9 21t-24 8h-44v47l31 72l66 -17z" />
    <glyph glyph-name="uni0328" unicode="&#x328;" horiz-adv-x="0" 
d="M-61 -202q-65 0 -96 26t-31 73q0 84 115 118l43 -15q-41 -21 -57 -41t-16 -48q0 -19 13.5 -29.5t41.5 -10.5h18v-73h-31z" />
    <glyph glyph-name="uni03A9" unicode="&#x3a9;" horiz-adv-x="804" 
d="M84 0v87h112q-56 37 -99 110t-43 176q0 96 44 173t123 120.5t181 43.5t181 -43.5t123 -120.5t44 -173q0 -103 -43 -176t-99 -110h112v-87h-272v90q72 33 130.5 102.5t58.5 170.5q0 73 -28.5 128.5t-81.5 87t-125 31.5t-125 -31.5t-81.5 -87t-28.5 -128.5
q0 -101 58 -170.5t130 -102.5v-90h-271z" />
    <glyph glyph-name="uni0400" unicode="&#x400;" horiz-adv-x="596" 
d="M201 300v-188h346v-112h-471v700h461v-112h-336v-183h316v-105h-316zM357 767h-92l-115 146h117z" />
    <glyph glyph-name="uni0401" unicode="&#x401;" horiz-adv-x="596" 
d="M201 300v-188h346v-112h-471v700h461v-112h-336v-183h316v-105h-316zM165.5 794q-18.5 18 -18.5 45t18.5 45t44.5 18q27 0 45.5 -18t18.5 -45t-18.5 -45t-45.5 -18q-26 0 -44.5 18zM357.5 794q-18.5 18 -18.5 45t18.5 45t45.5 18t45 -18t18 -45t-18 -45t-45 -18t-45.5 18
z" />
    <glyph glyph-name="uni0402" unicode="&#x402;" horiz-adv-x="749" 
d="M441 37q64 0 103 41.5t39 110.5q0 68 -40 107.5t-106 39.5q-73 0 -137 -32v-304h-125v591h-176v109h526v-109h-225v-175q68 32 152 32q120 0 188 -68.5t68 -190.5q0 -80 -33 -139.5t-93.5 -92t-140.5 -32.5v112z" />
    <glyph glyph-name="uni0403" unicode="&#x403;" horiz-adv-x="520" 
d="M201 0h-125v700h421v-112h-296v-588zM329 767h-92l90 146h117z" />
    <glyph glyph-name="uni0404" unicode="&#x404;" horiz-adv-x="699" 
d="M471.5 128.5q40.5 26.5 63.5 78.5h130q-31 -103 -105.5 -160t-191.5 -57q-97 0 -170.5 42t-113.5 123t-40 195t40 195t113.5 123t170.5 42q117 0 191.5 -57t105.5 -160h-130q-23 52 -63.5 78.5t-103.5 26.5q-79 0 -131.5 -50.5t-64.5 -145.5h258v-102h-258
q11 -95 64 -146.5t132 -51.5q63 0 103.5 26.5z" />
    <glyph glyph-name="uni0405" unicode="&#x405;" horiz-adv-x="612" 
d="M118 44.5q-73 54.5 -87 153.5h125q12 -47 50.5 -73t97.5 -26q74 0 110 27.5t36 72.5q0 31 -20.5 50t-51 29t-84.5 22q-77 17 -124.5 35.5t-81.5 60.5t-34 115q0 60 31.5 105.5t88.5 69.5t130 24q112 0 178 -52t81 -140h-125q-11 38 -44.5 60.5t-86.5 22.5
q-60 0 -92.5 -25.5t-32.5 -64.5q0 -34 21.5 -54.5t53.5 -31.5t88 -24q75 -18 121 -36t79 -58t33 -108q0 -58 -32 -105.5t-94 -75.5t-148 -28q-113 0 -186 54.5z" />
    <glyph glyph-name="uni0406" unicode="&#x406;" horiz-adv-x="277" 
d="M201 0h-125v700h125v-700z" />
    <glyph glyph-name="uni0407" unicode="&#x407;" horiz-adv-x="277" 
d="M201 0h-125v700h125v-700zM22 794q-17 18 -17 45t17 45t43 18t43 -18t17 -45t-17 -45t-43 -18t-43 18zM168.5 794q-17.5 18 -17.5 45t17.5 45t43.5 18t43 -18t17 -45t-17 -45t-43 -18t-43.5 18z" />
    <glyph glyph-name="uni0408" unicode="&#x408;" horiz-adv-x="564" 
d="M97 44.5q-60 54.5 -70 158.5h125q7 -49 35 -75t72 -26q51 0 80 35t29 103v460h125v-460q0 -120 -62.5 -185t-171.5 -65q-102 0 -162 54.5z" />
    <glyph glyph-name="uni0409" unicode="&#x409;" horiz-adv-x="1005" 
d="M10 -8v123h13q41 0 64 25.5t33.5 90.5t10.5 188v281h462v-272h151q68 0 119.5 -27t79.5 -75.5t28 -111.5t-28 -111.5t-79.5 -75.5t-119.5 -27h-276v588h-212v-178q0 -153 -19 -242t-68.5 -132.5t-142.5 -43.5h-16zM736 112q51 0 80.5 28t29.5 74q0 47 -29.5 75t-80.5 28
h-143v-205h143z" />
    <glyph glyph-name="uni040A" unicode="&#x40a;" horiz-adv-x="1032" 
d="M771 428q68 0 119.5 -27t79.5 -75.5t28 -111.5t-28 -111.5t-79.5 -75.5t-119.5 -27h-276v317h-294v-317h-125v700h125v-272h294v272h125v-272h151zM763 112q51 0 80.5 28t29.5 74q0 47 -29.5 75t-80.5 28h-143v-205h143z" />
    <glyph glyph-name="uni040B" unicode="&#x40b;" horiz-adv-x="781" 
d="M175 0v591h-176v109h526v-109h-225v-175q67 32 157 32q125 0 191.5 -66.5t66.5 -185.5v-196h-125v193q0 68 -38.5 105.5t-106.5 37.5q-83 0 -145 -32v-304h-125z" />
    <glyph glyph-name="uni040C" unicode="&#x40c;" horiz-adv-x="619" 
d="M201 0h-125v700h125v-319l273 319h146l-294 -343l309 -357h-149l-285 330v-330zM376 767h-92l90 146h117z" />
    <glyph glyph-name="uni040D" unicode="&#x40d;" horiz-adv-x="745" 
d="M239 0h-163v700h125v-533h5l301 533h163v-700h-125v533h-5zM422 767h-92l-115 146h117z" />
    <glyph glyph-name="uni040E" unicode="&#x40e;" horiz-adv-x="582" 
d="M277 0h-130l86 193l-240 507h133l169 -358h5l155 358h130zM177.5 806.5q-42.5 37.5 -49.5 104.5h88q4 -31 23 -47.5t51 -16.5t51.5 16.5t22.5 47.5h89q-7 -67 -50 -104.5t-113 -37.5t-112.5 37.5z" />
    <glyph glyph-name="uni040F" unicode="&#x40f;" horiz-adv-x="706" 
d="M410 -145h-115v145h-219v700h125v-588h304v588h125v-700h-220v-145z" />
    <glyph glyph-name="uni0410" unicode="&#x410;" horiz-adv-x="660" 
d="M661 0h-128l-53 147h-302l-53 -147h-126l256 700h150zM326 562l-109 -306h224l-110 306h-5z" />
    <glyph glyph-name="uni0411" unicode="&#x411;" horiz-adv-x="632" 
d="M76 0v700h464v-112h-339v-150h163q105 0 167 -59t62 -158q0 -66 -28 -116t-79.5 -77.5t-121.5 -27.5h-288zM350 112q57 0 87.5 29t30.5 80t-30.5 80t-87.5 29h-149v-218h149z" />
    <glyph glyph-name="uni0412" unicode="&#x412;" horiz-adv-x="659" 
d="M76 0v700h316q101 0 156 -52t55 -143q0 -50 -25 -90.5t-65 -59.5q43 -18 71.5 -61t28.5 -99q0 -91 -55 -143t-156 -52h-326zM378 400q47 0 73.5 25.5t26.5 70.5q0 44 -26.5 69.5t-73.5 25.5h-177v-191h177zM388 109q47 0 73.5 25.5t26.5 69.5q0 45 -26.5 70.5t-73.5 25.5
h-187v-191h187z" />
    <glyph glyph-name="uni0413" unicode="&#x413;" horiz-adv-x="520" 
d="M201 0h-125v700h421v-112h-296v-588z" />
    <glyph glyph-name="uni0414" unicode="&#x414;" horiz-adv-x="716" 
d="M601 112h88v-257h-115v145h-454v-145h-115v257h66q32 55 45.5 129t13.5 187v272h471v-588zM476 112v479h-223v-163q0 -113 -14 -188t-48 -128h285z" />
    <glyph glyph-name="uni0415" unicode="&#x415;" horiz-adv-x="596" 
d="M201 300v-188h346v-112h-471v700h461v-112h-336v-183h316v-105h-316z" />
    <glyph glyph-name="uni0416" unicode="&#x416;" horiz-adv-x="889" 
d="M128 0h-144l281 356l-266 344h141l246 -320v320h117v-320l246 320h141l-266 -344l281 -356h-144l-258 330v-330h-117v330z" />
    <glyph glyph-name="uni0417" unicode="&#x417;" horiz-adv-x="617" 
d="M108.5 45.5q-71.5 55.5 -79.5 154.5h125q7 -49 48 -73.5t98 -24.5q71 0 108.5 26t37.5 73q0 46 -36 72.5t-110 26.5h-61v100h61q66 0 101 26.5t35 73.5q0 44 -36 71t-100 27q-52 0 -90.5 -26t-45.5 -72h-125q13 101 80 155.5t181 54.5q84 0 143 -25.5t88.5 -71
t29.5 -103.5q0 -57 -29 -98t-76 -57q52 -18 83.5 -60.5t31.5 -104.5q0 -56 -30.5 -101.5t-92 -72t-148.5 -26.5q-120 0 -191.5 55.5z" />
    <glyph glyph-name="uni0418" unicode="&#x418;" horiz-adv-x="745" 
d="M239 0h-163v700h125v-533h5l301 533h163v-700h-125v533h-5z" />
    <glyph glyph-name="uni0419" unicode="&#x419;" horiz-adv-x="745" 
d="M239 0h-163v700h125v-533h5l301 533h163v-700h-125v533h-5zM259.5 806.5q-42.5 37.5 -49.5 104.5h88q4 -31 23 -47.5t51 -16.5t51.5 16.5t22.5 47.5h89q-7 -67 -50 -104.5t-113 -37.5t-112.5 37.5z" />
    <glyph glyph-name="uni041A" unicode="&#x41a;" horiz-adv-x="619" 
d="M201 0h-125v700h125v-319l273 319h146l-294 -343l309 -357h-149l-285 330v-330z" />
    <glyph glyph-name="uni041B" unicode="&#x41b;" horiz-adv-x="684" 
d="M10 -8v123h13q41 0 64 25.5t33.5 90.5t10.5 188v281h477v-700h-125v588h-227v-178q0 -153 -19 -242t-68.5 -132.5t-142.5 -43.5h-16z" />
    <glyph glyph-name="uni041C" unicode="&#x41c;" horiz-adv-x="896" 
d="M201 0h-125v700h187l183 -521h6l183 521h185v-700h-125v533h-5l-189 -533h-106l-189 533h-5v-533z" />
    <glyph glyph-name="uni041D" unicode="&#x41d;" horiz-adv-x="716" 
d="M515 408v292h125v-700h-125v297h-314v-297h-125v700h125v-292h314z" />
    <glyph glyph-name="uni041E" unicode="&#x41e;" horiz-adv-x="736" 
d="M197.5 32q-73.5 42 -113.5 123t-40 195t40 195t113.5 123t170.5 42t170.5 -42t113.5 -123t40 -195t-40 -195t-113.5 -123t-170.5 -42t-170.5 42zM512.5 166.5q54.5 64.5 54.5 183.5t-54.5 183.5t-144.5 64.5t-144.5 -64.5t-54.5 -183.5t54.5 -183.5t144.5 -64.5
t144.5 64.5z" />
    <glyph glyph-name="uni041F" unicode="&#x41f;" horiz-adv-x="706" 
d="M201 0h-125v700h554v-700h-125v588h-304v-588z" />
    <glyph glyph-name="uni0420" unicode="&#x420;" horiz-adv-x="637" 
d="M76 0v700h280q70 0 124 -30t83.5 -82.5t29.5 -119.5t-29.5 -120t-83.5 -83t-124 -30h-155v-235h-125zM345 347q58 0 90.5 33t32.5 88t-32.5 87.5t-90.5 32.5h-144v-241h144z" />
    <glyph glyph-name="uni0421" unicode="&#x421;" horiz-adv-x="699" 
d="M197.5 32q-73.5 42 -113.5 123t-40 195t40 195t113.5 123t170.5 42q117 0 191.5 -57t105.5 -160h-130q-23 52 -63.5 78.5t-103.5 26.5q-90 0 -144.5 -64.5t-54.5 -183.5t54.5 -183.5t144.5 -64.5q63 0 103.5 26.5t63.5 78.5h130q-31 -103 -105.5 -160t-191.5 -57
q-97 0 -170.5 42z" />
    <glyph glyph-name="uni0422" unicode="&#x422;" horiz-adv-x="594" 
d="M360 0h-125v588h-216v112h556v-112h-215v-588z" />
    <glyph glyph-name="uni0423" unicode="&#x423;" horiz-adv-x="582" 
d="M277 0h-130l86 193l-240 507h133l169 -358h5l155 358h130z" />
    <glyph glyph-name="uni0424" unicode="&#x424;" horiz-adv-x="829" 
d="M757.5 206.5q-37.5 -64.5 -109.5 -101.5t-171 -38v-77h-125v77q-99 1 -171 38t-109.5 101.5t-37.5 148.5t37.5 148.5t109.5 101.5t171 38v67h125v-67q99 -1 171 -38t109.5 -101.5t37.5 -148.5t-37.5 -148.5zM206 223.5q50 -47.5 150 -48.5v360q-100 -1 -150 -48.5
t-50 -131.5t50 -131.5zM473 175q100 1 150 48.5t50 131.5t-50 131.5t-150 48.5v-360z" />
    <glyph glyph-name="uni0425" unicode="&#x425;" horiz-adv-x="615" 
d="M136 0h-140l234 360l-224 340h141l162 -256l161 256h139l-224 -340l234 -360h-141l-171 274z" />
    <glyph glyph-name="uni0426" unicode="&#x426;" horiz-adv-x="745" 
d="M718 -145h-115v145h-527v700h125v-588h304v588h125v-588h88v-257z" />
    <glyph glyph-name="uni0427" unicode="&#x427;" horiz-adv-x="682" 
d="M482 245q-73 -32 -158 -32q-125 0 -191.5 66.5t-66.5 186.5v234h125v-231q0 -69 38.5 -106.5t106.5 -37.5q46 0 80.5 8t65.5 24v343h125v-700h-125v245z" />
    <glyph glyph-name="uni0428" unicode="&#x428;" horiz-adv-x="967" 
d="M891 0h-815v700h125v-588h220v588h125v-588h220v588h125v-700z" />
    <glyph glyph-name="uni0429" unicode="&#x429;" horiz-adv-x="1006" 
d="M979 -145h-115v145h-788v700h125v-588h220v588h125v-588h220v588h125v-588h88v-257z" />
    <glyph glyph-name="uni042A" unicode="&#x42a;" horiz-adv-x="707" 
d="M160 0v588h-160v112h285v-245h150q72 0 126 -29.5t83 -81.5t29 -117t-29 -116.5t-83 -81t-126 -29.5h-275zM424 112q57 0 90.5 32t33.5 83q0 52 -33 84t-91 32h-139v-231h139z" />
    <glyph glyph-name="uni042B" unicode="&#x42b;" horiz-adv-x="861" 
d="M76 0v700h125v-245h145q71 0 125 -29.5t83 -81.5t29 -117t-29 -116.5t-83 -81t-125 -29.5h-270zM785 0h-125v700h125v-700zM335 112q57 0 90 32t33 83q0 52 -33 84t-90 32h-134v-231h134z" />
    <glyph glyph-name="uni042C" unicode="&#x42c;" horiz-adv-x="627" 
d="M76 0v700h125v-245h155q71 0 125 -29.5t83 -81.5t29 -117t-29 -116.5t-83 -81t-125 -29.5h-280zM345 112q57 0 90 32t33 83q0 52 -33 84t-90 32h-144v-231h144z" />
    <glyph glyph-name="uni042D" unicode="&#x42d;" horiz-adv-x="694" 
d="M496.5 668q73.5 -42 113.5 -123t40 -195t-40 -195t-113.5 -123t-170.5 -42q-116 0 -190.5 57t-106.5 160h130q24 -52 64 -78.5t103 -26.5q80 0 132.5 51t63.5 147h-258v102h258q-12 95 -64 145.5t-132 50.5q-63 0 -103 -26.5t-64 -78.5h-130q32 103 106.5 160t190.5 57
q97 0 170.5 -42z" />
    <glyph glyph-name="uni042E" unicode="&#x42e;" horiz-adv-x="963" 
d="M771 668q70 -42 109 -123t39 -195t-39 -195t-109 -123t-161 -42q-84 0 -150.5 35.5t-107.5 105t-50 166.5h-101v-297h-125v700h125v-292h102q10 96 51 164t107 103t149 35q91 0 161 -42zM743 165.5q51 63.5 51 184.5t-51 184.5t-133 63.5q-83 0 -134 -63.5t-51 -184.5
t51 -184.5t134 -63.5q82 0 133 63.5z" />
    <glyph glyph-name="uni042F" unicode="&#x42f;" horiz-adv-x="647" 
d="M572 700v-700h-125v258h-83l-185 -258h-144l191 261q-74 13 -123 71.5t-49 145.5q0 66 28.5 116.5t80.5 78t120 27.5h289zM447 367v221h-156q-51 0 -81.5 -30t-30.5 -80q0 -51 30.5 -81t81.5 -30h156z" />
    <glyph glyph-name="uni0430" unicode="&#x430;" horiz-adv-x="542" 
d="M426 485q57 -51 57 -143v-342h-97l-13 64h-5q-18 -29 -57.5 -51.5t-93.5 -22.5q-55 0 -96.5 21t-64 58t-22.5 84q0 72 53 117.5t148 45.5h133v29q0 43 -28 66.5t-76 23.5q-36 0 -61 -15.5t-34 -40.5h-117q17 70 72.5 113.5t142.5 43.5q102 0 159 -51zM332.5 120.5
q35.5 32.5 35.5 84.5v23h-130q-44 0 -66.5 -19t-22.5 -50q0 -32 23 -51.5t66 -19.5q59 0 94.5 32.5z" />
    <glyph glyph-name="uni0431" unicode="&#x431;" horiz-adv-x="585" 
d="M111.5 66q-67.5 76 -67.5 223q0 206 68 307t204 101q124 0 194 35v-108q-55 -30 -181 -30q-79 0 -120.5 -42.5t-53.5 -126.5h5q47 68 160 68q67 0 118 -30t80 -86.5t29 -133.5q0 -78 -31 -135t-87.5 -87.5t-132.5 -30.5q-117 0 -184.5 76zM395.5 134q36.5 40 36.5 109
q0 70 -36.5 109.5t-99.5 39.5t-99 -39.5t-36 -109.5q0 -69 36.5 -109t98.5 -40q63 0 99.5 40z" />
    <glyph glyph-name="uni0432" unicode="&#x432;" horiz-adv-x="530" 
d="M64 0v526h261q75 0 117.5 -38.5t42.5 -106.5q0 -40 -18.5 -68.5t-50.5 -44.5q35 -15 57 -45.5t22 -69.5q0 -74 -44 -113.5t-126 -39.5h-261zM310 314q31 0 48 15t17 44q0 28 -17 43.5t-48 15.5h-134v-118h134zM313 95q33 0 51.5 17t18.5 48t-18.5 48t-51.5 17h-137v-130
h137z" />
    <glyph glyph-name="uni0433" unicode="&#x433;" horiz-adv-x="429" 
d="M179 0h-115v526h345v-107h-230v-419z" />
    <glyph glyph-name="uni0434" unicode="&#x434;" horiz-adv-x="590" 
d="M497 104h73v-224h-107v120h-351v-120h-107v224h52q24 38 34.5 86t10.5 123v213h395v-422zM382 104v321h-167v-112q0 -132 -48 -209h215z" />
    <glyph glyph-name="uni0435" unicode="&#x435;" horiz-adv-x="575" 
d="M532 226h-375q8 -66 42 -100.5t92 -34.5q41 0 66.5 15.5t44.5 46.5h123q-23 -73 -82 -118t-152 -45q-116 0 -184 72t-68 201q0 86 31 147.5t87.5 93.5t131.5 32q76 0 132 -35t86 -93.5t30 -128.5q0 -28 -5 -53zM423 314q-7 50 -41.5 85.5t-92.5 35.5q-54 0 -88.5 -32.5
t-43.5 -88.5h266z" />
    <glyph glyph-name="uni0436" unicode="&#x436;" horiz-adv-x="763" 
d="M122 0h-138l228 270l-213 256h134l194 -235v235h109v-235l194 235h135l-214 -256l229 -270h-138l-206 245v-245h-109v245z" />
    <glyph glyph-name="uni0437" unicode="&#x437;" horiz-adv-x="505" 
d="M94.5 32q-56.5 42 -70.5 121h121q15 -62 105 -62q49 0 75 17.5t26 46.5q0 28 -24 46t-74 18h-51v91h48q44 0 67.5 17t23.5 47q0 27 -23 44t-68 17q-39 0 -64.5 -16.5t-30.5 -45.5h-118q9 77 63.5 120t149.5 43q99 0 154 -42.5t55 -110.5q0 -42 -23 -72t-59 -45
q42 -17 67 -48.5t25 -74.5q0 -69 -56 -111t-163 -42q-99 0 -155.5 42z" />
    <glyph glyph-name="uni0438" unicode="&#x438;" horiz-adv-x="595" 
d="M198 0h-134v526h112v-366h5l216 366h134v-526h-112v367h-5z" />
    <glyph glyph-name="uni0439" unicode="&#x439;" horiz-adv-x="595" 
d="M198 0h-134v526h112v-366h5l216 366h134v-526h-112v367h-5zM184.5 642.5q-42.5 37.5 -49.5 104.5h88q4 -31 23 -47.5t51 -16.5t51.5 16.5t22.5 47.5h89q-7 -67 -50 -104.5t-113 -37.5t-112.5 37.5z" />
    <glyph glyph-name="uni043A" unicode="&#x43a;" horiz-adv-x="530" 
d="M179 0h-115v526h115v-239l216 239h136l-231 -256l246 -270h-139l-228 249v-249z" />
    <glyph glyph-name="uni043B" unicode="&#x43b;" horiz-adv-x="565" 
d="M10 -8v116h13q33 0 49.5 19.5t23 64t6.5 127.5v207h399v-526h-115v419h-169v-112q0 -106 -15 -173.5t-54.5 -104.5t-112.5 -37h-25z" />
    <glyph glyph-name="uni043C" unicode="&#x43c;" horiz-adv-x="726" 
d="M176 0h-112v526h157l140 -359h5l140 359h156v-526h-112v364h-5l-142 -364h-81l-141 364h-5v-364z" />
    <glyph glyph-name="uni043D" unicode="&#x43d;" horiz-adv-x="578" 
d="M400 317v209h115v-526h-115v210h-221v-210h-115v526h115v-209h221z" />
    <glyph glyph-name="uni043E" unicode="&#x43e;" horiz-adv-x="582" 
d="M107 62q-68 72 -68 201t68 201t184 72t184 -72t68 -201t-68 -201t-184 -72t-184 72zM390 137q38 43 38 126t-38 126t-99 43q-60 0 -98.5 -43t-38.5 -126t38.5 -126t98.5 -43q61 0 99 43z" />
    <glyph glyph-name="uni043F" unicode="&#x43f;" horiz-adv-x="577" 
d="M179 0h-115v526h449v-526h-115v419h-219v-419z" />
    <glyph glyph-name="uni0440" unicode="&#x440;" horiz-adv-x="603" 
d="M64 -200v726h97l13 -64h5q26 34 65.5 54t92.5 20q67 0 118.5 -31.5t80.5 -93t29 -148.5t-29 -148.5t-80.5 -93t-118.5 -31.5q-54 0 -92 20t-61 49h-5v-259h-115zM412.5 137q37.5 43 37.5 126t-37.5 126t-98.5 43q-60 0 -97.5 -43t-37.5 -126t37.5 -126t97.5 -43
q61 0 98.5 43z" />
    <glyph glyph-name="uni0441" unicode="&#x441;" horiz-adv-x="557" 
d="M107 62q-68 72 -68 201t68 201t184 72q94 0 152.5 -47t81.5 -126h-117q-38 69 -117 69q-61 0 -99 -44t-38 -125t38 -125t99 -44q79 0 117 69h117q-23 -79 -82 -126t-152 -47q-116 0 -184 72z" />
    <glyph glyph-name="uni0442" unicode="&#x442;" horiz-adv-x="480" 
d="M298 0h-115v419h-171v107h456v-107h-170v-419z" />
    <glyph glyph-name="uni0443" unicode="&#x443;" horiz-adv-x="541" 
d="M254 -200h-120l80 200l-215 526h124l148 -378h5l145 378h121z" />
    <glyph glyph-name="uni0444" unicode="&#x444;" horiz-adv-x="725" 
d="M658 126q-33 -59 -94 -92t-144 -34v-200h-115v200q-83 1 -144 34t-94 92t-33 137t33 137t94 92t144 34v174h115v-174q83 -1 144 -34t94 -92t33 -137t-33 -137zM188 145q42 -44 120 -44v324q-78 0 -120 -44t-42 -118t42 -118zM417 101q78 0 120 44t42 118t-42 118t-120 44
v-324z" />
    <glyph glyph-name="uni0445" unicode="&#x445;" horiz-adv-x="485" 
d="M120 0h-126l176 273l-166 253h128l112 -178l111 178h126l-166 -253l176 -273h-128l-121 195z" />
    <glyph glyph-name="uni0446" unicode="&#x446;" horiz-adv-x="601" 
d="M581 -120h-107v120h-410v526h115v-419h214v419h115v-419h73v-227z" />
    <glyph glyph-name="uni0447" unicode="&#x447;" horiz-adv-x="553" 
d="M374 177q-53 -22 -116 -22q-99 0 -151.5 51t-52.5 144v176h115v-176q0 -44 26 -68t78 -24q34 0 56 4.5t45 17.5v246h115v-526h-115v177z" />
    <glyph glyph-name="uni0448" unicode="&#x448;" horiz-adv-x="797" 
d="M733 0h-669v526h115v-419h162v419h115v-419h162v419h115v-526z" />
    <glyph glyph-name="uni0449" unicode="&#x449;" horiz-adv-x="826" 
d="M806 -120h-107v120h-635v526h115v-419h162v419h115v-419h162v419h115v-419h73v-227z" />
    <glyph glyph-name="uni044A" unicode="&#x44a;" horiz-adv-x="568" 
d="M360 352q80 0 130 -49t50 -127q0 -79 -50 -127.5t-130 -48.5h-233v419h-127v107h242v-174h118zM346 104q36 0 57.5 19t21.5 53t-21.5 53t-57.5 19h-104v-144h104z" />
    <glyph glyph-name="uni044B" unicode="&#x44b;" horiz-adv-x="710" 
d="M292 352q52 0 93 -22.5t64 -62.5t23 -91q0 -79 -50 -127.5t-130 -48.5h-228v526h115v-174h113zM531 0v526h115v-526h-115zM278 104q36 0 57.5 19t21.5 53t-21.5 53t-57.5 19h-99v-144h99z" />
    <glyph glyph-name="uni044C" unicode="&#x44c;" horiz-adv-x="510" 
d="M302 352q52 0 93 -22.5t64 -62.5t23 -91q0 -79 -50 -127.5t-130 -48.5h-238v526h115v-174h123zM288 104q36 0 57.5 19t21.5 53t-21.5 53t-57.5 19h-109v-144h109z" />
    <glyph glyph-name="uni044D" unicode="&#x44d;" horiz-adv-x="552" 
d="M444.5 464q68.5 -72 68.5 -201t-68.5 -201t-184.5 -72q-93 0 -151.5 47t-81.5 126h117q19 -34 47 -51.5t69 -17.5q53 0 88.5 31.5t45.5 90.5h-177v94h177q-10 60 -45.5 91t-88.5 31q-41 0 -69 -17.5t-47 -51.5h-117q23 79 81.5 126t151.5 47q116 0 184.5 -72z" />
    <glyph glyph-name="uni044E" unicode="&#x44e;" horiz-adv-x="772" 
d="M668 463q65 -73 65 -200t-65 -200t-177 -73q-101 0 -164 59t-76 164h-72v-213h-115v526h115v-213h72q13 105 76 164t164 59q112 0 177 -73zM582.5 137q35.5 43 35.5 126t-35.5 126t-91.5 43q-57 0 -92.5 -43t-35.5 -126t35.5 -126t92.5 -43q56 0 91.5 43z" />
    <glyph glyph-name="uni044F" unicode="&#x44f;" horiz-adv-x="532" 
d="M468 526v-526h-115v188h-65l-129 -188h-131l139 195q-57 14 -90 56.5t-33 103.5q0 77 49.5 124t129.5 47h245zM353 285v137h-119q-35 0 -55 -18t-20 -50t20 -50.5t55 -18.5h119z" />
    <glyph glyph-name="uni0450" unicode="&#x450;" horiz-adv-x="575" 
d="M532 226h-375q8 -66 42 -100.5t92 -34.5q41 0 66.5 15.5t44.5 46.5h123q-23 -73 -82 -118t-152 -45q-116 0 -184 72t-68 201q0 86 31 147.5t87.5 93.5t131.5 32q76 0 132 -35t86 -93.5t30 -128.5q0 -28 -5 -53zM423 314q-7 50 -41.5 85.5t-92.5 35.5q-54 0 -88.5 -32.5
t-43.5 -88.5h266zM340 603h-92l-115 146h117z" />
    <glyph glyph-name="uni0451" unicode="&#x451;" horiz-adv-x="575" 
d="M532 226h-375q8 -66 42 -100.5t92 -34.5q41 0 66.5 15.5t44.5 46.5h123q-23 -73 -82 -118t-152 -45q-116 0 -184 72t-68 201q0 86 31 147.5t87.5 93.5t131.5 32q76 0 132 -35t86 -93.5t30 -128.5q0 -28 -5 -53zM423 314q-7 50 -41.5 85.5t-92.5 35.5q-54 0 -88.5 -32.5
t-43.5 -88.5h266zM149.5 630q-18.5 18 -18.5 45t18.5 45t44.5 18q27 0 45.5 -18t18.5 -45t-18.5 -45t-45.5 -18q-26 0 -44.5 18zM341.5 630q-18.5 18 -18.5 45t18.5 45t45.5 18t45 -18t18 -45t-18 -45t-45 -18t-45.5 18z" />
    <glyph glyph-name="uni0452" unicode="&#x452;" horiz-adv-x="587" 
d="M433 460.5q44 -25.5 69.5 -73.5t25.5 -114v-328q0 -70 -38.5 -107.5t-113.5 -37.5h-74v101h57q24 0 39 15.5t15 41.5v303q0 57 -29.5 89t-79.5 32t-82.5 -34.5t-32.5 -86.5v-261h-115v543h-77v86h77v71h115v-71h129v-86h-129v-126h5q26 35 59.5 52t79.5 17
q56 0 100 -25.5z" />
    <glyph glyph-name="uni0453" unicode="&#x453;" horiz-adv-x="429" 
d="M179 0h-115v526h345v-107h-230v-419zM279 603h-92l90 146h117z" />
    <glyph glyph-name="uni0454" unicode="&#x454;" horiz-adv-x="557" 
d="M408 163h117q-23 -79 -82 -126t-152 -47q-116 0 -184 72t-68 201t68 201t184 72q94 0 152.5 -47t81.5 -126h-117q-38 69 -117 69q-52 0 -87.5 -31t-45.5 -91h176v-94h-176q10 -59 45.5 -90.5t87.5 -31.5q79 0 117 69z" />
    <glyph glyph-name="uni0455" unicode="&#x455;" horiz-adv-x="498" 
d="M97.5 33q-57.5 43 -71.5 120h123q7 -28 33.5 -45t64.5 -17q54 0 79 16.5t25 41.5q0 28 -27.5 41t-84.5 25q-60 13 -99.5 28t-67.5 48.5t-28 90.5q0 43 24 78t70 55.5t109 20.5q88 0 144.5 -39t70.5 -112h-123q-7 22 -29.5 36t-62.5 14q-41 0 -63 -14.5t-22 -38.5
q0 -29 27.5 -42t86.5 -27q60 -13 98.5 -27.5t66.5 -47.5t28 -89q0 -73 -58.5 -116t-163.5 -43q-92 0 -149.5 43z" />
    <glyph glyph-name="uni0456" unicode="&#x456;" horiz-adv-x="243" 
d="M179 0h-115v526h115v-526zM72.5 623q-20.5 20 -20.5 49t20 49.5t50 20.5q29 0 49 -20.5t20 -49.5t-20 -49t-49 -20t-49.5 20z" />
    <glyph glyph-name="uni0457" unicode="&#x457;" horiz-adv-x="243" 
d="M179 0h-115v526h115v-526zM9 630q-17 18 -17 45t17 45t42 18t41.5 -18t16.5 -45t-16.5 -45t-41.5 -18t-42 18zM149 630q-17 18 -17 45t17 45t42 18t41.5 -18t16.5 -45t-16.5 -45t-41.5 -18t-42 18z" />
    <glyph glyph-name="uni0458" unicode="&#x458;" horiz-adv-x="243" 
d="M-68 -200v104h78q24 0 39 15.5t15 41.5v565h115v-581q0 -70 -38.5 -107.5t-113.5 -37.5h-95zM72.5 623q-20.5 20 -20.5 49t20 49.5t50 20.5q29 0 49 -20.5t20 -49.5t-20 -49t-49 -20t-49.5 20z" />
    <glyph glyph-name="uni0459" unicode="&#x459;" horiz-adv-x="807" 
d="M607 332q78 0 124.5 -46t46.5 -119q0 -75 -46 -121t-125 -46h-231v419h-159v-115q0 -112 -18 -180t-57.5 -100t-106.5 -32h-25v116h13q32 0 48.5 18t23.5 63t7 130v207h389v-194h116zM593 104q32 0 51 16.5t19 46.5q0 28 -19 44.5t-51 16.5h-102v-124h102z" />
    <glyph glyph-name="uni045A" unicode="&#x45a;" horiz-adv-x="816" 
d="M616 332q78 0 124.5 -46t46.5 -119q0 -75 -46 -121t-125 -46h-231v225h-206v-225h-115v526h115v-194h206v194h115v-194h116zM602 104q31 0 50.5 17t19.5 46q0 28 -19.5 44.5t-50.5 16.5h-102v-124h102z" />
    <glyph glyph-name="uni045B" unicode="&#x45b;" horiz-adv-x="587" 
d="M433 460.5q44 -25.5 69.5 -73.5t25.5 -114v-273h-115v261q0 57 -29.5 89t-79.5 32t-82.5 -34.5t-32.5 -86.5v-261h-115v543h-77v86h77v71h115v-71h129v-86h-129v-126h5q27 35 60.5 52t78.5 17q56 0 100 -25.5z" />
    <glyph glyph-name="uni045C" unicode="&#x45c;" horiz-adv-x="530" 
d="M179 0h-115v526h115v-239l216 239h136l-231 -256l246 -270h-139l-228 249v-249zM326 603h-92l90 146h117z" />
    <glyph glyph-name="uni045D" unicode="&#x45d;" horiz-adv-x="595" 
d="M198 0h-134v526h112v-366h5l216 366h134v-526h-112v367h-5zM347 603h-92l-115 146h117z" />
    <glyph glyph-name="uni045E" unicode="&#x45e;" horiz-adv-x="541" 
d="M254 -200h-120l80 200l-215 526h124l148 -378h5l145 378h121zM158.5 642.5q-42.5 37.5 -49.5 104.5h88q4 -31 23 -47.5t51 -16.5t51.5 16.5t22.5 47.5h89q-7 -67 -50 -104.5t-113 -37.5t-112.5 37.5z" />
    <glyph glyph-name="uni045F" unicode="&#x45f;" horiz-adv-x="580" 
d="M344 -120h-107v120h-173v526h115v-419h222v419h115v-526h-172v-120z" />
    <glyph glyph-name="uni0490" unicode="&#x490;" horiz-adv-x="520" 
d="M201 0h-125v700h306v145h115v-257h-296v-588z" />
    <glyph glyph-name="uni0491" unicode="&#x491;" horiz-adv-x="429" 
d="M179 0h-115v526h238v120h107v-227h-230v-419z" />
    <glyph glyph-name="uni0492" unicode="&#x492;" horiz-adv-x="525" 
d="M502 700v-112h-296v-196h189v-107h-189v-285h-125v285h-82v107h82v308h421z" />
    <glyph glyph-name="uni0493" unicode="&#x493;" horiz-adv-x="439" 
d="M419 526v-107h-230v-123h156v-101h-156v-195h-115v195h-77v101h77v230h345z" />
    <glyph glyph-name="uni0494" unicode="&#x494;" horiz-adv-x="633" 
d="M326 -23q74 0 115 40.5t41 119.5q0 64 -40.5 106.5t-110.5 42.5q-42 0 -76 -12t-54 -27v-247h-125v700h454v-112h-329v-224q24 15 61 24.5t85 9.5q123 0 191.5 -70t68.5 -191q0 -128 -74 -200t-207 -72v112z" />
    <glyph glyph-name="uni0495" unicode="&#x495;" horiz-adv-x="517" 
d="M274 -86q51 0 78.5 34t27.5 100q0 67 -29.5 103.5t-83.5 36.5q-24 0 -48 -8.5t-40 -22.5v-157h-115v526h348v-104h-233v-157q20 13 47 20t56 7q99 0 156 -64.5t57 -179.5q0 -114 -58.5 -177.5t-162.5 -63.5v107z" />
    <glyph glyph-name="uni0496" unicode="&#x496;" horiz-adv-x="906" 
d="M128 0h-144l281 356l-266 344h141l246 -320v320h117v-320l246 320h141l-266 -344l194 -244h94v-257h-115v145h-36l-258 330v-330h-117v330z" />
    <glyph glyph-name="uni0497" unicode="&#x497;" horiz-adv-x="778" 
d="M122 0h-138l228 270l-213 256h134l194 -235v235h109v-235l194 235h135l-214 -256l139 -163h93v-227h-107v120h-34l-206 245v-245h-109v245z" />
    <glyph glyph-name="uni049A" unicode="&#x49a;" horiz-adv-x="632" 
d="M638 -145h-115v145h-37l-285 330v-330h-125v700h125v-319l273 319h146l-294 -343l213 -245h99v-257z" />
    <glyph glyph-name="uni049B" unicode="&#x49b;" horiz-adv-x="543" 
d="M179 0h-115v526h115v-239l216 239h136l-231 -256l151 -163h98v-227h-107v120h-35l-228 249v-249z" />
    <glyph glyph-name="uni049C" unicode="&#x49c;" horiz-adv-x="650" 
d="M649 700l-214 -345l226 -355h-137l-184 303h-27v-116h-75v116h-37v-303h-125v700h125v-298h37v116h75v-116h26l176 298h134z" />
    <glyph glyph-name="uni049D" unicode="&#x49d;" horiz-adv-x="550" 
d="M543 526l-156 -258l169 -268h-124l-134 218h-22v-101h-63v101h-34v-218h-115v526h115v-208h34v101h63v-101h24l122 208h121z" />
    <glyph glyph-name="uni04A2" unicode="&#x4a2;" horiz-adv-x="755" 
d="M640 700v-588h88v-257h-115v145h-98v297h-314v-297h-125v700h125v-292h314v292h125z" />
    <glyph glyph-name="uni04A3" unicode="&#x4a3;" horiz-adv-x="608" 
d="M515 526v-419h73v-227h-107v120h-81v210h-221v-210h-115v526h115v-209h221v209h115z" />
    <glyph glyph-name="uni04AA" unicode="&#x4aa;" horiz-adv-x="699" 
d="M471.5 128.5q40.5 26.5 63.5 78.5h130q-27 -90 -87 -145t-153 -68v-139h-115v139q-123 18 -194.5 110.5t-71.5 245.5q0 114 40 195t113.5 123t170.5 42q117 0 191.5 -57t105.5 -160h-130q-23 52 -63.5 78.5t-103.5 26.5q-90 0 -144.5 -64.5t-54.5 -183.5t54.5 -183.5
t144.5 -64.5q63 0 103.5 26.5z" />
    <glyph glyph-name="uni04AB" unicode="&#x4ab;" horiz-adv-x="557" 
d="M408 163h117q-20 -67 -65.5 -112t-117.5 -57v-114h-107v115q-92 17 -144 86.5t-52 181.5q0 129 68 201t184 72q94 0 152.5 -47t81.5 -126h-117q-38 69 -117 69q-61 0 -99 -44t-38 -125t38 -125t99 -44q79 0 117 69z" />
    <glyph glyph-name="uni04AE" unicode="&#x4ae;" horiz-adv-x="600" 
d="M363 0h-125v252l-245 448h133l173 -325h5l172 325h132l-245 -448v-252z" />
    <glyph glyph-name="uni04AF" unicode="&#x4af;" horiz-adv-x="526" 
d="M319 -200h-112v200h-18l-190 526h123l140 -403h5l139 403h121l-190 -526h-18v-200z" />
    <glyph glyph-name="uni04B0" unicode="&#x4b0;" horiz-adv-x="600" 
d="M476 700h132l-200 -366h122v-100h-167v-234h-125v234h-167v100h122l-200 366h133l173 -325h5z" />
    <glyph glyph-name="uni04B1" unicode="&#x4b1;" horiz-adv-x="526" 
d="M406 526h121l-156 -431h93v-95h-145v-200h-112v200h-145v95h93l-156 431h123l140 -403h5z" />
    <glyph glyph-name="uni04B2" unicode="&#x4b2;" horiz-adv-x="628" 
d="M136 0h-140l234 360l-224 340h141l162 -256l161 256h139l-224 -340l162 -248h87v-257h-115v145h-41l-171 274z" />
    <glyph glyph-name="uni04B3" unicode="&#x4b3;" horiz-adv-x="498" 
d="M120 0h-126l176 273l-166 253h128l112 -178l111 178h126l-166 -253l108 -166h82v-227h-107v120h-35l-121 195z" />
    <glyph glyph-name="uni04B6" unicode="&#x4b6;" horiz-adv-x="722" 
d="M580 -145v145h-98v245q-73 -32 -158 -32q-124 0 -191 66.5t-67 186.5v234h125v-231q0 -69 38.5 -106.5t106.5 -37.5q46 0 80.5 8t65.5 24v343h125v-588h88v-257h-115z" />
    <glyph glyph-name="uni04B7" unicode="&#x4b7;" horiz-adv-x="582" 
d="M455 -120v120h-81v177q-53 -22 -116 -22q-99 0 -151.5 51t-52.5 144v176h115v-176q0 -44 26 -68t78 -24q34 0 56 4.5t45 17.5v246h115v-419h73v-227h-107z" />
    <glyph glyph-name="uni04B8" unicode="&#x4b8;" horiz-adv-x="682" 
d="M482 700h125v-700h-125v245q-52 -23 -106 -29v-108h-81v106q-111 7 -170 73t-59 179v234h125v-231q0 -58 27.5 -93.5t76.5 -46.5v122h81v-124q56 5 106 30v343z" />
    <glyph glyph-name="uni04B9" unicode="&#x4b9;" horiz-adv-x="553" 
d="M374 526h115v-526h-115v177q-32 -14 -69 -19v-79h-68v77q-89 5 -136 56t-47 138v176h115v-176q0 -73 68 -88v95h68v-98q37 4 69 21v246z" />
    <glyph glyph-name="uni04BA" unicode="&#x4ba;" horiz-adv-x="677" 
d="M76 0v700h125v-245q73 32 157 32q125 0 192 -66.5t67 -186.5v-234h-125v231q0 69 -39 106.5t-107 37.5q-45 0 -79.5 -8t-65.5 -24v-343h-125z" />
    <glyph glyph-name="uni04BB" unicode="&#x4bb;" horiz-adv-x="582" 
d="M69 0v700h115v-233h5q27 35 60.5 52t78.5 17q56 0 100 -25.5t69.5 -73.5t25.5 -114v-323h-115v311q0 57 -29.5 89t-79.5 32t-82.5 -34.5t-32.5 -86.5v-311h-115z" />
    <glyph glyph-name="uni04C1" unicode="&#x4c1;" horiz-adv-x="889" 
d="M128 0h-144l281 356l-266 344h141l246 -320v320h117v-320l246 320h141l-266 -344l281 -356h-144l-258 330v-330h-117v330zM331.5 806.5q-42.5 37.5 -49.5 104.5h88q4 -31 23 -47.5t51 -16.5t51.5 16.5t22.5 47.5h89q-7 -67 -50 -104.5t-113 -37.5t-112.5 37.5z" />
    <glyph glyph-name="uni04C2" unicode="&#x4c2;" horiz-adv-x="763" 
d="M122 0h-138l228 270l-213 256h134l194 -235v235h109v-235l194 235h135l-214 -256l229 -270h-138l-206 245v-245h-109v245zM269.5 642.5q-42.5 37.5 -49.5 104.5h88q4 -31 23 -47.5t51 -16.5t51.5 16.5t22.5 47.5h89q-7 -67 -50 -104.5t-113 -37.5t-112.5 37.5z" />
    <glyph glyph-name="uni04D2" unicode="&#x4d2;" horiz-adv-x="660" 
d="M661 0h-128l-53 147h-302l-53 -147h-126l256 700h150zM326 562l-109 -306h224l-110 306h-5zM189.5 794q-18.5 18 -18.5 45t18.5 45t44.5 18q27 0 45.5 -18t18.5 -45t-18.5 -45t-45.5 -18q-26 0 -44.5 18zM381.5 794q-18.5 18 -18.5 45t18.5 45t45.5 18t45 -18t18 -45
t-18 -45t-45 -18t-45.5 18z" />
    <glyph glyph-name="uni04D3" unicode="&#x4d3;" horiz-adv-x="542" 
d="M426 485q57 -51 57 -143v-342h-97l-13 64h-5q-18 -29 -57.5 -51.5t-93.5 -22.5q-55 0 -96.5 21t-64 58t-22.5 84q0 72 53 117.5t148 45.5h133v29q0 43 -28 66.5t-76 23.5q-36 0 -61 -15.5t-34 -40.5h-117q17 70 72.5 113.5t142.5 43.5q102 0 159 -51zM332.5 120.5
q35.5 32.5 35.5 84.5v23h-130q-44 0 -66.5 -19t-22.5 -50q0 -32 23 -51.5t66 -19.5q59 0 94.5 32.5zM131.5 630q-18.5 18 -18.5 45t18.5 45t44.5 18q27 0 45.5 -18t18.5 -45t-18.5 -45t-45.5 -18q-26 0 -44.5 18zM323.5 630q-18.5 18 -18.5 45t18.5 45t45.5 18t45 -18
t18 -45t-18 -45t-45 -18t-45.5 18z" />
    <glyph glyph-name="uni04D8" unicode="&#x4d8;" horiz-adv-x="728" 
d="M530.5 668q73.5 -42 113.5 -123t40 -195t-40 -195t-113.5 -123t-170.5 -42q-94 0 -165.5 41.5t-111 124t-39.5 201.5v35h513q-10 99 -62 152.5t-135 53.5q-61 0 -100.5 -24t-63.5 -71h-130q29 95 103 151t191 56q97 0 170.5 -42zM491.5 152.5q51.5 50.5 63.5 140.5h-387
q10 -94 60.5 -142.5t131.5 -48.5q80 0 131.5 50.5z" />
    <glyph glyph-name="uni04D9" unicode="&#x4d9;" horiz-adv-x="575" 
d="M468.5 464q68.5 -72 68.5 -201t-68 -201t-183 -72q-76 0 -132 35t-85.5 93.5t-29.5 128.5q0 28 5 53h375q-8 65 -42 100t-93 35q-41 0 -66 -15.5t-44 -46.5h-123q23 74 81.5 118.5t151.5 44.5q116 0 184.5 -72zM374.5 123.5q34.5 32.5 44.5 88.5h-267q8 -50 42 -85.5
t92 -35.5q54 0 88.5 32.5z" />
    <glyph glyph-name="uni04E0" unicode="&#x4e0;" horiz-adv-x="613" 
d="M340 421q71 0 122.5 -26.5t78.5 -74t27 -109.5q0 -61 -29 -111t-90 -80t-152 -30q-120 0 -191.5 55.5t-79.5 154.5h125q7 -44 46.5 -71t99.5 -27q69 0 107.5 30t38.5 82q0 109 -146 109h-127v101l211 167h-329v109h498v-103l-223 -176h13z" />
    <glyph glyph-name="uni04E1" unicode="&#x4e1;" horiz-adv-x="518" 
d="M277 248q95 -3 152 -62t57 -160q0 -105 -60.5 -165.5t-170.5 -60.5q-73 0 -126.5 26.5t-82.5 73.5t-30 107h115q4 -48 36.5 -75.5t84.5 -27.5q57 0 88 32t31 93q0 124 -132 124h-111v93l199 176h-282v104h426v-107z" />
    <glyph glyph-name="uni04E2" unicode="&#x4e2;" horiz-adv-x="745" 
d="M239 0h-163v700h125v-533h5l301 533h163v-700h-125v533h-5zM518 796h-292v83h292v-83z" />
    <glyph glyph-name="uni04E3" unicode="&#x4e3;" horiz-adv-x="595" 
d="M198 0h-134v526h112v-366h5l216 366h134v-526h-112v367h-5zM443 632h-292v83h292v-83z" />
    <glyph glyph-name="uni04E6" unicode="&#x4e6;" horiz-adv-x="736" 
d="M197.5 32q-73.5 42 -113.5 123t-40 195t40 195t113.5 123t170.5 42t170.5 -42t113.5 -123t40 -195t-40 -195t-113.5 -123t-170.5 -42t-170.5 42zM512.5 166.5q54.5 64.5 54.5 183.5t-54.5 183.5t-144.5 64.5t-144.5 -64.5t-54.5 -183.5t54.5 -183.5t144.5 -64.5
t144.5 64.5zM226.5 794q-18.5 18 -18.5 45t18.5 45t44.5 18q27 0 45.5 -18t18.5 -45t-18.5 -45t-45.5 -18q-26 0 -44.5 18zM418.5 794q-18.5 18 -18.5 45t18.5 45t45.5 18t45 -18t18 -45t-18 -45t-45 -18t-45.5 18z" />
    <glyph glyph-name="uni04E7" unicode="&#x4e7;" horiz-adv-x="582" 
d="M107 62q-68 72 -68 201t68 201t184 72t184 -72t68 -201t-68 -201t-184 -72t-184 72zM390 137q38 43 38 126t-38 126t-99 43q-60 0 -98.5 -43t-38.5 -126t38.5 -126t98.5 -43q61 0 99 43zM150.5 630q-18.5 18 -18.5 45t18.5 45t44.5 18q27 0 45.5 -18t18.5 -45t-18.5 -45
t-45.5 -18q-26 0 -44.5 18zM342.5 630q-18.5 18 -18.5 45t18.5 45t45.5 18t45 -18t18 -45t-18 -45t-45 -18t-45.5 18z" />
    <glyph glyph-name="uni04E8" unicode="&#x4e8;" horiz-adv-x="736" 
d="M538.5 668q73.5 -42 113.5 -123t40 -195t-40 -195t-113.5 -123t-170.5 -42t-170.5 42t-113.5 123t-40 195t40 195t113.5 123t170.5 42t170.5 -42zM236 546.5q-53 -51.5 -64 -146.5h392q-11 96 -63.5 147t-132.5 51q-79 0 -132 -51.5zM500.5 153q52.5 51 63.5 147h-392
q11 -95 64 -146.5t132 -51.5q80 0 132.5 51z" />
    <glyph glyph-name="uni04E9" unicode="&#x4e9;" horiz-adv-x="582" 
d="M475 464q68 -72 68 -201t-68 -201t-184 -72t-184 72t-68 201t68 201t184 72t184 -72zM203 400.5q-36 -31.5 -46 -93.5h268q-10 62 -46 93.5t-88 31.5t-88 -31.5zM379 125.5q36 31.5 46 93.5h-268q10 -62 46 -93.5t88 -31.5t88 31.5z" />
    <glyph glyph-name="uni04EE" unicode="&#x4ee;" horiz-adv-x="582" 
d="M277 0h-130l86 193l-240 507h133l169 -358h5l155 358h130zM437 796h-292v83h292v-83z" />
    <glyph glyph-name="uni04EF" unicode="&#x4ef;" horiz-adv-x="541" 
d="M254 -200h-120l80 200l-215 526h124l148 -378h5l145 378h121zM417 632h-292v83h292v-83z" />
    <glyph glyph-name="uni04F0" unicode="&#x4f0;" horiz-adv-x="582" 
d="M277 0h-130l86 193l-240 507h133l169 -358h5l155 358h130zM149.5 794q-18.5 18 -18.5 45t18.5 45t44.5 18q27 0 45.5 -18t18.5 -45t-18.5 -45t-45.5 -18q-26 0 -44.5 18zM341.5 794q-18.5 18 -18.5 45t18.5 45t45.5 18t45 -18t18 -45t-18 -45t-45 -18t-45.5 18z" />
    <glyph glyph-name="uni04F1" unicode="&#x4f1;" horiz-adv-x="541" 
d="M254 -200h-120l80 200l-215 526h124l148 -378h5l145 378h121zM130.5 630q-18.5 18 -18.5 45t18.5 45t44.5 18q27 0 45.5 -18t18.5 -45t-18.5 -45t-45.5 -18q-26 0 -44.5 18zM322.5 630q-18.5 18 -18.5 45t18.5 45t45.5 18t45 -18t18 -45t-18 -45t-45 -18t-45.5 18z" />
    <glyph glyph-name="Wgrave" unicode="&#x1e80;" horiz-adv-x="937" 
d="M338 0h-148l-181 700h130l124 -534h5l132 534h138l132 -534h5l125 534h128l-181 -700h-149l-128 521h-5zM519 767h-92l-115 146h117z" />
    <glyph glyph-name="wgrave" unicode="&#x1e81;" horiz-adv-x="774" 
d="M284 0h-132l-145 526h115l100 -383h5l104 383h114l104 -383h5l100 383h113l-145 -526h-132l-100 362h-5zM438 603h-92l-115 146h117z" />
    <glyph glyph-name="Wacute" unicode="&#x1e82;" horiz-adv-x="937" 
d="M338 0h-148l-181 700h130l124 -534h5l132 534h138l132 -534h5l125 534h128l-181 -700h-149l-128 521h-5zM512 767h-92l90 146h117z" />
    <glyph glyph-name="wacute" unicode="&#x1e83;" horiz-adv-x="774" 
d="M284 0h-132l-145 526h115l100 -383h5l104 383h114l104 -383h5l100 383h113l-145 -526h-132l-100 362h-5zM431 603h-92l90 146h117z" />
    <glyph glyph-name="Wdieresis" unicode="&#x1e84;" horiz-adv-x="937" 
d="M338 0h-148l-181 700h130l124 -534h5l132 534h138l132 -534h5l125 534h128l-181 -700h-149l-128 521h-5zM328.5 794q-18.5 18 -18.5 45t18.5 45t44.5 18q27 0 45.5 -18t18.5 -45t-18.5 -45t-45.5 -18q-26 0 -44.5 18zM520.5 794q-18.5 18 -18.5 45t18.5 45t45.5 18
t45 -18t18 -45t-18 -45t-45 -18t-45.5 18z" />
    <glyph glyph-name="wdieresis" unicode="&#x1e85;" horiz-adv-x="774" 
d="M284 0h-132l-145 526h115l100 -383h5l104 383h114l104 -383h5l100 383h113l-145 -526h-132l-100 362h-5zM247.5 630q-18.5 18 -18.5 45t18.5 45t44.5 18q27 0 45.5 -18t18.5 -45t-18.5 -45t-45.5 -18q-26 0 -44.5 18zM439.5 630q-18.5 18 -18.5 45t18.5 45t45.5 18
t45 -18t18 -45t-18 -45t-45 -18t-45.5 18z" />
    <glyph glyph-name="uni1E9E" unicode="&#x1e9e;" horiz-adv-x="684" 
d="M457 419q51 -3 93.5 -28t67.5 -70.5t25 -106.5q0 -98 -60 -156t-166 -58h-105v112h86q62 0 91 27.5t29 77.5q0 49 -30 77.5t-93 28.5h-73v103l150 162h-175q-46 0 -73.5 -28t-27.5 -79v-481h-125v484q0 101 55.5 158.5t152.5 57.5h334v-107l-156 -169v-5z" />
    <glyph glyph-name="uni1EBC" unicode="&#x1ebc;" horiz-adv-x="596" 
d="M201 300v-188h346v-112h-471v700h461v-112h-336v-183h316v-105h-316zM336 785.5q-16 6.5 -37 19.5q-14 9 -23 13.5t-18 4.5q-13 0 -20 -10t-7 -29h-85q0 54 26.5 85.5t69.5 31.5q20 0 36 -6.5t37 -19.5q14 -9 23 -13.5t18 -4.5q13 0 20 10t7 29h85q0 -54 -26.5 -85.5
t-69.5 -31.5q-20 0 -36 6.5z" />
    <glyph glyph-name="uni1EBD" unicode="&#x1ebd;" horiz-adv-x="575" 
d="M532 226h-375q8 -66 42 -100.5t92 -34.5q41 0 66.5 15.5t44.5 46.5h123q-23 -73 -82 -118t-152 -45q-116 0 -184 72t-68 201q0 86 31 147.5t87.5 93.5t131.5 32q76 0 132 -35t86 -93.5t30 -128.5q0 -28 -5 -53zM423 314q-7 50 -41.5 85.5t-92.5 35.5q-54 0 -88.5 -32.5
t-43.5 -88.5h266zM319 621.5q-16 6.5 -37 19.5q-14 9 -23 13.5t-18 4.5q-13 0 -20 -10t-7 -29h-85q0 54 26.5 85.5t69.5 31.5q20 0 36 -6.5t37 -19.5q14 -9 23 -13.5t18 -4.5q13 0 20 10t7 29h85q0 -54 -26.5 -85.5t-69.5 -31.5q-20 0 -36 6.5z" />
    <glyph glyph-name="Ygrave" unicode="&#x1ef2;" horiz-adv-x="600" 
d="M363 0h-125v252l-245 448h133l173 -325h5l172 325h132l-245 -448v-252zM351 767h-92l-115 146h117z" />
    <glyph glyph-name="ygrave" unicode="&#x1ef3;" horiz-adv-x="541" 
d="M254 -200h-120l80 200l-215 526h124l148 -378h5l145 378h121zM321 603h-92l-115 146h117z" />
    <glyph glyph-name="uni1EF8" unicode="&#x1ef8;" horiz-adv-x="600" 
d="M363 0h-125v252l-245 448h133l173 -325h5l172 325h132l-245 -448v-252zM330 785.5q-16 6.5 -37 19.5q-14 9 -23 13.5t-18 4.5q-13 0 -20 -10t-7 -29h-85q0 54 26.5 85.5t69.5 31.5q20 0 36 -6.5t37 -19.5q14 -9 23 -13.5t18 -4.5q13 0 20 10t7 29h85q0 -54 -26.5 -85.5
t-69.5 -31.5q-20 0 -36 6.5z" />
    <glyph glyph-name="uni1EF9" unicode="&#x1ef9;" horiz-adv-x="541" 
d="M254 -200h-120l80 200l-215 526h124l148 -378h5l145 378h121zM300 621.5q-16 6.5 -37 19.5q-14 9 -23 13.5t-18 4.5q-13 0 -20 -10t-7 -29h-85q0 54 26.5 85.5t69.5 31.5q20 0 36 -6.5t37 -19.5q14 -9 23 -13.5t18 -4.5q13 0 20 10t7 29h85q0 -54 -26.5 -85.5
t-69.5 -31.5q-20 0 -36 6.5z" />
    <glyph glyph-name="endash" unicode="&#x2013;" horiz-adv-x="560" 
d="M530 220h-500v100h500v-100z" />
    <glyph glyph-name="emdash" unicode="&#x2014;" horiz-adv-x="802" 
d="M772 220h-742v100h742v-100z" />
    <glyph glyph-name="quoteleft" unicode="&#x2018;" horiz-adv-x="211" 
d="M148 491h-108l61 209h88z" />
    <glyph glyph-name="quoteright" unicode="&#x2019;" horiz-adv-x="211" 
d="M127 491h-87l40 209h109z" />
    <glyph glyph-name="quotesinglbase" unicode="&#x201a;" horiz-adv-x="211" 
d="M110 -106h-87l40 209h109z" />
    <glyph glyph-name="quotedblleft" unicode="&#x201c;" horiz-adv-x="381" 
d="M318 491h-108l61 209h88zM148 491h-108l61 209h88z" />
    <glyph glyph-name="quotedblright" unicode="&#x201d;" horiz-adv-x="381" 
d="M127 491h-87l40 209h109zM297 491h-87l40 209h109z" />
    <glyph glyph-name="quotedblbase" unicode="&#x201e;" horiz-adv-x="381" 
d="M110 -106h-87l40 209h109zM280 -106h-87l40 209h109z" />
    <glyph glyph-name="dagger" unicode="&#x2020;" horiz-adv-x="480" 
d="M298 542h125v-107h-125v-435h-115v435h-126v107h126v158h115v-158z" />
    <glyph glyph-name="daggerdbl" unicode="&#x2021;" horiz-adv-x="480" 
d="M423 542v-107h-125v-170h125v-107h-125v-158h-115v158h-126v107h126v170h-126v107h126v158h115v-158h125z" />
    <glyph glyph-name="bullet" unicode="&#x2022;" horiz-adv-x="451" 
d="M150.5 194q-30.5 31 -30.5 74t30.5 74t74.5 31t75 -31t31 -74t-31 -74t-75 -31t-74.5 31z" />
    <glyph glyph-name="ellipsis" unicode="&#x2026;" horiz-adv-x="729" 
d="M63.5 15.5q-20.5 20.5 -20.5 49.5q0 30 20.5 50.5t49.5 20.5t49.5 -20.5t20.5 -50.5q0 -29 -20.5 -49.5t-49.5 -20.5t-49.5 20.5zM315.5 15.5q-20.5 20.5 -20.5 49.5q0 30 20.5 50.5t49.5 20.5t49.5 -20.5t20.5 -50.5q0 -29 -20.5 -49.5t-49.5 -20.5t-49.5 20.5z
M566.5 15.5q-20.5 20.5 -20.5 49.5q0 30 20.5 50.5t49.5 20.5t49.5 -20.5t20.5 -50.5q0 -29 -20.5 -49.5t-49.5 -20.5t-49.5 20.5z" />
    <glyph glyph-name="perthousand" unicode="&#x2030;" horiz-adv-x="1131" 
d="M81 428.5q-44 44.5 -44 118.5t44 118.5t114 44.5t114 -44.5t44 -118.5t-44 -118.5t-114 -44.5t-114 44.5zM208 0h-90l435 700h90zM250 484q21 23 21 63t-21 63t-55 23t-55 -23t-21 -63t21 -63t55 -23t55 23zM452 34.5q-44 44.5 -44 118.5t44 118.5t114 44.5t114 -44.5
t44 -118.5t-44 -118.5t-114 -44.5t-114 44.5zM822 34.5q-44 44.5 -44 118.5t44 118.5t114 44.5t114 -44.5t44 -118.5t-44 -118.5t-114 -44.5t-114 44.5zM621 90q21 23 21 63t-21 63t-55 23t-55 -23t-21 -63t21 -63t55 -23t55 23zM991 90q21 23 21 63t-21 63t-55 23t-55 -23
t-21 -63t21 -63t55 -23t55 23z" />
    <glyph glyph-name="guilsinglleft" unicode="&#x2039;" horiz-adv-x="411" 
d="M384 30h-134l-213 238l213 238h134l-213 -235v-6z" />
    <glyph glyph-name="guilsinglright" unicode="&#x203a;" horiz-adv-x="411" 
d="M161 30h-134l213 235v6l-213 235h134l213 -238z" />
    <glyph glyph-name="fraction" unicode="&#x2044;" horiz-adv-x="147" 
d="M-100 0h-89l435 700h89z" />
    <glyph glyph-name="uni2070" unicode="&#x2070;" horiz-adv-x="388" 
d="M77.5 449q-43.5 54 -43.5 151t43.5 151t116.5 54t116.5 -54t43.5 -151t-43.5 -151t-116.5 -54t-116.5 54zM250.5 504.5q21.5 32.5 21.5 95.5t-21.5 95.5t-56.5 32.5t-56.5 -32.5t-21.5 -95.5t21.5 -95.5t56.5 -32.5t56.5 32.5z" />
    <glyph glyph-name="uni2074" unicode="&#x2074;" horiz-adv-x="341" 
d="M273 400h-82v87h-182v74l160 239h104v-239h58v-74h-58v-87zM186 702l-93 -141h98v141h-5z" />
    <glyph glyph-name="uni2075" unicode="&#x2075;" horiz-adv-x="339" 
d="M69.5 427.5q-42.5 32.5 -47.5 83.5h85q6 -18 22 -28.5t42 -10.5q30 0 47 17t17 46q0 32 -18.5 49t-50.5 17q-18 0 -32.5 -7.5t-21.5 -19.5h-80l25 226h240v-74h-175l-8 -73h5q23 17 63 17q60 0 97.5 -36t37.5 -98q0 -63 -40 -102t-106 -39q-59 0 -101.5 32.5z" />
    <glyph glyph-name="uni2076" unicode="&#x2076;" horiz-adv-x="350" 
d="M64 437q-40 42 -40 104q0 63 38 120l92 139h91l-90 -133h4q8 6 26 6q60 0 100.5 -39t40.5 -101q0 -60 -42.5 -99t-108.5 -39q-71 0 -111 42zM225.5 490.5q18.5 18.5 18.5 47.5t-18.5 47.5t-50.5 18.5t-50.5 -18.5t-18.5 -47.5t18.5 -47.5t50.5 -18.5t50.5 18.5z" />
    <glyph glyph-name="uni2077" unicode="&#x2077;" horiz-adv-x="303" 
d="M143 400h-87l143 326h-172v74h259v-74z" />
    <glyph glyph-name="uni2078" unicode="&#x2078;" horiz-adv-x="356" 
d="M72 428q-40 33 -40 87q0 30 14.5 56t44.5 39q-49 32 -49 85q0 47 37 78.5t99 31.5t99 -31.5t37 -78.5q0 -55 -49 -85q30 -13 44.5 -39t14.5 -56q0 -54 -40 -87t-106 -33t-106 33zM217.5 656q14.5 13 14.5 31t-14.5 31t-39.5 13t-39.5 -13t-14.5 -31t14.5 -31t39.5 -13
t39.5 13zM225 484.5q17 15.5 17 38.5t-17 38.5t-47 15.5t-47 -15.5t-17 -38.5t17 -38.5t47 -15.5t47 15.5z" />
    <glyph glyph-name="uni2079" unicode="&#x2079;" horiz-adv-x="350" 
d="M105 400l90 133h-4q-7 -6 -26 -6q-60 0 -100.5 39t-40.5 101q0 60 42.5 99t108.5 39q71 0 111 -42t40 -104q0 -63 -38 -120l-92 -139h-91zM225 614.5q19 18.5 19 47.5t-19 47.5t-50 18.5t-50 -18.5t-19 -47.5t19 -47.5t50 -18.5t50 18.5z" />
    <glyph glyph-name="uni2080" unicode="&#x2080;" horiz-adv-x="388" 
d="M77.5 -51q-43.5 54 -43.5 151t43.5 151t116.5 54t116.5 -54t43.5 -151t-43.5 -151t-116.5 -54t-116.5 54zM250.5 4.5q21.5 32.5 21.5 95.5t-21.5 95.5t-56.5 32.5t-56.5 -32.5t-21.5 -95.5t21.5 -95.5t56.5 -32.5t56.5 32.5z" />
    <glyph glyph-name="uni2081" unicode="&#x2081;" horiz-adv-x="262" 
d="M118 -100v268h-88v77h66q11 0 18 7t7 18v30h79v-400h-82z" />
    <glyph glyph-name="uni2082" unicode="&#x2082;" horiz-adv-x="337" 
d="M29 -100v77l151 136q38 35 38 72q0 20 -13 31.5t-38 11.5t-38 -12.5t-15 -33.5h-85q6 55 40 89t101 34q62 0 97.5 -33.5t35.5 -86.5q0 -31 -13.5 -56.5t-41.5 -51.5l-109 -100h162v-77h-272z" />
    <glyph glyph-name="uni2083" unicode="&#x2083;" horiz-adv-x="341" 
d="M68 -75q-39 30 -46 81h82q11 -37 64 -37q28 0 43.5 15t15.5 39q0 22 -15 35.5t-42 13.5h-37v66h37q27 0 39.5 13.5t12.5 35.5q0 19 -15 31.5t-44 12.5q-28 0 -41.5 -13t-17.5 -36h-82q6 54 42 88.5t99 34.5q66 0 103.5 -31.5t37.5 -78.5q0 -31 -16 -54t-38 -33
q27 -12 43 -35.5t16 -54.5q0 -55 -38.5 -89t-102.5 -34q-61 0 -100 30z" />
    <glyph glyph-name="uni2084" unicode="&#x2084;" horiz-adv-x="341" 
d="M273 -100h-82v87h-182v74l160 239h104v-239h58v-74h-58v-87zM186 202l-93 -141h98v141h-5z" />
    <glyph glyph-name="uni2085" unicode="&#x2085;" horiz-adv-x="339" 
d="M69.5 -72.5q-42.5 32.5 -47.5 83.5h85q6 -18 22 -28.5t42 -10.5q30 0 47 17t17 46q0 32 -18.5 49t-50.5 17q-18 0 -32.5 -7.5t-21.5 -19.5h-80l25 226h240v-74h-175l-8 -73h5q23 17 63 17q60 0 97.5 -36t37.5 -98q0 -63 -40 -102t-106 -39q-59 0 -101.5 32.5z" />
    <glyph glyph-name="uni2086" unicode="&#x2086;" horiz-adv-x="350" 
d="M64 -63q-40 42 -40 104q0 63 38 120l92 139h91l-90 -133h4q8 6 26 6q60 0 100.5 -39t40.5 -101q0 -60 -42.5 -99t-108.5 -39q-71 0 -111 42zM225.5 -9.5q18.5 18.5 18.5 47.5t-18.5 47.5t-50.5 18.5t-50.5 -18.5t-18.5 -47.5t18.5 -47.5t50.5 -18.5t50.5 18.5z" />
    <glyph glyph-name="uni2087" unicode="&#x2087;" horiz-adv-x="303" 
d="M143 -100h-87l143 326h-172v74h259v-74z" />
    <glyph glyph-name="uni2088" unicode="&#x2088;" horiz-adv-x="356" 
d="M72 -72q-40 33 -40 87q0 30 14.5 56t44.5 39q-49 32 -49 85q0 47 37 78.5t99 31.5t99 -31.5t37 -78.5q0 -55 -49 -85q30 -13 44.5 -39t14.5 -56q0 -54 -40 -87t-106 -33t-106 33zM217.5 156q14.5 13 14.5 31t-14.5 31t-39.5 13t-39.5 -13t-14.5 -31t14.5 -31t39.5 -13
t39.5 13zM225 -15.5q17 15.5 17 38.5t-17 38.5t-47 15.5t-47 -15.5t-17 -38.5t17 -38.5t47 -15.5t47 15.5z" />
    <glyph glyph-name="uni2089" unicode="&#x2089;" horiz-adv-x="350" 
d="M105 -100l90 133h-4q-7 -6 -26 -6q-60 0 -100.5 39t-40.5 101q0 60 42.5 99t108.5 39q71 0 111 -42t40 -104q0 -63 -38 -120l-92 -139h-91zM225 114.5q19 18.5 19 47.5t-19 47.5t-50 18.5t-50 -18.5t-19 -47.5t19 -47.5t50 -18.5t50 18.5z" />
    <glyph glyph-name="uni20A9" unicode="&#x20a9;" horiz-adv-x="977" 
d="M958 505v-102h-105l-20 -91h125v-102h-147l-45 -210h-156l-118 572h-5l-118 -572h-157l-45 210h-148v102h126l-20 91h-106v102h84l-42 195h124l105 -566h5l120 566h150l120 -566h5l105 566h122l-42 -195h83z" />
    <glyph glyph-name="Euro" unicode="&#x20ac;" horiz-adv-x="744" 
d="M580 183h130q-31 -91 -104 -142t-183 -51q-123 0 -203.5 63t-107.5 177h-95v87h83q-1 11 -1 33t1 33h-83v87h95q27 114 107.5 177t203.5 63q110 0 183 -51t104 -142h-130q-53 81 -157 81q-141 0 -183 -128h248v-87h-263q-1 -11 -1 -33t1 -33h263v-87h-248
q20 -63 66 -95.5t117 -32.5q104 0 157 81z" />
    <glyph glyph-name="uni20B4" unicode="&#x20b4;" horiz-adv-x="649" 
d="M600 465v-84h-551v84h364q22 29 22 63q0 31 -30 52t-82 21q-94 0 -127 -66h-125q17 81 83 128t169 47q71 0 125.5 -22.5t84.5 -60t30 -80.5q0 -48 -21 -82h58zM49 235v84h551v-84h-363q-23 -28 -23 -63q0 -31 30 -52t82 -21q94 0 127 66h125q-16 -81 -82 -128t-170 -47
q-71 0 -125.5 22.5t-84.5 60t-30 80.5q0 47 22 82h-59z" />
    <glyph glyph-name="uni20B8" unicode="&#x20b8;" horiz-adv-x="614" 
d="M585 597h-556v103h556v-103zM370 0h-125v421h-216v109h556v-109h-215v-421z" />
    <glyph glyph-name="uni20B9" unicode="&#x20b9;" horiz-adv-x="593" 
d="M566 700v-92h-114q20 -19 31 -41t15 -52h68v-86h-67q-10 -71 -54.5 -117.5t-116.5 -61.5l187 -250h-143l-180 244h-155v95h208q109 0 130 90h-338v86h338q-21 90 -130 90h-208v95h529z" />
    <glyph glyph-name="uni20BA" unicode="&#x20ba;" horiz-adv-x="592" 
d="M570 249q-2 -88 -36 -142.5t-107.5 -80.5t-195.5 -26h-119v248l-85 -31v94l85 32v72l-85 -32v94l85 32v191h125v-145l149 56v-94l-149 -56v-72l149 56v-95l-149 -55v-183h10q108 0 154 31t47 106h122z" />
    <glyph glyph-name="uni20BD" unicode="&#x20bd;" horiz-adv-x="650" 
d="M229 278v-65h203v-96h-203v-117h-125v117h-82v96h82v65h-82v102h82v320h284q104 0 164 -57t60 -154q0 -96 -60 -153.5t-164 -57.5h-159zM229 591v-211h145q53 0 83 28t30 78q0 49 -30 77t-83 28h-145z" />
    <glyph glyph-name="uni20BF" unicode="&#x20bf;" horiz-adv-x="659" 
d="M571.5 66.5q-41.5 -49.5 -118.5 -62.5v-114h-99v110h-82v-110h-99v110h-97v700h97v110h99v-110h82v110h99v-116q72 -14 111 -63.5t39 -125.5q0 -50 -25 -90.5t-65 -59.5q43 -18 71.5 -61t28.5 -99q0 -79 -41.5 -128.5zM201 591v-191h177q47 0 73.5 25.5t26.5 70.5
q0 44 -26.5 69.5t-73.5 25.5h-177zM388 109q47 0 73.5 25.5t26.5 69.5q0 45 -26.5 70.5t-73.5 25.5h-187v-191h187z" />
    <glyph glyph-name="uni2113" unicode="&#x2113;" horiz-adv-x="419" 
d="M198 143q0 -31 14.5 -46t48.5 -15q18 0 35.5 4t27.5 9v-95q-30 -10 -76 -10q-149 0 -149 144v76q-44 -9 -90 -12v94q47 4 90 17v260q0 67 38 104t101 37q66 0 105 -42t39 -123q0 -104 -49 -180.5t-135 -119.5v-102zM198 358q85 66 85 186q0 78 -43 78q-20 0 -31 -16.5
t-11 -47.5v-200z" />
    <glyph glyph-name="uni2116" unicode="&#x2116;" horiz-adv-x="1121" 
d="M201 0h-125v700h166l298 -527h5v527h125v-700h-167l-297 527h-5v-527zM794 202q-46 47 -46 125q0 77 46 124t119 47t118.5 -47t45.5 -124q0 -78 -45.5 -125t-118.5 -47t-119 47zM963 264.5q19 22.5 19 62.5t-19 62t-50 22q-32 0 -51 -22t-19 -62t19 -62.5t51 -22.5
q31 0 50 22.5zM1067 0h-309v87h309v-87z" />
    <glyph glyph-name="uni2117" unicode="&#x2117;" horiz-adv-x="828" 
d="M228 36q-82 46 -128 128t-46 186t46 186t128 128t186 46t186 -46t128 -128t46 -186t-46 -186t-128 -128t-186 -46t-186 46zM555.5 105.5q62.5 35.5 97.5 99t35 145.5t-35 145.5t-97.5 99t-141.5 35.5t-141.5 -35.5t-98 -99t-35.5 -145.5t35.5 -145.5t98 -99t141.5 -35.5
t141.5 35.5zM285 165v375h154q66 0 100.5 -35t34.5 -91q0 -57 -34.5 -92t-100.5 -35h-74v-122h-80zM434 357q59 0 59 57q0 28 -15 42t-44 14h-69v-113h69z" />
    <glyph glyph-name="trademark" unicode="&#x2122;" horiz-adv-x="738" 
d="M191 390h-77v238h-97v72h271v-72h-97v-238zM394 390h-74v310h111l66 -205h5l65 205h110v-310h-74v204h-5l-66 -204h-67l-66 204h-5v-204z" />
    <glyph glyph-name="uni2126" unicode="&#x2126;" horiz-adv-x="804" 
d="M84 0v87h112q-56 37 -99 110t-43 176q0 96 44 173t123 120.5t181 43.5t181 -43.5t123 -120.5t44 -173q0 -103 -43 -176t-99 -110h112v-87h-272v90q72 33 130.5 102.5t58.5 170.5q0 73 -28.5 128.5t-81.5 87t-125 31.5t-125 -31.5t-81.5 -87t-28.5 -128.5
q0 -101 58 -170.5t130 -102.5v-90h-271z" />
    <glyph glyph-name="estimated" unicode="&#x212e;" horiz-adv-x="839" 
d="M237 38q-87 48 -136 130.5t-49 181.5t48.5 181.5t133.5 130.5t188 48t188 -48t133.5 -131.5t48.5 -185.5h-576q-14 0 -14 -15v-202q0 -28 33 -54.5t86 -42.5t111 -16q56 0 108.5 19.5t93 51t61.5 64.5h57q-59 -77 -142 -118.5t-178 -41.5q-108 0 -195 48zM628 370
q14 0 14 15v190q0 29 -32 54t-83 40.5t-105 15.5q-55 0 -106 -15t-82.5 -40.5t-31.5 -54.5v-190q0 -15 14 -15h412z" />
    <glyph glyph-name="uni2150" unicode="&#x2150;" horiz-adv-x="712" 
d="M118 300v268h-88v77h66q11 0 18 7t7 18v30h79v-400h-82zM162 0h-89l435 700h89zM552 0h-87l143 326h-172v74h259v-74z" />
    <glyph glyph-name="uni2151" unicode="&#x2151;" horiz-adv-x="759" 
d="M118 300v268h-88v77h66q11 0 18 7t7 18v30h79v-400h-82zM162 0h-89l435 700h89zM514 0l90 133h-4q-7 -6 -26 -6q-60 0 -100.5 39t-40.5 101q0 60 42.5 99t108.5 39q71 0 111 -42t40 -104q0 -63 -38 -120l-92 -139h-91zM634 214.5q19 18.5 19 47.5t-19 47.5t-50 18.5
t-50 -18.5t-19 -47.5t19 -47.5t50 -18.5t50 18.5z" />
    <glyph glyph-name="uni2152" unicode="&#x2152;" horiz-adv-x="1007" 
d="M118 300v268h-88v77h66q11 0 18 7t7 18v30h79v-400h-82zM162 0h-89l435 700h89zM527 0v268h-88v77h66q11 0 18 7t7 18v30h79v-400h-82zM696.5 49q-43.5 54 -43.5 151t43.5 151t116.5 54t116.5 -54t43.5 -151t-43.5 -151t-116.5 -54t-116.5 54zM869.5 104.5
q21.5 32.5 21.5 95.5t-21.5 95.5t-56.5 32.5t-56.5 -32.5t-21.5 -95.5t21.5 -95.5t56.5 -32.5t56.5 32.5z" />
    <glyph glyph-name="uni2153" unicode="&#x2153;" horiz-adv-x="750" 
d="M118 300v268h-88v77h66q11 0 18 7t7 18v30h79v-400h-82zM162 0h-89l435 700h89zM477 25q-39 30 -46 81h82q11 -37 64 -37q28 0 43.5 15t15.5 39q0 22 -15 35.5t-42 13.5h-37v66h37q27 0 39.5 13.5t12.5 35.5q0 19 -15 31.5t-44 12.5q-28 0 -41.5 -13t-17.5 -36h-82
q6 54 42 88.5t99 34.5q66 0 103.5 -31.5t37.5 -78.5q0 -31 -16 -54t-38 -33q27 -12 43 -35.5t16 -54.5q0 -55 -38.5 -89t-102.5 -34q-61 0 -100 30z" />
    <glyph glyph-name="uni2154" unicode="&#x2154;" horiz-adv-x="824" 
d="M29 300v77l151 136q38 35 38 72q0 20 -13 31.5t-38 11.5t-38 -12.5t-15 -33.5h-85q6 55 40 89t101 34q62 0 97.5 -33.5t35.5 -86.5q0 -31 -13.5 -56.5t-41.5 -51.5l-109 -100h162v-77h-272zM237 0h-89l435 700h89zM551 25q-39 30 -46 81h82q11 -37 64 -37q28 0 43.5 15
t15.5 39q0 22 -15 35.5t-42 13.5h-37v66h37q27 0 39.5 13.5t12.5 35.5q0 19 -15 31.5t-44 12.5q-28 0 -41.5 -13t-17.5 -36h-82q6 54 42 88.5t99 34.5q66 0 103.5 -31.5t37.5 -78.5q0 -31 -16 -54t-38 -33q27 -12 43 -35.5t16 -54.5q0 -55 -38.5 -89t-102.5 -34
q-61 0 -100 30z" />
    <glyph glyph-name="uni2155" unicode="&#x2155;" horiz-adv-x="748" 
d="M118 300v268h-88v77h66q11 0 18 7t7 18v30h79v-400h-82zM162 0h-89l435 700h89zM478.5 27.5q-42.5 32.5 -47.5 83.5h85q6 -18 22 -28.5t42 -10.5q30 0 47 17t17 46q0 32 -18.5 49t-50.5 17q-18 0 -32.5 -7.5t-21.5 -19.5h-80l25 226h240v-74h-175l-8 -73h5q23 17 63 17
q60 0 97.5 -36t37.5 -98q0 -63 -40 -102t-106 -39q-59 0 -101.5 32.5z" />
    <glyph glyph-name="uni2156" unicode="&#x2156;" horiz-adv-x="822" 
d="M29 300v77l151 136q38 35 38 72q0 20 -13 31.5t-38 11.5t-38 -12.5t-15 -33.5h-85q6 55 40 89t101 34q62 0 97.5 -33.5t35.5 -86.5q0 -31 -13.5 -56.5t-41.5 -51.5l-109 -100h162v-77h-272zM237 0h-89l435 700h89zM552.5 27.5q-42.5 32.5 -47.5 83.5h85q6 -18 22 -28.5
t42 -10.5q30 0 47 17t17 46q0 32 -18.5 49t-50.5 17q-18 0 -32.5 -7.5t-21.5 -19.5h-80l25 226h240v-74h-175l-8 -73h5q23 17 63 17q60 0 97.5 -36t37.5 -98q0 -63 -40 -102t-106 -39q-59 0 -101.5 32.5z" />
    <glyph glyph-name="uni2157" unicode="&#x2157;" horiz-adv-x="827" 
d="M68 325q-39 30 -46 81h82q11 -37 64 -37q28 0 43.5 15t15.5 39q0 22 -15 35.5t-42 13.5h-37v66h37q27 0 39.5 13.5t12.5 35.5q0 19 -15 31.5t-44 12.5q-28 0 -41.5 -13t-17.5 -36h-82q6 54 42 88.5t99 34.5q66 0 103.5 -31.5t37.5 -78.5q0 -31 -16 -54t-38 -33
q27 -12 43 -35.5t16 -54.5q0 -55 -38.5 -89t-102.5 -34q-61 0 -100 30zM241 0h-89l435 700h89zM557.5 27.5q-42.5 32.5 -47.5 83.5h85q6 -18 22 -28.5t42 -10.5q30 0 47 17t17 46q0 32 -18.5 49t-50.5 17q-18 0 -32.5 -7.5t-21.5 -19.5h-80l25 226h240v-74h-175l-8 -73h5
q23 17 63 17q60 0 97.5 -36t37.5 -98q0 -63 -40 -102t-106 -39q-59 0 -101.5 32.5z" />
    <glyph glyph-name="uni2158" unicode="&#x2158;" horiz-adv-x="857" 
d="M273 300h-82v87h-182v74l160 239h104v-239h58v-74h-58v-87zM186 602l-93 -141h98v141h-5zM271 0h-89l435 700h89zM587.5 27.5q-42.5 32.5 -47.5 83.5h85q6 -18 22 -28.5t42 -10.5q30 0 47 17t17 46q0 32 -18.5 49t-50.5 17q-18 0 -32.5 -7.5t-21.5 -19.5h-80l25 226h240
v-74h-175l-8 -73h5q23 17 63 17q60 0 97.5 -36t37.5 -98q0 -63 -40 -102t-106 -39q-59 0 -101.5 32.5z" />
    <glyph glyph-name="uni2159" unicode="&#x2159;" horiz-adv-x="759" 
d="M118 300v268h-88v77h66q11 0 18 7t7 18v30h79v-400h-82zM162 0h-89l435 700h89zM473 37q-40 42 -40 104q0 63 38 120l92 139h91l-90 -133h4q8 6 26 6q60 0 100.5 -39t40.5 -101q0 -60 -42.5 -99t-108.5 -39q-71 0 -111 42zM634.5 90.5q18.5 18.5 18.5 47.5t-18.5 47.5
t-50.5 18.5t-50.5 -18.5t-18.5 -47.5t18.5 -47.5t50.5 -18.5t50.5 18.5z" />
    <glyph glyph-name="uni215A" unicode="&#x215a;" horiz-adv-x="836" 
d="M69.5 327.5q-42.5 32.5 -47.5 83.5h85q6 -18 22 -28.5t42 -10.5q30 0 47 17t17 46q0 32 -18.5 49t-50.5 17q-18 0 -32.5 -7.5t-21.5 -19.5h-80l25 226h240v-74h-175l-8 -73h5q23 17 63 17q60 0 97.5 -36t37.5 -98q0 -63 -40 -102t-106 -39q-59 0 -101.5 32.5zM239 0h-89
l435 700h89zM550 37q-40 42 -40 104q0 63 38 120l92 139h91l-90 -133h4q8 6 26 6q60 0 100.5 -39t40.5 -101q0 -60 -42.5 -99t-108.5 -39q-71 0 -111 42zM711.5 90.5q18.5 18.5 18.5 47.5t-18.5 47.5t-50.5 18.5t-50.5 -18.5t-18.5 -47.5t18.5 -47.5t50.5 -18.5t50.5 18.5z
" />
    <glyph glyph-name="oneeighth" unicode="&#x215b;" horiz-adv-x="765" 
d="M118 300v268h-88v77h66q11 0 18 7t7 18v30h79v-400h-82zM162 0h-89l435 700h89zM481 28q-40 33 -40 87q0 30 14.5 56t44.5 39q-49 32 -49 85q0 47 37 78.5t99 31.5t99 -31.5t37 -78.5q0 -55 -49 -85q30 -13 44.5 -39t14.5 -56q0 -54 -40 -87t-106 -33t-106 33zM626.5 256
q14.5 13 14.5 31t-14.5 31t-39.5 13t-39.5 -13t-14.5 -31t14.5 -31t39.5 -13t39.5 13zM634 84.5q17 15.5 17 38.5t-17 38.5t-47 15.5t-47 -15.5t-17 -38.5t17 -38.5t47 -15.5t47 15.5z" />
    <glyph glyph-name="threeeighths" unicode="&#x215c;" horiz-adv-x="844" 
d="M68 325q-39 30 -46 81h82q11 -37 64 -37q28 0 43.5 15t15.5 39q0 22 -15 35.5t-42 13.5h-37v66h37q27 0 39.5 13.5t12.5 35.5q0 19 -15 31.5t-44 12.5q-28 0 -41.5 -13t-17.5 -36h-82q6 54 42 88.5t99 34.5q66 0 103.5 -31.5t37.5 -78.5q0 -31 -16 -54t-38 -33
q27 -12 43 -35.5t16 -54.5q0 -55 -38.5 -89t-102.5 -34q-61 0 -100 30zM241 0h-89l435 700h89zM560 28q-40 33 -40 87q0 30 14.5 56t44.5 39q-49 32 -49 85q0 47 37 78.5t99 31.5t99 -31.5t37 -78.5q0 -55 -49 -85q30 -13 44.5 -39t14.5 -56q0 -54 -40 -87t-106 -33t-106 33
zM705.5 256q14.5 13 14.5 31t-14.5 31t-39.5 13t-39.5 -13t-14.5 -31t14.5 -31t39.5 -13t39.5 13zM713 84.5q17 15.5 17 38.5t-17 38.5t-47 15.5t-47 -15.5t-17 -38.5t17 -38.5t47 -15.5t47 15.5z" />
    <glyph glyph-name="fiveeighths" unicode="&#x215d;" horiz-adv-x="842" 
d="M69.5 327.5q-42.5 32.5 -47.5 83.5h85q6 -18 22 -28.5t42 -10.5q30 0 47 17t17 46q0 32 -18.5 49t-50.5 17q-18 0 -32.5 -7.5t-21.5 -19.5h-80l25 226h240v-74h-175l-8 -73h5q23 17 63 17q60 0 97.5 -36t37.5 -98q0 -63 -40 -102t-106 -39q-59 0 -101.5 32.5zM239 0h-89
l435 700h89zM558 28q-40 33 -40 87q0 30 14.5 56t44.5 39q-49 32 -49 85q0 47 37 78.5t99 31.5t99 -31.5t37 -78.5q0 -55 -49 -85q30 -13 44.5 -39t14.5 -56q0 -54 -40 -87t-106 -33t-106 33zM703.5 256q14.5 13 14.5 31t-14.5 31t-39.5 13t-39.5 -13t-14.5 -31t14.5 -31
t39.5 -13t39.5 13zM711 84.5q17 15.5 17 38.5t-17 38.5t-47 15.5t-47 -15.5t-17 -38.5t17 -38.5t47 -15.5t47 15.5z" />
    <glyph glyph-name="seveneighths" unicode="&#x215e;" horiz-adv-x="776" 
d="M143 300h-87l143 326h-172v74h259v-74zM173 0h-89l435 700h89zM492 28q-40 33 -40 87q0 30 14.5 56t44.5 39q-49 32 -49 85q0 47 37 78.5t99 31.5t99 -31.5t37 -78.5q0 -55 -49 -85q30 -13 44.5 -39t14.5 -56q0 -54 -40 -87t-106 -33t-106 33zM637.5 256q14.5 13 14.5 31
t-14.5 31t-39.5 13t-39.5 -13t-14.5 -31t14.5 -31t39.5 -13t39.5 13zM645 84.5q17 15.5 17 38.5t-17 38.5t-47 15.5t-47 -15.5t-17 -38.5t17 -38.5t47 -15.5t47 15.5z" />
    <glyph glyph-name="uni215F" unicode="&#x215f;" horiz-adv-x="409" 
d="M118 300v268h-88v77h66q11 0 18 7t7 18v30h79v-400h-82zM162 0h-89l435 700h89z" />
    <glyph glyph-name="arrowleft" unicode="&#x2190;" 
d="M308 391h542v-87h-542l115 -116l-58 -58l-215 215v5l215 215l58 -59z" />
    <glyph glyph-name="arrowup" unicode="&#x2191;" 
d="M503 700l215 -215l-58 -58l-116 115v-542h-87v542l-115 -115l-59 58l215 215h5z" />
    <glyph glyph-name="arrowright" unicode="&#x2192;" 
d="M577 506l58 59l215 -215v-5l-215 -215l-58 58l115 116h-542v87h542z" />
    <glyph glyph-name="arrowdown" unicode="&#x2193;" 
d="M544 158l116 115l58 -58l-215 -215h-5l-215 215l59 58l115 -115v542h87v-542z" />
    <glyph glyph-name="arrowboth" unicode="&#x2194;" 
d="M603 506l58 59l215 -215v-5l-215 -215l-58 58l115 116h-436l115 -116l-58 -58l-215 215v5l215 215l58 -59l-115 -115h436z" />
    <glyph glyph-name="arrowupdn" unicode="&#x2195;" 
d="M544 559v-418l116 116l58 -58l-215 -215h-5l-215 215l59 58l115 -116v418l-115 -116l-59 58l215 215h5l215 -215l-58 -58z" />
    <glyph glyph-name="uni2196" unicode="&#x2196;" 
d="M343 568l457 -456l-62 -62l-456 457v-167h-82v305l5 5h305v-82h-167z" />
    <glyph glyph-name="uni2197" unicode="&#x2197;" 
d="M490 650h305l5 -5v-305h-82v167l-456 -457l-62 62l457 456h-167v82z" />
    <glyph glyph-name="uni2198" unicode="&#x2198;" 
d="M718 193v167h82v-305l-5 -5h-305v82h167l-457 456l62 62z" />
    <glyph glyph-name="uni2199" unicode="&#x2199;" 
d="M738 650l62 -62l-457 -456h167v-82h-305l-5 5v305h82v-167z" />
    <glyph glyph-name="uni21C5" unicode="&#x21c5;" 
d="M550 485l-58 -58l-116 115v-542h-87v542l-115 -115l-59 58l215 215h5zM711 158l116 115l58 -58l-215 -215h-5l-215 215l59 58l115 -115v542h87v-542z" />
    <glyph glyph-name="uni21F5" unicode="&#x21f5;" 
d="M376 700v-542l116 115l58 -58l-215 -215h-5l-215 215l59 58l115 -115v542h87zM670 700l215 -215l-58 -58l-116 115v-542h-87v542l-115 -115l-59 58l215 215h5z" />
    <glyph glyph-name="partialdiff" unicode="&#x2202;" horiz-adv-x="578" 
d="M158 17.5q-52 27.5 -81.5 80t-29.5 125.5q0 69 28 121t77 80.5t110 28.5q49 0 83 -12.5t67 -43.5h5q0 100 -37.5 158t-111.5 58q-60 0 -85 -46h-105q15 62 62.5 102.5t127.5 40.5q122 0 187.5 -91t65.5 -269q0 -183 -61.5 -271.5t-184.5 -88.5q-65 0 -117 27.5z
M377.5 138.5q37.5 51.5 37.5 146.5q-21 30 -56.5 51t-80.5 21q-58 0 -93 -36t-35 -98q0 -63 34 -99.5t91 -36.5q65 0 102.5 51.5z" />
    <glyph glyph-name="emptyset" unicode="&#x2205;" horiz-adv-x="824" 
d="M680 602q44 -48 67 -111.5t23 -140.5q0 -107 -44.5 -188.5t-125.5 -126.5t-188 -45q-115 0 -199 52l-39 -47h-116l86 103q-44 48 -67 111.5t-23 140.5q0 107 44.5 188.5t125.5 126.5t188 45q115 0 199 -52l39 47h116zM217 185l325 390q-56 35 -130 35q-72 0 -127.5 -33
t-86.5 -92t-31 -135q0 -96 50 -165zM539.5 123q55.5 33 86.5 92t31 135q0 96 -50 165l-325 -390q56 -35 130 -35q72 0 127.5 33z" />
    <glyph glyph-name="uni2206" unicode="&#x2206;" horiz-adv-x="650" 
d="M634 0h-618l250 700h118zM324 569l-166 -469h333z" />
    <glyph glyph-name="product" unicode="&#x220f;" horiz-adv-x="712" 
d="M207 -110h-113v810h524v-810h-113v710h-298v-710z" />
    <glyph glyph-name="summation" unicode="&#x2211;" horiz-adv-x="592" 
d="M542 -110h-482v97l215 324l-215 292v97h482v-100h-353l210 -285l-215 -325h358v-100z" />
    <glyph glyph-name="minus" unicode="&#x2212;" horiz-adv-x="600" 
d="M543 275h-486v100h486v-100z" />
    <glyph glyph-name="radical" unicode="&#x221a;" horiz-adv-x="637" 
d="M360 -110h-145l-84 246h-116v96h187l80 -239h7l221 732h102z" />
    <glyph glyph-name="infinity" unicode="&#x221e;" horiz-adv-x="786" 
d="M687.5 468.5q44.5 -44.5 44.5 -116.5t-44.5 -116.5t-119.5 -44.5q-45 0 -90 24t-85 70q-40 -46 -85 -70t-90 -24q-75 0 -119.5 44.5t-44.5 116.5t44.5 116.5t119.5 44.5q45 0 90 -24.5t85 -70.5q40 46 85 70.5t90 24.5q75 0 119.5 -44.5zM283.5 294q34.5 22 61.5 58
q-27 36 -61.5 58t-65.5 22q-35 0 -56.5 -22t-21.5 -58t21.5 -58t56.5 -22q31 0 65.5 22zM624.5 294q21.5 22 21.5 58t-21.5 58t-56.5 22q-30 0 -64.5 -22t-61.5 -58q27 -36 61.5 -58t64.5 -22q35 0 56.5 22z" />
    <glyph glyph-name="integral" unicode="&#x222b;" horiz-adv-x="385" 
d="M40 -110v98h26q42 0 58.5 22t16.5 79v519q0 75 17 118.5t54.5 63.5t103.5 20h29v-98h-21q-42 0 -58 -22t-16 -79v-519q0 -75 -17 -118.5t-55 -63.5t-104 -20h-34z" />
    <glyph glyph-name="approxequal" unicode="&#x2248;" horiz-adv-x="600" 
d="M55 332q0 69 38 114t104 45q34 0 59.5 -10t59.5 -29q25 -14 40.5 -20.5t31.5 -6.5q57 0 57 66h98q0 -69 -38 -114t-104 -45q-34 0 -59.5 10t-59.5 29q-25 14 -40.5 20.5t-31.5 6.5q-28 0 -42.5 -17t-14.5 -49h-98zM58 131q0 69 38 114.5t104 45.5q34 0 60 -10.5t59 -29.5
q25 -14 40.5 -20.5t31.5 -6.5q28 0 42.5 17t14.5 50h98q0 -69 -38 -114.5t-104 -45.5q-34 0 -59.5 10t-59.5 29q-25 14 -40.5 20.5t-31.5 6.5q-57 0 -57 -66h-98z" />
    <glyph glyph-name="notequal" unicode="&#x2260;" horiz-adv-x="600" 
d="M540 480v-94h-170l-54 -120h224v-94h-266l-46 -104h-87l47 104h-128v94h170l53 120h-223v94h265l47 104h86l-46 -104h128z" />
    <glyph glyph-name="lessequal" unicode="&#x2264;" horiz-adv-x="600" 
d="M516 232v-103l-442 183v92l442 183v-102l-330 -127zM516 13h-442v87h442v-87z" />
    <glyph glyph-name="greaterequal" unicode="&#x2265;" horiz-adv-x="600" 
d="M526 312l-442 -183v103l330 126l-330 127v102l442 -183v-92zM526 13h-442v87h442v-87z" />
    <glyph glyph-name="uni2318" unicode="&#x2318;" horiz-adv-x="826" 
d="M90 33q-43 43 -43 108q0 64 44 106t115 42h56v122h-56q-71 0 -115 42t-44 106q0 65 43 108t111 43q67 0 109 -43t42 -108v-66h122v66q0 65 42 108t109 43q68 0 111 -43t43 -108q0 -64 -44 -106t-115 -42h-56v-122h56q71 0 115 -42t44 -106q0 -65 -43 -108t-111 -43
q-67 0 -109 43t-42 108v66h-122v-66q0 -65 -42 -108t-109 -43q-68 0 -111 43zM262 493v64q0 31 -17 49.5t-44 18.5t-44 -18.5t-17 -47.5q0 -30 17.5 -48t48.5 -18h56zM620 493q31 0 48.5 18t17.5 48q0 29 -17 47.5t-44 18.5t-44 -18.5t-17 -49.5v-64h56zM352 411v-122h122
v122h-122zM245 93.5q17 18.5 17 49.5v64h-56q-31 0 -48.5 -18t-17.5 -48q0 -29 17 -47.5t44 -18.5t44 18.5zM669 93.5q17 18.5 17 47.5q0 30 -17.5 48t-48.5 18h-56v-64q0 -31 17 -49.5t44 -18.5t44 18.5z" />
    <glyph glyph-name="uni2460" unicode="&#x2460;" 
d="M285 -19.5q-98 56.5 -154.5 154.5t-56.5 215t56.5 215t154.5 154.5t215 56.5t215 -56.5t154.5 -154.5t56.5 -215t-56.5 -215t-154.5 -154.5t-215 -56.5t-215 56.5zM681.5 40q81.5 47 128.5 128.5t47 181.5t-47 181.5t-128.5 128.5t-181.5 47t-181.5 -47t-128.5 -128.5
t-47 -181.5t47 -181.5t128.5 -128.5t181.5 -47t181.5 47zM472 150v268h-88v77h66q11 0 18 7t7 18v30h79v-400h-82z" />
    <glyph glyph-name="uni2461" unicode="&#x2461;" 
d="M285 -19.5q-98 56.5 -154.5 154.5t-56.5 215t56.5 215t154.5 154.5t215 56.5t215 -56.5t154.5 -154.5t56.5 -215t-56.5 -215t-154.5 -154.5t-215 -56.5t-215 56.5zM681.5 40q81.5 47 128.5 128.5t47 181.5t-47 181.5t-128.5 128.5t-181.5 47t-181.5 -47t-128.5 -128.5
t-47 -181.5t47 -181.5t128.5 -128.5t181.5 -47t181.5 47zM367 150v77l151 136q38 35 38 72q0 20 -13 31.5t-38 11.5t-38 -12.5t-15 -33.5h-85q6 55 40 89t101 34q62 0 97.5 -33.5t35.5 -86.5q0 -31 -13.5 -56.5t-41.5 -51.5l-109 -100h162v-77h-272z" />
    <glyph glyph-name="uni2462" unicode="&#x2462;" 
d="M285 -19.5q-98 56.5 -154.5 154.5t-56.5 215t56.5 215t154.5 154.5t215 56.5t215 -56.5t154.5 -154.5t56.5 -215t-56.5 -215t-154.5 -154.5t-215 -56.5t-215 56.5zM681.5 40q81.5 47 128.5 128.5t47 181.5t-47 181.5t-128.5 128.5t-181.5 47t-181.5 -47t-128.5 -128.5
t-47 -181.5t47 -181.5t128.5 -128.5t181.5 -47t181.5 47zM407 175q-39 30 -46 81h83q11 -37 64 -37q27 0 42.5 15t15.5 39q0 22 -15 35.5t-41 13.5h-39v66h39q27 0 39 13.5t12 35.5q0 19 -14.5 31.5t-43.5 12.5q-28 0 -41.5 -13t-17.5 -36h-83q6 53 42.5 88t99.5 35
q66 0 103.5 -31.5t37.5 -78.5q0 -31 -16 -54t-39 -33q27 -12 43.5 -35.5t16.5 -54.5q0 -51 -36.5 -87t-104.5 -36q-62 0 -101 30z" />
    <glyph glyph-name="uni2463" unicode="&#x2463;" 
d="M285 -19.5q-98 56.5 -154.5 154.5t-56.5 215t56.5 215t154.5 154.5t215 56.5t215 -56.5t154.5 -154.5t56.5 -215t-56.5 -215t-154.5 -154.5t-215 -56.5t-215 56.5zM681.5 40q81.5 47 128.5 128.5t47 181.5t-47 181.5t-128.5 128.5t-181.5 47t-181.5 -47t-128.5 -128.5
t-47 -181.5t47 -181.5t128.5 -128.5t181.5 -47t181.5 47zM588 150h-82v87h-182v74l160 239h104v-239h58v-74h-58v-87zM501 452l-93 -141h98v141h-5z" />
    <glyph glyph-name="uni2464" unicode="&#x2464;" 
d="M285 -19.5q-98 56.5 -154.5 154.5t-56.5 215t56.5 215t154.5 154.5t215 56.5t215 -56.5t154.5 -154.5t56.5 -215t-56.5 -215t-154.5 -154.5t-215 -56.5t-215 56.5zM681.5 40q81.5 47 128.5 128.5t47 181.5t-47 181.5t-128.5 128.5t-181.5 47t-181.5 -47t-128.5 -128.5
t-47 -181.5t47 -181.5t128.5 -128.5t181.5 -47t181.5 47zM402.5 177.5q-42.5 32.5 -47.5 83.5h85q6 -18 22 -28.5t42 -10.5q30 0 47 17t17 46q0 32 -18.5 49t-50.5 17q-20 0 -34 -8t-20 -19h-80l25 226h240v-74h-175l-8 -73h5q23 17 63 17q60 0 97.5 -36t37.5 -98
q0 -63 -40 -102t-106 -39q-59 0 -101.5 32.5z" />
    <glyph glyph-name="uni2465" unicode="&#x2465;" 
d="M285 -19.5q-98 56.5 -154.5 154.5t-56.5 215t56.5 215t154.5 154.5t215 56.5t215 -56.5t154.5 -154.5t56.5 -215t-56.5 -215t-154.5 -154.5t-215 -56.5t-215 56.5zM681.5 40q81.5 47 128.5 128.5t47 181.5t-47 181.5t-128.5 128.5t-181.5 47t-181.5 -47t-128.5 -128.5
t-47 -181.5t47 -181.5t128.5 -128.5t181.5 -47t181.5 47zM389 187q-40 42 -40 104q0 63 38 120l92 139h91l-90 -133h4q8 6 26 6q60 0 100.5 -39t40.5 -101q0 -60 -42.5 -99t-108.5 -39q-71 0 -111 42zM550.5 240.5q18.5 18.5 18.5 47.5t-18.5 47.5t-50.5 18.5t-50.5 -18.5
t-18.5 -47.5t18.5 -47.5t50.5 -18.5t50.5 18.5z" />
    <glyph glyph-name="uni2466" unicode="&#x2466;" 
d="M285 -19.5q-98 56.5 -154.5 154.5t-56.5 215t56.5 215t154.5 154.5t215 56.5t215 -56.5t154.5 -154.5t56.5 -215t-56.5 -215t-154.5 -154.5t-215 -56.5t-215 56.5zM681.5 40q81.5 47 128.5 128.5t47 181.5t-47 181.5t-128.5 128.5t-181.5 47t-181.5 -47t-128.5 -128.5
t-47 -181.5t47 -181.5t128.5 -128.5t181.5 -47t181.5 47zM493 150h-87l143 326h-172v74h259v-74z" />
    <glyph glyph-name="uni2467" unicode="&#x2467;" 
d="M285 -19.5q-98 56.5 -154.5 154.5t-56.5 215t56.5 215t154.5 154.5t215 56.5t215 -56.5t154.5 -154.5t56.5 -215t-56.5 -215t-154.5 -154.5t-215 -56.5t-215 56.5zM681.5 40q81.5 47 128.5 128.5t47 181.5t-47 181.5t-128.5 128.5t-181.5 47t-181.5 -47t-128.5 -128.5
t-47 -181.5t47 -181.5t128.5 -128.5t181.5 -47t181.5 47zM394 178q-40 33 -40 87q0 30 14.5 56t44.5 39q-49 30 -49 85q0 47 37 78.5t99 31.5t99 -31.5t37 -78.5q0 -55 -49 -85q30 -13 44.5 -39t14.5 -56q0 -54 -40 -87t-106 -33t-106 33zM539.5 406q14.5 13 14.5 31
t-14.5 31t-39.5 13t-39.5 -13t-14.5 -31t14.5 -31t39.5 -13t39.5 13zM547 234.5q17 15.5 17 38.5t-17 38.5t-47 15.5t-47 -15.5t-17 -38.5t17 -38.5t47 -15.5t47 15.5z" />
    <glyph glyph-name="uni2468" unicode="&#x2468;" 
d="M285 -19.5q-98 56.5 -154.5 154.5t-56.5 215t56.5 215t154.5 154.5t215 56.5t215 -56.5t154.5 -154.5t56.5 -215t-56.5 -215t-154.5 -154.5t-215 -56.5t-215 56.5zM681.5 40q81.5 47 128.5 128.5t47 181.5t-47 181.5t-128.5 128.5t-181.5 47t-181.5 -47t-128.5 -128.5
t-47 -181.5t47 -181.5t128.5 -128.5t181.5 -47t181.5 47zM430 150l90 133h-4q-7 -6 -26 -6q-60 0 -100.5 39t-40.5 101q0 60 42.5 99t108.5 39q71 0 111 -42t40 -104q0 -63 -38 -120l-92 -139h-91zM550.5 364.5q18.5 18.5 18.5 47.5t-18.5 47.5t-50.5 18.5t-50.5 -18.5
t-18.5 -47.5t18.5 -47.5t50.5 -18.5t50.5 18.5z" />
    <glyph glyph-name="uni2469" unicode="&#x2469;" 
d="M285 -19.5q-98 56.5 -154.5 154.5t-56.5 215t56.5 215t154.5 154.5t215 56.5t215 -56.5t154.5 -154.5t56.5 -215t-56.5 -215t-154.5 -154.5t-215 -56.5t-215 56.5zM681.5 40q81.5 47 128.5 128.5t47 181.5t-47 181.5t-128.5 128.5t-181.5 47t-181.5 -47t-128.5 -128.5
t-47 -181.5t47 -181.5t128.5 -128.5t181.5 -47t181.5 47zM492.5 199q-43.5 54 -43.5 151t43.5 151t116.5 54t116.5 -54t43.5 -151t-43.5 -151t-116.5 -54t-116.5 54zM314 150v268h-88v77h66q11 0 18 7t7 18v30h79v-400h-82zM665.5 254.5q21.5 32.5 21.5 95.5t-21.5 95.5
t-56.5 32.5t-56.5 -32.5t-21.5 -95.5t21.5 -95.5t56.5 -32.5t56.5 32.5z" />
    <glyph glyph-name="uni246A" unicode="&#x246a;" 
d="M285 -19.5q-98 56.5 -154.5 154.5t-56.5 215t56.5 215t154.5 154.5t215 56.5t215 -56.5t154.5 -154.5t56.5 -215t-56.5 -215t-154.5 -154.5t-215 -56.5t-215 56.5zM681.5 40q81.5 47 128.5 128.5t47 181.5t-47 181.5t-128.5 128.5t-181.5 47t-181.5 -47t-128.5 -128.5
t-47 -181.5t47 -181.5t128.5 -128.5t181.5 -47t181.5 47zM359 150v268h-88v77h66q11 0 18 7t7 18v30h79v-400h-82zM590 150v268h-88v77h66q11 0 18 7t7 18v30h79v-400h-82z" />
    <glyph glyph-name="uni246B" unicode="&#x246b;" 
d="M285 -19.5q-98 56.5 -154.5 154.5t-56.5 215t56.5 215t154.5 154.5t215 56.5t215 -56.5t154.5 -154.5t56.5 -215t-56.5 -215t-154.5 -154.5t-215 -56.5t-215 56.5zM681.5 40q81.5 47 128.5 128.5t47 181.5t-47 181.5t-128.5 128.5t-181.5 47t-181.5 -47t-128.5 -128.5
t-47 -181.5t47 -181.5t128.5 -128.5t181.5 -47t181.5 47zM465 150v77l151 136q38 35 38 72q0 20 -13 31.5t-38 11.5t-38 -12.5t-15 -33.5h-85q6 55 40 89t101 34q62 0 97.5 -33.5t35.5 -86.5q0 -31 -13.5 -56.5t-41.5 -51.5l-109 -100h162v-77h-272zM324 150v268h-88v77h66
q11 0 18 7t7 18v30h79v-400h-82z" />
    <glyph glyph-name="uni246C" unicode="&#x246c;" 
d="M285 -19.5q-98 56.5 -154.5 154.5t-56.5 215t56.5 215t154.5 154.5t215 56.5t215 -56.5t154.5 -154.5t56.5 -215t-56.5 -215t-154.5 -154.5t-215 -56.5t-215 56.5zM681.5 40q81.5 47 128.5 128.5t47 181.5t-47 181.5t-128.5 128.5t-181.5 47t-181.5 -47t-128.5 -128.5
t-47 -181.5t47 -181.5t128.5 -128.5t181.5 -47t181.5 47zM503 175q-39 30 -46 81h82q11 -37 64 -37q28 0 43.5 15t15.5 39q0 22 -15 35.5t-42 13.5h-37v66h37q27 0 39.5 13.5t12.5 35.5q0 19 -15 31.5t-44 12.5q-28 0 -41.5 -13t-17.5 -36h-82q6 54 42 88.5t99 34.5
q66 0 103.5 -31.5t37.5 -78.5q0 -31 -16 -54t-38 -33q27 -12 43 -35.5t16 -54.5q0 -51 -36.5 -87t-104.5 -36q-61 0 -100 30zM319 150v268h-88v77h66q11 0 18 7t7 18v30h79v-400h-82z" />
    <glyph glyph-name="uni246D" unicode="&#x246d;" 
d="M285 -19.5q-98 56.5 -154.5 154.5t-56.5 215t56.5 215t154.5 154.5t215 56.5t215 -56.5t154.5 -154.5t56.5 -215t-56.5 -215t-154.5 -154.5t-215 -56.5t-215 56.5zM681.5 40q81.5 47 128.5 128.5t47 181.5t-47 181.5t-128.5 128.5t-181.5 47t-181.5 -47t-128.5 -128.5
t-47 -181.5t47 -181.5t128.5 -128.5t181.5 -47t181.5 47zM319 150v268h-88v77h66q11 0 18 7t7 18v30h79v-400h-82zM706 150h-82v87h-182v74l160 239h104v-239h58v-74h-58v-87zM619 452l-93 -141h98v141h-5z" />
    <glyph glyph-name="uni246E" unicode="&#x246e;" 
d="M285 -19.5q-98 56.5 -154.5 154.5t-56.5 215t56.5 215t154.5 154.5t215 56.5t215 -56.5t154.5 -154.5t56.5 -215t-56.5 -215t-154.5 -154.5t-215 -56.5t-215 56.5zM681.5 40q81.5 47 128.5 128.5t47 181.5t-47 181.5t-128.5 128.5t-181.5 47t-181.5 -47t-128.5 -128.5
t-47 -181.5t47 -181.5t128.5 -128.5t181.5 -47t181.5 47zM317 150v268h-88v77h66q11 0 18 7t7 18v30h79v-400h-82zM499.5 177.5q-42.5 32.5 -47.5 83.5h85q6 -18 22 -28.5t42 -10.5q30 0 47 17t17 46q0 32 -18.5 49t-50.5 17q-20 0 -34 -8t-20 -19h-80l25 226h240v-74h-175
l-8 -73h5q23 17 63 17q60 0 97.5 -36t37.5 -98q0 -63 -40 -102t-106 -39q-59 0 -101.5 32.5z" />
    <glyph glyph-name="uni246F" unicode="&#x246f;" 
d="M285 -19.5q-98 56.5 -154.5 154.5t-56.5 215t56.5 215t154.5 154.5t215 56.5t215 -56.5t154.5 -154.5t56.5 -215t-56.5 -215t-154.5 -154.5t-215 -56.5t-215 56.5zM681.5 40q81.5 47 128.5 128.5t47 181.5t-47 181.5t-128.5 128.5t-181.5 47t-181.5 -47t-128.5 -128.5
t-47 -181.5t47 -181.5t128.5 -128.5t181.5 -47t181.5 47zM317 150v268h-88v77h66q11 0 18 7t7 18v30h79v-400h-82zM489 187q-40 42 -40 104q0 63 38 120l92 139h91l-90 -133h4q8 6 26 6q60 0 100.5 -39t40.5 -101q0 -60 -42.5 -99t-108.5 -39q-71 0 -111 42zM650.5 240.5
q18.5 18.5 18.5 47.5t-18.5 47.5t-50.5 18.5t-50.5 -18.5t-18.5 -47.5t18.5 -47.5t50.5 -18.5t50.5 18.5z" />
    <glyph glyph-name="uni2470" unicode="&#x2470;" 
d="M285 -19.5q-98 56.5 -154.5 154.5t-56.5 215t56.5 215t154.5 154.5t215 56.5t215 -56.5t154.5 -154.5t56.5 -215t-56.5 -215t-154.5 -154.5t-215 -56.5t-215 56.5zM681.5 40q81.5 47 128.5 128.5t47 181.5t-47 181.5t-128.5 128.5t-181.5 47t-181.5 -47t-128.5 -128.5
t-47 -181.5t47 -181.5t128.5 -128.5t181.5 -47t181.5 47zM333 150v268h-88v77h66q11 0 18 7t7 18v30h79v-400h-82zM593 150h-87l143 326h-172v74h259v-74z" />
    <glyph glyph-name="uni2471" unicode="&#x2471;" 
d="M285 -19.5q-98 56.5 -154.5 154.5t-56.5 215t56.5 215t154.5 154.5t215 56.5t215 -56.5t154.5 -154.5t56.5 -215t-56.5 -215t-154.5 -154.5t-215 -56.5t-215 56.5zM681.5 40q81.5 47 128.5 128.5t47 181.5t-47 181.5t-128.5 128.5t-181.5 47t-181.5 -47t-128.5 -128.5
t-47 -181.5t47 -181.5t128.5 -128.5t181.5 -47t181.5 47zM497 178q-40 33 -40 87q0 30 14.5 56t44.5 39q-49 32 -49 85q0 47 37 78.5t99 31.5t99 -31.5t37 -78.5q0 -55 -49 -85q30 -13 44.5 -39t14.5 -56q0 -54 -40 -87t-106 -33t-106 33zM322 150v268h-88v77h66q11 0 18 7
t7 18v30h79v-400h-82zM642.5 406q14.5 13 14.5 31t-14.5 31t-39.5 13t-39.5 -13t-14.5 -31t14.5 -31t39.5 -13t39.5 13zM650 234.5q17 15.5 17 38.5t-17 38.5t-47 15.5t-47 -15.5t-17 -38.5t17 -38.5t47 -15.5t47 15.5z" />
    <glyph glyph-name="uni2472" unicode="&#x2472;" 
d="M285 -19.5q-98 56.5 -154.5 154.5t-56.5 215t56.5 215t154.5 154.5t215 56.5t215 -56.5t154.5 -154.5t56.5 -215t-56.5 -215t-154.5 -154.5t-215 -56.5t-215 56.5zM681.5 40q81.5 47 128.5 128.5t47 181.5t-47 181.5t-128.5 128.5t-181.5 47t-181.5 -47t-128.5 -128.5
t-47 -181.5t47 -181.5t128.5 -128.5t181.5 -47t181.5 47zM533 150l90 133h-4q-7 -6 -26 -6q-60 0 -100.5 39t-40.5 101q0 60 42.5 99t108.5 39q71 0 111 -42t40 -104q0 -63 -38 -120l-92 -139h-91zM324 150v268h-88v77h63q11 0 18 7t7 18v30h82v-400h-82zM653.5 364.5
q18.5 18.5 18.5 47.5t-18.5 47.5t-50.5 18.5t-50.5 -18.5t-18.5 -47.5t18.5 -47.5t50.5 -18.5t50.5 18.5z" />
    <glyph glyph-name="uni2473" unicode="&#x2473;" 
d="M285 -19.5q-98 56.5 -154.5 154.5t-56.5 215t56.5 215t154.5 154.5t215 56.5t215 -56.5t154.5 -154.5t56.5 -215t-56.5 -215t-154.5 -154.5t-215 -56.5t-215 56.5zM681.5 40q81.5 47 128.5 128.5t47 181.5t-47 181.5t-128.5 128.5t-181.5 47t-181.5 -47t-128.5 -128.5
t-47 -181.5q0 -97 46 -179t127.5 -130t183.5 -48q100 0 181.5 47zM213 150v74l148 140q35 32 35 71q0 20 -12.5 31.5t-35.5 11.5t-35.5 -12.5t-14.5 -33.5h-85q6 55 39.5 89t98.5 34q61 0 95.5 -33.5t34.5 -86.5q0 -31 -13 -57t-41 -52l-108 -102h162v-74h-268zM539.5 199
q-42.5 54 -42.5 151t42.5 151t114.5 54t114.5 -54t42.5 -151t-42.5 -151t-114.5 -54t-114.5 54zM708.5 254.5q20.5 32.5 20.5 95.5t-20.5 95.5t-54.5 32.5t-54.5 -32.5t-20.5 -95.5t20.5 -95.5t54.5 -32.5t54.5 32.5z" />
    <glyph glyph-name="uni24EA" unicode="&#x24ea;" 
d="M285 -19.5q-98 56.5 -154.5 154.5t-56.5 215t56.5 215t154.5 154.5t215 56.5t215 -56.5t154.5 -154.5t56.5 -215t-56.5 -215t-154.5 -154.5t-215 -56.5t-215 56.5zM681.5 40q81.5 47 128.5 128.5t47 181.5t-47 181.5t-128.5 128.5t-181.5 47t-181.5 -47t-128.5 -128.5
t-47 -181.5t47 -181.5t128.5 -128.5t181.5 -47t181.5 47zM383.5 199q-43.5 54 -43.5 151t43.5 151t116.5 54t116.5 -54t43.5 -151t-43.5 -151t-116.5 -54t-116.5 54zM556.5 254.5q21.5 32.5 21.5 95.5t-21.5 95.5t-56.5 32.5t-56.5 -32.5t-21.5 -95.5t21.5 -95.5t56.5 -32.5
t56.5 32.5z" />
    <glyph glyph-name="uni24EB" unicode="&#x24eb;" 
d="M285 -19.5q-98 56.5 -154.5 154.5t-56.5 215t56.5 215t154.5 154.5t215 56.5t215 -56.5t154.5 -154.5t56.5 -215t-56.5 -215t-154.5 -154.5t-215 -56.5t-215 56.5zM359 150h82v400h-79v-30q0 -11 -7 -18t-18 -7h-66v-77h88v-268zM590 150h82v400h-79v-30q0 -11 -7 -18
t-18 -7h-66v-77h88v-268z" />
    <glyph glyph-name="uni24EC" unicode="&#x24ec;" 
d="M285 -19.5q-98 56.5 -154.5 154.5t-56.5 215t56.5 215t154.5 154.5t215 56.5t215 -56.5t154.5 -154.5t56.5 -215t-56.5 -215t-154.5 -154.5t-215 -56.5t-215 56.5zM465 150h272v77h-162l109 100q28 26 41.5 51.5t13.5 56.5q0 53 -35.5 86.5t-97.5 33.5q-67 0 -101 -34
t-40 -89h85q2 21 15 33.5t38 12.5t38 -11.5t13 -31.5q0 -37 -38 -72l-151 -136v-77zM324 150h82v400h-79v-30q0 -11 -7 -18t-18 -7h-66v-77h88v-268z" />
    <glyph glyph-name="uni24ED" unicode="&#x24ed;" 
d="M285 -19.5q-98 56.5 -154.5 154.5t-56.5 215t56.5 215t154.5 154.5t215 56.5t215 -56.5t154.5 -154.5t56.5 -215t-56.5 -215t-154.5 -154.5t-215 -56.5t-215 56.5zM707.5 181q36.5 36 36.5 87q0 31 -16 54.5t-43 35.5q23 11 38.5 33.5t15.5 53.5q0 47 -37.5 78.5
t-103.5 31.5q-63 0 -99 -34.5t-42 -88.5h82q4 23 17.5 36t41.5 13q29 0 44 -12.5t15 -31.5q0 -22 -12.5 -35.5t-39.5 -13.5h-39v-66h39q27 0 42 -13.5t15 -35.5q0 -24 -15.5 -39t-43.5 -15q-53 0 -64 37h-82q7 -51 46 -81t100 -30q68 0 104.5 36zM319 150h82v400h-79v-30
q0 -11 -7 -18t-18 -7h-66v-77h88v-268z" />
    <glyph glyph-name="uni24EE" unicode="&#x24ee;" 
d="M285 -19.5q-98 56.5 -154.5 154.5t-56.5 215t56.5 215t154.5 154.5t215 56.5t215 -56.5t154.5 -154.5t56.5 -215t-56.5 -215t-154.5 -154.5t-215 -56.5t-215 56.5zM319 150h82v400h-79v-30q0 -11 -7 -18t-18 -7h-66v-77h88v-268zM624 237v-87h82v87h58v74h-58v239h-104
l-160 -239v-74h182zM624 311h-98l93 141h5v-141z" />
    <glyph glyph-name="uni24EF" unicode="&#x24ef;" 
d="M285 -19.5q-98 56.5 -154.5 154.5t-56.5 215t56.5 215t154.5 154.5t215 56.5t215 -56.5t154.5 -154.5t56.5 -215t-56.5 -215t-154.5 -154.5t-215 -56.5t-215 56.5zM317 150h82v400h-79v-30q0 -11 -7 -18t-18 -7h-66v-77h88v-268zM707 184q40 39 40 102q0 62 -37.5 98
t-97.5 36q-40 0 -63 -17h-5l8 73h175v74h-240l-25 -226h80q6 11 20 19t34 8q32 0 50.5 -17t18.5 -49q0 -29 -17 -46t-47 -17q-26 0 -42 10.5t-22 28.5h-85q5 -51 47.5 -83.5t101.5 -32.5q66 0 106 39z" />
    <glyph glyph-name="uni24F0" unicode="&#x24f0;" 
d="M285 -19.5q-98 56.5 -154.5 154.5t-56.5 215t56.5 215t154.5 154.5t215 56.5t215 -56.5t154.5 -154.5t56.5 -215t-56.5 -215t-154.5 -154.5t-215 -56.5t-215 56.5zM317 150h82v400h-79v-30q0 -11 -7 -18t-18 -7h-66v-77h88v-268zM711.5 184q42.5 39 42.5 99
q0 62 -40.5 101t-100.5 39q-18 0 -26 -6h-4l90 133h-91l-92 -139q-18 -28 -28 -56.5t-10 -63.5q0 -62 40 -104t111 -42q66 0 108.5 39zM552.5 240.5q-18.5 18.5 -18.5 47.5t18.5 47.5t50.5 18.5t50.5 -18.5t18.5 -47.5t-18.5 -47.5t-50.5 -18.5t-50.5 18.5z" />
    <glyph glyph-name="uni24F1" unicode="&#x24f1;" 
d="M285 -19.5q-98 56.5 -154.5 154.5t-56.5 215t56.5 215t154.5 154.5t215 56.5t215 -56.5t154.5 -154.5t56.5 -215t-56.5 -215t-154.5 -154.5t-215 -56.5t-215 56.5zM333 150h82v400h-79v-30q0 -11 -7 -18t-18 -7h-66v-77h88v-268zM649 476l-143 -326h87l143 326v74h-259
v-74h172z" />
    <glyph glyph-name="uni24F2" unicode="&#x24f2;" 
d="M285 -19.5q-98 56.5 -154.5 154.5t-56.5 215t56.5 215t154.5 154.5t215 56.5t215 -56.5t154.5 -154.5t56.5 -215t-56.5 -215t-154.5 -154.5t-215 -56.5t-215 56.5zM709 178q40 33 40 87q0 30 -14.5 56t-44.5 39q49 30 49 85q0 47 -37 78.5t-99 31.5t-99 -31.5t-37 -78.5
q0 -53 49 -85q-30 -13 -44.5 -39t-14.5 -56q0 -54 40 -87t106 -33t106 33zM322 150h82v400h-79v-30q0 -11 -7 -18t-18 -7h-66v-77h88v-268zM563.5 406q-14.5 13 -14.5 31t14.5 31t39.5 13t39.5 -13t14.5 -31t-14.5 -31t-39.5 -13t-39.5 13zM556 234.5q-17 15.5 -17 38.5
t17 38.5t47 15.5t47 -15.5t17 -38.5t-17 -38.5t-47 -15.5t-47 15.5z" />
    <glyph glyph-name="uni24F3" unicode="&#x24f3;" 
d="M285 -19.5q-98 56.5 -154.5 154.5t-56.5 215t56.5 215t154.5 154.5t215 56.5t215 -56.5t154.5 -154.5t56.5 -215t-56.5 -215t-154.5 -154.5t-215 -56.5t-215 56.5zM533 150h91l92 139q38 57 38 120q0 62 -40 104t-111 42q-66 0 -108.5 -39t-42.5 -99q0 -62 40.5 -101
t100.5 -39q19 0 26 6h4zM324 150h82v400h-82v-30q0 -11 -7 -18t-18 -7h-63v-77h88v-268zM552.5 364.5q-18.5 18.5 -18.5 47.5t18.5 47.5t50.5 18.5t50.5 -18.5t18.5 -47.5t-18.5 -47.5t-50.5 -18.5t-50.5 18.5z" />
    <glyph glyph-name="uni24F4" unicode="&#x24f4;" 
d="M285 -19.5q-98 56.5 -154.5 154.5t-56.5 215t56.5 215t154.5 154.5t215 56.5t215 -56.5t154.5 -154.5t56.5 -215t-56.5 -215t-154.5 -154.5t-215 -56.5t-215 56.5zM213 150h268v74h-162l108 102q28 26 41 52t13 57q0 53 -34.5 86.5t-95.5 33.5q-65 0 -98.5 -34t-39.5 -89
h85q2 21 14.5 33.5t35.5 12.5t35.5 -11.5t12.5 -31.5q0 -39 -35 -71l-148 -140v-74zM768.5 199q42.5 54 42.5 151t-42.5 151t-114.5 54t-114.5 -54t-42.5 -151t42.5 -151t114.5 -54t114.5 54zM599.5 254.5q-20.5 32.5 -20.5 95.5t20.5 95.5t54.5 32.5t54.5 -32.5t20.5 -95.5
t-20.5 -95.5t-54.5 -32.5t-54.5 32.5z" />
    <glyph glyph-name="uni24FF" unicode="&#x24ff;" 
d="M285 -19.5q-98 56.5 -154.5 154.5t-56.5 215t56.5 215t154.5 154.5t215 56.5t215 -56.5t154.5 -154.5t56.5 -215t-56.5 -215t-154.5 -154.5t-215 -56.5t-215 56.5zM616.5 199q43.5 54 43.5 151t-43.5 151t-116.5 54t-116.5 -54t-43.5 -151t43.5 -151t116.5 -54t116.5 54z
M443.5 254.5q-21.5 32.5 -21.5 95.5t21.5 95.5t56.5 32.5t56.5 -32.5t21.5 -95.5t-21.5 -95.5t-56.5 -32.5t-56.5 32.5z" />
    <glyph glyph-name="lozenge" unicode="&#x25ca;" horiz-adv-x="596" 
d="M334 0h-72l-225 350l225 350h72l225 -350zM148 350l150 -235l150 235l-150 235z" />
    <glyph glyph-name="uni2776" unicode="&#x2776;" 
d="M285 -19.5q-98 56.5 -154.5 154.5t-56.5 215t56.5 215t154.5 154.5t215 56.5t215 -56.5t154.5 -154.5t56.5 -215t-56.5 -215t-154.5 -154.5t-215 -56.5t-215 56.5zM472 150h82v400h-79v-30q0 -11 -7 -18t-18 -7h-66v-77h88v-268z" />
    <glyph glyph-name="uni2777" unicode="&#x2777;" 
d="M285 -19.5q-98 56.5 -154.5 154.5t-56.5 215t56.5 215t154.5 154.5t215 56.5t215 -56.5t154.5 -154.5t56.5 -215t-56.5 -215t-154.5 -154.5t-215 -56.5t-215 56.5zM367 150h272v77h-162l109 100q28 26 41.5 51.5t13.5 56.5q0 53 -35.5 86.5t-97.5 33.5q-67 0 -101 -34
t-40 -89h85q2 21 15 33.5t38 12.5t38 -11.5t13 -31.5q0 -37 -38 -72l-151 -136v-77z" />
    <glyph glyph-name="uni2778" unicode="&#x2778;" 
d="M285 -19.5q-98 56.5 -154.5 154.5t-56.5 215t56.5 215t154.5 154.5t215 56.5t215 -56.5t154.5 -154.5t56.5 -215t-56.5 -215t-154.5 -154.5t-215 -56.5t-215 56.5zM612.5 181q36.5 36 36.5 87q0 31 -16.5 54.5t-43.5 35.5q23 10 39 33t16 54q0 47 -37.5 78.5t-103.5 31.5
q-63 0 -99.5 -35t-42.5 -88h83q4 23 17.5 36t41.5 13q29 0 43.5 -12.5t14.5 -31.5q0 -22 -12 -35.5t-39 -13.5h-39v-66h39q26 0 41 -13.5t15 -35.5q0 -24 -15.5 -39t-42.5 -15q-53 0 -64 37h-83q7 -51 46 -81t101 -30q68 0 104.5 36z" />
    <glyph glyph-name="uni2779" unicode="&#x2779;" 
d="M285 -19.5q-98 56.5 -154.5 154.5t-56.5 215t56.5 215t154.5 154.5t215 56.5t215 -56.5t154.5 -154.5t56.5 -215t-56.5 -215t-154.5 -154.5t-215 -56.5t-215 56.5zM506 237v-87h82v87h58v74h-58v239h-104l-160 -239v-74h182zM506 311h-98l93 141h5v-141z" />
    <glyph glyph-name="uni277A" unicode="&#x277a;" 
d="M285 -19.5q-98 56.5 -154.5 154.5t-56.5 215t56.5 215t154.5 154.5t215 56.5t215 -56.5t154.5 -154.5t56.5 -215t-56.5 -215t-154.5 -154.5t-215 -56.5t-215 56.5zM610 184q40 39 40 102q0 62 -37.5 98t-97.5 36q-40 0 -63 -17h-5l8 73h175v74h-240l-25 -226h80
q6 11 20 19t34 8q32 0 50.5 -17t18.5 -49q0 -29 -17 -46t-47 -17q-26 0 -42 10.5t-22 28.5h-85q5 -51 47.5 -83.5t101.5 -32.5q66 0 106 39z" />
    <glyph glyph-name="uni277B" unicode="&#x277b;" 
d="M285 -19.5q-98 56.5 -154.5 154.5t-56.5 215t56.5 215t154.5 154.5t215 56.5t215 -56.5t154.5 -154.5t56.5 -215t-56.5 -215t-154.5 -154.5t-215 -56.5t-215 56.5zM608.5 184q42.5 39 42.5 99q0 62 -40.5 101t-100.5 39q-18 0 -26 -6h-4l90 133h-91l-92 -139
q-38 -57 -38 -120q0 -62 40 -104t111 -42q66 0 108.5 39zM449.5 240.5q-18.5 18.5 -18.5 47.5t18.5 47.5t50.5 18.5t50.5 -18.5t18.5 -47.5t-18.5 -47.5t-50.5 -18.5t-50.5 18.5z" />
    <glyph glyph-name="uni277C" unicode="&#x277c;" 
d="M285 -19.5q-98 56.5 -154.5 154.5t-56.5 215t56.5 215t154.5 154.5t215 56.5t215 -56.5t154.5 -154.5t56.5 -215t-56.5 -215t-154.5 -154.5t-215 -56.5t-215 56.5zM549 476l-143 -326h87l143 326v74h-259v-74h172z" />
    <glyph glyph-name="uni277D" unicode="&#x277d;" 
d="M285 -19.5q-98 56.5 -154.5 154.5t-56.5 215t56.5 215t154.5 154.5t215 56.5t215 -56.5t154.5 -154.5t56.5 -215t-56.5 -215t-154.5 -154.5t-215 -56.5t-215 56.5zM606 178q40 33 40 87q0 30 -14.5 56t-44.5 39q49 30 49 85q0 47 -37 78.5t-99 31.5t-99 -31.5t-37 -78.5
q0 -55 49 -85q-30 -13 -44.5 -39t-14.5 -56q0 -54 40 -87t106 -33t106 33zM460.5 406q-14.5 13 -14.5 31t14.5 31t39.5 13t39.5 -13t14.5 -31t-14.5 -31t-39.5 -13t-39.5 13zM453 234.5q-17 15.5 -17 38.5t17 38.5t47 15.5t47 -15.5t17 -38.5t-17 -38.5t-47 -15.5t-47 15.5z
" />
    <glyph glyph-name="uni277E" unicode="&#x277e;" 
d="M285 -19.5q-98 56.5 -154.5 154.5t-56.5 215t56.5 215t154.5 154.5t215 56.5t215 -56.5t154.5 -154.5t56.5 -215t-56.5 -215t-154.5 -154.5t-215 -56.5t-215 56.5zM430 150h91l92 139q38 57 38 120q0 62 -40 104t-111 42q-66 0 -108.5 -39t-42.5 -99q0 -62 40.5 -101
t100.5 -39q19 0 26 6h4zM449.5 364.5q-18.5 18.5 -18.5 47.5t18.5 47.5t50.5 18.5t50.5 -18.5t18.5 -47.5t-18.5 -47.5t-50.5 -18.5t-50.5 18.5z" />
    <glyph glyph-name="uni277F" unicode="&#x277f;" 
d="M285 -19.5q-98 56.5 -154.5 154.5t-56.5 215t56.5 215t154.5 154.5t215 56.5t215 -56.5t154.5 -154.5t56.5 -215t-56.5 -215t-154.5 -154.5t-215 -56.5t-215 56.5zM725.5 199q43.5 54 43.5 151t-43.5 151t-116.5 54t-116.5 -54t-43.5 -151t43.5 -151t116.5 -54t116.5 54z
M314 150h82v400h-79v-30q0 -11 -7 -18t-18 -7h-66v-77h88v-268zM552.5 254.5q-21.5 32.5 -21.5 95.5t21.5 95.5t56.5 32.5t56.5 -32.5t21.5 -95.5t-21.5 -95.5t-56.5 -32.5t-56.5 32.5z" />
    <glyph glyph-name="uni2921" unicode="&#x2921;" 
d="M748 163v167h82v-305l-5 -5h-305v82h167l-435 435v-167h-82v305l5 5h305v-82h-167z" />
    <glyph glyph-name="uni2922" unicode="&#x2922;" 
d="M520 680h305l5 -5v-305h-82v167l-435 -435h167v-82h-305l-5 5v305h82v-167l435 435h-167v82z" />
    <glyph glyph-name="uniE000" unicode="&#xe000;" 
d="M699 700q63 0 101 -38t38 -101v-248q0 -63 -38 -101t-101 -38h-241l111 -112l-62 -62l-215 215v5l215 215l62 -62l-111 -112h241q24 0 38 14t14 38v248q0 24 -14 38t-38 14h-537v87h537z" />
    <glyph glyph-name="uniE001" unicode="&#xe001;" 
d="M838 87v-87h-537q-63 0 -101 38t-38 101v248q0 63 38 101t101 38h241l-111 112l62 62l215 -215v-5l-215 -215l-62 62l111 112h-241q-24 0 -38 -14t-14 -38v-248q0 -24 14 -38t38 -14h537z" />
    <glyph glyph-name="angle_left.icon" unicode="&#xe002;" 
d="M659 166l-58 -66l-293 253v4l293 253l58 -65l-217 -188v-4z" />
    <glyph glyph-name="angle_up.icon" unicode="&#xe003;" 
d="M498 418l-188 -216l-65 57l253 293h4l253 -293l-65 -57l-188 216h-4z" />
    <glyph glyph-name="angle_right.icon" unicode="&#xe004;" 
d="M692 353l-293 -253l-58 66l217 187v4l-217 188l58 65l293 -253v-4z" />
    <glyph glyph-name="angle_down.icon" unicode="&#xe005;" 
d="M502 163h-4l-253 293l65 57l188 -216h4l188 216l65 -57z" />
    <glyph glyph-name="angle_double_left.icon" unicode="&#xe006;" 
d="M534 166l-59 -66l-293 253v4l293 253l59 -65l-217 -188v-4zM763 166l-59 -66l-293 253v4l293 253l59 -65l-217 -188v-4z" />
    <glyph glyph-name="angle_double_up.icon" unicode="&#xe007;" 
d="M498 528l-188 -216l-65 58l253 293h4l253 -293l-65 -58l-188 216h-4zM498 300l-188 -216l-65 57l253 293h4l253 -293l-65 -57l-188 216h-4z" />
    <glyph glyph-name="angle_double_right.icon" unicode="&#xe008;" 
d="M589 353l-293 -253l-59 66l217 187v4l-217 188l59 65l293 -253v-4zM818 353l-293 -253l-59 66l217 187v4l-217 188l59 65l293 -253v-4z" />
    <glyph glyph-name="angle_double_down.icon" unicode="&#xe009;" 
d="M502 274h-4l-253 293l65 57l188 -216h4l188 216l65 -57zM502 45h-4l-253 293l65 58l188 -216h4l188 216l65 -58z" />
    <glyph glyph-name="uniE00A" unicode="&#xe00a;" 
d="M316.5 37q-82.5 47 -129.5 129.5t-47 183.5t47 183.5t129.5 129.5t183.5 47t183.5 -47t129.5 -129.5t47 -183.5t-47 -183.5t-129.5 -129.5t-183.5 -47t-183.5 47zM638.5 113q62.5 36 98.5 98.5t36 138.5t-36 138.5t-98.5 98.5t-138.5 36t-138.5 -36t-98.5 -98.5
t-36 -138.5t36 -138.5t98.5 -98.5t138.5 -36t138.5 36zM609 225l-58 -65l-218 188v4l218 188l58 -65l-141 -123v-4z" />
    <glyph glyph-name="uniE00B" unicode="&#xe00b;" 
d="M316.5 37q-82.5 47 -129.5 129.5t-47 183.5t47 183.5t129.5 129.5t183.5 47t183.5 -47t129.5 -129.5t47 -183.5t-47 -183.5t-129.5 -129.5t-183.5 -47t-183.5 47zM638.5 113q62.5 36 98.5 98.5t36 138.5t-36 138.5t-98.5 98.5t-138.5 36t-138.5 -36t-98.5 -98.5
t-36 -138.5t36 -138.5t98.5 -98.5t138.5 -36t138.5 36zM498 373l-123 -141l-65 57l188 218h4l188 -218l-65 -57l-123 141h-4z" />
    <glyph glyph-name="uniE00C" unicode="&#xe00c;" 
d="M316.5 37q-82.5 47 -129.5 129.5t-47 183.5t47 183.5t129.5 129.5t183.5 47t183.5 -47t129.5 -129.5t47 -183.5t-47 -183.5t-129.5 -129.5t-183.5 -47t-183.5 47zM638.5 113q62.5 36 98.5 98.5t36 138.5t-36 138.5t-98.5 98.5t-138.5 36t-138.5 -36t-98.5 -98.5
t-36 -138.5t36 -138.5t98.5 -98.5t138.5 -36t138.5 36zM667 348l-218 -188l-58 65l141 123v4l-141 123l58 65l218 -188v-4z" />
    <glyph glyph-name="uniE00D" unicode="&#xe00d;" 
d="M316.5 37q-82.5 47 -129.5 129.5t-47 183.5t47 183.5t129.5 129.5t183.5 47t183.5 -47t129.5 -129.5t47 -183.5t-47 -183.5t-129.5 -129.5t-183.5 -47t-183.5 47zM638.5 113q62.5 36 98.5 98.5t36 138.5t-36 138.5t-98.5 98.5t-138.5 36t-138.5 -36t-98.5 -98.5
t-36 -138.5t36 -138.5t98.5 -98.5t138.5 -36t138.5 36zM502 186h-4l-188 218l65 57l123 -141h4l123 141l65 -57z" />
    <glyph glyph-name="uniE00E" unicode="&#xe00e;" 
d="M457 433v113l-53 -52l-56 56l150 150h5l150 -150l-56 -56l-53 52v-113h-87zM165 307v87h670v-87h-670zM544 267v-113l53 52l56 -56l-150 -150h-5l-150 150l56 56l53 -52v113h87z" />
    <glyph glyph-name="uniE00F" unicode="&#xe00f;" 
d="M544 0h-87v700h87v-700zM297 503l56 -56l-52 -53h105v-87h-105l52 -53l-56 -56l-150 150v5zM647 447l56 56l150 -150v-5l-150 -150l-56 56l52 53h-105v87h105z" />
    <glyph glyph-name="uniE010" unicode="&#xe010;" 
d="M498 575l-88 -87l-62 62l150 150h5l150 -150l-62 -62l-88 87h-5zM835 307h-670v87h670v-87zM503 0h-5l-150 150l62 62l88 -87h5l88 87l62 -62z" />
    <glyph glyph-name="uniE011" unicode="&#xe011;" 
d="M544 0h-87v700h87v-700zM362 260l-62 -62l-150 150v5l150 150l62 -62l-87 -88v-5zM850 348l-150 -150l-62 62l87 88v5l-87 88l62 62l150 -150v-5z" />
    <glyph glyph-name="uniE012" unicode="&#xe012;" 
d="M850 690v-252h-87v116l-204 -204l204 -204v116h87v-252l-10 -10h-252v87h116l-204 204l-204 -204h116v-87h-252l-10 10v252h87v-116l204 204l-204 204v-116h-87v252l10 10h252v-87h-116l204 -204l204 204h-116v87h252z" />
    <glyph glyph-name="uniE013" unicode="&#xe013;" 
d="M646 449l54 54l150 -150v-5l-150 -150l-54 54l54 55h-156v-157l55 54l54 -54l-150 -150h-5l-150 150l54 54l55 -54v157h-157l54 -55l-54 -54l-150 150v5l150 150l54 -54l-54 -55h157v156l-55 -54l-54 54l150 150h5l150 -150l-54 -54l-55 54v-156h156z" />
    <glyph glyph-name="uniE014" unicode="&#xe014;" 
d="M359 72q-19 0 -31.5 12.5t-12.5 30.5t12.5 31t31.5 13h390v302h-96l-110 80h-209q-18 0 -30.5 12.5t-12.5 30.5q0 19 12.5 31.5t30.5 12.5h246l110 -80h146v-476h-477zM164 420q-18 0 -30.5 12.5t-12.5 30.5t12.5 31t30.5 13h295v-87h-295zM254 307q-18 0 -30.5 12.5
t-12.5 30.5t12.5 31t30.5 13h205v-87h-205zM304 191q-18 0 -30.5 12.5t-12.5 30.5t12.5 31t30.5 13h155v-87h-155z" />
    <glyph glyph-name="uniE015" unicode="&#xe015;" 
d="M570 656q0 19 12.5 31.5t30.5 12.5t31 -12.5t13 -31.5v-276h-87v276zM457 566q0 19 12.5 31.5t30.5 12.5t31 -12.5t13 -31.5v-186h-87v186zM341 516q0 19 12.5 31.5t30.5 12.5t31 -12.5t13 -31.5v-136h-87v136zM222 462q0 18 12.5 31t30.5 13t31 -13t13 -31v-375h302v93
l80 110v196q0 19 12.5 31.5t30.5 12.5q19 0 31.5 -12.5t12.5 -31.5v-233l-80 -110v-143h-476v462z" />
    <glyph glyph-name="uniE016" unicode="&#xe016;" 
d="M164 72v476h146l110 80h246q18 0 30.5 -12.5t12.5 -31.5q0 -18 -12.5 -30.5t-30.5 -12.5h-209l-110 -80h-96v-302h390q19 0 31.5 -13t12.5 -31t-12.5 -30.5t-31.5 -12.5h-477zM541 420v87h295q18 0 30.5 -13t12.5 -31t-12.5 -30.5t-30.5 -12.5h-295zM541 307v87h205
q18 0 30.5 -13t12.5 -31t-12.5 -30.5t-30.5 -12.5h-205zM541 191v87h155q18 0 30.5 -13t12.5 -31t-12.5 -30.5t-30.5 -12.5h-155z" />
    <glyph glyph-name="uniE017" unicode="&#xe017;" 
d="M234.5 182.5q-12.5 12.5 -12.5 31.5v233l80 110v143h476v-462q0 -18 -12.5 -31t-30.5 -13t-31 13t-13 31v375h-302v-93l-80 -110v-196q0 -19 -12.5 -31.5t-30.5 -12.5q-19 0 -31.5 12.5zM356 12.5q-13 12.5 -13 31.5v276h87v-276q0 -19 -12.5 -31.5t-30.5 -12.5t-31 12.5
zM469 102.5q-13 12.5 -13 31.5v186h87v-186q0 -19 -12.5 -31.5t-30.5 -12.5t-31 12.5zM585 152.5q-13 12.5 -13 31.5v136h87v-136q0 -19 -12.5 -31.5t-30.5 -12.5t-31 12.5z" />
    <glyph glyph-name="u1F516.icon" unicode="&#xe018;" 
d="M456 0q0 24 -14 38t-38 14h-228v648h228q33 0 58.5 -12.5t34.5 -28.5h10q8 16 34 28.5t59 12.5h225v-648h-230q-24 0 -38 -14t-14 -38h-87zM456 130v431q0 24 -14 38t-38 14h-141v-474h141q27 0 47 -9h5zM548 130q20 9 47 9h143v474h-143q-24 0 -38 -14t-14 -38v-431h5z
" />
    <glyph glyph-name="plus.icon" unicode="&#xe019;" 
d="M683.5 663q82.5 -47 129.5 -129.5t47 -183.5t-47 -183.5t-129.5 -129.5t-183.5 -47t-183.5 47t-129.5 129.5t-47 183.5t47 183.5t129.5 129.5t183.5 47t183.5 -47zM638.5 113q62.5 36 98.5 98.5t36 138.5t-36 138.5t-98.5 98.5t-138.5 36t-138.5 -36t-98.5 -98.5
t-36 -138.5t36 -138.5t98.5 -98.5t138.5 -36t138.5 36zM544 548v-154h154v-87h-154v-155h-87v155h-155v87h155v154h87z" />
    <glyph glyph-name="uniE01A" unicode="&#xe01a;" 
d="M500 291l-224 -224l-59 59l224 224l-224 224l59 59l224 -224l224 224l59 -59l-224 -224l224 -224l-59 -59z" />
    <glyph glyph-name="uniE01B" unicode="&#xe01b;" 
d="M683.5 663q82.5 -47 129.5 -129.5t47 -183.5t-47 -183.5t-129.5 -129.5t-183.5 -47t-183.5 47t-129.5 129.5t-47 183.5t47 183.5t129.5 129.5t183.5 47t183.5 -47zM279 188l383 383q-71 52 -162 52q-76 0 -138.5 -36t-98.5 -98.5t-36 -138.5q0 -91 52 -162zM638.5 113
q62.5 36 98.5 98.5t36 138.5q0 91 -52 162l-383 -383q71 -52 162 -52q76 0 138.5 36z" />
    <glyph glyph-name="uniE01C" unicode="&#xe01c;" 
d="M300 200h-5l-156 156l62 62l53 -52v195q0 63 38 101t101 38h312v-87h-312q-24 0 -38 -14t-14 -38v-195l53 52l62 -62zM861 344l-62 -62l-53 52v-195q0 -63 -38 -101t-101 -38h-312v87h312q24 0 38 14t14 38v195l-53 -52l-62 62l156 156h5z" />
    <glyph glyph-name="uniE01D" unicode="&#xe01d;" 
d="M811 219q37 -39 37 -83q0 -32 -20.5 -63.5t-51 -52t-58.5 -20.5q-52 0 -89 37l-177 179q-27 -6 -55 -6q-66 0 -122.5 33t-89.5 89.5t-33 122.5t33 122.5t89.5 89.5t122.5 33t122.5 -33t89.5 -89.5t33 -122.5q0 -25 -7 -60zM260 375.5q21 -36.5 57.5 -57.5t79.5 -21
t79.5 21t57.5 57.5t21 79.5t-21 79.5t-57.5 57.5t-79.5 21t-79.5 -21t-57.5 -57.5t-21 -79.5t21 -79.5zM282 454q0 49 33 82.5t82 33.5v-94q-8 0 -14.5 -7t-6.5 -15h-94zM739 108q14 14 14 30q0 13 -10 23l-149 150q-25 -34 -57 -56l150 -151q10 -10 23 -10q15 0 29 14z" />
    <glyph glyph-name="uniE01E" unicode="&#xe01e;" 
d="M765 465.5q32 -18.5 50.5 -50.5t18.5 -70t-18.5 -70t-50.5 -50.5t-70 -18.5q-52 0 -90 33l-162 -87q1 -4 1 -13q0 -38 -18.5 -70t-50.5 -50.5t-70 -18.5t-70 18.5t-50.5 50.5t-18.5 70t18.5 70t50.5 50.5t70 18.5q26 0 50.5 -9.5t42.5 -26.5l159 85q-1 6 -1 18q0 8 2 22
l-163 88q-38 -33 -90 -33q-38 0 -70 18.5t-50.5 50.5t-18.5 70t18.5 70t50.5 50.5t70 18.5t70 -18.5t50.5 -50.5t18.5 -70q0 -12 -1 -18l165 -89q38 30 87 30q38 0 70 -18.5zM342 524q15 15 15 37t-15 37t-37 15t-37 -15t-15 -37t15 -37t37 -15t37 15zM732 308q15 15 15 37
t-15 37t-37 15t-37 -15t-15 -37t15 -37t37 -15t37 15zM342 102q15 15 15 37t-15 37t-37 15t-37 -15t-15 -37t15 -37t37 -15t37 15z" />
    <glyph glyph-name="uniE01F" unicode="&#xe01f;" 
d="M773 706h87v-248l-8 -8h-248v87h97q-38 41 -90 63.5t-111 22.5q-76 0 -138.5 -36t-98.5 -98.5t-36 -138.5h-87q0 101 47 183.5t129.5 129.5t183.5 47q82 0 152.5 -32t120.5 -89v117zM638.5 113q62.5 36 98.5 98.5t36 138.5h87q0 -101 -47 -183.5t-129.5 -129.5
t-183.5 -47q-82 0 -152.5 32t-120.5 89v-117h-87v248l8 8h248v-87h-97q38 -41 90 -63.5t111 -22.5q76 0 138.5 36z" />
    </font>
</defs>
</svg>
