<svg width="227" height="49" viewBox="0 0 227 49" fill="none" xmlns="http://www.w3.org/2000/svg">
<g clip-path="url(#clip0_108_308)">
<path d="M24.3804 13.8437V0.00146484C30.6425 3.51648 36.9043 7.03125 43.1662 10.5463C45.7096 11.9739 47.2374 14.3776 47.2374 16.9513V30.7938C40.9755 27.2788 34.7137 23.7638 28.4518 20.249C25.9084 18.8211 24.3804 16.4177 24.3804 13.8437Z" fill="#00A74A"/>
<path d="M0 16.952V30.7943C6.26185 27.279 12.5237 23.7643 18.7855 20.2495C21.3293 18.8216 22.857 16.4179 22.857 13.8442V0.00195312C16.5949 3.51697 10.3331 7.03174 4.07121 10.5468C1.52775 11.9744 0 14.3781 0 16.952Z" fill="#00A74A"/>
<path d="M22.857 35.1566V48.9986C16.5949 45.4839 10.3331 41.9688 4.07121 38.4541C1.52775 37.0262 0 34.6228 0 32.0488V18.2065C6.26185 21.7216 12.5237 25.2363 18.7855 28.7513C21.3293 30.1792 22.857 32.5827 22.857 35.1566Z" fill="#0085BF"/>
<path d="M47.2371 32.0483V18.2061C40.9753 21.7211 34.7134 25.2358 28.4516 28.7509C25.9081 30.1785 24.3804 32.5822 24.3804 35.1559V48.9984C30.6422 45.4834 36.9041 41.9686 43.1659 38.4536C45.7094 37.0257 47.2371 34.6223 47.2371 32.0483Z" fill="#0085BF"/>
<path d="M166.709 38.549H170.948C173.635 38.549 175.826 36.3638 175.826 33.6848V31.6895H181.752C183.203 31.6895 184.57 31.4479 185.847 30.9733C187.125 30.4988 188.259 29.8091 189.239 28.9002C190.219 27.9919 190.987 26.8894 191.546 25.5877C192.105 24.2861 192.402 22.8058 192.402 21.1528C192.402 19.3275 192.105 17.7362 191.546 16.3936C190.987 15.0515 190.218 13.9363 189.239 13.0602C188.257 12.1816 187.126 11.5211 185.847 11.0906C184.572 10.6611 183.202 10.4504 181.752 10.4504H171.588C168.901 10.4504 166.709 12.6356 166.709 15.3144V38.549ZM107.186 24.5409C107.186 26.6069 107.563 28.516 108.284 30.2641C109.006 32.0148 110.021 33.5385 111.322 34.8367C112.625 36.1352 114.153 37.1471 115.909 37.8674C117.662 38.5862 119.576 38.9623 121.648 38.9623C123.741 38.9623 125.669 38.5877 127.436 37.8674C129.199 37.1483 130.737 36.1321 132.042 34.8367C133.355 33.5358 134.373 32.0148 135.095 30.2641C135.816 28.516 136.193 26.6069 136.193 24.5409C136.193 22.4544 135.818 20.5312 135.095 18.7699C134.374 17.012 133.351 15.4815 132.042 14.1761C130.734 12.8713 129.199 11.8513 127.436 11.132C125.669 10.412 123.741 10.0371 121.648 10.0371C119.576 10.0371 117.662 10.4132 115.909 11.132C114.153 11.8521 112.628 12.8676 111.322 14.1761C110.024 15.4778 109.005 17.012 108.284 18.7699C107.562 20.5312 107.186 22.4544 107.186 24.5409ZM116.054 24.5409C116.054 23.7008 116.196 22.9172 116.468 22.1992C116.742 21.4779 117.126 20.8512 117.622 20.3122C118.12 19.7702 118.715 19.3523 119.397 19.0521C120.075 18.7532 120.827 18.5908 121.648 18.5908C122.491 18.5908 123.256 18.752 123.941 19.0521C124.623 19.351 125.209 19.7717 125.702 20.3122C126.196 20.8529 126.579 21.4769 126.842 22.1992C127.103 22.916 127.243 23.7008 127.243 24.5409C127.243 25.3609 127.104 26.1255 126.842 26.8343C126.579 27.5438 126.199 28.1634 125.702 28.7007C125.212 29.2309 124.626 29.654 123.941 29.9541C123.258 30.2528 122.491 30.4089 121.648 30.4089C120.827 30.4089 120.073 30.2521 119.397 29.9541C118.712 29.653 118.117 29.2324 117.622 28.7007C117.123 28.1651 116.741 27.5426 116.468 26.8343C116.195 26.1243 116.054 25.3609 116.054 24.5409ZM106.891 33.6848V30.6977H92.305V28.012H98.9879C101.675 28.012 103.867 25.8269 103.867 23.1478V20.7808H92.305V18.3014H102.013C104.7 18.3014 106.891 16.1165 106.891 13.437V10.4504H88.4804C85.7945 10.4504 83.6023 12.6363 83.6023 15.3144V33.6848C83.6023 36.3631 85.7937 38.549 88.4804 38.549H102.013C104.7 38.549 106.891 36.3638 106.891 33.6848ZM82.0606 10.4499V13.437C82.0606 16.1153 79.868 18.3012 77.1823 18.3012H69.1317V33.6845C69.1317 36.3626 66.9391 38.549 64.2537 38.549H60.0146V15.3142C60.0146 12.6356 62.2063 10.4499 64.893 10.4499H82.0606ZM180.302 18.3014C180.834 18.3014 181.297 18.4337 181.704 18.68C182.104 18.9215 182.422 19.2587 182.65 19.672C182.878 20.085 182.995 20.5535 182.995 21.0702C182.995 21.6001 182.879 22.0698 182.65 22.489C182.424 22.9023 182.105 23.2277 181.704 23.4668C181.298 23.7086 180.832 23.8387 180.302 23.8387H175.826V18.3014H180.302ZM149.773 19.3763L152.55 27.6404H146.997L149.773 19.3763ZM155.161 10.4487H148.927C146.149 10.4487 143.784 12.1017 142.836 14.7051L134.151 38.549H139.813C141.96 38.549 143.783 37.2304 144.45 35.1959L144.759 34.2517H154.747L155.078 35.2363C155.759 37.251 157.57 38.549 159.703 38.549H165.397L155.161 10.4487ZM222.762 38.549H227V10.4504H221.746C220.294 10.4504 219.044 11.0137 218.085 12.1015L210.424 20.7808L202.765 12.1015C201.805 11.0137 200.555 10.4504 199.103 10.4504H193.849V38.549H198.087C200.774 38.549 202.965 36.3638 202.965 33.6848V24.7062L210.428 32.7226L217.884 24.7062V33.6848C217.884 36.3638 220.076 38.549 222.762 38.549Z" fill="white"/>
</g>
<defs>
<clipPath id="clip0_108_308">
<rect width="227" height="49" fill="white"/>
</clipPath>
</defs>
</svg>
