<svg width="147" height="32" viewBox="0 0 147 32" fill="none" xmlns="http://www.w3.org/2000/svg">
<g clip-path="url(#clip0_1_1438)">
<path d="M15.7883 9.04064V0.000801086C19.8435 2.29632 23.8985 4.59168 27.9535 6.8872C29.6006 7.81952 30.59 9.38928 30.59 11.0701V20.1101C26.5349 17.8146 22.4799 15.519 18.4249 13.2237C16.7778 12.2912 15.7883 10.7216 15.7883 9.04064Z" fill="#00A74A"/>
<path d="M0 11.0705V20.1103C4.05503 17.8146 8.11006 15.5193 12.1651 13.2239C13.8123 12.2914 14.8017 10.7217 14.8017 9.04086V0.00102234C10.7465 2.29654 6.69145 4.5919 2.63642 6.88742C0.989334 7.81974 0 9.3895 0 11.0705Z" fill="#00A74A"/>
<path d="M14.8017 22.9594V31.999C10.7465 29.7037 6.69145 27.4082 2.63642 25.1128C0.989334 24.1803 0 22.6107 0 20.9298V11.8899C4.05503 14.1854 8.11006 16.4808 12.1651 18.7763C13.8123 19.7088 14.8017 21.2784 14.8017 22.9594Z" fill="#0085BF"/>
<path d="M30.5896 20.9298V11.8899C26.5346 14.1855 22.4795 16.4808 18.4245 18.7763C16.7774 19.7087 15.7881 21.2784 15.7881 22.9592V31.9992C19.8431 29.7037 23.8981 27.4083 27.9532 25.1128C29.6003 24.1803 30.5896 22.6107 30.5896 20.9298Z" fill="#0085BF"/>
<path d="M107.957 25.175H110.702C112.442 25.175 113.861 23.748 113.861 21.9984V20.6954H117.699C118.638 20.6954 119.524 20.5376 120.351 20.2277C121.178 19.9178 121.912 19.4674 122.547 18.8738C123.182 18.2806 123.679 17.5606 124.041 16.7106C124.403 15.8605 124.596 14.8938 124.596 13.8142C124.596 12.6222 124.403 11.583 124.041 10.7062C123.679 9.82976 123.181 9.10144 122.547 8.52928C121.911 7.95552 121.179 7.52416 120.351 7.24304C119.525 6.96256 118.637 6.82496 117.699 6.82496H111.117C109.376 6.82496 107.957 8.252 107.957 10.0014V25.175ZM69.4111 16.0269C69.4111 17.3762 69.6555 18.6229 70.1223 19.7645C70.5901 20.9078 71.2471 21.9029 72.09 22.7507C72.9333 23.5987 73.9233 24.2595 75.0599 24.7299C76.1953 25.1994 77.4348 25.445 78.7767 25.445C80.132 25.445 81.3808 25.2003 82.5245 24.7299C83.6662 24.2603 84.6626 23.5966 85.5078 22.7507C86.3576 21.9011 87.0169 20.9078 87.4845 19.7645C87.9517 18.6229 88.1959 17.3762 88.1959 16.0269C88.1959 14.6643 87.9525 13.4083 87.4845 12.2581C87.0177 11.1101 86.3553 10.1106 85.5078 9.25808C84.6603 8.40592 83.6662 7.73984 82.5245 7.27008C81.3808 6.79984 80.132 6.55504 78.7767 6.55504C77.4348 6.55504 76.1953 6.80064 75.0599 7.27008C73.9233 7.74032 72.9353 8.40352 72.09 9.25808C71.2493 10.1082 70.5893 11.1101 70.1223 12.2581C69.6547 13.4083 69.4111 14.6643 69.4111 16.0269ZM75.1538 16.0269C75.1538 15.4782 75.2458 14.9666 75.422 14.4976C75.5993 14.0266 75.8485 13.6173 76.1692 13.2653C76.4922 12.9114 76.8771 12.6384 77.3188 12.4424C77.7581 12.2472 78.2446 12.1411 78.7767 12.1411C79.3223 12.1411 79.8179 12.2464 80.2615 12.4424C80.7033 12.6376 81.0823 12.9123 81.4021 13.2653C81.7216 13.6184 81.9695 14.0259 82.1401 14.4976C82.3092 14.9658 82.3996 15.4782 82.3996 16.0269C82.3996 16.5624 82.3098 17.0618 82.1401 17.5246C81.97 17.988 81.724 18.3926 81.4021 18.7435C81.0845 19.0898 80.7049 19.3661 80.2615 19.5621C79.8193 19.7571 79.3223 19.859 78.7767 19.859C78.2446 19.859 77.7565 19.7566 77.3188 19.5621C76.8753 19.3654 76.49 19.0907 76.1692 18.7435C75.8461 18.3938 75.5987 17.9872 75.422 17.5246C75.2453 17.061 75.1538 16.5624 75.1538 16.0269ZM69.2205 21.9984V20.0477H59.7747V18.2938H64.1025C65.8425 18.2938 67.2617 16.8667 67.2617 15.1171V13.5714H59.7747V11.9522H66.0617C67.8014 11.9522 69.2205 10.5253 69.2205 8.77536V6.82496H57.298C55.5587 6.82496 54.1391 8.25248 54.1391 10.0014V21.9984C54.1391 23.7475 55.5582 25.175 57.298 25.175H66.0617C67.8014 25.175 69.2205 23.748 69.2205 21.9984ZM53.1407 6.82464V8.77536C53.1407 10.5245 51.7208 11.952 49.9816 11.952H44.7683V21.9982C44.7683 23.7472 43.3484 25.175 41.6093 25.175H38.8643V10.0013C38.8643 8.252 40.2835 6.82464 42.0233 6.82464H53.1407ZM116.759 11.9522C117.104 11.9522 117.404 12.0386 117.667 12.1994C117.926 12.3571 118.133 12.5773 118.28 12.8472C118.428 13.117 118.504 13.4229 118.504 13.7603C118.504 14.1064 118.428 14.4131 118.28 14.6869C118.134 14.9568 117.927 15.1693 117.667 15.3254C117.405 15.4834 117.103 15.5683 116.759 15.5683H113.861V11.9522H116.759ZM96.99 12.6541L98.788 18.051H95.192L96.99 12.6541ZM100.479 6.82384H96.442C94.643 6.82384 93.1114 7.90336 92.4972 9.60352L86.8732 25.175H90.5399C91.93 25.175 93.1104 24.3139 93.5424 22.9853L93.743 22.3686H100.211L100.425 23.0117C100.866 24.3274 102.039 25.175 103.42 25.175H107.107L100.479 6.82384ZM144.255 25.175H147V6.82496H143.598C142.657 6.82496 141.848 7.1928 141.227 7.9032L136.266 13.5714L131.306 7.9032C130.685 7.1928 129.875 6.82496 128.935 6.82496H125.533V25.175H128.277C130.017 25.175 131.436 23.748 131.436 21.9984V16.1349L136.268 21.3701L141.097 16.1349V21.9984C141.097 23.748 142.516 25.175 144.255 25.175Z" fill="white"/>
</g>
<defs>
<clipPath id="clip0_1_1438">
<rect width="147" height="32" fill="white"/>
</clipPath>
</defs>
</svg>
