<svg width="443" height="464" viewBox="0 0 443 464" fill="none" xmlns="http://www.w3.org/2000/svg">
<path d="M442.997 303.083V172.173C384.274 205.415 325.551 238.656 266.828 271.898C242.975 285.4 228.648 308.132 228.648 332.473V463.386C287.371 430.143 346.094 396.903 404.817 363.66C428.67 350.156 442.997 327.426 442.997 303.083Z" fill="#F3F3F3"/>
<path d="M214.351 332.475V463.383C155.625 430.143 96.9023 396.9 38.1794 363.66C14.3271 350.156 0 327.426 0 303.083V172.173C58.723 205.415 117.446 238.656 176.169 271.898C200.023 285.402 214.351 308.132 214.351 332.475Z" fill="#F3F3F3"/>
<path d="M0 160.306V291.216C58.723 257.971 117.446 224.731 176.169 191.491C200.023 177.987 214.351 155.254 214.351 130.914V0.00341797C155.625 33.246 96.9023 66.4863 38.1794 99.7289C14.3271 113.23 0 135.963 0 160.306Z" fill="#F3F3F3"/>
<path d="M228.648 130.911V0C287.374 33.2426 346.097 66.4829 404.82 99.7255C428.672 113.227 442.999 135.959 442.999 160.3V291.213C384.276 257.97 325.553 224.728 266.83 191.487C242.978 177.984 228.648 155.253 228.648 130.911Z" fill="#F3F3F3"/>
</svg>
