<svg width="50" height="39" viewBox="0 0 50 39" fill="none" xmlns="http://www.w3.org/2000/svg">
<circle cx="23" cy="30" r="9" fill="#0085BF"/>
<circle cx="23" cy="30" r="4" fill="white"/>
<path d="M7.2932 15.2C6.0532 15.2 4.91987 14.8933 3.8932 14.28C2.87987 13.6667 2.0732 12.8133 1.4732 11.72C0.873202 10.6267 0.573202 9.38667 0.573202 8C0.573202 6.61333 0.873202 5.37333 1.4732 4.28C2.0732 3.18667 2.87987 2.33333 3.8932 1.72C4.91987 1.10667 6.0532 0.799999 7.2932 0.799999C8.5332 0.799999 9.66654 1.10667 10.6932 1.72C11.7199 2.33333 12.5332 3.18667 13.1332 4.28C13.7332 5.37333 14.0332 6.61333 14.0332 8C14.0332 9.38667 13.7332 10.6267 13.1332 11.72C12.5332 12.8133 11.7199 13.6667 10.6932 14.28C9.66654 14.8933 8.5332 15.2 7.2932 15.2ZM7.2932 13.2C8.14654 13.2 8.92654 12.9867 9.6332 12.56C10.3399 12.12 10.8999 11.5067 11.3132 10.72C11.7265 9.92 11.9332 9.01333 11.9332 8C11.9332 6.98667 11.7265 6.08667 11.3132 5.3C10.8999 4.5 10.3399 3.88667 9.6332 3.46C8.92654 3.02 8.14654 2.8 7.2932 2.8C6.4532 2.8 5.67987 3.02 4.9732 3.46C4.26654 3.88667 3.70654 4.5 3.2932 5.3C2.87987 6.08667 2.6732 6.98667 2.6732 8C2.6732 9.01333 2.87987 9.92 3.2932 10.72C3.70654 11.5067 4.26654 12.12 4.9732 12.56C5.67987 12.9867 6.4532 13.2 7.2932 13.2ZM22.8652 4.94C23.9186 4.94 24.8386 5.15333 25.6252 5.58C26.4252 5.99333 27.0386 6.58 27.4652 7.34C27.8919 8.08667 28.1052 8.96 28.1052 9.96C28.1052 10.96 27.8919 11.84 27.4652 12.6C27.0386 13.36 26.4252 13.9533 25.6252 14.38C24.8386 14.7933 23.9186 15 22.8652 15H22.6652V19H20.6852V15H20.4652C19.4119 15 18.4852 14.7933 17.6852 14.38C16.8986 13.9533 16.2919 13.36 15.8652 12.6C15.4386 11.84 15.2252 10.96 15.2252 9.96C15.2252 8.96 15.4386 8.08667 15.8652 7.34C16.2919 6.58 16.8986 5.99333 17.6852 5.58C18.4852 5.15333 19.4119 4.94 20.4652 4.94H20.6852V0.999999H22.6652V4.94H22.8652ZM20.6852 13.16V6.78H20.4452C19.4319 6.78 18.6386 7.06667 18.0652 7.64C17.5052 8.2 17.2252 8.97333 17.2252 9.96C17.2252 10.9467 17.5052 11.7267 18.0652 12.3C18.6386 12.8733 19.4319 13.16 20.4452 13.16H20.6852ZM22.8852 13.16C23.9119 13.16 24.7052 12.8733 25.2652 12.3C25.8386 11.7267 26.1252 10.9467 26.1252 9.96C26.1252 8.97333 25.8386 8.2 25.2652 7.64C24.7052 7.06667 23.9119 6.78 22.8852 6.78H22.6652V13.16H22.8852ZM32.6245 15H29.7045V4.94H31.6645V12.24H32.0645L35.5045 4.94H38.4045V15H36.4445V7.7H36.0445L32.6245 15ZM45.0912 15.2C44.1578 15.2 43.3112 14.98 42.5512 14.54C41.7912 14.0867 41.1912 13.4667 40.7512 12.68C40.3245 11.88 40.1112 10.9733 40.1112 9.96C40.1112 8.96 40.3245 8.06667 40.7512 7.28C41.1912 6.48 41.7912 5.86 42.5512 5.42C43.3112 4.96667 44.1578 4.74 45.0912 4.74C46.3045 4.74 47.3178 5.08 48.1312 5.76C48.9445 6.44 49.4712 7.31333 49.7112 8.38H47.7112C47.5378 7.82 47.2245 7.38 46.7712 7.06C46.3178 6.74 45.7578 6.58 45.0912 6.58C44.5445 6.58 44.0445 6.72 43.5912 7C43.1378 7.28 42.7778 7.68 42.5112 8.2C42.2445 8.70667 42.1112 9.29333 42.1112 9.96C42.1112 10.6267 42.2445 11.22 42.5112 11.74C42.7778 12.26 43.1378 12.66 43.5912 12.94C44.0445 13.22 44.5445 13.36 45.0912 13.36C45.7578 13.36 46.3178 13.1933 46.7712 12.86C47.2245 12.5267 47.5378 12.0667 47.7112 11.48H49.7112C49.4712 12.5733 48.9445 13.4667 48.1312 14.16C47.3178 14.8533 46.3045 15.2 45.0912 15.2Z" fill="#0085BF"/>
</svg>
