<svg width="128" height="40" viewBox="0 0 128 40" fill="none" xmlns="http://www.w3.org/2000/svg">
<circle cx="64" cy="31" r="9" fill="#0085BF"/>
<circle cx="64" cy="31" r="4" fill="white"/>
<path d="M3.04312 14H0.943122V-9.53674e-07H12.1231V14H10.0231V2H3.04312V14ZM14.6009 18V3.94H16.3009L16.5009 5.22H16.6009C17.3743 4.23333 18.4143 3.74 19.7209 3.74C20.5876 3.74 21.3743 3.96 22.0809 4.4C22.7876 4.84 23.3409 5.46 23.7409 6.26C24.1543 7.04667 24.3609 7.94667 24.3609 8.96C24.3609 9.97333 24.1543 10.88 23.7409 11.68C23.3409 12.48 22.7876 13.1 22.0809 13.54C21.3743 13.98 20.5876 14.2 19.7209 14.2C19.0543 14.2 18.4676 14.0733 17.9609 13.82C17.4543 13.5667 17.0276 13.22 16.6809 12.78H16.5809V18H14.6009ZM19.4809 12.36C20.0009 12.36 20.4809 12.22 20.9209 11.94C21.3743 11.66 21.7276 11.26 21.9809 10.74C22.2476 10.22 22.3809 9.62667 22.3809 8.96C22.3809 8.29333 22.2476 7.70667 21.9809 7.2C21.7276 6.68 21.3743 6.28 20.9209 6C20.4809 5.72 20.0009 5.58 19.4809 5.58C18.9609 5.58 18.4743 5.72 18.0209 6C17.5809 6.28 17.2276 6.68 16.9609 7.2C16.7076 7.70667 16.5809 8.29333 16.5809 8.96C16.5809 9.62667 16.7076 10.22 16.9609 10.74C17.2276 11.26 17.5809 11.66 18.0209 11.94C18.4743 12.22 18.9609 12.36 19.4809 12.36ZM30.4564 14.2C29.5231 14.2 28.6764 13.98 27.9164 13.54C27.1564 13.0867 26.5564 12.4667 26.1164 11.68C25.6897 10.88 25.4764 9.97333 25.4764 8.96C25.4764 7.96 25.6897 7.06667 26.1164 6.28C26.5564 5.48 27.1564 4.86 27.9164 4.42C28.6764 3.96667 29.5231 3.74 30.4564 3.74C31.3897 3.74 32.2297 3.96667 32.9764 4.42C33.7364 4.86 34.3297 5.48 34.7564 6.28C35.1964 7.06667 35.4164 7.96 35.4164 8.96C35.4164 9.97333 35.1964 10.88 34.7564 11.68C34.3297 12.4667 33.7364 13.0867 32.9764 13.54C32.2297 13.98 31.3897 14.2 30.4564 14.2ZM30.4564 12.36C31.0031 12.36 31.5031 12.22 31.9564 11.94C32.4231 11.66 32.7897 11.26 33.0564 10.74C33.3231 10.22 33.4564 9.62667 33.4564 8.96C33.4564 8.29333 33.3231 7.70667 33.0564 7.2C32.7897 6.68 32.4231 6.28 31.9564 6C31.5031 5.72 31.0031 5.58 30.4564 5.58C29.9097 5.58 29.4031 5.72 28.9364 6C28.4831 6.28 28.1231 6.68 27.8564 7.2C27.5897 7.70667 27.4564 8.29333 27.4564 8.96C27.4564 9.62667 27.5897 10.22 27.8564 10.74C28.1231 11.26 28.4831 11.66 28.9364 11.94C29.4031 12.22 29.9097 12.36 30.4564 12.36ZM40.0608 14H37.1408V3.94H39.1008V11.24H39.5008L42.9408 3.94H45.8408V14H43.8808V6.7H43.4808L40.0608 14ZM51.4875 14.2C50.6475 14.2 49.9142 14.0467 49.2875 13.74C48.6608 13.4333 48.1808 13.02 47.8475 12.5C47.5142 11.98 47.3475 11.4067 47.3475 10.78H49.3275C49.3275 11.2467 49.5208 11.6467 49.9075 11.98C50.3075 12.3133 50.8342 12.48 51.4875 12.48C52.2208 12.48 52.7608 12.3533 53.1075 12.1C53.4675 11.8333 53.6475 11.4867 53.6475 11.06C53.6475 10.66 53.4675 10.3333 53.1075 10.08C52.7608 9.81333 52.2542 9.68 51.5875 9.68H50.6075V8.16H51.5875C52.1875 8.16 52.6475 8.02667 52.9675 7.76C53.2875 7.49333 53.4475 7.15333 53.4475 6.74C53.4475 6.36667 53.2742 6.05333 52.9275 5.8C52.5942 5.54667 52.1142 5.42 51.4875 5.42C50.8742 5.42 50.3875 5.57333 50.0275 5.88C49.6675 6.18667 49.4875 6.56667 49.4875 7.02H47.5275C47.5275 6.42 47.6875 5.87333 48.0075 5.38C48.3408 4.87333 48.8075 4.47333 49.4075 4.18C50.0208 3.88667 50.7142 3.74 51.4875 3.74C52.3142 3.74 53.0208 3.87333 53.6075 4.14C54.2075 4.40667 54.6608 4.77333 54.9675 5.24C55.2742 5.69333 55.4275 6.19333 55.4275 6.74C55.4275 7.27333 55.2675 7.72667 54.9475 8.1C54.6408 8.47333 54.2942 8.72 53.9075 8.84V8.94C54.3475 9.06 54.7408 9.31333 55.0875 9.7C55.4475 10.0867 55.6275 10.5733 55.6275 11.16C55.6275 11.7333 55.4675 12.2533 55.1475 12.72C54.8275 13.1733 54.3542 13.5333 53.7275 13.8C53.1008 14.0667 52.3542 14.2 51.4875 14.2ZM57.3369 14V3.94H62.7569C63.6369 3.94 64.3435 4.2 64.8769 4.72C65.4102 5.24 65.6769 5.92 65.6769 6.76C65.6769 7.26667 65.5502 7.70667 65.2969 8.08C65.0569 8.44 64.7835 8.69333 64.4769 8.84V8.94C64.8369 9.08667 65.1569 9.35333 65.4369 9.74C65.7302 10.1267 65.8769 10.6 65.8769 11.16C65.8769 11.6933 65.7502 12.18 65.4969 12.62C65.2435 13.0467 64.8969 13.3867 64.4569 13.64C64.0169 13.88 63.5169 14 62.9569 14H57.3369ZM62.3569 8.14C62.7302 8.14 63.0435 8.02 63.2969 7.78C63.5502 7.52667 63.6769 7.20667 63.6769 6.82C63.6769 6.43333 63.5502 6.12 63.2969 5.88C63.0435 5.64 62.7302 5.52 62.3569 5.52H59.3169V8.14H62.3569ZM62.5369 12.42C62.9102 12.42 63.2235 12.2933 63.4769 12.04C63.7435 11.7867 63.8769 11.46 63.8769 11.06C63.8769 10.66 63.7435 10.3333 63.4769 10.08C63.2235 9.82667 62.9102 9.7 62.5369 9.7H59.3169V12.42H62.5369ZM72.0009 14.2C71.0676 14.2 70.2209 13.98 69.4609 13.54C68.7009 13.0867 68.1009 12.4667 67.6609 11.68C67.2343 10.88 67.0209 9.97333 67.0209 8.96C67.0209 7.96 67.2343 7.06667 67.6609 6.28C68.1009 5.48 68.7009 4.86 69.4609 4.42C70.2209 3.96667 71.0676 3.74 72.0009 3.74C72.9343 3.74 73.7743 3.96667 74.5209 4.42C75.2809 4.86 75.8743 5.48 76.3009 6.28C76.7409 7.06667 76.9609 7.96 76.9609 8.96C76.9609 9.97333 76.7409 10.88 76.3009 11.68C75.8743 12.4667 75.2809 13.0867 74.5209 13.54C73.7743 13.98 72.9343 14.2 72.0009 14.2ZM72.0009 12.36C72.5476 12.36 73.0476 12.22 73.5009 11.94C73.9676 11.66 74.3343 11.26 74.6009 10.74C74.8676 10.22 75.0009 9.62667 75.0009 8.96C75.0009 8.29333 74.8676 7.70667 74.6009 7.2C74.3343 6.68 73.9676 6.28 73.5009 6C73.0476 5.72 72.5476 5.58 72.0009 5.58C71.4543 5.58 70.9476 5.72 70.4809 6C70.0276 6.28 69.6676 6.68 69.4009 7.2C69.1343 7.70667 69.0009 8.29333 69.0009 8.96C69.0009 9.62667 69.1343 10.22 69.4009 10.74C69.6676 11.26 70.0276 11.66 70.4809 11.94C70.9476 12.22 71.4543 12.36 72.0009 12.36ZM77.19 16.4V12.14H77.35C77.8033 12.14 78.1367 12.0333 78.35 11.82C78.5767 11.5933 78.71 11.2333 78.75 10.74L79.33 3.94H86.47V12.14H87.87V16.4H85.89V14H79.15V16.4H77.19ZM84.49 12.14V5.78H81.17L80.71 10.78C80.6833 11.14 80.6167 11.44 80.51 11.68C80.4033 11.92 80.29 12.0733 80.17 12.14H84.49ZM93.5642 14.2C92.6309 14.2 91.7842 13.98 91.0242 13.54C90.2642 13.0867 89.6642 12.4667 89.2242 11.68C88.7976 10.88 88.5842 9.97333 88.5842 8.96C88.5842 7.96 88.7976 7.06667 89.2242 6.28C89.6642 5.48 90.2642 4.86 91.0242 4.42C91.7842 3.96667 92.6309 3.74 93.5642 3.74C94.7776 3.74 95.7909 4.08 96.6042 4.76C97.4176 5.44 97.9442 6.31333 98.1842 7.38H96.1842C96.0109 6.82 95.6976 6.38 95.2442 6.06C94.7909 5.74 94.2309 5.58 93.5642 5.58C93.0176 5.58 92.5176 5.72 92.0642 6C91.6109 6.28 91.2509 6.68 90.9842 7.2C90.7176 7.70667 90.5842 8.29333 90.5842 8.96C90.5842 9.62667 90.7176 10.22 90.9842 10.74C91.2509 11.26 91.6109 11.66 92.0642 11.94C92.5176 12.22 93.0176 12.36 93.5642 12.36C94.2309 12.36 94.7909 12.1933 95.2442 11.86C95.6976 11.5267 96.0109 11.0667 96.1842 10.48H98.1842C97.9442 11.5733 97.4176 12.4667 96.6042 13.16C95.7909 13.8533 94.7776 14.2 93.5642 14.2ZM103.649 14H101.669V5.78H98.3492V3.94H106.949V5.78H103.649V14ZM108.188 14V3.94H113.608C114.488 3.94 115.195 4.2 115.728 4.72C116.262 5.24 116.528 5.92 116.528 6.76C116.528 7.26667 116.402 7.70667 116.148 8.08C115.908 8.44 115.635 8.69333 115.328 8.84V8.94C115.688 9.08667 116.008 9.35333 116.288 9.74C116.582 10.1267 116.728 10.6 116.728 11.16C116.728 11.6933 116.602 12.18 116.348 12.62C116.095 13.0467 115.748 13.3867 115.308 13.64C114.868 13.88 114.368 14 113.808 14H108.188ZM113.208 8.14C113.582 8.14 113.895 8.02 114.148 7.78C114.402 7.52667 114.528 7.20667 114.528 6.82C114.528 6.43333 114.402 6.12 114.148 5.88C113.895 5.64 113.582 5.52 113.208 5.52H110.168V8.14H113.208ZM113.388 12.42C113.762 12.42 114.075 12.2933 114.328 12.04C114.595 11.7867 114.728 11.46 114.728 11.06C114.728 10.66 114.595 10.3333 114.328 10.08C114.075 9.82667 113.762 9.7 113.388 9.7H110.168V12.42H113.388ZM122.852 14.2C121.919 14.2 121.072 13.98 120.312 13.54C119.552 13.0867 118.952 12.4667 118.512 11.68C118.086 10.88 117.872 9.97333 117.872 8.96C117.872 7.96 118.086 7.06667 118.512 6.28C118.952 5.48 119.552 4.86 120.312 4.42C121.072 3.96667 121.919 3.74 122.852 3.74C123.786 3.74 124.626 3.96667 125.372 4.42C126.132 4.86 126.726 5.48 127.152 6.28C127.592 7.06667 127.812 7.96 127.812 8.96C127.812 9.97333 127.592 10.88 127.152 11.68C126.726 12.4667 126.132 13.0867 125.372 13.54C124.626 13.98 123.786 14.2 122.852 14.2ZM122.852 12.36C123.399 12.36 123.899 12.22 124.352 11.94C124.819 11.66 125.186 11.26 125.452 10.74C125.719 10.22 125.852 9.62667 125.852 8.96C125.852 8.29333 125.719 7.70667 125.452 7.2C125.186 6.68 124.819 6.28 124.352 6C123.899 5.72 123.399 5.58 122.852 5.58C122.306 5.58 121.799 5.72 121.332 6C120.879 6.28 120.519 6.68 120.252 7.2C119.986 7.70667 119.852 8.29333 119.852 8.96C119.852 9.62667 119.986 10.22 120.252 10.74C120.519 11.26 120.879 11.66 121.332 11.94C121.799 12.22 122.306 12.36 122.852 12.36Z" fill="#0085BF"/>
</svg>
