<svg width="15" height="18" viewBox="0 0 15 18" fill="none" xmlns="http://www.w3.org/2000/svg">
<mask id="path-1-outside-1_786_13393" maskUnits="userSpaceOnUse" x="0" y="-0.000244141" width="15" height="18" fill="black">
<rect fill="white" y="-0.000244141" width="15" height="18"/>
<path fill-rule="evenodd" clip-rule="evenodd" d="M4.67317 1.69694C5.12678 1.59392 5.57829 1.90727 5.64631 2.34238L6.1447 4.79601C6.22018 5.13193 6.14807 5.47765 5.94196 5.8022C5.92072 5.83564 5.85539 5.90011 5.71525 5.99401C5.58332 6.08241 5.42285 6.17288 5.24699 6.27178L5.24025 6.27557C5.07226 6.37003 4.88983 6.47262 4.73371 6.57723C4.64292 6.63806 4.54506 6.70969 4.45929 6.79245C4.33019 6.85048 4.25138 6.98329 4.26048 7.12295C4.2545 7.19776 4.27358 7.27302 4.31488 7.33606C5.00605 9.59897 6.57585 11.4626 8.63263 12.5981C8.76676 12.6722 8.92926 12.6457 9.03335 12.5437C9.15025 12.5042 9.26376 12.4469 9.36347 12.3914C9.52707 12.3003 9.70227 12.1854 9.86451 12.0789L9.87067 12.0749C10.0401 11.9637 10.1958 11.8617 10.3357 11.7839C10.485 11.7008 10.5725 11.6708 10.6106 11.6667C10.957 11.6288 11.3105 11.7419 11.5901 11.9777L11.5989 11.9849C11.8467 12.18 12.1437 12.4114 12.3785 12.5938C12.4959 12.685 12.5979 12.7641 12.6705 12.8203L12.7811 12.9059L12.7921 12.9152L12.8381 12.9534C12.8776 12.9861 12.9343 13.0326 13.0035 13.0883C13.1406 13.1986 13.3279 13.3461 13.5287 13.4945C13.8761 13.7716 13.9397 14.3315 13.6692 14.6642L13.6609 14.6749L12.2781 16.5217L12.274 16.5273L12.2688 16.5348C12.2569 16.5524 12.2481 16.5581 12.2355 16.5632C12.218 16.5704 12.1834 16.5792 12.1187 16.5803C6.32178 16.0533 1.67742 11.1455 1.67742 5.15756C1.67742 4.08328 1.81801 3.05798 2.09803 2.08046L4.64792 1.70168C4.6564 1.70042 4.66482 1.69884 4.67317 1.69694ZM8.79186 11.9098C8.83905 11.8966 8.91782 11.8642 9.03398 11.7995C9.17389 11.7216 9.32967 11.6196 9.49906 11.5085L9.50518 11.5045C9.66743 11.398 9.84265 11.283 10.0063 11.192C10.1626 11.1049 10.3529 11.0134 10.537 10.9933C11.0775 10.9341 11.611 11.1112 12.0223 11.456C12.2675 11.649 12.561 11.8778 12.7941 12.0588C12.9112 12.1498 13.0129 12.2287 13.0854 12.2848L13.2004 12.3739L13.2069 12.379L13.2121 12.3833L13.2155 12.3862L13.2265 12.3954L13.2697 12.4313C13.3073 12.4624 13.3617 12.507 13.4284 12.5606C13.5619 12.6681 13.7431 12.8108 13.9356 12.9529L13.944 12.9593C14.5792 13.4593 14.7128 14.4476 14.1994 15.0859L12.8246 16.9221C12.6372 17.1925 12.3574 17.2578 12.1048 17.2578C12.0947 17.2578 12.0846 17.2574 12.0746 17.2565C5.92775 16.7066 1 11.5088 1 5.15756C1 4.00943 1.15223 2.9083 1.4579 1.85542C1.46381 1.83508 1.47161 1.81533 1.48121 1.79644L1.48541 1.78813L1.48541 1.78813C1.50671 1.74595 1.5475 1.66516 1.60495 1.59732C1.67187 1.5183 1.78515 1.42823 1.9489 1.41776L4.5365 1.03337C5.35974 0.854371 6.18133 1.40998 6.3143 2.22961C6.3624 2.46583 6.41046 2.6787 6.44715 2.84121L6.44767 2.84349C6.46577 2.92365 6.48158 2.99369 6.49284 3.04671C6.49849 3.07334 6.50364 3.09866 6.50751 3.12036L6.5078 3.12201L6.50781 3.12203C6.50933 3.13048 6.51266 3.14904 6.51491 3.17138L6.51892 3.19473L6.53752 3.30124C6.55357 3.39226 6.57652 3.52023 6.60405 3.66775C6.65932 3.96389 6.73228 4.33453 6.80457 4.64282L6.80521 4.64554C6.92681 5.18405 6.80128 5.71271 6.5138 6.16537C6.41157 6.32634 6.24232 6.45628 6.09232 6.55678C5.93622 6.66138 5.75381 6.76395 5.58584 6.85841L5.58582 6.85842L5.57904 6.86224C5.40318 6.96113 5.24272 7.0516 5.11079 7.14C5.06209 7.17263 5.02242 7.20171 4.9905 7.22716C5.62191 9.21216 6.99141 10.8636 8.79186 11.9098Z"/>
</mask>
<path fill-rule="evenodd" clip-rule="evenodd" d="M4.67317 1.69694C5.12678 1.59392 5.57829 1.90727 5.64631 2.34238L6.1447 4.79601C6.22018 5.13193 6.14807 5.47765 5.94196 5.8022C5.92072 5.83564 5.85539 5.90011 5.71525 5.99401C5.58332 6.08241 5.42285 6.17288 5.24699 6.27178L5.24025 6.27557C5.07226 6.37003 4.88983 6.47262 4.73371 6.57723C4.64292 6.63806 4.54506 6.70969 4.45929 6.79245C4.33019 6.85048 4.25138 6.98329 4.26048 7.12295C4.2545 7.19776 4.27358 7.27302 4.31488 7.33606C5.00605 9.59897 6.57585 11.4626 8.63263 12.5981C8.76676 12.6722 8.92926 12.6457 9.03335 12.5437C9.15025 12.5042 9.26376 12.4469 9.36347 12.3914C9.52707 12.3003 9.70227 12.1854 9.86451 12.0789L9.87067 12.0749C10.0401 11.9637 10.1958 11.8617 10.3357 11.7839C10.485 11.7008 10.5725 11.6708 10.6106 11.6667C10.957 11.6288 11.3105 11.7419 11.5901 11.9777L11.5989 11.9849C11.8467 12.18 12.1437 12.4114 12.3785 12.5938C12.4959 12.685 12.5979 12.7641 12.6705 12.8203L12.7811 12.9059L12.7921 12.9152L12.8381 12.9534C12.8776 12.9861 12.9343 13.0326 13.0035 13.0883C13.1406 13.1986 13.3279 13.3461 13.5287 13.4945C13.8761 13.7716 13.9397 14.3315 13.6692 14.6642L13.6609 14.6749L12.2781 16.5217L12.274 16.5273L12.2688 16.5348C12.2569 16.5524 12.2481 16.5581 12.2355 16.5632C12.218 16.5704 12.1834 16.5792 12.1187 16.5803C6.32178 16.0533 1.67742 11.1455 1.67742 5.15756C1.67742 4.08328 1.81801 3.05798 2.09803 2.08046L4.64792 1.70168C4.6564 1.70042 4.66482 1.69884 4.67317 1.69694ZM8.79186 11.9098C8.83905 11.8966 8.91782 11.8642 9.03398 11.7995C9.17389 11.7216 9.32967 11.6196 9.49906 11.5085L9.50518 11.5045C9.66743 11.398 9.84265 11.283 10.0063 11.192C10.1626 11.1049 10.3529 11.0134 10.537 10.9933C11.0775 10.9341 11.611 11.1112 12.0223 11.456C12.2675 11.649 12.561 11.8778 12.7941 12.0588C12.9112 12.1498 13.0129 12.2287 13.0854 12.2848L13.2004 12.3739L13.2069 12.379L13.2121 12.3833L13.2155 12.3862L13.2265 12.3954L13.2697 12.4313C13.3073 12.4624 13.3617 12.507 13.4284 12.5606C13.5619 12.6681 13.7431 12.8108 13.9356 12.9529L13.944 12.9593C14.5792 13.4593 14.7128 14.4476 14.1994 15.0859L12.8246 16.9221C12.6372 17.1925 12.3574 17.2578 12.1048 17.2578C12.0947 17.2578 12.0846 17.2574 12.0746 17.2565C5.92775 16.7066 1 11.5088 1 5.15756C1 4.00943 1.15223 2.9083 1.4579 1.85542C1.46381 1.83508 1.47161 1.81533 1.48121 1.79644L1.48541 1.78813L1.48541 1.78813C1.50671 1.74595 1.5475 1.66516 1.60495 1.59732C1.67187 1.5183 1.78515 1.42823 1.9489 1.41776L4.5365 1.03337C5.35974 0.854371 6.18133 1.40998 6.3143 2.22961C6.3624 2.46583 6.41046 2.6787 6.44715 2.84121L6.44767 2.84349C6.46577 2.92365 6.48158 2.99369 6.49284 3.04671C6.49849 3.07334 6.50364 3.09866 6.50751 3.12036L6.5078 3.12201L6.50781 3.12203C6.50933 3.13048 6.51266 3.14904 6.51491 3.17138L6.51892 3.19473L6.53752 3.30124C6.55357 3.39226 6.57652 3.52023 6.60405 3.66775C6.65932 3.96389 6.73228 4.33453 6.80457 4.64282L6.80521 4.64554C6.92681 5.18405 6.80128 5.71271 6.5138 6.16537C6.41157 6.32634 6.24232 6.45628 6.09232 6.55678C5.93622 6.66138 5.75381 6.76395 5.58584 6.85841L5.58582 6.85842L5.57904 6.86224C5.40318 6.96113 5.24272 7.0516 5.11079 7.14C5.06209 7.17263 5.02242 7.20171 4.9905 7.22716C5.62191 9.21216 6.99141 10.8636 8.79186 11.9098Z" fill="white"/>
<path d="M5.9977 4.82587C6.01419 4.90705 6.09337 4.9595 6.17456 4.94301C6.25574 4.92652 6.30819 4.84733 6.2917 4.76615L5.9977 4.82587ZM5.64631 2.34238L5.7933 2.31252C5.77708 2.23264 5.70002 2.18033 5.61979 2.19475C5.53955 2.20916 5.48552 2.28501 5.4981 2.36555L5.64631 2.34238ZM5.50203 2.3874C5.51853 2.46858 5.59772 2.52102 5.6789 2.50452C5.76008 2.48802 5.81252 2.40883 5.79602 2.32765L5.50203 2.3874ZM6.2917 4.76615L5.7933 2.31252L5.49931 2.37224L5.9977 4.82587L6.2917 4.76615ZM5.4981 2.36555C5.49925 2.37286 5.50056 2.38014 5.50203 2.3874L5.79602 2.32765C5.79545 2.32485 5.79495 2.32204 5.79451 2.31922L5.4981 2.36555ZM5.64631 2.34238L5.3496 2.38877L5.35231 2.4021L5.64631 2.34238ZM4.67317 1.69694L4.60673 1.40439L4.60672 1.40439L4.67317 1.69694ZM6.1447 4.79601L5.85064 4.85574L5.85199 4.86178L6.1447 4.79601ZM5.94196 5.8022L6.1952 5.96304L6.1952 5.96304L5.94196 5.8022ZM5.71525 5.99401L5.88224 6.24324L5.88224 6.24324L5.71525 5.99401ZM5.24699 6.27178L5.09994 6.01029L5.09994 6.01029L5.24699 6.27178ZM5.24025 6.27557L5.38729 6.53706L5.3873 6.53706L5.24025 6.27557ZM4.73371 6.57723L4.9007 6.82646L4.9007 6.82646L4.73371 6.57723ZM4.45929 6.79245L4.58229 7.06608C4.61384 7.05189 4.64271 7.03236 4.6676 7.00833L4.45929 6.79245ZM4.26048 7.12295L4.55952 7.14684C4.56068 7.1324 4.56078 7.1179 4.55984 7.10344L4.26048 7.12295ZM4.31488 7.33606L4.6018 7.24843C4.5935 7.22126 4.58139 7.19541 4.56582 7.17165L4.31488 7.33606ZM8.63263 12.5981L8.77763 12.3355L8.77762 12.3355L8.63263 12.5981ZM9.03335 12.5437L8.93736 12.2595C8.89459 12.2739 8.85563 12.2978 8.82339 12.3294L9.03335 12.5437ZM9.36347 12.3914L9.21755 12.1293L9.36347 12.3914ZM9.86451 12.0789L9.69999 11.828L9.69994 11.8281L9.86451 12.0789ZM9.87067 12.0749L10.0352 12.3257L10.0352 12.3257L9.87067 12.0749ZM10.3357 11.7839L10.1898 11.5217H10.1898L10.3357 11.7839ZM10.6106 11.6667L10.578 11.3684H10.578L10.6106 11.6667ZM11.5901 11.9777L11.3966 12.207L11.4005 12.2102L11.5901 11.9777ZM11.5989 11.9849L11.4094 12.2175L11.4133 12.2206L11.5989 11.9849ZM12.3785 12.5938L12.1944 12.8307L12.1944 12.8307L12.3785 12.5938ZM12.6705 12.8203L12.4868 13.0575L12.4869 13.0576L12.6705 12.8203ZM12.7811 12.9059L12.9738 12.6758L12.9647 12.6687L12.7811 12.9059ZM12.7921 12.9152L12.5995 13.1452L12.6004 13.146L12.7921 12.9152ZM12.8381 12.9534L12.6464 13.1841L12.6469 13.1846L12.8381 12.9534ZM13.0035 13.0883L13.1917 12.8546L13.0035 13.0883ZM13.5287 13.4945L13.7159 13.2598L13.7069 13.2532L13.5287 13.4945ZM13.6692 14.6642L13.4364 14.4749L13.4327 14.4797L13.6692 14.6642ZM13.6609 14.6749L13.4243 14.4903L13.4207 14.4951L13.6609 14.6749ZM12.2781 16.5217L12.0379 16.3419L12.0361 16.3444L12.2781 16.5217ZM12.274 16.5273L12.0319 16.35L12.0279 16.3558L12.274 16.5273ZM12.2688 16.5348L12.0227 16.3632L12.0204 16.3665L12.2688 16.5348ZM12.2355 16.5632L12.3493 16.8408L12.3493 16.8408L12.2355 16.5632ZM12.1187 16.5803L12.0915 16.8791C12.1023 16.8801 12.1131 16.8805 12.1239 16.8803L12.1187 16.5803ZM2.09803 2.08046L2.05395 1.78371C1.93756 1.801 1.84203 1.88473 1.80963 1.99784L2.09803 2.08046ZM4.64792 1.70168L4.692 1.99842L4.69201 1.99842L4.64792 1.70168ZM8.79186 11.9098L8.64113 12.1692C8.71113 12.2099 8.7946 12.2205 8.87258 12.1988L8.79186 11.9098ZM9.03398 11.7995L8.88807 11.5374L8.88806 11.5374L9.03398 11.7995ZM9.49906 11.5085L9.33453 11.2576L9.3345 11.2576L9.49906 11.5085ZM9.50518 11.5045L9.66972 11.7553L9.66975 11.7553L9.50518 11.5045ZM10.0063 11.192L9.86034 10.9298L10.0063 11.192ZM10.537 10.9933L10.5696 11.2915H10.5696L10.537 10.9933ZM12.0223 11.456L11.8294 11.686L11.8367 11.6917L12.0223 11.456ZM12.7941 12.0588L12.61 12.2957L12.7941 12.0588ZM13.0854 12.2848L12.9017 12.522L12.9017 12.5221L13.0854 12.2848ZM13.2004 12.3739L13.3864 12.1385L13.384 12.1367L13.2004 12.3739ZM13.2069 12.379L13.3981 12.1477L13.3929 12.1436L13.2069 12.379ZM13.2121 12.3833L13.4051 12.1536L13.4032 12.1521L13.2121 12.3833ZM13.2155 12.3862L13.0224 12.6158L13.0229 12.6162L13.2155 12.3862ZM13.2265 12.3954L13.0339 12.6254L13.0348 12.6261L13.2265 12.3954ZM13.2697 12.4313L13.078 12.662L13.0785 12.6625L13.2697 12.4313ZM13.4284 12.5606L13.2402 12.7943L13.2402 12.7943L13.4284 12.5606ZM13.9356 12.9529L14.1175 12.7143L14.1138 12.7115L13.9356 12.9529ZM13.944 12.9593L14.1296 12.7235L14.1259 12.7207L13.944 12.9593ZM14.1994 15.0859L13.9655 14.8978L13.9592 14.9061L14.1994 15.0859ZM12.8246 16.9221L12.5843 16.7422L12.578 16.7512L12.8246 16.9221ZM12.0746 17.2565L12.1013 16.9577L12.1013 16.9577L12.0746 17.2565ZM1.4579 1.85542L1.746 1.93907L1.746 1.93907L1.4579 1.85542ZM1.48121 1.79644L1.74867 1.93233L1.7489 1.93186L1.48121 1.79644ZM1.48541 1.78813L1.75311 1.92356L1.75374 1.9223L1.48541 1.78813ZM1.48541 1.78813L1.21761 1.65291L1.21708 1.65397L1.48541 1.78813ZM1.60495 1.59732L1.376 1.40345L1.376 1.40345L1.60495 1.59732ZM1.9489 1.41776L1.96806 1.71714C1.9764 1.71661 1.98472 1.71573 1.99298 1.7145L1.9489 1.41776ZM4.5365 1.03337L4.58058 1.33012C4.58717 1.32914 4.59373 1.32794 4.60024 1.32652L4.5365 1.03337ZM6.3143 2.22961L6.01793 2.27769L6.02033 2.28946L6.3143 2.22961ZM6.44715 2.84121L6.15452 2.90729L6.15454 2.90738L6.44715 2.84121ZM6.44767 2.84349L6.7403 2.77741L6.74028 2.77732L6.44767 2.84349ZM6.49284 3.04671L6.7863 2.9844L6.7863 2.9844L6.49284 3.04671ZM6.50751 3.12036L6.21216 3.173L6.21222 3.17331L6.50751 3.12036ZM6.5078 3.12201L6.21245 3.17497L6.21363 3.18084L6.5078 3.12201ZM6.50781 3.12203L6.80315 3.06903L6.80198 3.06319L6.50781 3.12203ZM6.51491 3.17138L6.21643 3.20155C6.21713 3.20846 6.21807 3.21534 6.21924 3.22218L6.51491 3.17138ZM6.51892 3.19473L6.22325 3.24552L6.22339 3.24633L6.51892 3.19473ZM6.53752 3.30124L6.24199 3.35283L6.24208 3.35334L6.53752 3.30124ZM6.60405 3.66775L6.89896 3.61271V3.61271L6.60405 3.66775ZM6.80457 4.64282L7.09665 4.57435L7.09665 4.57433L6.80457 4.64282ZM6.80521 4.64554L7.09785 4.57946L7.09729 4.57707L6.80521 4.64554ZM6.5138 6.16537L6.26055 6.00454V6.00454L6.5138 6.16537ZM6.09232 6.55678L5.92533 6.30756H5.92533L6.09232 6.55678ZM5.58584 6.85841L5.43878 6.59689L5.43468 6.59928L5.58584 6.85841ZM5.58582 6.85842L5.73288 7.11995L5.73699 7.11755L5.58582 6.85842ZM5.57904 6.86224L5.432 6.60074L5.43199 6.60075L5.57904 6.86224ZM5.11079 7.14L5.27778 7.38923L5.27778 7.38922L5.11079 7.14ZM4.9905 7.22716L4.80345 6.99261C4.70623 7.07014 4.66692 7.19961 4.70461 7.3181L4.9905 7.22716ZM5.94271 2.29605C5.84751 1.68707 5.22757 1.26339 4.60673 1.40439L4.73961 1.98949C5.02598 1.92445 5.30906 2.12747 5.34991 2.38872L5.94271 2.29605ZM6.43869 4.73629L5.9403 2.28266L5.35231 2.4021L5.8507 4.85573L6.43869 4.73629ZM6.1952 5.96304C6.43729 5.58184 6.53294 5.15544 6.4374 4.73024L5.85199 4.86178C5.90742 5.10843 5.85885 5.37346 5.68871 5.64137L6.1952 5.96304ZM5.88224 6.24324C6.02588 6.147 6.13783 6.05336 6.1952 5.96304L5.68871 5.64137C5.69617 5.62962 5.70072 5.6254 5.69708 5.62933C5.69424 5.6324 5.68747 5.63928 5.67532 5.64994C5.65089 5.67138 5.61043 5.70313 5.54825 5.74479L5.88224 6.24324ZM5.39404 6.53327C5.56715 6.43592 5.73865 6.33945 5.88224 6.24324L5.54825 5.74479C5.42799 5.82537 5.27855 5.90985 5.09994 6.01029L5.39404 6.53327ZM5.3873 6.53706L5.39404 6.53326L5.09994 6.01029L5.0932 6.01408L5.3873 6.53706ZM4.9007 6.82646C5.04528 6.72958 5.21698 6.63283 5.38729 6.53706L5.0932 6.01408C4.92754 6.10724 4.73438 6.21566 4.56672 6.328L4.9007 6.82646ZM4.6676 7.00833C4.73495 6.94335 4.81621 6.88307 4.9007 6.82646L4.56672 6.328C4.46962 6.39306 4.35518 6.47602 4.25098 6.57656L4.6676 7.00833ZM4.55984 7.10344C4.55883 7.08785 4.56818 7.07242 4.58229 7.06608L4.3363 6.51882C4.09219 6.62854 3.94393 6.87872 3.96111 7.14245L4.55984 7.10344ZM4.56582 7.17165C4.56115 7.16453 4.55883 7.15555 4.55952 7.14684L3.96143 7.09905C3.95017 7.23996 3.986 7.38152 4.06395 7.50048L4.56582 7.17165ZM8.77762 12.3355C6.7856 11.2358 5.26905 9.43305 4.6018 7.24843L4.02797 7.4237C4.74305 9.76489 6.3661 11.6895 8.48764 12.8608L8.77762 12.3355ZM8.82339 12.3294C8.81133 12.3412 8.79257 12.3437 8.77763 12.3355L8.48764 12.8608C8.74096 13.0006 9.04718 12.9502 9.24331 12.758L8.82339 12.3294ZM9.21755 12.1293C9.12395 12.1814 9.02886 12.2286 8.93736 12.2595L9.12934 12.8279C9.27164 12.7799 9.40357 12.7124 9.50939 12.6535L9.21755 12.1293ZM9.69994 11.8281C9.53558 11.9359 9.36983 12.0445 9.21755 12.1293L9.50939 12.6535C9.6843 12.5561 9.86896 12.4348 10.0291 12.3297L9.69994 11.8281ZM9.70615 11.824L9.69999 11.828L10.029 12.3298L10.0352 12.3257L9.70615 11.824ZM10.1898 11.5217C10.0385 11.606 9.87302 11.7145 9.7061 11.824L10.0352 12.3257C10.2071 12.2129 10.3532 12.1175 10.4817 12.046L10.1898 11.5217ZM10.578 11.3684C10.4747 11.3797 10.3412 11.4375 10.1898 11.5217L10.4817 12.046C10.5485 12.0088 10.5964 11.9863 10.6277 11.9736C10.6433 11.9673 10.653 11.9641 10.6575 11.9628C10.6633 11.9611 10.6574 11.9633 10.6432 11.9649L10.578 11.3684ZM11.7835 11.7484C11.4453 11.4631 11.0112 11.3211 10.578 11.3684L10.6432 11.9649C10.9029 11.9365 11.1757 12.0206 11.3966 12.207L11.7835 11.7484ZM11.7885 11.7524L11.7796 11.7451L11.4005 12.2102L11.4094 12.2174L11.7885 11.7524ZM12.5625 12.3569C12.3279 12.1746 12.0315 11.9437 11.7845 11.7492L11.4133 12.2206C11.6619 12.4163 11.9595 12.6482 12.1944 12.8307L12.5625 12.3569ZM12.8542 12.5832C12.7817 12.527 12.6798 12.448 12.5625 12.3569L12.1944 12.8307C12.312 12.922 12.4141 13.0012 12.4868 13.0575L12.8542 12.5832ZM12.9647 12.6687L12.8542 12.5831L12.4869 13.0576L12.5974 13.1431L12.9647 12.6687ZM12.9848 12.6852L12.9737 12.6759L12.5884 13.1359L12.5995 13.1452L12.9848 12.6852ZM13.0298 12.7226L12.9838 12.6845L12.6004 13.146L12.6464 13.1841L13.0298 12.7226ZM13.1917 12.8546C13.1236 12.7998 13.0679 12.7541 13.0292 12.7222L12.6469 13.1846C12.6873 13.218 12.745 13.2653 12.8154 13.3219L13.1917 12.8546ZM13.7069 13.2532C13.5105 13.1081 13.3267 12.9633 13.1917 12.8546L12.8154 13.3219C12.9544 13.4339 13.1452 13.5842 13.3504 13.7358L13.7069 13.2532ZM13.902 14.8535C14.2813 14.3869 14.1891 13.6375 13.7157 13.26L13.3416 13.729C13.5631 13.9057 13.5981 14.276 13.4364 14.475L13.902 14.8535ZM13.8974 14.8594L13.9057 14.8488L13.4327 14.4797L13.4244 14.4903L13.8974 14.8594ZM12.5182 16.7015L13.901 14.8547L13.4207 14.4951L12.0379 16.3419L12.5182 16.7015ZM12.516 16.7047L12.5201 16.6991L12.0361 16.3444L12.032 16.35L12.516 16.7047ZM12.5149 16.7064L12.5201 16.6989L12.0279 16.3558L12.0227 16.3632L12.5149 16.7064ZM12.3493 16.8408C12.3701 16.8323 12.4049 16.8163 12.4415 16.7866C12.4766 16.7581 12.5007 16.7274 12.5172 16.703L12.0204 16.3665C12.025 16.3598 12.0387 16.3407 12.0633 16.3208C12.0894 16.2996 12.1135 16.289 12.1217 16.2857L12.3493 16.8408ZM12.1239 16.8803C12.2107 16.8788 12.2856 16.8669 12.3493 16.8408L12.1217 16.2856C12.137 16.2794 12.1458 16.2781 12.1443 16.2783C12.1429 16.2786 12.1335 16.28 12.1135 16.2804L12.1239 16.8803ZM1.37742 5.15756C1.37742 11.3038 6.14319 16.3383 12.0915 16.8791L12.1459 16.2815C6.50037 15.7683 1.97742 10.9873 1.97742 5.15756H1.37742ZM1.80963 1.99784C1.52153 3.00359 1.37742 4.05678 1.37742 5.15756H1.97742C1.97742 4.10978 2.1145 3.11237 2.38643 2.16307L1.80963 1.99784ZM4.60384 1.40493L2.05395 1.78371L2.14211 2.3772L4.692 1.99842L4.60384 1.40493ZM4.60672 1.40439C4.60578 1.40461 4.60481 1.40479 4.60384 1.40493L4.69201 1.99842C4.70798 1.99605 4.72386 1.99307 4.73961 1.98949L4.60672 1.40439ZM8.87258 12.1988C8.95222 12.1765 9.05439 12.1315 9.1799 12.0616L8.88806 11.5374C8.78125 11.5968 8.72588 11.6168 8.71113 11.6209L8.87258 12.1988ZM9.1799 12.0616C9.33123 11.9774 9.49671 11.8688 9.66363 11.7593L9.3345 11.2576C9.16263 11.3704 9.01655 11.4658 8.88807 11.5374L9.1799 12.0616ZM9.6636 11.7593L9.66972 11.7553L9.34064 11.2536L9.33453 11.2576L9.6636 11.7593ZM9.66975 11.7553C9.83412 11.6474 9.99989 11.5389 10.1522 11.4541L9.86034 10.9298C9.68542 11.0272 9.50074 11.1486 9.34061 11.2536L9.66975 11.7553ZM10.1522 11.4541C10.3049 11.3691 10.4499 11.3046 10.5696 11.2915L10.5044 10.695C10.2559 10.7222 10.0204 10.8408 9.86034 10.9298L10.1522 11.4541ZM10.5696 11.2915C11.0235 11.2418 11.4767 11.3901 11.8295 11.6859L12.215 11.2262C11.7453 10.8323 11.1315 10.6265 10.5044 10.695L10.5696 11.2915ZM11.8367 11.6917C12.0827 11.8854 12.3768 12.1145 12.61 12.2957L12.9781 11.8219C12.7452 11.641 12.4523 11.4127 12.2078 11.2203L11.8367 11.6917ZM12.61 12.2957C12.7273 12.3868 12.8291 12.4658 12.9017 12.522L13.2691 12.0477C13.1968 11.9916 13.0951 11.9128 12.9781 11.8219L12.61 12.2957ZM12.9017 12.5221L13.0167 12.6111L13.384 12.1367L13.269 12.0476L12.9017 12.5221ZM13.0144 12.6093L13.0209 12.6144L13.3929 12.1436L13.3864 12.1385L13.0144 12.6093ZM13.0157 12.6102L13.0209 12.6145L13.4032 12.1521L13.398 12.1478L13.0157 12.6102ZM13.019 12.6129L13.0224 12.6158L13.4085 12.1565L13.4051 12.1536L13.019 12.6129ZM13.0229 12.6162L13.0339 12.6254L13.4191 12.1654L13.4081 12.1561L13.0229 12.6162ZM13.0348 12.6261L13.078 12.662L13.4614 12.2005L13.4182 12.1646L13.0348 12.6261ZM13.0785 12.6625C13.117 12.6943 13.1725 12.7397 13.2402 12.7943L13.6165 12.327C13.551 12.2742 13.4976 12.2304 13.4608 12.2L13.0785 12.6625ZM13.2402 12.7943C13.3758 12.9034 13.5605 13.0489 13.7575 13.1943L14.1138 12.7115C13.9257 12.5727 13.748 12.4328 13.6165 12.327L13.2402 12.7943ZM13.7537 13.1915L13.7621 13.1979L14.1259 12.7207L14.1175 12.7143L13.7537 13.1915ZM13.7584 13.195C14.2674 13.5957 14.3705 14.3945 13.9656 14.8979L14.4332 15.2739C15.055 14.5007 14.8909 13.323 14.1296 12.7236L13.7584 13.195ZM13.9592 14.9061L12.5844 16.7423L13.0647 17.1019L14.4395 15.2657L13.9592 14.9061ZM12.578 16.7512C12.47 16.907 12.3088 16.9578 12.1048 16.9578V17.5578C12.406 17.5578 12.8043 17.478 13.0711 17.093L12.578 16.7512ZM12.1048 16.9578C12.1036 16.9578 12.1025 16.9578 12.1013 16.9577L12.0478 17.5553C12.0667 17.557 12.0857 17.5578 12.1048 17.5578V16.9578ZM12.1013 16.9577C6.10607 16.4213 1.3 11.3504 1.3 5.15756H0.7C0.7 11.6673 5.74943 16.9918 12.0478 17.5553L12.1013 16.9577ZM1.3 5.15756C1.3 4.03627 1.44862 2.96338 1.746 1.93907L1.1698 1.77178C0.855833 2.85321 0.7 3.9826 0.7 5.15756H1.3ZM1.746 1.93907C1.74668 1.93674 1.74757 1.93448 1.74867 1.93233L1.21375 1.66055C1.19565 1.69617 1.18094 1.73341 1.1698 1.77178L1.746 1.93907ZM1.7489 1.93186L1.75311 1.92356L1.21772 1.65271L1.21351 1.66101L1.7489 1.93186ZM1.75374 1.9223L1.75374 1.9223L1.21708 1.65397L1.21708 1.65397L1.75374 1.9223ZM1.75321 1.92335C1.77537 1.87945 1.80218 1.82864 1.83389 1.79119L1.376 1.40345C1.29283 1.50168 1.23804 1.61245 1.21761 1.65291L1.75321 1.92335ZM1.83389 1.79119C1.86834 1.75051 1.91234 1.72071 1.96806 1.71714L1.92975 1.11837C1.65796 1.13576 1.47539 1.28608 1.376 1.40345L1.83389 1.79119ZM1.99298 1.7145L4.58058 1.33012L4.49242 0.736631L1.90482 1.12101L1.99298 1.7145ZM4.60024 1.32652C5.25824 1.18345 5.91319 1.63057 6.01817 2.27765L6.61043 2.18157C6.44946 1.18938 5.46124 0.525291 4.47276 0.740224L4.60024 1.32652ZM6.02033 2.28946C6.06914 2.52916 6.11784 2.74485 6.15452 2.90729L6.73978 2.77513C6.70307 2.61255 6.65566 2.4025 6.60827 2.16975L6.02033 2.28946ZM6.15454 2.90738L6.15506 2.90966L6.74028 2.77732L6.73976 2.77504L6.15454 2.90738ZM6.15503 2.90957C6.17331 2.99048 6.18862 3.05833 6.19938 3.10902L6.7863 2.9844C6.77455 2.92905 6.75823 2.85682 6.7403 2.77741L6.15503 2.90957ZM6.19938 3.10901C6.20481 3.13458 6.20916 3.15614 6.21216 3.173L6.80285 3.06772C6.79812 3.04117 6.79218 3.01209 6.7863 2.9844L6.19938 3.10901ZM6.21222 3.17331L6.21251 3.17496L6.80309 3.06906L6.8028 3.06741L6.21222 3.17331ZM6.21363 3.18084L6.21363 3.18086L6.80198 3.06319L6.80198 3.06317L6.21363 3.18084ZM6.21253 3.17502C6.21379 3.18208 6.21539 3.19124 6.21643 3.20155L6.81339 3.14122C6.80992 3.10683 6.80486 3.07889 6.80309 3.06904L6.21253 3.17502ZM6.21924 3.22218L6.22326 3.24552L6.81459 3.14394L6.81058 3.12059L6.21924 3.22218ZM6.22339 3.24633L6.24199 3.35283L6.83305 3.24965L6.81446 3.14314L6.22339 3.24633ZM6.24208 3.35334C6.25827 3.44513 6.28139 3.5741 6.30914 3.72279L6.89896 3.61271C6.87164 3.46636 6.84888 3.33939 6.83296 3.24914L6.24208 3.35334ZM6.30914 3.72279C6.36467 4.02029 6.43862 4.39627 6.51249 4.71131L7.09665 4.57433C7.02594 4.27279 6.95397 3.90748 6.89896 3.61271L6.30914 3.72279ZM6.51249 4.71128L6.51312 4.714L7.09729 4.57707L7.09665 4.57435L6.51249 4.71128ZM6.51258 4.71162C6.61393 5.16047 6.51219 5.60832 6.26055 6.00454L6.76705 6.3262C7.09037 5.8171 7.23968 5.20763 7.09784 4.57946L6.51258 4.71162ZM6.26055 6.00454C6.19406 6.10924 6.07054 6.21026 5.92533 6.30756L6.25932 6.80601C6.41409 6.7023 6.62907 6.54345 6.76705 6.3262L6.26055 6.00454ZM5.92533 6.30756C5.78077 6.40442 5.60909 6.50116 5.4388 6.59692L5.73289 7.1199C5.89854 7.02675 6.09167 6.91834 6.25932 6.80601L5.92533 6.30756ZM5.43468 6.59928L5.43466 6.59929L5.73699 7.11755L5.737 7.11754L5.43468 6.59928ZM5.43878 6.59693L5.432 6.60074L5.72608 7.12373L5.73287 7.11991L5.43878 6.59693ZM5.43199 6.60075C5.25888 6.6981 5.08739 6.79456 4.94379 6.89077L5.27778 7.38922C5.39804 7.30864 5.54748 7.22417 5.72609 7.12372L5.43199 6.60075ZM4.9438 6.89077C4.88936 6.92725 4.84285 6.96119 4.80345 6.99261L5.17754 7.46171C5.20199 7.44222 5.23481 7.41802 5.27778 7.38923L4.9438 6.89077ZM4.70461 7.3181C5.35969 9.37749 6.77944 11.0874 8.64113 12.1692L8.94258 11.6504C7.20337 10.6398 5.88413 9.04683 5.27638 7.13623L4.70461 7.3181Z" fill="white" mask="url(#path-1-outside-1_786_13393)"/>
</svg>
