<svg width="16" height="16" viewBox="0 0 16 16" fill="none" xmlns="http://www.w3.org/2000/svg">
<path d="M0.922221 7.46721C0.801588 7.58785 0.715984 7.75454 0.715842 7.93853C0.716078 8.30693 1.02531 8.61617 1.39372 8.6164L7.31564 8.61626L7.3155 14.5382C7.31574 14.9066 7.62498 15.2158 7.99338 15.2161C8.36136 15.2158 8.67079 14.9063 8.67107 14.5384L8.67117 8.6165L14.593 8.6164C14.961 8.61612 15.2704 8.30669 15.2707 7.93871C15.2705 7.57031 14.9613 7.26107 14.5929 7.26083L8.67093 7.26097L8.67107 1.33905C8.67083 0.970644 8.3616 0.661409 7.9932 0.661173C7.80921 0.661315 7.64247 0.746965 7.52188 0.867551C7.40125 0.988183 7.31569 1.15483 7.31551 1.33886L7.31541 7.26074L1.39353 7.26084C1.20954 7.26098 1.04285 7.34658 0.922221 7.46721Z" fill="#BFBFBF"/>
</svg>
