<svg width="10" height="16" viewBox="0 0 10 16" fill="none" xmlns="http://www.w3.org/2000/svg">
<path fill-rule="evenodd" clip-rule="evenodd" d="M4.98981 2.76854C5.90539 2.76854 6.65013 3.4872 6.65013 4.37099C6.65013 5.25409 5.90539 5.97321 4.98981 5.97321C4.07496 5.97321 3.3295 5.25409 3.3295 4.37099C3.3295 3.4872 4.07496 2.76854 4.98981 2.76854ZM4.98981 8.24082C2.77838 8.24082 0.97986 6.50497 0.97986 4.37099C0.97986 2.23632 2.77838 0.5 4.98981 0.5C7.20173 0.5 8.99976 2.23632 8.99976 4.37099C8.99976 6.50497 7.20173 8.24082 4.98981 8.24082ZM6.62248 11.4002L8.86414 13.5643C9.32337 14.0066 9.32337 14.7251 8.86414 15.1679C8.4054 15.6107 7.66185 15.6107 7.20359 15.1679L4.99959 13.0413L2.79751 15.1679C2.5679 15.3891 2.26703 15.4998 1.96615 15.4998C1.66576 15.4998 1.36537 15.3891 1.13575 15.1679C0.677008 14.7251 0.677008 14.0071 1.13527 13.5643L3.37718 11.4002C2.56094 11.2207 1.77373 10.9085 1.04866 10.4694C0.49994 10.1354 0.335107 9.43574 0.680847 8.90561C1.02563 8.37478 1.75069 8.21497 2.30037 8.54894C3.94198 9.54575 6.05672 9.54599 7.69928 8.54894C8.24896 8.21497 8.97379 8.37478 9.31929 8.90561C9.66503 9.43528 9.49972 10.1354 8.951 10.4694C8.22593 10.909 7.43872 11.2207 6.62248 11.4002Z" fill="white"/>
</svg>
