<svg width="17" height="15" viewBox="0 0 17 15" fill="none" xmlns="http://www.w3.org/2000/svg">
<path d="M1.7421 6.66934C6.10417 4.72891 9.0129 3.44966 10.4683 2.83159C14.6237 1.06688 15.4872 0.760329 16.05 0.750098C16.1738 0.74798 16.4505 0.779301 16.6298 0.927829C16.7812 1.05324 16.8228 1.22266 16.8428 1.34157C16.8627 1.46047 16.8875 1.73135 16.8678 1.943C16.6426 4.35876 15.6682 10.2212 15.1725 12.9269C14.9628 14.0717 14.5498 14.4556 14.1499 14.4932C13.281 14.5748 12.6212 13.9069 11.7795 13.3436C10.4626 12.4622 9.71859 11.9135 8.44026 11.0534C6.96293 10.0594 7.92062 9.51303 8.76255 8.62019C8.98289 8.38653 12.8115 4.83096 12.8856 4.50842C12.8948 4.46808 12.9034 4.31771 12.8159 4.23831C12.7284 4.15891 12.5993 4.18606 12.5061 4.20765C12.374 4.23826 10.2702 5.65806 6.19458 8.46704C5.59741 8.88572 5.05651 9.08972 4.57188 9.07903C4.03762 9.06724 3.00991 8.7706 2.24592 8.51703C1.30885 8.20603 0.564084 8.0416 0.628937 7.51341C0.662716 7.2383 1.03377 6.95694 1.7421 6.66934Z" fill="white"/>
</svg>
