<svg width="16" height="10" viewBox="0 0 16 10" fill="none" xmlns="http://www.w3.org/2000/svg">
<path fill-rule="evenodd" clip-rule="evenodd" d="M8.78466 9.42255C8.78466 9.42255 9.07343 9.39106 9.22133 9.23512C9.35672 9.09224 9.35202 8.82262 9.35202 8.82262C9.35202 8.82262 9.33402 7.56361 9.92955 7.37771C10.5165 7.19489 11.2701 8.59524 12.0699 9.13372C12.674 9.54084 13.1326 9.45174 13.1326 9.45174L15.2697 9.42255C15.2697 9.42255 16.3872 9.35495 15.8574 8.49231C15.8136 8.42164 15.5483 7.85397 14.2688 6.6879C12.9283 5.4673 13.1083 5.66472 14.722 3.55305C15.7048 2.26715 16.0977 1.48209 15.9748 1.14641C15.8582 0.825317 15.1351 0.910583 15.1351 0.910583L12.7295 0.925177C12.7295 0.925177 12.5511 0.901365 12.4189 0.978949C12.2898 1.055 12.206 1.23244 12.206 1.23244C12.206 1.23244 11.8257 2.22721 11.3178 3.07372C10.2465 4.85892 9.81843 4.9534 9.64313 4.84279C9.23542 4.58392 9.33715 3.80424 9.33715 3.25039C9.33715 1.51973 9.60479 0.798431 8.81675 0.611769C8.55537 0.549548 8.36286 0.508835 7.69377 0.501922C6.83531 0.493472 6.10909 0.504995 5.69746 0.702412C5.42357 0.833767 5.21227 1.1272 5.3414 1.1441C5.50026 1.16484 5.86023 1.23935 6.05118 1.49438C6.29769 1.82392 6.28908 2.56289 6.28908 2.56289C6.28908 2.56289 6.43072 4.60005 5.95805 4.85277C5.63407 5.02638 5.18958 4.67226 4.23407 3.05221C3.74497 2.2226 3.3756 1.30542 3.3756 1.30542C3.3756 1.30542 3.30439 1.13412 3.17683 1.04194C3.02267 0.930555 2.80747 0.895988 2.80747 0.895988L0.521606 0.910583C0.521606 0.910583 0.178063 0.9198 0.0520703 1.06652C-0.0598359 1.19634 0.0434622 1.46596 0.0434622 1.46596C0.0434622 1.46596 1.83318 5.57638 3.86001 7.6481C5.71859 9.54699 7.82837 9.42255 7.82837 9.42255H8.78466Z" fill="white"/>
</svg>
