<svg width="24" height="24" viewBox="0 0 24 24" fill="none" xmlns="http://www.w3.org/2000/svg">
<path d="M23.3377 11.6859C23.3377 11.5723 23.2454 11.4782 23.1318 11.4729C19.0555 11.3185 16.5747 10.7986 14.8391 9.06301C13.1 7.32392 12.5818 4.84125 12.4274 0.756139C12.4239 0.642565 12.3298 0.550293 12.2145 0.550293H11.7389C11.6253 0.550293 11.5312 0.642565 11.5259 0.756139C11.3715 4.83948 10.8533 7.32392 9.11424 9.06301C7.37692 10.8004 4.89781 11.3185 0.821569 11.4729C0.707995 11.4765 0.615723 11.5705 0.615723 11.6859V12.1615C0.615723 12.275 0.707995 12.3691 0.821569 12.3744C4.89781 12.5288 7.37868 13.0488 9.11424 14.7843C10.8498 16.5199 11.368 18.9955 11.5241 23.0645C11.5277 23.1781 11.6217 23.2704 11.7371 23.2704H12.2145C12.328 23.2704 12.4221 23.1781 12.4274 23.0645C12.5836 18.9955 13.1018 16.5199 14.8374 14.7843C16.5747 13.047 19.0537 12.5288 23.13 12.3744C23.2436 12.3709 23.3359 12.2768 23.3359 12.1615V11.6859H23.3377Z" fill="white"/>
</svg>
