<svg width="30" height="30" viewBox="0 0 30 30" fill="none" xmlns="http://www.w3.org/2000/svg">
<g clip-path="url(#clip0_1_552)">
<path d="M13.6676 1.69099L8.12188 7.23672C7.28504 8.07356 7.28504 9.43034 8.12188 10.2672L19.7285 21.8738C20.5654 22.7107 21.9222 22.7107 22.759 21.8738L28.3047 16.3281C29.1416 15.4913 29.1416 14.1345 28.3047 13.2976L16.6981 1.69099C15.8612 0.85415 14.5045 0.85415 13.6676 1.69099Z" stroke="#101820" stroke-width="1.5" stroke-linecap="round" stroke-linejoin="round"/>
<path d="M1.9501 23.7634C1.38178 24.3318 1.0625 25.1026 1.0625 25.9063C1.0625 26.71 1.38178 27.4808 1.9501 28.0492C2.51842 28.6175 3.28923 28.9368 4.09296 28.9368C4.89668 28.9368 5.66749 28.6175 6.23581 28.0492L16.0715 18.2134L11.7858 13.9277L1.9501 23.7634Z" stroke="#101820" stroke-width="1.5" stroke-linecap="round" stroke-linejoin="round"/>
</g>
<defs>
<clipPath id="clip0_1_552">
<rect width="30" height="30" fill="white"/>
</clipPath>
</defs>
</svg>
