<svg width="30" height="30" viewBox="0 0 30 30" fill="none" xmlns="http://www.w3.org/2000/svg">
<path d="M14.8894 22C18.727 22 21.838 18.866 21.838 15C21.838 11.134 18.727 8 14.8894 8C11.0519 8 7.94092 11.134 7.94092 15C7.94092 18.866 11.0519 22 14.8894 22Z" stroke="#101820" stroke-width="1.45312" stroke-linecap="round" stroke-linejoin="round"/>
<path d="M14.8901 1L14.8901 8" stroke="#101820" stroke-width="1.45312" stroke-linecap="round" stroke-linejoin="round"/>
<path d="M14.8901 29L14.8901 22" stroke="#101820" stroke-width="1.45312" stroke-linecap="round" stroke-linejoin="round"/>
<path d="M28.7869 15L21.8384 15" stroke="#101820" stroke-width="1.45312" stroke-linecap="round" stroke-linejoin="round"/>
<path d="M0.992389 15H7.94092" stroke="#101820" stroke-width="1.45312" stroke-linecap="round" stroke-linejoin="round"/>
<path d="M4.94626 4.98275L9.57861 9.64941" stroke="#101820" stroke-width="1.45312" stroke-linecap="round" stroke-linejoin="round"/>
<path d="M24.1543 4.98275L19.522 9.64941" stroke="#101820" stroke-width="1.45312" stroke-linecap="round" stroke-linejoin="round"/>
<path d="M19.8965 20.0432L24.1548 24.333" stroke="#101820" stroke-width="1.45312" stroke-linecap="round" stroke-linejoin="round"/>
<path d="M4.94626 24.3337L9.57861 19.667" stroke="#101820" stroke-width="1.45312" stroke-linecap="round" stroke-linejoin="round"/>
<path d="M28.7876 17.3337L28.7876 12.667" stroke="#101820" stroke-width="1.45312" stroke-linecap="round" stroke-linejoin="round"/>
<path d="M0.992676 12.6663L0.992676 17.333" stroke="#101820" stroke-width="1.45312" stroke-linecap="round" stroke-linejoin="round"/>
<path d="M6.58465 3.33396L3.30908 6.63379" stroke="#101820" stroke-width="1.45312" stroke-linecap="round" stroke-linejoin="round"/>
<path d="M25.7936 6.63284L22.5181 3.33301" stroke="#101820" stroke-width="1.45312" stroke-linecap="round" stroke-linejoin="round"/>
<path d="M22.5169 25.9834L25.7925 22.6836" stroke="#101820" stroke-width="1.45312" stroke-linecap="round" stroke-linejoin="round"/>
<path d="M3.30891 22.6836L6.58447 25.9834" stroke="#101820" stroke-width="1.45312" stroke-linecap="round" stroke-linejoin="round"/>
<path d="M17.2061 1L12.5737 1" stroke="#101820" stroke-width="1.45312" stroke-linecap="round" stroke-linejoin="round"/>
<path d="M12.5732 29L17.2056 29" stroke="#101820" stroke-width="1.45312" stroke-linecap="round" stroke-linejoin="round"/>
</svg>
