<svg width="30" height="30" viewBox="0 0 30 30" fill="none" xmlns="http://www.w3.org/2000/svg">
<g clip-path="url(#clip0_1_11258)">
<path d="M8.57102 13.9062L1.69245 20.7205C1.4916 20.9197 1.33218 21.1567 1.22339 21.4179C1.1146 21.679 1.05859 21.9591 1.05859 22.242C1.05859 22.5248 1.1146 22.8049 1.22339 23.0661C1.33218 23.3272 1.4916 23.5642 1.69245 23.7634L6.23531 28.3063C6.43451 28.5071 6.67151 28.6665 6.93264 28.7753C7.19377 28.8841 7.47385 28.9401 7.75673 28.9401C8.03962 28.9401 8.3197 28.8841 8.58083 28.7753C8.84195 28.6665 9.07896 28.5071 9.27816 28.3063L16.0924 21.4277" stroke="#101820" stroke-width="1.5" stroke-linecap="round" stroke-linejoin="round"/>
<path d="M21.4277 16.0924L28.242 9.27816C28.4428 9.07896 28.6022 8.84195 28.711 8.58083C28.8198 8.3197 28.8758 8.03962 28.8758 7.75673C28.8758 7.47385 28.8198 7.19377 28.711 6.93264C28.6022 6.67151 28.4428 6.43451 28.242 6.23531L23.7634 1.69245C23.5642 1.4916 23.3272 1.33218 23.0661 1.22339C22.8049 1.1146 22.5248 1.05859 22.242 1.05859C21.9591 1.05859 21.679 1.1146 21.4179 1.22339C21.1567 1.33218 20.9197 1.4916 20.7205 1.69245L13.9062 8.57102" stroke="#101820" stroke-width="1.5" stroke-linecap="round" stroke-linejoin="round"/>
<path d="M19.2853 10.7139L10.7139 19.2853" stroke="#101820" stroke-width="1.5" stroke-linecap="round" stroke-linejoin="round"/>
</g>
<defs>
<clipPath id="clip0_1_11258">
<rect width="30" height="30" fill="white"/>
</clipPath>
</defs>
</svg>
