<svg width="30" height="30" viewBox="0 0 30 30" fill="none" xmlns="http://www.w3.org/2000/svg">
<path d="M14.889 22C18.7265 22 21.8375 18.866 21.8375 15C21.8375 11.134 18.7265 8 14.889 8C11.0514 8 7.94043 11.134 7.94043 15C7.94043 18.866 11.0514 22 14.889 22Z" stroke="#101820" stroke-width="1.45312" stroke-linecap="round" stroke-linejoin="round"/>
<path d="M14.8896 1L14.8896 8" stroke="#101820" stroke-width="1.45312" stroke-linecap="round" stroke-linejoin="round"/>
<path d="M14.8896 29L14.8896 22" stroke="#101820" stroke-width="1.45312" stroke-linecap="round" stroke-linejoin="round"/>
<path d="M28.7864 15L21.8379 15" stroke="#101820" stroke-width="1.45312" stroke-linecap="round" stroke-linejoin="round"/>
<path d="M0.991901 15H7.94043" stroke="#101820" stroke-width="1.45312" stroke-linecap="round" stroke-linejoin="round"/>
<path d="M4.94577 4.98275L9.57812 9.64941" stroke="#101820" stroke-width="1.45312" stroke-linecap="round" stroke-linejoin="round"/>
<path d="M24.1538 4.98275L19.5215 9.64941" stroke="#101820" stroke-width="1.45312" stroke-linecap="round" stroke-linejoin="round"/>
<path d="M19.8961 20.0432L24.1543 24.333" stroke="#101820" stroke-width="1.45312" stroke-linecap="round" stroke-linejoin="round"/>
<path d="M4.94577 24.3337L9.57812 19.667" stroke="#101820" stroke-width="1.45312" stroke-linecap="round" stroke-linejoin="round"/>
<path d="M28.7871 17.3337L28.7871 12.667" stroke="#101820" stroke-width="1.45312" stroke-linecap="round" stroke-linejoin="round"/>
<path d="M0.992187 12.6663L0.992188 17.333" stroke="#101820" stroke-width="1.45312" stroke-linecap="round" stroke-linejoin="round"/>
<path d="M6.58416 3.33396L3.30859 6.63379" stroke="#101820" stroke-width="1.45312" stroke-linecap="round" stroke-linejoin="round"/>
<path d="M25.7931 6.63284L22.5176 3.33301" stroke="#101820" stroke-width="1.45312" stroke-linecap="round" stroke-linejoin="round"/>
<path d="M22.5164 25.9834L25.792 22.6836" stroke="#101820" stroke-width="1.45312" stroke-linecap="round" stroke-linejoin="round"/>
<path d="M3.30842 22.6836L6.58398 25.9834" stroke="#101820" stroke-width="1.45312" stroke-linecap="round" stroke-linejoin="round"/>
<path d="M17.2056 1L12.5732 1" stroke="#101820" stroke-width="1.45312" stroke-linecap="round" stroke-linejoin="round"/>
<path d="M12.5727 29L17.2051 29" stroke="#101820" stroke-width="1.45312" stroke-linecap="round" stroke-linejoin="round"/>
</svg>
