<svg width="30" height="30" viewBox="0 0 30 30" fill="none" xmlns="http://www.w3.org/2000/svg">
<path d="M14.8898 22C18.7273 22 21.8383 18.866 21.8383 15C21.8383 11.134 18.7273 8 14.8898 8C11.0522 8 7.94122 11.134 7.94122 15C7.94122 18.866 11.0522 22 14.8898 22Z" stroke="#101820" stroke-width="1.45312" stroke-linecap="round" stroke-linejoin="round"/>
<path d="M14.8897 1L14.8897 8" stroke="#101820" stroke-width="1.45312" stroke-linecap="round" stroke-linejoin="round"/>
<path d="M14.8897 29L14.8897 22" stroke="#101820" stroke-width="1.45312" stroke-linecap="round" stroke-linejoin="round"/>
<path d="M28.7867 15L21.8382 15" stroke="#101820" stroke-width="1.45312" stroke-linecap="round" stroke-linejoin="round"/>
<path d="M0.992694 15H7.94122" stroke="#101820" stroke-width="1.45312" stroke-linecap="round" stroke-linejoin="round"/>
<path d="M4.94626 4.98275L9.57861 9.64941" stroke="#101820" stroke-width="1.45312" stroke-linecap="round" stroke-linejoin="round"/>
<path d="M24.1543 4.98275L19.522 9.64941" stroke="#101820" stroke-width="1.45312" stroke-linecap="round" stroke-linejoin="round"/>
<path d="M19.8961 20.0432L24.1543 24.333" stroke="#101820" stroke-width="1.45312" stroke-linecap="round" stroke-linejoin="round"/>
<path d="M4.94626 24.3337L9.57861 19.667" stroke="#101820" stroke-width="1.45312" stroke-linecap="round" stroke-linejoin="round"/>
<path d="M28.7866 17.3337L28.7866 12.667" stroke="#101820" stroke-width="1.45312" stroke-linecap="round" stroke-linejoin="round"/>
<path d="M0.992676 12.6663L0.992676 17.333" stroke="#101820" stroke-width="1.45312" stroke-linecap="round" stroke-linejoin="round"/>
<path d="M6.58465 3.33396L3.30908 6.63379" stroke="#101820" stroke-width="1.45312" stroke-linecap="round" stroke-linejoin="round"/>
<path d="M25.7922 6.63284L22.5166 3.33301" stroke="#101820" stroke-width="1.45312" stroke-linecap="round" stroke-linejoin="round"/>
<path d="M22.5165 25.9834L25.7921 22.6836" stroke="#101820" stroke-width="1.45312" stroke-linecap="round" stroke-linejoin="round"/>
<path d="M3.30842 22.6836L6.58398 25.9834" stroke="#101820" stroke-width="1.45312" stroke-linecap="round" stroke-linejoin="round"/>
<path d="M17.206 1L12.5736 1" stroke="#101820" stroke-width="1.45312" stroke-linecap="round" stroke-linejoin="round"/>
<path d="M12.5736 29L17.2059 29" stroke="#101820" stroke-width="1.45312" stroke-linecap="round" stroke-linejoin="round"/>
</svg>
