<svg width="30" height="30" viewBox="0 0 30 30" fill="none" xmlns="http://www.w3.org/2000/svg">
<path d="M22.5 7.49998C22.5 9.48911 21.7098 11.3968 20.3033 12.8033C18.8968 14.2098 16.9891 15 15 15C13.0109 15 11.1032 14.2098 9.6967 12.8033C8.29018 11.3968 7.5 9.48911 7.5 7.49998V1.07141H22.5V7.49998Z" stroke="#101820" stroke-width="1.5" stroke-linecap="round" stroke-linejoin="round"/>
<path d="M22.5 22.5C22.5 20.5109 21.7098 18.6032 20.3033 17.1967C18.8968 15.7902 16.9891 15 15 15C13.0109 15 11.1032 15.7902 9.6967 17.1967C8.29018 18.6032 7.5 20.5109 7.5 22.5V28.9286H22.5V22.5Z" stroke="#101820" stroke-width="1.5" stroke-linecap="round" stroke-linejoin="round"/>
<path d="M3.21423 1.07141H26.7857" stroke="#101820" stroke-width="1.5" stroke-linecap="round" stroke-linejoin="round"/>
<path d="M3.21423 28.9288H26.7857" stroke="#101820" stroke-width="1.5" stroke-linecap="round" stroke-linejoin="round"/>
</svg>
