<svg width="32" height="32" viewBox="0 0 32 32" fill="none" xmlns="http://www.w3.org/2000/svg">
<path d="M30.5312 31C30.4828 31 30.4339 30.9925 30.3864 30.977C20.9747 27.9189 11.0253 27.9189 1.61361 30.977C1.44597 31.0315 1.26193 30.9873 1.1373 30.8627C1.01267 30.738 0.968473 30.554 1.02297 30.3864C4.08109 20.9747 4.08109 11.0253 1.02297 1.61361C0.968493 1.44598 1.01267 1.26195 1.1373 1.1373C1.26195 1.01266 1.44599 0.968477 1.61361 1.02297C11.0253 4.08107 20.9747 4.08107 30.3864 1.02297C30.554 0.968496 30.738 1.01268 30.8627 1.1373C30.9873 1.26193 31.0315 1.44598 30.977 1.61361C27.9189 11.0253 27.9189 20.9747 30.977 30.3864C31.0315 30.554 30.9873 30.738 30.8627 30.8627C30.7734 30.952 30.6536 31 30.5312 31ZM2.18556 2.18557C3.54857 6.6672 4.23909 11.31 4.23909 16C4.23909 20.69 3.54857 25.3328 2.18556 29.8144C6.6672 28.4514 11.31 27.7609 16 27.7609C20.69 27.7609 25.3328 28.4514 29.8144 29.8144C28.4514 25.3328 27.7609 20.69 27.7609 16C27.7609 11.31 28.4514 6.6672 29.8144 2.18557C25.3328 3.54857 20.69 4.2391 16 4.2391C11.31 4.2391 6.6672 3.54857 2.18556 2.18557Z" fill="#101820" stroke="#101820" stroke-width="0.5"/>
<path d="M20.3887 11.7761C20.2687 11.7761 20.1487 11.7303 20.0572 11.6388C19.8742 11.4557 19.8742 11.1589 20.0572 10.9759L23.9634 7.06966C24.1465 6.88661 24.4433 6.88661 24.6263 7.06966C24.8094 7.25272 24.8094 7.54952 24.6263 7.73257L20.7201 11.6388C20.6286 11.7303 20.5087 11.7761 20.3887 11.7761Z" fill="#101820" stroke="#101820" stroke-width="0.1"/>
<path d="M23.9914 10.5308C23.9737 10.5308 23.9558 10.5298 23.9378 10.5277C23.6806 10.4984 23.4958 10.2662 23.5251 10.0089L23.7613 7.93348L21.6859 8.16975C21.4287 8.19905 21.1964 8.01425 21.1671 7.75702C21.1378 7.49981 21.3226 7.26755 21.5798 7.23825L24.2407 6.93536C24.3827 6.91929 24.5242 6.96864 24.6252 7.06964C24.7262 7.17063 24.7756 7.3122 24.7595 7.45411L24.4565 10.115C24.4293 10.3542 24.2265 10.5308 23.9914 10.5308Z" fill="#101820" stroke="#101820" stroke-width="0.1"/>
<path d="M11.6113 11.7762C11.4913 11.7762 11.3714 11.7304 11.2798 11.6389L7.37363 7.73269C7.19056 7.54962 7.19056 7.25283 7.37363 7.06978C7.55669 6.88673 7.85347 6.88673 8.03654 7.06978L11.9427 10.976C12.1258 11.1591 12.1258 11.4559 11.9427 11.6389C11.8512 11.7304 11.7313 11.7762 11.6113 11.7762Z" fill="#101820" stroke="#101820" stroke-width="0.1"/>
<path d="M8.00738 10.5309C7.77223 10.5309 7.56945 10.3543 7.54223 10.1151L7.23934 7.45423C7.22319 7.3123 7.27262 7.17076 7.37362 7.06976C7.47461 6.96876 7.61623 6.91941 7.75809 6.93548L10.4189 7.23837C10.6762 7.26767 10.861 7.49992 10.8317 7.75714C10.8044 7.99634 10.6016 8.1729 10.3665 8.17292C10.3488 8.17292 10.331 8.17193 10.3129 8.16988L8.23746 7.93361L8.47371 10.0091C8.50299 10.2663 8.3182 10.4985 8.06098 10.5278C8.04299 10.5299 8.0251 10.5309 8.00738 10.5309Z" fill="#101820" stroke="#101820" stroke-width="0.1"/>
<path d="M24.2949 25.0672C24.1749 25.0672 24.055 25.0214 23.9634 24.9299L20.0572 21.0237C19.8742 20.8407 19.8742 20.5439 20.0572 20.3608C20.2403 20.1777 20.537 20.1777 20.7201 20.3608L24.6263 24.267C24.8094 24.4501 24.8094 24.7469 24.6263 24.9299C24.5348 25.0214 24.4149 25.0672 24.2949 25.0672Z" fill="#101820" stroke="#101820" stroke-width="0.1"/>
<path d="M24.2937 25.0671C24.2761 25.0671 24.2584 25.0661 24.2407 25.0641L21.5798 24.7612C21.3226 24.7319 21.1378 24.4996 21.1671 24.2424C21.1964 23.9852 21.4284 23.8003 21.6859 23.8297L23.7613 24.066L23.5251 21.9905C23.4958 21.7333 23.6806 21.501 23.9378 21.4717C24.1947 21.4422 24.4273 21.6272 24.4566 21.8844L24.7595 24.5453C24.7756 24.6872 24.7262 24.8288 24.6252 24.9298C24.5368 25.0182 24.4173 25.0671 24.2937 25.0671Z" fill="#101820" stroke="#101820" stroke-width="0.1"/>
<path d="M7.70509 25.0672C7.58513 25.0672 7.46517 25.0214 7.37363 24.9299C7.19056 24.7469 7.19056 24.4501 7.37363 24.267L11.2798 20.3608C11.4629 20.1777 11.7597 20.1777 11.9427 20.3608C12.1258 20.5439 12.1258 20.8407 11.9427 21.0237L8.03654 24.9299C7.94503 25.0214 7.82505 25.0672 7.70509 25.0672Z" fill="#101820" stroke="#101820" stroke-width="0.1"/>
<path d="M7.70505 25.0671C7.58145 25.0671 7.46202 25.0182 7.37362 24.9298C7.27263 24.8288 7.22317 24.6872 7.23934 24.5453L7.54223 21.8844C7.57151 21.6272 7.80374 21.4422 8.061 21.4717C8.31823 21.501 8.50301 21.7333 8.47374 21.9905L8.23749 24.066L10.313 23.8297C10.5702 23.8002 10.8024 23.9852 10.8317 24.2424C10.861 24.4996 10.6762 24.7319 10.419 24.7612L7.75813 25.0641C7.74038 25.0661 7.72266 25.0671 7.70505 25.0671Z" fill="#101820" stroke="#101820" stroke-width="0.1"/>
</svg>
