<svg width="30" height="30" viewBox="0 0 30 30" fill="none" xmlns="http://www.w3.org/2000/svg">
<g clip-path="url(#clip0_1_6276)">
<path d="M15.7713 28.7786C15.2748 28.9702 14.7249 28.9702 14.2284 28.7786V28.7786C10.3547 27.2914 7.02329 24.6641 4.67417 21.2438C2.32505 17.8234 1.06878 13.7709 1.07129 9.62148V3.19291C1.07129 2.62459 1.29706 2.07954 1.69892 1.67768C2.10078 1.27581 2.64583 1.05005 3.21415 1.05005H26.7856C27.3539 1.05005 27.8989 1.27581 28.3008 1.67768C28.7027 2.07954 28.9284 2.62459 28.9284 3.19291V9.62148C28.9309 13.7709 27.6747 17.8234 25.3256 21.2438C22.9764 24.6641 19.645 27.2914 15.7713 28.7786V28.7786Z" stroke="#101820" stroke-width="1.5" stroke-linecap="round" stroke-linejoin="round"/>
</g>
<defs>
<clipPath id="clip0_1_6276">
<rect width="30" height="30" fill="white"/>
</clipPath>
</defs>
</svg>
