<svg width="29" height="29" viewBox="0 0 29 29" fill="none" xmlns="http://www.w3.org/2000/svg">
<path d="M6.21289 14.5V9.05216C6.22907 7.9813 6.45639 6.92415 6.88183 5.94129C7.30728 4.95844 7.92247 4.06919 8.69218 3.3245C9.46189 2.57981 10.371 1.99431 11.3673 1.60157C12.3637 1.20882 13.4278 1.01653 14.4986 1.03573V1.03573C15.5694 1.01653 16.6335 1.20882 17.6299 1.60157C18.6262 1.99431 19.5353 2.57981 20.305 3.3245C21.0747 4.06919 21.6899 4.95844 22.1154 5.94129C22.5408 6.92415 22.7681 7.9813 22.7843 9.05216V14.5" stroke="#101820" stroke-width="1.5" stroke-linecap="round" stroke-linejoin="round"/>
<path d="M3.10658 11.3928H5.17801C5.4527 11.3928 5.71614 11.5019 5.91037 11.6962C6.10461 11.8904 6.21373 12.1538 6.21373 12.4285V18.6428C6.21373 18.9175 6.10461 19.1809 5.91037 19.3752C5.71614 19.5694 5.4527 19.6785 5.17801 19.6785H3.10658C2.55721 19.6785 2.03033 19.4603 1.64186 19.0718C1.2534 18.6834 1.03516 18.1565 1.03516 17.6071V13.4643C1.03516 12.9149 1.2534 12.388 1.64186 11.9995C2.03033 11.6111 2.55721 11.3928 3.10658 11.3928V11.3928Z" stroke="#101820" stroke-width="1.5" stroke-linecap="round" stroke-linejoin="round"/>
<path d="M25.8915 19.6787H23.82C23.5453 19.6787 23.2819 19.5696 23.0877 19.3754C22.8934 19.1811 22.7843 18.9177 22.7843 18.643V12.4287C22.7843 12.154 22.8934 11.8906 23.0877 11.6963C23.2819 11.5021 23.5453 11.393 23.82 11.393H25.8915C26.4408 11.393 26.9677 11.6112 27.3562 11.9997C27.7447 12.3882 27.9629 12.915 27.9629 13.4644V17.6073C27.9629 18.1567 27.7447 18.6835 27.3562 19.072C26.9677 19.4605 26.4408 19.6787 25.8915 19.6787V19.6787Z" stroke="#101820" stroke-width="1.5" stroke-linecap="round" stroke-linejoin="round"/>
<path d="M18.6426 25.3751C19.7413 25.3751 20.7951 24.9386 21.572 24.1617C22.349 23.3848 22.7854 22.331 22.7854 21.2322V16.5715" stroke="#101820" stroke-width="1.5" stroke-linecap="round" stroke-linejoin="round"/>
<path d="M18.6431 25.3749C18.6431 26.0617 18.3703 26.7202 17.8848 27.2058C17.3992 27.6914 16.7406 27.9642 16.0539 27.9642H12.9467C12.26 27.9642 11.6014 27.6914 11.1158 27.2058C10.6302 26.7202 10.3574 26.0617 10.3574 25.3749C10.3574 24.6882 10.6302 24.0296 11.1158 23.544C11.6014 23.0584 12.26 22.7856 12.9467 22.7856H16.0539C16.7406 22.7856 17.3992 23.0584 17.8848 23.544C18.3703 24.0296 18.6431 24.6882 18.6431 25.3749Z" stroke="#101820" stroke-width="1.5" stroke-linecap="round" stroke-linejoin="round"/>
</svg>
