<svg width="37" height="29" viewBox="0 0 37 29" fill="none" xmlns="http://www.w3.org/2000/svg">
<path d="M14.5346 6.53564H6.60603C5.20417 6.53564 3.85973 7.09253 2.86846 8.08379C1.8772 9.07506 1.32031 10.4195 1.32031 11.8214V22.3928H5.2846" stroke="#000001" stroke-width="1.5" stroke-linecap="round" stroke-linejoin="round"/>
<path d="M33.0352 22.3929H35.678V3.89286C35.678 3.19193 35.3996 2.51971 34.9039 2.02407C34.4083 1.52844 33.7361 1.25 33.0352 1.25H17.178C16.4771 1.25 15.8049 1.52844 15.3092 2.02407C14.8136 2.51971 14.5352 3.19193 14.5352 3.89286V18.9043" stroke="#000001" stroke-width="1.5" stroke-linecap="round" stroke-linejoin="round"/>
<path d="M15.8555 22.3928H22.4626" stroke="#000001" stroke-width="1.5" stroke-linecap="round" stroke-linejoin="round"/>
<path d="M10.5709 27.6786C13.4901 27.6786 15.8566 25.3121 15.8566 22.3929C15.8566 19.4737 13.4901 17.1072 10.5709 17.1072C7.65165 17.1072 5.28516 19.4737 5.28516 22.3929C5.28516 25.3121 7.65165 27.6786 10.5709 27.6786Z" stroke="#000001" stroke-width="1.5" stroke-linecap="round" stroke-linejoin="round"/>
<path d="M27.7506 27.6786C30.6698 27.6786 33.0363 25.3121 33.0363 22.3929C33.0363 19.4737 30.6698 17.1072 27.7506 17.1072C24.8313 17.1072 22.4648 19.4737 22.4648 22.3929C22.4648 25.3121 24.8313 27.6786 27.7506 27.6786Z" stroke="#000001" stroke-width="1.5" stroke-linecap="round" stroke-linejoin="round"/>
</svg>
