<svg width="30" height="30" viewBox="0 0 30 30" fill="none" xmlns="http://www.w3.org/2000/svg">
<path d="M15 1.07153V9.64296" stroke="#000001" stroke-width="1.5" stroke-linecap="round" stroke-linejoin="round"/>
<path d="M18.2148 23.5715H23.572" stroke="#000001" stroke-width="1.5" stroke-linecap="round" stroke-linejoin="round"/>
<path d="M1.07031 9.64307H28.9275V26.7859C28.9275 27.3542 28.7017 27.8993 28.2998 28.3012C27.898 28.703 27.3529 28.9288 26.7846 28.9288H3.21317C2.64485 28.9288 2.0998 28.703 1.69794 28.3012C1.29608 27.8993 1.07031 27.3542 1.07031 26.7859V9.64307Z" stroke="#000001" stroke-width="1.5" stroke-linecap="round" stroke-linejoin="round"/>
<path d="M1.07031 9.64296L4.2846 3.4501C4.63112 2.75211 5.16139 2.16181 5.81836 1.74271C6.47534 1.3236 7.23415 1.09156 8.01317 1.07153H21.9846C22.7819 1.07196 23.5633 1.29479 24.2409 1.71499C24.9185 2.13518 25.4655 2.73608 25.8203 3.4501L28.9275 9.64296" stroke="#000001" stroke-width="1.5" stroke-linecap="round" stroke-linejoin="round"/>
</svg>
