<svg width="30" height="30" viewBox="0 0 30 30" fill="none" xmlns="http://www.w3.org/2000/svg">
<g clip-path="url(#clip0_1_12100)">
<path d="M1.07227 24.6431C1.07227 24.6431 5.35798 20.3574 15.0008 20.3574C24.6437 20.3574 28.9294 24.6431 28.9294 24.6431" stroke="#101820" stroke-width="1.5" stroke-linecap="round" stroke-linejoin="round"/>
<path d="M15.002 20.3574V28.9289" stroke="#101820" stroke-width="1.5" stroke-linecap="round" stroke-linejoin="round"/>
<path d="M5.35742 28.929L12.8574 20.4219" stroke="#101820" stroke-width="1.5" stroke-linecap="round" stroke-linejoin="round"/>
<path d="M24.6445 28.929L17.1445 20.4219" stroke="#101820" stroke-width="1.5" stroke-linecap="round" stroke-linejoin="round"/>
<path d="M7.58699 16.0714C7.55434 15.715 7.55434 15.3564 7.58699 15C7.58699 13.0109 8.37717 11.1032 9.78369 9.6967C11.1902 8.29018 13.0979 7.5 15.087 7.5C17.0761 7.5 18.9838 8.29018 20.3903 9.6967C21.7968 11.1032 22.587 13.0109 22.587 15C22.6196 15.3564 22.6196 15.715 22.587 16.0714" stroke="#101820" stroke-width="1.5" stroke-linecap="round" stroke-linejoin="round"/>
<path d="M1.07227 15H3.21512" stroke="#101820" stroke-width="1.5" stroke-linecap="round" stroke-linejoin="round"/>
<path d="M5.35742 5.35742L6.42885 6.42885" stroke="#101820" stroke-width="1.5" stroke-linecap="round" stroke-linejoin="round"/>
<path d="M15.002 1.07129V3.21415" stroke="#101820" stroke-width="1.5" stroke-linecap="round" stroke-linejoin="round"/>
<path d="M24.6437 5.35742L23.5723 6.42885" stroke="#101820" stroke-width="1.5" stroke-linecap="round" stroke-linejoin="round"/>
<path d="M28.93 15H26.7871" stroke="#101820" stroke-width="1.5" stroke-linecap="round" stroke-linejoin="round"/>
</g>
<defs>
<clipPath id="clip0_1_12100">
<rect width="30" height="30" fill="white"/>
</clipPath>
</defs>
</svg>
