<svg width="30" height="30" viewBox="0 0 30 30" fill="none" xmlns="http://www.w3.org/2000/svg">
<g clip-path="url(#clip0_1_12246)">
<path d="M15.0008 1.07129C17.7557 1.07129 20.4486 1.88819 22.7391 3.41868C25.0297 4.94917 26.8149 7.12451 27.8692 9.66963C28.9234 12.2147 29.1992 15.0153 28.6618 17.7172C28.1243 20.4191 26.7978 22.9009 24.8498 24.8488C22.9019 26.7968 20.4201 28.1234 17.7182 28.6608C15.0163 29.1982 12.2157 28.9224 9.67061 27.8682C7.1255 26.814 4.95015 25.0287 3.41966 22.7382C1.88917 20.4476 1.07228 17.7547 1.07228 14.9999C1.06786 11.0098 2.60303 7.17188 5.35799 4.28557" stroke="#101820" stroke-width="1.5" stroke-linecap="round" stroke-linejoin="round"/>
<path d="M1.07227 5.35658L5.35798 4.28516L6.42941 8.57087" stroke="#101820" stroke-width="1.5" stroke-linecap="round" stroke-linejoin="round"/>
<path d="M15 7.5V16.0714L20.5714 18.8571" stroke="#101820" stroke-width="1.5" stroke-linecap="round" stroke-linejoin="round"/>
</g>
<defs>
<clipPath id="clip0_1_12246">
<rect width="30" height="30" fill="white"/>
</clipPath>
</defs>
</svg>
