<svg width="30" height="30" viewBox="0 0 30 30" fill="none" xmlns="http://www.w3.org/2000/svg">
<g clip-path="url(#clip0_1_12236)">
<path d="M12.8587 21.5999V25.8856C12.8531 26.0466 12.7852 26.1993 12.6693 26.3112C12.5533 26.4231 12.3984 26.4857 12.2373 26.4856H7.73728C6.99737 26.3609 6.32756 25.9727 5.85156 25.3927" stroke="#101820" stroke-width="1.5" stroke-linecap="round" stroke-linejoin="round"/>
<path d="M5.85084 25.4145C5.85084 25.4145 3.51512 23.3788 8.93655 17.9573H11.358L7.73655 11.9788H1.07227L2.89369 14.3145C2.89369 14.3145 1.67227 14.5288 1.67227 16.2216C2.31292 19.575 3.74555 22.7268 5.85084 25.4145V25.4145Z" stroke="#101820" stroke-width="1.5" stroke-linecap="round" stroke-linejoin="round"/>
<path d="M22.1797 13.6503L25.3511 11.5074C25.422 11.4761 25.4986 11.46 25.5761 11.46C25.6536 11.46 25.7302 11.4761 25.8011 11.5074C25.8839 11.5171 25.9634 11.5452 26.0339 11.5897C26.1044 11.6342 26.1639 11.694 26.2083 11.7646L28.6725 15.4503C28.8198 15.7466 28.8964 16.073 28.8964 16.4038C28.8964 16.7347 28.8198 17.0611 28.6725 17.3574" stroke="#101820" stroke-width="1.5" stroke-linecap="round" stroke-linejoin="round"/>
<path d="M28.758 17.1426C28.758 17.1426 28.0723 19.9283 20.9794 19.2854V17.4211L16.8223 22.864L20.7651 28.9283L20.9794 26.0783C20.9794 26.0783 21.7723 27.0426 23.1223 26.0783C25.3864 23.361 27.2813 20.3565 28.758 17.1426V17.1426Z" stroke="#101820" stroke-width="1.5" stroke-linecap="round" stroke-linejoin="round"/>
<path d="M9.32265 9.17129L6.42979 7.84272C6.28711 7.76899 6.17719 7.64453 6.12167 7.49383C6.06615 7.34313 6.06904 7.1771 6.12979 7.02843L8.57265 2.14272C8.73585 1.85346 8.96406 1.60609 9.23925 1.42015C9.51445 1.23421 9.8291 1.11478 10.1584 1.07129" stroke="#101820" stroke-width="1.5" stroke-linecap="round" stroke-linejoin="round"/>
<path d="M10.1582 1.07158C10.1582 1.07158 12.7939 1.07158 16.1368 7.50015L14.4011 9.64301H21.6011L24.1511 2.91444L21.1511 3.83586C21.1075 3.37092 20.9391 2.92639 20.6638 2.54921C20.3884 2.17203 20.0163 1.87622 19.5868 1.69301C18.1098 1.20405 16.5549 0.993341 15.0011 1.07158H10.1582Z" stroke="#101820" stroke-width="1.5" stroke-linecap="round" stroke-linejoin="round"/>
</g>
<defs>
<clipPath id="clip0_1_12236">
<rect width="30" height="30" fill="white"/>
</clipPath>
</defs>
</svg>
